G04 #@! TF.GenerationSoftware,KiCad,Pcbnew,(5.1.5)-2*
G04 #@! TF.CreationDate,2020-03-06T14:17:14-06:00*
G04 #@! TF.ProjectId,PatchPanel,50617463-6850-4616-9e65-6c2e6b696361,rev?*
G04 #@! TF.SameCoordinates,Original*
G04 #@! TF.FileFunction,Paste,Top*
G04 #@! TF.FilePolarity,Positive*
%FSLAX46Y46*%
G04 Gerber Fmt 4.6, Leading zero omitted, Abs format (unit mm)*
G04 Created by KiCad (PCBNEW (5.1.5)-2) date 2020-03-06 14:17:14*
%MOMM*%
%LPD*%
G04 APERTURE LIST*
%ADD10R,2.750000X3.050000*%
%ADD11R,1.200000X2.200000*%
%ADD12R,0.450000X1.500000*%
%ADD13C,0.100000*%
G04 APERTURE END LIST*
D10*
X105030000Y-127654500D03*
X101980000Y-124304500D03*
X101980000Y-127654500D03*
X105030000Y-124304500D03*
D11*
X105785000Y-132279500D03*
X101225000Y-132279500D03*
D10*
X128652000Y-127718000D03*
X125602000Y-124368000D03*
X125602000Y-127718000D03*
X128652000Y-124368000D03*
D11*
X129407000Y-132343000D03*
X124847000Y-132343000D03*
X129343500Y-86986000D03*
X124783500Y-86986000D03*
D10*
X125538500Y-94961000D03*
X128588500Y-91611000D03*
X128588500Y-94961000D03*
X125538500Y-91611000D03*
D12*
X125158500Y-135830000D03*
X125808500Y-138490000D03*
X124508500Y-138490000D03*
X128968500Y-83562500D03*
X128318500Y-80902500D03*
X129618500Y-80902500D03*
D11*
X69665500Y-132343000D03*
X74225500Y-132343000D03*
D10*
X73470500Y-124368000D03*
X70420500Y-127718000D03*
X70420500Y-124368000D03*
X73470500Y-127718000D03*
X70420500Y-91738000D03*
X73470500Y-95088000D03*
X73470500Y-91738000D03*
X70420500Y-95088000D03*
D11*
X69665500Y-87113000D03*
X74225500Y-87113000D03*
D12*
X69977000Y-135893500D03*
X70627000Y-138553500D03*
X69327000Y-138553500D03*
X74500500Y-80902500D03*
X73200500Y-80902500D03*
X73850500Y-83562500D03*
D10*
X120778000Y-127718000D03*
X117728000Y-124368000D03*
X117728000Y-127718000D03*
X120778000Y-124368000D03*
D11*
X121533000Y-132343000D03*
X116973000Y-132343000D03*
X121533000Y-86986000D03*
X116973000Y-86986000D03*
D10*
X117728000Y-94961000D03*
X120778000Y-91611000D03*
X120778000Y-94961000D03*
X117728000Y-91611000D03*
D12*
X117221000Y-135830000D03*
X117871000Y-138490000D03*
X116571000Y-138490000D03*
X121158000Y-83562500D03*
X120508000Y-80902500D03*
X121808000Y-80902500D03*
D11*
X77603000Y-132343000D03*
X82163000Y-132343000D03*
D10*
X81408000Y-124368000D03*
X78358000Y-127718000D03*
X78358000Y-124368000D03*
X81408000Y-127718000D03*
X78294500Y-91733500D03*
X81344500Y-95083500D03*
X81344500Y-91733500D03*
X78294500Y-95083500D03*
D11*
X77539500Y-87108500D03*
X82099500Y-87108500D03*
D12*
X77264500Y-138553500D03*
X78564500Y-138553500D03*
X77914500Y-135893500D03*
X81724500Y-83499000D03*
X81074500Y-80839000D03*
X82374500Y-80839000D03*
D10*
X112904000Y-127722500D03*
X109854000Y-124372500D03*
X109854000Y-127722500D03*
X112904000Y-124372500D03*
D11*
X113659000Y-132347500D03*
X109099000Y-132347500D03*
D10*
X109917500Y-91674500D03*
X112967500Y-95024500D03*
X112967500Y-91674500D03*
X109917500Y-95024500D03*
D11*
X109162500Y-87049500D03*
X113722500Y-87049500D03*
D12*
X108760500Y-138486500D03*
X110060500Y-138486500D03*
X109410500Y-135826500D03*
X113997500Y-80902500D03*
X112697500Y-80902500D03*
X113347500Y-83562500D03*
D10*
X89218500Y-127722500D03*
X86168500Y-124372500D03*
X86168500Y-127722500D03*
X89218500Y-124372500D03*
D11*
X89973500Y-132347500D03*
X85413500Y-132347500D03*
D10*
X86232000Y-91733500D03*
X89282000Y-95083500D03*
X89282000Y-91733500D03*
X86232000Y-95083500D03*
D11*
X85477000Y-87108500D03*
X90037000Y-87108500D03*
D12*
X85075000Y-138486500D03*
X86375000Y-138486500D03*
X85725000Y-135826500D03*
X89662000Y-83562500D03*
X89012000Y-80902500D03*
X90312000Y-80902500D03*
D10*
X101980000Y-91670000D03*
X105030000Y-95020000D03*
X105030000Y-91670000D03*
X101980000Y-95020000D03*
D11*
X101225000Y-87045000D03*
X105785000Y-87045000D03*
D12*
X100886500Y-138486500D03*
X102186500Y-138486500D03*
X101536500Y-135826500D03*
X105410000Y-83562500D03*
X104760000Y-80902500D03*
X106060000Y-80902500D03*
D11*
X93287500Y-132343000D03*
X97847500Y-132343000D03*
D10*
X97092500Y-124368000D03*
X94042500Y-127718000D03*
X94042500Y-124368000D03*
X97092500Y-127718000D03*
D11*
X97910000Y-87084500D03*
X93350000Y-87084500D03*
D10*
X94105000Y-95059500D03*
X97155000Y-91709500D03*
X97155000Y-95059500D03*
X94105000Y-91709500D03*
D12*
X92949000Y-138486500D03*
X94249000Y-138486500D03*
X93599000Y-135826500D03*
X97536000Y-83562500D03*
X96886000Y-80902500D03*
X98186000Y-80902500D03*
D13*
G36*
X129723779Y-138273644D02*
G01*
X129746834Y-138277063D01*
X129769443Y-138282727D01*
X129791387Y-138290579D01*
X129812457Y-138300544D01*
X129832448Y-138312526D01*
X129851168Y-138326410D01*
X129868438Y-138342062D01*
X129884090Y-138359332D01*
X129897974Y-138378052D01*
X129909956Y-138398043D01*
X129919921Y-138419113D01*
X129927773Y-138441057D01*
X129933437Y-138463666D01*
X129936856Y-138486721D01*
X129938000Y-138510000D01*
X129938000Y-138985000D01*
X129936856Y-139008279D01*
X129933437Y-139031334D01*
X129927773Y-139053943D01*
X129919921Y-139075887D01*
X129909956Y-139096957D01*
X129897974Y-139116948D01*
X129884090Y-139135668D01*
X129868438Y-139152938D01*
X129851168Y-139168590D01*
X129832448Y-139182474D01*
X129812457Y-139194456D01*
X129791387Y-139204421D01*
X129769443Y-139212273D01*
X129746834Y-139217937D01*
X129723779Y-139221356D01*
X129700500Y-139222500D01*
X129125500Y-139222500D01*
X129102221Y-139221356D01*
X129079166Y-139217937D01*
X129056557Y-139212273D01*
X129034613Y-139204421D01*
X129013543Y-139194456D01*
X128993552Y-139182474D01*
X128974832Y-139168590D01*
X128957562Y-139152938D01*
X128941910Y-139135668D01*
X128928026Y-139116948D01*
X128916044Y-139096957D01*
X128906079Y-139075887D01*
X128898227Y-139053943D01*
X128892563Y-139031334D01*
X128889144Y-139008279D01*
X128888000Y-138985000D01*
X128888000Y-138510000D01*
X128889144Y-138486721D01*
X128892563Y-138463666D01*
X128898227Y-138441057D01*
X128906079Y-138419113D01*
X128916044Y-138398043D01*
X128928026Y-138378052D01*
X128941910Y-138359332D01*
X128957562Y-138342062D01*
X128974832Y-138326410D01*
X128993552Y-138312526D01*
X129013543Y-138300544D01*
X129034613Y-138290579D01*
X129056557Y-138282727D01*
X129079166Y-138277063D01*
X129102221Y-138273644D01*
X129125500Y-138272500D01*
X129700500Y-138272500D01*
X129723779Y-138273644D01*
G37*
G36*
X127973779Y-138273644D02*
G01*
X127996834Y-138277063D01*
X128019443Y-138282727D01*
X128041387Y-138290579D01*
X128062457Y-138300544D01*
X128082448Y-138312526D01*
X128101168Y-138326410D01*
X128118438Y-138342062D01*
X128134090Y-138359332D01*
X128147974Y-138378052D01*
X128159956Y-138398043D01*
X128169921Y-138419113D01*
X128177773Y-138441057D01*
X128183437Y-138463666D01*
X128186856Y-138486721D01*
X128188000Y-138510000D01*
X128188000Y-138985000D01*
X128186856Y-139008279D01*
X128183437Y-139031334D01*
X128177773Y-139053943D01*
X128169921Y-139075887D01*
X128159956Y-139096957D01*
X128147974Y-139116948D01*
X128134090Y-139135668D01*
X128118438Y-139152938D01*
X128101168Y-139168590D01*
X128082448Y-139182474D01*
X128062457Y-139194456D01*
X128041387Y-139204421D01*
X128019443Y-139212273D01*
X127996834Y-139217937D01*
X127973779Y-139221356D01*
X127950500Y-139222500D01*
X127375500Y-139222500D01*
X127352221Y-139221356D01*
X127329166Y-139217937D01*
X127306557Y-139212273D01*
X127284613Y-139204421D01*
X127263543Y-139194456D01*
X127243552Y-139182474D01*
X127224832Y-139168590D01*
X127207562Y-139152938D01*
X127191910Y-139135668D01*
X127178026Y-139116948D01*
X127166044Y-139096957D01*
X127156079Y-139075887D01*
X127148227Y-139053943D01*
X127142563Y-139031334D01*
X127139144Y-139008279D01*
X127138000Y-138985000D01*
X127138000Y-138510000D01*
X127139144Y-138486721D01*
X127142563Y-138463666D01*
X127148227Y-138441057D01*
X127156079Y-138419113D01*
X127166044Y-138398043D01*
X127178026Y-138378052D01*
X127191910Y-138359332D01*
X127207562Y-138342062D01*
X127224832Y-138326410D01*
X127243552Y-138312526D01*
X127263543Y-138300544D01*
X127284613Y-138290579D01*
X127306557Y-138282727D01*
X127329166Y-138277063D01*
X127352221Y-138273644D01*
X127375500Y-138272500D01*
X127950500Y-138272500D01*
X127973779Y-138273644D01*
G37*
G36*
X124911779Y-80107644D02*
G01*
X124934834Y-80111063D01*
X124957443Y-80116727D01*
X124979387Y-80124579D01*
X125000457Y-80134544D01*
X125020448Y-80146526D01*
X125039168Y-80160410D01*
X125056438Y-80176062D01*
X125072090Y-80193332D01*
X125085974Y-80212052D01*
X125097956Y-80232043D01*
X125107921Y-80253113D01*
X125115773Y-80275057D01*
X125121437Y-80297666D01*
X125124856Y-80320721D01*
X125126000Y-80344000D01*
X125126000Y-80819000D01*
X125124856Y-80842279D01*
X125121437Y-80865334D01*
X125115773Y-80887943D01*
X125107921Y-80909887D01*
X125097956Y-80930957D01*
X125085974Y-80950948D01*
X125072090Y-80969668D01*
X125056438Y-80986938D01*
X125039168Y-81002590D01*
X125020448Y-81016474D01*
X125000457Y-81028456D01*
X124979387Y-81038421D01*
X124957443Y-81046273D01*
X124934834Y-81051937D01*
X124911779Y-81055356D01*
X124888500Y-81056500D01*
X124313500Y-81056500D01*
X124290221Y-81055356D01*
X124267166Y-81051937D01*
X124244557Y-81046273D01*
X124222613Y-81038421D01*
X124201543Y-81028456D01*
X124181552Y-81016474D01*
X124162832Y-81002590D01*
X124145562Y-80986938D01*
X124129910Y-80969668D01*
X124116026Y-80950948D01*
X124104044Y-80930957D01*
X124094079Y-80909887D01*
X124086227Y-80887943D01*
X124080563Y-80865334D01*
X124077144Y-80842279D01*
X124076000Y-80819000D01*
X124076000Y-80344000D01*
X124077144Y-80320721D01*
X124080563Y-80297666D01*
X124086227Y-80275057D01*
X124094079Y-80253113D01*
X124104044Y-80232043D01*
X124116026Y-80212052D01*
X124129910Y-80193332D01*
X124145562Y-80176062D01*
X124162832Y-80160410D01*
X124181552Y-80146526D01*
X124201543Y-80134544D01*
X124222613Y-80124579D01*
X124244557Y-80116727D01*
X124267166Y-80111063D01*
X124290221Y-80107644D01*
X124313500Y-80106500D01*
X124888500Y-80106500D01*
X124911779Y-80107644D01*
G37*
G36*
X126661779Y-80107644D02*
G01*
X126684834Y-80111063D01*
X126707443Y-80116727D01*
X126729387Y-80124579D01*
X126750457Y-80134544D01*
X126770448Y-80146526D01*
X126789168Y-80160410D01*
X126806438Y-80176062D01*
X126822090Y-80193332D01*
X126835974Y-80212052D01*
X126847956Y-80232043D01*
X126857921Y-80253113D01*
X126865773Y-80275057D01*
X126871437Y-80297666D01*
X126874856Y-80320721D01*
X126876000Y-80344000D01*
X126876000Y-80819000D01*
X126874856Y-80842279D01*
X126871437Y-80865334D01*
X126865773Y-80887943D01*
X126857921Y-80909887D01*
X126847956Y-80930957D01*
X126835974Y-80950948D01*
X126822090Y-80969668D01*
X126806438Y-80986938D01*
X126789168Y-81002590D01*
X126770448Y-81016474D01*
X126750457Y-81028456D01*
X126729387Y-81038421D01*
X126707443Y-81046273D01*
X126684834Y-81051937D01*
X126661779Y-81055356D01*
X126638500Y-81056500D01*
X126063500Y-81056500D01*
X126040221Y-81055356D01*
X126017166Y-81051937D01*
X125994557Y-81046273D01*
X125972613Y-81038421D01*
X125951543Y-81028456D01*
X125931552Y-81016474D01*
X125912832Y-81002590D01*
X125895562Y-80986938D01*
X125879910Y-80969668D01*
X125866026Y-80950948D01*
X125854044Y-80930957D01*
X125844079Y-80909887D01*
X125836227Y-80887943D01*
X125830563Y-80865334D01*
X125827144Y-80842279D01*
X125826000Y-80819000D01*
X125826000Y-80344000D01*
X125827144Y-80320721D01*
X125830563Y-80297666D01*
X125836227Y-80275057D01*
X125844079Y-80253113D01*
X125854044Y-80232043D01*
X125866026Y-80212052D01*
X125879910Y-80193332D01*
X125895562Y-80176062D01*
X125912832Y-80160410D01*
X125931552Y-80146526D01*
X125951543Y-80134544D01*
X125972613Y-80124579D01*
X125994557Y-80116727D01*
X126017166Y-80111063D01*
X126040221Y-80107644D01*
X126063500Y-80106500D01*
X126638500Y-80106500D01*
X126661779Y-80107644D01*
G37*
G36*
X127895779Y-136177644D02*
G01*
X127918834Y-136181063D01*
X127941443Y-136186727D01*
X127963387Y-136194579D01*
X127984457Y-136204544D01*
X128004448Y-136216526D01*
X128023168Y-136230410D01*
X128040438Y-136246062D01*
X128056090Y-136263332D01*
X128069974Y-136282052D01*
X128081956Y-136302043D01*
X128091921Y-136323113D01*
X128099773Y-136345057D01*
X128105437Y-136367666D01*
X128108856Y-136390721D01*
X128110000Y-136414000D01*
X128110000Y-136989000D01*
X128108856Y-137012279D01*
X128105437Y-137035334D01*
X128099773Y-137057943D01*
X128091921Y-137079887D01*
X128081956Y-137100957D01*
X128069974Y-137120948D01*
X128056090Y-137139668D01*
X128040438Y-137156938D01*
X128023168Y-137172590D01*
X128004448Y-137186474D01*
X127984457Y-137198456D01*
X127963387Y-137208421D01*
X127941443Y-137216273D01*
X127918834Y-137221937D01*
X127895779Y-137225356D01*
X127872500Y-137226500D01*
X127397500Y-137226500D01*
X127374221Y-137225356D01*
X127351166Y-137221937D01*
X127328557Y-137216273D01*
X127306613Y-137208421D01*
X127285543Y-137198456D01*
X127265552Y-137186474D01*
X127246832Y-137172590D01*
X127229562Y-137156938D01*
X127213910Y-137139668D01*
X127200026Y-137120948D01*
X127188044Y-137100957D01*
X127178079Y-137079887D01*
X127170227Y-137057943D01*
X127164563Y-137035334D01*
X127161144Y-137012279D01*
X127160000Y-136989000D01*
X127160000Y-136414000D01*
X127161144Y-136390721D01*
X127164563Y-136367666D01*
X127170227Y-136345057D01*
X127178079Y-136323113D01*
X127188044Y-136302043D01*
X127200026Y-136282052D01*
X127213910Y-136263332D01*
X127229562Y-136246062D01*
X127246832Y-136230410D01*
X127265552Y-136216526D01*
X127285543Y-136204544D01*
X127306613Y-136194579D01*
X127328557Y-136186727D01*
X127351166Y-136181063D01*
X127374221Y-136177644D01*
X127397500Y-136176500D01*
X127872500Y-136176500D01*
X127895779Y-136177644D01*
G37*
G36*
X127895779Y-134427644D02*
G01*
X127918834Y-134431063D01*
X127941443Y-134436727D01*
X127963387Y-134444579D01*
X127984457Y-134454544D01*
X128004448Y-134466526D01*
X128023168Y-134480410D01*
X128040438Y-134496062D01*
X128056090Y-134513332D01*
X128069974Y-134532052D01*
X128081956Y-134552043D01*
X128091921Y-134573113D01*
X128099773Y-134595057D01*
X128105437Y-134617666D01*
X128108856Y-134640721D01*
X128110000Y-134664000D01*
X128110000Y-135239000D01*
X128108856Y-135262279D01*
X128105437Y-135285334D01*
X128099773Y-135307943D01*
X128091921Y-135329887D01*
X128081956Y-135350957D01*
X128069974Y-135370948D01*
X128056090Y-135389668D01*
X128040438Y-135406938D01*
X128023168Y-135422590D01*
X128004448Y-135436474D01*
X127984457Y-135448456D01*
X127963387Y-135458421D01*
X127941443Y-135466273D01*
X127918834Y-135471937D01*
X127895779Y-135475356D01*
X127872500Y-135476500D01*
X127397500Y-135476500D01*
X127374221Y-135475356D01*
X127351166Y-135471937D01*
X127328557Y-135466273D01*
X127306613Y-135458421D01*
X127285543Y-135448456D01*
X127265552Y-135436474D01*
X127246832Y-135422590D01*
X127229562Y-135406938D01*
X127213910Y-135389668D01*
X127200026Y-135370948D01*
X127188044Y-135350957D01*
X127178079Y-135329887D01*
X127170227Y-135307943D01*
X127164563Y-135285334D01*
X127161144Y-135262279D01*
X127160000Y-135239000D01*
X127160000Y-134664000D01*
X127161144Y-134640721D01*
X127164563Y-134617666D01*
X127170227Y-134595057D01*
X127178079Y-134573113D01*
X127188044Y-134552043D01*
X127200026Y-134532052D01*
X127213910Y-134513332D01*
X127229562Y-134496062D01*
X127246832Y-134480410D01*
X127265552Y-134466526D01*
X127285543Y-134454544D01*
X127306613Y-134444579D01*
X127328557Y-134436727D01*
X127351166Y-134431063D01*
X127374221Y-134427644D01*
X127397500Y-134426500D01*
X127872500Y-134426500D01*
X127895779Y-134427644D01*
G37*
G36*
X126625779Y-82103644D02*
G01*
X126648834Y-82107063D01*
X126671443Y-82112727D01*
X126693387Y-82120579D01*
X126714457Y-82130544D01*
X126734448Y-82142526D01*
X126753168Y-82156410D01*
X126770438Y-82172062D01*
X126786090Y-82189332D01*
X126799974Y-82208052D01*
X126811956Y-82228043D01*
X126821921Y-82249113D01*
X126829773Y-82271057D01*
X126835437Y-82293666D01*
X126838856Y-82316721D01*
X126840000Y-82340000D01*
X126840000Y-82915000D01*
X126838856Y-82938279D01*
X126835437Y-82961334D01*
X126829773Y-82983943D01*
X126821921Y-83005887D01*
X126811956Y-83026957D01*
X126799974Y-83046948D01*
X126786090Y-83065668D01*
X126770438Y-83082938D01*
X126753168Y-83098590D01*
X126734448Y-83112474D01*
X126714457Y-83124456D01*
X126693387Y-83134421D01*
X126671443Y-83142273D01*
X126648834Y-83147937D01*
X126625779Y-83151356D01*
X126602500Y-83152500D01*
X126127500Y-83152500D01*
X126104221Y-83151356D01*
X126081166Y-83147937D01*
X126058557Y-83142273D01*
X126036613Y-83134421D01*
X126015543Y-83124456D01*
X125995552Y-83112474D01*
X125976832Y-83098590D01*
X125959562Y-83082938D01*
X125943910Y-83065668D01*
X125930026Y-83046948D01*
X125918044Y-83026957D01*
X125908079Y-83005887D01*
X125900227Y-82983943D01*
X125894563Y-82961334D01*
X125891144Y-82938279D01*
X125890000Y-82915000D01*
X125890000Y-82340000D01*
X125891144Y-82316721D01*
X125894563Y-82293666D01*
X125900227Y-82271057D01*
X125908079Y-82249113D01*
X125918044Y-82228043D01*
X125930026Y-82208052D01*
X125943910Y-82189332D01*
X125959562Y-82172062D01*
X125976832Y-82156410D01*
X125995552Y-82142526D01*
X126015543Y-82130544D01*
X126036613Y-82120579D01*
X126058557Y-82112727D01*
X126081166Y-82107063D01*
X126104221Y-82103644D01*
X126127500Y-82102500D01*
X126602500Y-82102500D01*
X126625779Y-82103644D01*
G37*
G36*
X126625779Y-83853644D02*
G01*
X126648834Y-83857063D01*
X126671443Y-83862727D01*
X126693387Y-83870579D01*
X126714457Y-83880544D01*
X126734448Y-83892526D01*
X126753168Y-83906410D01*
X126770438Y-83922062D01*
X126786090Y-83939332D01*
X126799974Y-83958052D01*
X126811956Y-83978043D01*
X126821921Y-83999113D01*
X126829773Y-84021057D01*
X126835437Y-84043666D01*
X126838856Y-84066721D01*
X126840000Y-84090000D01*
X126840000Y-84665000D01*
X126838856Y-84688279D01*
X126835437Y-84711334D01*
X126829773Y-84733943D01*
X126821921Y-84755887D01*
X126811956Y-84776957D01*
X126799974Y-84796948D01*
X126786090Y-84815668D01*
X126770438Y-84832938D01*
X126753168Y-84848590D01*
X126734448Y-84862474D01*
X126714457Y-84874456D01*
X126693387Y-84884421D01*
X126671443Y-84892273D01*
X126648834Y-84897937D01*
X126625779Y-84901356D01*
X126602500Y-84902500D01*
X126127500Y-84902500D01*
X126104221Y-84901356D01*
X126081166Y-84897937D01*
X126058557Y-84892273D01*
X126036613Y-84884421D01*
X126015543Y-84874456D01*
X125995552Y-84862474D01*
X125976832Y-84848590D01*
X125959562Y-84832938D01*
X125943910Y-84815668D01*
X125930026Y-84796948D01*
X125918044Y-84776957D01*
X125908079Y-84755887D01*
X125900227Y-84733943D01*
X125894563Y-84711334D01*
X125891144Y-84688279D01*
X125890000Y-84665000D01*
X125890000Y-84090000D01*
X125891144Y-84066721D01*
X125894563Y-84043666D01*
X125900227Y-84021057D01*
X125908079Y-83999113D01*
X125918044Y-83978043D01*
X125930026Y-83958052D01*
X125943910Y-83939332D01*
X125959562Y-83922062D01*
X125976832Y-83906410D01*
X125995552Y-83892526D01*
X126015543Y-83880544D01*
X126036613Y-83870579D01*
X126058557Y-83862727D01*
X126081166Y-83857063D01*
X126104221Y-83853644D01*
X126127500Y-83852500D01*
X126602500Y-83852500D01*
X126625779Y-83853644D01*
G37*
G36*
X74528279Y-138210144D02*
G01*
X74551334Y-138213563D01*
X74573943Y-138219227D01*
X74595887Y-138227079D01*
X74616957Y-138237044D01*
X74636948Y-138249026D01*
X74655668Y-138262910D01*
X74672938Y-138278562D01*
X74688590Y-138295832D01*
X74702474Y-138314552D01*
X74714456Y-138334543D01*
X74724421Y-138355613D01*
X74732273Y-138377557D01*
X74737937Y-138400166D01*
X74741356Y-138423221D01*
X74742500Y-138446500D01*
X74742500Y-138921500D01*
X74741356Y-138944779D01*
X74737937Y-138967834D01*
X74732273Y-138990443D01*
X74724421Y-139012387D01*
X74714456Y-139033457D01*
X74702474Y-139053448D01*
X74688590Y-139072168D01*
X74672938Y-139089438D01*
X74655668Y-139105090D01*
X74636948Y-139118974D01*
X74616957Y-139130956D01*
X74595887Y-139140921D01*
X74573943Y-139148773D01*
X74551334Y-139154437D01*
X74528279Y-139157856D01*
X74505000Y-139159000D01*
X73930000Y-139159000D01*
X73906721Y-139157856D01*
X73883666Y-139154437D01*
X73861057Y-139148773D01*
X73839113Y-139140921D01*
X73818043Y-139130956D01*
X73798052Y-139118974D01*
X73779332Y-139105090D01*
X73762062Y-139089438D01*
X73746410Y-139072168D01*
X73732526Y-139053448D01*
X73720544Y-139033457D01*
X73710579Y-139012387D01*
X73702727Y-138990443D01*
X73697063Y-138967834D01*
X73693644Y-138944779D01*
X73692500Y-138921500D01*
X73692500Y-138446500D01*
X73693644Y-138423221D01*
X73697063Y-138400166D01*
X73702727Y-138377557D01*
X73710579Y-138355613D01*
X73720544Y-138334543D01*
X73732526Y-138314552D01*
X73746410Y-138295832D01*
X73762062Y-138278562D01*
X73779332Y-138262910D01*
X73798052Y-138249026D01*
X73818043Y-138237044D01*
X73839113Y-138227079D01*
X73861057Y-138219227D01*
X73883666Y-138213563D01*
X73906721Y-138210144D01*
X73930000Y-138209000D01*
X74505000Y-138209000D01*
X74528279Y-138210144D01*
G37*
G36*
X72778279Y-138210144D02*
G01*
X72801334Y-138213563D01*
X72823943Y-138219227D01*
X72845887Y-138227079D01*
X72866957Y-138237044D01*
X72886948Y-138249026D01*
X72905668Y-138262910D01*
X72922938Y-138278562D01*
X72938590Y-138295832D01*
X72952474Y-138314552D01*
X72964456Y-138334543D01*
X72974421Y-138355613D01*
X72982273Y-138377557D01*
X72987937Y-138400166D01*
X72991356Y-138423221D01*
X72992500Y-138446500D01*
X72992500Y-138921500D01*
X72991356Y-138944779D01*
X72987937Y-138967834D01*
X72982273Y-138990443D01*
X72974421Y-139012387D01*
X72964456Y-139033457D01*
X72952474Y-139053448D01*
X72938590Y-139072168D01*
X72922938Y-139089438D01*
X72905668Y-139105090D01*
X72886948Y-139118974D01*
X72866957Y-139130956D01*
X72845887Y-139140921D01*
X72823943Y-139148773D01*
X72801334Y-139154437D01*
X72778279Y-139157856D01*
X72755000Y-139159000D01*
X72180000Y-139159000D01*
X72156721Y-139157856D01*
X72133666Y-139154437D01*
X72111057Y-139148773D01*
X72089113Y-139140921D01*
X72068043Y-139130956D01*
X72048052Y-139118974D01*
X72029332Y-139105090D01*
X72012062Y-139089438D01*
X71996410Y-139072168D01*
X71982526Y-139053448D01*
X71970544Y-139033457D01*
X71960579Y-139012387D01*
X71952727Y-138990443D01*
X71947063Y-138967834D01*
X71943644Y-138944779D01*
X71942500Y-138921500D01*
X71942500Y-138446500D01*
X71943644Y-138423221D01*
X71947063Y-138400166D01*
X71952727Y-138377557D01*
X71960579Y-138355613D01*
X71970544Y-138334543D01*
X71982526Y-138314552D01*
X71996410Y-138295832D01*
X72012062Y-138278562D01*
X72029332Y-138262910D01*
X72048052Y-138249026D01*
X72068043Y-138237044D01*
X72089113Y-138227079D01*
X72111057Y-138219227D01*
X72133666Y-138213563D01*
X72156721Y-138210144D01*
X72180000Y-138209000D01*
X72755000Y-138209000D01*
X72778279Y-138210144D01*
G37*
G36*
X71593279Y-80234644D02*
G01*
X71616334Y-80238063D01*
X71638943Y-80243727D01*
X71660887Y-80251579D01*
X71681957Y-80261544D01*
X71701948Y-80273526D01*
X71720668Y-80287410D01*
X71737938Y-80303062D01*
X71753590Y-80320332D01*
X71767474Y-80339052D01*
X71779456Y-80359043D01*
X71789421Y-80380113D01*
X71797273Y-80402057D01*
X71802937Y-80424666D01*
X71806356Y-80447721D01*
X71807500Y-80471000D01*
X71807500Y-80946000D01*
X71806356Y-80969279D01*
X71802937Y-80992334D01*
X71797273Y-81014943D01*
X71789421Y-81036887D01*
X71779456Y-81057957D01*
X71767474Y-81077948D01*
X71753590Y-81096668D01*
X71737938Y-81113938D01*
X71720668Y-81129590D01*
X71701948Y-81143474D01*
X71681957Y-81155456D01*
X71660887Y-81165421D01*
X71638943Y-81173273D01*
X71616334Y-81178937D01*
X71593279Y-81182356D01*
X71570000Y-81183500D01*
X70995000Y-81183500D01*
X70971721Y-81182356D01*
X70948666Y-81178937D01*
X70926057Y-81173273D01*
X70904113Y-81165421D01*
X70883043Y-81155456D01*
X70863052Y-81143474D01*
X70844332Y-81129590D01*
X70827062Y-81113938D01*
X70811410Y-81096668D01*
X70797526Y-81077948D01*
X70785544Y-81057957D01*
X70775579Y-81036887D01*
X70767727Y-81014943D01*
X70762063Y-80992334D01*
X70758644Y-80969279D01*
X70757500Y-80946000D01*
X70757500Y-80471000D01*
X70758644Y-80447721D01*
X70762063Y-80424666D01*
X70767727Y-80402057D01*
X70775579Y-80380113D01*
X70785544Y-80359043D01*
X70797526Y-80339052D01*
X70811410Y-80320332D01*
X70827062Y-80303062D01*
X70844332Y-80287410D01*
X70863052Y-80273526D01*
X70883043Y-80261544D01*
X70904113Y-80251579D01*
X70926057Y-80243727D01*
X70948666Y-80238063D01*
X70971721Y-80234644D01*
X70995000Y-80233500D01*
X71570000Y-80233500D01*
X71593279Y-80234644D01*
G37*
G36*
X69843279Y-80234644D02*
G01*
X69866334Y-80238063D01*
X69888943Y-80243727D01*
X69910887Y-80251579D01*
X69931957Y-80261544D01*
X69951948Y-80273526D01*
X69970668Y-80287410D01*
X69987938Y-80303062D01*
X70003590Y-80320332D01*
X70017474Y-80339052D01*
X70029456Y-80359043D01*
X70039421Y-80380113D01*
X70047273Y-80402057D01*
X70052937Y-80424666D01*
X70056356Y-80447721D01*
X70057500Y-80471000D01*
X70057500Y-80946000D01*
X70056356Y-80969279D01*
X70052937Y-80992334D01*
X70047273Y-81014943D01*
X70039421Y-81036887D01*
X70029456Y-81057957D01*
X70017474Y-81077948D01*
X70003590Y-81096668D01*
X69987938Y-81113938D01*
X69970668Y-81129590D01*
X69951948Y-81143474D01*
X69931957Y-81155456D01*
X69910887Y-81165421D01*
X69888943Y-81173273D01*
X69866334Y-81178937D01*
X69843279Y-81182356D01*
X69820000Y-81183500D01*
X69245000Y-81183500D01*
X69221721Y-81182356D01*
X69198666Y-81178937D01*
X69176057Y-81173273D01*
X69154113Y-81165421D01*
X69133043Y-81155456D01*
X69113052Y-81143474D01*
X69094332Y-81129590D01*
X69077062Y-81113938D01*
X69061410Y-81096668D01*
X69047526Y-81077948D01*
X69035544Y-81057957D01*
X69025579Y-81036887D01*
X69017727Y-81014943D01*
X69012063Y-80992334D01*
X69008644Y-80969279D01*
X69007500Y-80946000D01*
X69007500Y-80471000D01*
X69008644Y-80447721D01*
X69012063Y-80424666D01*
X69017727Y-80402057D01*
X69025579Y-80380113D01*
X69035544Y-80359043D01*
X69047526Y-80339052D01*
X69061410Y-80320332D01*
X69077062Y-80303062D01*
X69094332Y-80287410D01*
X69113052Y-80273526D01*
X69133043Y-80261544D01*
X69154113Y-80251579D01*
X69176057Y-80243727D01*
X69198666Y-80238063D01*
X69221721Y-80234644D01*
X69245000Y-80233500D01*
X69820000Y-80233500D01*
X69843279Y-80234644D01*
G37*
G36*
X72650779Y-136163644D02*
G01*
X72673834Y-136167063D01*
X72696443Y-136172727D01*
X72718387Y-136180579D01*
X72739457Y-136190544D01*
X72759448Y-136202526D01*
X72778168Y-136216410D01*
X72795438Y-136232062D01*
X72811090Y-136249332D01*
X72824974Y-136268052D01*
X72836956Y-136288043D01*
X72846921Y-136309113D01*
X72854773Y-136331057D01*
X72860437Y-136353666D01*
X72863856Y-136376721D01*
X72865000Y-136400000D01*
X72865000Y-136975000D01*
X72863856Y-136998279D01*
X72860437Y-137021334D01*
X72854773Y-137043943D01*
X72846921Y-137065887D01*
X72836956Y-137086957D01*
X72824974Y-137106948D01*
X72811090Y-137125668D01*
X72795438Y-137142938D01*
X72778168Y-137158590D01*
X72759448Y-137172474D01*
X72739457Y-137184456D01*
X72718387Y-137194421D01*
X72696443Y-137202273D01*
X72673834Y-137207937D01*
X72650779Y-137211356D01*
X72627500Y-137212500D01*
X72152500Y-137212500D01*
X72129221Y-137211356D01*
X72106166Y-137207937D01*
X72083557Y-137202273D01*
X72061613Y-137194421D01*
X72040543Y-137184456D01*
X72020552Y-137172474D01*
X72001832Y-137158590D01*
X71984562Y-137142938D01*
X71968910Y-137125668D01*
X71955026Y-137106948D01*
X71943044Y-137086957D01*
X71933079Y-137065887D01*
X71925227Y-137043943D01*
X71919563Y-137021334D01*
X71916144Y-136998279D01*
X71915000Y-136975000D01*
X71915000Y-136400000D01*
X71916144Y-136376721D01*
X71919563Y-136353666D01*
X71925227Y-136331057D01*
X71933079Y-136309113D01*
X71943044Y-136288043D01*
X71955026Y-136268052D01*
X71968910Y-136249332D01*
X71984562Y-136232062D01*
X72001832Y-136216410D01*
X72020552Y-136202526D01*
X72040543Y-136190544D01*
X72061613Y-136180579D01*
X72083557Y-136172727D01*
X72106166Y-136167063D01*
X72129221Y-136163644D01*
X72152500Y-136162500D01*
X72627500Y-136162500D01*
X72650779Y-136163644D01*
G37*
G36*
X72650779Y-134413644D02*
G01*
X72673834Y-134417063D01*
X72696443Y-134422727D01*
X72718387Y-134430579D01*
X72739457Y-134440544D01*
X72759448Y-134452526D01*
X72778168Y-134466410D01*
X72795438Y-134482062D01*
X72811090Y-134499332D01*
X72824974Y-134518052D01*
X72836956Y-134538043D01*
X72846921Y-134559113D01*
X72854773Y-134581057D01*
X72860437Y-134603666D01*
X72863856Y-134626721D01*
X72865000Y-134650000D01*
X72865000Y-135225000D01*
X72863856Y-135248279D01*
X72860437Y-135271334D01*
X72854773Y-135293943D01*
X72846921Y-135315887D01*
X72836956Y-135336957D01*
X72824974Y-135356948D01*
X72811090Y-135375668D01*
X72795438Y-135392938D01*
X72778168Y-135408590D01*
X72759448Y-135422474D01*
X72739457Y-135434456D01*
X72718387Y-135444421D01*
X72696443Y-135452273D01*
X72673834Y-135457937D01*
X72650779Y-135461356D01*
X72627500Y-135462500D01*
X72152500Y-135462500D01*
X72129221Y-135461356D01*
X72106166Y-135457937D01*
X72083557Y-135452273D01*
X72061613Y-135444421D01*
X72040543Y-135434456D01*
X72020552Y-135422474D01*
X72001832Y-135408590D01*
X71984562Y-135392938D01*
X71968910Y-135375668D01*
X71955026Y-135356948D01*
X71943044Y-135336957D01*
X71933079Y-135315887D01*
X71925227Y-135293943D01*
X71919563Y-135271334D01*
X71916144Y-135248279D01*
X71915000Y-135225000D01*
X71915000Y-134650000D01*
X71916144Y-134626721D01*
X71919563Y-134603666D01*
X71925227Y-134581057D01*
X71933079Y-134559113D01*
X71943044Y-134538043D01*
X71955026Y-134518052D01*
X71968910Y-134499332D01*
X71984562Y-134482062D01*
X72001832Y-134466410D01*
X72020552Y-134452526D01*
X72040543Y-134440544D01*
X72061613Y-134430579D01*
X72083557Y-134422727D01*
X72106166Y-134417063D01*
X72129221Y-134413644D01*
X72152500Y-134412500D01*
X72627500Y-134412500D01*
X72650779Y-134413644D01*
G37*
G36*
X71571279Y-82103644D02*
G01*
X71594334Y-82107063D01*
X71616943Y-82112727D01*
X71638887Y-82120579D01*
X71659957Y-82130544D01*
X71679948Y-82142526D01*
X71698668Y-82156410D01*
X71715938Y-82172062D01*
X71731590Y-82189332D01*
X71745474Y-82208052D01*
X71757456Y-82228043D01*
X71767421Y-82249113D01*
X71775273Y-82271057D01*
X71780937Y-82293666D01*
X71784356Y-82316721D01*
X71785500Y-82340000D01*
X71785500Y-82915000D01*
X71784356Y-82938279D01*
X71780937Y-82961334D01*
X71775273Y-82983943D01*
X71767421Y-83005887D01*
X71757456Y-83026957D01*
X71745474Y-83046948D01*
X71731590Y-83065668D01*
X71715938Y-83082938D01*
X71698668Y-83098590D01*
X71679948Y-83112474D01*
X71659957Y-83124456D01*
X71638887Y-83134421D01*
X71616943Y-83142273D01*
X71594334Y-83147937D01*
X71571279Y-83151356D01*
X71548000Y-83152500D01*
X71073000Y-83152500D01*
X71049721Y-83151356D01*
X71026666Y-83147937D01*
X71004057Y-83142273D01*
X70982113Y-83134421D01*
X70961043Y-83124456D01*
X70941052Y-83112474D01*
X70922332Y-83098590D01*
X70905062Y-83082938D01*
X70889410Y-83065668D01*
X70875526Y-83046948D01*
X70863544Y-83026957D01*
X70853579Y-83005887D01*
X70845727Y-82983943D01*
X70840063Y-82961334D01*
X70836644Y-82938279D01*
X70835500Y-82915000D01*
X70835500Y-82340000D01*
X70836644Y-82316721D01*
X70840063Y-82293666D01*
X70845727Y-82271057D01*
X70853579Y-82249113D01*
X70863544Y-82228043D01*
X70875526Y-82208052D01*
X70889410Y-82189332D01*
X70905062Y-82172062D01*
X70922332Y-82156410D01*
X70941052Y-82142526D01*
X70961043Y-82130544D01*
X70982113Y-82120579D01*
X71004057Y-82112727D01*
X71026666Y-82107063D01*
X71049721Y-82103644D01*
X71073000Y-82102500D01*
X71548000Y-82102500D01*
X71571279Y-82103644D01*
G37*
G36*
X71571279Y-83853644D02*
G01*
X71594334Y-83857063D01*
X71616943Y-83862727D01*
X71638887Y-83870579D01*
X71659957Y-83880544D01*
X71679948Y-83892526D01*
X71698668Y-83906410D01*
X71715938Y-83922062D01*
X71731590Y-83939332D01*
X71745474Y-83958052D01*
X71757456Y-83978043D01*
X71767421Y-83999113D01*
X71775273Y-84021057D01*
X71780937Y-84043666D01*
X71784356Y-84066721D01*
X71785500Y-84090000D01*
X71785500Y-84665000D01*
X71784356Y-84688279D01*
X71780937Y-84711334D01*
X71775273Y-84733943D01*
X71767421Y-84755887D01*
X71757456Y-84776957D01*
X71745474Y-84796948D01*
X71731590Y-84815668D01*
X71715938Y-84832938D01*
X71698668Y-84848590D01*
X71679948Y-84862474D01*
X71659957Y-84874456D01*
X71638887Y-84884421D01*
X71616943Y-84892273D01*
X71594334Y-84897937D01*
X71571279Y-84901356D01*
X71548000Y-84902500D01*
X71073000Y-84902500D01*
X71049721Y-84901356D01*
X71026666Y-84897937D01*
X71004057Y-84892273D01*
X70982113Y-84884421D01*
X70961043Y-84874456D01*
X70941052Y-84862474D01*
X70922332Y-84848590D01*
X70905062Y-84832938D01*
X70889410Y-84815668D01*
X70875526Y-84796948D01*
X70863544Y-84776957D01*
X70853579Y-84755887D01*
X70845727Y-84733943D01*
X70840063Y-84711334D01*
X70836644Y-84688279D01*
X70835500Y-84665000D01*
X70835500Y-84090000D01*
X70836644Y-84066721D01*
X70840063Y-84043666D01*
X70845727Y-84021057D01*
X70853579Y-83999113D01*
X70863544Y-83978043D01*
X70875526Y-83958052D01*
X70889410Y-83939332D01*
X70905062Y-83922062D01*
X70922332Y-83906410D01*
X70941052Y-83892526D01*
X70961043Y-83880544D01*
X70982113Y-83870579D01*
X71004057Y-83862727D01*
X71026666Y-83857063D01*
X71049721Y-83853644D01*
X71073000Y-83852500D01*
X71548000Y-83852500D01*
X71571279Y-83853644D01*
G37*
G36*
X121772279Y-138210144D02*
G01*
X121795334Y-138213563D01*
X121817943Y-138219227D01*
X121839887Y-138227079D01*
X121860957Y-138237044D01*
X121880948Y-138249026D01*
X121899668Y-138262910D01*
X121916938Y-138278562D01*
X121932590Y-138295832D01*
X121946474Y-138314552D01*
X121958456Y-138334543D01*
X121968421Y-138355613D01*
X121976273Y-138377557D01*
X121981937Y-138400166D01*
X121985356Y-138423221D01*
X121986500Y-138446500D01*
X121986500Y-138921500D01*
X121985356Y-138944779D01*
X121981937Y-138967834D01*
X121976273Y-138990443D01*
X121968421Y-139012387D01*
X121958456Y-139033457D01*
X121946474Y-139053448D01*
X121932590Y-139072168D01*
X121916938Y-139089438D01*
X121899668Y-139105090D01*
X121880948Y-139118974D01*
X121860957Y-139130956D01*
X121839887Y-139140921D01*
X121817943Y-139148773D01*
X121795334Y-139154437D01*
X121772279Y-139157856D01*
X121749000Y-139159000D01*
X121174000Y-139159000D01*
X121150721Y-139157856D01*
X121127666Y-139154437D01*
X121105057Y-139148773D01*
X121083113Y-139140921D01*
X121062043Y-139130956D01*
X121042052Y-139118974D01*
X121023332Y-139105090D01*
X121006062Y-139089438D01*
X120990410Y-139072168D01*
X120976526Y-139053448D01*
X120964544Y-139033457D01*
X120954579Y-139012387D01*
X120946727Y-138990443D01*
X120941063Y-138967834D01*
X120937644Y-138944779D01*
X120936500Y-138921500D01*
X120936500Y-138446500D01*
X120937644Y-138423221D01*
X120941063Y-138400166D01*
X120946727Y-138377557D01*
X120954579Y-138355613D01*
X120964544Y-138334543D01*
X120976526Y-138314552D01*
X120990410Y-138295832D01*
X121006062Y-138278562D01*
X121023332Y-138262910D01*
X121042052Y-138249026D01*
X121062043Y-138237044D01*
X121083113Y-138227079D01*
X121105057Y-138219227D01*
X121127666Y-138213563D01*
X121150721Y-138210144D01*
X121174000Y-138209000D01*
X121749000Y-138209000D01*
X121772279Y-138210144D01*
G37*
G36*
X120022279Y-138210144D02*
G01*
X120045334Y-138213563D01*
X120067943Y-138219227D01*
X120089887Y-138227079D01*
X120110957Y-138237044D01*
X120130948Y-138249026D01*
X120149668Y-138262910D01*
X120166938Y-138278562D01*
X120182590Y-138295832D01*
X120196474Y-138314552D01*
X120208456Y-138334543D01*
X120218421Y-138355613D01*
X120226273Y-138377557D01*
X120231937Y-138400166D01*
X120235356Y-138423221D01*
X120236500Y-138446500D01*
X120236500Y-138921500D01*
X120235356Y-138944779D01*
X120231937Y-138967834D01*
X120226273Y-138990443D01*
X120218421Y-139012387D01*
X120208456Y-139033457D01*
X120196474Y-139053448D01*
X120182590Y-139072168D01*
X120166938Y-139089438D01*
X120149668Y-139105090D01*
X120130948Y-139118974D01*
X120110957Y-139130956D01*
X120089887Y-139140921D01*
X120067943Y-139148773D01*
X120045334Y-139154437D01*
X120022279Y-139157856D01*
X119999000Y-139159000D01*
X119424000Y-139159000D01*
X119400721Y-139157856D01*
X119377666Y-139154437D01*
X119355057Y-139148773D01*
X119333113Y-139140921D01*
X119312043Y-139130956D01*
X119292052Y-139118974D01*
X119273332Y-139105090D01*
X119256062Y-139089438D01*
X119240410Y-139072168D01*
X119226526Y-139053448D01*
X119214544Y-139033457D01*
X119204579Y-139012387D01*
X119196727Y-138990443D01*
X119191063Y-138967834D01*
X119187644Y-138944779D01*
X119186500Y-138921500D01*
X119186500Y-138446500D01*
X119187644Y-138423221D01*
X119191063Y-138400166D01*
X119196727Y-138377557D01*
X119204579Y-138355613D01*
X119214544Y-138334543D01*
X119226526Y-138314552D01*
X119240410Y-138295832D01*
X119256062Y-138278562D01*
X119273332Y-138262910D01*
X119292052Y-138249026D01*
X119312043Y-138237044D01*
X119333113Y-138227079D01*
X119355057Y-138219227D01*
X119377666Y-138213563D01*
X119400721Y-138210144D01*
X119424000Y-138209000D01*
X119999000Y-138209000D01*
X120022279Y-138210144D01*
G37*
G36*
X118851279Y-80107644D02*
G01*
X118874334Y-80111063D01*
X118896943Y-80116727D01*
X118918887Y-80124579D01*
X118939957Y-80134544D01*
X118959948Y-80146526D01*
X118978668Y-80160410D01*
X118995938Y-80176062D01*
X119011590Y-80193332D01*
X119025474Y-80212052D01*
X119037456Y-80232043D01*
X119047421Y-80253113D01*
X119055273Y-80275057D01*
X119060937Y-80297666D01*
X119064356Y-80320721D01*
X119065500Y-80344000D01*
X119065500Y-80819000D01*
X119064356Y-80842279D01*
X119060937Y-80865334D01*
X119055273Y-80887943D01*
X119047421Y-80909887D01*
X119037456Y-80930957D01*
X119025474Y-80950948D01*
X119011590Y-80969668D01*
X118995938Y-80986938D01*
X118978668Y-81002590D01*
X118959948Y-81016474D01*
X118939957Y-81028456D01*
X118918887Y-81038421D01*
X118896943Y-81046273D01*
X118874334Y-81051937D01*
X118851279Y-81055356D01*
X118828000Y-81056500D01*
X118253000Y-81056500D01*
X118229721Y-81055356D01*
X118206666Y-81051937D01*
X118184057Y-81046273D01*
X118162113Y-81038421D01*
X118141043Y-81028456D01*
X118121052Y-81016474D01*
X118102332Y-81002590D01*
X118085062Y-80986938D01*
X118069410Y-80969668D01*
X118055526Y-80950948D01*
X118043544Y-80930957D01*
X118033579Y-80909887D01*
X118025727Y-80887943D01*
X118020063Y-80865334D01*
X118016644Y-80842279D01*
X118015500Y-80819000D01*
X118015500Y-80344000D01*
X118016644Y-80320721D01*
X118020063Y-80297666D01*
X118025727Y-80275057D01*
X118033579Y-80253113D01*
X118043544Y-80232043D01*
X118055526Y-80212052D01*
X118069410Y-80193332D01*
X118085062Y-80176062D01*
X118102332Y-80160410D01*
X118121052Y-80146526D01*
X118141043Y-80134544D01*
X118162113Y-80124579D01*
X118184057Y-80116727D01*
X118206666Y-80111063D01*
X118229721Y-80107644D01*
X118253000Y-80106500D01*
X118828000Y-80106500D01*
X118851279Y-80107644D01*
G37*
G36*
X117101279Y-80107644D02*
G01*
X117124334Y-80111063D01*
X117146943Y-80116727D01*
X117168887Y-80124579D01*
X117189957Y-80134544D01*
X117209948Y-80146526D01*
X117228668Y-80160410D01*
X117245938Y-80176062D01*
X117261590Y-80193332D01*
X117275474Y-80212052D01*
X117287456Y-80232043D01*
X117297421Y-80253113D01*
X117305273Y-80275057D01*
X117310937Y-80297666D01*
X117314356Y-80320721D01*
X117315500Y-80344000D01*
X117315500Y-80819000D01*
X117314356Y-80842279D01*
X117310937Y-80865334D01*
X117305273Y-80887943D01*
X117297421Y-80909887D01*
X117287456Y-80930957D01*
X117275474Y-80950948D01*
X117261590Y-80969668D01*
X117245938Y-80986938D01*
X117228668Y-81002590D01*
X117209948Y-81016474D01*
X117189957Y-81028456D01*
X117168887Y-81038421D01*
X117146943Y-81046273D01*
X117124334Y-81051937D01*
X117101279Y-81055356D01*
X117078000Y-81056500D01*
X116503000Y-81056500D01*
X116479721Y-81055356D01*
X116456666Y-81051937D01*
X116434057Y-81046273D01*
X116412113Y-81038421D01*
X116391043Y-81028456D01*
X116371052Y-81016474D01*
X116352332Y-81002590D01*
X116335062Y-80986938D01*
X116319410Y-80969668D01*
X116305526Y-80950948D01*
X116293544Y-80930957D01*
X116283579Y-80909887D01*
X116275727Y-80887943D01*
X116270063Y-80865334D01*
X116266644Y-80842279D01*
X116265500Y-80819000D01*
X116265500Y-80344000D01*
X116266644Y-80320721D01*
X116270063Y-80297666D01*
X116275727Y-80275057D01*
X116283579Y-80253113D01*
X116293544Y-80232043D01*
X116305526Y-80212052D01*
X116319410Y-80193332D01*
X116335062Y-80176062D01*
X116352332Y-80160410D01*
X116371052Y-80146526D01*
X116391043Y-80134544D01*
X116412113Y-80124579D01*
X116434057Y-80116727D01*
X116456666Y-80111063D01*
X116479721Y-80107644D01*
X116503000Y-80106500D01*
X117078000Y-80106500D01*
X117101279Y-80107644D01*
G37*
G36*
X119958279Y-136177644D02*
G01*
X119981334Y-136181063D01*
X120003943Y-136186727D01*
X120025887Y-136194579D01*
X120046957Y-136204544D01*
X120066948Y-136216526D01*
X120085668Y-136230410D01*
X120102938Y-136246062D01*
X120118590Y-136263332D01*
X120132474Y-136282052D01*
X120144456Y-136302043D01*
X120154421Y-136323113D01*
X120162273Y-136345057D01*
X120167937Y-136367666D01*
X120171356Y-136390721D01*
X120172500Y-136414000D01*
X120172500Y-136989000D01*
X120171356Y-137012279D01*
X120167937Y-137035334D01*
X120162273Y-137057943D01*
X120154421Y-137079887D01*
X120144456Y-137100957D01*
X120132474Y-137120948D01*
X120118590Y-137139668D01*
X120102938Y-137156938D01*
X120085668Y-137172590D01*
X120066948Y-137186474D01*
X120046957Y-137198456D01*
X120025887Y-137208421D01*
X120003943Y-137216273D01*
X119981334Y-137221937D01*
X119958279Y-137225356D01*
X119935000Y-137226500D01*
X119460000Y-137226500D01*
X119436721Y-137225356D01*
X119413666Y-137221937D01*
X119391057Y-137216273D01*
X119369113Y-137208421D01*
X119348043Y-137198456D01*
X119328052Y-137186474D01*
X119309332Y-137172590D01*
X119292062Y-137156938D01*
X119276410Y-137139668D01*
X119262526Y-137120948D01*
X119250544Y-137100957D01*
X119240579Y-137079887D01*
X119232727Y-137057943D01*
X119227063Y-137035334D01*
X119223644Y-137012279D01*
X119222500Y-136989000D01*
X119222500Y-136414000D01*
X119223644Y-136390721D01*
X119227063Y-136367666D01*
X119232727Y-136345057D01*
X119240579Y-136323113D01*
X119250544Y-136302043D01*
X119262526Y-136282052D01*
X119276410Y-136263332D01*
X119292062Y-136246062D01*
X119309332Y-136230410D01*
X119328052Y-136216526D01*
X119348043Y-136204544D01*
X119369113Y-136194579D01*
X119391057Y-136186727D01*
X119413666Y-136181063D01*
X119436721Y-136177644D01*
X119460000Y-136176500D01*
X119935000Y-136176500D01*
X119958279Y-136177644D01*
G37*
G36*
X119958279Y-134427644D02*
G01*
X119981334Y-134431063D01*
X120003943Y-134436727D01*
X120025887Y-134444579D01*
X120046957Y-134454544D01*
X120066948Y-134466526D01*
X120085668Y-134480410D01*
X120102938Y-134496062D01*
X120118590Y-134513332D01*
X120132474Y-134532052D01*
X120144456Y-134552043D01*
X120154421Y-134573113D01*
X120162273Y-134595057D01*
X120167937Y-134617666D01*
X120171356Y-134640721D01*
X120172500Y-134664000D01*
X120172500Y-135239000D01*
X120171356Y-135262279D01*
X120167937Y-135285334D01*
X120162273Y-135307943D01*
X120154421Y-135329887D01*
X120144456Y-135350957D01*
X120132474Y-135370948D01*
X120118590Y-135389668D01*
X120102938Y-135406938D01*
X120085668Y-135422590D01*
X120066948Y-135436474D01*
X120046957Y-135448456D01*
X120025887Y-135458421D01*
X120003943Y-135466273D01*
X119981334Y-135471937D01*
X119958279Y-135475356D01*
X119935000Y-135476500D01*
X119460000Y-135476500D01*
X119436721Y-135475356D01*
X119413666Y-135471937D01*
X119391057Y-135466273D01*
X119369113Y-135458421D01*
X119348043Y-135448456D01*
X119328052Y-135436474D01*
X119309332Y-135422590D01*
X119292062Y-135406938D01*
X119276410Y-135389668D01*
X119262526Y-135370948D01*
X119250544Y-135350957D01*
X119240579Y-135329887D01*
X119232727Y-135307943D01*
X119227063Y-135285334D01*
X119223644Y-135262279D01*
X119222500Y-135239000D01*
X119222500Y-134664000D01*
X119223644Y-134640721D01*
X119227063Y-134617666D01*
X119232727Y-134595057D01*
X119240579Y-134573113D01*
X119250544Y-134552043D01*
X119262526Y-134532052D01*
X119276410Y-134513332D01*
X119292062Y-134496062D01*
X119309332Y-134480410D01*
X119328052Y-134466526D01*
X119348043Y-134454544D01*
X119369113Y-134444579D01*
X119391057Y-134436727D01*
X119413666Y-134431063D01*
X119436721Y-134427644D01*
X119460000Y-134426500D01*
X119935000Y-134426500D01*
X119958279Y-134427644D01*
G37*
G36*
X118815279Y-83853644D02*
G01*
X118838334Y-83857063D01*
X118860943Y-83862727D01*
X118882887Y-83870579D01*
X118903957Y-83880544D01*
X118923948Y-83892526D01*
X118942668Y-83906410D01*
X118959938Y-83922062D01*
X118975590Y-83939332D01*
X118989474Y-83958052D01*
X119001456Y-83978043D01*
X119011421Y-83999113D01*
X119019273Y-84021057D01*
X119024937Y-84043666D01*
X119028356Y-84066721D01*
X119029500Y-84090000D01*
X119029500Y-84665000D01*
X119028356Y-84688279D01*
X119024937Y-84711334D01*
X119019273Y-84733943D01*
X119011421Y-84755887D01*
X119001456Y-84776957D01*
X118989474Y-84796948D01*
X118975590Y-84815668D01*
X118959938Y-84832938D01*
X118942668Y-84848590D01*
X118923948Y-84862474D01*
X118903957Y-84874456D01*
X118882887Y-84884421D01*
X118860943Y-84892273D01*
X118838334Y-84897937D01*
X118815279Y-84901356D01*
X118792000Y-84902500D01*
X118317000Y-84902500D01*
X118293721Y-84901356D01*
X118270666Y-84897937D01*
X118248057Y-84892273D01*
X118226113Y-84884421D01*
X118205043Y-84874456D01*
X118185052Y-84862474D01*
X118166332Y-84848590D01*
X118149062Y-84832938D01*
X118133410Y-84815668D01*
X118119526Y-84796948D01*
X118107544Y-84776957D01*
X118097579Y-84755887D01*
X118089727Y-84733943D01*
X118084063Y-84711334D01*
X118080644Y-84688279D01*
X118079500Y-84665000D01*
X118079500Y-84090000D01*
X118080644Y-84066721D01*
X118084063Y-84043666D01*
X118089727Y-84021057D01*
X118097579Y-83999113D01*
X118107544Y-83978043D01*
X118119526Y-83958052D01*
X118133410Y-83939332D01*
X118149062Y-83922062D01*
X118166332Y-83906410D01*
X118185052Y-83892526D01*
X118205043Y-83880544D01*
X118226113Y-83870579D01*
X118248057Y-83862727D01*
X118270666Y-83857063D01*
X118293721Y-83853644D01*
X118317000Y-83852500D01*
X118792000Y-83852500D01*
X118815279Y-83853644D01*
G37*
G36*
X118815279Y-82103644D02*
G01*
X118838334Y-82107063D01*
X118860943Y-82112727D01*
X118882887Y-82120579D01*
X118903957Y-82130544D01*
X118923948Y-82142526D01*
X118942668Y-82156410D01*
X118959938Y-82172062D01*
X118975590Y-82189332D01*
X118989474Y-82208052D01*
X119001456Y-82228043D01*
X119011421Y-82249113D01*
X119019273Y-82271057D01*
X119024937Y-82293666D01*
X119028356Y-82316721D01*
X119029500Y-82340000D01*
X119029500Y-82915000D01*
X119028356Y-82938279D01*
X119024937Y-82961334D01*
X119019273Y-82983943D01*
X119011421Y-83005887D01*
X119001456Y-83026957D01*
X118989474Y-83046948D01*
X118975590Y-83065668D01*
X118959938Y-83082938D01*
X118942668Y-83098590D01*
X118923948Y-83112474D01*
X118903957Y-83124456D01*
X118882887Y-83134421D01*
X118860943Y-83142273D01*
X118838334Y-83147937D01*
X118815279Y-83151356D01*
X118792000Y-83152500D01*
X118317000Y-83152500D01*
X118293721Y-83151356D01*
X118270666Y-83147937D01*
X118248057Y-83142273D01*
X118226113Y-83134421D01*
X118205043Y-83124456D01*
X118185052Y-83112474D01*
X118166332Y-83098590D01*
X118149062Y-83082938D01*
X118133410Y-83065668D01*
X118119526Y-83046948D01*
X118107544Y-83026957D01*
X118097579Y-83005887D01*
X118089727Y-82983943D01*
X118084063Y-82961334D01*
X118080644Y-82938279D01*
X118079500Y-82915000D01*
X118079500Y-82340000D01*
X118080644Y-82316721D01*
X118084063Y-82293666D01*
X118089727Y-82271057D01*
X118097579Y-82249113D01*
X118107544Y-82228043D01*
X118119526Y-82208052D01*
X118133410Y-82189332D01*
X118149062Y-82172062D01*
X118166332Y-82156410D01*
X118185052Y-82142526D01*
X118205043Y-82130544D01*
X118226113Y-82120579D01*
X118248057Y-82112727D01*
X118270666Y-82107063D01*
X118293721Y-82103644D01*
X118317000Y-82102500D01*
X118792000Y-82102500D01*
X118815279Y-82103644D01*
G37*
G36*
X80652279Y-138210144D02*
G01*
X80675334Y-138213563D01*
X80697943Y-138219227D01*
X80719887Y-138227079D01*
X80740957Y-138237044D01*
X80760948Y-138249026D01*
X80779668Y-138262910D01*
X80796938Y-138278562D01*
X80812590Y-138295832D01*
X80826474Y-138314552D01*
X80838456Y-138334543D01*
X80848421Y-138355613D01*
X80856273Y-138377557D01*
X80861937Y-138400166D01*
X80865356Y-138423221D01*
X80866500Y-138446500D01*
X80866500Y-138921500D01*
X80865356Y-138944779D01*
X80861937Y-138967834D01*
X80856273Y-138990443D01*
X80848421Y-139012387D01*
X80838456Y-139033457D01*
X80826474Y-139053448D01*
X80812590Y-139072168D01*
X80796938Y-139089438D01*
X80779668Y-139105090D01*
X80760948Y-139118974D01*
X80740957Y-139130956D01*
X80719887Y-139140921D01*
X80697943Y-139148773D01*
X80675334Y-139154437D01*
X80652279Y-139157856D01*
X80629000Y-139159000D01*
X80054000Y-139159000D01*
X80030721Y-139157856D01*
X80007666Y-139154437D01*
X79985057Y-139148773D01*
X79963113Y-139140921D01*
X79942043Y-139130956D01*
X79922052Y-139118974D01*
X79903332Y-139105090D01*
X79886062Y-139089438D01*
X79870410Y-139072168D01*
X79856526Y-139053448D01*
X79844544Y-139033457D01*
X79834579Y-139012387D01*
X79826727Y-138990443D01*
X79821063Y-138967834D01*
X79817644Y-138944779D01*
X79816500Y-138921500D01*
X79816500Y-138446500D01*
X79817644Y-138423221D01*
X79821063Y-138400166D01*
X79826727Y-138377557D01*
X79834579Y-138355613D01*
X79844544Y-138334543D01*
X79856526Y-138314552D01*
X79870410Y-138295832D01*
X79886062Y-138278562D01*
X79903332Y-138262910D01*
X79922052Y-138249026D01*
X79942043Y-138237044D01*
X79963113Y-138227079D01*
X79985057Y-138219227D01*
X80007666Y-138213563D01*
X80030721Y-138210144D01*
X80054000Y-138209000D01*
X80629000Y-138209000D01*
X80652279Y-138210144D01*
G37*
G36*
X82402279Y-138210144D02*
G01*
X82425334Y-138213563D01*
X82447943Y-138219227D01*
X82469887Y-138227079D01*
X82490957Y-138237044D01*
X82510948Y-138249026D01*
X82529668Y-138262910D01*
X82546938Y-138278562D01*
X82562590Y-138295832D01*
X82576474Y-138314552D01*
X82588456Y-138334543D01*
X82598421Y-138355613D01*
X82606273Y-138377557D01*
X82611937Y-138400166D01*
X82615356Y-138423221D01*
X82616500Y-138446500D01*
X82616500Y-138921500D01*
X82615356Y-138944779D01*
X82611937Y-138967834D01*
X82606273Y-138990443D01*
X82598421Y-139012387D01*
X82588456Y-139033457D01*
X82576474Y-139053448D01*
X82562590Y-139072168D01*
X82546938Y-139089438D01*
X82529668Y-139105090D01*
X82510948Y-139118974D01*
X82490957Y-139130956D01*
X82469887Y-139140921D01*
X82447943Y-139148773D01*
X82425334Y-139154437D01*
X82402279Y-139157856D01*
X82379000Y-139159000D01*
X81804000Y-139159000D01*
X81780721Y-139157856D01*
X81757666Y-139154437D01*
X81735057Y-139148773D01*
X81713113Y-139140921D01*
X81692043Y-139130956D01*
X81672052Y-139118974D01*
X81653332Y-139105090D01*
X81636062Y-139089438D01*
X81620410Y-139072168D01*
X81606526Y-139053448D01*
X81594544Y-139033457D01*
X81584579Y-139012387D01*
X81576727Y-138990443D01*
X81571063Y-138967834D01*
X81567644Y-138944779D01*
X81566500Y-138921500D01*
X81566500Y-138446500D01*
X81567644Y-138423221D01*
X81571063Y-138400166D01*
X81576727Y-138377557D01*
X81584579Y-138355613D01*
X81594544Y-138334543D01*
X81606526Y-138314552D01*
X81620410Y-138295832D01*
X81636062Y-138278562D01*
X81653332Y-138262910D01*
X81672052Y-138249026D01*
X81692043Y-138237044D01*
X81713113Y-138227079D01*
X81735057Y-138219227D01*
X81757666Y-138213563D01*
X81780721Y-138210144D01*
X81804000Y-138209000D01*
X82379000Y-138209000D01*
X82402279Y-138210144D01*
G37*
G36*
X79467279Y-80234644D02*
G01*
X79490334Y-80238063D01*
X79512943Y-80243727D01*
X79534887Y-80251579D01*
X79555957Y-80261544D01*
X79575948Y-80273526D01*
X79594668Y-80287410D01*
X79611938Y-80303062D01*
X79627590Y-80320332D01*
X79641474Y-80339052D01*
X79653456Y-80359043D01*
X79663421Y-80380113D01*
X79671273Y-80402057D01*
X79676937Y-80424666D01*
X79680356Y-80447721D01*
X79681500Y-80471000D01*
X79681500Y-80946000D01*
X79680356Y-80969279D01*
X79676937Y-80992334D01*
X79671273Y-81014943D01*
X79663421Y-81036887D01*
X79653456Y-81057957D01*
X79641474Y-81077948D01*
X79627590Y-81096668D01*
X79611938Y-81113938D01*
X79594668Y-81129590D01*
X79575948Y-81143474D01*
X79555957Y-81155456D01*
X79534887Y-81165421D01*
X79512943Y-81173273D01*
X79490334Y-81178937D01*
X79467279Y-81182356D01*
X79444000Y-81183500D01*
X78869000Y-81183500D01*
X78845721Y-81182356D01*
X78822666Y-81178937D01*
X78800057Y-81173273D01*
X78778113Y-81165421D01*
X78757043Y-81155456D01*
X78737052Y-81143474D01*
X78718332Y-81129590D01*
X78701062Y-81113938D01*
X78685410Y-81096668D01*
X78671526Y-81077948D01*
X78659544Y-81057957D01*
X78649579Y-81036887D01*
X78641727Y-81014943D01*
X78636063Y-80992334D01*
X78632644Y-80969279D01*
X78631500Y-80946000D01*
X78631500Y-80471000D01*
X78632644Y-80447721D01*
X78636063Y-80424666D01*
X78641727Y-80402057D01*
X78649579Y-80380113D01*
X78659544Y-80359043D01*
X78671526Y-80339052D01*
X78685410Y-80320332D01*
X78701062Y-80303062D01*
X78718332Y-80287410D01*
X78737052Y-80273526D01*
X78757043Y-80261544D01*
X78778113Y-80251579D01*
X78800057Y-80243727D01*
X78822666Y-80238063D01*
X78845721Y-80234644D01*
X78869000Y-80233500D01*
X79444000Y-80233500D01*
X79467279Y-80234644D01*
G37*
G36*
X77717279Y-80234644D02*
G01*
X77740334Y-80238063D01*
X77762943Y-80243727D01*
X77784887Y-80251579D01*
X77805957Y-80261544D01*
X77825948Y-80273526D01*
X77844668Y-80287410D01*
X77861938Y-80303062D01*
X77877590Y-80320332D01*
X77891474Y-80339052D01*
X77903456Y-80359043D01*
X77913421Y-80380113D01*
X77921273Y-80402057D01*
X77926937Y-80424666D01*
X77930356Y-80447721D01*
X77931500Y-80471000D01*
X77931500Y-80946000D01*
X77930356Y-80969279D01*
X77926937Y-80992334D01*
X77921273Y-81014943D01*
X77913421Y-81036887D01*
X77903456Y-81057957D01*
X77891474Y-81077948D01*
X77877590Y-81096668D01*
X77861938Y-81113938D01*
X77844668Y-81129590D01*
X77825948Y-81143474D01*
X77805957Y-81155456D01*
X77784887Y-81165421D01*
X77762943Y-81173273D01*
X77740334Y-81178937D01*
X77717279Y-81182356D01*
X77694000Y-81183500D01*
X77119000Y-81183500D01*
X77095721Y-81182356D01*
X77072666Y-81178937D01*
X77050057Y-81173273D01*
X77028113Y-81165421D01*
X77007043Y-81155456D01*
X76987052Y-81143474D01*
X76968332Y-81129590D01*
X76951062Y-81113938D01*
X76935410Y-81096668D01*
X76921526Y-81077948D01*
X76909544Y-81057957D01*
X76899579Y-81036887D01*
X76891727Y-81014943D01*
X76886063Y-80992334D01*
X76882644Y-80969279D01*
X76881500Y-80946000D01*
X76881500Y-80471000D01*
X76882644Y-80447721D01*
X76886063Y-80424666D01*
X76891727Y-80402057D01*
X76899579Y-80380113D01*
X76909544Y-80359043D01*
X76921526Y-80339052D01*
X76935410Y-80320332D01*
X76951062Y-80303062D01*
X76968332Y-80287410D01*
X76987052Y-80273526D01*
X77007043Y-80261544D01*
X77028113Y-80251579D01*
X77050057Y-80243727D01*
X77072666Y-80238063D01*
X77095721Y-80234644D01*
X77119000Y-80233500D01*
X77694000Y-80233500D01*
X77717279Y-80234644D01*
G37*
G36*
X80588279Y-134427644D02*
G01*
X80611334Y-134431063D01*
X80633943Y-134436727D01*
X80655887Y-134444579D01*
X80676957Y-134454544D01*
X80696948Y-134466526D01*
X80715668Y-134480410D01*
X80732938Y-134496062D01*
X80748590Y-134513332D01*
X80762474Y-134532052D01*
X80774456Y-134552043D01*
X80784421Y-134573113D01*
X80792273Y-134595057D01*
X80797937Y-134617666D01*
X80801356Y-134640721D01*
X80802500Y-134664000D01*
X80802500Y-135239000D01*
X80801356Y-135262279D01*
X80797937Y-135285334D01*
X80792273Y-135307943D01*
X80784421Y-135329887D01*
X80774456Y-135350957D01*
X80762474Y-135370948D01*
X80748590Y-135389668D01*
X80732938Y-135406938D01*
X80715668Y-135422590D01*
X80696948Y-135436474D01*
X80676957Y-135448456D01*
X80655887Y-135458421D01*
X80633943Y-135466273D01*
X80611334Y-135471937D01*
X80588279Y-135475356D01*
X80565000Y-135476500D01*
X80090000Y-135476500D01*
X80066721Y-135475356D01*
X80043666Y-135471937D01*
X80021057Y-135466273D01*
X79999113Y-135458421D01*
X79978043Y-135448456D01*
X79958052Y-135436474D01*
X79939332Y-135422590D01*
X79922062Y-135406938D01*
X79906410Y-135389668D01*
X79892526Y-135370948D01*
X79880544Y-135350957D01*
X79870579Y-135329887D01*
X79862727Y-135307943D01*
X79857063Y-135285334D01*
X79853644Y-135262279D01*
X79852500Y-135239000D01*
X79852500Y-134664000D01*
X79853644Y-134640721D01*
X79857063Y-134617666D01*
X79862727Y-134595057D01*
X79870579Y-134573113D01*
X79880544Y-134552043D01*
X79892526Y-134532052D01*
X79906410Y-134513332D01*
X79922062Y-134496062D01*
X79939332Y-134480410D01*
X79958052Y-134466526D01*
X79978043Y-134454544D01*
X79999113Y-134444579D01*
X80021057Y-134436727D01*
X80043666Y-134431063D01*
X80066721Y-134427644D01*
X80090000Y-134426500D01*
X80565000Y-134426500D01*
X80588279Y-134427644D01*
G37*
G36*
X80588279Y-136177644D02*
G01*
X80611334Y-136181063D01*
X80633943Y-136186727D01*
X80655887Y-136194579D01*
X80676957Y-136204544D01*
X80696948Y-136216526D01*
X80715668Y-136230410D01*
X80732938Y-136246062D01*
X80748590Y-136263332D01*
X80762474Y-136282052D01*
X80774456Y-136302043D01*
X80784421Y-136323113D01*
X80792273Y-136345057D01*
X80797937Y-136367666D01*
X80801356Y-136390721D01*
X80802500Y-136414000D01*
X80802500Y-136989000D01*
X80801356Y-137012279D01*
X80797937Y-137035334D01*
X80792273Y-137057943D01*
X80784421Y-137079887D01*
X80774456Y-137100957D01*
X80762474Y-137120948D01*
X80748590Y-137139668D01*
X80732938Y-137156938D01*
X80715668Y-137172590D01*
X80696948Y-137186474D01*
X80676957Y-137198456D01*
X80655887Y-137208421D01*
X80633943Y-137216273D01*
X80611334Y-137221937D01*
X80588279Y-137225356D01*
X80565000Y-137226500D01*
X80090000Y-137226500D01*
X80066721Y-137225356D01*
X80043666Y-137221937D01*
X80021057Y-137216273D01*
X79999113Y-137208421D01*
X79978043Y-137198456D01*
X79958052Y-137186474D01*
X79939332Y-137172590D01*
X79922062Y-137156938D01*
X79906410Y-137139668D01*
X79892526Y-137120948D01*
X79880544Y-137100957D01*
X79870579Y-137079887D01*
X79862727Y-137057943D01*
X79857063Y-137035334D01*
X79853644Y-137012279D01*
X79852500Y-136989000D01*
X79852500Y-136414000D01*
X79853644Y-136390721D01*
X79857063Y-136367666D01*
X79862727Y-136345057D01*
X79870579Y-136323113D01*
X79880544Y-136302043D01*
X79892526Y-136282052D01*
X79906410Y-136263332D01*
X79922062Y-136246062D01*
X79939332Y-136230410D01*
X79958052Y-136216526D01*
X79978043Y-136204544D01*
X79999113Y-136194579D01*
X80021057Y-136186727D01*
X80043666Y-136181063D01*
X80066721Y-136177644D01*
X80090000Y-136176500D01*
X80565000Y-136176500D01*
X80588279Y-136177644D01*
G37*
G36*
X79445279Y-83853644D02*
G01*
X79468334Y-83857063D01*
X79490943Y-83862727D01*
X79512887Y-83870579D01*
X79533957Y-83880544D01*
X79553948Y-83892526D01*
X79572668Y-83906410D01*
X79589938Y-83922062D01*
X79605590Y-83939332D01*
X79619474Y-83958052D01*
X79631456Y-83978043D01*
X79641421Y-83999113D01*
X79649273Y-84021057D01*
X79654937Y-84043666D01*
X79658356Y-84066721D01*
X79659500Y-84090000D01*
X79659500Y-84665000D01*
X79658356Y-84688279D01*
X79654937Y-84711334D01*
X79649273Y-84733943D01*
X79641421Y-84755887D01*
X79631456Y-84776957D01*
X79619474Y-84796948D01*
X79605590Y-84815668D01*
X79589938Y-84832938D01*
X79572668Y-84848590D01*
X79553948Y-84862474D01*
X79533957Y-84874456D01*
X79512887Y-84884421D01*
X79490943Y-84892273D01*
X79468334Y-84897937D01*
X79445279Y-84901356D01*
X79422000Y-84902500D01*
X78947000Y-84902500D01*
X78923721Y-84901356D01*
X78900666Y-84897937D01*
X78878057Y-84892273D01*
X78856113Y-84884421D01*
X78835043Y-84874456D01*
X78815052Y-84862474D01*
X78796332Y-84848590D01*
X78779062Y-84832938D01*
X78763410Y-84815668D01*
X78749526Y-84796948D01*
X78737544Y-84776957D01*
X78727579Y-84755887D01*
X78719727Y-84733943D01*
X78714063Y-84711334D01*
X78710644Y-84688279D01*
X78709500Y-84665000D01*
X78709500Y-84090000D01*
X78710644Y-84066721D01*
X78714063Y-84043666D01*
X78719727Y-84021057D01*
X78727579Y-83999113D01*
X78737544Y-83978043D01*
X78749526Y-83958052D01*
X78763410Y-83939332D01*
X78779062Y-83922062D01*
X78796332Y-83906410D01*
X78815052Y-83892526D01*
X78835043Y-83880544D01*
X78856113Y-83870579D01*
X78878057Y-83862727D01*
X78900666Y-83857063D01*
X78923721Y-83853644D01*
X78947000Y-83852500D01*
X79422000Y-83852500D01*
X79445279Y-83853644D01*
G37*
G36*
X79445279Y-82103644D02*
G01*
X79468334Y-82107063D01*
X79490943Y-82112727D01*
X79512887Y-82120579D01*
X79533957Y-82130544D01*
X79553948Y-82142526D01*
X79572668Y-82156410D01*
X79589938Y-82172062D01*
X79605590Y-82189332D01*
X79619474Y-82208052D01*
X79631456Y-82228043D01*
X79641421Y-82249113D01*
X79649273Y-82271057D01*
X79654937Y-82293666D01*
X79658356Y-82316721D01*
X79659500Y-82340000D01*
X79659500Y-82915000D01*
X79658356Y-82938279D01*
X79654937Y-82961334D01*
X79649273Y-82983943D01*
X79641421Y-83005887D01*
X79631456Y-83026957D01*
X79619474Y-83046948D01*
X79605590Y-83065668D01*
X79589938Y-83082938D01*
X79572668Y-83098590D01*
X79553948Y-83112474D01*
X79533957Y-83124456D01*
X79512887Y-83134421D01*
X79490943Y-83142273D01*
X79468334Y-83147937D01*
X79445279Y-83151356D01*
X79422000Y-83152500D01*
X78947000Y-83152500D01*
X78923721Y-83151356D01*
X78900666Y-83147937D01*
X78878057Y-83142273D01*
X78856113Y-83134421D01*
X78835043Y-83124456D01*
X78815052Y-83112474D01*
X78796332Y-83098590D01*
X78779062Y-83082938D01*
X78763410Y-83065668D01*
X78749526Y-83046948D01*
X78737544Y-83026957D01*
X78727579Y-83005887D01*
X78719727Y-82983943D01*
X78714063Y-82961334D01*
X78710644Y-82938279D01*
X78709500Y-82915000D01*
X78709500Y-82340000D01*
X78710644Y-82316721D01*
X78714063Y-82293666D01*
X78719727Y-82271057D01*
X78727579Y-82249113D01*
X78737544Y-82228043D01*
X78749526Y-82208052D01*
X78763410Y-82189332D01*
X78779062Y-82172062D01*
X78796332Y-82156410D01*
X78815052Y-82142526D01*
X78835043Y-82130544D01*
X78856113Y-82120579D01*
X78878057Y-82112727D01*
X78900666Y-82107063D01*
X78923721Y-82103644D01*
X78947000Y-82102500D01*
X79422000Y-82102500D01*
X79445279Y-82103644D01*
G37*
G36*
X112211779Y-138210144D02*
G01*
X112234834Y-138213563D01*
X112257443Y-138219227D01*
X112279387Y-138227079D01*
X112300457Y-138237044D01*
X112320448Y-138249026D01*
X112339168Y-138262910D01*
X112356438Y-138278562D01*
X112372090Y-138295832D01*
X112385974Y-138314552D01*
X112397956Y-138334543D01*
X112407921Y-138355613D01*
X112415773Y-138377557D01*
X112421437Y-138400166D01*
X112424856Y-138423221D01*
X112426000Y-138446500D01*
X112426000Y-138921500D01*
X112424856Y-138944779D01*
X112421437Y-138967834D01*
X112415773Y-138990443D01*
X112407921Y-139012387D01*
X112397956Y-139033457D01*
X112385974Y-139053448D01*
X112372090Y-139072168D01*
X112356438Y-139089438D01*
X112339168Y-139105090D01*
X112320448Y-139118974D01*
X112300457Y-139130956D01*
X112279387Y-139140921D01*
X112257443Y-139148773D01*
X112234834Y-139154437D01*
X112211779Y-139157856D01*
X112188500Y-139159000D01*
X111613500Y-139159000D01*
X111590221Y-139157856D01*
X111567166Y-139154437D01*
X111544557Y-139148773D01*
X111522613Y-139140921D01*
X111501543Y-139130956D01*
X111481552Y-139118974D01*
X111462832Y-139105090D01*
X111445562Y-139089438D01*
X111429910Y-139072168D01*
X111416026Y-139053448D01*
X111404044Y-139033457D01*
X111394079Y-139012387D01*
X111386227Y-138990443D01*
X111380563Y-138967834D01*
X111377144Y-138944779D01*
X111376000Y-138921500D01*
X111376000Y-138446500D01*
X111377144Y-138423221D01*
X111380563Y-138400166D01*
X111386227Y-138377557D01*
X111394079Y-138355613D01*
X111404044Y-138334543D01*
X111416026Y-138314552D01*
X111429910Y-138295832D01*
X111445562Y-138278562D01*
X111462832Y-138262910D01*
X111481552Y-138249026D01*
X111501543Y-138237044D01*
X111522613Y-138227079D01*
X111544557Y-138219227D01*
X111567166Y-138213563D01*
X111590221Y-138210144D01*
X111613500Y-138209000D01*
X112188500Y-138209000D01*
X112211779Y-138210144D01*
G37*
G36*
X113961779Y-138210144D02*
G01*
X113984834Y-138213563D01*
X114007443Y-138219227D01*
X114029387Y-138227079D01*
X114050457Y-138237044D01*
X114070448Y-138249026D01*
X114089168Y-138262910D01*
X114106438Y-138278562D01*
X114122090Y-138295832D01*
X114135974Y-138314552D01*
X114147956Y-138334543D01*
X114157921Y-138355613D01*
X114165773Y-138377557D01*
X114171437Y-138400166D01*
X114174856Y-138423221D01*
X114176000Y-138446500D01*
X114176000Y-138921500D01*
X114174856Y-138944779D01*
X114171437Y-138967834D01*
X114165773Y-138990443D01*
X114157921Y-139012387D01*
X114147956Y-139033457D01*
X114135974Y-139053448D01*
X114122090Y-139072168D01*
X114106438Y-139089438D01*
X114089168Y-139105090D01*
X114070448Y-139118974D01*
X114050457Y-139130956D01*
X114029387Y-139140921D01*
X114007443Y-139148773D01*
X113984834Y-139154437D01*
X113961779Y-139157856D01*
X113938500Y-139159000D01*
X113363500Y-139159000D01*
X113340221Y-139157856D01*
X113317166Y-139154437D01*
X113294557Y-139148773D01*
X113272613Y-139140921D01*
X113251543Y-139130956D01*
X113231552Y-139118974D01*
X113212832Y-139105090D01*
X113195562Y-139089438D01*
X113179910Y-139072168D01*
X113166026Y-139053448D01*
X113154044Y-139033457D01*
X113144079Y-139012387D01*
X113136227Y-138990443D01*
X113130563Y-138967834D01*
X113127144Y-138944779D01*
X113126000Y-138921500D01*
X113126000Y-138446500D01*
X113127144Y-138423221D01*
X113130563Y-138400166D01*
X113136227Y-138377557D01*
X113144079Y-138355613D01*
X113154044Y-138334543D01*
X113166026Y-138314552D01*
X113179910Y-138295832D01*
X113195562Y-138278562D01*
X113212832Y-138262910D01*
X113231552Y-138249026D01*
X113251543Y-138237044D01*
X113272613Y-138227079D01*
X113294557Y-138219227D01*
X113317166Y-138213563D01*
X113340221Y-138210144D01*
X113363500Y-138209000D01*
X113938500Y-138209000D01*
X113961779Y-138210144D01*
G37*
G36*
X109276779Y-80171144D02*
G01*
X109299834Y-80174563D01*
X109322443Y-80180227D01*
X109344387Y-80188079D01*
X109365457Y-80198044D01*
X109385448Y-80210026D01*
X109404168Y-80223910D01*
X109421438Y-80239562D01*
X109437090Y-80256832D01*
X109450974Y-80275552D01*
X109462956Y-80295543D01*
X109472921Y-80316613D01*
X109480773Y-80338557D01*
X109486437Y-80361166D01*
X109489856Y-80384221D01*
X109491000Y-80407500D01*
X109491000Y-80882500D01*
X109489856Y-80905779D01*
X109486437Y-80928834D01*
X109480773Y-80951443D01*
X109472921Y-80973387D01*
X109462956Y-80994457D01*
X109450974Y-81014448D01*
X109437090Y-81033168D01*
X109421438Y-81050438D01*
X109404168Y-81066090D01*
X109385448Y-81079974D01*
X109365457Y-81091956D01*
X109344387Y-81101921D01*
X109322443Y-81109773D01*
X109299834Y-81115437D01*
X109276779Y-81118856D01*
X109253500Y-81120000D01*
X108678500Y-81120000D01*
X108655221Y-81118856D01*
X108632166Y-81115437D01*
X108609557Y-81109773D01*
X108587613Y-81101921D01*
X108566543Y-81091956D01*
X108546552Y-81079974D01*
X108527832Y-81066090D01*
X108510562Y-81050438D01*
X108494910Y-81033168D01*
X108481026Y-81014448D01*
X108469044Y-80994457D01*
X108459079Y-80973387D01*
X108451227Y-80951443D01*
X108445563Y-80928834D01*
X108442144Y-80905779D01*
X108441000Y-80882500D01*
X108441000Y-80407500D01*
X108442144Y-80384221D01*
X108445563Y-80361166D01*
X108451227Y-80338557D01*
X108459079Y-80316613D01*
X108469044Y-80295543D01*
X108481026Y-80275552D01*
X108494910Y-80256832D01*
X108510562Y-80239562D01*
X108527832Y-80223910D01*
X108546552Y-80210026D01*
X108566543Y-80198044D01*
X108587613Y-80188079D01*
X108609557Y-80180227D01*
X108632166Y-80174563D01*
X108655221Y-80171144D01*
X108678500Y-80170000D01*
X109253500Y-80170000D01*
X109276779Y-80171144D01*
G37*
G36*
X111026779Y-80171144D02*
G01*
X111049834Y-80174563D01*
X111072443Y-80180227D01*
X111094387Y-80188079D01*
X111115457Y-80198044D01*
X111135448Y-80210026D01*
X111154168Y-80223910D01*
X111171438Y-80239562D01*
X111187090Y-80256832D01*
X111200974Y-80275552D01*
X111212956Y-80295543D01*
X111222921Y-80316613D01*
X111230773Y-80338557D01*
X111236437Y-80361166D01*
X111239856Y-80384221D01*
X111241000Y-80407500D01*
X111241000Y-80882500D01*
X111239856Y-80905779D01*
X111236437Y-80928834D01*
X111230773Y-80951443D01*
X111222921Y-80973387D01*
X111212956Y-80994457D01*
X111200974Y-81014448D01*
X111187090Y-81033168D01*
X111171438Y-81050438D01*
X111154168Y-81066090D01*
X111135448Y-81079974D01*
X111115457Y-81091956D01*
X111094387Y-81101921D01*
X111072443Y-81109773D01*
X111049834Y-81115437D01*
X111026779Y-81118856D01*
X111003500Y-81120000D01*
X110428500Y-81120000D01*
X110405221Y-81118856D01*
X110382166Y-81115437D01*
X110359557Y-81109773D01*
X110337613Y-81101921D01*
X110316543Y-81091956D01*
X110296552Y-81079974D01*
X110277832Y-81066090D01*
X110260562Y-81050438D01*
X110244910Y-81033168D01*
X110231026Y-81014448D01*
X110219044Y-80994457D01*
X110209079Y-80973387D01*
X110201227Y-80951443D01*
X110195563Y-80928834D01*
X110192144Y-80905779D01*
X110191000Y-80882500D01*
X110191000Y-80407500D01*
X110192144Y-80384221D01*
X110195563Y-80361166D01*
X110201227Y-80338557D01*
X110209079Y-80316613D01*
X110219044Y-80295543D01*
X110231026Y-80275552D01*
X110244910Y-80256832D01*
X110260562Y-80239562D01*
X110277832Y-80223910D01*
X110296552Y-80210026D01*
X110316543Y-80198044D01*
X110337613Y-80188079D01*
X110359557Y-80180227D01*
X110382166Y-80174563D01*
X110405221Y-80171144D01*
X110428500Y-80170000D01*
X111003500Y-80170000D01*
X111026779Y-80171144D01*
G37*
G36*
X112147779Y-134427644D02*
G01*
X112170834Y-134431063D01*
X112193443Y-134436727D01*
X112215387Y-134444579D01*
X112236457Y-134454544D01*
X112256448Y-134466526D01*
X112275168Y-134480410D01*
X112292438Y-134496062D01*
X112308090Y-134513332D01*
X112321974Y-134532052D01*
X112333956Y-134552043D01*
X112343921Y-134573113D01*
X112351773Y-134595057D01*
X112357437Y-134617666D01*
X112360856Y-134640721D01*
X112362000Y-134664000D01*
X112362000Y-135239000D01*
X112360856Y-135262279D01*
X112357437Y-135285334D01*
X112351773Y-135307943D01*
X112343921Y-135329887D01*
X112333956Y-135350957D01*
X112321974Y-135370948D01*
X112308090Y-135389668D01*
X112292438Y-135406938D01*
X112275168Y-135422590D01*
X112256448Y-135436474D01*
X112236457Y-135448456D01*
X112215387Y-135458421D01*
X112193443Y-135466273D01*
X112170834Y-135471937D01*
X112147779Y-135475356D01*
X112124500Y-135476500D01*
X111649500Y-135476500D01*
X111626221Y-135475356D01*
X111603166Y-135471937D01*
X111580557Y-135466273D01*
X111558613Y-135458421D01*
X111537543Y-135448456D01*
X111517552Y-135436474D01*
X111498832Y-135422590D01*
X111481562Y-135406938D01*
X111465910Y-135389668D01*
X111452026Y-135370948D01*
X111440044Y-135350957D01*
X111430079Y-135329887D01*
X111422227Y-135307943D01*
X111416563Y-135285334D01*
X111413144Y-135262279D01*
X111412000Y-135239000D01*
X111412000Y-134664000D01*
X111413144Y-134640721D01*
X111416563Y-134617666D01*
X111422227Y-134595057D01*
X111430079Y-134573113D01*
X111440044Y-134552043D01*
X111452026Y-134532052D01*
X111465910Y-134513332D01*
X111481562Y-134496062D01*
X111498832Y-134480410D01*
X111517552Y-134466526D01*
X111537543Y-134454544D01*
X111558613Y-134444579D01*
X111580557Y-134436727D01*
X111603166Y-134431063D01*
X111626221Y-134427644D01*
X111649500Y-134426500D01*
X112124500Y-134426500D01*
X112147779Y-134427644D01*
G37*
G36*
X112147779Y-136177644D02*
G01*
X112170834Y-136181063D01*
X112193443Y-136186727D01*
X112215387Y-136194579D01*
X112236457Y-136204544D01*
X112256448Y-136216526D01*
X112275168Y-136230410D01*
X112292438Y-136246062D01*
X112308090Y-136263332D01*
X112321974Y-136282052D01*
X112333956Y-136302043D01*
X112343921Y-136323113D01*
X112351773Y-136345057D01*
X112357437Y-136367666D01*
X112360856Y-136390721D01*
X112362000Y-136414000D01*
X112362000Y-136989000D01*
X112360856Y-137012279D01*
X112357437Y-137035334D01*
X112351773Y-137057943D01*
X112343921Y-137079887D01*
X112333956Y-137100957D01*
X112321974Y-137120948D01*
X112308090Y-137139668D01*
X112292438Y-137156938D01*
X112275168Y-137172590D01*
X112256448Y-137186474D01*
X112236457Y-137198456D01*
X112215387Y-137208421D01*
X112193443Y-137216273D01*
X112170834Y-137221937D01*
X112147779Y-137225356D01*
X112124500Y-137226500D01*
X111649500Y-137226500D01*
X111626221Y-137225356D01*
X111603166Y-137221937D01*
X111580557Y-137216273D01*
X111558613Y-137208421D01*
X111537543Y-137198456D01*
X111517552Y-137186474D01*
X111498832Y-137172590D01*
X111481562Y-137156938D01*
X111465910Y-137139668D01*
X111452026Y-137120948D01*
X111440044Y-137100957D01*
X111430079Y-137079887D01*
X111422227Y-137057943D01*
X111416563Y-137035334D01*
X111413144Y-137012279D01*
X111412000Y-136989000D01*
X111412000Y-136414000D01*
X111413144Y-136390721D01*
X111416563Y-136367666D01*
X111422227Y-136345057D01*
X111430079Y-136323113D01*
X111440044Y-136302043D01*
X111452026Y-136282052D01*
X111465910Y-136263332D01*
X111481562Y-136246062D01*
X111498832Y-136230410D01*
X111517552Y-136216526D01*
X111537543Y-136204544D01*
X111558613Y-136194579D01*
X111580557Y-136186727D01*
X111603166Y-136181063D01*
X111626221Y-136177644D01*
X111649500Y-136176500D01*
X112124500Y-136176500D01*
X112147779Y-136177644D01*
G37*
G36*
X111004779Y-82103644D02*
G01*
X111027834Y-82107063D01*
X111050443Y-82112727D01*
X111072387Y-82120579D01*
X111093457Y-82130544D01*
X111113448Y-82142526D01*
X111132168Y-82156410D01*
X111149438Y-82172062D01*
X111165090Y-82189332D01*
X111178974Y-82208052D01*
X111190956Y-82228043D01*
X111200921Y-82249113D01*
X111208773Y-82271057D01*
X111214437Y-82293666D01*
X111217856Y-82316721D01*
X111219000Y-82340000D01*
X111219000Y-82915000D01*
X111217856Y-82938279D01*
X111214437Y-82961334D01*
X111208773Y-82983943D01*
X111200921Y-83005887D01*
X111190956Y-83026957D01*
X111178974Y-83046948D01*
X111165090Y-83065668D01*
X111149438Y-83082938D01*
X111132168Y-83098590D01*
X111113448Y-83112474D01*
X111093457Y-83124456D01*
X111072387Y-83134421D01*
X111050443Y-83142273D01*
X111027834Y-83147937D01*
X111004779Y-83151356D01*
X110981500Y-83152500D01*
X110506500Y-83152500D01*
X110483221Y-83151356D01*
X110460166Y-83147937D01*
X110437557Y-83142273D01*
X110415613Y-83134421D01*
X110394543Y-83124456D01*
X110374552Y-83112474D01*
X110355832Y-83098590D01*
X110338562Y-83082938D01*
X110322910Y-83065668D01*
X110309026Y-83046948D01*
X110297044Y-83026957D01*
X110287079Y-83005887D01*
X110279227Y-82983943D01*
X110273563Y-82961334D01*
X110270144Y-82938279D01*
X110269000Y-82915000D01*
X110269000Y-82340000D01*
X110270144Y-82316721D01*
X110273563Y-82293666D01*
X110279227Y-82271057D01*
X110287079Y-82249113D01*
X110297044Y-82228043D01*
X110309026Y-82208052D01*
X110322910Y-82189332D01*
X110338562Y-82172062D01*
X110355832Y-82156410D01*
X110374552Y-82142526D01*
X110394543Y-82130544D01*
X110415613Y-82120579D01*
X110437557Y-82112727D01*
X110460166Y-82107063D01*
X110483221Y-82103644D01*
X110506500Y-82102500D01*
X110981500Y-82102500D01*
X111004779Y-82103644D01*
G37*
G36*
X111004779Y-83853644D02*
G01*
X111027834Y-83857063D01*
X111050443Y-83862727D01*
X111072387Y-83870579D01*
X111093457Y-83880544D01*
X111113448Y-83892526D01*
X111132168Y-83906410D01*
X111149438Y-83922062D01*
X111165090Y-83939332D01*
X111178974Y-83958052D01*
X111190956Y-83978043D01*
X111200921Y-83999113D01*
X111208773Y-84021057D01*
X111214437Y-84043666D01*
X111217856Y-84066721D01*
X111219000Y-84090000D01*
X111219000Y-84665000D01*
X111217856Y-84688279D01*
X111214437Y-84711334D01*
X111208773Y-84733943D01*
X111200921Y-84755887D01*
X111190956Y-84776957D01*
X111178974Y-84796948D01*
X111165090Y-84815668D01*
X111149438Y-84832938D01*
X111132168Y-84848590D01*
X111113448Y-84862474D01*
X111093457Y-84874456D01*
X111072387Y-84884421D01*
X111050443Y-84892273D01*
X111027834Y-84897937D01*
X111004779Y-84901356D01*
X110981500Y-84902500D01*
X110506500Y-84902500D01*
X110483221Y-84901356D01*
X110460166Y-84897937D01*
X110437557Y-84892273D01*
X110415613Y-84884421D01*
X110394543Y-84874456D01*
X110374552Y-84862474D01*
X110355832Y-84848590D01*
X110338562Y-84832938D01*
X110322910Y-84815668D01*
X110309026Y-84796948D01*
X110297044Y-84776957D01*
X110287079Y-84755887D01*
X110279227Y-84733943D01*
X110273563Y-84711334D01*
X110270144Y-84688279D01*
X110269000Y-84665000D01*
X110269000Y-84090000D01*
X110270144Y-84066721D01*
X110273563Y-84043666D01*
X110279227Y-84021057D01*
X110287079Y-83999113D01*
X110297044Y-83978043D01*
X110309026Y-83958052D01*
X110322910Y-83939332D01*
X110338562Y-83922062D01*
X110355832Y-83906410D01*
X110374552Y-83892526D01*
X110394543Y-83880544D01*
X110415613Y-83870579D01*
X110437557Y-83862727D01*
X110460166Y-83857063D01*
X110483221Y-83853644D01*
X110506500Y-83852500D01*
X110981500Y-83852500D01*
X111004779Y-83853644D01*
G37*
G36*
X88575779Y-138210144D02*
G01*
X88598834Y-138213563D01*
X88621443Y-138219227D01*
X88643387Y-138227079D01*
X88664457Y-138237044D01*
X88684448Y-138249026D01*
X88703168Y-138262910D01*
X88720438Y-138278562D01*
X88736090Y-138295832D01*
X88749974Y-138314552D01*
X88761956Y-138334543D01*
X88771921Y-138355613D01*
X88779773Y-138377557D01*
X88785437Y-138400166D01*
X88788856Y-138423221D01*
X88790000Y-138446500D01*
X88790000Y-138921500D01*
X88788856Y-138944779D01*
X88785437Y-138967834D01*
X88779773Y-138990443D01*
X88771921Y-139012387D01*
X88761956Y-139033457D01*
X88749974Y-139053448D01*
X88736090Y-139072168D01*
X88720438Y-139089438D01*
X88703168Y-139105090D01*
X88684448Y-139118974D01*
X88664457Y-139130956D01*
X88643387Y-139140921D01*
X88621443Y-139148773D01*
X88598834Y-139154437D01*
X88575779Y-139157856D01*
X88552500Y-139159000D01*
X87977500Y-139159000D01*
X87954221Y-139157856D01*
X87931166Y-139154437D01*
X87908557Y-139148773D01*
X87886613Y-139140921D01*
X87865543Y-139130956D01*
X87845552Y-139118974D01*
X87826832Y-139105090D01*
X87809562Y-139089438D01*
X87793910Y-139072168D01*
X87780026Y-139053448D01*
X87768044Y-139033457D01*
X87758079Y-139012387D01*
X87750227Y-138990443D01*
X87744563Y-138967834D01*
X87741144Y-138944779D01*
X87740000Y-138921500D01*
X87740000Y-138446500D01*
X87741144Y-138423221D01*
X87744563Y-138400166D01*
X87750227Y-138377557D01*
X87758079Y-138355613D01*
X87768044Y-138334543D01*
X87780026Y-138314552D01*
X87793910Y-138295832D01*
X87809562Y-138278562D01*
X87826832Y-138262910D01*
X87845552Y-138249026D01*
X87865543Y-138237044D01*
X87886613Y-138227079D01*
X87908557Y-138219227D01*
X87931166Y-138213563D01*
X87954221Y-138210144D01*
X87977500Y-138209000D01*
X88552500Y-138209000D01*
X88575779Y-138210144D01*
G37*
G36*
X90325779Y-138210144D02*
G01*
X90348834Y-138213563D01*
X90371443Y-138219227D01*
X90393387Y-138227079D01*
X90414457Y-138237044D01*
X90434448Y-138249026D01*
X90453168Y-138262910D01*
X90470438Y-138278562D01*
X90486090Y-138295832D01*
X90499974Y-138314552D01*
X90511956Y-138334543D01*
X90521921Y-138355613D01*
X90529773Y-138377557D01*
X90535437Y-138400166D01*
X90538856Y-138423221D01*
X90540000Y-138446500D01*
X90540000Y-138921500D01*
X90538856Y-138944779D01*
X90535437Y-138967834D01*
X90529773Y-138990443D01*
X90521921Y-139012387D01*
X90511956Y-139033457D01*
X90499974Y-139053448D01*
X90486090Y-139072168D01*
X90470438Y-139089438D01*
X90453168Y-139105090D01*
X90434448Y-139118974D01*
X90414457Y-139130956D01*
X90393387Y-139140921D01*
X90371443Y-139148773D01*
X90348834Y-139154437D01*
X90325779Y-139157856D01*
X90302500Y-139159000D01*
X89727500Y-139159000D01*
X89704221Y-139157856D01*
X89681166Y-139154437D01*
X89658557Y-139148773D01*
X89636613Y-139140921D01*
X89615543Y-139130956D01*
X89595552Y-139118974D01*
X89576832Y-139105090D01*
X89559562Y-139089438D01*
X89543910Y-139072168D01*
X89530026Y-139053448D01*
X89518044Y-139033457D01*
X89508079Y-139012387D01*
X89500227Y-138990443D01*
X89494563Y-138967834D01*
X89491144Y-138944779D01*
X89490000Y-138921500D01*
X89490000Y-138446500D01*
X89491144Y-138423221D01*
X89494563Y-138400166D01*
X89500227Y-138377557D01*
X89508079Y-138355613D01*
X89518044Y-138334543D01*
X89530026Y-138314552D01*
X89543910Y-138295832D01*
X89559562Y-138278562D01*
X89576832Y-138262910D01*
X89595552Y-138249026D01*
X89615543Y-138237044D01*
X89636613Y-138227079D01*
X89658557Y-138219227D01*
X89681166Y-138213563D01*
X89704221Y-138210144D01*
X89727500Y-138209000D01*
X90302500Y-138209000D01*
X90325779Y-138210144D01*
G37*
G36*
X87404779Y-80234644D02*
G01*
X87427834Y-80238063D01*
X87450443Y-80243727D01*
X87472387Y-80251579D01*
X87493457Y-80261544D01*
X87513448Y-80273526D01*
X87532168Y-80287410D01*
X87549438Y-80303062D01*
X87565090Y-80320332D01*
X87578974Y-80339052D01*
X87590956Y-80359043D01*
X87600921Y-80380113D01*
X87608773Y-80402057D01*
X87614437Y-80424666D01*
X87617856Y-80447721D01*
X87619000Y-80471000D01*
X87619000Y-80946000D01*
X87617856Y-80969279D01*
X87614437Y-80992334D01*
X87608773Y-81014943D01*
X87600921Y-81036887D01*
X87590956Y-81057957D01*
X87578974Y-81077948D01*
X87565090Y-81096668D01*
X87549438Y-81113938D01*
X87532168Y-81129590D01*
X87513448Y-81143474D01*
X87493457Y-81155456D01*
X87472387Y-81165421D01*
X87450443Y-81173273D01*
X87427834Y-81178937D01*
X87404779Y-81182356D01*
X87381500Y-81183500D01*
X86806500Y-81183500D01*
X86783221Y-81182356D01*
X86760166Y-81178937D01*
X86737557Y-81173273D01*
X86715613Y-81165421D01*
X86694543Y-81155456D01*
X86674552Y-81143474D01*
X86655832Y-81129590D01*
X86638562Y-81113938D01*
X86622910Y-81096668D01*
X86609026Y-81077948D01*
X86597044Y-81057957D01*
X86587079Y-81036887D01*
X86579227Y-81014943D01*
X86573563Y-80992334D01*
X86570144Y-80969279D01*
X86569000Y-80946000D01*
X86569000Y-80471000D01*
X86570144Y-80447721D01*
X86573563Y-80424666D01*
X86579227Y-80402057D01*
X86587079Y-80380113D01*
X86597044Y-80359043D01*
X86609026Y-80339052D01*
X86622910Y-80320332D01*
X86638562Y-80303062D01*
X86655832Y-80287410D01*
X86674552Y-80273526D01*
X86694543Y-80261544D01*
X86715613Y-80251579D01*
X86737557Y-80243727D01*
X86760166Y-80238063D01*
X86783221Y-80234644D01*
X86806500Y-80233500D01*
X87381500Y-80233500D01*
X87404779Y-80234644D01*
G37*
G36*
X85654779Y-80234644D02*
G01*
X85677834Y-80238063D01*
X85700443Y-80243727D01*
X85722387Y-80251579D01*
X85743457Y-80261544D01*
X85763448Y-80273526D01*
X85782168Y-80287410D01*
X85799438Y-80303062D01*
X85815090Y-80320332D01*
X85828974Y-80339052D01*
X85840956Y-80359043D01*
X85850921Y-80380113D01*
X85858773Y-80402057D01*
X85864437Y-80424666D01*
X85867856Y-80447721D01*
X85869000Y-80471000D01*
X85869000Y-80946000D01*
X85867856Y-80969279D01*
X85864437Y-80992334D01*
X85858773Y-81014943D01*
X85850921Y-81036887D01*
X85840956Y-81057957D01*
X85828974Y-81077948D01*
X85815090Y-81096668D01*
X85799438Y-81113938D01*
X85782168Y-81129590D01*
X85763448Y-81143474D01*
X85743457Y-81155456D01*
X85722387Y-81165421D01*
X85700443Y-81173273D01*
X85677834Y-81178937D01*
X85654779Y-81182356D01*
X85631500Y-81183500D01*
X85056500Y-81183500D01*
X85033221Y-81182356D01*
X85010166Y-81178937D01*
X84987557Y-81173273D01*
X84965613Y-81165421D01*
X84944543Y-81155456D01*
X84924552Y-81143474D01*
X84905832Y-81129590D01*
X84888562Y-81113938D01*
X84872910Y-81096668D01*
X84859026Y-81077948D01*
X84847044Y-81057957D01*
X84837079Y-81036887D01*
X84829227Y-81014943D01*
X84823563Y-80992334D01*
X84820144Y-80969279D01*
X84819000Y-80946000D01*
X84819000Y-80471000D01*
X84820144Y-80447721D01*
X84823563Y-80424666D01*
X84829227Y-80402057D01*
X84837079Y-80380113D01*
X84847044Y-80359043D01*
X84859026Y-80339052D01*
X84872910Y-80320332D01*
X84888562Y-80303062D01*
X84905832Y-80287410D01*
X84924552Y-80273526D01*
X84944543Y-80261544D01*
X84965613Y-80251579D01*
X84987557Y-80243727D01*
X85010166Y-80238063D01*
X85033221Y-80234644D01*
X85056500Y-80233500D01*
X85631500Y-80233500D01*
X85654779Y-80234644D01*
G37*
G36*
X88462279Y-134427644D02*
G01*
X88485334Y-134431063D01*
X88507943Y-134436727D01*
X88529887Y-134444579D01*
X88550957Y-134454544D01*
X88570948Y-134466526D01*
X88589668Y-134480410D01*
X88606938Y-134496062D01*
X88622590Y-134513332D01*
X88636474Y-134532052D01*
X88648456Y-134552043D01*
X88658421Y-134573113D01*
X88666273Y-134595057D01*
X88671937Y-134617666D01*
X88675356Y-134640721D01*
X88676500Y-134664000D01*
X88676500Y-135239000D01*
X88675356Y-135262279D01*
X88671937Y-135285334D01*
X88666273Y-135307943D01*
X88658421Y-135329887D01*
X88648456Y-135350957D01*
X88636474Y-135370948D01*
X88622590Y-135389668D01*
X88606938Y-135406938D01*
X88589668Y-135422590D01*
X88570948Y-135436474D01*
X88550957Y-135448456D01*
X88529887Y-135458421D01*
X88507943Y-135466273D01*
X88485334Y-135471937D01*
X88462279Y-135475356D01*
X88439000Y-135476500D01*
X87964000Y-135476500D01*
X87940721Y-135475356D01*
X87917666Y-135471937D01*
X87895057Y-135466273D01*
X87873113Y-135458421D01*
X87852043Y-135448456D01*
X87832052Y-135436474D01*
X87813332Y-135422590D01*
X87796062Y-135406938D01*
X87780410Y-135389668D01*
X87766526Y-135370948D01*
X87754544Y-135350957D01*
X87744579Y-135329887D01*
X87736727Y-135307943D01*
X87731063Y-135285334D01*
X87727644Y-135262279D01*
X87726500Y-135239000D01*
X87726500Y-134664000D01*
X87727644Y-134640721D01*
X87731063Y-134617666D01*
X87736727Y-134595057D01*
X87744579Y-134573113D01*
X87754544Y-134552043D01*
X87766526Y-134532052D01*
X87780410Y-134513332D01*
X87796062Y-134496062D01*
X87813332Y-134480410D01*
X87832052Y-134466526D01*
X87852043Y-134454544D01*
X87873113Y-134444579D01*
X87895057Y-134436727D01*
X87917666Y-134431063D01*
X87940721Y-134427644D01*
X87964000Y-134426500D01*
X88439000Y-134426500D01*
X88462279Y-134427644D01*
G37*
G36*
X88462279Y-136177644D02*
G01*
X88485334Y-136181063D01*
X88507943Y-136186727D01*
X88529887Y-136194579D01*
X88550957Y-136204544D01*
X88570948Y-136216526D01*
X88589668Y-136230410D01*
X88606938Y-136246062D01*
X88622590Y-136263332D01*
X88636474Y-136282052D01*
X88648456Y-136302043D01*
X88658421Y-136323113D01*
X88666273Y-136345057D01*
X88671937Y-136367666D01*
X88675356Y-136390721D01*
X88676500Y-136414000D01*
X88676500Y-136989000D01*
X88675356Y-137012279D01*
X88671937Y-137035334D01*
X88666273Y-137057943D01*
X88658421Y-137079887D01*
X88648456Y-137100957D01*
X88636474Y-137120948D01*
X88622590Y-137139668D01*
X88606938Y-137156938D01*
X88589668Y-137172590D01*
X88570948Y-137186474D01*
X88550957Y-137198456D01*
X88529887Y-137208421D01*
X88507943Y-137216273D01*
X88485334Y-137221937D01*
X88462279Y-137225356D01*
X88439000Y-137226500D01*
X87964000Y-137226500D01*
X87940721Y-137225356D01*
X87917666Y-137221937D01*
X87895057Y-137216273D01*
X87873113Y-137208421D01*
X87852043Y-137198456D01*
X87832052Y-137186474D01*
X87813332Y-137172590D01*
X87796062Y-137156938D01*
X87780410Y-137139668D01*
X87766526Y-137120948D01*
X87754544Y-137100957D01*
X87744579Y-137079887D01*
X87736727Y-137057943D01*
X87731063Y-137035334D01*
X87727644Y-137012279D01*
X87726500Y-136989000D01*
X87726500Y-136414000D01*
X87727644Y-136390721D01*
X87731063Y-136367666D01*
X87736727Y-136345057D01*
X87744579Y-136323113D01*
X87754544Y-136302043D01*
X87766526Y-136282052D01*
X87780410Y-136263332D01*
X87796062Y-136246062D01*
X87813332Y-136230410D01*
X87832052Y-136216526D01*
X87852043Y-136204544D01*
X87873113Y-136194579D01*
X87895057Y-136186727D01*
X87917666Y-136181063D01*
X87940721Y-136177644D01*
X87964000Y-136176500D01*
X88439000Y-136176500D01*
X88462279Y-136177644D01*
G37*
G36*
X87382779Y-83853644D02*
G01*
X87405834Y-83857063D01*
X87428443Y-83862727D01*
X87450387Y-83870579D01*
X87471457Y-83880544D01*
X87491448Y-83892526D01*
X87510168Y-83906410D01*
X87527438Y-83922062D01*
X87543090Y-83939332D01*
X87556974Y-83958052D01*
X87568956Y-83978043D01*
X87578921Y-83999113D01*
X87586773Y-84021057D01*
X87592437Y-84043666D01*
X87595856Y-84066721D01*
X87597000Y-84090000D01*
X87597000Y-84665000D01*
X87595856Y-84688279D01*
X87592437Y-84711334D01*
X87586773Y-84733943D01*
X87578921Y-84755887D01*
X87568956Y-84776957D01*
X87556974Y-84796948D01*
X87543090Y-84815668D01*
X87527438Y-84832938D01*
X87510168Y-84848590D01*
X87491448Y-84862474D01*
X87471457Y-84874456D01*
X87450387Y-84884421D01*
X87428443Y-84892273D01*
X87405834Y-84897937D01*
X87382779Y-84901356D01*
X87359500Y-84902500D01*
X86884500Y-84902500D01*
X86861221Y-84901356D01*
X86838166Y-84897937D01*
X86815557Y-84892273D01*
X86793613Y-84884421D01*
X86772543Y-84874456D01*
X86752552Y-84862474D01*
X86733832Y-84848590D01*
X86716562Y-84832938D01*
X86700910Y-84815668D01*
X86687026Y-84796948D01*
X86675044Y-84776957D01*
X86665079Y-84755887D01*
X86657227Y-84733943D01*
X86651563Y-84711334D01*
X86648144Y-84688279D01*
X86647000Y-84665000D01*
X86647000Y-84090000D01*
X86648144Y-84066721D01*
X86651563Y-84043666D01*
X86657227Y-84021057D01*
X86665079Y-83999113D01*
X86675044Y-83978043D01*
X86687026Y-83958052D01*
X86700910Y-83939332D01*
X86716562Y-83922062D01*
X86733832Y-83906410D01*
X86752552Y-83892526D01*
X86772543Y-83880544D01*
X86793613Y-83870579D01*
X86815557Y-83862727D01*
X86838166Y-83857063D01*
X86861221Y-83853644D01*
X86884500Y-83852500D01*
X87359500Y-83852500D01*
X87382779Y-83853644D01*
G37*
G36*
X87382779Y-82103644D02*
G01*
X87405834Y-82107063D01*
X87428443Y-82112727D01*
X87450387Y-82120579D01*
X87471457Y-82130544D01*
X87491448Y-82142526D01*
X87510168Y-82156410D01*
X87527438Y-82172062D01*
X87543090Y-82189332D01*
X87556974Y-82208052D01*
X87568956Y-82228043D01*
X87578921Y-82249113D01*
X87586773Y-82271057D01*
X87592437Y-82293666D01*
X87595856Y-82316721D01*
X87597000Y-82340000D01*
X87597000Y-82915000D01*
X87595856Y-82938279D01*
X87592437Y-82961334D01*
X87586773Y-82983943D01*
X87578921Y-83005887D01*
X87568956Y-83026957D01*
X87556974Y-83046948D01*
X87543090Y-83065668D01*
X87527438Y-83082938D01*
X87510168Y-83098590D01*
X87491448Y-83112474D01*
X87471457Y-83124456D01*
X87450387Y-83134421D01*
X87428443Y-83142273D01*
X87405834Y-83147937D01*
X87382779Y-83151356D01*
X87359500Y-83152500D01*
X86884500Y-83152500D01*
X86861221Y-83151356D01*
X86838166Y-83147937D01*
X86815557Y-83142273D01*
X86793613Y-83134421D01*
X86772543Y-83124456D01*
X86752552Y-83112474D01*
X86733832Y-83098590D01*
X86716562Y-83082938D01*
X86700910Y-83065668D01*
X86687026Y-83046948D01*
X86675044Y-83026957D01*
X86665079Y-83005887D01*
X86657227Y-82983943D01*
X86651563Y-82961334D01*
X86648144Y-82938279D01*
X86647000Y-82915000D01*
X86647000Y-82340000D01*
X86648144Y-82316721D01*
X86651563Y-82293666D01*
X86657227Y-82271057D01*
X86665079Y-82249113D01*
X86675044Y-82228043D01*
X86687026Y-82208052D01*
X86700910Y-82189332D01*
X86716562Y-82172062D01*
X86733832Y-82156410D01*
X86752552Y-82142526D01*
X86772543Y-82130544D01*
X86793613Y-82120579D01*
X86815557Y-82112727D01*
X86838166Y-82107063D01*
X86861221Y-82103644D01*
X86884500Y-82102500D01*
X87359500Y-82102500D01*
X87382779Y-82103644D01*
G37*
G36*
X104387279Y-138210144D02*
G01*
X104410334Y-138213563D01*
X104432943Y-138219227D01*
X104454887Y-138227079D01*
X104475957Y-138237044D01*
X104495948Y-138249026D01*
X104514668Y-138262910D01*
X104531938Y-138278562D01*
X104547590Y-138295832D01*
X104561474Y-138314552D01*
X104573456Y-138334543D01*
X104583421Y-138355613D01*
X104591273Y-138377557D01*
X104596937Y-138400166D01*
X104600356Y-138423221D01*
X104601500Y-138446500D01*
X104601500Y-138921500D01*
X104600356Y-138944779D01*
X104596937Y-138967834D01*
X104591273Y-138990443D01*
X104583421Y-139012387D01*
X104573456Y-139033457D01*
X104561474Y-139053448D01*
X104547590Y-139072168D01*
X104531938Y-139089438D01*
X104514668Y-139105090D01*
X104495948Y-139118974D01*
X104475957Y-139130956D01*
X104454887Y-139140921D01*
X104432943Y-139148773D01*
X104410334Y-139154437D01*
X104387279Y-139157856D01*
X104364000Y-139159000D01*
X103789000Y-139159000D01*
X103765721Y-139157856D01*
X103742666Y-139154437D01*
X103720057Y-139148773D01*
X103698113Y-139140921D01*
X103677043Y-139130956D01*
X103657052Y-139118974D01*
X103638332Y-139105090D01*
X103621062Y-139089438D01*
X103605410Y-139072168D01*
X103591526Y-139053448D01*
X103579544Y-139033457D01*
X103569579Y-139012387D01*
X103561727Y-138990443D01*
X103556063Y-138967834D01*
X103552644Y-138944779D01*
X103551500Y-138921500D01*
X103551500Y-138446500D01*
X103552644Y-138423221D01*
X103556063Y-138400166D01*
X103561727Y-138377557D01*
X103569579Y-138355613D01*
X103579544Y-138334543D01*
X103591526Y-138314552D01*
X103605410Y-138295832D01*
X103621062Y-138278562D01*
X103638332Y-138262910D01*
X103657052Y-138249026D01*
X103677043Y-138237044D01*
X103698113Y-138227079D01*
X103720057Y-138219227D01*
X103742666Y-138213563D01*
X103765721Y-138210144D01*
X103789000Y-138209000D01*
X104364000Y-138209000D01*
X104387279Y-138210144D01*
G37*
G36*
X106137279Y-138210144D02*
G01*
X106160334Y-138213563D01*
X106182943Y-138219227D01*
X106204887Y-138227079D01*
X106225957Y-138237044D01*
X106245948Y-138249026D01*
X106264668Y-138262910D01*
X106281938Y-138278562D01*
X106297590Y-138295832D01*
X106311474Y-138314552D01*
X106323456Y-138334543D01*
X106333421Y-138355613D01*
X106341273Y-138377557D01*
X106346937Y-138400166D01*
X106350356Y-138423221D01*
X106351500Y-138446500D01*
X106351500Y-138921500D01*
X106350356Y-138944779D01*
X106346937Y-138967834D01*
X106341273Y-138990443D01*
X106333421Y-139012387D01*
X106323456Y-139033457D01*
X106311474Y-139053448D01*
X106297590Y-139072168D01*
X106281938Y-139089438D01*
X106264668Y-139105090D01*
X106245948Y-139118974D01*
X106225957Y-139130956D01*
X106204887Y-139140921D01*
X106182943Y-139148773D01*
X106160334Y-139154437D01*
X106137279Y-139157856D01*
X106114000Y-139159000D01*
X105539000Y-139159000D01*
X105515721Y-139157856D01*
X105492666Y-139154437D01*
X105470057Y-139148773D01*
X105448113Y-139140921D01*
X105427043Y-139130956D01*
X105407052Y-139118974D01*
X105388332Y-139105090D01*
X105371062Y-139089438D01*
X105355410Y-139072168D01*
X105341526Y-139053448D01*
X105329544Y-139033457D01*
X105319579Y-139012387D01*
X105311727Y-138990443D01*
X105306063Y-138967834D01*
X105302644Y-138944779D01*
X105301500Y-138921500D01*
X105301500Y-138446500D01*
X105302644Y-138423221D01*
X105306063Y-138400166D01*
X105311727Y-138377557D01*
X105319579Y-138355613D01*
X105329544Y-138334543D01*
X105341526Y-138314552D01*
X105355410Y-138295832D01*
X105371062Y-138278562D01*
X105388332Y-138262910D01*
X105407052Y-138249026D01*
X105427043Y-138237044D01*
X105448113Y-138227079D01*
X105470057Y-138219227D01*
X105492666Y-138213563D01*
X105515721Y-138210144D01*
X105539000Y-138209000D01*
X106114000Y-138209000D01*
X106137279Y-138210144D01*
G37*
G36*
X101402779Y-80171144D02*
G01*
X101425834Y-80174563D01*
X101448443Y-80180227D01*
X101470387Y-80188079D01*
X101491457Y-80198044D01*
X101511448Y-80210026D01*
X101530168Y-80223910D01*
X101547438Y-80239562D01*
X101563090Y-80256832D01*
X101576974Y-80275552D01*
X101588956Y-80295543D01*
X101598921Y-80316613D01*
X101606773Y-80338557D01*
X101612437Y-80361166D01*
X101615856Y-80384221D01*
X101617000Y-80407500D01*
X101617000Y-80882500D01*
X101615856Y-80905779D01*
X101612437Y-80928834D01*
X101606773Y-80951443D01*
X101598921Y-80973387D01*
X101588956Y-80994457D01*
X101576974Y-81014448D01*
X101563090Y-81033168D01*
X101547438Y-81050438D01*
X101530168Y-81066090D01*
X101511448Y-81079974D01*
X101491457Y-81091956D01*
X101470387Y-81101921D01*
X101448443Y-81109773D01*
X101425834Y-81115437D01*
X101402779Y-81118856D01*
X101379500Y-81120000D01*
X100804500Y-81120000D01*
X100781221Y-81118856D01*
X100758166Y-81115437D01*
X100735557Y-81109773D01*
X100713613Y-81101921D01*
X100692543Y-81091956D01*
X100672552Y-81079974D01*
X100653832Y-81066090D01*
X100636562Y-81050438D01*
X100620910Y-81033168D01*
X100607026Y-81014448D01*
X100595044Y-80994457D01*
X100585079Y-80973387D01*
X100577227Y-80951443D01*
X100571563Y-80928834D01*
X100568144Y-80905779D01*
X100567000Y-80882500D01*
X100567000Y-80407500D01*
X100568144Y-80384221D01*
X100571563Y-80361166D01*
X100577227Y-80338557D01*
X100585079Y-80316613D01*
X100595044Y-80295543D01*
X100607026Y-80275552D01*
X100620910Y-80256832D01*
X100636562Y-80239562D01*
X100653832Y-80223910D01*
X100672552Y-80210026D01*
X100692543Y-80198044D01*
X100713613Y-80188079D01*
X100735557Y-80180227D01*
X100758166Y-80174563D01*
X100781221Y-80171144D01*
X100804500Y-80170000D01*
X101379500Y-80170000D01*
X101402779Y-80171144D01*
G37*
G36*
X103152779Y-80171144D02*
G01*
X103175834Y-80174563D01*
X103198443Y-80180227D01*
X103220387Y-80188079D01*
X103241457Y-80198044D01*
X103261448Y-80210026D01*
X103280168Y-80223910D01*
X103297438Y-80239562D01*
X103313090Y-80256832D01*
X103326974Y-80275552D01*
X103338956Y-80295543D01*
X103348921Y-80316613D01*
X103356773Y-80338557D01*
X103362437Y-80361166D01*
X103365856Y-80384221D01*
X103367000Y-80407500D01*
X103367000Y-80882500D01*
X103365856Y-80905779D01*
X103362437Y-80928834D01*
X103356773Y-80951443D01*
X103348921Y-80973387D01*
X103338956Y-80994457D01*
X103326974Y-81014448D01*
X103313090Y-81033168D01*
X103297438Y-81050438D01*
X103280168Y-81066090D01*
X103261448Y-81079974D01*
X103241457Y-81091956D01*
X103220387Y-81101921D01*
X103198443Y-81109773D01*
X103175834Y-81115437D01*
X103152779Y-81118856D01*
X103129500Y-81120000D01*
X102554500Y-81120000D01*
X102531221Y-81118856D01*
X102508166Y-81115437D01*
X102485557Y-81109773D01*
X102463613Y-81101921D01*
X102442543Y-81091956D01*
X102422552Y-81079974D01*
X102403832Y-81066090D01*
X102386562Y-81050438D01*
X102370910Y-81033168D01*
X102357026Y-81014448D01*
X102345044Y-80994457D01*
X102335079Y-80973387D01*
X102327227Y-80951443D01*
X102321563Y-80928834D01*
X102318144Y-80905779D01*
X102317000Y-80882500D01*
X102317000Y-80407500D01*
X102318144Y-80384221D01*
X102321563Y-80361166D01*
X102327227Y-80338557D01*
X102335079Y-80316613D01*
X102345044Y-80295543D01*
X102357026Y-80275552D01*
X102370910Y-80256832D01*
X102386562Y-80239562D01*
X102403832Y-80223910D01*
X102422552Y-80210026D01*
X102442543Y-80198044D01*
X102463613Y-80188079D01*
X102485557Y-80180227D01*
X102508166Y-80174563D01*
X102531221Y-80171144D01*
X102554500Y-80170000D01*
X103129500Y-80170000D01*
X103152779Y-80171144D01*
G37*
G36*
X104273779Y-134413644D02*
G01*
X104296834Y-134417063D01*
X104319443Y-134422727D01*
X104341387Y-134430579D01*
X104362457Y-134440544D01*
X104382448Y-134452526D01*
X104401168Y-134466410D01*
X104418438Y-134482062D01*
X104434090Y-134499332D01*
X104447974Y-134518052D01*
X104459956Y-134538043D01*
X104469921Y-134559113D01*
X104477773Y-134581057D01*
X104483437Y-134603666D01*
X104486856Y-134626721D01*
X104488000Y-134650000D01*
X104488000Y-135225000D01*
X104486856Y-135248279D01*
X104483437Y-135271334D01*
X104477773Y-135293943D01*
X104469921Y-135315887D01*
X104459956Y-135336957D01*
X104447974Y-135356948D01*
X104434090Y-135375668D01*
X104418438Y-135392938D01*
X104401168Y-135408590D01*
X104382448Y-135422474D01*
X104362457Y-135434456D01*
X104341387Y-135444421D01*
X104319443Y-135452273D01*
X104296834Y-135457937D01*
X104273779Y-135461356D01*
X104250500Y-135462500D01*
X103775500Y-135462500D01*
X103752221Y-135461356D01*
X103729166Y-135457937D01*
X103706557Y-135452273D01*
X103684613Y-135444421D01*
X103663543Y-135434456D01*
X103643552Y-135422474D01*
X103624832Y-135408590D01*
X103607562Y-135392938D01*
X103591910Y-135375668D01*
X103578026Y-135356948D01*
X103566044Y-135336957D01*
X103556079Y-135315887D01*
X103548227Y-135293943D01*
X103542563Y-135271334D01*
X103539144Y-135248279D01*
X103538000Y-135225000D01*
X103538000Y-134650000D01*
X103539144Y-134626721D01*
X103542563Y-134603666D01*
X103548227Y-134581057D01*
X103556079Y-134559113D01*
X103566044Y-134538043D01*
X103578026Y-134518052D01*
X103591910Y-134499332D01*
X103607562Y-134482062D01*
X103624832Y-134466410D01*
X103643552Y-134452526D01*
X103663543Y-134440544D01*
X103684613Y-134430579D01*
X103706557Y-134422727D01*
X103729166Y-134417063D01*
X103752221Y-134413644D01*
X103775500Y-134412500D01*
X104250500Y-134412500D01*
X104273779Y-134413644D01*
G37*
G36*
X104273779Y-136163644D02*
G01*
X104296834Y-136167063D01*
X104319443Y-136172727D01*
X104341387Y-136180579D01*
X104362457Y-136190544D01*
X104382448Y-136202526D01*
X104401168Y-136216410D01*
X104418438Y-136232062D01*
X104434090Y-136249332D01*
X104447974Y-136268052D01*
X104459956Y-136288043D01*
X104469921Y-136309113D01*
X104477773Y-136331057D01*
X104483437Y-136353666D01*
X104486856Y-136376721D01*
X104488000Y-136400000D01*
X104488000Y-136975000D01*
X104486856Y-136998279D01*
X104483437Y-137021334D01*
X104477773Y-137043943D01*
X104469921Y-137065887D01*
X104459956Y-137086957D01*
X104447974Y-137106948D01*
X104434090Y-137125668D01*
X104418438Y-137142938D01*
X104401168Y-137158590D01*
X104382448Y-137172474D01*
X104362457Y-137184456D01*
X104341387Y-137194421D01*
X104319443Y-137202273D01*
X104296834Y-137207937D01*
X104273779Y-137211356D01*
X104250500Y-137212500D01*
X103775500Y-137212500D01*
X103752221Y-137211356D01*
X103729166Y-137207937D01*
X103706557Y-137202273D01*
X103684613Y-137194421D01*
X103663543Y-137184456D01*
X103643552Y-137172474D01*
X103624832Y-137158590D01*
X103607562Y-137142938D01*
X103591910Y-137125668D01*
X103578026Y-137106948D01*
X103566044Y-137086957D01*
X103556079Y-137065887D01*
X103548227Y-137043943D01*
X103542563Y-137021334D01*
X103539144Y-136998279D01*
X103538000Y-136975000D01*
X103538000Y-136400000D01*
X103539144Y-136376721D01*
X103542563Y-136353666D01*
X103548227Y-136331057D01*
X103556079Y-136309113D01*
X103566044Y-136288043D01*
X103578026Y-136268052D01*
X103591910Y-136249332D01*
X103607562Y-136232062D01*
X103624832Y-136216410D01*
X103643552Y-136202526D01*
X103663543Y-136190544D01*
X103684613Y-136180579D01*
X103706557Y-136172727D01*
X103729166Y-136167063D01*
X103752221Y-136163644D01*
X103775500Y-136162500D01*
X104250500Y-136162500D01*
X104273779Y-136163644D01*
G37*
G36*
X103130779Y-83853644D02*
G01*
X103153834Y-83857063D01*
X103176443Y-83862727D01*
X103198387Y-83870579D01*
X103219457Y-83880544D01*
X103239448Y-83892526D01*
X103258168Y-83906410D01*
X103275438Y-83922062D01*
X103291090Y-83939332D01*
X103304974Y-83958052D01*
X103316956Y-83978043D01*
X103326921Y-83999113D01*
X103334773Y-84021057D01*
X103340437Y-84043666D01*
X103343856Y-84066721D01*
X103345000Y-84090000D01*
X103345000Y-84665000D01*
X103343856Y-84688279D01*
X103340437Y-84711334D01*
X103334773Y-84733943D01*
X103326921Y-84755887D01*
X103316956Y-84776957D01*
X103304974Y-84796948D01*
X103291090Y-84815668D01*
X103275438Y-84832938D01*
X103258168Y-84848590D01*
X103239448Y-84862474D01*
X103219457Y-84874456D01*
X103198387Y-84884421D01*
X103176443Y-84892273D01*
X103153834Y-84897937D01*
X103130779Y-84901356D01*
X103107500Y-84902500D01*
X102632500Y-84902500D01*
X102609221Y-84901356D01*
X102586166Y-84897937D01*
X102563557Y-84892273D01*
X102541613Y-84884421D01*
X102520543Y-84874456D01*
X102500552Y-84862474D01*
X102481832Y-84848590D01*
X102464562Y-84832938D01*
X102448910Y-84815668D01*
X102435026Y-84796948D01*
X102423044Y-84776957D01*
X102413079Y-84755887D01*
X102405227Y-84733943D01*
X102399563Y-84711334D01*
X102396144Y-84688279D01*
X102395000Y-84665000D01*
X102395000Y-84090000D01*
X102396144Y-84066721D01*
X102399563Y-84043666D01*
X102405227Y-84021057D01*
X102413079Y-83999113D01*
X102423044Y-83978043D01*
X102435026Y-83958052D01*
X102448910Y-83939332D01*
X102464562Y-83922062D01*
X102481832Y-83906410D01*
X102500552Y-83892526D01*
X102520543Y-83880544D01*
X102541613Y-83870579D01*
X102563557Y-83862727D01*
X102586166Y-83857063D01*
X102609221Y-83853644D01*
X102632500Y-83852500D01*
X103107500Y-83852500D01*
X103130779Y-83853644D01*
G37*
G36*
X103130779Y-82103644D02*
G01*
X103153834Y-82107063D01*
X103176443Y-82112727D01*
X103198387Y-82120579D01*
X103219457Y-82130544D01*
X103239448Y-82142526D01*
X103258168Y-82156410D01*
X103275438Y-82172062D01*
X103291090Y-82189332D01*
X103304974Y-82208052D01*
X103316956Y-82228043D01*
X103326921Y-82249113D01*
X103334773Y-82271057D01*
X103340437Y-82293666D01*
X103343856Y-82316721D01*
X103345000Y-82340000D01*
X103345000Y-82915000D01*
X103343856Y-82938279D01*
X103340437Y-82961334D01*
X103334773Y-82983943D01*
X103326921Y-83005887D01*
X103316956Y-83026957D01*
X103304974Y-83046948D01*
X103291090Y-83065668D01*
X103275438Y-83082938D01*
X103258168Y-83098590D01*
X103239448Y-83112474D01*
X103219457Y-83124456D01*
X103198387Y-83134421D01*
X103176443Y-83142273D01*
X103153834Y-83147937D01*
X103130779Y-83151356D01*
X103107500Y-83152500D01*
X102632500Y-83152500D01*
X102609221Y-83151356D01*
X102586166Y-83147937D01*
X102563557Y-83142273D01*
X102541613Y-83134421D01*
X102520543Y-83124456D01*
X102500552Y-83112474D01*
X102481832Y-83098590D01*
X102464562Y-83082938D01*
X102448910Y-83065668D01*
X102435026Y-83046948D01*
X102423044Y-83026957D01*
X102413079Y-83005887D01*
X102405227Y-82983943D01*
X102399563Y-82961334D01*
X102396144Y-82938279D01*
X102395000Y-82915000D01*
X102395000Y-82340000D01*
X102396144Y-82316721D01*
X102399563Y-82293666D01*
X102405227Y-82271057D01*
X102413079Y-82249113D01*
X102423044Y-82228043D01*
X102435026Y-82208052D01*
X102448910Y-82189332D01*
X102464562Y-82172062D01*
X102481832Y-82156410D01*
X102500552Y-82142526D01*
X102520543Y-82130544D01*
X102541613Y-82120579D01*
X102563557Y-82112727D01*
X102586166Y-82107063D01*
X102609221Y-82103644D01*
X102632500Y-82102500D01*
X103107500Y-82102500D01*
X103130779Y-82103644D01*
G37*
G36*
X96414279Y-138210144D02*
G01*
X96437334Y-138213563D01*
X96459943Y-138219227D01*
X96481887Y-138227079D01*
X96502957Y-138237044D01*
X96522948Y-138249026D01*
X96541668Y-138262910D01*
X96558938Y-138278562D01*
X96574590Y-138295832D01*
X96588474Y-138314552D01*
X96600456Y-138334543D01*
X96610421Y-138355613D01*
X96618273Y-138377557D01*
X96623937Y-138400166D01*
X96627356Y-138423221D01*
X96628500Y-138446500D01*
X96628500Y-138921500D01*
X96627356Y-138944779D01*
X96623937Y-138967834D01*
X96618273Y-138990443D01*
X96610421Y-139012387D01*
X96600456Y-139033457D01*
X96588474Y-139053448D01*
X96574590Y-139072168D01*
X96558938Y-139089438D01*
X96541668Y-139105090D01*
X96522948Y-139118974D01*
X96502957Y-139130956D01*
X96481887Y-139140921D01*
X96459943Y-139148773D01*
X96437334Y-139154437D01*
X96414279Y-139157856D01*
X96391000Y-139159000D01*
X95816000Y-139159000D01*
X95792721Y-139157856D01*
X95769666Y-139154437D01*
X95747057Y-139148773D01*
X95725113Y-139140921D01*
X95704043Y-139130956D01*
X95684052Y-139118974D01*
X95665332Y-139105090D01*
X95648062Y-139089438D01*
X95632410Y-139072168D01*
X95618526Y-139053448D01*
X95606544Y-139033457D01*
X95596579Y-139012387D01*
X95588727Y-138990443D01*
X95583063Y-138967834D01*
X95579644Y-138944779D01*
X95578500Y-138921500D01*
X95578500Y-138446500D01*
X95579644Y-138423221D01*
X95583063Y-138400166D01*
X95588727Y-138377557D01*
X95596579Y-138355613D01*
X95606544Y-138334543D01*
X95618526Y-138314552D01*
X95632410Y-138295832D01*
X95648062Y-138278562D01*
X95665332Y-138262910D01*
X95684052Y-138249026D01*
X95704043Y-138237044D01*
X95725113Y-138227079D01*
X95747057Y-138219227D01*
X95769666Y-138213563D01*
X95792721Y-138210144D01*
X95816000Y-138209000D01*
X96391000Y-138209000D01*
X96414279Y-138210144D01*
G37*
G36*
X98164279Y-138210144D02*
G01*
X98187334Y-138213563D01*
X98209943Y-138219227D01*
X98231887Y-138227079D01*
X98252957Y-138237044D01*
X98272948Y-138249026D01*
X98291668Y-138262910D01*
X98308938Y-138278562D01*
X98324590Y-138295832D01*
X98338474Y-138314552D01*
X98350456Y-138334543D01*
X98360421Y-138355613D01*
X98368273Y-138377557D01*
X98373937Y-138400166D01*
X98377356Y-138423221D01*
X98378500Y-138446500D01*
X98378500Y-138921500D01*
X98377356Y-138944779D01*
X98373937Y-138967834D01*
X98368273Y-138990443D01*
X98360421Y-139012387D01*
X98350456Y-139033457D01*
X98338474Y-139053448D01*
X98324590Y-139072168D01*
X98308938Y-139089438D01*
X98291668Y-139105090D01*
X98272948Y-139118974D01*
X98252957Y-139130956D01*
X98231887Y-139140921D01*
X98209943Y-139148773D01*
X98187334Y-139154437D01*
X98164279Y-139157856D01*
X98141000Y-139159000D01*
X97566000Y-139159000D01*
X97542721Y-139157856D01*
X97519666Y-139154437D01*
X97497057Y-139148773D01*
X97475113Y-139140921D01*
X97454043Y-139130956D01*
X97434052Y-139118974D01*
X97415332Y-139105090D01*
X97398062Y-139089438D01*
X97382410Y-139072168D01*
X97368526Y-139053448D01*
X97356544Y-139033457D01*
X97346579Y-139012387D01*
X97338727Y-138990443D01*
X97333063Y-138967834D01*
X97329644Y-138944779D01*
X97328500Y-138921500D01*
X97328500Y-138446500D01*
X97329644Y-138423221D01*
X97333063Y-138400166D01*
X97338727Y-138377557D01*
X97346579Y-138355613D01*
X97356544Y-138334543D01*
X97368526Y-138314552D01*
X97382410Y-138295832D01*
X97398062Y-138278562D01*
X97415332Y-138262910D01*
X97434052Y-138249026D01*
X97454043Y-138237044D01*
X97475113Y-138227079D01*
X97497057Y-138219227D01*
X97519666Y-138213563D01*
X97542721Y-138210144D01*
X97566000Y-138209000D01*
X98141000Y-138209000D01*
X98164279Y-138210144D01*
G37*
G36*
X95278779Y-80171144D02*
G01*
X95301834Y-80174563D01*
X95324443Y-80180227D01*
X95346387Y-80188079D01*
X95367457Y-80198044D01*
X95387448Y-80210026D01*
X95406168Y-80223910D01*
X95423438Y-80239562D01*
X95439090Y-80256832D01*
X95452974Y-80275552D01*
X95464956Y-80295543D01*
X95474921Y-80316613D01*
X95482773Y-80338557D01*
X95488437Y-80361166D01*
X95491856Y-80384221D01*
X95493000Y-80407500D01*
X95493000Y-80882500D01*
X95491856Y-80905779D01*
X95488437Y-80928834D01*
X95482773Y-80951443D01*
X95474921Y-80973387D01*
X95464956Y-80994457D01*
X95452974Y-81014448D01*
X95439090Y-81033168D01*
X95423438Y-81050438D01*
X95406168Y-81066090D01*
X95387448Y-81079974D01*
X95367457Y-81091956D01*
X95346387Y-81101921D01*
X95324443Y-81109773D01*
X95301834Y-81115437D01*
X95278779Y-81118856D01*
X95255500Y-81120000D01*
X94680500Y-81120000D01*
X94657221Y-81118856D01*
X94634166Y-81115437D01*
X94611557Y-81109773D01*
X94589613Y-81101921D01*
X94568543Y-81091956D01*
X94548552Y-81079974D01*
X94529832Y-81066090D01*
X94512562Y-81050438D01*
X94496910Y-81033168D01*
X94483026Y-81014448D01*
X94471044Y-80994457D01*
X94461079Y-80973387D01*
X94453227Y-80951443D01*
X94447563Y-80928834D01*
X94444144Y-80905779D01*
X94443000Y-80882500D01*
X94443000Y-80407500D01*
X94444144Y-80384221D01*
X94447563Y-80361166D01*
X94453227Y-80338557D01*
X94461079Y-80316613D01*
X94471044Y-80295543D01*
X94483026Y-80275552D01*
X94496910Y-80256832D01*
X94512562Y-80239562D01*
X94529832Y-80223910D01*
X94548552Y-80210026D01*
X94568543Y-80198044D01*
X94589613Y-80188079D01*
X94611557Y-80180227D01*
X94634166Y-80174563D01*
X94657221Y-80171144D01*
X94680500Y-80170000D01*
X95255500Y-80170000D01*
X95278779Y-80171144D01*
G37*
G36*
X93528779Y-80171144D02*
G01*
X93551834Y-80174563D01*
X93574443Y-80180227D01*
X93596387Y-80188079D01*
X93617457Y-80198044D01*
X93637448Y-80210026D01*
X93656168Y-80223910D01*
X93673438Y-80239562D01*
X93689090Y-80256832D01*
X93702974Y-80275552D01*
X93714956Y-80295543D01*
X93724921Y-80316613D01*
X93732773Y-80338557D01*
X93738437Y-80361166D01*
X93741856Y-80384221D01*
X93743000Y-80407500D01*
X93743000Y-80882500D01*
X93741856Y-80905779D01*
X93738437Y-80928834D01*
X93732773Y-80951443D01*
X93724921Y-80973387D01*
X93714956Y-80994457D01*
X93702974Y-81014448D01*
X93689090Y-81033168D01*
X93673438Y-81050438D01*
X93656168Y-81066090D01*
X93637448Y-81079974D01*
X93617457Y-81091956D01*
X93596387Y-81101921D01*
X93574443Y-81109773D01*
X93551834Y-81115437D01*
X93528779Y-81118856D01*
X93505500Y-81120000D01*
X92930500Y-81120000D01*
X92907221Y-81118856D01*
X92884166Y-81115437D01*
X92861557Y-81109773D01*
X92839613Y-81101921D01*
X92818543Y-81091956D01*
X92798552Y-81079974D01*
X92779832Y-81066090D01*
X92762562Y-81050438D01*
X92746910Y-81033168D01*
X92733026Y-81014448D01*
X92721044Y-80994457D01*
X92711079Y-80973387D01*
X92703227Y-80951443D01*
X92697563Y-80928834D01*
X92694144Y-80905779D01*
X92693000Y-80882500D01*
X92693000Y-80407500D01*
X92694144Y-80384221D01*
X92697563Y-80361166D01*
X92703227Y-80338557D01*
X92711079Y-80316613D01*
X92721044Y-80295543D01*
X92733026Y-80275552D01*
X92746910Y-80256832D01*
X92762562Y-80239562D01*
X92779832Y-80223910D01*
X92798552Y-80210026D01*
X92818543Y-80198044D01*
X92839613Y-80188079D01*
X92861557Y-80180227D01*
X92884166Y-80174563D01*
X92907221Y-80171144D01*
X92930500Y-80170000D01*
X93505500Y-80170000D01*
X93528779Y-80171144D01*
G37*
G36*
X96336279Y-134427644D02*
G01*
X96359334Y-134431063D01*
X96381943Y-134436727D01*
X96403887Y-134444579D01*
X96424957Y-134454544D01*
X96444948Y-134466526D01*
X96463668Y-134480410D01*
X96480938Y-134496062D01*
X96496590Y-134513332D01*
X96510474Y-134532052D01*
X96522456Y-134552043D01*
X96532421Y-134573113D01*
X96540273Y-134595057D01*
X96545937Y-134617666D01*
X96549356Y-134640721D01*
X96550500Y-134664000D01*
X96550500Y-135239000D01*
X96549356Y-135262279D01*
X96545937Y-135285334D01*
X96540273Y-135307943D01*
X96532421Y-135329887D01*
X96522456Y-135350957D01*
X96510474Y-135370948D01*
X96496590Y-135389668D01*
X96480938Y-135406938D01*
X96463668Y-135422590D01*
X96444948Y-135436474D01*
X96424957Y-135448456D01*
X96403887Y-135458421D01*
X96381943Y-135466273D01*
X96359334Y-135471937D01*
X96336279Y-135475356D01*
X96313000Y-135476500D01*
X95838000Y-135476500D01*
X95814721Y-135475356D01*
X95791666Y-135471937D01*
X95769057Y-135466273D01*
X95747113Y-135458421D01*
X95726043Y-135448456D01*
X95706052Y-135436474D01*
X95687332Y-135422590D01*
X95670062Y-135406938D01*
X95654410Y-135389668D01*
X95640526Y-135370948D01*
X95628544Y-135350957D01*
X95618579Y-135329887D01*
X95610727Y-135307943D01*
X95605063Y-135285334D01*
X95601644Y-135262279D01*
X95600500Y-135239000D01*
X95600500Y-134664000D01*
X95601644Y-134640721D01*
X95605063Y-134617666D01*
X95610727Y-134595057D01*
X95618579Y-134573113D01*
X95628544Y-134552043D01*
X95640526Y-134532052D01*
X95654410Y-134513332D01*
X95670062Y-134496062D01*
X95687332Y-134480410D01*
X95706052Y-134466526D01*
X95726043Y-134454544D01*
X95747113Y-134444579D01*
X95769057Y-134436727D01*
X95791666Y-134431063D01*
X95814721Y-134427644D01*
X95838000Y-134426500D01*
X96313000Y-134426500D01*
X96336279Y-134427644D01*
G37*
G36*
X96336279Y-136177644D02*
G01*
X96359334Y-136181063D01*
X96381943Y-136186727D01*
X96403887Y-136194579D01*
X96424957Y-136204544D01*
X96444948Y-136216526D01*
X96463668Y-136230410D01*
X96480938Y-136246062D01*
X96496590Y-136263332D01*
X96510474Y-136282052D01*
X96522456Y-136302043D01*
X96532421Y-136323113D01*
X96540273Y-136345057D01*
X96545937Y-136367666D01*
X96549356Y-136390721D01*
X96550500Y-136414000D01*
X96550500Y-136989000D01*
X96549356Y-137012279D01*
X96545937Y-137035334D01*
X96540273Y-137057943D01*
X96532421Y-137079887D01*
X96522456Y-137100957D01*
X96510474Y-137120948D01*
X96496590Y-137139668D01*
X96480938Y-137156938D01*
X96463668Y-137172590D01*
X96444948Y-137186474D01*
X96424957Y-137198456D01*
X96403887Y-137208421D01*
X96381943Y-137216273D01*
X96359334Y-137221937D01*
X96336279Y-137225356D01*
X96313000Y-137226500D01*
X95838000Y-137226500D01*
X95814721Y-137225356D01*
X95791666Y-137221937D01*
X95769057Y-137216273D01*
X95747113Y-137208421D01*
X95726043Y-137198456D01*
X95706052Y-137186474D01*
X95687332Y-137172590D01*
X95670062Y-137156938D01*
X95654410Y-137139668D01*
X95640526Y-137120948D01*
X95628544Y-137100957D01*
X95618579Y-137079887D01*
X95610727Y-137057943D01*
X95605063Y-137035334D01*
X95601644Y-137012279D01*
X95600500Y-136989000D01*
X95600500Y-136414000D01*
X95601644Y-136390721D01*
X95605063Y-136367666D01*
X95610727Y-136345057D01*
X95618579Y-136323113D01*
X95628544Y-136302043D01*
X95640526Y-136282052D01*
X95654410Y-136263332D01*
X95670062Y-136246062D01*
X95687332Y-136230410D01*
X95706052Y-136216526D01*
X95726043Y-136204544D01*
X95747113Y-136194579D01*
X95769057Y-136186727D01*
X95791666Y-136181063D01*
X95814721Y-136177644D01*
X95838000Y-136176500D01*
X96313000Y-136176500D01*
X96336279Y-136177644D01*
G37*
G36*
X95256779Y-83853644D02*
G01*
X95279834Y-83857063D01*
X95302443Y-83862727D01*
X95324387Y-83870579D01*
X95345457Y-83880544D01*
X95365448Y-83892526D01*
X95384168Y-83906410D01*
X95401438Y-83922062D01*
X95417090Y-83939332D01*
X95430974Y-83958052D01*
X95442956Y-83978043D01*
X95452921Y-83999113D01*
X95460773Y-84021057D01*
X95466437Y-84043666D01*
X95469856Y-84066721D01*
X95471000Y-84090000D01*
X95471000Y-84665000D01*
X95469856Y-84688279D01*
X95466437Y-84711334D01*
X95460773Y-84733943D01*
X95452921Y-84755887D01*
X95442956Y-84776957D01*
X95430974Y-84796948D01*
X95417090Y-84815668D01*
X95401438Y-84832938D01*
X95384168Y-84848590D01*
X95365448Y-84862474D01*
X95345457Y-84874456D01*
X95324387Y-84884421D01*
X95302443Y-84892273D01*
X95279834Y-84897937D01*
X95256779Y-84901356D01*
X95233500Y-84902500D01*
X94758500Y-84902500D01*
X94735221Y-84901356D01*
X94712166Y-84897937D01*
X94689557Y-84892273D01*
X94667613Y-84884421D01*
X94646543Y-84874456D01*
X94626552Y-84862474D01*
X94607832Y-84848590D01*
X94590562Y-84832938D01*
X94574910Y-84815668D01*
X94561026Y-84796948D01*
X94549044Y-84776957D01*
X94539079Y-84755887D01*
X94531227Y-84733943D01*
X94525563Y-84711334D01*
X94522144Y-84688279D01*
X94521000Y-84665000D01*
X94521000Y-84090000D01*
X94522144Y-84066721D01*
X94525563Y-84043666D01*
X94531227Y-84021057D01*
X94539079Y-83999113D01*
X94549044Y-83978043D01*
X94561026Y-83958052D01*
X94574910Y-83939332D01*
X94590562Y-83922062D01*
X94607832Y-83906410D01*
X94626552Y-83892526D01*
X94646543Y-83880544D01*
X94667613Y-83870579D01*
X94689557Y-83862727D01*
X94712166Y-83857063D01*
X94735221Y-83853644D01*
X94758500Y-83852500D01*
X95233500Y-83852500D01*
X95256779Y-83853644D01*
G37*
G36*
X95256779Y-82103644D02*
G01*
X95279834Y-82107063D01*
X95302443Y-82112727D01*
X95324387Y-82120579D01*
X95345457Y-82130544D01*
X95365448Y-82142526D01*
X95384168Y-82156410D01*
X95401438Y-82172062D01*
X95417090Y-82189332D01*
X95430974Y-82208052D01*
X95442956Y-82228043D01*
X95452921Y-82249113D01*
X95460773Y-82271057D01*
X95466437Y-82293666D01*
X95469856Y-82316721D01*
X95471000Y-82340000D01*
X95471000Y-82915000D01*
X95469856Y-82938279D01*
X95466437Y-82961334D01*
X95460773Y-82983943D01*
X95452921Y-83005887D01*
X95442956Y-83026957D01*
X95430974Y-83046948D01*
X95417090Y-83065668D01*
X95401438Y-83082938D01*
X95384168Y-83098590D01*
X95365448Y-83112474D01*
X95345457Y-83124456D01*
X95324387Y-83134421D01*
X95302443Y-83142273D01*
X95279834Y-83147937D01*
X95256779Y-83151356D01*
X95233500Y-83152500D01*
X94758500Y-83152500D01*
X94735221Y-83151356D01*
X94712166Y-83147937D01*
X94689557Y-83142273D01*
X94667613Y-83134421D01*
X94646543Y-83124456D01*
X94626552Y-83112474D01*
X94607832Y-83098590D01*
X94590562Y-83082938D01*
X94574910Y-83065668D01*
X94561026Y-83046948D01*
X94549044Y-83026957D01*
X94539079Y-83005887D01*
X94531227Y-82983943D01*
X94525563Y-82961334D01*
X94522144Y-82938279D01*
X94521000Y-82915000D01*
X94521000Y-82340000D01*
X94522144Y-82316721D01*
X94525563Y-82293666D01*
X94531227Y-82271057D01*
X94539079Y-82249113D01*
X94549044Y-82228043D01*
X94561026Y-82208052D01*
X94574910Y-82189332D01*
X94590562Y-82172062D01*
X94607832Y-82156410D01*
X94626552Y-82142526D01*
X94646543Y-82130544D01*
X94667613Y-82120579D01*
X94689557Y-82112727D01*
X94712166Y-82107063D01*
X94735221Y-82103644D01*
X94758500Y-82102500D01*
X95233500Y-82102500D01*
X95256779Y-82103644D01*
G37*
G36*
X146066079Y-109762144D02*
G01*
X146089134Y-109765563D01*
X146111743Y-109771227D01*
X146133687Y-109779079D01*
X146154757Y-109789044D01*
X146174748Y-109801026D01*
X146193468Y-109814910D01*
X146210738Y-109830562D01*
X146226390Y-109847832D01*
X146240274Y-109866552D01*
X146252256Y-109886543D01*
X146262221Y-109907613D01*
X146270073Y-109929557D01*
X146275737Y-109952166D01*
X146279156Y-109975221D01*
X146280300Y-109998500D01*
X146280300Y-110473500D01*
X146279156Y-110496779D01*
X146275737Y-110519834D01*
X146270073Y-110542443D01*
X146262221Y-110564387D01*
X146252256Y-110585457D01*
X146240274Y-110605448D01*
X146226390Y-110624168D01*
X146210738Y-110641438D01*
X146193468Y-110657090D01*
X146174748Y-110670974D01*
X146154757Y-110682956D01*
X146133687Y-110692921D01*
X146111743Y-110700773D01*
X146089134Y-110706437D01*
X146066079Y-110709856D01*
X146042800Y-110711000D01*
X145467800Y-110711000D01*
X145444521Y-110709856D01*
X145421466Y-110706437D01*
X145398857Y-110700773D01*
X145376913Y-110692921D01*
X145355843Y-110682956D01*
X145335852Y-110670974D01*
X145317132Y-110657090D01*
X145299862Y-110641438D01*
X145284210Y-110624168D01*
X145270326Y-110605448D01*
X145258344Y-110585457D01*
X145248379Y-110564387D01*
X145240527Y-110542443D01*
X145234863Y-110519834D01*
X145231444Y-110496779D01*
X145230300Y-110473500D01*
X145230300Y-109998500D01*
X145231444Y-109975221D01*
X145234863Y-109952166D01*
X145240527Y-109929557D01*
X145248379Y-109907613D01*
X145258344Y-109886543D01*
X145270326Y-109866552D01*
X145284210Y-109847832D01*
X145299862Y-109830562D01*
X145317132Y-109814910D01*
X145335852Y-109801026D01*
X145355843Y-109789044D01*
X145376913Y-109779079D01*
X145398857Y-109771227D01*
X145421466Y-109765563D01*
X145444521Y-109762144D01*
X145467800Y-109761000D01*
X146042800Y-109761000D01*
X146066079Y-109762144D01*
G37*
G36*
X144316079Y-109762144D02*
G01*
X144339134Y-109765563D01*
X144361743Y-109771227D01*
X144383687Y-109779079D01*
X144404757Y-109789044D01*
X144424748Y-109801026D01*
X144443468Y-109814910D01*
X144460738Y-109830562D01*
X144476390Y-109847832D01*
X144490274Y-109866552D01*
X144502256Y-109886543D01*
X144512221Y-109907613D01*
X144520073Y-109929557D01*
X144525737Y-109952166D01*
X144529156Y-109975221D01*
X144530300Y-109998500D01*
X144530300Y-110473500D01*
X144529156Y-110496779D01*
X144525737Y-110519834D01*
X144520073Y-110542443D01*
X144512221Y-110564387D01*
X144502256Y-110585457D01*
X144490274Y-110605448D01*
X144476390Y-110624168D01*
X144460738Y-110641438D01*
X144443468Y-110657090D01*
X144424748Y-110670974D01*
X144404757Y-110682956D01*
X144383687Y-110692921D01*
X144361743Y-110700773D01*
X144339134Y-110706437D01*
X144316079Y-110709856D01*
X144292800Y-110711000D01*
X143717800Y-110711000D01*
X143694521Y-110709856D01*
X143671466Y-110706437D01*
X143648857Y-110700773D01*
X143626913Y-110692921D01*
X143605843Y-110682956D01*
X143585852Y-110670974D01*
X143567132Y-110657090D01*
X143549862Y-110641438D01*
X143534210Y-110624168D01*
X143520326Y-110605448D01*
X143508344Y-110585457D01*
X143498379Y-110564387D01*
X143490527Y-110542443D01*
X143484863Y-110519834D01*
X143481444Y-110496779D01*
X143480300Y-110473500D01*
X143480300Y-109998500D01*
X143481444Y-109975221D01*
X143484863Y-109952166D01*
X143490527Y-109929557D01*
X143498379Y-109907613D01*
X143508344Y-109886543D01*
X143520326Y-109866552D01*
X143534210Y-109847832D01*
X143549862Y-109830562D01*
X143567132Y-109814910D01*
X143585852Y-109801026D01*
X143605843Y-109789044D01*
X143626913Y-109779079D01*
X143648857Y-109771227D01*
X143671466Y-109765563D01*
X143694521Y-109762144D01*
X143717800Y-109761000D01*
X144292800Y-109761000D01*
X144316079Y-109762144D01*
G37*
G36*
X144330079Y-113000644D02*
G01*
X144353134Y-113004063D01*
X144375743Y-113009727D01*
X144397687Y-113017579D01*
X144418757Y-113027544D01*
X144438748Y-113039526D01*
X144457468Y-113053410D01*
X144474738Y-113069062D01*
X144490390Y-113086332D01*
X144504274Y-113105052D01*
X144516256Y-113125043D01*
X144526221Y-113146113D01*
X144534073Y-113168057D01*
X144539737Y-113190666D01*
X144543156Y-113213721D01*
X144544300Y-113237000D01*
X144544300Y-113712000D01*
X144543156Y-113735279D01*
X144539737Y-113758334D01*
X144534073Y-113780943D01*
X144526221Y-113802887D01*
X144516256Y-113823957D01*
X144504274Y-113843948D01*
X144490390Y-113862668D01*
X144474738Y-113879938D01*
X144457468Y-113895590D01*
X144438748Y-113909474D01*
X144418757Y-113921456D01*
X144397687Y-113931421D01*
X144375743Y-113939273D01*
X144353134Y-113944937D01*
X144330079Y-113948356D01*
X144306800Y-113949500D01*
X143731800Y-113949500D01*
X143708521Y-113948356D01*
X143685466Y-113944937D01*
X143662857Y-113939273D01*
X143640913Y-113931421D01*
X143619843Y-113921456D01*
X143599852Y-113909474D01*
X143581132Y-113895590D01*
X143563862Y-113879938D01*
X143548210Y-113862668D01*
X143534326Y-113843948D01*
X143522344Y-113823957D01*
X143512379Y-113802887D01*
X143504527Y-113780943D01*
X143498863Y-113758334D01*
X143495444Y-113735279D01*
X143494300Y-113712000D01*
X143494300Y-113237000D01*
X143495444Y-113213721D01*
X143498863Y-113190666D01*
X143504527Y-113168057D01*
X143512379Y-113146113D01*
X143522344Y-113125043D01*
X143534326Y-113105052D01*
X143548210Y-113086332D01*
X143563862Y-113069062D01*
X143581132Y-113053410D01*
X143599852Y-113039526D01*
X143619843Y-113027544D01*
X143640913Y-113017579D01*
X143662857Y-113009727D01*
X143685466Y-113004063D01*
X143708521Y-113000644D01*
X143731800Y-112999500D01*
X144306800Y-112999500D01*
X144330079Y-113000644D01*
G37*
G36*
X146080079Y-113000644D02*
G01*
X146103134Y-113004063D01*
X146125743Y-113009727D01*
X146147687Y-113017579D01*
X146168757Y-113027544D01*
X146188748Y-113039526D01*
X146207468Y-113053410D01*
X146224738Y-113069062D01*
X146240390Y-113086332D01*
X146254274Y-113105052D01*
X146266256Y-113125043D01*
X146276221Y-113146113D01*
X146284073Y-113168057D01*
X146289737Y-113190666D01*
X146293156Y-113213721D01*
X146294300Y-113237000D01*
X146294300Y-113712000D01*
X146293156Y-113735279D01*
X146289737Y-113758334D01*
X146284073Y-113780943D01*
X146276221Y-113802887D01*
X146266256Y-113823957D01*
X146254274Y-113843948D01*
X146240390Y-113862668D01*
X146224738Y-113879938D01*
X146207468Y-113895590D01*
X146188748Y-113909474D01*
X146168757Y-113921456D01*
X146147687Y-113931421D01*
X146125743Y-113939273D01*
X146103134Y-113944937D01*
X146080079Y-113948356D01*
X146056800Y-113949500D01*
X145481800Y-113949500D01*
X145458521Y-113948356D01*
X145435466Y-113944937D01*
X145412857Y-113939273D01*
X145390913Y-113931421D01*
X145369843Y-113921456D01*
X145349852Y-113909474D01*
X145331132Y-113895590D01*
X145313862Y-113879938D01*
X145298210Y-113862668D01*
X145284326Y-113843948D01*
X145272344Y-113823957D01*
X145262379Y-113802887D01*
X145254527Y-113780943D01*
X145248863Y-113758334D01*
X145245444Y-113735279D01*
X145244300Y-113712000D01*
X145244300Y-113237000D01*
X145245444Y-113213721D01*
X145248863Y-113190666D01*
X145254527Y-113168057D01*
X145262379Y-113146113D01*
X145272344Y-113125043D01*
X145284326Y-113105052D01*
X145298210Y-113086332D01*
X145313862Y-113069062D01*
X145331132Y-113053410D01*
X145349852Y-113039526D01*
X145369843Y-113027544D01*
X145390913Y-113017579D01*
X145412857Y-113009727D01*
X145435466Y-113004063D01*
X145458521Y-113000644D01*
X145481800Y-112999500D01*
X146056800Y-112999500D01*
X146080079Y-113000644D01*
G37*
G36*
X144330079Y-116239144D02*
G01*
X144353134Y-116242563D01*
X144375743Y-116248227D01*
X144397687Y-116256079D01*
X144418757Y-116266044D01*
X144438748Y-116278026D01*
X144457468Y-116291910D01*
X144474738Y-116307562D01*
X144490390Y-116324832D01*
X144504274Y-116343552D01*
X144516256Y-116363543D01*
X144526221Y-116384613D01*
X144534073Y-116406557D01*
X144539737Y-116429166D01*
X144543156Y-116452221D01*
X144544300Y-116475500D01*
X144544300Y-116950500D01*
X144543156Y-116973779D01*
X144539737Y-116996834D01*
X144534073Y-117019443D01*
X144526221Y-117041387D01*
X144516256Y-117062457D01*
X144504274Y-117082448D01*
X144490390Y-117101168D01*
X144474738Y-117118438D01*
X144457468Y-117134090D01*
X144438748Y-117147974D01*
X144418757Y-117159956D01*
X144397687Y-117169921D01*
X144375743Y-117177773D01*
X144353134Y-117183437D01*
X144330079Y-117186856D01*
X144306800Y-117188000D01*
X143731800Y-117188000D01*
X143708521Y-117186856D01*
X143685466Y-117183437D01*
X143662857Y-117177773D01*
X143640913Y-117169921D01*
X143619843Y-117159956D01*
X143599852Y-117147974D01*
X143581132Y-117134090D01*
X143563862Y-117118438D01*
X143548210Y-117101168D01*
X143534326Y-117082448D01*
X143522344Y-117062457D01*
X143512379Y-117041387D01*
X143504527Y-117019443D01*
X143498863Y-116996834D01*
X143495444Y-116973779D01*
X143494300Y-116950500D01*
X143494300Y-116475500D01*
X143495444Y-116452221D01*
X143498863Y-116429166D01*
X143504527Y-116406557D01*
X143512379Y-116384613D01*
X143522344Y-116363543D01*
X143534326Y-116343552D01*
X143548210Y-116324832D01*
X143563862Y-116307562D01*
X143581132Y-116291910D01*
X143599852Y-116278026D01*
X143619843Y-116266044D01*
X143640913Y-116256079D01*
X143662857Y-116248227D01*
X143685466Y-116242563D01*
X143708521Y-116239144D01*
X143731800Y-116238000D01*
X144306800Y-116238000D01*
X144330079Y-116239144D01*
G37*
G36*
X146080079Y-116239144D02*
G01*
X146103134Y-116242563D01*
X146125743Y-116248227D01*
X146147687Y-116256079D01*
X146168757Y-116266044D01*
X146188748Y-116278026D01*
X146207468Y-116291910D01*
X146224738Y-116307562D01*
X146240390Y-116324832D01*
X146254274Y-116343552D01*
X146266256Y-116363543D01*
X146276221Y-116384613D01*
X146284073Y-116406557D01*
X146289737Y-116429166D01*
X146293156Y-116452221D01*
X146294300Y-116475500D01*
X146294300Y-116950500D01*
X146293156Y-116973779D01*
X146289737Y-116996834D01*
X146284073Y-117019443D01*
X146276221Y-117041387D01*
X146266256Y-117062457D01*
X146254274Y-117082448D01*
X146240390Y-117101168D01*
X146224738Y-117118438D01*
X146207468Y-117134090D01*
X146188748Y-117147974D01*
X146168757Y-117159956D01*
X146147687Y-117169921D01*
X146125743Y-117177773D01*
X146103134Y-117183437D01*
X146080079Y-117186856D01*
X146056800Y-117188000D01*
X145481800Y-117188000D01*
X145458521Y-117186856D01*
X145435466Y-117183437D01*
X145412857Y-117177773D01*
X145390913Y-117169921D01*
X145369843Y-117159956D01*
X145349852Y-117147974D01*
X145331132Y-117134090D01*
X145313862Y-117118438D01*
X145298210Y-117101168D01*
X145284326Y-117082448D01*
X145272344Y-117062457D01*
X145262379Y-117041387D01*
X145254527Y-117019443D01*
X145248863Y-116996834D01*
X145245444Y-116973779D01*
X145244300Y-116950500D01*
X145244300Y-116475500D01*
X145245444Y-116452221D01*
X145248863Y-116429166D01*
X145254527Y-116406557D01*
X145262379Y-116384613D01*
X145272344Y-116363543D01*
X145284326Y-116343552D01*
X145298210Y-116324832D01*
X145313862Y-116307562D01*
X145331132Y-116291910D01*
X145349852Y-116278026D01*
X145369843Y-116266044D01*
X145390913Y-116256079D01*
X145412857Y-116248227D01*
X145435466Y-116242563D01*
X145458521Y-116239144D01*
X145481800Y-116238000D01*
X146056800Y-116238000D01*
X146080079Y-116239144D01*
G37*
G36*
X146080079Y-119414144D02*
G01*
X146103134Y-119417563D01*
X146125743Y-119423227D01*
X146147687Y-119431079D01*
X146168757Y-119441044D01*
X146188748Y-119453026D01*
X146207468Y-119466910D01*
X146224738Y-119482562D01*
X146240390Y-119499832D01*
X146254274Y-119518552D01*
X146266256Y-119538543D01*
X146276221Y-119559613D01*
X146284073Y-119581557D01*
X146289737Y-119604166D01*
X146293156Y-119627221D01*
X146294300Y-119650500D01*
X146294300Y-120125500D01*
X146293156Y-120148779D01*
X146289737Y-120171834D01*
X146284073Y-120194443D01*
X146276221Y-120216387D01*
X146266256Y-120237457D01*
X146254274Y-120257448D01*
X146240390Y-120276168D01*
X146224738Y-120293438D01*
X146207468Y-120309090D01*
X146188748Y-120322974D01*
X146168757Y-120334956D01*
X146147687Y-120344921D01*
X146125743Y-120352773D01*
X146103134Y-120358437D01*
X146080079Y-120361856D01*
X146056800Y-120363000D01*
X145481800Y-120363000D01*
X145458521Y-120361856D01*
X145435466Y-120358437D01*
X145412857Y-120352773D01*
X145390913Y-120344921D01*
X145369843Y-120334956D01*
X145349852Y-120322974D01*
X145331132Y-120309090D01*
X145313862Y-120293438D01*
X145298210Y-120276168D01*
X145284326Y-120257448D01*
X145272344Y-120237457D01*
X145262379Y-120216387D01*
X145254527Y-120194443D01*
X145248863Y-120171834D01*
X145245444Y-120148779D01*
X145244300Y-120125500D01*
X145244300Y-119650500D01*
X145245444Y-119627221D01*
X145248863Y-119604166D01*
X145254527Y-119581557D01*
X145262379Y-119559613D01*
X145272344Y-119538543D01*
X145284326Y-119518552D01*
X145298210Y-119499832D01*
X145313862Y-119482562D01*
X145331132Y-119466910D01*
X145349852Y-119453026D01*
X145369843Y-119441044D01*
X145390913Y-119431079D01*
X145412857Y-119423227D01*
X145435466Y-119417563D01*
X145458521Y-119414144D01*
X145481800Y-119413000D01*
X146056800Y-119413000D01*
X146080079Y-119414144D01*
G37*
G36*
X144330079Y-119414144D02*
G01*
X144353134Y-119417563D01*
X144375743Y-119423227D01*
X144397687Y-119431079D01*
X144418757Y-119441044D01*
X144438748Y-119453026D01*
X144457468Y-119466910D01*
X144474738Y-119482562D01*
X144490390Y-119499832D01*
X144504274Y-119518552D01*
X144516256Y-119538543D01*
X144526221Y-119559613D01*
X144534073Y-119581557D01*
X144539737Y-119604166D01*
X144543156Y-119627221D01*
X144544300Y-119650500D01*
X144544300Y-120125500D01*
X144543156Y-120148779D01*
X144539737Y-120171834D01*
X144534073Y-120194443D01*
X144526221Y-120216387D01*
X144516256Y-120237457D01*
X144504274Y-120257448D01*
X144490390Y-120276168D01*
X144474738Y-120293438D01*
X144457468Y-120309090D01*
X144438748Y-120322974D01*
X144418757Y-120334956D01*
X144397687Y-120344921D01*
X144375743Y-120352773D01*
X144353134Y-120358437D01*
X144330079Y-120361856D01*
X144306800Y-120363000D01*
X143731800Y-120363000D01*
X143708521Y-120361856D01*
X143685466Y-120358437D01*
X143662857Y-120352773D01*
X143640913Y-120344921D01*
X143619843Y-120334956D01*
X143599852Y-120322974D01*
X143581132Y-120309090D01*
X143563862Y-120293438D01*
X143548210Y-120276168D01*
X143534326Y-120257448D01*
X143522344Y-120237457D01*
X143512379Y-120216387D01*
X143504527Y-120194443D01*
X143498863Y-120171834D01*
X143495444Y-120148779D01*
X143494300Y-120125500D01*
X143494300Y-119650500D01*
X143495444Y-119627221D01*
X143498863Y-119604166D01*
X143504527Y-119581557D01*
X143512379Y-119559613D01*
X143522344Y-119538543D01*
X143534326Y-119518552D01*
X143548210Y-119499832D01*
X143563862Y-119482562D01*
X143581132Y-119466910D01*
X143599852Y-119453026D01*
X143619843Y-119441044D01*
X143640913Y-119431079D01*
X143662857Y-119423227D01*
X143685466Y-119417563D01*
X143708521Y-119414144D01*
X143731800Y-119413000D01*
X144306800Y-119413000D01*
X144330079Y-119414144D01*
G37*
G36*
X146080079Y-106523644D02*
G01*
X146103134Y-106527063D01*
X146125743Y-106532727D01*
X146147687Y-106540579D01*
X146168757Y-106550544D01*
X146188748Y-106562526D01*
X146207468Y-106576410D01*
X146224738Y-106592062D01*
X146240390Y-106609332D01*
X146254274Y-106628052D01*
X146266256Y-106648043D01*
X146276221Y-106669113D01*
X146284073Y-106691057D01*
X146289737Y-106713666D01*
X146293156Y-106736721D01*
X146294300Y-106760000D01*
X146294300Y-107235000D01*
X146293156Y-107258279D01*
X146289737Y-107281334D01*
X146284073Y-107303943D01*
X146276221Y-107325887D01*
X146266256Y-107346957D01*
X146254274Y-107366948D01*
X146240390Y-107385668D01*
X146224738Y-107402938D01*
X146207468Y-107418590D01*
X146188748Y-107432474D01*
X146168757Y-107444456D01*
X146147687Y-107454421D01*
X146125743Y-107462273D01*
X146103134Y-107467937D01*
X146080079Y-107471356D01*
X146056800Y-107472500D01*
X145481800Y-107472500D01*
X145458521Y-107471356D01*
X145435466Y-107467937D01*
X145412857Y-107462273D01*
X145390913Y-107454421D01*
X145369843Y-107444456D01*
X145349852Y-107432474D01*
X145331132Y-107418590D01*
X145313862Y-107402938D01*
X145298210Y-107385668D01*
X145284326Y-107366948D01*
X145272344Y-107346957D01*
X145262379Y-107325887D01*
X145254527Y-107303943D01*
X145248863Y-107281334D01*
X145245444Y-107258279D01*
X145244300Y-107235000D01*
X145244300Y-106760000D01*
X145245444Y-106736721D01*
X145248863Y-106713666D01*
X145254527Y-106691057D01*
X145262379Y-106669113D01*
X145272344Y-106648043D01*
X145284326Y-106628052D01*
X145298210Y-106609332D01*
X145313862Y-106592062D01*
X145331132Y-106576410D01*
X145349852Y-106562526D01*
X145369843Y-106550544D01*
X145390913Y-106540579D01*
X145412857Y-106532727D01*
X145435466Y-106527063D01*
X145458521Y-106523644D01*
X145481800Y-106522500D01*
X146056800Y-106522500D01*
X146080079Y-106523644D01*
G37*
G36*
X144330079Y-106523644D02*
G01*
X144353134Y-106527063D01*
X144375743Y-106532727D01*
X144397687Y-106540579D01*
X144418757Y-106550544D01*
X144438748Y-106562526D01*
X144457468Y-106576410D01*
X144474738Y-106592062D01*
X144490390Y-106609332D01*
X144504274Y-106628052D01*
X144516256Y-106648043D01*
X144526221Y-106669113D01*
X144534073Y-106691057D01*
X144539737Y-106713666D01*
X144543156Y-106736721D01*
X144544300Y-106760000D01*
X144544300Y-107235000D01*
X144543156Y-107258279D01*
X144539737Y-107281334D01*
X144534073Y-107303943D01*
X144526221Y-107325887D01*
X144516256Y-107346957D01*
X144504274Y-107366948D01*
X144490390Y-107385668D01*
X144474738Y-107402938D01*
X144457468Y-107418590D01*
X144438748Y-107432474D01*
X144418757Y-107444456D01*
X144397687Y-107454421D01*
X144375743Y-107462273D01*
X144353134Y-107467937D01*
X144330079Y-107471356D01*
X144306800Y-107472500D01*
X143731800Y-107472500D01*
X143708521Y-107471356D01*
X143685466Y-107467937D01*
X143662857Y-107462273D01*
X143640913Y-107454421D01*
X143619843Y-107444456D01*
X143599852Y-107432474D01*
X143581132Y-107418590D01*
X143563862Y-107402938D01*
X143548210Y-107385668D01*
X143534326Y-107366948D01*
X143522344Y-107346957D01*
X143512379Y-107325887D01*
X143504527Y-107303943D01*
X143498863Y-107281334D01*
X143495444Y-107258279D01*
X143494300Y-107235000D01*
X143494300Y-106760000D01*
X143495444Y-106736721D01*
X143498863Y-106713666D01*
X143504527Y-106691057D01*
X143512379Y-106669113D01*
X143522344Y-106648043D01*
X143534326Y-106628052D01*
X143548210Y-106609332D01*
X143563862Y-106592062D01*
X143581132Y-106576410D01*
X143599852Y-106562526D01*
X143619843Y-106550544D01*
X143640913Y-106540579D01*
X143662857Y-106532727D01*
X143685466Y-106527063D01*
X143708521Y-106523644D01*
X143731800Y-106522500D01*
X144306800Y-106522500D01*
X144330079Y-106523644D01*
G37*
G36*
X146080079Y-122525644D02*
G01*
X146103134Y-122529063D01*
X146125743Y-122534727D01*
X146147687Y-122542579D01*
X146168757Y-122552544D01*
X146188748Y-122564526D01*
X146207468Y-122578410D01*
X146224738Y-122594062D01*
X146240390Y-122611332D01*
X146254274Y-122630052D01*
X146266256Y-122650043D01*
X146276221Y-122671113D01*
X146284073Y-122693057D01*
X146289737Y-122715666D01*
X146293156Y-122738721D01*
X146294300Y-122762000D01*
X146294300Y-123237000D01*
X146293156Y-123260279D01*
X146289737Y-123283334D01*
X146284073Y-123305943D01*
X146276221Y-123327887D01*
X146266256Y-123348957D01*
X146254274Y-123368948D01*
X146240390Y-123387668D01*
X146224738Y-123404938D01*
X146207468Y-123420590D01*
X146188748Y-123434474D01*
X146168757Y-123446456D01*
X146147687Y-123456421D01*
X146125743Y-123464273D01*
X146103134Y-123469937D01*
X146080079Y-123473356D01*
X146056800Y-123474500D01*
X145481800Y-123474500D01*
X145458521Y-123473356D01*
X145435466Y-123469937D01*
X145412857Y-123464273D01*
X145390913Y-123456421D01*
X145369843Y-123446456D01*
X145349852Y-123434474D01*
X145331132Y-123420590D01*
X145313862Y-123404938D01*
X145298210Y-123387668D01*
X145284326Y-123368948D01*
X145272344Y-123348957D01*
X145262379Y-123327887D01*
X145254527Y-123305943D01*
X145248863Y-123283334D01*
X145245444Y-123260279D01*
X145244300Y-123237000D01*
X145244300Y-122762000D01*
X145245444Y-122738721D01*
X145248863Y-122715666D01*
X145254527Y-122693057D01*
X145262379Y-122671113D01*
X145272344Y-122650043D01*
X145284326Y-122630052D01*
X145298210Y-122611332D01*
X145313862Y-122594062D01*
X145331132Y-122578410D01*
X145349852Y-122564526D01*
X145369843Y-122552544D01*
X145390913Y-122542579D01*
X145412857Y-122534727D01*
X145435466Y-122529063D01*
X145458521Y-122525644D01*
X145481800Y-122524500D01*
X146056800Y-122524500D01*
X146080079Y-122525644D01*
G37*
G36*
X144330079Y-122525644D02*
G01*
X144353134Y-122529063D01*
X144375743Y-122534727D01*
X144397687Y-122542579D01*
X144418757Y-122552544D01*
X144438748Y-122564526D01*
X144457468Y-122578410D01*
X144474738Y-122594062D01*
X144490390Y-122611332D01*
X144504274Y-122630052D01*
X144516256Y-122650043D01*
X144526221Y-122671113D01*
X144534073Y-122693057D01*
X144539737Y-122715666D01*
X144543156Y-122738721D01*
X144544300Y-122762000D01*
X144544300Y-123237000D01*
X144543156Y-123260279D01*
X144539737Y-123283334D01*
X144534073Y-123305943D01*
X144526221Y-123327887D01*
X144516256Y-123348957D01*
X144504274Y-123368948D01*
X144490390Y-123387668D01*
X144474738Y-123404938D01*
X144457468Y-123420590D01*
X144438748Y-123434474D01*
X144418757Y-123446456D01*
X144397687Y-123456421D01*
X144375743Y-123464273D01*
X144353134Y-123469937D01*
X144330079Y-123473356D01*
X144306800Y-123474500D01*
X143731800Y-123474500D01*
X143708521Y-123473356D01*
X143685466Y-123469937D01*
X143662857Y-123464273D01*
X143640913Y-123456421D01*
X143619843Y-123446456D01*
X143599852Y-123434474D01*
X143581132Y-123420590D01*
X143563862Y-123404938D01*
X143548210Y-123387668D01*
X143534326Y-123368948D01*
X143522344Y-123348957D01*
X143512379Y-123327887D01*
X143504527Y-123305943D01*
X143498863Y-123283334D01*
X143495444Y-123260279D01*
X143494300Y-123237000D01*
X143494300Y-122762000D01*
X143495444Y-122738721D01*
X143498863Y-122715666D01*
X143504527Y-122693057D01*
X143512379Y-122671113D01*
X143522344Y-122650043D01*
X143534326Y-122630052D01*
X143548210Y-122611332D01*
X143563862Y-122594062D01*
X143581132Y-122578410D01*
X143599852Y-122564526D01*
X143619843Y-122552544D01*
X143640913Y-122542579D01*
X143662857Y-122534727D01*
X143685466Y-122529063D01*
X143708521Y-122525644D01*
X143731800Y-122524500D01*
X144306800Y-122524500D01*
X144330079Y-122525644D01*
G37*
G36*
X146066079Y-103348644D02*
G01*
X146089134Y-103352063D01*
X146111743Y-103357727D01*
X146133687Y-103365579D01*
X146154757Y-103375544D01*
X146174748Y-103387526D01*
X146193468Y-103401410D01*
X146210738Y-103417062D01*
X146226390Y-103434332D01*
X146240274Y-103453052D01*
X146252256Y-103473043D01*
X146262221Y-103494113D01*
X146270073Y-103516057D01*
X146275737Y-103538666D01*
X146279156Y-103561721D01*
X146280300Y-103585000D01*
X146280300Y-104060000D01*
X146279156Y-104083279D01*
X146275737Y-104106334D01*
X146270073Y-104128943D01*
X146262221Y-104150887D01*
X146252256Y-104171957D01*
X146240274Y-104191948D01*
X146226390Y-104210668D01*
X146210738Y-104227938D01*
X146193468Y-104243590D01*
X146174748Y-104257474D01*
X146154757Y-104269456D01*
X146133687Y-104279421D01*
X146111743Y-104287273D01*
X146089134Y-104292937D01*
X146066079Y-104296356D01*
X146042800Y-104297500D01*
X145467800Y-104297500D01*
X145444521Y-104296356D01*
X145421466Y-104292937D01*
X145398857Y-104287273D01*
X145376913Y-104279421D01*
X145355843Y-104269456D01*
X145335852Y-104257474D01*
X145317132Y-104243590D01*
X145299862Y-104227938D01*
X145284210Y-104210668D01*
X145270326Y-104191948D01*
X145258344Y-104171957D01*
X145248379Y-104150887D01*
X145240527Y-104128943D01*
X145234863Y-104106334D01*
X145231444Y-104083279D01*
X145230300Y-104060000D01*
X145230300Y-103585000D01*
X145231444Y-103561721D01*
X145234863Y-103538666D01*
X145240527Y-103516057D01*
X145248379Y-103494113D01*
X145258344Y-103473043D01*
X145270326Y-103453052D01*
X145284210Y-103434332D01*
X145299862Y-103417062D01*
X145317132Y-103401410D01*
X145335852Y-103387526D01*
X145355843Y-103375544D01*
X145376913Y-103365579D01*
X145398857Y-103357727D01*
X145421466Y-103352063D01*
X145444521Y-103348644D01*
X145467800Y-103347500D01*
X146042800Y-103347500D01*
X146066079Y-103348644D01*
G37*
G36*
X144316079Y-103348644D02*
G01*
X144339134Y-103352063D01*
X144361743Y-103357727D01*
X144383687Y-103365579D01*
X144404757Y-103375544D01*
X144424748Y-103387526D01*
X144443468Y-103401410D01*
X144460738Y-103417062D01*
X144476390Y-103434332D01*
X144490274Y-103453052D01*
X144502256Y-103473043D01*
X144512221Y-103494113D01*
X144520073Y-103516057D01*
X144525737Y-103538666D01*
X144529156Y-103561721D01*
X144530300Y-103585000D01*
X144530300Y-104060000D01*
X144529156Y-104083279D01*
X144525737Y-104106334D01*
X144520073Y-104128943D01*
X144512221Y-104150887D01*
X144502256Y-104171957D01*
X144490274Y-104191948D01*
X144476390Y-104210668D01*
X144460738Y-104227938D01*
X144443468Y-104243590D01*
X144424748Y-104257474D01*
X144404757Y-104269456D01*
X144383687Y-104279421D01*
X144361743Y-104287273D01*
X144339134Y-104292937D01*
X144316079Y-104296356D01*
X144292800Y-104297500D01*
X143717800Y-104297500D01*
X143694521Y-104296356D01*
X143671466Y-104292937D01*
X143648857Y-104287273D01*
X143626913Y-104279421D01*
X143605843Y-104269456D01*
X143585852Y-104257474D01*
X143567132Y-104243590D01*
X143549862Y-104227938D01*
X143534210Y-104210668D01*
X143520326Y-104191948D01*
X143508344Y-104171957D01*
X143498379Y-104150887D01*
X143490527Y-104128943D01*
X143484863Y-104106334D01*
X143481444Y-104083279D01*
X143480300Y-104060000D01*
X143480300Y-103585000D01*
X143481444Y-103561721D01*
X143484863Y-103538666D01*
X143490527Y-103516057D01*
X143498379Y-103494113D01*
X143508344Y-103473043D01*
X143520326Y-103453052D01*
X143534210Y-103434332D01*
X143549862Y-103417062D01*
X143567132Y-103401410D01*
X143585852Y-103387526D01*
X143605843Y-103375544D01*
X143626913Y-103365579D01*
X143648857Y-103357727D01*
X143671466Y-103352063D01*
X143694521Y-103348644D01*
X143717800Y-103347500D01*
X144292800Y-103347500D01*
X144316079Y-103348644D01*
G37*
G36*
X144330079Y-100237144D02*
G01*
X144353134Y-100240563D01*
X144375743Y-100246227D01*
X144397687Y-100254079D01*
X144418757Y-100264044D01*
X144438748Y-100276026D01*
X144457468Y-100289910D01*
X144474738Y-100305562D01*
X144490390Y-100322832D01*
X144504274Y-100341552D01*
X144516256Y-100361543D01*
X144526221Y-100382613D01*
X144534073Y-100404557D01*
X144539737Y-100427166D01*
X144543156Y-100450221D01*
X144544300Y-100473500D01*
X144544300Y-100948500D01*
X144543156Y-100971779D01*
X144539737Y-100994834D01*
X144534073Y-101017443D01*
X144526221Y-101039387D01*
X144516256Y-101060457D01*
X144504274Y-101080448D01*
X144490390Y-101099168D01*
X144474738Y-101116438D01*
X144457468Y-101132090D01*
X144438748Y-101145974D01*
X144418757Y-101157956D01*
X144397687Y-101167921D01*
X144375743Y-101175773D01*
X144353134Y-101181437D01*
X144330079Y-101184856D01*
X144306800Y-101186000D01*
X143731800Y-101186000D01*
X143708521Y-101184856D01*
X143685466Y-101181437D01*
X143662857Y-101175773D01*
X143640913Y-101167921D01*
X143619843Y-101157956D01*
X143599852Y-101145974D01*
X143581132Y-101132090D01*
X143563862Y-101116438D01*
X143548210Y-101099168D01*
X143534326Y-101080448D01*
X143522344Y-101060457D01*
X143512379Y-101039387D01*
X143504527Y-101017443D01*
X143498863Y-100994834D01*
X143495444Y-100971779D01*
X143494300Y-100948500D01*
X143494300Y-100473500D01*
X143495444Y-100450221D01*
X143498863Y-100427166D01*
X143504527Y-100404557D01*
X143512379Y-100382613D01*
X143522344Y-100361543D01*
X143534326Y-100341552D01*
X143548210Y-100322832D01*
X143563862Y-100305562D01*
X143581132Y-100289910D01*
X143599852Y-100276026D01*
X143619843Y-100264044D01*
X143640913Y-100254079D01*
X143662857Y-100246227D01*
X143685466Y-100240563D01*
X143708521Y-100237144D01*
X143731800Y-100236000D01*
X144306800Y-100236000D01*
X144330079Y-100237144D01*
G37*
G36*
X146080079Y-100237144D02*
G01*
X146103134Y-100240563D01*
X146125743Y-100246227D01*
X146147687Y-100254079D01*
X146168757Y-100264044D01*
X146188748Y-100276026D01*
X146207468Y-100289910D01*
X146224738Y-100305562D01*
X146240390Y-100322832D01*
X146254274Y-100341552D01*
X146266256Y-100361543D01*
X146276221Y-100382613D01*
X146284073Y-100404557D01*
X146289737Y-100427166D01*
X146293156Y-100450221D01*
X146294300Y-100473500D01*
X146294300Y-100948500D01*
X146293156Y-100971779D01*
X146289737Y-100994834D01*
X146284073Y-101017443D01*
X146276221Y-101039387D01*
X146266256Y-101060457D01*
X146254274Y-101080448D01*
X146240390Y-101099168D01*
X146224738Y-101116438D01*
X146207468Y-101132090D01*
X146188748Y-101145974D01*
X146168757Y-101157956D01*
X146147687Y-101167921D01*
X146125743Y-101175773D01*
X146103134Y-101181437D01*
X146080079Y-101184856D01*
X146056800Y-101186000D01*
X145481800Y-101186000D01*
X145458521Y-101184856D01*
X145435466Y-101181437D01*
X145412857Y-101175773D01*
X145390913Y-101167921D01*
X145369843Y-101157956D01*
X145349852Y-101145974D01*
X145331132Y-101132090D01*
X145313862Y-101116438D01*
X145298210Y-101099168D01*
X145284326Y-101080448D01*
X145272344Y-101060457D01*
X145262379Y-101039387D01*
X145254527Y-101017443D01*
X145248863Y-100994834D01*
X145245444Y-100971779D01*
X145244300Y-100948500D01*
X145244300Y-100473500D01*
X145245444Y-100450221D01*
X145248863Y-100427166D01*
X145254527Y-100404557D01*
X145262379Y-100382613D01*
X145272344Y-100361543D01*
X145284326Y-100341552D01*
X145298210Y-100322832D01*
X145313862Y-100305562D01*
X145331132Y-100289910D01*
X145349852Y-100276026D01*
X145369843Y-100264044D01*
X145390913Y-100254079D01*
X145412857Y-100246227D01*
X145435466Y-100240563D01*
X145458521Y-100237144D01*
X145481800Y-100236000D01*
X146056800Y-100236000D01*
X146080079Y-100237144D01*
G37*
G36*
X140353679Y-109762144D02*
G01*
X140376734Y-109765563D01*
X140399343Y-109771227D01*
X140421287Y-109779079D01*
X140442357Y-109789044D01*
X140462348Y-109801026D01*
X140481068Y-109814910D01*
X140498338Y-109830562D01*
X140513990Y-109847832D01*
X140527874Y-109866552D01*
X140539856Y-109886543D01*
X140549821Y-109907613D01*
X140557673Y-109929557D01*
X140563337Y-109952166D01*
X140566756Y-109975221D01*
X140567900Y-109998500D01*
X140567900Y-110473500D01*
X140566756Y-110496779D01*
X140563337Y-110519834D01*
X140557673Y-110542443D01*
X140549821Y-110564387D01*
X140539856Y-110585457D01*
X140527874Y-110605448D01*
X140513990Y-110624168D01*
X140498338Y-110641438D01*
X140481068Y-110657090D01*
X140462348Y-110670974D01*
X140442357Y-110682956D01*
X140421287Y-110692921D01*
X140399343Y-110700773D01*
X140376734Y-110706437D01*
X140353679Y-110709856D01*
X140330400Y-110711000D01*
X139755400Y-110711000D01*
X139732121Y-110709856D01*
X139709066Y-110706437D01*
X139686457Y-110700773D01*
X139664513Y-110692921D01*
X139643443Y-110682956D01*
X139623452Y-110670974D01*
X139604732Y-110657090D01*
X139587462Y-110641438D01*
X139571810Y-110624168D01*
X139557926Y-110605448D01*
X139545944Y-110585457D01*
X139535979Y-110564387D01*
X139528127Y-110542443D01*
X139522463Y-110519834D01*
X139519044Y-110496779D01*
X139517900Y-110473500D01*
X139517900Y-109998500D01*
X139519044Y-109975221D01*
X139522463Y-109952166D01*
X139528127Y-109929557D01*
X139535979Y-109907613D01*
X139545944Y-109886543D01*
X139557926Y-109866552D01*
X139571810Y-109847832D01*
X139587462Y-109830562D01*
X139604732Y-109814910D01*
X139623452Y-109801026D01*
X139643443Y-109789044D01*
X139664513Y-109779079D01*
X139686457Y-109771227D01*
X139709066Y-109765563D01*
X139732121Y-109762144D01*
X139755400Y-109761000D01*
X140330400Y-109761000D01*
X140353679Y-109762144D01*
G37*
G36*
X142103679Y-109762144D02*
G01*
X142126734Y-109765563D01*
X142149343Y-109771227D01*
X142171287Y-109779079D01*
X142192357Y-109789044D01*
X142212348Y-109801026D01*
X142231068Y-109814910D01*
X142248338Y-109830562D01*
X142263990Y-109847832D01*
X142277874Y-109866552D01*
X142289856Y-109886543D01*
X142299821Y-109907613D01*
X142307673Y-109929557D01*
X142313337Y-109952166D01*
X142316756Y-109975221D01*
X142317900Y-109998500D01*
X142317900Y-110473500D01*
X142316756Y-110496779D01*
X142313337Y-110519834D01*
X142307673Y-110542443D01*
X142299821Y-110564387D01*
X142289856Y-110585457D01*
X142277874Y-110605448D01*
X142263990Y-110624168D01*
X142248338Y-110641438D01*
X142231068Y-110657090D01*
X142212348Y-110670974D01*
X142192357Y-110682956D01*
X142171287Y-110692921D01*
X142149343Y-110700773D01*
X142126734Y-110706437D01*
X142103679Y-110709856D01*
X142080400Y-110711000D01*
X141505400Y-110711000D01*
X141482121Y-110709856D01*
X141459066Y-110706437D01*
X141436457Y-110700773D01*
X141414513Y-110692921D01*
X141393443Y-110682956D01*
X141373452Y-110670974D01*
X141354732Y-110657090D01*
X141337462Y-110641438D01*
X141321810Y-110624168D01*
X141307926Y-110605448D01*
X141295944Y-110585457D01*
X141285979Y-110564387D01*
X141278127Y-110542443D01*
X141272463Y-110519834D01*
X141269044Y-110496779D01*
X141267900Y-110473500D01*
X141267900Y-109998500D01*
X141269044Y-109975221D01*
X141272463Y-109952166D01*
X141278127Y-109929557D01*
X141285979Y-109907613D01*
X141295944Y-109886543D01*
X141307926Y-109866552D01*
X141321810Y-109847832D01*
X141337462Y-109830562D01*
X141354732Y-109814910D01*
X141373452Y-109801026D01*
X141393443Y-109789044D01*
X141414513Y-109779079D01*
X141436457Y-109771227D01*
X141459066Y-109765563D01*
X141482121Y-109762144D01*
X141505400Y-109761000D01*
X142080400Y-109761000D01*
X142103679Y-109762144D01*
G37*
G36*
X142117679Y-113000644D02*
G01*
X142140734Y-113004063D01*
X142163343Y-113009727D01*
X142185287Y-113017579D01*
X142206357Y-113027544D01*
X142226348Y-113039526D01*
X142245068Y-113053410D01*
X142262338Y-113069062D01*
X142277990Y-113086332D01*
X142291874Y-113105052D01*
X142303856Y-113125043D01*
X142313821Y-113146113D01*
X142321673Y-113168057D01*
X142327337Y-113190666D01*
X142330756Y-113213721D01*
X142331900Y-113237000D01*
X142331900Y-113712000D01*
X142330756Y-113735279D01*
X142327337Y-113758334D01*
X142321673Y-113780943D01*
X142313821Y-113802887D01*
X142303856Y-113823957D01*
X142291874Y-113843948D01*
X142277990Y-113862668D01*
X142262338Y-113879938D01*
X142245068Y-113895590D01*
X142226348Y-113909474D01*
X142206357Y-113921456D01*
X142185287Y-113931421D01*
X142163343Y-113939273D01*
X142140734Y-113944937D01*
X142117679Y-113948356D01*
X142094400Y-113949500D01*
X141519400Y-113949500D01*
X141496121Y-113948356D01*
X141473066Y-113944937D01*
X141450457Y-113939273D01*
X141428513Y-113931421D01*
X141407443Y-113921456D01*
X141387452Y-113909474D01*
X141368732Y-113895590D01*
X141351462Y-113879938D01*
X141335810Y-113862668D01*
X141321926Y-113843948D01*
X141309944Y-113823957D01*
X141299979Y-113802887D01*
X141292127Y-113780943D01*
X141286463Y-113758334D01*
X141283044Y-113735279D01*
X141281900Y-113712000D01*
X141281900Y-113237000D01*
X141283044Y-113213721D01*
X141286463Y-113190666D01*
X141292127Y-113168057D01*
X141299979Y-113146113D01*
X141309944Y-113125043D01*
X141321926Y-113105052D01*
X141335810Y-113086332D01*
X141351462Y-113069062D01*
X141368732Y-113053410D01*
X141387452Y-113039526D01*
X141407443Y-113027544D01*
X141428513Y-113017579D01*
X141450457Y-113009727D01*
X141473066Y-113004063D01*
X141496121Y-113000644D01*
X141519400Y-112999500D01*
X142094400Y-112999500D01*
X142117679Y-113000644D01*
G37*
G36*
X140367679Y-113000644D02*
G01*
X140390734Y-113004063D01*
X140413343Y-113009727D01*
X140435287Y-113017579D01*
X140456357Y-113027544D01*
X140476348Y-113039526D01*
X140495068Y-113053410D01*
X140512338Y-113069062D01*
X140527990Y-113086332D01*
X140541874Y-113105052D01*
X140553856Y-113125043D01*
X140563821Y-113146113D01*
X140571673Y-113168057D01*
X140577337Y-113190666D01*
X140580756Y-113213721D01*
X140581900Y-113237000D01*
X140581900Y-113712000D01*
X140580756Y-113735279D01*
X140577337Y-113758334D01*
X140571673Y-113780943D01*
X140563821Y-113802887D01*
X140553856Y-113823957D01*
X140541874Y-113843948D01*
X140527990Y-113862668D01*
X140512338Y-113879938D01*
X140495068Y-113895590D01*
X140476348Y-113909474D01*
X140456357Y-113921456D01*
X140435287Y-113931421D01*
X140413343Y-113939273D01*
X140390734Y-113944937D01*
X140367679Y-113948356D01*
X140344400Y-113949500D01*
X139769400Y-113949500D01*
X139746121Y-113948356D01*
X139723066Y-113944937D01*
X139700457Y-113939273D01*
X139678513Y-113931421D01*
X139657443Y-113921456D01*
X139637452Y-113909474D01*
X139618732Y-113895590D01*
X139601462Y-113879938D01*
X139585810Y-113862668D01*
X139571926Y-113843948D01*
X139559944Y-113823957D01*
X139549979Y-113802887D01*
X139542127Y-113780943D01*
X139536463Y-113758334D01*
X139533044Y-113735279D01*
X139531900Y-113712000D01*
X139531900Y-113237000D01*
X139533044Y-113213721D01*
X139536463Y-113190666D01*
X139542127Y-113168057D01*
X139549979Y-113146113D01*
X139559944Y-113125043D01*
X139571926Y-113105052D01*
X139585810Y-113086332D01*
X139601462Y-113069062D01*
X139618732Y-113053410D01*
X139637452Y-113039526D01*
X139657443Y-113027544D01*
X139678513Y-113017579D01*
X139700457Y-113009727D01*
X139723066Y-113004063D01*
X139746121Y-113000644D01*
X139769400Y-112999500D01*
X140344400Y-112999500D01*
X140367679Y-113000644D01*
G37*
G36*
X140367679Y-116239144D02*
G01*
X140390734Y-116242563D01*
X140413343Y-116248227D01*
X140435287Y-116256079D01*
X140456357Y-116266044D01*
X140476348Y-116278026D01*
X140495068Y-116291910D01*
X140512338Y-116307562D01*
X140527990Y-116324832D01*
X140541874Y-116343552D01*
X140553856Y-116363543D01*
X140563821Y-116384613D01*
X140571673Y-116406557D01*
X140577337Y-116429166D01*
X140580756Y-116452221D01*
X140581900Y-116475500D01*
X140581900Y-116950500D01*
X140580756Y-116973779D01*
X140577337Y-116996834D01*
X140571673Y-117019443D01*
X140563821Y-117041387D01*
X140553856Y-117062457D01*
X140541874Y-117082448D01*
X140527990Y-117101168D01*
X140512338Y-117118438D01*
X140495068Y-117134090D01*
X140476348Y-117147974D01*
X140456357Y-117159956D01*
X140435287Y-117169921D01*
X140413343Y-117177773D01*
X140390734Y-117183437D01*
X140367679Y-117186856D01*
X140344400Y-117188000D01*
X139769400Y-117188000D01*
X139746121Y-117186856D01*
X139723066Y-117183437D01*
X139700457Y-117177773D01*
X139678513Y-117169921D01*
X139657443Y-117159956D01*
X139637452Y-117147974D01*
X139618732Y-117134090D01*
X139601462Y-117118438D01*
X139585810Y-117101168D01*
X139571926Y-117082448D01*
X139559944Y-117062457D01*
X139549979Y-117041387D01*
X139542127Y-117019443D01*
X139536463Y-116996834D01*
X139533044Y-116973779D01*
X139531900Y-116950500D01*
X139531900Y-116475500D01*
X139533044Y-116452221D01*
X139536463Y-116429166D01*
X139542127Y-116406557D01*
X139549979Y-116384613D01*
X139559944Y-116363543D01*
X139571926Y-116343552D01*
X139585810Y-116324832D01*
X139601462Y-116307562D01*
X139618732Y-116291910D01*
X139637452Y-116278026D01*
X139657443Y-116266044D01*
X139678513Y-116256079D01*
X139700457Y-116248227D01*
X139723066Y-116242563D01*
X139746121Y-116239144D01*
X139769400Y-116238000D01*
X140344400Y-116238000D01*
X140367679Y-116239144D01*
G37*
G36*
X142117679Y-116239144D02*
G01*
X142140734Y-116242563D01*
X142163343Y-116248227D01*
X142185287Y-116256079D01*
X142206357Y-116266044D01*
X142226348Y-116278026D01*
X142245068Y-116291910D01*
X142262338Y-116307562D01*
X142277990Y-116324832D01*
X142291874Y-116343552D01*
X142303856Y-116363543D01*
X142313821Y-116384613D01*
X142321673Y-116406557D01*
X142327337Y-116429166D01*
X142330756Y-116452221D01*
X142331900Y-116475500D01*
X142331900Y-116950500D01*
X142330756Y-116973779D01*
X142327337Y-116996834D01*
X142321673Y-117019443D01*
X142313821Y-117041387D01*
X142303856Y-117062457D01*
X142291874Y-117082448D01*
X142277990Y-117101168D01*
X142262338Y-117118438D01*
X142245068Y-117134090D01*
X142226348Y-117147974D01*
X142206357Y-117159956D01*
X142185287Y-117169921D01*
X142163343Y-117177773D01*
X142140734Y-117183437D01*
X142117679Y-117186856D01*
X142094400Y-117188000D01*
X141519400Y-117188000D01*
X141496121Y-117186856D01*
X141473066Y-117183437D01*
X141450457Y-117177773D01*
X141428513Y-117169921D01*
X141407443Y-117159956D01*
X141387452Y-117147974D01*
X141368732Y-117134090D01*
X141351462Y-117118438D01*
X141335810Y-117101168D01*
X141321926Y-117082448D01*
X141309944Y-117062457D01*
X141299979Y-117041387D01*
X141292127Y-117019443D01*
X141286463Y-116996834D01*
X141283044Y-116973779D01*
X141281900Y-116950500D01*
X141281900Y-116475500D01*
X141283044Y-116452221D01*
X141286463Y-116429166D01*
X141292127Y-116406557D01*
X141299979Y-116384613D01*
X141309944Y-116363543D01*
X141321926Y-116343552D01*
X141335810Y-116324832D01*
X141351462Y-116307562D01*
X141368732Y-116291910D01*
X141387452Y-116278026D01*
X141407443Y-116266044D01*
X141428513Y-116256079D01*
X141450457Y-116248227D01*
X141473066Y-116242563D01*
X141496121Y-116239144D01*
X141519400Y-116238000D01*
X142094400Y-116238000D01*
X142117679Y-116239144D01*
G37*
G36*
X142103679Y-119414144D02*
G01*
X142126734Y-119417563D01*
X142149343Y-119423227D01*
X142171287Y-119431079D01*
X142192357Y-119441044D01*
X142212348Y-119453026D01*
X142231068Y-119466910D01*
X142248338Y-119482562D01*
X142263990Y-119499832D01*
X142277874Y-119518552D01*
X142289856Y-119538543D01*
X142299821Y-119559613D01*
X142307673Y-119581557D01*
X142313337Y-119604166D01*
X142316756Y-119627221D01*
X142317900Y-119650500D01*
X142317900Y-120125500D01*
X142316756Y-120148779D01*
X142313337Y-120171834D01*
X142307673Y-120194443D01*
X142299821Y-120216387D01*
X142289856Y-120237457D01*
X142277874Y-120257448D01*
X142263990Y-120276168D01*
X142248338Y-120293438D01*
X142231068Y-120309090D01*
X142212348Y-120322974D01*
X142192357Y-120334956D01*
X142171287Y-120344921D01*
X142149343Y-120352773D01*
X142126734Y-120358437D01*
X142103679Y-120361856D01*
X142080400Y-120363000D01*
X141505400Y-120363000D01*
X141482121Y-120361856D01*
X141459066Y-120358437D01*
X141436457Y-120352773D01*
X141414513Y-120344921D01*
X141393443Y-120334956D01*
X141373452Y-120322974D01*
X141354732Y-120309090D01*
X141337462Y-120293438D01*
X141321810Y-120276168D01*
X141307926Y-120257448D01*
X141295944Y-120237457D01*
X141285979Y-120216387D01*
X141278127Y-120194443D01*
X141272463Y-120171834D01*
X141269044Y-120148779D01*
X141267900Y-120125500D01*
X141267900Y-119650500D01*
X141269044Y-119627221D01*
X141272463Y-119604166D01*
X141278127Y-119581557D01*
X141285979Y-119559613D01*
X141295944Y-119538543D01*
X141307926Y-119518552D01*
X141321810Y-119499832D01*
X141337462Y-119482562D01*
X141354732Y-119466910D01*
X141373452Y-119453026D01*
X141393443Y-119441044D01*
X141414513Y-119431079D01*
X141436457Y-119423227D01*
X141459066Y-119417563D01*
X141482121Y-119414144D01*
X141505400Y-119413000D01*
X142080400Y-119413000D01*
X142103679Y-119414144D01*
G37*
G36*
X140353679Y-119414144D02*
G01*
X140376734Y-119417563D01*
X140399343Y-119423227D01*
X140421287Y-119431079D01*
X140442357Y-119441044D01*
X140462348Y-119453026D01*
X140481068Y-119466910D01*
X140498338Y-119482562D01*
X140513990Y-119499832D01*
X140527874Y-119518552D01*
X140539856Y-119538543D01*
X140549821Y-119559613D01*
X140557673Y-119581557D01*
X140563337Y-119604166D01*
X140566756Y-119627221D01*
X140567900Y-119650500D01*
X140567900Y-120125500D01*
X140566756Y-120148779D01*
X140563337Y-120171834D01*
X140557673Y-120194443D01*
X140549821Y-120216387D01*
X140539856Y-120237457D01*
X140527874Y-120257448D01*
X140513990Y-120276168D01*
X140498338Y-120293438D01*
X140481068Y-120309090D01*
X140462348Y-120322974D01*
X140442357Y-120334956D01*
X140421287Y-120344921D01*
X140399343Y-120352773D01*
X140376734Y-120358437D01*
X140353679Y-120361856D01*
X140330400Y-120363000D01*
X139755400Y-120363000D01*
X139732121Y-120361856D01*
X139709066Y-120358437D01*
X139686457Y-120352773D01*
X139664513Y-120344921D01*
X139643443Y-120334956D01*
X139623452Y-120322974D01*
X139604732Y-120309090D01*
X139587462Y-120293438D01*
X139571810Y-120276168D01*
X139557926Y-120257448D01*
X139545944Y-120237457D01*
X139535979Y-120216387D01*
X139528127Y-120194443D01*
X139522463Y-120171834D01*
X139519044Y-120148779D01*
X139517900Y-120125500D01*
X139517900Y-119650500D01*
X139519044Y-119627221D01*
X139522463Y-119604166D01*
X139528127Y-119581557D01*
X139535979Y-119559613D01*
X139545944Y-119538543D01*
X139557926Y-119518552D01*
X139571810Y-119499832D01*
X139587462Y-119482562D01*
X139604732Y-119466910D01*
X139623452Y-119453026D01*
X139643443Y-119441044D01*
X139664513Y-119431079D01*
X139686457Y-119423227D01*
X139709066Y-119417563D01*
X139732121Y-119414144D01*
X139755400Y-119413000D01*
X140330400Y-119413000D01*
X140353679Y-119414144D01*
G37*
G36*
X142103679Y-106523644D02*
G01*
X142126734Y-106527063D01*
X142149343Y-106532727D01*
X142171287Y-106540579D01*
X142192357Y-106550544D01*
X142212348Y-106562526D01*
X142231068Y-106576410D01*
X142248338Y-106592062D01*
X142263990Y-106609332D01*
X142277874Y-106628052D01*
X142289856Y-106648043D01*
X142299821Y-106669113D01*
X142307673Y-106691057D01*
X142313337Y-106713666D01*
X142316756Y-106736721D01*
X142317900Y-106760000D01*
X142317900Y-107235000D01*
X142316756Y-107258279D01*
X142313337Y-107281334D01*
X142307673Y-107303943D01*
X142299821Y-107325887D01*
X142289856Y-107346957D01*
X142277874Y-107366948D01*
X142263990Y-107385668D01*
X142248338Y-107402938D01*
X142231068Y-107418590D01*
X142212348Y-107432474D01*
X142192357Y-107444456D01*
X142171287Y-107454421D01*
X142149343Y-107462273D01*
X142126734Y-107467937D01*
X142103679Y-107471356D01*
X142080400Y-107472500D01*
X141505400Y-107472500D01*
X141482121Y-107471356D01*
X141459066Y-107467937D01*
X141436457Y-107462273D01*
X141414513Y-107454421D01*
X141393443Y-107444456D01*
X141373452Y-107432474D01*
X141354732Y-107418590D01*
X141337462Y-107402938D01*
X141321810Y-107385668D01*
X141307926Y-107366948D01*
X141295944Y-107346957D01*
X141285979Y-107325887D01*
X141278127Y-107303943D01*
X141272463Y-107281334D01*
X141269044Y-107258279D01*
X141267900Y-107235000D01*
X141267900Y-106760000D01*
X141269044Y-106736721D01*
X141272463Y-106713666D01*
X141278127Y-106691057D01*
X141285979Y-106669113D01*
X141295944Y-106648043D01*
X141307926Y-106628052D01*
X141321810Y-106609332D01*
X141337462Y-106592062D01*
X141354732Y-106576410D01*
X141373452Y-106562526D01*
X141393443Y-106550544D01*
X141414513Y-106540579D01*
X141436457Y-106532727D01*
X141459066Y-106527063D01*
X141482121Y-106523644D01*
X141505400Y-106522500D01*
X142080400Y-106522500D01*
X142103679Y-106523644D01*
G37*
G36*
X140353679Y-106523644D02*
G01*
X140376734Y-106527063D01*
X140399343Y-106532727D01*
X140421287Y-106540579D01*
X140442357Y-106550544D01*
X140462348Y-106562526D01*
X140481068Y-106576410D01*
X140498338Y-106592062D01*
X140513990Y-106609332D01*
X140527874Y-106628052D01*
X140539856Y-106648043D01*
X140549821Y-106669113D01*
X140557673Y-106691057D01*
X140563337Y-106713666D01*
X140566756Y-106736721D01*
X140567900Y-106760000D01*
X140567900Y-107235000D01*
X140566756Y-107258279D01*
X140563337Y-107281334D01*
X140557673Y-107303943D01*
X140549821Y-107325887D01*
X140539856Y-107346957D01*
X140527874Y-107366948D01*
X140513990Y-107385668D01*
X140498338Y-107402938D01*
X140481068Y-107418590D01*
X140462348Y-107432474D01*
X140442357Y-107444456D01*
X140421287Y-107454421D01*
X140399343Y-107462273D01*
X140376734Y-107467937D01*
X140353679Y-107471356D01*
X140330400Y-107472500D01*
X139755400Y-107472500D01*
X139732121Y-107471356D01*
X139709066Y-107467937D01*
X139686457Y-107462273D01*
X139664513Y-107454421D01*
X139643443Y-107444456D01*
X139623452Y-107432474D01*
X139604732Y-107418590D01*
X139587462Y-107402938D01*
X139571810Y-107385668D01*
X139557926Y-107366948D01*
X139545944Y-107346957D01*
X139535979Y-107325887D01*
X139528127Y-107303943D01*
X139522463Y-107281334D01*
X139519044Y-107258279D01*
X139517900Y-107235000D01*
X139517900Y-106760000D01*
X139519044Y-106736721D01*
X139522463Y-106713666D01*
X139528127Y-106691057D01*
X139535979Y-106669113D01*
X139545944Y-106648043D01*
X139557926Y-106628052D01*
X139571810Y-106609332D01*
X139587462Y-106592062D01*
X139604732Y-106576410D01*
X139623452Y-106562526D01*
X139643443Y-106550544D01*
X139664513Y-106540579D01*
X139686457Y-106532727D01*
X139709066Y-106527063D01*
X139732121Y-106523644D01*
X139755400Y-106522500D01*
X140330400Y-106522500D01*
X140353679Y-106523644D01*
G37*
G36*
X140304179Y-122525644D02*
G01*
X140327234Y-122529063D01*
X140349843Y-122534727D01*
X140371787Y-122542579D01*
X140392857Y-122552544D01*
X140412848Y-122564526D01*
X140431568Y-122578410D01*
X140448838Y-122594062D01*
X140464490Y-122611332D01*
X140478374Y-122630052D01*
X140490356Y-122650043D01*
X140500321Y-122671113D01*
X140508173Y-122693057D01*
X140513837Y-122715666D01*
X140517256Y-122738721D01*
X140518400Y-122762000D01*
X140518400Y-123237000D01*
X140517256Y-123260279D01*
X140513837Y-123283334D01*
X140508173Y-123305943D01*
X140500321Y-123327887D01*
X140490356Y-123348957D01*
X140478374Y-123368948D01*
X140464490Y-123387668D01*
X140448838Y-123404938D01*
X140431568Y-123420590D01*
X140412848Y-123434474D01*
X140392857Y-123446456D01*
X140371787Y-123456421D01*
X140349843Y-123464273D01*
X140327234Y-123469937D01*
X140304179Y-123473356D01*
X140280900Y-123474500D01*
X139705900Y-123474500D01*
X139682621Y-123473356D01*
X139659566Y-123469937D01*
X139636957Y-123464273D01*
X139615013Y-123456421D01*
X139593943Y-123446456D01*
X139573952Y-123434474D01*
X139555232Y-123420590D01*
X139537962Y-123404938D01*
X139522310Y-123387668D01*
X139508426Y-123368948D01*
X139496444Y-123348957D01*
X139486479Y-123327887D01*
X139478627Y-123305943D01*
X139472963Y-123283334D01*
X139469544Y-123260279D01*
X139468400Y-123237000D01*
X139468400Y-122762000D01*
X139469544Y-122738721D01*
X139472963Y-122715666D01*
X139478627Y-122693057D01*
X139486479Y-122671113D01*
X139496444Y-122650043D01*
X139508426Y-122630052D01*
X139522310Y-122611332D01*
X139537962Y-122594062D01*
X139555232Y-122578410D01*
X139573952Y-122564526D01*
X139593943Y-122552544D01*
X139615013Y-122542579D01*
X139636957Y-122534727D01*
X139659566Y-122529063D01*
X139682621Y-122525644D01*
X139705900Y-122524500D01*
X140280900Y-122524500D01*
X140304179Y-122525644D01*
G37*
G36*
X142054179Y-122525644D02*
G01*
X142077234Y-122529063D01*
X142099843Y-122534727D01*
X142121787Y-122542579D01*
X142142857Y-122552544D01*
X142162848Y-122564526D01*
X142181568Y-122578410D01*
X142198838Y-122594062D01*
X142214490Y-122611332D01*
X142228374Y-122630052D01*
X142240356Y-122650043D01*
X142250321Y-122671113D01*
X142258173Y-122693057D01*
X142263837Y-122715666D01*
X142267256Y-122738721D01*
X142268400Y-122762000D01*
X142268400Y-123237000D01*
X142267256Y-123260279D01*
X142263837Y-123283334D01*
X142258173Y-123305943D01*
X142250321Y-123327887D01*
X142240356Y-123348957D01*
X142228374Y-123368948D01*
X142214490Y-123387668D01*
X142198838Y-123404938D01*
X142181568Y-123420590D01*
X142162848Y-123434474D01*
X142142857Y-123446456D01*
X142121787Y-123456421D01*
X142099843Y-123464273D01*
X142077234Y-123469937D01*
X142054179Y-123473356D01*
X142030900Y-123474500D01*
X141455900Y-123474500D01*
X141432621Y-123473356D01*
X141409566Y-123469937D01*
X141386957Y-123464273D01*
X141365013Y-123456421D01*
X141343943Y-123446456D01*
X141323952Y-123434474D01*
X141305232Y-123420590D01*
X141287962Y-123404938D01*
X141272310Y-123387668D01*
X141258426Y-123368948D01*
X141246444Y-123348957D01*
X141236479Y-123327887D01*
X141228627Y-123305943D01*
X141222963Y-123283334D01*
X141219544Y-123260279D01*
X141218400Y-123237000D01*
X141218400Y-122762000D01*
X141219544Y-122738721D01*
X141222963Y-122715666D01*
X141228627Y-122693057D01*
X141236479Y-122671113D01*
X141246444Y-122650043D01*
X141258426Y-122630052D01*
X141272310Y-122611332D01*
X141287962Y-122594062D01*
X141305232Y-122578410D01*
X141323952Y-122564526D01*
X141343943Y-122552544D01*
X141365013Y-122542579D01*
X141386957Y-122534727D01*
X141409566Y-122529063D01*
X141432621Y-122525644D01*
X141455900Y-122524500D01*
X142030900Y-122524500D01*
X142054179Y-122525644D01*
G37*
G36*
X140353679Y-103348644D02*
G01*
X140376734Y-103352063D01*
X140399343Y-103357727D01*
X140421287Y-103365579D01*
X140442357Y-103375544D01*
X140462348Y-103387526D01*
X140481068Y-103401410D01*
X140498338Y-103417062D01*
X140513990Y-103434332D01*
X140527874Y-103453052D01*
X140539856Y-103473043D01*
X140549821Y-103494113D01*
X140557673Y-103516057D01*
X140563337Y-103538666D01*
X140566756Y-103561721D01*
X140567900Y-103585000D01*
X140567900Y-104060000D01*
X140566756Y-104083279D01*
X140563337Y-104106334D01*
X140557673Y-104128943D01*
X140549821Y-104150887D01*
X140539856Y-104171957D01*
X140527874Y-104191948D01*
X140513990Y-104210668D01*
X140498338Y-104227938D01*
X140481068Y-104243590D01*
X140462348Y-104257474D01*
X140442357Y-104269456D01*
X140421287Y-104279421D01*
X140399343Y-104287273D01*
X140376734Y-104292937D01*
X140353679Y-104296356D01*
X140330400Y-104297500D01*
X139755400Y-104297500D01*
X139732121Y-104296356D01*
X139709066Y-104292937D01*
X139686457Y-104287273D01*
X139664513Y-104279421D01*
X139643443Y-104269456D01*
X139623452Y-104257474D01*
X139604732Y-104243590D01*
X139587462Y-104227938D01*
X139571810Y-104210668D01*
X139557926Y-104191948D01*
X139545944Y-104171957D01*
X139535979Y-104150887D01*
X139528127Y-104128943D01*
X139522463Y-104106334D01*
X139519044Y-104083279D01*
X139517900Y-104060000D01*
X139517900Y-103585000D01*
X139519044Y-103561721D01*
X139522463Y-103538666D01*
X139528127Y-103516057D01*
X139535979Y-103494113D01*
X139545944Y-103473043D01*
X139557926Y-103453052D01*
X139571810Y-103434332D01*
X139587462Y-103417062D01*
X139604732Y-103401410D01*
X139623452Y-103387526D01*
X139643443Y-103375544D01*
X139664513Y-103365579D01*
X139686457Y-103357727D01*
X139709066Y-103352063D01*
X139732121Y-103348644D01*
X139755400Y-103347500D01*
X140330400Y-103347500D01*
X140353679Y-103348644D01*
G37*
G36*
X142103679Y-103348644D02*
G01*
X142126734Y-103352063D01*
X142149343Y-103357727D01*
X142171287Y-103365579D01*
X142192357Y-103375544D01*
X142212348Y-103387526D01*
X142231068Y-103401410D01*
X142248338Y-103417062D01*
X142263990Y-103434332D01*
X142277874Y-103453052D01*
X142289856Y-103473043D01*
X142299821Y-103494113D01*
X142307673Y-103516057D01*
X142313337Y-103538666D01*
X142316756Y-103561721D01*
X142317900Y-103585000D01*
X142317900Y-104060000D01*
X142316756Y-104083279D01*
X142313337Y-104106334D01*
X142307673Y-104128943D01*
X142299821Y-104150887D01*
X142289856Y-104171957D01*
X142277874Y-104191948D01*
X142263990Y-104210668D01*
X142248338Y-104227938D01*
X142231068Y-104243590D01*
X142212348Y-104257474D01*
X142192357Y-104269456D01*
X142171287Y-104279421D01*
X142149343Y-104287273D01*
X142126734Y-104292937D01*
X142103679Y-104296356D01*
X142080400Y-104297500D01*
X141505400Y-104297500D01*
X141482121Y-104296356D01*
X141459066Y-104292937D01*
X141436457Y-104287273D01*
X141414513Y-104279421D01*
X141393443Y-104269456D01*
X141373452Y-104257474D01*
X141354732Y-104243590D01*
X141337462Y-104227938D01*
X141321810Y-104210668D01*
X141307926Y-104191948D01*
X141295944Y-104171957D01*
X141285979Y-104150887D01*
X141278127Y-104128943D01*
X141272463Y-104106334D01*
X141269044Y-104083279D01*
X141267900Y-104060000D01*
X141267900Y-103585000D01*
X141269044Y-103561721D01*
X141272463Y-103538666D01*
X141278127Y-103516057D01*
X141285979Y-103494113D01*
X141295944Y-103473043D01*
X141307926Y-103453052D01*
X141321810Y-103434332D01*
X141337462Y-103417062D01*
X141354732Y-103401410D01*
X141373452Y-103387526D01*
X141393443Y-103375544D01*
X141414513Y-103365579D01*
X141436457Y-103357727D01*
X141459066Y-103352063D01*
X141482121Y-103348644D01*
X141505400Y-103347500D01*
X142080400Y-103347500D01*
X142103679Y-103348644D01*
G37*
G36*
X142117679Y-100237144D02*
G01*
X142140734Y-100240563D01*
X142163343Y-100246227D01*
X142185287Y-100254079D01*
X142206357Y-100264044D01*
X142226348Y-100276026D01*
X142245068Y-100289910D01*
X142262338Y-100305562D01*
X142277990Y-100322832D01*
X142291874Y-100341552D01*
X142303856Y-100361543D01*
X142313821Y-100382613D01*
X142321673Y-100404557D01*
X142327337Y-100427166D01*
X142330756Y-100450221D01*
X142331900Y-100473500D01*
X142331900Y-100948500D01*
X142330756Y-100971779D01*
X142327337Y-100994834D01*
X142321673Y-101017443D01*
X142313821Y-101039387D01*
X142303856Y-101060457D01*
X142291874Y-101080448D01*
X142277990Y-101099168D01*
X142262338Y-101116438D01*
X142245068Y-101132090D01*
X142226348Y-101145974D01*
X142206357Y-101157956D01*
X142185287Y-101167921D01*
X142163343Y-101175773D01*
X142140734Y-101181437D01*
X142117679Y-101184856D01*
X142094400Y-101186000D01*
X141519400Y-101186000D01*
X141496121Y-101184856D01*
X141473066Y-101181437D01*
X141450457Y-101175773D01*
X141428513Y-101167921D01*
X141407443Y-101157956D01*
X141387452Y-101145974D01*
X141368732Y-101132090D01*
X141351462Y-101116438D01*
X141335810Y-101099168D01*
X141321926Y-101080448D01*
X141309944Y-101060457D01*
X141299979Y-101039387D01*
X141292127Y-101017443D01*
X141286463Y-100994834D01*
X141283044Y-100971779D01*
X141281900Y-100948500D01*
X141281900Y-100473500D01*
X141283044Y-100450221D01*
X141286463Y-100427166D01*
X141292127Y-100404557D01*
X141299979Y-100382613D01*
X141309944Y-100361543D01*
X141321926Y-100341552D01*
X141335810Y-100322832D01*
X141351462Y-100305562D01*
X141368732Y-100289910D01*
X141387452Y-100276026D01*
X141407443Y-100264044D01*
X141428513Y-100254079D01*
X141450457Y-100246227D01*
X141473066Y-100240563D01*
X141496121Y-100237144D01*
X141519400Y-100236000D01*
X142094400Y-100236000D01*
X142117679Y-100237144D01*
G37*
G36*
X140367679Y-100237144D02*
G01*
X140390734Y-100240563D01*
X140413343Y-100246227D01*
X140435287Y-100254079D01*
X140456357Y-100264044D01*
X140476348Y-100276026D01*
X140495068Y-100289910D01*
X140512338Y-100305562D01*
X140527990Y-100322832D01*
X140541874Y-100341552D01*
X140553856Y-100361543D01*
X140563821Y-100382613D01*
X140571673Y-100404557D01*
X140577337Y-100427166D01*
X140580756Y-100450221D01*
X140581900Y-100473500D01*
X140581900Y-100948500D01*
X140580756Y-100971779D01*
X140577337Y-100994834D01*
X140571673Y-101017443D01*
X140563821Y-101039387D01*
X140553856Y-101060457D01*
X140541874Y-101080448D01*
X140527990Y-101099168D01*
X140512338Y-101116438D01*
X140495068Y-101132090D01*
X140476348Y-101145974D01*
X140456357Y-101157956D01*
X140435287Y-101167921D01*
X140413343Y-101175773D01*
X140390734Y-101181437D01*
X140367679Y-101184856D01*
X140344400Y-101186000D01*
X139769400Y-101186000D01*
X139746121Y-101184856D01*
X139723066Y-101181437D01*
X139700457Y-101175773D01*
X139678513Y-101167921D01*
X139657443Y-101157956D01*
X139637452Y-101145974D01*
X139618732Y-101132090D01*
X139601462Y-101116438D01*
X139585810Y-101099168D01*
X139571926Y-101080448D01*
X139559944Y-101060457D01*
X139549979Y-101039387D01*
X139542127Y-101017443D01*
X139536463Y-100994834D01*
X139533044Y-100971779D01*
X139531900Y-100948500D01*
X139531900Y-100473500D01*
X139533044Y-100450221D01*
X139536463Y-100427166D01*
X139542127Y-100404557D01*
X139549979Y-100382613D01*
X139559944Y-100361543D01*
X139571926Y-100341552D01*
X139585810Y-100322832D01*
X139601462Y-100305562D01*
X139618732Y-100289910D01*
X139637452Y-100276026D01*
X139657443Y-100264044D01*
X139678513Y-100254079D01*
X139700457Y-100246227D01*
X139723066Y-100240563D01*
X139746121Y-100237144D01*
X139769400Y-100236000D01*
X140344400Y-100236000D01*
X140367679Y-100237144D01*
G37*
M02*
