M48
; DRILL file {KiCad (5.1.5)-2} date 3/6/2020 2:17:13 PM
; FORMAT={-:-/ absolute / inch / decimal}
; #@! TF.CreationDate,2020-03-06T14:17:13-06:00
; #@! TF.GenerationSoftware,Kicad,Pcbnew,(5.1.5)-2
; #@! TF.FileFunction,Plated,1,2,PTH
FMAT,2
INCH
T1C0.0157
T2C0.0256
T3C0.1616
%
G90
G05
T1
X2.455Y-2.9287
X2.4775Y-3.1062
X2.5Y-3.2837
X2.5235Y-3.4615
X2.5546Y-3.6004
X2.5775Y-3.7225
X2.6Y-3.8475
X2.6095Y-5.4785
X2.6225Y-3.975
X2.7565Y-5.5215
X2.8231Y-3.51
X2.8825Y-3.1225
X2.9825Y-5.505
X3.0931Y-5.5269
X3.1333Y-3.51
X3.1925Y-3.1225
X3.326Y-5.525
X3.4Y-5.525
X3.4458Y-3.51
X3.505Y-3.1225
X3.644Y-5.522
X3.71Y-5.5225
X3.7567Y-3.51
X3.815Y-3.1225
X3.958Y-5.522
X4.0225Y-5.5225
X4.0666Y-3.5084
X4.125Y-3.1225
X4.268Y-5.523
X4.3325Y-5.5225
X4.3781Y-3.5075
X4.4375Y-3.1225
X4.577Y-5.523
X4.64Y-5.5225
X4.68Y-3.5075
X4.7425Y-3.1225
X4.887Y-5.522
X4.9525Y-5.5225
X4.9931Y-3.505
X5.0525Y-3.1175
X5.198Y-4.468
X5.199Y-4.596
X5.199Y-4.843
X5.2Y-4.72
X5.201Y-4.214
X5.201Y-4.341
X5.203Y-3.967
X5.203Y-4.088
X5.739Y-4.967
T2
X2.15Y-4.95
X2.15Y-5.0
X2.15Y-5.05
X2.15Y-5.1
X2.15Y-5.15
X2.2Y-4.95
X2.2Y-5.0
X2.2Y-5.05
X2.2Y-5.1
X2.2Y-5.15
T3
X5.4005Y-2.289
X5.7115Y-2.289
X4.4165Y-4.013
X4.4165Y-4.324
X4.4165Y-4.6351
X3.824Y-2.1255
X3.824Y-2.4365
X3.824Y-2.7476
X3.174Y-4.013
X3.174Y-4.324
X3.174Y-4.6351
X5.0365Y-4.013
X5.0365Y-4.324
X5.0365Y-4.6351
X4.444Y-2.1255
X4.444Y-2.4365
X4.444Y-2.7476
X4.1065Y-4.013
X4.1065Y-4.324
X4.1065Y-4.6351
X2.8915Y-2.1255
X2.8915Y-2.4365
X2.8915Y-2.7476
X5.065Y-2.1255
X5.065Y-2.4365
X5.065Y-2.7475
X3.4865Y-4.013
X3.4865Y-4.324
X3.4865Y-4.6351
X3.7965Y-4.013
X3.7965Y-4.324
X3.7965Y-4.6351
X4.134Y-2.1255
X4.134Y-2.4365
X4.134Y-2.7476
X2.864Y-4.013
X2.864Y-4.324
X2.864Y-4.6351
X4.755Y-2.1255
X4.755Y-2.4365
X4.755Y-2.7475
X3.5115Y-2.1255
X3.5115Y-2.4365
X3.5115Y-2.7476
X4.7265Y-4.013
X4.7265Y-4.324
X4.7265Y-4.6351
X2.1505Y-2.299
X2.4615Y-2.299
X3.2015Y-2.1255
X3.2015Y-2.4365
X3.2015Y-2.7476
T0
M30
