G04 #@! TF.GenerationSoftware,KiCad,Pcbnew,(5.1.5)-2*
G04 #@! TF.CreationDate,2020-03-06T14:17:15-06:00*
G04 #@! TF.ProjectId,PatchPanel,50617463-6850-4616-9e65-6c2e6b696361,rev?*
G04 #@! TF.SameCoordinates,Original*
G04 #@! TF.FileFunction,Soldermask,Top*
G04 #@! TF.FilePolarity,Negative*
%FSLAX46Y46*%
G04 Gerber Fmt 4.6, Leading zero omitted, Abs format (unit mm)*
G04 Created by KiCad (PCBNEW (5.1.5)-2) date 2020-03-06 14:17:15*
%MOMM*%
%LPD*%
G04 APERTURE LIST*
%ADD10R,6.200000X6.800000*%
%ADD11R,1.600000X2.600000*%
%ADD12C,5.480000*%
%ADD13R,0.850000X1.900000*%
%ADD14C,0.100000*%
%ADD15R,1.400000X1.400000*%
%ADD16O,1.400000X1.400000*%
G04 APERTURE END LIST*
D10*
X103505000Y-125979500D03*
D11*
X105785000Y-132279500D03*
X101225000Y-132279500D03*
D12*
X72745000Y-101930500D03*
X72745000Y-109830500D03*
X72745000Y-117730500D03*
X120052500Y-117730500D03*
X120052500Y-109830500D03*
X120052500Y-101930500D03*
X80619000Y-101930500D03*
X80619000Y-109830500D03*
X80619000Y-117730500D03*
X112178500Y-117730500D03*
X112178500Y-109830500D03*
X112178500Y-101930500D03*
X88556500Y-101930500D03*
X88556500Y-109830500D03*
X88556500Y-117730500D03*
X104304500Y-117730500D03*
X104304500Y-109830500D03*
X104304500Y-101930500D03*
X96430500Y-101930500D03*
X96430500Y-109830500D03*
X96430500Y-117730500D03*
X112877000Y-53988000D03*
X112877000Y-61888000D03*
X112877000Y-69788000D03*
X73443500Y-69788000D03*
X73443500Y-61888000D03*
X73443500Y-53988000D03*
X105003000Y-69788000D03*
X105003000Y-61888000D03*
X105003000Y-53988000D03*
X97129000Y-53988000D03*
X97129000Y-61888000D03*
X97129000Y-69788000D03*
X89191500Y-53988000D03*
X89191500Y-61888000D03*
X89191500Y-69788000D03*
X128651000Y-69786500D03*
X128651000Y-61886500D03*
X128651000Y-53986500D03*
X81317500Y-53988000D03*
X81317500Y-61888000D03*
X81317500Y-69788000D03*
D10*
X127127000Y-126043000D03*
D11*
X129407000Y-132343000D03*
X124847000Y-132343000D03*
X129343500Y-86986000D03*
X124783500Y-86986000D03*
D10*
X127063500Y-93286000D03*
D13*
X125158500Y-135830000D03*
X125808500Y-138490000D03*
X124508500Y-138490000D03*
X128968500Y-83562500D03*
X128318500Y-80902500D03*
X129618500Y-80902500D03*
D11*
X69665500Y-132343000D03*
X74225500Y-132343000D03*
D10*
X71945500Y-126043000D03*
X71945500Y-93413000D03*
D11*
X69665500Y-87113000D03*
X74225500Y-87113000D03*
D13*
X69977000Y-135893500D03*
X70627000Y-138553500D03*
X69327000Y-138553500D03*
X74500500Y-80902500D03*
X73200500Y-80902500D03*
X73850500Y-83562500D03*
D10*
X119253000Y-126043000D03*
D11*
X121533000Y-132343000D03*
X116973000Y-132343000D03*
X121533000Y-86986000D03*
X116973000Y-86986000D03*
D10*
X119253000Y-93286000D03*
D13*
X117221000Y-135830000D03*
X117871000Y-138490000D03*
X116571000Y-138490000D03*
X121158000Y-83562500D03*
X120508000Y-80902500D03*
X121808000Y-80902500D03*
D11*
X77603000Y-132343000D03*
X82163000Y-132343000D03*
D10*
X79883000Y-126043000D03*
X79819500Y-93408500D03*
D11*
X77539500Y-87108500D03*
X82099500Y-87108500D03*
D13*
X77264500Y-138553500D03*
X78564500Y-138553500D03*
X77914500Y-135893500D03*
X81724500Y-83499000D03*
X81074500Y-80839000D03*
X82374500Y-80839000D03*
D10*
X111379000Y-126047500D03*
D11*
X113659000Y-132347500D03*
X109099000Y-132347500D03*
D10*
X111442500Y-93349500D03*
D11*
X109162500Y-87049500D03*
X113722500Y-87049500D03*
D13*
X108760500Y-138486500D03*
X110060500Y-138486500D03*
X109410500Y-135826500D03*
X113997500Y-80902500D03*
X112697500Y-80902500D03*
X113347500Y-83562500D03*
D10*
X87693500Y-126047500D03*
D11*
X89973500Y-132347500D03*
X85413500Y-132347500D03*
D10*
X87757000Y-93408500D03*
D11*
X85477000Y-87108500D03*
X90037000Y-87108500D03*
D13*
X85075000Y-138486500D03*
X86375000Y-138486500D03*
X85725000Y-135826500D03*
X89662000Y-83562500D03*
X89012000Y-80902500D03*
X90312000Y-80902500D03*
D10*
X103505000Y-93345000D03*
D11*
X101225000Y-87045000D03*
X105785000Y-87045000D03*
D13*
X100886500Y-138486500D03*
X102186500Y-138486500D03*
X101536500Y-135826500D03*
X105410000Y-83562500D03*
X104760000Y-80902500D03*
X106060000Y-80902500D03*
D11*
X93287500Y-132343000D03*
X97847500Y-132343000D03*
D10*
X95567500Y-126043000D03*
D11*
X97910000Y-87084500D03*
X93350000Y-87084500D03*
D10*
X95630000Y-93384500D03*
D13*
X92949000Y-138486500D03*
X94249000Y-138486500D03*
X93599000Y-135826500D03*
X97536000Y-83562500D03*
X96886000Y-80902500D03*
X98186000Y-80902500D03*
D14*
G36*
X129833581Y-138074125D02*
G01*
X129866343Y-138078985D01*
X129898471Y-138087033D01*
X129929656Y-138098191D01*
X129959596Y-138112352D01*
X129988005Y-138129379D01*
X130014608Y-138149109D01*
X130039149Y-138171351D01*
X130061391Y-138195892D01*
X130081121Y-138222495D01*
X130098148Y-138250904D01*
X130112309Y-138280844D01*
X130123467Y-138312029D01*
X130131515Y-138344157D01*
X130136375Y-138376919D01*
X130138000Y-138410000D01*
X130138000Y-139085000D01*
X130136375Y-139118081D01*
X130131515Y-139150843D01*
X130123467Y-139182971D01*
X130112309Y-139214156D01*
X130098148Y-139244096D01*
X130081121Y-139272505D01*
X130061391Y-139299108D01*
X130039149Y-139323649D01*
X130014608Y-139345891D01*
X129988005Y-139365621D01*
X129959596Y-139382648D01*
X129929656Y-139396809D01*
X129898471Y-139407967D01*
X129866343Y-139416015D01*
X129833581Y-139420875D01*
X129800500Y-139422500D01*
X129025500Y-139422500D01*
X128992419Y-139420875D01*
X128959657Y-139416015D01*
X128927529Y-139407967D01*
X128896344Y-139396809D01*
X128866404Y-139382648D01*
X128837995Y-139365621D01*
X128811392Y-139345891D01*
X128786851Y-139323649D01*
X128764609Y-139299108D01*
X128744879Y-139272505D01*
X128727852Y-139244096D01*
X128713691Y-139214156D01*
X128702533Y-139182971D01*
X128694485Y-139150843D01*
X128689625Y-139118081D01*
X128688000Y-139085000D01*
X128688000Y-138410000D01*
X128689625Y-138376919D01*
X128694485Y-138344157D01*
X128702533Y-138312029D01*
X128713691Y-138280844D01*
X128727852Y-138250904D01*
X128744879Y-138222495D01*
X128764609Y-138195892D01*
X128786851Y-138171351D01*
X128811392Y-138149109D01*
X128837995Y-138129379D01*
X128866404Y-138112352D01*
X128896344Y-138098191D01*
X128927529Y-138087033D01*
X128959657Y-138078985D01*
X128992419Y-138074125D01*
X129025500Y-138072500D01*
X129800500Y-138072500D01*
X129833581Y-138074125D01*
G37*
G36*
X128083581Y-138074125D02*
G01*
X128116343Y-138078985D01*
X128148471Y-138087033D01*
X128179656Y-138098191D01*
X128209596Y-138112352D01*
X128238005Y-138129379D01*
X128264608Y-138149109D01*
X128289149Y-138171351D01*
X128311391Y-138195892D01*
X128331121Y-138222495D01*
X128348148Y-138250904D01*
X128362309Y-138280844D01*
X128373467Y-138312029D01*
X128381515Y-138344157D01*
X128386375Y-138376919D01*
X128388000Y-138410000D01*
X128388000Y-139085000D01*
X128386375Y-139118081D01*
X128381515Y-139150843D01*
X128373467Y-139182971D01*
X128362309Y-139214156D01*
X128348148Y-139244096D01*
X128331121Y-139272505D01*
X128311391Y-139299108D01*
X128289149Y-139323649D01*
X128264608Y-139345891D01*
X128238005Y-139365621D01*
X128209596Y-139382648D01*
X128179656Y-139396809D01*
X128148471Y-139407967D01*
X128116343Y-139416015D01*
X128083581Y-139420875D01*
X128050500Y-139422500D01*
X127275500Y-139422500D01*
X127242419Y-139420875D01*
X127209657Y-139416015D01*
X127177529Y-139407967D01*
X127146344Y-139396809D01*
X127116404Y-139382648D01*
X127087995Y-139365621D01*
X127061392Y-139345891D01*
X127036851Y-139323649D01*
X127014609Y-139299108D01*
X126994879Y-139272505D01*
X126977852Y-139244096D01*
X126963691Y-139214156D01*
X126952533Y-139182971D01*
X126944485Y-139150843D01*
X126939625Y-139118081D01*
X126938000Y-139085000D01*
X126938000Y-138410000D01*
X126939625Y-138376919D01*
X126944485Y-138344157D01*
X126952533Y-138312029D01*
X126963691Y-138280844D01*
X126977852Y-138250904D01*
X126994879Y-138222495D01*
X127014609Y-138195892D01*
X127036851Y-138171351D01*
X127061392Y-138149109D01*
X127087995Y-138129379D01*
X127116404Y-138112352D01*
X127146344Y-138098191D01*
X127177529Y-138087033D01*
X127209657Y-138078985D01*
X127242419Y-138074125D01*
X127275500Y-138072500D01*
X128050500Y-138072500D01*
X128083581Y-138074125D01*
G37*
G36*
X125021581Y-79908125D02*
G01*
X125054343Y-79912985D01*
X125086471Y-79921033D01*
X125117656Y-79932191D01*
X125147596Y-79946352D01*
X125176005Y-79963379D01*
X125202608Y-79983109D01*
X125227149Y-80005351D01*
X125249391Y-80029892D01*
X125269121Y-80056495D01*
X125286148Y-80084904D01*
X125300309Y-80114844D01*
X125311467Y-80146029D01*
X125319515Y-80178157D01*
X125324375Y-80210919D01*
X125326000Y-80244000D01*
X125326000Y-80919000D01*
X125324375Y-80952081D01*
X125319515Y-80984843D01*
X125311467Y-81016971D01*
X125300309Y-81048156D01*
X125286148Y-81078096D01*
X125269121Y-81106505D01*
X125249391Y-81133108D01*
X125227149Y-81157649D01*
X125202608Y-81179891D01*
X125176005Y-81199621D01*
X125147596Y-81216648D01*
X125117656Y-81230809D01*
X125086471Y-81241967D01*
X125054343Y-81250015D01*
X125021581Y-81254875D01*
X124988500Y-81256500D01*
X124213500Y-81256500D01*
X124180419Y-81254875D01*
X124147657Y-81250015D01*
X124115529Y-81241967D01*
X124084344Y-81230809D01*
X124054404Y-81216648D01*
X124025995Y-81199621D01*
X123999392Y-81179891D01*
X123974851Y-81157649D01*
X123952609Y-81133108D01*
X123932879Y-81106505D01*
X123915852Y-81078096D01*
X123901691Y-81048156D01*
X123890533Y-81016971D01*
X123882485Y-80984843D01*
X123877625Y-80952081D01*
X123876000Y-80919000D01*
X123876000Y-80244000D01*
X123877625Y-80210919D01*
X123882485Y-80178157D01*
X123890533Y-80146029D01*
X123901691Y-80114844D01*
X123915852Y-80084904D01*
X123932879Y-80056495D01*
X123952609Y-80029892D01*
X123974851Y-80005351D01*
X123999392Y-79983109D01*
X124025995Y-79963379D01*
X124054404Y-79946352D01*
X124084344Y-79932191D01*
X124115529Y-79921033D01*
X124147657Y-79912985D01*
X124180419Y-79908125D01*
X124213500Y-79906500D01*
X124988500Y-79906500D01*
X125021581Y-79908125D01*
G37*
G36*
X126771581Y-79908125D02*
G01*
X126804343Y-79912985D01*
X126836471Y-79921033D01*
X126867656Y-79932191D01*
X126897596Y-79946352D01*
X126926005Y-79963379D01*
X126952608Y-79983109D01*
X126977149Y-80005351D01*
X126999391Y-80029892D01*
X127019121Y-80056495D01*
X127036148Y-80084904D01*
X127050309Y-80114844D01*
X127061467Y-80146029D01*
X127069515Y-80178157D01*
X127074375Y-80210919D01*
X127076000Y-80244000D01*
X127076000Y-80919000D01*
X127074375Y-80952081D01*
X127069515Y-80984843D01*
X127061467Y-81016971D01*
X127050309Y-81048156D01*
X127036148Y-81078096D01*
X127019121Y-81106505D01*
X126999391Y-81133108D01*
X126977149Y-81157649D01*
X126952608Y-81179891D01*
X126926005Y-81199621D01*
X126897596Y-81216648D01*
X126867656Y-81230809D01*
X126836471Y-81241967D01*
X126804343Y-81250015D01*
X126771581Y-81254875D01*
X126738500Y-81256500D01*
X125963500Y-81256500D01*
X125930419Y-81254875D01*
X125897657Y-81250015D01*
X125865529Y-81241967D01*
X125834344Y-81230809D01*
X125804404Y-81216648D01*
X125775995Y-81199621D01*
X125749392Y-81179891D01*
X125724851Y-81157649D01*
X125702609Y-81133108D01*
X125682879Y-81106505D01*
X125665852Y-81078096D01*
X125651691Y-81048156D01*
X125640533Y-81016971D01*
X125632485Y-80984843D01*
X125627625Y-80952081D01*
X125626000Y-80919000D01*
X125626000Y-80244000D01*
X125627625Y-80210919D01*
X125632485Y-80178157D01*
X125640533Y-80146029D01*
X125651691Y-80114844D01*
X125665852Y-80084904D01*
X125682879Y-80056495D01*
X125702609Y-80029892D01*
X125724851Y-80005351D01*
X125749392Y-79983109D01*
X125775995Y-79963379D01*
X125804404Y-79946352D01*
X125834344Y-79932191D01*
X125865529Y-79921033D01*
X125897657Y-79912985D01*
X125930419Y-79908125D01*
X125963500Y-79906500D01*
X126738500Y-79906500D01*
X126771581Y-79908125D01*
G37*
G36*
X128005581Y-135978125D02*
G01*
X128038343Y-135982985D01*
X128070471Y-135991033D01*
X128101656Y-136002191D01*
X128131596Y-136016352D01*
X128160005Y-136033379D01*
X128186608Y-136053109D01*
X128211149Y-136075351D01*
X128233391Y-136099892D01*
X128253121Y-136126495D01*
X128270148Y-136154904D01*
X128284309Y-136184844D01*
X128295467Y-136216029D01*
X128303515Y-136248157D01*
X128308375Y-136280919D01*
X128310000Y-136314000D01*
X128310000Y-137089000D01*
X128308375Y-137122081D01*
X128303515Y-137154843D01*
X128295467Y-137186971D01*
X128284309Y-137218156D01*
X128270148Y-137248096D01*
X128253121Y-137276505D01*
X128233391Y-137303108D01*
X128211149Y-137327649D01*
X128186608Y-137349891D01*
X128160005Y-137369621D01*
X128131596Y-137386648D01*
X128101656Y-137400809D01*
X128070471Y-137411967D01*
X128038343Y-137420015D01*
X128005581Y-137424875D01*
X127972500Y-137426500D01*
X127297500Y-137426500D01*
X127264419Y-137424875D01*
X127231657Y-137420015D01*
X127199529Y-137411967D01*
X127168344Y-137400809D01*
X127138404Y-137386648D01*
X127109995Y-137369621D01*
X127083392Y-137349891D01*
X127058851Y-137327649D01*
X127036609Y-137303108D01*
X127016879Y-137276505D01*
X126999852Y-137248096D01*
X126985691Y-137218156D01*
X126974533Y-137186971D01*
X126966485Y-137154843D01*
X126961625Y-137122081D01*
X126960000Y-137089000D01*
X126960000Y-136314000D01*
X126961625Y-136280919D01*
X126966485Y-136248157D01*
X126974533Y-136216029D01*
X126985691Y-136184844D01*
X126999852Y-136154904D01*
X127016879Y-136126495D01*
X127036609Y-136099892D01*
X127058851Y-136075351D01*
X127083392Y-136053109D01*
X127109995Y-136033379D01*
X127138404Y-136016352D01*
X127168344Y-136002191D01*
X127199529Y-135991033D01*
X127231657Y-135982985D01*
X127264419Y-135978125D01*
X127297500Y-135976500D01*
X127972500Y-135976500D01*
X128005581Y-135978125D01*
G37*
G36*
X128005581Y-134228125D02*
G01*
X128038343Y-134232985D01*
X128070471Y-134241033D01*
X128101656Y-134252191D01*
X128131596Y-134266352D01*
X128160005Y-134283379D01*
X128186608Y-134303109D01*
X128211149Y-134325351D01*
X128233391Y-134349892D01*
X128253121Y-134376495D01*
X128270148Y-134404904D01*
X128284309Y-134434844D01*
X128295467Y-134466029D01*
X128303515Y-134498157D01*
X128308375Y-134530919D01*
X128310000Y-134564000D01*
X128310000Y-135339000D01*
X128308375Y-135372081D01*
X128303515Y-135404843D01*
X128295467Y-135436971D01*
X128284309Y-135468156D01*
X128270148Y-135498096D01*
X128253121Y-135526505D01*
X128233391Y-135553108D01*
X128211149Y-135577649D01*
X128186608Y-135599891D01*
X128160005Y-135619621D01*
X128131596Y-135636648D01*
X128101656Y-135650809D01*
X128070471Y-135661967D01*
X128038343Y-135670015D01*
X128005581Y-135674875D01*
X127972500Y-135676500D01*
X127297500Y-135676500D01*
X127264419Y-135674875D01*
X127231657Y-135670015D01*
X127199529Y-135661967D01*
X127168344Y-135650809D01*
X127138404Y-135636648D01*
X127109995Y-135619621D01*
X127083392Y-135599891D01*
X127058851Y-135577649D01*
X127036609Y-135553108D01*
X127016879Y-135526505D01*
X126999852Y-135498096D01*
X126985691Y-135468156D01*
X126974533Y-135436971D01*
X126966485Y-135404843D01*
X126961625Y-135372081D01*
X126960000Y-135339000D01*
X126960000Y-134564000D01*
X126961625Y-134530919D01*
X126966485Y-134498157D01*
X126974533Y-134466029D01*
X126985691Y-134434844D01*
X126999852Y-134404904D01*
X127016879Y-134376495D01*
X127036609Y-134349892D01*
X127058851Y-134325351D01*
X127083392Y-134303109D01*
X127109995Y-134283379D01*
X127138404Y-134266352D01*
X127168344Y-134252191D01*
X127199529Y-134241033D01*
X127231657Y-134232985D01*
X127264419Y-134228125D01*
X127297500Y-134226500D01*
X127972500Y-134226500D01*
X128005581Y-134228125D01*
G37*
G36*
X126735581Y-81904125D02*
G01*
X126768343Y-81908985D01*
X126800471Y-81917033D01*
X126831656Y-81928191D01*
X126861596Y-81942352D01*
X126890005Y-81959379D01*
X126916608Y-81979109D01*
X126941149Y-82001351D01*
X126963391Y-82025892D01*
X126983121Y-82052495D01*
X127000148Y-82080904D01*
X127014309Y-82110844D01*
X127025467Y-82142029D01*
X127033515Y-82174157D01*
X127038375Y-82206919D01*
X127040000Y-82240000D01*
X127040000Y-83015000D01*
X127038375Y-83048081D01*
X127033515Y-83080843D01*
X127025467Y-83112971D01*
X127014309Y-83144156D01*
X127000148Y-83174096D01*
X126983121Y-83202505D01*
X126963391Y-83229108D01*
X126941149Y-83253649D01*
X126916608Y-83275891D01*
X126890005Y-83295621D01*
X126861596Y-83312648D01*
X126831656Y-83326809D01*
X126800471Y-83337967D01*
X126768343Y-83346015D01*
X126735581Y-83350875D01*
X126702500Y-83352500D01*
X126027500Y-83352500D01*
X125994419Y-83350875D01*
X125961657Y-83346015D01*
X125929529Y-83337967D01*
X125898344Y-83326809D01*
X125868404Y-83312648D01*
X125839995Y-83295621D01*
X125813392Y-83275891D01*
X125788851Y-83253649D01*
X125766609Y-83229108D01*
X125746879Y-83202505D01*
X125729852Y-83174096D01*
X125715691Y-83144156D01*
X125704533Y-83112971D01*
X125696485Y-83080843D01*
X125691625Y-83048081D01*
X125690000Y-83015000D01*
X125690000Y-82240000D01*
X125691625Y-82206919D01*
X125696485Y-82174157D01*
X125704533Y-82142029D01*
X125715691Y-82110844D01*
X125729852Y-82080904D01*
X125746879Y-82052495D01*
X125766609Y-82025892D01*
X125788851Y-82001351D01*
X125813392Y-81979109D01*
X125839995Y-81959379D01*
X125868404Y-81942352D01*
X125898344Y-81928191D01*
X125929529Y-81917033D01*
X125961657Y-81908985D01*
X125994419Y-81904125D01*
X126027500Y-81902500D01*
X126702500Y-81902500D01*
X126735581Y-81904125D01*
G37*
G36*
X126735581Y-83654125D02*
G01*
X126768343Y-83658985D01*
X126800471Y-83667033D01*
X126831656Y-83678191D01*
X126861596Y-83692352D01*
X126890005Y-83709379D01*
X126916608Y-83729109D01*
X126941149Y-83751351D01*
X126963391Y-83775892D01*
X126983121Y-83802495D01*
X127000148Y-83830904D01*
X127014309Y-83860844D01*
X127025467Y-83892029D01*
X127033515Y-83924157D01*
X127038375Y-83956919D01*
X127040000Y-83990000D01*
X127040000Y-84765000D01*
X127038375Y-84798081D01*
X127033515Y-84830843D01*
X127025467Y-84862971D01*
X127014309Y-84894156D01*
X127000148Y-84924096D01*
X126983121Y-84952505D01*
X126963391Y-84979108D01*
X126941149Y-85003649D01*
X126916608Y-85025891D01*
X126890005Y-85045621D01*
X126861596Y-85062648D01*
X126831656Y-85076809D01*
X126800471Y-85087967D01*
X126768343Y-85096015D01*
X126735581Y-85100875D01*
X126702500Y-85102500D01*
X126027500Y-85102500D01*
X125994419Y-85100875D01*
X125961657Y-85096015D01*
X125929529Y-85087967D01*
X125898344Y-85076809D01*
X125868404Y-85062648D01*
X125839995Y-85045621D01*
X125813392Y-85025891D01*
X125788851Y-85003649D01*
X125766609Y-84979108D01*
X125746879Y-84952505D01*
X125729852Y-84924096D01*
X125715691Y-84894156D01*
X125704533Y-84862971D01*
X125696485Y-84830843D01*
X125691625Y-84798081D01*
X125690000Y-84765000D01*
X125690000Y-83990000D01*
X125691625Y-83956919D01*
X125696485Y-83924157D01*
X125704533Y-83892029D01*
X125715691Y-83860844D01*
X125729852Y-83830904D01*
X125746879Y-83802495D01*
X125766609Y-83775892D01*
X125788851Y-83751351D01*
X125813392Y-83729109D01*
X125839995Y-83709379D01*
X125868404Y-83692352D01*
X125898344Y-83678191D01*
X125929529Y-83667033D01*
X125961657Y-83658985D01*
X125994419Y-83654125D01*
X126027500Y-83652500D01*
X126702500Y-83652500D01*
X126735581Y-83654125D01*
G37*
G36*
X74638081Y-138010625D02*
G01*
X74670843Y-138015485D01*
X74702971Y-138023533D01*
X74734156Y-138034691D01*
X74764096Y-138048852D01*
X74792505Y-138065879D01*
X74819108Y-138085609D01*
X74843649Y-138107851D01*
X74865891Y-138132392D01*
X74885621Y-138158995D01*
X74902648Y-138187404D01*
X74916809Y-138217344D01*
X74927967Y-138248529D01*
X74936015Y-138280657D01*
X74940875Y-138313419D01*
X74942500Y-138346500D01*
X74942500Y-139021500D01*
X74940875Y-139054581D01*
X74936015Y-139087343D01*
X74927967Y-139119471D01*
X74916809Y-139150656D01*
X74902648Y-139180596D01*
X74885621Y-139209005D01*
X74865891Y-139235608D01*
X74843649Y-139260149D01*
X74819108Y-139282391D01*
X74792505Y-139302121D01*
X74764096Y-139319148D01*
X74734156Y-139333309D01*
X74702971Y-139344467D01*
X74670843Y-139352515D01*
X74638081Y-139357375D01*
X74605000Y-139359000D01*
X73830000Y-139359000D01*
X73796919Y-139357375D01*
X73764157Y-139352515D01*
X73732029Y-139344467D01*
X73700844Y-139333309D01*
X73670904Y-139319148D01*
X73642495Y-139302121D01*
X73615892Y-139282391D01*
X73591351Y-139260149D01*
X73569109Y-139235608D01*
X73549379Y-139209005D01*
X73532352Y-139180596D01*
X73518191Y-139150656D01*
X73507033Y-139119471D01*
X73498985Y-139087343D01*
X73494125Y-139054581D01*
X73492500Y-139021500D01*
X73492500Y-138346500D01*
X73494125Y-138313419D01*
X73498985Y-138280657D01*
X73507033Y-138248529D01*
X73518191Y-138217344D01*
X73532352Y-138187404D01*
X73549379Y-138158995D01*
X73569109Y-138132392D01*
X73591351Y-138107851D01*
X73615892Y-138085609D01*
X73642495Y-138065879D01*
X73670904Y-138048852D01*
X73700844Y-138034691D01*
X73732029Y-138023533D01*
X73764157Y-138015485D01*
X73796919Y-138010625D01*
X73830000Y-138009000D01*
X74605000Y-138009000D01*
X74638081Y-138010625D01*
G37*
G36*
X72888081Y-138010625D02*
G01*
X72920843Y-138015485D01*
X72952971Y-138023533D01*
X72984156Y-138034691D01*
X73014096Y-138048852D01*
X73042505Y-138065879D01*
X73069108Y-138085609D01*
X73093649Y-138107851D01*
X73115891Y-138132392D01*
X73135621Y-138158995D01*
X73152648Y-138187404D01*
X73166809Y-138217344D01*
X73177967Y-138248529D01*
X73186015Y-138280657D01*
X73190875Y-138313419D01*
X73192500Y-138346500D01*
X73192500Y-139021500D01*
X73190875Y-139054581D01*
X73186015Y-139087343D01*
X73177967Y-139119471D01*
X73166809Y-139150656D01*
X73152648Y-139180596D01*
X73135621Y-139209005D01*
X73115891Y-139235608D01*
X73093649Y-139260149D01*
X73069108Y-139282391D01*
X73042505Y-139302121D01*
X73014096Y-139319148D01*
X72984156Y-139333309D01*
X72952971Y-139344467D01*
X72920843Y-139352515D01*
X72888081Y-139357375D01*
X72855000Y-139359000D01*
X72080000Y-139359000D01*
X72046919Y-139357375D01*
X72014157Y-139352515D01*
X71982029Y-139344467D01*
X71950844Y-139333309D01*
X71920904Y-139319148D01*
X71892495Y-139302121D01*
X71865892Y-139282391D01*
X71841351Y-139260149D01*
X71819109Y-139235608D01*
X71799379Y-139209005D01*
X71782352Y-139180596D01*
X71768191Y-139150656D01*
X71757033Y-139119471D01*
X71748985Y-139087343D01*
X71744125Y-139054581D01*
X71742500Y-139021500D01*
X71742500Y-138346500D01*
X71744125Y-138313419D01*
X71748985Y-138280657D01*
X71757033Y-138248529D01*
X71768191Y-138217344D01*
X71782352Y-138187404D01*
X71799379Y-138158995D01*
X71819109Y-138132392D01*
X71841351Y-138107851D01*
X71865892Y-138085609D01*
X71892495Y-138065879D01*
X71920904Y-138048852D01*
X71950844Y-138034691D01*
X71982029Y-138023533D01*
X72014157Y-138015485D01*
X72046919Y-138010625D01*
X72080000Y-138009000D01*
X72855000Y-138009000D01*
X72888081Y-138010625D01*
G37*
G36*
X71703081Y-80035125D02*
G01*
X71735843Y-80039985D01*
X71767971Y-80048033D01*
X71799156Y-80059191D01*
X71829096Y-80073352D01*
X71857505Y-80090379D01*
X71884108Y-80110109D01*
X71908649Y-80132351D01*
X71930891Y-80156892D01*
X71950621Y-80183495D01*
X71967648Y-80211904D01*
X71981809Y-80241844D01*
X71992967Y-80273029D01*
X72001015Y-80305157D01*
X72005875Y-80337919D01*
X72007500Y-80371000D01*
X72007500Y-81046000D01*
X72005875Y-81079081D01*
X72001015Y-81111843D01*
X71992967Y-81143971D01*
X71981809Y-81175156D01*
X71967648Y-81205096D01*
X71950621Y-81233505D01*
X71930891Y-81260108D01*
X71908649Y-81284649D01*
X71884108Y-81306891D01*
X71857505Y-81326621D01*
X71829096Y-81343648D01*
X71799156Y-81357809D01*
X71767971Y-81368967D01*
X71735843Y-81377015D01*
X71703081Y-81381875D01*
X71670000Y-81383500D01*
X70895000Y-81383500D01*
X70861919Y-81381875D01*
X70829157Y-81377015D01*
X70797029Y-81368967D01*
X70765844Y-81357809D01*
X70735904Y-81343648D01*
X70707495Y-81326621D01*
X70680892Y-81306891D01*
X70656351Y-81284649D01*
X70634109Y-81260108D01*
X70614379Y-81233505D01*
X70597352Y-81205096D01*
X70583191Y-81175156D01*
X70572033Y-81143971D01*
X70563985Y-81111843D01*
X70559125Y-81079081D01*
X70557500Y-81046000D01*
X70557500Y-80371000D01*
X70559125Y-80337919D01*
X70563985Y-80305157D01*
X70572033Y-80273029D01*
X70583191Y-80241844D01*
X70597352Y-80211904D01*
X70614379Y-80183495D01*
X70634109Y-80156892D01*
X70656351Y-80132351D01*
X70680892Y-80110109D01*
X70707495Y-80090379D01*
X70735904Y-80073352D01*
X70765844Y-80059191D01*
X70797029Y-80048033D01*
X70829157Y-80039985D01*
X70861919Y-80035125D01*
X70895000Y-80033500D01*
X71670000Y-80033500D01*
X71703081Y-80035125D01*
G37*
G36*
X69953081Y-80035125D02*
G01*
X69985843Y-80039985D01*
X70017971Y-80048033D01*
X70049156Y-80059191D01*
X70079096Y-80073352D01*
X70107505Y-80090379D01*
X70134108Y-80110109D01*
X70158649Y-80132351D01*
X70180891Y-80156892D01*
X70200621Y-80183495D01*
X70217648Y-80211904D01*
X70231809Y-80241844D01*
X70242967Y-80273029D01*
X70251015Y-80305157D01*
X70255875Y-80337919D01*
X70257500Y-80371000D01*
X70257500Y-81046000D01*
X70255875Y-81079081D01*
X70251015Y-81111843D01*
X70242967Y-81143971D01*
X70231809Y-81175156D01*
X70217648Y-81205096D01*
X70200621Y-81233505D01*
X70180891Y-81260108D01*
X70158649Y-81284649D01*
X70134108Y-81306891D01*
X70107505Y-81326621D01*
X70079096Y-81343648D01*
X70049156Y-81357809D01*
X70017971Y-81368967D01*
X69985843Y-81377015D01*
X69953081Y-81381875D01*
X69920000Y-81383500D01*
X69145000Y-81383500D01*
X69111919Y-81381875D01*
X69079157Y-81377015D01*
X69047029Y-81368967D01*
X69015844Y-81357809D01*
X68985904Y-81343648D01*
X68957495Y-81326621D01*
X68930892Y-81306891D01*
X68906351Y-81284649D01*
X68884109Y-81260108D01*
X68864379Y-81233505D01*
X68847352Y-81205096D01*
X68833191Y-81175156D01*
X68822033Y-81143971D01*
X68813985Y-81111843D01*
X68809125Y-81079081D01*
X68807500Y-81046000D01*
X68807500Y-80371000D01*
X68809125Y-80337919D01*
X68813985Y-80305157D01*
X68822033Y-80273029D01*
X68833191Y-80241844D01*
X68847352Y-80211904D01*
X68864379Y-80183495D01*
X68884109Y-80156892D01*
X68906351Y-80132351D01*
X68930892Y-80110109D01*
X68957495Y-80090379D01*
X68985904Y-80073352D01*
X69015844Y-80059191D01*
X69047029Y-80048033D01*
X69079157Y-80039985D01*
X69111919Y-80035125D01*
X69145000Y-80033500D01*
X69920000Y-80033500D01*
X69953081Y-80035125D01*
G37*
G36*
X72760581Y-135964125D02*
G01*
X72793343Y-135968985D01*
X72825471Y-135977033D01*
X72856656Y-135988191D01*
X72886596Y-136002352D01*
X72915005Y-136019379D01*
X72941608Y-136039109D01*
X72966149Y-136061351D01*
X72988391Y-136085892D01*
X73008121Y-136112495D01*
X73025148Y-136140904D01*
X73039309Y-136170844D01*
X73050467Y-136202029D01*
X73058515Y-136234157D01*
X73063375Y-136266919D01*
X73065000Y-136300000D01*
X73065000Y-137075000D01*
X73063375Y-137108081D01*
X73058515Y-137140843D01*
X73050467Y-137172971D01*
X73039309Y-137204156D01*
X73025148Y-137234096D01*
X73008121Y-137262505D01*
X72988391Y-137289108D01*
X72966149Y-137313649D01*
X72941608Y-137335891D01*
X72915005Y-137355621D01*
X72886596Y-137372648D01*
X72856656Y-137386809D01*
X72825471Y-137397967D01*
X72793343Y-137406015D01*
X72760581Y-137410875D01*
X72727500Y-137412500D01*
X72052500Y-137412500D01*
X72019419Y-137410875D01*
X71986657Y-137406015D01*
X71954529Y-137397967D01*
X71923344Y-137386809D01*
X71893404Y-137372648D01*
X71864995Y-137355621D01*
X71838392Y-137335891D01*
X71813851Y-137313649D01*
X71791609Y-137289108D01*
X71771879Y-137262505D01*
X71754852Y-137234096D01*
X71740691Y-137204156D01*
X71729533Y-137172971D01*
X71721485Y-137140843D01*
X71716625Y-137108081D01*
X71715000Y-137075000D01*
X71715000Y-136300000D01*
X71716625Y-136266919D01*
X71721485Y-136234157D01*
X71729533Y-136202029D01*
X71740691Y-136170844D01*
X71754852Y-136140904D01*
X71771879Y-136112495D01*
X71791609Y-136085892D01*
X71813851Y-136061351D01*
X71838392Y-136039109D01*
X71864995Y-136019379D01*
X71893404Y-136002352D01*
X71923344Y-135988191D01*
X71954529Y-135977033D01*
X71986657Y-135968985D01*
X72019419Y-135964125D01*
X72052500Y-135962500D01*
X72727500Y-135962500D01*
X72760581Y-135964125D01*
G37*
G36*
X72760581Y-134214125D02*
G01*
X72793343Y-134218985D01*
X72825471Y-134227033D01*
X72856656Y-134238191D01*
X72886596Y-134252352D01*
X72915005Y-134269379D01*
X72941608Y-134289109D01*
X72966149Y-134311351D01*
X72988391Y-134335892D01*
X73008121Y-134362495D01*
X73025148Y-134390904D01*
X73039309Y-134420844D01*
X73050467Y-134452029D01*
X73058515Y-134484157D01*
X73063375Y-134516919D01*
X73065000Y-134550000D01*
X73065000Y-135325000D01*
X73063375Y-135358081D01*
X73058515Y-135390843D01*
X73050467Y-135422971D01*
X73039309Y-135454156D01*
X73025148Y-135484096D01*
X73008121Y-135512505D01*
X72988391Y-135539108D01*
X72966149Y-135563649D01*
X72941608Y-135585891D01*
X72915005Y-135605621D01*
X72886596Y-135622648D01*
X72856656Y-135636809D01*
X72825471Y-135647967D01*
X72793343Y-135656015D01*
X72760581Y-135660875D01*
X72727500Y-135662500D01*
X72052500Y-135662500D01*
X72019419Y-135660875D01*
X71986657Y-135656015D01*
X71954529Y-135647967D01*
X71923344Y-135636809D01*
X71893404Y-135622648D01*
X71864995Y-135605621D01*
X71838392Y-135585891D01*
X71813851Y-135563649D01*
X71791609Y-135539108D01*
X71771879Y-135512505D01*
X71754852Y-135484096D01*
X71740691Y-135454156D01*
X71729533Y-135422971D01*
X71721485Y-135390843D01*
X71716625Y-135358081D01*
X71715000Y-135325000D01*
X71715000Y-134550000D01*
X71716625Y-134516919D01*
X71721485Y-134484157D01*
X71729533Y-134452029D01*
X71740691Y-134420844D01*
X71754852Y-134390904D01*
X71771879Y-134362495D01*
X71791609Y-134335892D01*
X71813851Y-134311351D01*
X71838392Y-134289109D01*
X71864995Y-134269379D01*
X71893404Y-134252352D01*
X71923344Y-134238191D01*
X71954529Y-134227033D01*
X71986657Y-134218985D01*
X72019419Y-134214125D01*
X72052500Y-134212500D01*
X72727500Y-134212500D01*
X72760581Y-134214125D01*
G37*
G36*
X71681081Y-81904125D02*
G01*
X71713843Y-81908985D01*
X71745971Y-81917033D01*
X71777156Y-81928191D01*
X71807096Y-81942352D01*
X71835505Y-81959379D01*
X71862108Y-81979109D01*
X71886649Y-82001351D01*
X71908891Y-82025892D01*
X71928621Y-82052495D01*
X71945648Y-82080904D01*
X71959809Y-82110844D01*
X71970967Y-82142029D01*
X71979015Y-82174157D01*
X71983875Y-82206919D01*
X71985500Y-82240000D01*
X71985500Y-83015000D01*
X71983875Y-83048081D01*
X71979015Y-83080843D01*
X71970967Y-83112971D01*
X71959809Y-83144156D01*
X71945648Y-83174096D01*
X71928621Y-83202505D01*
X71908891Y-83229108D01*
X71886649Y-83253649D01*
X71862108Y-83275891D01*
X71835505Y-83295621D01*
X71807096Y-83312648D01*
X71777156Y-83326809D01*
X71745971Y-83337967D01*
X71713843Y-83346015D01*
X71681081Y-83350875D01*
X71648000Y-83352500D01*
X70973000Y-83352500D01*
X70939919Y-83350875D01*
X70907157Y-83346015D01*
X70875029Y-83337967D01*
X70843844Y-83326809D01*
X70813904Y-83312648D01*
X70785495Y-83295621D01*
X70758892Y-83275891D01*
X70734351Y-83253649D01*
X70712109Y-83229108D01*
X70692379Y-83202505D01*
X70675352Y-83174096D01*
X70661191Y-83144156D01*
X70650033Y-83112971D01*
X70641985Y-83080843D01*
X70637125Y-83048081D01*
X70635500Y-83015000D01*
X70635500Y-82240000D01*
X70637125Y-82206919D01*
X70641985Y-82174157D01*
X70650033Y-82142029D01*
X70661191Y-82110844D01*
X70675352Y-82080904D01*
X70692379Y-82052495D01*
X70712109Y-82025892D01*
X70734351Y-82001351D01*
X70758892Y-81979109D01*
X70785495Y-81959379D01*
X70813904Y-81942352D01*
X70843844Y-81928191D01*
X70875029Y-81917033D01*
X70907157Y-81908985D01*
X70939919Y-81904125D01*
X70973000Y-81902500D01*
X71648000Y-81902500D01*
X71681081Y-81904125D01*
G37*
G36*
X71681081Y-83654125D02*
G01*
X71713843Y-83658985D01*
X71745971Y-83667033D01*
X71777156Y-83678191D01*
X71807096Y-83692352D01*
X71835505Y-83709379D01*
X71862108Y-83729109D01*
X71886649Y-83751351D01*
X71908891Y-83775892D01*
X71928621Y-83802495D01*
X71945648Y-83830904D01*
X71959809Y-83860844D01*
X71970967Y-83892029D01*
X71979015Y-83924157D01*
X71983875Y-83956919D01*
X71985500Y-83990000D01*
X71985500Y-84765000D01*
X71983875Y-84798081D01*
X71979015Y-84830843D01*
X71970967Y-84862971D01*
X71959809Y-84894156D01*
X71945648Y-84924096D01*
X71928621Y-84952505D01*
X71908891Y-84979108D01*
X71886649Y-85003649D01*
X71862108Y-85025891D01*
X71835505Y-85045621D01*
X71807096Y-85062648D01*
X71777156Y-85076809D01*
X71745971Y-85087967D01*
X71713843Y-85096015D01*
X71681081Y-85100875D01*
X71648000Y-85102500D01*
X70973000Y-85102500D01*
X70939919Y-85100875D01*
X70907157Y-85096015D01*
X70875029Y-85087967D01*
X70843844Y-85076809D01*
X70813904Y-85062648D01*
X70785495Y-85045621D01*
X70758892Y-85025891D01*
X70734351Y-85003649D01*
X70712109Y-84979108D01*
X70692379Y-84952505D01*
X70675352Y-84924096D01*
X70661191Y-84894156D01*
X70650033Y-84862971D01*
X70641985Y-84830843D01*
X70637125Y-84798081D01*
X70635500Y-84765000D01*
X70635500Y-83990000D01*
X70637125Y-83956919D01*
X70641985Y-83924157D01*
X70650033Y-83892029D01*
X70661191Y-83860844D01*
X70675352Y-83830904D01*
X70692379Y-83802495D01*
X70712109Y-83775892D01*
X70734351Y-83751351D01*
X70758892Y-83729109D01*
X70785495Y-83709379D01*
X70813904Y-83692352D01*
X70843844Y-83678191D01*
X70875029Y-83667033D01*
X70907157Y-83658985D01*
X70939919Y-83654125D01*
X70973000Y-83652500D01*
X71648000Y-83652500D01*
X71681081Y-83654125D01*
G37*
G36*
X121882081Y-138010625D02*
G01*
X121914843Y-138015485D01*
X121946971Y-138023533D01*
X121978156Y-138034691D01*
X122008096Y-138048852D01*
X122036505Y-138065879D01*
X122063108Y-138085609D01*
X122087649Y-138107851D01*
X122109891Y-138132392D01*
X122129621Y-138158995D01*
X122146648Y-138187404D01*
X122160809Y-138217344D01*
X122171967Y-138248529D01*
X122180015Y-138280657D01*
X122184875Y-138313419D01*
X122186500Y-138346500D01*
X122186500Y-139021500D01*
X122184875Y-139054581D01*
X122180015Y-139087343D01*
X122171967Y-139119471D01*
X122160809Y-139150656D01*
X122146648Y-139180596D01*
X122129621Y-139209005D01*
X122109891Y-139235608D01*
X122087649Y-139260149D01*
X122063108Y-139282391D01*
X122036505Y-139302121D01*
X122008096Y-139319148D01*
X121978156Y-139333309D01*
X121946971Y-139344467D01*
X121914843Y-139352515D01*
X121882081Y-139357375D01*
X121849000Y-139359000D01*
X121074000Y-139359000D01*
X121040919Y-139357375D01*
X121008157Y-139352515D01*
X120976029Y-139344467D01*
X120944844Y-139333309D01*
X120914904Y-139319148D01*
X120886495Y-139302121D01*
X120859892Y-139282391D01*
X120835351Y-139260149D01*
X120813109Y-139235608D01*
X120793379Y-139209005D01*
X120776352Y-139180596D01*
X120762191Y-139150656D01*
X120751033Y-139119471D01*
X120742985Y-139087343D01*
X120738125Y-139054581D01*
X120736500Y-139021500D01*
X120736500Y-138346500D01*
X120738125Y-138313419D01*
X120742985Y-138280657D01*
X120751033Y-138248529D01*
X120762191Y-138217344D01*
X120776352Y-138187404D01*
X120793379Y-138158995D01*
X120813109Y-138132392D01*
X120835351Y-138107851D01*
X120859892Y-138085609D01*
X120886495Y-138065879D01*
X120914904Y-138048852D01*
X120944844Y-138034691D01*
X120976029Y-138023533D01*
X121008157Y-138015485D01*
X121040919Y-138010625D01*
X121074000Y-138009000D01*
X121849000Y-138009000D01*
X121882081Y-138010625D01*
G37*
G36*
X120132081Y-138010625D02*
G01*
X120164843Y-138015485D01*
X120196971Y-138023533D01*
X120228156Y-138034691D01*
X120258096Y-138048852D01*
X120286505Y-138065879D01*
X120313108Y-138085609D01*
X120337649Y-138107851D01*
X120359891Y-138132392D01*
X120379621Y-138158995D01*
X120396648Y-138187404D01*
X120410809Y-138217344D01*
X120421967Y-138248529D01*
X120430015Y-138280657D01*
X120434875Y-138313419D01*
X120436500Y-138346500D01*
X120436500Y-139021500D01*
X120434875Y-139054581D01*
X120430015Y-139087343D01*
X120421967Y-139119471D01*
X120410809Y-139150656D01*
X120396648Y-139180596D01*
X120379621Y-139209005D01*
X120359891Y-139235608D01*
X120337649Y-139260149D01*
X120313108Y-139282391D01*
X120286505Y-139302121D01*
X120258096Y-139319148D01*
X120228156Y-139333309D01*
X120196971Y-139344467D01*
X120164843Y-139352515D01*
X120132081Y-139357375D01*
X120099000Y-139359000D01*
X119324000Y-139359000D01*
X119290919Y-139357375D01*
X119258157Y-139352515D01*
X119226029Y-139344467D01*
X119194844Y-139333309D01*
X119164904Y-139319148D01*
X119136495Y-139302121D01*
X119109892Y-139282391D01*
X119085351Y-139260149D01*
X119063109Y-139235608D01*
X119043379Y-139209005D01*
X119026352Y-139180596D01*
X119012191Y-139150656D01*
X119001033Y-139119471D01*
X118992985Y-139087343D01*
X118988125Y-139054581D01*
X118986500Y-139021500D01*
X118986500Y-138346500D01*
X118988125Y-138313419D01*
X118992985Y-138280657D01*
X119001033Y-138248529D01*
X119012191Y-138217344D01*
X119026352Y-138187404D01*
X119043379Y-138158995D01*
X119063109Y-138132392D01*
X119085351Y-138107851D01*
X119109892Y-138085609D01*
X119136495Y-138065879D01*
X119164904Y-138048852D01*
X119194844Y-138034691D01*
X119226029Y-138023533D01*
X119258157Y-138015485D01*
X119290919Y-138010625D01*
X119324000Y-138009000D01*
X120099000Y-138009000D01*
X120132081Y-138010625D01*
G37*
G36*
X118961081Y-79908125D02*
G01*
X118993843Y-79912985D01*
X119025971Y-79921033D01*
X119057156Y-79932191D01*
X119087096Y-79946352D01*
X119115505Y-79963379D01*
X119142108Y-79983109D01*
X119166649Y-80005351D01*
X119188891Y-80029892D01*
X119208621Y-80056495D01*
X119225648Y-80084904D01*
X119239809Y-80114844D01*
X119250967Y-80146029D01*
X119259015Y-80178157D01*
X119263875Y-80210919D01*
X119265500Y-80244000D01*
X119265500Y-80919000D01*
X119263875Y-80952081D01*
X119259015Y-80984843D01*
X119250967Y-81016971D01*
X119239809Y-81048156D01*
X119225648Y-81078096D01*
X119208621Y-81106505D01*
X119188891Y-81133108D01*
X119166649Y-81157649D01*
X119142108Y-81179891D01*
X119115505Y-81199621D01*
X119087096Y-81216648D01*
X119057156Y-81230809D01*
X119025971Y-81241967D01*
X118993843Y-81250015D01*
X118961081Y-81254875D01*
X118928000Y-81256500D01*
X118153000Y-81256500D01*
X118119919Y-81254875D01*
X118087157Y-81250015D01*
X118055029Y-81241967D01*
X118023844Y-81230809D01*
X117993904Y-81216648D01*
X117965495Y-81199621D01*
X117938892Y-81179891D01*
X117914351Y-81157649D01*
X117892109Y-81133108D01*
X117872379Y-81106505D01*
X117855352Y-81078096D01*
X117841191Y-81048156D01*
X117830033Y-81016971D01*
X117821985Y-80984843D01*
X117817125Y-80952081D01*
X117815500Y-80919000D01*
X117815500Y-80244000D01*
X117817125Y-80210919D01*
X117821985Y-80178157D01*
X117830033Y-80146029D01*
X117841191Y-80114844D01*
X117855352Y-80084904D01*
X117872379Y-80056495D01*
X117892109Y-80029892D01*
X117914351Y-80005351D01*
X117938892Y-79983109D01*
X117965495Y-79963379D01*
X117993904Y-79946352D01*
X118023844Y-79932191D01*
X118055029Y-79921033D01*
X118087157Y-79912985D01*
X118119919Y-79908125D01*
X118153000Y-79906500D01*
X118928000Y-79906500D01*
X118961081Y-79908125D01*
G37*
G36*
X117211081Y-79908125D02*
G01*
X117243843Y-79912985D01*
X117275971Y-79921033D01*
X117307156Y-79932191D01*
X117337096Y-79946352D01*
X117365505Y-79963379D01*
X117392108Y-79983109D01*
X117416649Y-80005351D01*
X117438891Y-80029892D01*
X117458621Y-80056495D01*
X117475648Y-80084904D01*
X117489809Y-80114844D01*
X117500967Y-80146029D01*
X117509015Y-80178157D01*
X117513875Y-80210919D01*
X117515500Y-80244000D01*
X117515500Y-80919000D01*
X117513875Y-80952081D01*
X117509015Y-80984843D01*
X117500967Y-81016971D01*
X117489809Y-81048156D01*
X117475648Y-81078096D01*
X117458621Y-81106505D01*
X117438891Y-81133108D01*
X117416649Y-81157649D01*
X117392108Y-81179891D01*
X117365505Y-81199621D01*
X117337096Y-81216648D01*
X117307156Y-81230809D01*
X117275971Y-81241967D01*
X117243843Y-81250015D01*
X117211081Y-81254875D01*
X117178000Y-81256500D01*
X116403000Y-81256500D01*
X116369919Y-81254875D01*
X116337157Y-81250015D01*
X116305029Y-81241967D01*
X116273844Y-81230809D01*
X116243904Y-81216648D01*
X116215495Y-81199621D01*
X116188892Y-81179891D01*
X116164351Y-81157649D01*
X116142109Y-81133108D01*
X116122379Y-81106505D01*
X116105352Y-81078096D01*
X116091191Y-81048156D01*
X116080033Y-81016971D01*
X116071985Y-80984843D01*
X116067125Y-80952081D01*
X116065500Y-80919000D01*
X116065500Y-80244000D01*
X116067125Y-80210919D01*
X116071985Y-80178157D01*
X116080033Y-80146029D01*
X116091191Y-80114844D01*
X116105352Y-80084904D01*
X116122379Y-80056495D01*
X116142109Y-80029892D01*
X116164351Y-80005351D01*
X116188892Y-79983109D01*
X116215495Y-79963379D01*
X116243904Y-79946352D01*
X116273844Y-79932191D01*
X116305029Y-79921033D01*
X116337157Y-79912985D01*
X116369919Y-79908125D01*
X116403000Y-79906500D01*
X117178000Y-79906500D01*
X117211081Y-79908125D01*
G37*
G36*
X120068081Y-135978125D02*
G01*
X120100843Y-135982985D01*
X120132971Y-135991033D01*
X120164156Y-136002191D01*
X120194096Y-136016352D01*
X120222505Y-136033379D01*
X120249108Y-136053109D01*
X120273649Y-136075351D01*
X120295891Y-136099892D01*
X120315621Y-136126495D01*
X120332648Y-136154904D01*
X120346809Y-136184844D01*
X120357967Y-136216029D01*
X120366015Y-136248157D01*
X120370875Y-136280919D01*
X120372500Y-136314000D01*
X120372500Y-137089000D01*
X120370875Y-137122081D01*
X120366015Y-137154843D01*
X120357967Y-137186971D01*
X120346809Y-137218156D01*
X120332648Y-137248096D01*
X120315621Y-137276505D01*
X120295891Y-137303108D01*
X120273649Y-137327649D01*
X120249108Y-137349891D01*
X120222505Y-137369621D01*
X120194096Y-137386648D01*
X120164156Y-137400809D01*
X120132971Y-137411967D01*
X120100843Y-137420015D01*
X120068081Y-137424875D01*
X120035000Y-137426500D01*
X119360000Y-137426500D01*
X119326919Y-137424875D01*
X119294157Y-137420015D01*
X119262029Y-137411967D01*
X119230844Y-137400809D01*
X119200904Y-137386648D01*
X119172495Y-137369621D01*
X119145892Y-137349891D01*
X119121351Y-137327649D01*
X119099109Y-137303108D01*
X119079379Y-137276505D01*
X119062352Y-137248096D01*
X119048191Y-137218156D01*
X119037033Y-137186971D01*
X119028985Y-137154843D01*
X119024125Y-137122081D01*
X119022500Y-137089000D01*
X119022500Y-136314000D01*
X119024125Y-136280919D01*
X119028985Y-136248157D01*
X119037033Y-136216029D01*
X119048191Y-136184844D01*
X119062352Y-136154904D01*
X119079379Y-136126495D01*
X119099109Y-136099892D01*
X119121351Y-136075351D01*
X119145892Y-136053109D01*
X119172495Y-136033379D01*
X119200904Y-136016352D01*
X119230844Y-136002191D01*
X119262029Y-135991033D01*
X119294157Y-135982985D01*
X119326919Y-135978125D01*
X119360000Y-135976500D01*
X120035000Y-135976500D01*
X120068081Y-135978125D01*
G37*
G36*
X120068081Y-134228125D02*
G01*
X120100843Y-134232985D01*
X120132971Y-134241033D01*
X120164156Y-134252191D01*
X120194096Y-134266352D01*
X120222505Y-134283379D01*
X120249108Y-134303109D01*
X120273649Y-134325351D01*
X120295891Y-134349892D01*
X120315621Y-134376495D01*
X120332648Y-134404904D01*
X120346809Y-134434844D01*
X120357967Y-134466029D01*
X120366015Y-134498157D01*
X120370875Y-134530919D01*
X120372500Y-134564000D01*
X120372500Y-135339000D01*
X120370875Y-135372081D01*
X120366015Y-135404843D01*
X120357967Y-135436971D01*
X120346809Y-135468156D01*
X120332648Y-135498096D01*
X120315621Y-135526505D01*
X120295891Y-135553108D01*
X120273649Y-135577649D01*
X120249108Y-135599891D01*
X120222505Y-135619621D01*
X120194096Y-135636648D01*
X120164156Y-135650809D01*
X120132971Y-135661967D01*
X120100843Y-135670015D01*
X120068081Y-135674875D01*
X120035000Y-135676500D01*
X119360000Y-135676500D01*
X119326919Y-135674875D01*
X119294157Y-135670015D01*
X119262029Y-135661967D01*
X119230844Y-135650809D01*
X119200904Y-135636648D01*
X119172495Y-135619621D01*
X119145892Y-135599891D01*
X119121351Y-135577649D01*
X119099109Y-135553108D01*
X119079379Y-135526505D01*
X119062352Y-135498096D01*
X119048191Y-135468156D01*
X119037033Y-135436971D01*
X119028985Y-135404843D01*
X119024125Y-135372081D01*
X119022500Y-135339000D01*
X119022500Y-134564000D01*
X119024125Y-134530919D01*
X119028985Y-134498157D01*
X119037033Y-134466029D01*
X119048191Y-134434844D01*
X119062352Y-134404904D01*
X119079379Y-134376495D01*
X119099109Y-134349892D01*
X119121351Y-134325351D01*
X119145892Y-134303109D01*
X119172495Y-134283379D01*
X119200904Y-134266352D01*
X119230844Y-134252191D01*
X119262029Y-134241033D01*
X119294157Y-134232985D01*
X119326919Y-134228125D01*
X119360000Y-134226500D01*
X120035000Y-134226500D01*
X120068081Y-134228125D01*
G37*
G36*
X118925081Y-83654125D02*
G01*
X118957843Y-83658985D01*
X118989971Y-83667033D01*
X119021156Y-83678191D01*
X119051096Y-83692352D01*
X119079505Y-83709379D01*
X119106108Y-83729109D01*
X119130649Y-83751351D01*
X119152891Y-83775892D01*
X119172621Y-83802495D01*
X119189648Y-83830904D01*
X119203809Y-83860844D01*
X119214967Y-83892029D01*
X119223015Y-83924157D01*
X119227875Y-83956919D01*
X119229500Y-83990000D01*
X119229500Y-84765000D01*
X119227875Y-84798081D01*
X119223015Y-84830843D01*
X119214967Y-84862971D01*
X119203809Y-84894156D01*
X119189648Y-84924096D01*
X119172621Y-84952505D01*
X119152891Y-84979108D01*
X119130649Y-85003649D01*
X119106108Y-85025891D01*
X119079505Y-85045621D01*
X119051096Y-85062648D01*
X119021156Y-85076809D01*
X118989971Y-85087967D01*
X118957843Y-85096015D01*
X118925081Y-85100875D01*
X118892000Y-85102500D01*
X118217000Y-85102500D01*
X118183919Y-85100875D01*
X118151157Y-85096015D01*
X118119029Y-85087967D01*
X118087844Y-85076809D01*
X118057904Y-85062648D01*
X118029495Y-85045621D01*
X118002892Y-85025891D01*
X117978351Y-85003649D01*
X117956109Y-84979108D01*
X117936379Y-84952505D01*
X117919352Y-84924096D01*
X117905191Y-84894156D01*
X117894033Y-84862971D01*
X117885985Y-84830843D01*
X117881125Y-84798081D01*
X117879500Y-84765000D01*
X117879500Y-83990000D01*
X117881125Y-83956919D01*
X117885985Y-83924157D01*
X117894033Y-83892029D01*
X117905191Y-83860844D01*
X117919352Y-83830904D01*
X117936379Y-83802495D01*
X117956109Y-83775892D01*
X117978351Y-83751351D01*
X118002892Y-83729109D01*
X118029495Y-83709379D01*
X118057904Y-83692352D01*
X118087844Y-83678191D01*
X118119029Y-83667033D01*
X118151157Y-83658985D01*
X118183919Y-83654125D01*
X118217000Y-83652500D01*
X118892000Y-83652500D01*
X118925081Y-83654125D01*
G37*
G36*
X118925081Y-81904125D02*
G01*
X118957843Y-81908985D01*
X118989971Y-81917033D01*
X119021156Y-81928191D01*
X119051096Y-81942352D01*
X119079505Y-81959379D01*
X119106108Y-81979109D01*
X119130649Y-82001351D01*
X119152891Y-82025892D01*
X119172621Y-82052495D01*
X119189648Y-82080904D01*
X119203809Y-82110844D01*
X119214967Y-82142029D01*
X119223015Y-82174157D01*
X119227875Y-82206919D01*
X119229500Y-82240000D01*
X119229500Y-83015000D01*
X119227875Y-83048081D01*
X119223015Y-83080843D01*
X119214967Y-83112971D01*
X119203809Y-83144156D01*
X119189648Y-83174096D01*
X119172621Y-83202505D01*
X119152891Y-83229108D01*
X119130649Y-83253649D01*
X119106108Y-83275891D01*
X119079505Y-83295621D01*
X119051096Y-83312648D01*
X119021156Y-83326809D01*
X118989971Y-83337967D01*
X118957843Y-83346015D01*
X118925081Y-83350875D01*
X118892000Y-83352500D01*
X118217000Y-83352500D01*
X118183919Y-83350875D01*
X118151157Y-83346015D01*
X118119029Y-83337967D01*
X118087844Y-83326809D01*
X118057904Y-83312648D01*
X118029495Y-83295621D01*
X118002892Y-83275891D01*
X117978351Y-83253649D01*
X117956109Y-83229108D01*
X117936379Y-83202505D01*
X117919352Y-83174096D01*
X117905191Y-83144156D01*
X117894033Y-83112971D01*
X117885985Y-83080843D01*
X117881125Y-83048081D01*
X117879500Y-83015000D01*
X117879500Y-82240000D01*
X117881125Y-82206919D01*
X117885985Y-82174157D01*
X117894033Y-82142029D01*
X117905191Y-82110844D01*
X117919352Y-82080904D01*
X117936379Y-82052495D01*
X117956109Y-82025892D01*
X117978351Y-82001351D01*
X118002892Y-81979109D01*
X118029495Y-81959379D01*
X118057904Y-81942352D01*
X118087844Y-81928191D01*
X118119029Y-81917033D01*
X118151157Y-81908985D01*
X118183919Y-81904125D01*
X118217000Y-81902500D01*
X118892000Y-81902500D01*
X118925081Y-81904125D01*
G37*
G36*
X80762081Y-138010625D02*
G01*
X80794843Y-138015485D01*
X80826971Y-138023533D01*
X80858156Y-138034691D01*
X80888096Y-138048852D01*
X80916505Y-138065879D01*
X80943108Y-138085609D01*
X80967649Y-138107851D01*
X80989891Y-138132392D01*
X81009621Y-138158995D01*
X81026648Y-138187404D01*
X81040809Y-138217344D01*
X81051967Y-138248529D01*
X81060015Y-138280657D01*
X81064875Y-138313419D01*
X81066500Y-138346500D01*
X81066500Y-139021500D01*
X81064875Y-139054581D01*
X81060015Y-139087343D01*
X81051967Y-139119471D01*
X81040809Y-139150656D01*
X81026648Y-139180596D01*
X81009621Y-139209005D01*
X80989891Y-139235608D01*
X80967649Y-139260149D01*
X80943108Y-139282391D01*
X80916505Y-139302121D01*
X80888096Y-139319148D01*
X80858156Y-139333309D01*
X80826971Y-139344467D01*
X80794843Y-139352515D01*
X80762081Y-139357375D01*
X80729000Y-139359000D01*
X79954000Y-139359000D01*
X79920919Y-139357375D01*
X79888157Y-139352515D01*
X79856029Y-139344467D01*
X79824844Y-139333309D01*
X79794904Y-139319148D01*
X79766495Y-139302121D01*
X79739892Y-139282391D01*
X79715351Y-139260149D01*
X79693109Y-139235608D01*
X79673379Y-139209005D01*
X79656352Y-139180596D01*
X79642191Y-139150656D01*
X79631033Y-139119471D01*
X79622985Y-139087343D01*
X79618125Y-139054581D01*
X79616500Y-139021500D01*
X79616500Y-138346500D01*
X79618125Y-138313419D01*
X79622985Y-138280657D01*
X79631033Y-138248529D01*
X79642191Y-138217344D01*
X79656352Y-138187404D01*
X79673379Y-138158995D01*
X79693109Y-138132392D01*
X79715351Y-138107851D01*
X79739892Y-138085609D01*
X79766495Y-138065879D01*
X79794904Y-138048852D01*
X79824844Y-138034691D01*
X79856029Y-138023533D01*
X79888157Y-138015485D01*
X79920919Y-138010625D01*
X79954000Y-138009000D01*
X80729000Y-138009000D01*
X80762081Y-138010625D01*
G37*
G36*
X82512081Y-138010625D02*
G01*
X82544843Y-138015485D01*
X82576971Y-138023533D01*
X82608156Y-138034691D01*
X82638096Y-138048852D01*
X82666505Y-138065879D01*
X82693108Y-138085609D01*
X82717649Y-138107851D01*
X82739891Y-138132392D01*
X82759621Y-138158995D01*
X82776648Y-138187404D01*
X82790809Y-138217344D01*
X82801967Y-138248529D01*
X82810015Y-138280657D01*
X82814875Y-138313419D01*
X82816500Y-138346500D01*
X82816500Y-139021500D01*
X82814875Y-139054581D01*
X82810015Y-139087343D01*
X82801967Y-139119471D01*
X82790809Y-139150656D01*
X82776648Y-139180596D01*
X82759621Y-139209005D01*
X82739891Y-139235608D01*
X82717649Y-139260149D01*
X82693108Y-139282391D01*
X82666505Y-139302121D01*
X82638096Y-139319148D01*
X82608156Y-139333309D01*
X82576971Y-139344467D01*
X82544843Y-139352515D01*
X82512081Y-139357375D01*
X82479000Y-139359000D01*
X81704000Y-139359000D01*
X81670919Y-139357375D01*
X81638157Y-139352515D01*
X81606029Y-139344467D01*
X81574844Y-139333309D01*
X81544904Y-139319148D01*
X81516495Y-139302121D01*
X81489892Y-139282391D01*
X81465351Y-139260149D01*
X81443109Y-139235608D01*
X81423379Y-139209005D01*
X81406352Y-139180596D01*
X81392191Y-139150656D01*
X81381033Y-139119471D01*
X81372985Y-139087343D01*
X81368125Y-139054581D01*
X81366500Y-139021500D01*
X81366500Y-138346500D01*
X81368125Y-138313419D01*
X81372985Y-138280657D01*
X81381033Y-138248529D01*
X81392191Y-138217344D01*
X81406352Y-138187404D01*
X81423379Y-138158995D01*
X81443109Y-138132392D01*
X81465351Y-138107851D01*
X81489892Y-138085609D01*
X81516495Y-138065879D01*
X81544904Y-138048852D01*
X81574844Y-138034691D01*
X81606029Y-138023533D01*
X81638157Y-138015485D01*
X81670919Y-138010625D01*
X81704000Y-138009000D01*
X82479000Y-138009000D01*
X82512081Y-138010625D01*
G37*
G36*
X79577081Y-80035125D02*
G01*
X79609843Y-80039985D01*
X79641971Y-80048033D01*
X79673156Y-80059191D01*
X79703096Y-80073352D01*
X79731505Y-80090379D01*
X79758108Y-80110109D01*
X79782649Y-80132351D01*
X79804891Y-80156892D01*
X79824621Y-80183495D01*
X79841648Y-80211904D01*
X79855809Y-80241844D01*
X79866967Y-80273029D01*
X79875015Y-80305157D01*
X79879875Y-80337919D01*
X79881500Y-80371000D01*
X79881500Y-81046000D01*
X79879875Y-81079081D01*
X79875015Y-81111843D01*
X79866967Y-81143971D01*
X79855809Y-81175156D01*
X79841648Y-81205096D01*
X79824621Y-81233505D01*
X79804891Y-81260108D01*
X79782649Y-81284649D01*
X79758108Y-81306891D01*
X79731505Y-81326621D01*
X79703096Y-81343648D01*
X79673156Y-81357809D01*
X79641971Y-81368967D01*
X79609843Y-81377015D01*
X79577081Y-81381875D01*
X79544000Y-81383500D01*
X78769000Y-81383500D01*
X78735919Y-81381875D01*
X78703157Y-81377015D01*
X78671029Y-81368967D01*
X78639844Y-81357809D01*
X78609904Y-81343648D01*
X78581495Y-81326621D01*
X78554892Y-81306891D01*
X78530351Y-81284649D01*
X78508109Y-81260108D01*
X78488379Y-81233505D01*
X78471352Y-81205096D01*
X78457191Y-81175156D01*
X78446033Y-81143971D01*
X78437985Y-81111843D01*
X78433125Y-81079081D01*
X78431500Y-81046000D01*
X78431500Y-80371000D01*
X78433125Y-80337919D01*
X78437985Y-80305157D01*
X78446033Y-80273029D01*
X78457191Y-80241844D01*
X78471352Y-80211904D01*
X78488379Y-80183495D01*
X78508109Y-80156892D01*
X78530351Y-80132351D01*
X78554892Y-80110109D01*
X78581495Y-80090379D01*
X78609904Y-80073352D01*
X78639844Y-80059191D01*
X78671029Y-80048033D01*
X78703157Y-80039985D01*
X78735919Y-80035125D01*
X78769000Y-80033500D01*
X79544000Y-80033500D01*
X79577081Y-80035125D01*
G37*
G36*
X77827081Y-80035125D02*
G01*
X77859843Y-80039985D01*
X77891971Y-80048033D01*
X77923156Y-80059191D01*
X77953096Y-80073352D01*
X77981505Y-80090379D01*
X78008108Y-80110109D01*
X78032649Y-80132351D01*
X78054891Y-80156892D01*
X78074621Y-80183495D01*
X78091648Y-80211904D01*
X78105809Y-80241844D01*
X78116967Y-80273029D01*
X78125015Y-80305157D01*
X78129875Y-80337919D01*
X78131500Y-80371000D01*
X78131500Y-81046000D01*
X78129875Y-81079081D01*
X78125015Y-81111843D01*
X78116967Y-81143971D01*
X78105809Y-81175156D01*
X78091648Y-81205096D01*
X78074621Y-81233505D01*
X78054891Y-81260108D01*
X78032649Y-81284649D01*
X78008108Y-81306891D01*
X77981505Y-81326621D01*
X77953096Y-81343648D01*
X77923156Y-81357809D01*
X77891971Y-81368967D01*
X77859843Y-81377015D01*
X77827081Y-81381875D01*
X77794000Y-81383500D01*
X77019000Y-81383500D01*
X76985919Y-81381875D01*
X76953157Y-81377015D01*
X76921029Y-81368967D01*
X76889844Y-81357809D01*
X76859904Y-81343648D01*
X76831495Y-81326621D01*
X76804892Y-81306891D01*
X76780351Y-81284649D01*
X76758109Y-81260108D01*
X76738379Y-81233505D01*
X76721352Y-81205096D01*
X76707191Y-81175156D01*
X76696033Y-81143971D01*
X76687985Y-81111843D01*
X76683125Y-81079081D01*
X76681500Y-81046000D01*
X76681500Y-80371000D01*
X76683125Y-80337919D01*
X76687985Y-80305157D01*
X76696033Y-80273029D01*
X76707191Y-80241844D01*
X76721352Y-80211904D01*
X76738379Y-80183495D01*
X76758109Y-80156892D01*
X76780351Y-80132351D01*
X76804892Y-80110109D01*
X76831495Y-80090379D01*
X76859904Y-80073352D01*
X76889844Y-80059191D01*
X76921029Y-80048033D01*
X76953157Y-80039985D01*
X76985919Y-80035125D01*
X77019000Y-80033500D01*
X77794000Y-80033500D01*
X77827081Y-80035125D01*
G37*
G36*
X80698081Y-134228125D02*
G01*
X80730843Y-134232985D01*
X80762971Y-134241033D01*
X80794156Y-134252191D01*
X80824096Y-134266352D01*
X80852505Y-134283379D01*
X80879108Y-134303109D01*
X80903649Y-134325351D01*
X80925891Y-134349892D01*
X80945621Y-134376495D01*
X80962648Y-134404904D01*
X80976809Y-134434844D01*
X80987967Y-134466029D01*
X80996015Y-134498157D01*
X81000875Y-134530919D01*
X81002500Y-134564000D01*
X81002500Y-135339000D01*
X81000875Y-135372081D01*
X80996015Y-135404843D01*
X80987967Y-135436971D01*
X80976809Y-135468156D01*
X80962648Y-135498096D01*
X80945621Y-135526505D01*
X80925891Y-135553108D01*
X80903649Y-135577649D01*
X80879108Y-135599891D01*
X80852505Y-135619621D01*
X80824096Y-135636648D01*
X80794156Y-135650809D01*
X80762971Y-135661967D01*
X80730843Y-135670015D01*
X80698081Y-135674875D01*
X80665000Y-135676500D01*
X79990000Y-135676500D01*
X79956919Y-135674875D01*
X79924157Y-135670015D01*
X79892029Y-135661967D01*
X79860844Y-135650809D01*
X79830904Y-135636648D01*
X79802495Y-135619621D01*
X79775892Y-135599891D01*
X79751351Y-135577649D01*
X79729109Y-135553108D01*
X79709379Y-135526505D01*
X79692352Y-135498096D01*
X79678191Y-135468156D01*
X79667033Y-135436971D01*
X79658985Y-135404843D01*
X79654125Y-135372081D01*
X79652500Y-135339000D01*
X79652500Y-134564000D01*
X79654125Y-134530919D01*
X79658985Y-134498157D01*
X79667033Y-134466029D01*
X79678191Y-134434844D01*
X79692352Y-134404904D01*
X79709379Y-134376495D01*
X79729109Y-134349892D01*
X79751351Y-134325351D01*
X79775892Y-134303109D01*
X79802495Y-134283379D01*
X79830904Y-134266352D01*
X79860844Y-134252191D01*
X79892029Y-134241033D01*
X79924157Y-134232985D01*
X79956919Y-134228125D01*
X79990000Y-134226500D01*
X80665000Y-134226500D01*
X80698081Y-134228125D01*
G37*
G36*
X80698081Y-135978125D02*
G01*
X80730843Y-135982985D01*
X80762971Y-135991033D01*
X80794156Y-136002191D01*
X80824096Y-136016352D01*
X80852505Y-136033379D01*
X80879108Y-136053109D01*
X80903649Y-136075351D01*
X80925891Y-136099892D01*
X80945621Y-136126495D01*
X80962648Y-136154904D01*
X80976809Y-136184844D01*
X80987967Y-136216029D01*
X80996015Y-136248157D01*
X81000875Y-136280919D01*
X81002500Y-136314000D01*
X81002500Y-137089000D01*
X81000875Y-137122081D01*
X80996015Y-137154843D01*
X80987967Y-137186971D01*
X80976809Y-137218156D01*
X80962648Y-137248096D01*
X80945621Y-137276505D01*
X80925891Y-137303108D01*
X80903649Y-137327649D01*
X80879108Y-137349891D01*
X80852505Y-137369621D01*
X80824096Y-137386648D01*
X80794156Y-137400809D01*
X80762971Y-137411967D01*
X80730843Y-137420015D01*
X80698081Y-137424875D01*
X80665000Y-137426500D01*
X79990000Y-137426500D01*
X79956919Y-137424875D01*
X79924157Y-137420015D01*
X79892029Y-137411967D01*
X79860844Y-137400809D01*
X79830904Y-137386648D01*
X79802495Y-137369621D01*
X79775892Y-137349891D01*
X79751351Y-137327649D01*
X79729109Y-137303108D01*
X79709379Y-137276505D01*
X79692352Y-137248096D01*
X79678191Y-137218156D01*
X79667033Y-137186971D01*
X79658985Y-137154843D01*
X79654125Y-137122081D01*
X79652500Y-137089000D01*
X79652500Y-136314000D01*
X79654125Y-136280919D01*
X79658985Y-136248157D01*
X79667033Y-136216029D01*
X79678191Y-136184844D01*
X79692352Y-136154904D01*
X79709379Y-136126495D01*
X79729109Y-136099892D01*
X79751351Y-136075351D01*
X79775892Y-136053109D01*
X79802495Y-136033379D01*
X79830904Y-136016352D01*
X79860844Y-136002191D01*
X79892029Y-135991033D01*
X79924157Y-135982985D01*
X79956919Y-135978125D01*
X79990000Y-135976500D01*
X80665000Y-135976500D01*
X80698081Y-135978125D01*
G37*
G36*
X79555081Y-83654125D02*
G01*
X79587843Y-83658985D01*
X79619971Y-83667033D01*
X79651156Y-83678191D01*
X79681096Y-83692352D01*
X79709505Y-83709379D01*
X79736108Y-83729109D01*
X79760649Y-83751351D01*
X79782891Y-83775892D01*
X79802621Y-83802495D01*
X79819648Y-83830904D01*
X79833809Y-83860844D01*
X79844967Y-83892029D01*
X79853015Y-83924157D01*
X79857875Y-83956919D01*
X79859500Y-83990000D01*
X79859500Y-84765000D01*
X79857875Y-84798081D01*
X79853015Y-84830843D01*
X79844967Y-84862971D01*
X79833809Y-84894156D01*
X79819648Y-84924096D01*
X79802621Y-84952505D01*
X79782891Y-84979108D01*
X79760649Y-85003649D01*
X79736108Y-85025891D01*
X79709505Y-85045621D01*
X79681096Y-85062648D01*
X79651156Y-85076809D01*
X79619971Y-85087967D01*
X79587843Y-85096015D01*
X79555081Y-85100875D01*
X79522000Y-85102500D01*
X78847000Y-85102500D01*
X78813919Y-85100875D01*
X78781157Y-85096015D01*
X78749029Y-85087967D01*
X78717844Y-85076809D01*
X78687904Y-85062648D01*
X78659495Y-85045621D01*
X78632892Y-85025891D01*
X78608351Y-85003649D01*
X78586109Y-84979108D01*
X78566379Y-84952505D01*
X78549352Y-84924096D01*
X78535191Y-84894156D01*
X78524033Y-84862971D01*
X78515985Y-84830843D01*
X78511125Y-84798081D01*
X78509500Y-84765000D01*
X78509500Y-83990000D01*
X78511125Y-83956919D01*
X78515985Y-83924157D01*
X78524033Y-83892029D01*
X78535191Y-83860844D01*
X78549352Y-83830904D01*
X78566379Y-83802495D01*
X78586109Y-83775892D01*
X78608351Y-83751351D01*
X78632892Y-83729109D01*
X78659495Y-83709379D01*
X78687904Y-83692352D01*
X78717844Y-83678191D01*
X78749029Y-83667033D01*
X78781157Y-83658985D01*
X78813919Y-83654125D01*
X78847000Y-83652500D01*
X79522000Y-83652500D01*
X79555081Y-83654125D01*
G37*
G36*
X79555081Y-81904125D02*
G01*
X79587843Y-81908985D01*
X79619971Y-81917033D01*
X79651156Y-81928191D01*
X79681096Y-81942352D01*
X79709505Y-81959379D01*
X79736108Y-81979109D01*
X79760649Y-82001351D01*
X79782891Y-82025892D01*
X79802621Y-82052495D01*
X79819648Y-82080904D01*
X79833809Y-82110844D01*
X79844967Y-82142029D01*
X79853015Y-82174157D01*
X79857875Y-82206919D01*
X79859500Y-82240000D01*
X79859500Y-83015000D01*
X79857875Y-83048081D01*
X79853015Y-83080843D01*
X79844967Y-83112971D01*
X79833809Y-83144156D01*
X79819648Y-83174096D01*
X79802621Y-83202505D01*
X79782891Y-83229108D01*
X79760649Y-83253649D01*
X79736108Y-83275891D01*
X79709505Y-83295621D01*
X79681096Y-83312648D01*
X79651156Y-83326809D01*
X79619971Y-83337967D01*
X79587843Y-83346015D01*
X79555081Y-83350875D01*
X79522000Y-83352500D01*
X78847000Y-83352500D01*
X78813919Y-83350875D01*
X78781157Y-83346015D01*
X78749029Y-83337967D01*
X78717844Y-83326809D01*
X78687904Y-83312648D01*
X78659495Y-83295621D01*
X78632892Y-83275891D01*
X78608351Y-83253649D01*
X78586109Y-83229108D01*
X78566379Y-83202505D01*
X78549352Y-83174096D01*
X78535191Y-83144156D01*
X78524033Y-83112971D01*
X78515985Y-83080843D01*
X78511125Y-83048081D01*
X78509500Y-83015000D01*
X78509500Y-82240000D01*
X78511125Y-82206919D01*
X78515985Y-82174157D01*
X78524033Y-82142029D01*
X78535191Y-82110844D01*
X78549352Y-82080904D01*
X78566379Y-82052495D01*
X78586109Y-82025892D01*
X78608351Y-82001351D01*
X78632892Y-81979109D01*
X78659495Y-81959379D01*
X78687904Y-81942352D01*
X78717844Y-81928191D01*
X78749029Y-81917033D01*
X78781157Y-81908985D01*
X78813919Y-81904125D01*
X78847000Y-81902500D01*
X79522000Y-81902500D01*
X79555081Y-81904125D01*
G37*
G36*
X112321581Y-138010625D02*
G01*
X112354343Y-138015485D01*
X112386471Y-138023533D01*
X112417656Y-138034691D01*
X112447596Y-138048852D01*
X112476005Y-138065879D01*
X112502608Y-138085609D01*
X112527149Y-138107851D01*
X112549391Y-138132392D01*
X112569121Y-138158995D01*
X112586148Y-138187404D01*
X112600309Y-138217344D01*
X112611467Y-138248529D01*
X112619515Y-138280657D01*
X112624375Y-138313419D01*
X112626000Y-138346500D01*
X112626000Y-139021500D01*
X112624375Y-139054581D01*
X112619515Y-139087343D01*
X112611467Y-139119471D01*
X112600309Y-139150656D01*
X112586148Y-139180596D01*
X112569121Y-139209005D01*
X112549391Y-139235608D01*
X112527149Y-139260149D01*
X112502608Y-139282391D01*
X112476005Y-139302121D01*
X112447596Y-139319148D01*
X112417656Y-139333309D01*
X112386471Y-139344467D01*
X112354343Y-139352515D01*
X112321581Y-139357375D01*
X112288500Y-139359000D01*
X111513500Y-139359000D01*
X111480419Y-139357375D01*
X111447657Y-139352515D01*
X111415529Y-139344467D01*
X111384344Y-139333309D01*
X111354404Y-139319148D01*
X111325995Y-139302121D01*
X111299392Y-139282391D01*
X111274851Y-139260149D01*
X111252609Y-139235608D01*
X111232879Y-139209005D01*
X111215852Y-139180596D01*
X111201691Y-139150656D01*
X111190533Y-139119471D01*
X111182485Y-139087343D01*
X111177625Y-139054581D01*
X111176000Y-139021500D01*
X111176000Y-138346500D01*
X111177625Y-138313419D01*
X111182485Y-138280657D01*
X111190533Y-138248529D01*
X111201691Y-138217344D01*
X111215852Y-138187404D01*
X111232879Y-138158995D01*
X111252609Y-138132392D01*
X111274851Y-138107851D01*
X111299392Y-138085609D01*
X111325995Y-138065879D01*
X111354404Y-138048852D01*
X111384344Y-138034691D01*
X111415529Y-138023533D01*
X111447657Y-138015485D01*
X111480419Y-138010625D01*
X111513500Y-138009000D01*
X112288500Y-138009000D01*
X112321581Y-138010625D01*
G37*
G36*
X114071581Y-138010625D02*
G01*
X114104343Y-138015485D01*
X114136471Y-138023533D01*
X114167656Y-138034691D01*
X114197596Y-138048852D01*
X114226005Y-138065879D01*
X114252608Y-138085609D01*
X114277149Y-138107851D01*
X114299391Y-138132392D01*
X114319121Y-138158995D01*
X114336148Y-138187404D01*
X114350309Y-138217344D01*
X114361467Y-138248529D01*
X114369515Y-138280657D01*
X114374375Y-138313419D01*
X114376000Y-138346500D01*
X114376000Y-139021500D01*
X114374375Y-139054581D01*
X114369515Y-139087343D01*
X114361467Y-139119471D01*
X114350309Y-139150656D01*
X114336148Y-139180596D01*
X114319121Y-139209005D01*
X114299391Y-139235608D01*
X114277149Y-139260149D01*
X114252608Y-139282391D01*
X114226005Y-139302121D01*
X114197596Y-139319148D01*
X114167656Y-139333309D01*
X114136471Y-139344467D01*
X114104343Y-139352515D01*
X114071581Y-139357375D01*
X114038500Y-139359000D01*
X113263500Y-139359000D01*
X113230419Y-139357375D01*
X113197657Y-139352515D01*
X113165529Y-139344467D01*
X113134344Y-139333309D01*
X113104404Y-139319148D01*
X113075995Y-139302121D01*
X113049392Y-139282391D01*
X113024851Y-139260149D01*
X113002609Y-139235608D01*
X112982879Y-139209005D01*
X112965852Y-139180596D01*
X112951691Y-139150656D01*
X112940533Y-139119471D01*
X112932485Y-139087343D01*
X112927625Y-139054581D01*
X112926000Y-139021500D01*
X112926000Y-138346500D01*
X112927625Y-138313419D01*
X112932485Y-138280657D01*
X112940533Y-138248529D01*
X112951691Y-138217344D01*
X112965852Y-138187404D01*
X112982879Y-138158995D01*
X113002609Y-138132392D01*
X113024851Y-138107851D01*
X113049392Y-138085609D01*
X113075995Y-138065879D01*
X113104404Y-138048852D01*
X113134344Y-138034691D01*
X113165529Y-138023533D01*
X113197657Y-138015485D01*
X113230419Y-138010625D01*
X113263500Y-138009000D01*
X114038500Y-138009000D01*
X114071581Y-138010625D01*
G37*
G36*
X109386581Y-79971625D02*
G01*
X109419343Y-79976485D01*
X109451471Y-79984533D01*
X109482656Y-79995691D01*
X109512596Y-80009852D01*
X109541005Y-80026879D01*
X109567608Y-80046609D01*
X109592149Y-80068851D01*
X109614391Y-80093392D01*
X109634121Y-80119995D01*
X109651148Y-80148404D01*
X109665309Y-80178344D01*
X109676467Y-80209529D01*
X109684515Y-80241657D01*
X109689375Y-80274419D01*
X109691000Y-80307500D01*
X109691000Y-80982500D01*
X109689375Y-81015581D01*
X109684515Y-81048343D01*
X109676467Y-81080471D01*
X109665309Y-81111656D01*
X109651148Y-81141596D01*
X109634121Y-81170005D01*
X109614391Y-81196608D01*
X109592149Y-81221149D01*
X109567608Y-81243391D01*
X109541005Y-81263121D01*
X109512596Y-81280148D01*
X109482656Y-81294309D01*
X109451471Y-81305467D01*
X109419343Y-81313515D01*
X109386581Y-81318375D01*
X109353500Y-81320000D01*
X108578500Y-81320000D01*
X108545419Y-81318375D01*
X108512657Y-81313515D01*
X108480529Y-81305467D01*
X108449344Y-81294309D01*
X108419404Y-81280148D01*
X108390995Y-81263121D01*
X108364392Y-81243391D01*
X108339851Y-81221149D01*
X108317609Y-81196608D01*
X108297879Y-81170005D01*
X108280852Y-81141596D01*
X108266691Y-81111656D01*
X108255533Y-81080471D01*
X108247485Y-81048343D01*
X108242625Y-81015581D01*
X108241000Y-80982500D01*
X108241000Y-80307500D01*
X108242625Y-80274419D01*
X108247485Y-80241657D01*
X108255533Y-80209529D01*
X108266691Y-80178344D01*
X108280852Y-80148404D01*
X108297879Y-80119995D01*
X108317609Y-80093392D01*
X108339851Y-80068851D01*
X108364392Y-80046609D01*
X108390995Y-80026879D01*
X108419404Y-80009852D01*
X108449344Y-79995691D01*
X108480529Y-79984533D01*
X108512657Y-79976485D01*
X108545419Y-79971625D01*
X108578500Y-79970000D01*
X109353500Y-79970000D01*
X109386581Y-79971625D01*
G37*
G36*
X111136581Y-79971625D02*
G01*
X111169343Y-79976485D01*
X111201471Y-79984533D01*
X111232656Y-79995691D01*
X111262596Y-80009852D01*
X111291005Y-80026879D01*
X111317608Y-80046609D01*
X111342149Y-80068851D01*
X111364391Y-80093392D01*
X111384121Y-80119995D01*
X111401148Y-80148404D01*
X111415309Y-80178344D01*
X111426467Y-80209529D01*
X111434515Y-80241657D01*
X111439375Y-80274419D01*
X111441000Y-80307500D01*
X111441000Y-80982500D01*
X111439375Y-81015581D01*
X111434515Y-81048343D01*
X111426467Y-81080471D01*
X111415309Y-81111656D01*
X111401148Y-81141596D01*
X111384121Y-81170005D01*
X111364391Y-81196608D01*
X111342149Y-81221149D01*
X111317608Y-81243391D01*
X111291005Y-81263121D01*
X111262596Y-81280148D01*
X111232656Y-81294309D01*
X111201471Y-81305467D01*
X111169343Y-81313515D01*
X111136581Y-81318375D01*
X111103500Y-81320000D01*
X110328500Y-81320000D01*
X110295419Y-81318375D01*
X110262657Y-81313515D01*
X110230529Y-81305467D01*
X110199344Y-81294309D01*
X110169404Y-81280148D01*
X110140995Y-81263121D01*
X110114392Y-81243391D01*
X110089851Y-81221149D01*
X110067609Y-81196608D01*
X110047879Y-81170005D01*
X110030852Y-81141596D01*
X110016691Y-81111656D01*
X110005533Y-81080471D01*
X109997485Y-81048343D01*
X109992625Y-81015581D01*
X109991000Y-80982500D01*
X109991000Y-80307500D01*
X109992625Y-80274419D01*
X109997485Y-80241657D01*
X110005533Y-80209529D01*
X110016691Y-80178344D01*
X110030852Y-80148404D01*
X110047879Y-80119995D01*
X110067609Y-80093392D01*
X110089851Y-80068851D01*
X110114392Y-80046609D01*
X110140995Y-80026879D01*
X110169404Y-80009852D01*
X110199344Y-79995691D01*
X110230529Y-79984533D01*
X110262657Y-79976485D01*
X110295419Y-79971625D01*
X110328500Y-79970000D01*
X111103500Y-79970000D01*
X111136581Y-79971625D01*
G37*
G36*
X112257581Y-134228125D02*
G01*
X112290343Y-134232985D01*
X112322471Y-134241033D01*
X112353656Y-134252191D01*
X112383596Y-134266352D01*
X112412005Y-134283379D01*
X112438608Y-134303109D01*
X112463149Y-134325351D01*
X112485391Y-134349892D01*
X112505121Y-134376495D01*
X112522148Y-134404904D01*
X112536309Y-134434844D01*
X112547467Y-134466029D01*
X112555515Y-134498157D01*
X112560375Y-134530919D01*
X112562000Y-134564000D01*
X112562000Y-135339000D01*
X112560375Y-135372081D01*
X112555515Y-135404843D01*
X112547467Y-135436971D01*
X112536309Y-135468156D01*
X112522148Y-135498096D01*
X112505121Y-135526505D01*
X112485391Y-135553108D01*
X112463149Y-135577649D01*
X112438608Y-135599891D01*
X112412005Y-135619621D01*
X112383596Y-135636648D01*
X112353656Y-135650809D01*
X112322471Y-135661967D01*
X112290343Y-135670015D01*
X112257581Y-135674875D01*
X112224500Y-135676500D01*
X111549500Y-135676500D01*
X111516419Y-135674875D01*
X111483657Y-135670015D01*
X111451529Y-135661967D01*
X111420344Y-135650809D01*
X111390404Y-135636648D01*
X111361995Y-135619621D01*
X111335392Y-135599891D01*
X111310851Y-135577649D01*
X111288609Y-135553108D01*
X111268879Y-135526505D01*
X111251852Y-135498096D01*
X111237691Y-135468156D01*
X111226533Y-135436971D01*
X111218485Y-135404843D01*
X111213625Y-135372081D01*
X111212000Y-135339000D01*
X111212000Y-134564000D01*
X111213625Y-134530919D01*
X111218485Y-134498157D01*
X111226533Y-134466029D01*
X111237691Y-134434844D01*
X111251852Y-134404904D01*
X111268879Y-134376495D01*
X111288609Y-134349892D01*
X111310851Y-134325351D01*
X111335392Y-134303109D01*
X111361995Y-134283379D01*
X111390404Y-134266352D01*
X111420344Y-134252191D01*
X111451529Y-134241033D01*
X111483657Y-134232985D01*
X111516419Y-134228125D01*
X111549500Y-134226500D01*
X112224500Y-134226500D01*
X112257581Y-134228125D01*
G37*
G36*
X112257581Y-135978125D02*
G01*
X112290343Y-135982985D01*
X112322471Y-135991033D01*
X112353656Y-136002191D01*
X112383596Y-136016352D01*
X112412005Y-136033379D01*
X112438608Y-136053109D01*
X112463149Y-136075351D01*
X112485391Y-136099892D01*
X112505121Y-136126495D01*
X112522148Y-136154904D01*
X112536309Y-136184844D01*
X112547467Y-136216029D01*
X112555515Y-136248157D01*
X112560375Y-136280919D01*
X112562000Y-136314000D01*
X112562000Y-137089000D01*
X112560375Y-137122081D01*
X112555515Y-137154843D01*
X112547467Y-137186971D01*
X112536309Y-137218156D01*
X112522148Y-137248096D01*
X112505121Y-137276505D01*
X112485391Y-137303108D01*
X112463149Y-137327649D01*
X112438608Y-137349891D01*
X112412005Y-137369621D01*
X112383596Y-137386648D01*
X112353656Y-137400809D01*
X112322471Y-137411967D01*
X112290343Y-137420015D01*
X112257581Y-137424875D01*
X112224500Y-137426500D01*
X111549500Y-137426500D01*
X111516419Y-137424875D01*
X111483657Y-137420015D01*
X111451529Y-137411967D01*
X111420344Y-137400809D01*
X111390404Y-137386648D01*
X111361995Y-137369621D01*
X111335392Y-137349891D01*
X111310851Y-137327649D01*
X111288609Y-137303108D01*
X111268879Y-137276505D01*
X111251852Y-137248096D01*
X111237691Y-137218156D01*
X111226533Y-137186971D01*
X111218485Y-137154843D01*
X111213625Y-137122081D01*
X111212000Y-137089000D01*
X111212000Y-136314000D01*
X111213625Y-136280919D01*
X111218485Y-136248157D01*
X111226533Y-136216029D01*
X111237691Y-136184844D01*
X111251852Y-136154904D01*
X111268879Y-136126495D01*
X111288609Y-136099892D01*
X111310851Y-136075351D01*
X111335392Y-136053109D01*
X111361995Y-136033379D01*
X111390404Y-136016352D01*
X111420344Y-136002191D01*
X111451529Y-135991033D01*
X111483657Y-135982985D01*
X111516419Y-135978125D01*
X111549500Y-135976500D01*
X112224500Y-135976500D01*
X112257581Y-135978125D01*
G37*
G36*
X111114581Y-81904125D02*
G01*
X111147343Y-81908985D01*
X111179471Y-81917033D01*
X111210656Y-81928191D01*
X111240596Y-81942352D01*
X111269005Y-81959379D01*
X111295608Y-81979109D01*
X111320149Y-82001351D01*
X111342391Y-82025892D01*
X111362121Y-82052495D01*
X111379148Y-82080904D01*
X111393309Y-82110844D01*
X111404467Y-82142029D01*
X111412515Y-82174157D01*
X111417375Y-82206919D01*
X111419000Y-82240000D01*
X111419000Y-83015000D01*
X111417375Y-83048081D01*
X111412515Y-83080843D01*
X111404467Y-83112971D01*
X111393309Y-83144156D01*
X111379148Y-83174096D01*
X111362121Y-83202505D01*
X111342391Y-83229108D01*
X111320149Y-83253649D01*
X111295608Y-83275891D01*
X111269005Y-83295621D01*
X111240596Y-83312648D01*
X111210656Y-83326809D01*
X111179471Y-83337967D01*
X111147343Y-83346015D01*
X111114581Y-83350875D01*
X111081500Y-83352500D01*
X110406500Y-83352500D01*
X110373419Y-83350875D01*
X110340657Y-83346015D01*
X110308529Y-83337967D01*
X110277344Y-83326809D01*
X110247404Y-83312648D01*
X110218995Y-83295621D01*
X110192392Y-83275891D01*
X110167851Y-83253649D01*
X110145609Y-83229108D01*
X110125879Y-83202505D01*
X110108852Y-83174096D01*
X110094691Y-83144156D01*
X110083533Y-83112971D01*
X110075485Y-83080843D01*
X110070625Y-83048081D01*
X110069000Y-83015000D01*
X110069000Y-82240000D01*
X110070625Y-82206919D01*
X110075485Y-82174157D01*
X110083533Y-82142029D01*
X110094691Y-82110844D01*
X110108852Y-82080904D01*
X110125879Y-82052495D01*
X110145609Y-82025892D01*
X110167851Y-82001351D01*
X110192392Y-81979109D01*
X110218995Y-81959379D01*
X110247404Y-81942352D01*
X110277344Y-81928191D01*
X110308529Y-81917033D01*
X110340657Y-81908985D01*
X110373419Y-81904125D01*
X110406500Y-81902500D01*
X111081500Y-81902500D01*
X111114581Y-81904125D01*
G37*
G36*
X111114581Y-83654125D02*
G01*
X111147343Y-83658985D01*
X111179471Y-83667033D01*
X111210656Y-83678191D01*
X111240596Y-83692352D01*
X111269005Y-83709379D01*
X111295608Y-83729109D01*
X111320149Y-83751351D01*
X111342391Y-83775892D01*
X111362121Y-83802495D01*
X111379148Y-83830904D01*
X111393309Y-83860844D01*
X111404467Y-83892029D01*
X111412515Y-83924157D01*
X111417375Y-83956919D01*
X111419000Y-83990000D01*
X111419000Y-84765000D01*
X111417375Y-84798081D01*
X111412515Y-84830843D01*
X111404467Y-84862971D01*
X111393309Y-84894156D01*
X111379148Y-84924096D01*
X111362121Y-84952505D01*
X111342391Y-84979108D01*
X111320149Y-85003649D01*
X111295608Y-85025891D01*
X111269005Y-85045621D01*
X111240596Y-85062648D01*
X111210656Y-85076809D01*
X111179471Y-85087967D01*
X111147343Y-85096015D01*
X111114581Y-85100875D01*
X111081500Y-85102500D01*
X110406500Y-85102500D01*
X110373419Y-85100875D01*
X110340657Y-85096015D01*
X110308529Y-85087967D01*
X110277344Y-85076809D01*
X110247404Y-85062648D01*
X110218995Y-85045621D01*
X110192392Y-85025891D01*
X110167851Y-85003649D01*
X110145609Y-84979108D01*
X110125879Y-84952505D01*
X110108852Y-84924096D01*
X110094691Y-84894156D01*
X110083533Y-84862971D01*
X110075485Y-84830843D01*
X110070625Y-84798081D01*
X110069000Y-84765000D01*
X110069000Y-83990000D01*
X110070625Y-83956919D01*
X110075485Y-83924157D01*
X110083533Y-83892029D01*
X110094691Y-83860844D01*
X110108852Y-83830904D01*
X110125879Y-83802495D01*
X110145609Y-83775892D01*
X110167851Y-83751351D01*
X110192392Y-83729109D01*
X110218995Y-83709379D01*
X110247404Y-83692352D01*
X110277344Y-83678191D01*
X110308529Y-83667033D01*
X110340657Y-83658985D01*
X110373419Y-83654125D01*
X110406500Y-83652500D01*
X111081500Y-83652500D01*
X111114581Y-83654125D01*
G37*
G36*
X88685581Y-138010625D02*
G01*
X88718343Y-138015485D01*
X88750471Y-138023533D01*
X88781656Y-138034691D01*
X88811596Y-138048852D01*
X88840005Y-138065879D01*
X88866608Y-138085609D01*
X88891149Y-138107851D01*
X88913391Y-138132392D01*
X88933121Y-138158995D01*
X88950148Y-138187404D01*
X88964309Y-138217344D01*
X88975467Y-138248529D01*
X88983515Y-138280657D01*
X88988375Y-138313419D01*
X88990000Y-138346500D01*
X88990000Y-139021500D01*
X88988375Y-139054581D01*
X88983515Y-139087343D01*
X88975467Y-139119471D01*
X88964309Y-139150656D01*
X88950148Y-139180596D01*
X88933121Y-139209005D01*
X88913391Y-139235608D01*
X88891149Y-139260149D01*
X88866608Y-139282391D01*
X88840005Y-139302121D01*
X88811596Y-139319148D01*
X88781656Y-139333309D01*
X88750471Y-139344467D01*
X88718343Y-139352515D01*
X88685581Y-139357375D01*
X88652500Y-139359000D01*
X87877500Y-139359000D01*
X87844419Y-139357375D01*
X87811657Y-139352515D01*
X87779529Y-139344467D01*
X87748344Y-139333309D01*
X87718404Y-139319148D01*
X87689995Y-139302121D01*
X87663392Y-139282391D01*
X87638851Y-139260149D01*
X87616609Y-139235608D01*
X87596879Y-139209005D01*
X87579852Y-139180596D01*
X87565691Y-139150656D01*
X87554533Y-139119471D01*
X87546485Y-139087343D01*
X87541625Y-139054581D01*
X87540000Y-139021500D01*
X87540000Y-138346500D01*
X87541625Y-138313419D01*
X87546485Y-138280657D01*
X87554533Y-138248529D01*
X87565691Y-138217344D01*
X87579852Y-138187404D01*
X87596879Y-138158995D01*
X87616609Y-138132392D01*
X87638851Y-138107851D01*
X87663392Y-138085609D01*
X87689995Y-138065879D01*
X87718404Y-138048852D01*
X87748344Y-138034691D01*
X87779529Y-138023533D01*
X87811657Y-138015485D01*
X87844419Y-138010625D01*
X87877500Y-138009000D01*
X88652500Y-138009000D01*
X88685581Y-138010625D01*
G37*
G36*
X90435581Y-138010625D02*
G01*
X90468343Y-138015485D01*
X90500471Y-138023533D01*
X90531656Y-138034691D01*
X90561596Y-138048852D01*
X90590005Y-138065879D01*
X90616608Y-138085609D01*
X90641149Y-138107851D01*
X90663391Y-138132392D01*
X90683121Y-138158995D01*
X90700148Y-138187404D01*
X90714309Y-138217344D01*
X90725467Y-138248529D01*
X90733515Y-138280657D01*
X90738375Y-138313419D01*
X90740000Y-138346500D01*
X90740000Y-139021500D01*
X90738375Y-139054581D01*
X90733515Y-139087343D01*
X90725467Y-139119471D01*
X90714309Y-139150656D01*
X90700148Y-139180596D01*
X90683121Y-139209005D01*
X90663391Y-139235608D01*
X90641149Y-139260149D01*
X90616608Y-139282391D01*
X90590005Y-139302121D01*
X90561596Y-139319148D01*
X90531656Y-139333309D01*
X90500471Y-139344467D01*
X90468343Y-139352515D01*
X90435581Y-139357375D01*
X90402500Y-139359000D01*
X89627500Y-139359000D01*
X89594419Y-139357375D01*
X89561657Y-139352515D01*
X89529529Y-139344467D01*
X89498344Y-139333309D01*
X89468404Y-139319148D01*
X89439995Y-139302121D01*
X89413392Y-139282391D01*
X89388851Y-139260149D01*
X89366609Y-139235608D01*
X89346879Y-139209005D01*
X89329852Y-139180596D01*
X89315691Y-139150656D01*
X89304533Y-139119471D01*
X89296485Y-139087343D01*
X89291625Y-139054581D01*
X89290000Y-139021500D01*
X89290000Y-138346500D01*
X89291625Y-138313419D01*
X89296485Y-138280657D01*
X89304533Y-138248529D01*
X89315691Y-138217344D01*
X89329852Y-138187404D01*
X89346879Y-138158995D01*
X89366609Y-138132392D01*
X89388851Y-138107851D01*
X89413392Y-138085609D01*
X89439995Y-138065879D01*
X89468404Y-138048852D01*
X89498344Y-138034691D01*
X89529529Y-138023533D01*
X89561657Y-138015485D01*
X89594419Y-138010625D01*
X89627500Y-138009000D01*
X90402500Y-138009000D01*
X90435581Y-138010625D01*
G37*
G36*
X87514581Y-80035125D02*
G01*
X87547343Y-80039985D01*
X87579471Y-80048033D01*
X87610656Y-80059191D01*
X87640596Y-80073352D01*
X87669005Y-80090379D01*
X87695608Y-80110109D01*
X87720149Y-80132351D01*
X87742391Y-80156892D01*
X87762121Y-80183495D01*
X87779148Y-80211904D01*
X87793309Y-80241844D01*
X87804467Y-80273029D01*
X87812515Y-80305157D01*
X87817375Y-80337919D01*
X87819000Y-80371000D01*
X87819000Y-81046000D01*
X87817375Y-81079081D01*
X87812515Y-81111843D01*
X87804467Y-81143971D01*
X87793309Y-81175156D01*
X87779148Y-81205096D01*
X87762121Y-81233505D01*
X87742391Y-81260108D01*
X87720149Y-81284649D01*
X87695608Y-81306891D01*
X87669005Y-81326621D01*
X87640596Y-81343648D01*
X87610656Y-81357809D01*
X87579471Y-81368967D01*
X87547343Y-81377015D01*
X87514581Y-81381875D01*
X87481500Y-81383500D01*
X86706500Y-81383500D01*
X86673419Y-81381875D01*
X86640657Y-81377015D01*
X86608529Y-81368967D01*
X86577344Y-81357809D01*
X86547404Y-81343648D01*
X86518995Y-81326621D01*
X86492392Y-81306891D01*
X86467851Y-81284649D01*
X86445609Y-81260108D01*
X86425879Y-81233505D01*
X86408852Y-81205096D01*
X86394691Y-81175156D01*
X86383533Y-81143971D01*
X86375485Y-81111843D01*
X86370625Y-81079081D01*
X86369000Y-81046000D01*
X86369000Y-80371000D01*
X86370625Y-80337919D01*
X86375485Y-80305157D01*
X86383533Y-80273029D01*
X86394691Y-80241844D01*
X86408852Y-80211904D01*
X86425879Y-80183495D01*
X86445609Y-80156892D01*
X86467851Y-80132351D01*
X86492392Y-80110109D01*
X86518995Y-80090379D01*
X86547404Y-80073352D01*
X86577344Y-80059191D01*
X86608529Y-80048033D01*
X86640657Y-80039985D01*
X86673419Y-80035125D01*
X86706500Y-80033500D01*
X87481500Y-80033500D01*
X87514581Y-80035125D01*
G37*
G36*
X85764581Y-80035125D02*
G01*
X85797343Y-80039985D01*
X85829471Y-80048033D01*
X85860656Y-80059191D01*
X85890596Y-80073352D01*
X85919005Y-80090379D01*
X85945608Y-80110109D01*
X85970149Y-80132351D01*
X85992391Y-80156892D01*
X86012121Y-80183495D01*
X86029148Y-80211904D01*
X86043309Y-80241844D01*
X86054467Y-80273029D01*
X86062515Y-80305157D01*
X86067375Y-80337919D01*
X86069000Y-80371000D01*
X86069000Y-81046000D01*
X86067375Y-81079081D01*
X86062515Y-81111843D01*
X86054467Y-81143971D01*
X86043309Y-81175156D01*
X86029148Y-81205096D01*
X86012121Y-81233505D01*
X85992391Y-81260108D01*
X85970149Y-81284649D01*
X85945608Y-81306891D01*
X85919005Y-81326621D01*
X85890596Y-81343648D01*
X85860656Y-81357809D01*
X85829471Y-81368967D01*
X85797343Y-81377015D01*
X85764581Y-81381875D01*
X85731500Y-81383500D01*
X84956500Y-81383500D01*
X84923419Y-81381875D01*
X84890657Y-81377015D01*
X84858529Y-81368967D01*
X84827344Y-81357809D01*
X84797404Y-81343648D01*
X84768995Y-81326621D01*
X84742392Y-81306891D01*
X84717851Y-81284649D01*
X84695609Y-81260108D01*
X84675879Y-81233505D01*
X84658852Y-81205096D01*
X84644691Y-81175156D01*
X84633533Y-81143971D01*
X84625485Y-81111843D01*
X84620625Y-81079081D01*
X84619000Y-81046000D01*
X84619000Y-80371000D01*
X84620625Y-80337919D01*
X84625485Y-80305157D01*
X84633533Y-80273029D01*
X84644691Y-80241844D01*
X84658852Y-80211904D01*
X84675879Y-80183495D01*
X84695609Y-80156892D01*
X84717851Y-80132351D01*
X84742392Y-80110109D01*
X84768995Y-80090379D01*
X84797404Y-80073352D01*
X84827344Y-80059191D01*
X84858529Y-80048033D01*
X84890657Y-80039985D01*
X84923419Y-80035125D01*
X84956500Y-80033500D01*
X85731500Y-80033500D01*
X85764581Y-80035125D01*
G37*
G36*
X88572081Y-134228125D02*
G01*
X88604843Y-134232985D01*
X88636971Y-134241033D01*
X88668156Y-134252191D01*
X88698096Y-134266352D01*
X88726505Y-134283379D01*
X88753108Y-134303109D01*
X88777649Y-134325351D01*
X88799891Y-134349892D01*
X88819621Y-134376495D01*
X88836648Y-134404904D01*
X88850809Y-134434844D01*
X88861967Y-134466029D01*
X88870015Y-134498157D01*
X88874875Y-134530919D01*
X88876500Y-134564000D01*
X88876500Y-135339000D01*
X88874875Y-135372081D01*
X88870015Y-135404843D01*
X88861967Y-135436971D01*
X88850809Y-135468156D01*
X88836648Y-135498096D01*
X88819621Y-135526505D01*
X88799891Y-135553108D01*
X88777649Y-135577649D01*
X88753108Y-135599891D01*
X88726505Y-135619621D01*
X88698096Y-135636648D01*
X88668156Y-135650809D01*
X88636971Y-135661967D01*
X88604843Y-135670015D01*
X88572081Y-135674875D01*
X88539000Y-135676500D01*
X87864000Y-135676500D01*
X87830919Y-135674875D01*
X87798157Y-135670015D01*
X87766029Y-135661967D01*
X87734844Y-135650809D01*
X87704904Y-135636648D01*
X87676495Y-135619621D01*
X87649892Y-135599891D01*
X87625351Y-135577649D01*
X87603109Y-135553108D01*
X87583379Y-135526505D01*
X87566352Y-135498096D01*
X87552191Y-135468156D01*
X87541033Y-135436971D01*
X87532985Y-135404843D01*
X87528125Y-135372081D01*
X87526500Y-135339000D01*
X87526500Y-134564000D01*
X87528125Y-134530919D01*
X87532985Y-134498157D01*
X87541033Y-134466029D01*
X87552191Y-134434844D01*
X87566352Y-134404904D01*
X87583379Y-134376495D01*
X87603109Y-134349892D01*
X87625351Y-134325351D01*
X87649892Y-134303109D01*
X87676495Y-134283379D01*
X87704904Y-134266352D01*
X87734844Y-134252191D01*
X87766029Y-134241033D01*
X87798157Y-134232985D01*
X87830919Y-134228125D01*
X87864000Y-134226500D01*
X88539000Y-134226500D01*
X88572081Y-134228125D01*
G37*
G36*
X88572081Y-135978125D02*
G01*
X88604843Y-135982985D01*
X88636971Y-135991033D01*
X88668156Y-136002191D01*
X88698096Y-136016352D01*
X88726505Y-136033379D01*
X88753108Y-136053109D01*
X88777649Y-136075351D01*
X88799891Y-136099892D01*
X88819621Y-136126495D01*
X88836648Y-136154904D01*
X88850809Y-136184844D01*
X88861967Y-136216029D01*
X88870015Y-136248157D01*
X88874875Y-136280919D01*
X88876500Y-136314000D01*
X88876500Y-137089000D01*
X88874875Y-137122081D01*
X88870015Y-137154843D01*
X88861967Y-137186971D01*
X88850809Y-137218156D01*
X88836648Y-137248096D01*
X88819621Y-137276505D01*
X88799891Y-137303108D01*
X88777649Y-137327649D01*
X88753108Y-137349891D01*
X88726505Y-137369621D01*
X88698096Y-137386648D01*
X88668156Y-137400809D01*
X88636971Y-137411967D01*
X88604843Y-137420015D01*
X88572081Y-137424875D01*
X88539000Y-137426500D01*
X87864000Y-137426500D01*
X87830919Y-137424875D01*
X87798157Y-137420015D01*
X87766029Y-137411967D01*
X87734844Y-137400809D01*
X87704904Y-137386648D01*
X87676495Y-137369621D01*
X87649892Y-137349891D01*
X87625351Y-137327649D01*
X87603109Y-137303108D01*
X87583379Y-137276505D01*
X87566352Y-137248096D01*
X87552191Y-137218156D01*
X87541033Y-137186971D01*
X87532985Y-137154843D01*
X87528125Y-137122081D01*
X87526500Y-137089000D01*
X87526500Y-136314000D01*
X87528125Y-136280919D01*
X87532985Y-136248157D01*
X87541033Y-136216029D01*
X87552191Y-136184844D01*
X87566352Y-136154904D01*
X87583379Y-136126495D01*
X87603109Y-136099892D01*
X87625351Y-136075351D01*
X87649892Y-136053109D01*
X87676495Y-136033379D01*
X87704904Y-136016352D01*
X87734844Y-136002191D01*
X87766029Y-135991033D01*
X87798157Y-135982985D01*
X87830919Y-135978125D01*
X87864000Y-135976500D01*
X88539000Y-135976500D01*
X88572081Y-135978125D01*
G37*
G36*
X87492581Y-83654125D02*
G01*
X87525343Y-83658985D01*
X87557471Y-83667033D01*
X87588656Y-83678191D01*
X87618596Y-83692352D01*
X87647005Y-83709379D01*
X87673608Y-83729109D01*
X87698149Y-83751351D01*
X87720391Y-83775892D01*
X87740121Y-83802495D01*
X87757148Y-83830904D01*
X87771309Y-83860844D01*
X87782467Y-83892029D01*
X87790515Y-83924157D01*
X87795375Y-83956919D01*
X87797000Y-83990000D01*
X87797000Y-84765000D01*
X87795375Y-84798081D01*
X87790515Y-84830843D01*
X87782467Y-84862971D01*
X87771309Y-84894156D01*
X87757148Y-84924096D01*
X87740121Y-84952505D01*
X87720391Y-84979108D01*
X87698149Y-85003649D01*
X87673608Y-85025891D01*
X87647005Y-85045621D01*
X87618596Y-85062648D01*
X87588656Y-85076809D01*
X87557471Y-85087967D01*
X87525343Y-85096015D01*
X87492581Y-85100875D01*
X87459500Y-85102500D01*
X86784500Y-85102500D01*
X86751419Y-85100875D01*
X86718657Y-85096015D01*
X86686529Y-85087967D01*
X86655344Y-85076809D01*
X86625404Y-85062648D01*
X86596995Y-85045621D01*
X86570392Y-85025891D01*
X86545851Y-85003649D01*
X86523609Y-84979108D01*
X86503879Y-84952505D01*
X86486852Y-84924096D01*
X86472691Y-84894156D01*
X86461533Y-84862971D01*
X86453485Y-84830843D01*
X86448625Y-84798081D01*
X86447000Y-84765000D01*
X86447000Y-83990000D01*
X86448625Y-83956919D01*
X86453485Y-83924157D01*
X86461533Y-83892029D01*
X86472691Y-83860844D01*
X86486852Y-83830904D01*
X86503879Y-83802495D01*
X86523609Y-83775892D01*
X86545851Y-83751351D01*
X86570392Y-83729109D01*
X86596995Y-83709379D01*
X86625404Y-83692352D01*
X86655344Y-83678191D01*
X86686529Y-83667033D01*
X86718657Y-83658985D01*
X86751419Y-83654125D01*
X86784500Y-83652500D01*
X87459500Y-83652500D01*
X87492581Y-83654125D01*
G37*
G36*
X87492581Y-81904125D02*
G01*
X87525343Y-81908985D01*
X87557471Y-81917033D01*
X87588656Y-81928191D01*
X87618596Y-81942352D01*
X87647005Y-81959379D01*
X87673608Y-81979109D01*
X87698149Y-82001351D01*
X87720391Y-82025892D01*
X87740121Y-82052495D01*
X87757148Y-82080904D01*
X87771309Y-82110844D01*
X87782467Y-82142029D01*
X87790515Y-82174157D01*
X87795375Y-82206919D01*
X87797000Y-82240000D01*
X87797000Y-83015000D01*
X87795375Y-83048081D01*
X87790515Y-83080843D01*
X87782467Y-83112971D01*
X87771309Y-83144156D01*
X87757148Y-83174096D01*
X87740121Y-83202505D01*
X87720391Y-83229108D01*
X87698149Y-83253649D01*
X87673608Y-83275891D01*
X87647005Y-83295621D01*
X87618596Y-83312648D01*
X87588656Y-83326809D01*
X87557471Y-83337967D01*
X87525343Y-83346015D01*
X87492581Y-83350875D01*
X87459500Y-83352500D01*
X86784500Y-83352500D01*
X86751419Y-83350875D01*
X86718657Y-83346015D01*
X86686529Y-83337967D01*
X86655344Y-83326809D01*
X86625404Y-83312648D01*
X86596995Y-83295621D01*
X86570392Y-83275891D01*
X86545851Y-83253649D01*
X86523609Y-83229108D01*
X86503879Y-83202505D01*
X86486852Y-83174096D01*
X86472691Y-83144156D01*
X86461533Y-83112971D01*
X86453485Y-83080843D01*
X86448625Y-83048081D01*
X86447000Y-83015000D01*
X86447000Y-82240000D01*
X86448625Y-82206919D01*
X86453485Y-82174157D01*
X86461533Y-82142029D01*
X86472691Y-82110844D01*
X86486852Y-82080904D01*
X86503879Y-82052495D01*
X86523609Y-82025892D01*
X86545851Y-82001351D01*
X86570392Y-81979109D01*
X86596995Y-81959379D01*
X86625404Y-81942352D01*
X86655344Y-81928191D01*
X86686529Y-81917033D01*
X86718657Y-81908985D01*
X86751419Y-81904125D01*
X86784500Y-81902500D01*
X87459500Y-81902500D01*
X87492581Y-81904125D01*
G37*
G36*
X104497081Y-138010625D02*
G01*
X104529843Y-138015485D01*
X104561971Y-138023533D01*
X104593156Y-138034691D01*
X104623096Y-138048852D01*
X104651505Y-138065879D01*
X104678108Y-138085609D01*
X104702649Y-138107851D01*
X104724891Y-138132392D01*
X104744621Y-138158995D01*
X104761648Y-138187404D01*
X104775809Y-138217344D01*
X104786967Y-138248529D01*
X104795015Y-138280657D01*
X104799875Y-138313419D01*
X104801500Y-138346500D01*
X104801500Y-139021500D01*
X104799875Y-139054581D01*
X104795015Y-139087343D01*
X104786967Y-139119471D01*
X104775809Y-139150656D01*
X104761648Y-139180596D01*
X104744621Y-139209005D01*
X104724891Y-139235608D01*
X104702649Y-139260149D01*
X104678108Y-139282391D01*
X104651505Y-139302121D01*
X104623096Y-139319148D01*
X104593156Y-139333309D01*
X104561971Y-139344467D01*
X104529843Y-139352515D01*
X104497081Y-139357375D01*
X104464000Y-139359000D01*
X103689000Y-139359000D01*
X103655919Y-139357375D01*
X103623157Y-139352515D01*
X103591029Y-139344467D01*
X103559844Y-139333309D01*
X103529904Y-139319148D01*
X103501495Y-139302121D01*
X103474892Y-139282391D01*
X103450351Y-139260149D01*
X103428109Y-139235608D01*
X103408379Y-139209005D01*
X103391352Y-139180596D01*
X103377191Y-139150656D01*
X103366033Y-139119471D01*
X103357985Y-139087343D01*
X103353125Y-139054581D01*
X103351500Y-139021500D01*
X103351500Y-138346500D01*
X103353125Y-138313419D01*
X103357985Y-138280657D01*
X103366033Y-138248529D01*
X103377191Y-138217344D01*
X103391352Y-138187404D01*
X103408379Y-138158995D01*
X103428109Y-138132392D01*
X103450351Y-138107851D01*
X103474892Y-138085609D01*
X103501495Y-138065879D01*
X103529904Y-138048852D01*
X103559844Y-138034691D01*
X103591029Y-138023533D01*
X103623157Y-138015485D01*
X103655919Y-138010625D01*
X103689000Y-138009000D01*
X104464000Y-138009000D01*
X104497081Y-138010625D01*
G37*
G36*
X106247081Y-138010625D02*
G01*
X106279843Y-138015485D01*
X106311971Y-138023533D01*
X106343156Y-138034691D01*
X106373096Y-138048852D01*
X106401505Y-138065879D01*
X106428108Y-138085609D01*
X106452649Y-138107851D01*
X106474891Y-138132392D01*
X106494621Y-138158995D01*
X106511648Y-138187404D01*
X106525809Y-138217344D01*
X106536967Y-138248529D01*
X106545015Y-138280657D01*
X106549875Y-138313419D01*
X106551500Y-138346500D01*
X106551500Y-139021500D01*
X106549875Y-139054581D01*
X106545015Y-139087343D01*
X106536967Y-139119471D01*
X106525809Y-139150656D01*
X106511648Y-139180596D01*
X106494621Y-139209005D01*
X106474891Y-139235608D01*
X106452649Y-139260149D01*
X106428108Y-139282391D01*
X106401505Y-139302121D01*
X106373096Y-139319148D01*
X106343156Y-139333309D01*
X106311971Y-139344467D01*
X106279843Y-139352515D01*
X106247081Y-139357375D01*
X106214000Y-139359000D01*
X105439000Y-139359000D01*
X105405919Y-139357375D01*
X105373157Y-139352515D01*
X105341029Y-139344467D01*
X105309844Y-139333309D01*
X105279904Y-139319148D01*
X105251495Y-139302121D01*
X105224892Y-139282391D01*
X105200351Y-139260149D01*
X105178109Y-139235608D01*
X105158379Y-139209005D01*
X105141352Y-139180596D01*
X105127191Y-139150656D01*
X105116033Y-139119471D01*
X105107985Y-139087343D01*
X105103125Y-139054581D01*
X105101500Y-139021500D01*
X105101500Y-138346500D01*
X105103125Y-138313419D01*
X105107985Y-138280657D01*
X105116033Y-138248529D01*
X105127191Y-138217344D01*
X105141352Y-138187404D01*
X105158379Y-138158995D01*
X105178109Y-138132392D01*
X105200351Y-138107851D01*
X105224892Y-138085609D01*
X105251495Y-138065879D01*
X105279904Y-138048852D01*
X105309844Y-138034691D01*
X105341029Y-138023533D01*
X105373157Y-138015485D01*
X105405919Y-138010625D01*
X105439000Y-138009000D01*
X106214000Y-138009000D01*
X106247081Y-138010625D01*
G37*
G36*
X101512581Y-79971625D02*
G01*
X101545343Y-79976485D01*
X101577471Y-79984533D01*
X101608656Y-79995691D01*
X101638596Y-80009852D01*
X101667005Y-80026879D01*
X101693608Y-80046609D01*
X101718149Y-80068851D01*
X101740391Y-80093392D01*
X101760121Y-80119995D01*
X101777148Y-80148404D01*
X101791309Y-80178344D01*
X101802467Y-80209529D01*
X101810515Y-80241657D01*
X101815375Y-80274419D01*
X101817000Y-80307500D01*
X101817000Y-80982500D01*
X101815375Y-81015581D01*
X101810515Y-81048343D01*
X101802467Y-81080471D01*
X101791309Y-81111656D01*
X101777148Y-81141596D01*
X101760121Y-81170005D01*
X101740391Y-81196608D01*
X101718149Y-81221149D01*
X101693608Y-81243391D01*
X101667005Y-81263121D01*
X101638596Y-81280148D01*
X101608656Y-81294309D01*
X101577471Y-81305467D01*
X101545343Y-81313515D01*
X101512581Y-81318375D01*
X101479500Y-81320000D01*
X100704500Y-81320000D01*
X100671419Y-81318375D01*
X100638657Y-81313515D01*
X100606529Y-81305467D01*
X100575344Y-81294309D01*
X100545404Y-81280148D01*
X100516995Y-81263121D01*
X100490392Y-81243391D01*
X100465851Y-81221149D01*
X100443609Y-81196608D01*
X100423879Y-81170005D01*
X100406852Y-81141596D01*
X100392691Y-81111656D01*
X100381533Y-81080471D01*
X100373485Y-81048343D01*
X100368625Y-81015581D01*
X100367000Y-80982500D01*
X100367000Y-80307500D01*
X100368625Y-80274419D01*
X100373485Y-80241657D01*
X100381533Y-80209529D01*
X100392691Y-80178344D01*
X100406852Y-80148404D01*
X100423879Y-80119995D01*
X100443609Y-80093392D01*
X100465851Y-80068851D01*
X100490392Y-80046609D01*
X100516995Y-80026879D01*
X100545404Y-80009852D01*
X100575344Y-79995691D01*
X100606529Y-79984533D01*
X100638657Y-79976485D01*
X100671419Y-79971625D01*
X100704500Y-79970000D01*
X101479500Y-79970000D01*
X101512581Y-79971625D01*
G37*
G36*
X103262581Y-79971625D02*
G01*
X103295343Y-79976485D01*
X103327471Y-79984533D01*
X103358656Y-79995691D01*
X103388596Y-80009852D01*
X103417005Y-80026879D01*
X103443608Y-80046609D01*
X103468149Y-80068851D01*
X103490391Y-80093392D01*
X103510121Y-80119995D01*
X103527148Y-80148404D01*
X103541309Y-80178344D01*
X103552467Y-80209529D01*
X103560515Y-80241657D01*
X103565375Y-80274419D01*
X103567000Y-80307500D01*
X103567000Y-80982500D01*
X103565375Y-81015581D01*
X103560515Y-81048343D01*
X103552467Y-81080471D01*
X103541309Y-81111656D01*
X103527148Y-81141596D01*
X103510121Y-81170005D01*
X103490391Y-81196608D01*
X103468149Y-81221149D01*
X103443608Y-81243391D01*
X103417005Y-81263121D01*
X103388596Y-81280148D01*
X103358656Y-81294309D01*
X103327471Y-81305467D01*
X103295343Y-81313515D01*
X103262581Y-81318375D01*
X103229500Y-81320000D01*
X102454500Y-81320000D01*
X102421419Y-81318375D01*
X102388657Y-81313515D01*
X102356529Y-81305467D01*
X102325344Y-81294309D01*
X102295404Y-81280148D01*
X102266995Y-81263121D01*
X102240392Y-81243391D01*
X102215851Y-81221149D01*
X102193609Y-81196608D01*
X102173879Y-81170005D01*
X102156852Y-81141596D01*
X102142691Y-81111656D01*
X102131533Y-81080471D01*
X102123485Y-81048343D01*
X102118625Y-81015581D01*
X102117000Y-80982500D01*
X102117000Y-80307500D01*
X102118625Y-80274419D01*
X102123485Y-80241657D01*
X102131533Y-80209529D01*
X102142691Y-80178344D01*
X102156852Y-80148404D01*
X102173879Y-80119995D01*
X102193609Y-80093392D01*
X102215851Y-80068851D01*
X102240392Y-80046609D01*
X102266995Y-80026879D01*
X102295404Y-80009852D01*
X102325344Y-79995691D01*
X102356529Y-79984533D01*
X102388657Y-79976485D01*
X102421419Y-79971625D01*
X102454500Y-79970000D01*
X103229500Y-79970000D01*
X103262581Y-79971625D01*
G37*
G36*
X104383581Y-134214125D02*
G01*
X104416343Y-134218985D01*
X104448471Y-134227033D01*
X104479656Y-134238191D01*
X104509596Y-134252352D01*
X104538005Y-134269379D01*
X104564608Y-134289109D01*
X104589149Y-134311351D01*
X104611391Y-134335892D01*
X104631121Y-134362495D01*
X104648148Y-134390904D01*
X104662309Y-134420844D01*
X104673467Y-134452029D01*
X104681515Y-134484157D01*
X104686375Y-134516919D01*
X104688000Y-134550000D01*
X104688000Y-135325000D01*
X104686375Y-135358081D01*
X104681515Y-135390843D01*
X104673467Y-135422971D01*
X104662309Y-135454156D01*
X104648148Y-135484096D01*
X104631121Y-135512505D01*
X104611391Y-135539108D01*
X104589149Y-135563649D01*
X104564608Y-135585891D01*
X104538005Y-135605621D01*
X104509596Y-135622648D01*
X104479656Y-135636809D01*
X104448471Y-135647967D01*
X104416343Y-135656015D01*
X104383581Y-135660875D01*
X104350500Y-135662500D01*
X103675500Y-135662500D01*
X103642419Y-135660875D01*
X103609657Y-135656015D01*
X103577529Y-135647967D01*
X103546344Y-135636809D01*
X103516404Y-135622648D01*
X103487995Y-135605621D01*
X103461392Y-135585891D01*
X103436851Y-135563649D01*
X103414609Y-135539108D01*
X103394879Y-135512505D01*
X103377852Y-135484096D01*
X103363691Y-135454156D01*
X103352533Y-135422971D01*
X103344485Y-135390843D01*
X103339625Y-135358081D01*
X103338000Y-135325000D01*
X103338000Y-134550000D01*
X103339625Y-134516919D01*
X103344485Y-134484157D01*
X103352533Y-134452029D01*
X103363691Y-134420844D01*
X103377852Y-134390904D01*
X103394879Y-134362495D01*
X103414609Y-134335892D01*
X103436851Y-134311351D01*
X103461392Y-134289109D01*
X103487995Y-134269379D01*
X103516404Y-134252352D01*
X103546344Y-134238191D01*
X103577529Y-134227033D01*
X103609657Y-134218985D01*
X103642419Y-134214125D01*
X103675500Y-134212500D01*
X104350500Y-134212500D01*
X104383581Y-134214125D01*
G37*
G36*
X104383581Y-135964125D02*
G01*
X104416343Y-135968985D01*
X104448471Y-135977033D01*
X104479656Y-135988191D01*
X104509596Y-136002352D01*
X104538005Y-136019379D01*
X104564608Y-136039109D01*
X104589149Y-136061351D01*
X104611391Y-136085892D01*
X104631121Y-136112495D01*
X104648148Y-136140904D01*
X104662309Y-136170844D01*
X104673467Y-136202029D01*
X104681515Y-136234157D01*
X104686375Y-136266919D01*
X104688000Y-136300000D01*
X104688000Y-137075000D01*
X104686375Y-137108081D01*
X104681515Y-137140843D01*
X104673467Y-137172971D01*
X104662309Y-137204156D01*
X104648148Y-137234096D01*
X104631121Y-137262505D01*
X104611391Y-137289108D01*
X104589149Y-137313649D01*
X104564608Y-137335891D01*
X104538005Y-137355621D01*
X104509596Y-137372648D01*
X104479656Y-137386809D01*
X104448471Y-137397967D01*
X104416343Y-137406015D01*
X104383581Y-137410875D01*
X104350500Y-137412500D01*
X103675500Y-137412500D01*
X103642419Y-137410875D01*
X103609657Y-137406015D01*
X103577529Y-137397967D01*
X103546344Y-137386809D01*
X103516404Y-137372648D01*
X103487995Y-137355621D01*
X103461392Y-137335891D01*
X103436851Y-137313649D01*
X103414609Y-137289108D01*
X103394879Y-137262505D01*
X103377852Y-137234096D01*
X103363691Y-137204156D01*
X103352533Y-137172971D01*
X103344485Y-137140843D01*
X103339625Y-137108081D01*
X103338000Y-137075000D01*
X103338000Y-136300000D01*
X103339625Y-136266919D01*
X103344485Y-136234157D01*
X103352533Y-136202029D01*
X103363691Y-136170844D01*
X103377852Y-136140904D01*
X103394879Y-136112495D01*
X103414609Y-136085892D01*
X103436851Y-136061351D01*
X103461392Y-136039109D01*
X103487995Y-136019379D01*
X103516404Y-136002352D01*
X103546344Y-135988191D01*
X103577529Y-135977033D01*
X103609657Y-135968985D01*
X103642419Y-135964125D01*
X103675500Y-135962500D01*
X104350500Y-135962500D01*
X104383581Y-135964125D01*
G37*
G36*
X103240581Y-83654125D02*
G01*
X103273343Y-83658985D01*
X103305471Y-83667033D01*
X103336656Y-83678191D01*
X103366596Y-83692352D01*
X103395005Y-83709379D01*
X103421608Y-83729109D01*
X103446149Y-83751351D01*
X103468391Y-83775892D01*
X103488121Y-83802495D01*
X103505148Y-83830904D01*
X103519309Y-83860844D01*
X103530467Y-83892029D01*
X103538515Y-83924157D01*
X103543375Y-83956919D01*
X103545000Y-83990000D01*
X103545000Y-84765000D01*
X103543375Y-84798081D01*
X103538515Y-84830843D01*
X103530467Y-84862971D01*
X103519309Y-84894156D01*
X103505148Y-84924096D01*
X103488121Y-84952505D01*
X103468391Y-84979108D01*
X103446149Y-85003649D01*
X103421608Y-85025891D01*
X103395005Y-85045621D01*
X103366596Y-85062648D01*
X103336656Y-85076809D01*
X103305471Y-85087967D01*
X103273343Y-85096015D01*
X103240581Y-85100875D01*
X103207500Y-85102500D01*
X102532500Y-85102500D01*
X102499419Y-85100875D01*
X102466657Y-85096015D01*
X102434529Y-85087967D01*
X102403344Y-85076809D01*
X102373404Y-85062648D01*
X102344995Y-85045621D01*
X102318392Y-85025891D01*
X102293851Y-85003649D01*
X102271609Y-84979108D01*
X102251879Y-84952505D01*
X102234852Y-84924096D01*
X102220691Y-84894156D01*
X102209533Y-84862971D01*
X102201485Y-84830843D01*
X102196625Y-84798081D01*
X102195000Y-84765000D01*
X102195000Y-83990000D01*
X102196625Y-83956919D01*
X102201485Y-83924157D01*
X102209533Y-83892029D01*
X102220691Y-83860844D01*
X102234852Y-83830904D01*
X102251879Y-83802495D01*
X102271609Y-83775892D01*
X102293851Y-83751351D01*
X102318392Y-83729109D01*
X102344995Y-83709379D01*
X102373404Y-83692352D01*
X102403344Y-83678191D01*
X102434529Y-83667033D01*
X102466657Y-83658985D01*
X102499419Y-83654125D01*
X102532500Y-83652500D01*
X103207500Y-83652500D01*
X103240581Y-83654125D01*
G37*
G36*
X103240581Y-81904125D02*
G01*
X103273343Y-81908985D01*
X103305471Y-81917033D01*
X103336656Y-81928191D01*
X103366596Y-81942352D01*
X103395005Y-81959379D01*
X103421608Y-81979109D01*
X103446149Y-82001351D01*
X103468391Y-82025892D01*
X103488121Y-82052495D01*
X103505148Y-82080904D01*
X103519309Y-82110844D01*
X103530467Y-82142029D01*
X103538515Y-82174157D01*
X103543375Y-82206919D01*
X103545000Y-82240000D01*
X103545000Y-83015000D01*
X103543375Y-83048081D01*
X103538515Y-83080843D01*
X103530467Y-83112971D01*
X103519309Y-83144156D01*
X103505148Y-83174096D01*
X103488121Y-83202505D01*
X103468391Y-83229108D01*
X103446149Y-83253649D01*
X103421608Y-83275891D01*
X103395005Y-83295621D01*
X103366596Y-83312648D01*
X103336656Y-83326809D01*
X103305471Y-83337967D01*
X103273343Y-83346015D01*
X103240581Y-83350875D01*
X103207500Y-83352500D01*
X102532500Y-83352500D01*
X102499419Y-83350875D01*
X102466657Y-83346015D01*
X102434529Y-83337967D01*
X102403344Y-83326809D01*
X102373404Y-83312648D01*
X102344995Y-83295621D01*
X102318392Y-83275891D01*
X102293851Y-83253649D01*
X102271609Y-83229108D01*
X102251879Y-83202505D01*
X102234852Y-83174096D01*
X102220691Y-83144156D01*
X102209533Y-83112971D01*
X102201485Y-83080843D01*
X102196625Y-83048081D01*
X102195000Y-83015000D01*
X102195000Y-82240000D01*
X102196625Y-82206919D01*
X102201485Y-82174157D01*
X102209533Y-82142029D01*
X102220691Y-82110844D01*
X102234852Y-82080904D01*
X102251879Y-82052495D01*
X102271609Y-82025892D01*
X102293851Y-82001351D01*
X102318392Y-81979109D01*
X102344995Y-81959379D01*
X102373404Y-81942352D01*
X102403344Y-81928191D01*
X102434529Y-81917033D01*
X102466657Y-81908985D01*
X102499419Y-81904125D01*
X102532500Y-81902500D01*
X103207500Y-81902500D01*
X103240581Y-81904125D01*
G37*
G36*
X96524081Y-138010625D02*
G01*
X96556843Y-138015485D01*
X96588971Y-138023533D01*
X96620156Y-138034691D01*
X96650096Y-138048852D01*
X96678505Y-138065879D01*
X96705108Y-138085609D01*
X96729649Y-138107851D01*
X96751891Y-138132392D01*
X96771621Y-138158995D01*
X96788648Y-138187404D01*
X96802809Y-138217344D01*
X96813967Y-138248529D01*
X96822015Y-138280657D01*
X96826875Y-138313419D01*
X96828500Y-138346500D01*
X96828500Y-139021500D01*
X96826875Y-139054581D01*
X96822015Y-139087343D01*
X96813967Y-139119471D01*
X96802809Y-139150656D01*
X96788648Y-139180596D01*
X96771621Y-139209005D01*
X96751891Y-139235608D01*
X96729649Y-139260149D01*
X96705108Y-139282391D01*
X96678505Y-139302121D01*
X96650096Y-139319148D01*
X96620156Y-139333309D01*
X96588971Y-139344467D01*
X96556843Y-139352515D01*
X96524081Y-139357375D01*
X96491000Y-139359000D01*
X95716000Y-139359000D01*
X95682919Y-139357375D01*
X95650157Y-139352515D01*
X95618029Y-139344467D01*
X95586844Y-139333309D01*
X95556904Y-139319148D01*
X95528495Y-139302121D01*
X95501892Y-139282391D01*
X95477351Y-139260149D01*
X95455109Y-139235608D01*
X95435379Y-139209005D01*
X95418352Y-139180596D01*
X95404191Y-139150656D01*
X95393033Y-139119471D01*
X95384985Y-139087343D01*
X95380125Y-139054581D01*
X95378500Y-139021500D01*
X95378500Y-138346500D01*
X95380125Y-138313419D01*
X95384985Y-138280657D01*
X95393033Y-138248529D01*
X95404191Y-138217344D01*
X95418352Y-138187404D01*
X95435379Y-138158995D01*
X95455109Y-138132392D01*
X95477351Y-138107851D01*
X95501892Y-138085609D01*
X95528495Y-138065879D01*
X95556904Y-138048852D01*
X95586844Y-138034691D01*
X95618029Y-138023533D01*
X95650157Y-138015485D01*
X95682919Y-138010625D01*
X95716000Y-138009000D01*
X96491000Y-138009000D01*
X96524081Y-138010625D01*
G37*
G36*
X98274081Y-138010625D02*
G01*
X98306843Y-138015485D01*
X98338971Y-138023533D01*
X98370156Y-138034691D01*
X98400096Y-138048852D01*
X98428505Y-138065879D01*
X98455108Y-138085609D01*
X98479649Y-138107851D01*
X98501891Y-138132392D01*
X98521621Y-138158995D01*
X98538648Y-138187404D01*
X98552809Y-138217344D01*
X98563967Y-138248529D01*
X98572015Y-138280657D01*
X98576875Y-138313419D01*
X98578500Y-138346500D01*
X98578500Y-139021500D01*
X98576875Y-139054581D01*
X98572015Y-139087343D01*
X98563967Y-139119471D01*
X98552809Y-139150656D01*
X98538648Y-139180596D01*
X98521621Y-139209005D01*
X98501891Y-139235608D01*
X98479649Y-139260149D01*
X98455108Y-139282391D01*
X98428505Y-139302121D01*
X98400096Y-139319148D01*
X98370156Y-139333309D01*
X98338971Y-139344467D01*
X98306843Y-139352515D01*
X98274081Y-139357375D01*
X98241000Y-139359000D01*
X97466000Y-139359000D01*
X97432919Y-139357375D01*
X97400157Y-139352515D01*
X97368029Y-139344467D01*
X97336844Y-139333309D01*
X97306904Y-139319148D01*
X97278495Y-139302121D01*
X97251892Y-139282391D01*
X97227351Y-139260149D01*
X97205109Y-139235608D01*
X97185379Y-139209005D01*
X97168352Y-139180596D01*
X97154191Y-139150656D01*
X97143033Y-139119471D01*
X97134985Y-139087343D01*
X97130125Y-139054581D01*
X97128500Y-139021500D01*
X97128500Y-138346500D01*
X97130125Y-138313419D01*
X97134985Y-138280657D01*
X97143033Y-138248529D01*
X97154191Y-138217344D01*
X97168352Y-138187404D01*
X97185379Y-138158995D01*
X97205109Y-138132392D01*
X97227351Y-138107851D01*
X97251892Y-138085609D01*
X97278495Y-138065879D01*
X97306904Y-138048852D01*
X97336844Y-138034691D01*
X97368029Y-138023533D01*
X97400157Y-138015485D01*
X97432919Y-138010625D01*
X97466000Y-138009000D01*
X98241000Y-138009000D01*
X98274081Y-138010625D01*
G37*
G36*
X95388581Y-79971625D02*
G01*
X95421343Y-79976485D01*
X95453471Y-79984533D01*
X95484656Y-79995691D01*
X95514596Y-80009852D01*
X95543005Y-80026879D01*
X95569608Y-80046609D01*
X95594149Y-80068851D01*
X95616391Y-80093392D01*
X95636121Y-80119995D01*
X95653148Y-80148404D01*
X95667309Y-80178344D01*
X95678467Y-80209529D01*
X95686515Y-80241657D01*
X95691375Y-80274419D01*
X95693000Y-80307500D01*
X95693000Y-80982500D01*
X95691375Y-81015581D01*
X95686515Y-81048343D01*
X95678467Y-81080471D01*
X95667309Y-81111656D01*
X95653148Y-81141596D01*
X95636121Y-81170005D01*
X95616391Y-81196608D01*
X95594149Y-81221149D01*
X95569608Y-81243391D01*
X95543005Y-81263121D01*
X95514596Y-81280148D01*
X95484656Y-81294309D01*
X95453471Y-81305467D01*
X95421343Y-81313515D01*
X95388581Y-81318375D01*
X95355500Y-81320000D01*
X94580500Y-81320000D01*
X94547419Y-81318375D01*
X94514657Y-81313515D01*
X94482529Y-81305467D01*
X94451344Y-81294309D01*
X94421404Y-81280148D01*
X94392995Y-81263121D01*
X94366392Y-81243391D01*
X94341851Y-81221149D01*
X94319609Y-81196608D01*
X94299879Y-81170005D01*
X94282852Y-81141596D01*
X94268691Y-81111656D01*
X94257533Y-81080471D01*
X94249485Y-81048343D01*
X94244625Y-81015581D01*
X94243000Y-80982500D01*
X94243000Y-80307500D01*
X94244625Y-80274419D01*
X94249485Y-80241657D01*
X94257533Y-80209529D01*
X94268691Y-80178344D01*
X94282852Y-80148404D01*
X94299879Y-80119995D01*
X94319609Y-80093392D01*
X94341851Y-80068851D01*
X94366392Y-80046609D01*
X94392995Y-80026879D01*
X94421404Y-80009852D01*
X94451344Y-79995691D01*
X94482529Y-79984533D01*
X94514657Y-79976485D01*
X94547419Y-79971625D01*
X94580500Y-79970000D01*
X95355500Y-79970000D01*
X95388581Y-79971625D01*
G37*
G36*
X93638581Y-79971625D02*
G01*
X93671343Y-79976485D01*
X93703471Y-79984533D01*
X93734656Y-79995691D01*
X93764596Y-80009852D01*
X93793005Y-80026879D01*
X93819608Y-80046609D01*
X93844149Y-80068851D01*
X93866391Y-80093392D01*
X93886121Y-80119995D01*
X93903148Y-80148404D01*
X93917309Y-80178344D01*
X93928467Y-80209529D01*
X93936515Y-80241657D01*
X93941375Y-80274419D01*
X93943000Y-80307500D01*
X93943000Y-80982500D01*
X93941375Y-81015581D01*
X93936515Y-81048343D01*
X93928467Y-81080471D01*
X93917309Y-81111656D01*
X93903148Y-81141596D01*
X93886121Y-81170005D01*
X93866391Y-81196608D01*
X93844149Y-81221149D01*
X93819608Y-81243391D01*
X93793005Y-81263121D01*
X93764596Y-81280148D01*
X93734656Y-81294309D01*
X93703471Y-81305467D01*
X93671343Y-81313515D01*
X93638581Y-81318375D01*
X93605500Y-81320000D01*
X92830500Y-81320000D01*
X92797419Y-81318375D01*
X92764657Y-81313515D01*
X92732529Y-81305467D01*
X92701344Y-81294309D01*
X92671404Y-81280148D01*
X92642995Y-81263121D01*
X92616392Y-81243391D01*
X92591851Y-81221149D01*
X92569609Y-81196608D01*
X92549879Y-81170005D01*
X92532852Y-81141596D01*
X92518691Y-81111656D01*
X92507533Y-81080471D01*
X92499485Y-81048343D01*
X92494625Y-81015581D01*
X92493000Y-80982500D01*
X92493000Y-80307500D01*
X92494625Y-80274419D01*
X92499485Y-80241657D01*
X92507533Y-80209529D01*
X92518691Y-80178344D01*
X92532852Y-80148404D01*
X92549879Y-80119995D01*
X92569609Y-80093392D01*
X92591851Y-80068851D01*
X92616392Y-80046609D01*
X92642995Y-80026879D01*
X92671404Y-80009852D01*
X92701344Y-79995691D01*
X92732529Y-79984533D01*
X92764657Y-79976485D01*
X92797419Y-79971625D01*
X92830500Y-79970000D01*
X93605500Y-79970000D01*
X93638581Y-79971625D01*
G37*
G36*
X96446081Y-134228125D02*
G01*
X96478843Y-134232985D01*
X96510971Y-134241033D01*
X96542156Y-134252191D01*
X96572096Y-134266352D01*
X96600505Y-134283379D01*
X96627108Y-134303109D01*
X96651649Y-134325351D01*
X96673891Y-134349892D01*
X96693621Y-134376495D01*
X96710648Y-134404904D01*
X96724809Y-134434844D01*
X96735967Y-134466029D01*
X96744015Y-134498157D01*
X96748875Y-134530919D01*
X96750500Y-134564000D01*
X96750500Y-135339000D01*
X96748875Y-135372081D01*
X96744015Y-135404843D01*
X96735967Y-135436971D01*
X96724809Y-135468156D01*
X96710648Y-135498096D01*
X96693621Y-135526505D01*
X96673891Y-135553108D01*
X96651649Y-135577649D01*
X96627108Y-135599891D01*
X96600505Y-135619621D01*
X96572096Y-135636648D01*
X96542156Y-135650809D01*
X96510971Y-135661967D01*
X96478843Y-135670015D01*
X96446081Y-135674875D01*
X96413000Y-135676500D01*
X95738000Y-135676500D01*
X95704919Y-135674875D01*
X95672157Y-135670015D01*
X95640029Y-135661967D01*
X95608844Y-135650809D01*
X95578904Y-135636648D01*
X95550495Y-135619621D01*
X95523892Y-135599891D01*
X95499351Y-135577649D01*
X95477109Y-135553108D01*
X95457379Y-135526505D01*
X95440352Y-135498096D01*
X95426191Y-135468156D01*
X95415033Y-135436971D01*
X95406985Y-135404843D01*
X95402125Y-135372081D01*
X95400500Y-135339000D01*
X95400500Y-134564000D01*
X95402125Y-134530919D01*
X95406985Y-134498157D01*
X95415033Y-134466029D01*
X95426191Y-134434844D01*
X95440352Y-134404904D01*
X95457379Y-134376495D01*
X95477109Y-134349892D01*
X95499351Y-134325351D01*
X95523892Y-134303109D01*
X95550495Y-134283379D01*
X95578904Y-134266352D01*
X95608844Y-134252191D01*
X95640029Y-134241033D01*
X95672157Y-134232985D01*
X95704919Y-134228125D01*
X95738000Y-134226500D01*
X96413000Y-134226500D01*
X96446081Y-134228125D01*
G37*
G36*
X96446081Y-135978125D02*
G01*
X96478843Y-135982985D01*
X96510971Y-135991033D01*
X96542156Y-136002191D01*
X96572096Y-136016352D01*
X96600505Y-136033379D01*
X96627108Y-136053109D01*
X96651649Y-136075351D01*
X96673891Y-136099892D01*
X96693621Y-136126495D01*
X96710648Y-136154904D01*
X96724809Y-136184844D01*
X96735967Y-136216029D01*
X96744015Y-136248157D01*
X96748875Y-136280919D01*
X96750500Y-136314000D01*
X96750500Y-137089000D01*
X96748875Y-137122081D01*
X96744015Y-137154843D01*
X96735967Y-137186971D01*
X96724809Y-137218156D01*
X96710648Y-137248096D01*
X96693621Y-137276505D01*
X96673891Y-137303108D01*
X96651649Y-137327649D01*
X96627108Y-137349891D01*
X96600505Y-137369621D01*
X96572096Y-137386648D01*
X96542156Y-137400809D01*
X96510971Y-137411967D01*
X96478843Y-137420015D01*
X96446081Y-137424875D01*
X96413000Y-137426500D01*
X95738000Y-137426500D01*
X95704919Y-137424875D01*
X95672157Y-137420015D01*
X95640029Y-137411967D01*
X95608844Y-137400809D01*
X95578904Y-137386648D01*
X95550495Y-137369621D01*
X95523892Y-137349891D01*
X95499351Y-137327649D01*
X95477109Y-137303108D01*
X95457379Y-137276505D01*
X95440352Y-137248096D01*
X95426191Y-137218156D01*
X95415033Y-137186971D01*
X95406985Y-137154843D01*
X95402125Y-137122081D01*
X95400500Y-137089000D01*
X95400500Y-136314000D01*
X95402125Y-136280919D01*
X95406985Y-136248157D01*
X95415033Y-136216029D01*
X95426191Y-136184844D01*
X95440352Y-136154904D01*
X95457379Y-136126495D01*
X95477109Y-136099892D01*
X95499351Y-136075351D01*
X95523892Y-136053109D01*
X95550495Y-136033379D01*
X95578904Y-136016352D01*
X95608844Y-136002191D01*
X95640029Y-135991033D01*
X95672157Y-135982985D01*
X95704919Y-135978125D01*
X95738000Y-135976500D01*
X96413000Y-135976500D01*
X96446081Y-135978125D01*
G37*
G36*
X95366581Y-83654125D02*
G01*
X95399343Y-83658985D01*
X95431471Y-83667033D01*
X95462656Y-83678191D01*
X95492596Y-83692352D01*
X95521005Y-83709379D01*
X95547608Y-83729109D01*
X95572149Y-83751351D01*
X95594391Y-83775892D01*
X95614121Y-83802495D01*
X95631148Y-83830904D01*
X95645309Y-83860844D01*
X95656467Y-83892029D01*
X95664515Y-83924157D01*
X95669375Y-83956919D01*
X95671000Y-83990000D01*
X95671000Y-84765000D01*
X95669375Y-84798081D01*
X95664515Y-84830843D01*
X95656467Y-84862971D01*
X95645309Y-84894156D01*
X95631148Y-84924096D01*
X95614121Y-84952505D01*
X95594391Y-84979108D01*
X95572149Y-85003649D01*
X95547608Y-85025891D01*
X95521005Y-85045621D01*
X95492596Y-85062648D01*
X95462656Y-85076809D01*
X95431471Y-85087967D01*
X95399343Y-85096015D01*
X95366581Y-85100875D01*
X95333500Y-85102500D01*
X94658500Y-85102500D01*
X94625419Y-85100875D01*
X94592657Y-85096015D01*
X94560529Y-85087967D01*
X94529344Y-85076809D01*
X94499404Y-85062648D01*
X94470995Y-85045621D01*
X94444392Y-85025891D01*
X94419851Y-85003649D01*
X94397609Y-84979108D01*
X94377879Y-84952505D01*
X94360852Y-84924096D01*
X94346691Y-84894156D01*
X94335533Y-84862971D01*
X94327485Y-84830843D01*
X94322625Y-84798081D01*
X94321000Y-84765000D01*
X94321000Y-83990000D01*
X94322625Y-83956919D01*
X94327485Y-83924157D01*
X94335533Y-83892029D01*
X94346691Y-83860844D01*
X94360852Y-83830904D01*
X94377879Y-83802495D01*
X94397609Y-83775892D01*
X94419851Y-83751351D01*
X94444392Y-83729109D01*
X94470995Y-83709379D01*
X94499404Y-83692352D01*
X94529344Y-83678191D01*
X94560529Y-83667033D01*
X94592657Y-83658985D01*
X94625419Y-83654125D01*
X94658500Y-83652500D01*
X95333500Y-83652500D01*
X95366581Y-83654125D01*
G37*
G36*
X95366581Y-81904125D02*
G01*
X95399343Y-81908985D01*
X95431471Y-81917033D01*
X95462656Y-81928191D01*
X95492596Y-81942352D01*
X95521005Y-81959379D01*
X95547608Y-81979109D01*
X95572149Y-82001351D01*
X95594391Y-82025892D01*
X95614121Y-82052495D01*
X95631148Y-82080904D01*
X95645309Y-82110844D01*
X95656467Y-82142029D01*
X95664515Y-82174157D01*
X95669375Y-82206919D01*
X95671000Y-82240000D01*
X95671000Y-83015000D01*
X95669375Y-83048081D01*
X95664515Y-83080843D01*
X95656467Y-83112971D01*
X95645309Y-83144156D01*
X95631148Y-83174096D01*
X95614121Y-83202505D01*
X95594391Y-83229108D01*
X95572149Y-83253649D01*
X95547608Y-83275891D01*
X95521005Y-83295621D01*
X95492596Y-83312648D01*
X95462656Y-83326809D01*
X95431471Y-83337967D01*
X95399343Y-83346015D01*
X95366581Y-83350875D01*
X95333500Y-83352500D01*
X94658500Y-83352500D01*
X94625419Y-83350875D01*
X94592657Y-83346015D01*
X94560529Y-83337967D01*
X94529344Y-83326809D01*
X94499404Y-83312648D01*
X94470995Y-83295621D01*
X94444392Y-83275891D01*
X94419851Y-83253649D01*
X94397609Y-83229108D01*
X94377879Y-83202505D01*
X94360852Y-83174096D01*
X94346691Y-83144156D01*
X94335533Y-83112971D01*
X94327485Y-83080843D01*
X94322625Y-83048081D01*
X94321000Y-83015000D01*
X94321000Y-82240000D01*
X94322625Y-82206919D01*
X94327485Y-82174157D01*
X94335533Y-82142029D01*
X94346691Y-82110844D01*
X94360852Y-82080904D01*
X94377879Y-82052495D01*
X94397609Y-82025892D01*
X94419851Y-82001351D01*
X94444392Y-81979109D01*
X94470995Y-81959379D01*
X94499404Y-81942352D01*
X94529344Y-81928191D01*
X94560529Y-81917033D01*
X94592657Y-81908985D01*
X94625419Y-81904125D01*
X94658500Y-81902500D01*
X95333500Y-81902500D01*
X95366581Y-81904125D01*
G37*
D12*
X127926500Y-117730500D03*
X127926500Y-109830500D03*
X127926500Y-101930500D03*
X137173000Y-58140000D03*
X145073000Y-58140000D03*
X62523000Y-58394000D03*
X54623000Y-58394000D03*
X120777000Y-53986500D03*
X120777000Y-61886500D03*
X120777000Y-69786500D03*
D15*
X54610000Y-125730000D03*
D16*
X55880000Y-125730000D03*
X54610000Y-127000000D03*
X55880000Y-127000000D03*
X54610000Y-128270000D03*
X55880000Y-128270000D03*
X54610000Y-129540000D03*
X55880000Y-129540000D03*
X54610000Y-130810000D03*
X55880000Y-130810000D03*
D14*
G36*
X146175881Y-109562625D02*
G01*
X146208643Y-109567485D01*
X146240771Y-109575533D01*
X146271956Y-109586691D01*
X146301896Y-109600852D01*
X146330305Y-109617879D01*
X146356908Y-109637609D01*
X146381449Y-109659851D01*
X146403691Y-109684392D01*
X146423421Y-109710995D01*
X146440448Y-109739404D01*
X146454609Y-109769344D01*
X146465767Y-109800529D01*
X146473815Y-109832657D01*
X146478675Y-109865419D01*
X146480300Y-109898500D01*
X146480300Y-110573500D01*
X146478675Y-110606581D01*
X146473815Y-110639343D01*
X146465767Y-110671471D01*
X146454609Y-110702656D01*
X146440448Y-110732596D01*
X146423421Y-110761005D01*
X146403691Y-110787608D01*
X146381449Y-110812149D01*
X146356908Y-110834391D01*
X146330305Y-110854121D01*
X146301896Y-110871148D01*
X146271956Y-110885309D01*
X146240771Y-110896467D01*
X146208643Y-110904515D01*
X146175881Y-110909375D01*
X146142800Y-110911000D01*
X145367800Y-110911000D01*
X145334719Y-110909375D01*
X145301957Y-110904515D01*
X145269829Y-110896467D01*
X145238644Y-110885309D01*
X145208704Y-110871148D01*
X145180295Y-110854121D01*
X145153692Y-110834391D01*
X145129151Y-110812149D01*
X145106909Y-110787608D01*
X145087179Y-110761005D01*
X145070152Y-110732596D01*
X145055991Y-110702656D01*
X145044833Y-110671471D01*
X145036785Y-110639343D01*
X145031925Y-110606581D01*
X145030300Y-110573500D01*
X145030300Y-109898500D01*
X145031925Y-109865419D01*
X145036785Y-109832657D01*
X145044833Y-109800529D01*
X145055991Y-109769344D01*
X145070152Y-109739404D01*
X145087179Y-109710995D01*
X145106909Y-109684392D01*
X145129151Y-109659851D01*
X145153692Y-109637609D01*
X145180295Y-109617879D01*
X145208704Y-109600852D01*
X145238644Y-109586691D01*
X145269829Y-109575533D01*
X145301957Y-109567485D01*
X145334719Y-109562625D01*
X145367800Y-109561000D01*
X146142800Y-109561000D01*
X146175881Y-109562625D01*
G37*
G36*
X144425881Y-109562625D02*
G01*
X144458643Y-109567485D01*
X144490771Y-109575533D01*
X144521956Y-109586691D01*
X144551896Y-109600852D01*
X144580305Y-109617879D01*
X144606908Y-109637609D01*
X144631449Y-109659851D01*
X144653691Y-109684392D01*
X144673421Y-109710995D01*
X144690448Y-109739404D01*
X144704609Y-109769344D01*
X144715767Y-109800529D01*
X144723815Y-109832657D01*
X144728675Y-109865419D01*
X144730300Y-109898500D01*
X144730300Y-110573500D01*
X144728675Y-110606581D01*
X144723815Y-110639343D01*
X144715767Y-110671471D01*
X144704609Y-110702656D01*
X144690448Y-110732596D01*
X144673421Y-110761005D01*
X144653691Y-110787608D01*
X144631449Y-110812149D01*
X144606908Y-110834391D01*
X144580305Y-110854121D01*
X144551896Y-110871148D01*
X144521956Y-110885309D01*
X144490771Y-110896467D01*
X144458643Y-110904515D01*
X144425881Y-110909375D01*
X144392800Y-110911000D01*
X143617800Y-110911000D01*
X143584719Y-110909375D01*
X143551957Y-110904515D01*
X143519829Y-110896467D01*
X143488644Y-110885309D01*
X143458704Y-110871148D01*
X143430295Y-110854121D01*
X143403692Y-110834391D01*
X143379151Y-110812149D01*
X143356909Y-110787608D01*
X143337179Y-110761005D01*
X143320152Y-110732596D01*
X143305991Y-110702656D01*
X143294833Y-110671471D01*
X143286785Y-110639343D01*
X143281925Y-110606581D01*
X143280300Y-110573500D01*
X143280300Y-109898500D01*
X143281925Y-109865419D01*
X143286785Y-109832657D01*
X143294833Y-109800529D01*
X143305991Y-109769344D01*
X143320152Y-109739404D01*
X143337179Y-109710995D01*
X143356909Y-109684392D01*
X143379151Y-109659851D01*
X143403692Y-109637609D01*
X143430295Y-109617879D01*
X143458704Y-109600852D01*
X143488644Y-109586691D01*
X143519829Y-109575533D01*
X143551957Y-109567485D01*
X143584719Y-109562625D01*
X143617800Y-109561000D01*
X144392800Y-109561000D01*
X144425881Y-109562625D01*
G37*
G36*
X144439881Y-112801125D02*
G01*
X144472643Y-112805985D01*
X144504771Y-112814033D01*
X144535956Y-112825191D01*
X144565896Y-112839352D01*
X144594305Y-112856379D01*
X144620908Y-112876109D01*
X144645449Y-112898351D01*
X144667691Y-112922892D01*
X144687421Y-112949495D01*
X144704448Y-112977904D01*
X144718609Y-113007844D01*
X144729767Y-113039029D01*
X144737815Y-113071157D01*
X144742675Y-113103919D01*
X144744300Y-113137000D01*
X144744300Y-113812000D01*
X144742675Y-113845081D01*
X144737815Y-113877843D01*
X144729767Y-113909971D01*
X144718609Y-113941156D01*
X144704448Y-113971096D01*
X144687421Y-113999505D01*
X144667691Y-114026108D01*
X144645449Y-114050649D01*
X144620908Y-114072891D01*
X144594305Y-114092621D01*
X144565896Y-114109648D01*
X144535956Y-114123809D01*
X144504771Y-114134967D01*
X144472643Y-114143015D01*
X144439881Y-114147875D01*
X144406800Y-114149500D01*
X143631800Y-114149500D01*
X143598719Y-114147875D01*
X143565957Y-114143015D01*
X143533829Y-114134967D01*
X143502644Y-114123809D01*
X143472704Y-114109648D01*
X143444295Y-114092621D01*
X143417692Y-114072891D01*
X143393151Y-114050649D01*
X143370909Y-114026108D01*
X143351179Y-113999505D01*
X143334152Y-113971096D01*
X143319991Y-113941156D01*
X143308833Y-113909971D01*
X143300785Y-113877843D01*
X143295925Y-113845081D01*
X143294300Y-113812000D01*
X143294300Y-113137000D01*
X143295925Y-113103919D01*
X143300785Y-113071157D01*
X143308833Y-113039029D01*
X143319991Y-113007844D01*
X143334152Y-112977904D01*
X143351179Y-112949495D01*
X143370909Y-112922892D01*
X143393151Y-112898351D01*
X143417692Y-112876109D01*
X143444295Y-112856379D01*
X143472704Y-112839352D01*
X143502644Y-112825191D01*
X143533829Y-112814033D01*
X143565957Y-112805985D01*
X143598719Y-112801125D01*
X143631800Y-112799500D01*
X144406800Y-112799500D01*
X144439881Y-112801125D01*
G37*
G36*
X146189881Y-112801125D02*
G01*
X146222643Y-112805985D01*
X146254771Y-112814033D01*
X146285956Y-112825191D01*
X146315896Y-112839352D01*
X146344305Y-112856379D01*
X146370908Y-112876109D01*
X146395449Y-112898351D01*
X146417691Y-112922892D01*
X146437421Y-112949495D01*
X146454448Y-112977904D01*
X146468609Y-113007844D01*
X146479767Y-113039029D01*
X146487815Y-113071157D01*
X146492675Y-113103919D01*
X146494300Y-113137000D01*
X146494300Y-113812000D01*
X146492675Y-113845081D01*
X146487815Y-113877843D01*
X146479767Y-113909971D01*
X146468609Y-113941156D01*
X146454448Y-113971096D01*
X146437421Y-113999505D01*
X146417691Y-114026108D01*
X146395449Y-114050649D01*
X146370908Y-114072891D01*
X146344305Y-114092621D01*
X146315896Y-114109648D01*
X146285956Y-114123809D01*
X146254771Y-114134967D01*
X146222643Y-114143015D01*
X146189881Y-114147875D01*
X146156800Y-114149500D01*
X145381800Y-114149500D01*
X145348719Y-114147875D01*
X145315957Y-114143015D01*
X145283829Y-114134967D01*
X145252644Y-114123809D01*
X145222704Y-114109648D01*
X145194295Y-114092621D01*
X145167692Y-114072891D01*
X145143151Y-114050649D01*
X145120909Y-114026108D01*
X145101179Y-113999505D01*
X145084152Y-113971096D01*
X145069991Y-113941156D01*
X145058833Y-113909971D01*
X145050785Y-113877843D01*
X145045925Y-113845081D01*
X145044300Y-113812000D01*
X145044300Y-113137000D01*
X145045925Y-113103919D01*
X145050785Y-113071157D01*
X145058833Y-113039029D01*
X145069991Y-113007844D01*
X145084152Y-112977904D01*
X145101179Y-112949495D01*
X145120909Y-112922892D01*
X145143151Y-112898351D01*
X145167692Y-112876109D01*
X145194295Y-112856379D01*
X145222704Y-112839352D01*
X145252644Y-112825191D01*
X145283829Y-112814033D01*
X145315957Y-112805985D01*
X145348719Y-112801125D01*
X145381800Y-112799500D01*
X146156800Y-112799500D01*
X146189881Y-112801125D01*
G37*
G36*
X144439881Y-116039625D02*
G01*
X144472643Y-116044485D01*
X144504771Y-116052533D01*
X144535956Y-116063691D01*
X144565896Y-116077852D01*
X144594305Y-116094879D01*
X144620908Y-116114609D01*
X144645449Y-116136851D01*
X144667691Y-116161392D01*
X144687421Y-116187995D01*
X144704448Y-116216404D01*
X144718609Y-116246344D01*
X144729767Y-116277529D01*
X144737815Y-116309657D01*
X144742675Y-116342419D01*
X144744300Y-116375500D01*
X144744300Y-117050500D01*
X144742675Y-117083581D01*
X144737815Y-117116343D01*
X144729767Y-117148471D01*
X144718609Y-117179656D01*
X144704448Y-117209596D01*
X144687421Y-117238005D01*
X144667691Y-117264608D01*
X144645449Y-117289149D01*
X144620908Y-117311391D01*
X144594305Y-117331121D01*
X144565896Y-117348148D01*
X144535956Y-117362309D01*
X144504771Y-117373467D01*
X144472643Y-117381515D01*
X144439881Y-117386375D01*
X144406800Y-117388000D01*
X143631800Y-117388000D01*
X143598719Y-117386375D01*
X143565957Y-117381515D01*
X143533829Y-117373467D01*
X143502644Y-117362309D01*
X143472704Y-117348148D01*
X143444295Y-117331121D01*
X143417692Y-117311391D01*
X143393151Y-117289149D01*
X143370909Y-117264608D01*
X143351179Y-117238005D01*
X143334152Y-117209596D01*
X143319991Y-117179656D01*
X143308833Y-117148471D01*
X143300785Y-117116343D01*
X143295925Y-117083581D01*
X143294300Y-117050500D01*
X143294300Y-116375500D01*
X143295925Y-116342419D01*
X143300785Y-116309657D01*
X143308833Y-116277529D01*
X143319991Y-116246344D01*
X143334152Y-116216404D01*
X143351179Y-116187995D01*
X143370909Y-116161392D01*
X143393151Y-116136851D01*
X143417692Y-116114609D01*
X143444295Y-116094879D01*
X143472704Y-116077852D01*
X143502644Y-116063691D01*
X143533829Y-116052533D01*
X143565957Y-116044485D01*
X143598719Y-116039625D01*
X143631800Y-116038000D01*
X144406800Y-116038000D01*
X144439881Y-116039625D01*
G37*
G36*
X146189881Y-116039625D02*
G01*
X146222643Y-116044485D01*
X146254771Y-116052533D01*
X146285956Y-116063691D01*
X146315896Y-116077852D01*
X146344305Y-116094879D01*
X146370908Y-116114609D01*
X146395449Y-116136851D01*
X146417691Y-116161392D01*
X146437421Y-116187995D01*
X146454448Y-116216404D01*
X146468609Y-116246344D01*
X146479767Y-116277529D01*
X146487815Y-116309657D01*
X146492675Y-116342419D01*
X146494300Y-116375500D01*
X146494300Y-117050500D01*
X146492675Y-117083581D01*
X146487815Y-117116343D01*
X146479767Y-117148471D01*
X146468609Y-117179656D01*
X146454448Y-117209596D01*
X146437421Y-117238005D01*
X146417691Y-117264608D01*
X146395449Y-117289149D01*
X146370908Y-117311391D01*
X146344305Y-117331121D01*
X146315896Y-117348148D01*
X146285956Y-117362309D01*
X146254771Y-117373467D01*
X146222643Y-117381515D01*
X146189881Y-117386375D01*
X146156800Y-117388000D01*
X145381800Y-117388000D01*
X145348719Y-117386375D01*
X145315957Y-117381515D01*
X145283829Y-117373467D01*
X145252644Y-117362309D01*
X145222704Y-117348148D01*
X145194295Y-117331121D01*
X145167692Y-117311391D01*
X145143151Y-117289149D01*
X145120909Y-117264608D01*
X145101179Y-117238005D01*
X145084152Y-117209596D01*
X145069991Y-117179656D01*
X145058833Y-117148471D01*
X145050785Y-117116343D01*
X145045925Y-117083581D01*
X145044300Y-117050500D01*
X145044300Y-116375500D01*
X145045925Y-116342419D01*
X145050785Y-116309657D01*
X145058833Y-116277529D01*
X145069991Y-116246344D01*
X145084152Y-116216404D01*
X145101179Y-116187995D01*
X145120909Y-116161392D01*
X145143151Y-116136851D01*
X145167692Y-116114609D01*
X145194295Y-116094879D01*
X145222704Y-116077852D01*
X145252644Y-116063691D01*
X145283829Y-116052533D01*
X145315957Y-116044485D01*
X145348719Y-116039625D01*
X145381800Y-116038000D01*
X146156800Y-116038000D01*
X146189881Y-116039625D01*
G37*
G36*
X146189881Y-119214625D02*
G01*
X146222643Y-119219485D01*
X146254771Y-119227533D01*
X146285956Y-119238691D01*
X146315896Y-119252852D01*
X146344305Y-119269879D01*
X146370908Y-119289609D01*
X146395449Y-119311851D01*
X146417691Y-119336392D01*
X146437421Y-119362995D01*
X146454448Y-119391404D01*
X146468609Y-119421344D01*
X146479767Y-119452529D01*
X146487815Y-119484657D01*
X146492675Y-119517419D01*
X146494300Y-119550500D01*
X146494300Y-120225500D01*
X146492675Y-120258581D01*
X146487815Y-120291343D01*
X146479767Y-120323471D01*
X146468609Y-120354656D01*
X146454448Y-120384596D01*
X146437421Y-120413005D01*
X146417691Y-120439608D01*
X146395449Y-120464149D01*
X146370908Y-120486391D01*
X146344305Y-120506121D01*
X146315896Y-120523148D01*
X146285956Y-120537309D01*
X146254771Y-120548467D01*
X146222643Y-120556515D01*
X146189881Y-120561375D01*
X146156800Y-120563000D01*
X145381800Y-120563000D01*
X145348719Y-120561375D01*
X145315957Y-120556515D01*
X145283829Y-120548467D01*
X145252644Y-120537309D01*
X145222704Y-120523148D01*
X145194295Y-120506121D01*
X145167692Y-120486391D01*
X145143151Y-120464149D01*
X145120909Y-120439608D01*
X145101179Y-120413005D01*
X145084152Y-120384596D01*
X145069991Y-120354656D01*
X145058833Y-120323471D01*
X145050785Y-120291343D01*
X145045925Y-120258581D01*
X145044300Y-120225500D01*
X145044300Y-119550500D01*
X145045925Y-119517419D01*
X145050785Y-119484657D01*
X145058833Y-119452529D01*
X145069991Y-119421344D01*
X145084152Y-119391404D01*
X145101179Y-119362995D01*
X145120909Y-119336392D01*
X145143151Y-119311851D01*
X145167692Y-119289609D01*
X145194295Y-119269879D01*
X145222704Y-119252852D01*
X145252644Y-119238691D01*
X145283829Y-119227533D01*
X145315957Y-119219485D01*
X145348719Y-119214625D01*
X145381800Y-119213000D01*
X146156800Y-119213000D01*
X146189881Y-119214625D01*
G37*
G36*
X144439881Y-119214625D02*
G01*
X144472643Y-119219485D01*
X144504771Y-119227533D01*
X144535956Y-119238691D01*
X144565896Y-119252852D01*
X144594305Y-119269879D01*
X144620908Y-119289609D01*
X144645449Y-119311851D01*
X144667691Y-119336392D01*
X144687421Y-119362995D01*
X144704448Y-119391404D01*
X144718609Y-119421344D01*
X144729767Y-119452529D01*
X144737815Y-119484657D01*
X144742675Y-119517419D01*
X144744300Y-119550500D01*
X144744300Y-120225500D01*
X144742675Y-120258581D01*
X144737815Y-120291343D01*
X144729767Y-120323471D01*
X144718609Y-120354656D01*
X144704448Y-120384596D01*
X144687421Y-120413005D01*
X144667691Y-120439608D01*
X144645449Y-120464149D01*
X144620908Y-120486391D01*
X144594305Y-120506121D01*
X144565896Y-120523148D01*
X144535956Y-120537309D01*
X144504771Y-120548467D01*
X144472643Y-120556515D01*
X144439881Y-120561375D01*
X144406800Y-120563000D01*
X143631800Y-120563000D01*
X143598719Y-120561375D01*
X143565957Y-120556515D01*
X143533829Y-120548467D01*
X143502644Y-120537309D01*
X143472704Y-120523148D01*
X143444295Y-120506121D01*
X143417692Y-120486391D01*
X143393151Y-120464149D01*
X143370909Y-120439608D01*
X143351179Y-120413005D01*
X143334152Y-120384596D01*
X143319991Y-120354656D01*
X143308833Y-120323471D01*
X143300785Y-120291343D01*
X143295925Y-120258581D01*
X143294300Y-120225500D01*
X143294300Y-119550500D01*
X143295925Y-119517419D01*
X143300785Y-119484657D01*
X143308833Y-119452529D01*
X143319991Y-119421344D01*
X143334152Y-119391404D01*
X143351179Y-119362995D01*
X143370909Y-119336392D01*
X143393151Y-119311851D01*
X143417692Y-119289609D01*
X143444295Y-119269879D01*
X143472704Y-119252852D01*
X143502644Y-119238691D01*
X143533829Y-119227533D01*
X143565957Y-119219485D01*
X143598719Y-119214625D01*
X143631800Y-119213000D01*
X144406800Y-119213000D01*
X144439881Y-119214625D01*
G37*
G36*
X146189881Y-106324125D02*
G01*
X146222643Y-106328985D01*
X146254771Y-106337033D01*
X146285956Y-106348191D01*
X146315896Y-106362352D01*
X146344305Y-106379379D01*
X146370908Y-106399109D01*
X146395449Y-106421351D01*
X146417691Y-106445892D01*
X146437421Y-106472495D01*
X146454448Y-106500904D01*
X146468609Y-106530844D01*
X146479767Y-106562029D01*
X146487815Y-106594157D01*
X146492675Y-106626919D01*
X146494300Y-106660000D01*
X146494300Y-107335000D01*
X146492675Y-107368081D01*
X146487815Y-107400843D01*
X146479767Y-107432971D01*
X146468609Y-107464156D01*
X146454448Y-107494096D01*
X146437421Y-107522505D01*
X146417691Y-107549108D01*
X146395449Y-107573649D01*
X146370908Y-107595891D01*
X146344305Y-107615621D01*
X146315896Y-107632648D01*
X146285956Y-107646809D01*
X146254771Y-107657967D01*
X146222643Y-107666015D01*
X146189881Y-107670875D01*
X146156800Y-107672500D01*
X145381800Y-107672500D01*
X145348719Y-107670875D01*
X145315957Y-107666015D01*
X145283829Y-107657967D01*
X145252644Y-107646809D01*
X145222704Y-107632648D01*
X145194295Y-107615621D01*
X145167692Y-107595891D01*
X145143151Y-107573649D01*
X145120909Y-107549108D01*
X145101179Y-107522505D01*
X145084152Y-107494096D01*
X145069991Y-107464156D01*
X145058833Y-107432971D01*
X145050785Y-107400843D01*
X145045925Y-107368081D01*
X145044300Y-107335000D01*
X145044300Y-106660000D01*
X145045925Y-106626919D01*
X145050785Y-106594157D01*
X145058833Y-106562029D01*
X145069991Y-106530844D01*
X145084152Y-106500904D01*
X145101179Y-106472495D01*
X145120909Y-106445892D01*
X145143151Y-106421351D01*
X145167692Y-106399109D01*
X145194295Y-106379379D01*
X145222704Y-106362352D01*
X145252644Y-106348191D01*
X145283829Y-106337033D01*
X145315957Y-106328985D01*
X145348719Y-106324125D01*
X145381800Y-106322500D01*
X146156800Y-106322500D01*
X146189881Y-106324125D01*
G37*
G36*
X144439881Y-106324125D02*
G01*
X144472643Y-106328985D01*
X144504771Y-106337033D01*
X144535956Y-106348191D01*
X144565896Y-106362352D01*
X144594305Y-106379379D01*
X144620908Y-106399109D01*
X144645449Y-106421351D01*
X144667691Y-106445892D01*
X144687421Y-106472495D01*
X144704448Y-106500904D01*
X144718609Y-106530844D01*
X144729767Y-106562029D01*
X144737815Y-106594157D01*
X144742675Y-106626919D01*
X144744300Y-106660000D01*
X144744300Y-107335000D01*
X144742675Y-107368081D01*
X144737815Y-107400843D01*
X144729767Y-107432971D01*
X144718609Y-107464156D01*
X144704448Y-107494096D01*
X144687421Y-107522505D01*
X144667691Y-107549108D01*
X144645449Y-107573649D01*
X144620908Y-107595891D01*
X144594305Y-107615621D01*
X144565896Y-107632648D01*
X144535956Y-107646809D01*
X144504771Y-107657967D01*
X144472643Y-107666015D01*
X144439881Y-107670875D01*
X144406800Y-107672500D01*
X143631800Y-107672500D01*
X143598719Y-107670875D01*
X143565957Y-107666015D01*
X143533829Y-107657967D01*
X143502644Y-107646809D01*
X143472704Y-107632648D01*
X143444295Y-107615621D01*
X143417692Y-107595891D01*
X143393151Y-107573649D01*
X143370909Y-107549108D01*
X143351179Y-107522505D01*
X143334152Y-107494096D01*
X143319991Y-107464156D01*
X143308833Y-107432971D01*
X143300785Y-107400843D01*
X143295925Y-107368081D01*
X143294300Y-107335000D01*
X143294300Y-106660000D01*
X143295925Y-106626919D01*
X143300785Y-106594157D01*
X143308833Y-106562029D01*
X143319991Y-106530844D01*
X143334152Y-106500904D01*
X143351179Y-106472495D01*
X143370909Y-106445892D01*
X143393151Y-106421351D01*
X143417692Y-106399109D01*
X143444295Y-106379379D01*
X143472704Y-106362352D01*
X143502644Y-106348191D01*
X143533829Y-106337033D01*
X143565957Y-106328985D01*
X143598719Y-106324125D01*
X143631800Y-106322500D01*
X144406800Y-106322500D01*
X144439881Y-106324125D01*
G37*
G36*
X146189881Y-122326125D02*
G01*
X146222643Y-122330985D01*
X146254771Y-122339033D01*
X146285956Y-122350191D01*
X146315896Y-122364352D01*
X146344305Y-122381379D01*
X146370908Y-122401109D01*
X146395449Y-122423351D01*
X146417691Y-122447892D01*
X146437421Y-122474495D01*
X146454448Y-122502904D01*
X146468609Y-122532844D01*
X146479767Y-122564029D01*
X146487815Y-122596157D01*
X146492675Y-122628919D01*
X146494300Y-122662000D01*
X146494300Y-123337000D01*
X146492675Y-123370081D01*
X146487815Y-123402843D01*
X146479767Y-123434971D01*
X146468609Y-123466156D01*
X146454448Y-123496096D01*
X146437421Y-123524505D01*
X146417691Y-123551108D01*
X146395449Y-123575649D01*
X146370908Y-123597891D01*
X146344305Y-123617621D01*
X146315896Y-123634648D01*
X146285956Y-123648809D01*
X146254771Y-123659967D01*
X146222643Y-123668015D01*
X146189881Y-123672875D01*
X146156800Y-123674500D01*
X145381800Y-123674500D01*
X145348719Y-123672875D01*
X145315957Y-123668015D01*
X145283829Y-123659967D01*
X145252644Y-123648809D01*
X145222704Y-123634648D01*
X145194295Y-123617621D01*
X145167692Y-123597891D01*
X145143151Y-123575649D01*
X145120909Y-123551108D01*
X145101179Y-123524505D01*
X145084152Y-123496096D01*
X145069991Y-123466156D01*
X145058833Y-123434971D01*
X145050785Y-123402843D01*
X145045925Y-123370081D01*
X145044300Y-123337000D01*
X145044300Y-122662000D01*
X145045925Y-122628919D01*
X145050785Y-122596157D01*
X145058833Y-122564029D01*
X145069991Y-122532844D01*
X145084152Y-122502904D01*
X145101179Y-122474495D01*
X145120909Y-122447892D01*
X145143151Y-122423351D01*
X145167692Y-122401109D01*
X145194295Y-122381379D01*
X145222704Y-122364352D01*
X145252644Y-122350191D01*
X145283829Y-122339033D01*
X145315957Y-122330985D01*
X145348719Y-122326125D01*
X145381800Y-122324500D01*
X146156800Y-122324500D01*
X146189881Y-122326125D01*
G37*
G36*
X144439881Y-122326125D02*
G01*
X144472643Y-122330985D01*
X144504771Y-122339033D01*
X144535956Y-122350191D01*
X144565896Y-122364352D01*
X144594305Y-122381379D01*
X144620908Y-122401109D01*
X144645449Y-122423351D01*
X144667691Y-122447892D01*
X144687421Y-122474495D01*
X144704448Y-122502904D01*
X144718609Y-122532844D01*
X144729767Y-122564029D01*
X144737815Y-122596157D01*
X144742675Y-122628919D01*
X144744300Y-122662000D01*
X144744300Y-123337000D01*
X144742675Y-123370081D01*
X144737815Y-123402843D01*
X144729767Y-123434971D01*
X144718609Y-123466156D01*
X144704448Y-123496096D01*
X144687421Y-123524505D01*
X144667691Y-123551108D01*
X144645449Y-123575649D01*
X144620908Y-123597891D01*
X144594305Y-123617621D01*
X144565896Y-123634648D01*
X144535956Y-123648809D01*
X144504771Y-123659967D01*
X144472643Y-123668015D01*
X144439881Y-123672875D01*
X144406800Y-123674500D01*
X143631800Y-123674500D01*
X143598719Y-123672875D01*
X143565957Y-123668015D01*
X143533829Y-123659967D01*
X143502644Y-123648809D01*
X143472704Y-123634648D01*
X143444295Y-123617621D01*
X143417692Y-123597891D01*
X143393151Y-123575649D01*
X143370909Y-123551108D01*
X143351179Y-123524505D01*
X143334152Y-123496096D01*
X143319991Y-123466156D01*
X143308833Y-123434971D01*
X143300785Y-123402843D01*
X143295925Y-123370081D01*
X143294300Y-123337000D01*
X143294300Y-122662000D01*
X143295925Y-122628919D01*
X143300785Y-122596157D01*
X143308833Y-122564029D01*
X143319991Y-122532844D01*
X143334152Y-122502904D01*
X143351179Y-122474495D01*
X143370909Y-122447892D01*
X143393151Y-122423351D01*
X143417692Y-122401109D01*
X143444295Y-122381379D01*
X143472704Y-122364352D01*
X143502644Y-122350191D01*
X143533829Y-122339033D01*
X143565957Y-122330985D01*
X143598719Y-122326125D01*
X143631800Y-122324500D01*
X144406800Y-122324500D01*
X144439881Y-122326125D01*
G37*
G36*
X146175881Y-103149125D02*
G01*
X146208643Y-103153985D01*
X146240771Y-103162033D01*
X146271956Y-103173191D01*
X146301896Y-103187352D01*
X146330305Y-103204379D01*
X146356908Y-103224109D01*
X146381449Y-103246351D01*
X146403691Y-103270892D01*
X146423421Y-103297495D01*
X146440448Y-103325904D01*
X146454609Y-103355844D01*
X146465767Y-103387029D01*
X146473815Y-103419157D01*
X146478675Y-103451919D01*
X146480300Y-103485000D01*
X146480300Y-104160000D01*
X146478675Y-104193081D01*
X146473815Y-104225843D01*
X146465767Y-104257971D01*
X146454609Y-104289156D01*
X146440448Y-104319096D01*
X146423421Y-104347505D01*
X146403691Y-104374108D01*
X146381449Y-104398649D01*
X146356908Y-104420891D01*
X146330305Y-104440621D01*
X146301896Y-104457648D01*
X146271956Y-104471809D01*
X146240771Y-104482967D01*
X146208643Y-104491015D01*
X146175881Y-104495875D01*
X146142800Y-104497500D01*
X145367800Y-104497500D01*
X145334719Y-104495875D01*
X145301957Y-104491015D01*
X145269829Y-104482967D01*
X145238644Y-104471809D01*
X145208704Y-104457648D01*
X145180295Y-104440621D01*
X145153692Y-104420891D01*
X145129151Y-104398649D01*
X145106909Y-104374108D01*
X145087179Y-104347505D01*
X145070152Y-104319096D01*
X145055991Y-104289156D01*
X145044833Y-104257971D01*
X145036785Y-104225843D01*
X145031925Y-104193081D01*
X145030300Y-104160000D01*
X145030300Y-103485000D01*
X145031925Y-103451919D01*
X145036785Y-103419157D01*
X145044833Y-103387029D01*
X145055991Y-103355844D01*
X145070152Y-103325904D01*
X145087179Y-103297495D01*
X145106909Y-103270892D01*
X145129151Y-103246351D01*
X145153692Y-103224109D01*
X145180295Y-103204379D01*
X145208704Y-103187352D01*
X145238644Y-103173191D01*
X145269829Y-103162033D01*
X145301957Y-103153985D01*
X145334719Y-103149125D01*
X145367800Y-103147500D01*
X146142800Y-103147500D01*
X146175881Y-103149125D01*
G37*
G36*
X144425881Y-103149125D02*
G01*
X144458643Y-103153985D01*
X144490771Y-103162033D01*
X144521956Y-103173191D01*
X144551896Y-103187352D01*
X144580305Y-103204379D01*
X144606908Y-103224109D01*
X144631449Y-103246351D01*
X144653691Y-103270892D01*
X144673421Y-103297495D01*
X144690448Y-103325904D01*
X144704609Y-103355844D01*
X144715767Y-103387029D01*
X144723815Y-103419157D01*
X144728675Y-103451919D01*
X144730300Y-103485000D01*
X144730300Y-104160000D01*
X144728675Y-104193081D01*
X144723815Y-104225843D01*
X144715767Y-104257971D01*
X144704609Y-104289156D01*
X144690448Y-104319096D01*
X144673421Y-104347505D01*
X144653691Y-104374108D01*
X144631449Y-104398649D01*
X144606908Y-104420891D01*
X144580305Y-104440621D01*
X144551896Y-104457648D01*
X144521956Y-104471809D01*
X144490771Y-104482967D01*
X144458643Y-104491015D01*
X144425881Y-104495875D01*
X144392800Y-104497500D01*
X143617800Y-104497500D01*
X143584719Y-104495875D01*
X143551957Y-104491015D01*
X143519829Y-104482967D01*
X143488644Y-104471809D01*
X143458704Y-104457648D01*
X143430295Y-104440621D01*
X143403692Y-104420891D01*
X143379151Y-104398649D01*
X143356909Y-104374108D01*
X143337179Y-104347505D01*
X143320152Y-104319096D01*
X143305991Y-104289156D01*
X143294833Y-104257971D01*
X143286785Y-104225843D01*
X143281925Y-104193081D01*
X143280300Y-104160000D01*
X143280300Y-103485000D01*
X143281925Y-103451919D01*
X143286785Y-103419157D01*
X143294833Y-103387029D01*
X143305991Y-103355844D01*
X143320152Y-103325904D01*
X143337179Y-103297495D01*
X143356909Y-103270892D01*
X143379151Y-103246351D01*
X143403692Y-103224109D01*
X143430295Y-103204379D01*
X143458704Y-103187352D01*
X143488644Y-103173191D01*
X143519829Y-103162033D01*
X143551957Y-103153985D01*
X143584719Y-103149125D01*
X143617800Y-103147500D01*
X144392800Y-103147500D01*
X144425881Y-103149125D01*
G37*
G36*
X144439881Y-100037625D02*
G01*
X144472643Y-100042485D01*
X144504771Y-100050533D01*
X144535956Y-100061691D01*
X144565896Y-100075852D01*
X144594305Y-100092879D01*
X144620908Y-100112609D01*
X144645449Y-100134851D01*
X144667691Y-100159392D01*
X144687421Y-100185995D01*
X144704448Y-100214404D01*
X144718609Y-100244344D01*
X144729767Y-100275529D01*
X144737815Y-100307657D01*
X144742675Y-100340419D01*
X144744300Y-100373500D01*
X144744300Y-101048500D01*
X144742675Y-101081581D01*
X144737815Y-101114343D01*
X144729767Y-101146471D01*
X144718609Y-101177656D01*
X144704448Y-101207596D01*
X144687421Y-101236005D01*
X144667691Y-101262608D01*
X144645449Y-101287149D01*
X144620908Y-101309391D01*
X144594305Y-101329121D01*
X144565896Y-101346148D01*
X144535956Y-101360309D01*
X144504771Y-101371467D01*
X144472643Y-101379515D01*
X144439881Y-101384375D01*
X144406800Y-101386000D01*
X143631800Y-101386000D01*
X143598719Y-101384375D01*
X143565957Y-101379515D01*
X143533829Y-101371467D01*
X143502644Y-101360309D01*
X143472704Y-101346148D01*
X143444295Y-101329121D01*
X143417692Y-101309391D01*
X143393151Y-101287149D01*
X143370909Y-101262608D01*
X143351179Y-101236005D01*
X143334152Y-101207596D01*
X143319991Y-101177656D01*
X143308833Y-101146471D01*
X143300785Y-101114343D01*
X143295925Y-101081581D01*
X143294300Y-101048500D01*
X143294300Y-100373500D01*
X143295925Y-100340419D01*
X143300785Y-100307657D01*
X143308833Y-100275529D01*
X143319991Y-100244344D01*
X143334152Y-100214404D01*
X143351179Y-100185995D01*
X143370909Y-100159392D01*
X143393151Y-100134851D01*
X143417692Y-100112609D01*
X143444295Y-100092879D01*
X143472704Y-100075852D01*
X143502644Y-100061691D01*
X143533829Y-100050533D01*
X143565957Y-100042485D01*
X143598719Y-100037625D01*
X143631800Y-100036000D01*
X144406800Y-100036000D01*
X144439881Y-100037625D01*
G37*
G36*
X146189881Y-100037625D02*
G01*
X146222643Y-100042485D01*
X146254771Y-100050533D01*
X146285956Y-100061691D01*
X146315896Y-100075852D01*
X146344305Y-100092879D01*
X146370908Y-100112609D01*
X146395449Y-100134851D01*
X146417691Y-100159392D01*
X146437421Y-100185995D01*
X146454448Y-100214404D01*
X146468609Y-100244344D01*
X146479767Y-100275529D01*
X146487815Y-100307657D01*
X146492675Y-100340419D01*
X146494300Y-100373500D01*
X146494300Y-101048500D01*
X146492675Y-101081581D01*
X146487815Y-101114343D01*
X146479767Y-101146471D01*
X146468609Y-101177656D01*
X146454448Y-101207596D01*
X146437421Y-101236005D01*
X146417691Y-101262608D01*
X146395449Y-101287149D01*
X146370908Y-101309391D01*
X146344305Y-101329121D01*
X146315896Y-101346148D01*
X146285956Y-101360309D01*
X146254771Y-101371467D01*
X146222643Y-101379515D01*
X146189881Y-101384375D01*
X146156800Y-101386000D01*
X145381800Y-101386000D01*
X145348719Y-101384375D01*
X145315957Y-101379515D01*
X145283829Y-101371467D01*
X145252644Y-101360309D01*
X145222704Y-101346148D01*
X145194295Y-101329121D01*
X145167692Y-101309391D01*
X145143151Y-101287149D01*
X145120909Y-101262608D01*
X145101179Y-101236005D01*
X145084152Y-101207596D01*
X145069991Y-101177656D01*
X145058833Y-101146471D01*
X145050785Y-101114343D01*
X145045925Y-101081581D01*
X145044300Y-101048500D01*
X145044300Y-100373500D01*
X145045925Y-100340419D01*
X145050785Y-100307657D01*
X145058833Y-100275529D01*
X145069991Y-100244344D01*
X145084152Y-100214404D01*
X145101179Y-100185995D01*
X145120909Y-100159392D01*
X145143151Y-100134851D01*
X145167692Y-100112609D01*
X145194295Y-100092879D01*
X145222704Y-100075852D01*
X145252644Y-100061691D01*
X145283829Y-100050533D01*
X145315957Y-100042485D01*
X145348719Y-100037625D01*
X145381800Y-100036000D01*
X146156800Y-100036000D01*
X146189881Y-100037625D01*
G37*
G36*
X140463481Y-109562625D02*
G01*
X140496243Y-109567485D01*
X140528371Y-109575533D01*
X140559556Y-109586691D01*
X140589496Y-109600852D01*
X140617905Y-109617879D01*
X140644508Y-109637609D01*
X140669049Y-109659851D01*
X140691291Y-109684392D01*
X140711021Y-109710995D01*
X140728048Y-109739404D01*
X140742209Y-109769344D01*
X140753367Y-109800529D01*
X140761415Y-109832657D01*
X140766275Y-109865419D01*
X140767900Y-109898500D01*
X140767900Y-110573500D01*
X140766275Y-110606581D01*
X140761415Y-110639343D01*
X140753367Y-110671471D01*
X140742209Y-110702656D01*
X140728048Y-110732596D01*
X140711021Y-110761005D01*
X140691291Y-110787608D01*
X140669049Y-110812149D01*
X140644508Y-110834391D01*
X140617905Y-110854121D01*
X140589496Y-110871148D01*
X140559556Y-110885309D01*
X140528371Y-110896467D01*
X140496243Y-110904515D01*
X140463481Y-110909375D01*
X140430400Y-110911000D01*
X139655400Y-110911000D01*
X139622319Y-110909375D01*
X139589557Y-110904515D01*
X139557429Y-110896467D01*
X139526244Y-110885309D01*
X139496304Y-110871148D01*
X139467895Y-110854121D01*
X139441292Y-110834391D01*
X139416751Y-110812149D01*
X139394509Y-110787608D01*
X139374779Y-110761005D01*
X139357752Y-110732596D01*
X139343591Y-110702656D01*
X139332433Y-110671471D01*
X139324385Y-110639343D01*
X139319525Y-110606581D01*
X139317900Y-110573500D01*
X139317900Y-109898500D01*
X139319525Y-109865419D01*
X139324385Y-109832657D01*
X139332433Y-109800529D01*
X139343591Y-109769344D01*
X139357752Y-109739404D01*
X139374779Y-109710995D01*
X139394509Y-109684392D01*
X139416751Y-109659851D01*
X139441292Y-109637609D01*
X139467895Y-109617879D01*
X139496304Y-109600852D01*
X139526244Y-109586691D01*
X139557429Y-109575533D01*
X139589557Y-109567485D01*
X139622319Y-109562625D01*
X139655400Y-109561000D01*
X140430400Y-109561000D01*
X140463481Y-109562625D01*
G37*
G36*
X142213481Y-109562625D02*
G01*
X142246243Y-109567485D01*
X142278371Y-109575533D01*
X142309556Y-109586691D01*
X142339496Y-109600852D01*
X142367905Y-109617879D01*
X142394508Y-109637609D01*
X142419049Y-109659851D01*
X142441291Y-109684392D01*
X142461021Y-109710995D01*
X142478048Y-109739404D01*
X142492209Y-109769344D01*
X142503367Y-109800529D01*
X142511415Y-109832657D01*
X142516275Y-109865419D01*
X142517900Y-109898500D01*
X142517900Y-110573500D01*
X142516275Y-110606581D01*
X142511415Y-110639343D01*
X142503367Y-110671471D01*
X142492209Y-110702656D01*
X142478048Y-110732596D01*
X142461021Y-110761005D01*
X142441291Y-110787608D01*
X142419049Y-110812149D01*
X142394508Y-110834391D01*
X142367905Y-110854121D01*
X142339496Y-110871148D01*
X142309556Y-110885309D01*
X142278371Y-110896467D01*
X142246243Y-110904515D01*
X142213481Y-110909375D01*
X142180400Y-110911000D01*
X141405400Y-110911000D01*
X141372319Y-110909375D01*
X141339557Y-110904515D01*
X141307429Y-110896467D01*
X141276244Y-110885309D01*
X141246304Y-110871148D01*
X141217895Y-110854121D01*
X141191292Y-110834391D01*
X141166751Y-110812149D01*
X141144509Y-110787608D01*
X141124779Y-110761005D01*
X141107752Y-110732596D01*
X141093591Y-110702656D01*
X141082433Y-110671471D01*
X141074385Y-110639343D01*
X141069525Y-110606581D01*
X141067900Y-110573500D01*
X141067900Y-109898500D01*
X141069525Y-109865419D01*
X141074385Y-109832657D01*
X141082433Y-109800529D01*
X141093591Y-109769344D01*
X141107752Y-109739404D01*
X141124779Y-109710995D01*
X141144509Y-109684392D01*
X141166751Y-109659851D01*
X141191292Y-109637609D01*
X141217895Y-109617879D01*
X141246304Y-109600852D01*
X141276244Y-109586691D01*
X141307429Y-109575533D01*
X141339557Y-109567485D01*
X141372319Y-109562625D01*
X141405400Y-109561000D01*
X142180400Y-109561000D01*
X142213481Y-109562625D01*
G37*
G36*
X142227481Y-112801125D02*
G01*
X142260243Y-112805985D01*
X142292371Y-112814033D01*
X142323556Y-112825191D01*
X142353496Y-112839352D01*
X142381905Y-112856379D01*
X142408508Y-112876109D01*
X142433049Y-112898351D01*
X142455291Y-112922892D01*
X142475021Y-112949495D01*
X142492048Y-112977904D01*
X142506209Y-113007844D01*
X142517367Y-113039029D01*
X142525415Y-113071157D01*
X142530275Y-113103919D01*
X142531900Y-113137000D01*
X142531900Y-113812000D01*
X142530275Y-113845081D01*
X142525415Y-113877843D01*
X142517367Y-113909971D01*
X142506209Y-113941156D01*
X142492048Y-113971096D01*
X142475021Y-113999505D01*
X142455291Y-114026108D01*
X142433049Y-114050649D01*
X142408508Y-114072891D01*
X142381905Y-114092621D01*
X142353496Y-114109648D01*
X142323556Y-114123809D01*
X142292371Y-114134967D01*
X142260243Y-114143015D01*
X142227481Y-114147875D01*
X142194400Y-114149500D01*
X141419400Y-114149500D01*
X141386319Y-114147875D01*
X141353557Y-114143015D01*
X141321429Y-114134967D01*
X141290244Y-114123809D01*
X141260304Y-114109648D01*
X141231895Y-114092621D01*
X141205292Y-114072891D01*
X141180751Y-114050649D01*
X141158509Y-114026108D01*
X141138779Y-113999505D01*
X141121752Y-113971096D01*
X141107591Y-113941156D01*
X141096433Y-113909971D01*
X141088385Y-113877843D01*
X141083525Y-113845081D01*
X141081900Y-113812000D01*
X141081900Y-113137000D01*
X141083525Y-113103919D01*
X141088385Y-113071157D01*
X141096433Y-113039029D01*
X141107591Y-113007844D01*
X141121752Y-112977904D01*
X141138779Y-112949495D01*
X141158509Y-112922892D01*
X141180751Y-112898351D01*
X141205292Y-112876109D01*
X141231895Y-112856379D01*
X141260304Y-112839352D01*
X141290244Y-112825191D01*
X141321429Y-112814033D01*
X141353557Y-112805985D01*
X141386319Y-112801125D01*
X141419400Y-112799500D01*
X142194400Y-112799500D01*
X142227481Y-112801125D01*
G37*
G36*
X140477481Y-112801125D02*
G01*
X140510243Y-112805985D01*
X140542371Y-112814033D01*
X140573556Y-112825191D01*
X140603496Y-112839352D01*
X140631905Y-112856379D01*
X140658508Y-112876109D01*
X140683049Y-112898351D01*
X140705291Y-112922892D01*
X140725021Y-112949495D01*
X140742048Y-112977904D01*
X140756209Y-113007844D01*
X140767367Y-113039029D01*
X140775415Y-113071157D01*
X140780275Y-113103919D01*
X140781900Y-113137000D01*
X140781900Y-113812000D01*
X140780275Y-113845081D01*
X140775415Y-113877843D01*
X140767367Y-113909971D01*
X140756209Y-113941156D01*
X140742048Y-113971096D01*
X140725021Y-113999505D01*
X140705291Y-114026108D01*
X140683049Y-114050649D01*
X140658508Y-114072891D01*
X140631905Y-114092621D01*
X140603496Y-114109648D01*
X140573556Y-114123809D01*
X140542371Y-114134967D01*
X140510243Y-114143015D01*
X140477481Y-114147875D01*
X140444400Y-114149500D01*
X139669400Y-114149500D01*
X139636319Y-114147875D01*
X139603557Y-114143015D01*
X139571429Y-114134967D01*
X139540244Y-114123809D01*
X139510304Y-114109648D01*
X139481895Y-114092621D01*
X139455292Y-114072891D01*
X139430751Y-114050649D01*
X139408509Y-114026108D01*
X139388779Y-113999505D01*
X139371752Y-113971096D01*
X139357591Y-113941156D01*
X139346433Y-113909971D01*
X139338385Y-113877843D01*
X139333525Y-113845081D01*
X139331900Y-113812000D01*
X139331900Y-113137000D01*
X139333525Y-113103919D01*
X139338385Y-113071157D01*
X139346433Y-113039029D01*
X139357591Y-113007844D01*
X139371752Y-112977904D01*
X139388779Y-112949495D01*
X139408509Y-112922892D01*
X139430751Y-112898351D01*
X139455292Y-112876109D01*
X139481895Y-112856379D01*
X139510304Y-112839352D01*
X139540244Y-112825191D01*
X139571429Y-112814033D01*
X139603557Y-112805985D01*
X139636319Y-112801125D01*
X139669400Y-112799500D01*
X140444400Y-112799500D01*
X140477481Y-112801125D01*
G37*
G36*
X140477481Y-116039625D02*
G01*
X140510243Y-116044485D01*
X140542371Y-116052533D01*
X140573556Y-116063691D01*
X140603496Y-116077852D01*
X140631905Y-116094879D01*
X140658508Y-116114609D01*
X140683049Y-116136851D01*
X140705291Y-116161392D01*
X140725021Y-116187995D01*
X140742048Y-116216404D01*
X140756209Y-116246344D01*
X140767367Y-116277529D01*
X140775415Y-116309657D01*
X140780275Y-116342419D01*
X140781900Y-116375500D01*
X140781900Y-117050500D01*
X140780275Y-117083581D01*
X140775415Y-117116343D01*
X140767367Y-117148471D01*
X140756209Y-117179656D01*
X140742048Y-117209596D01*
X140725021Y-117238005D01*
X140705291Y-117264608D01*
X140683049Y-117289149D01*
X140658508Y-117311391D01*
X140631905Y-117331121D01*
X140603496Y-117348148D01*
X140573556Y-117362309D01*
X140542371Y-117373467D01*
X140510243Y-117381515D01*
X140477481Y-117386375D01*
X140444400Y-117388000D01*
X139669400Y-117388000D01*
X139636319Y-117386375D01*
X139603557Y-117381515D01*
X139571429Y-117373467D01*
X139540244Y-117362309D01*
X139510304Y-117348148D01*
X139481895Y-117331121D01*
X139455292Y-117311391D01*
X139430751Y-117289149D01*
X139408509Y-117264608D01*
X139388779Y-117238005D01*
X139371752Y-117209596D01*
X139357591Y-117179656D01*
X139346433Y-117148471D01*
X139338385Y-117116343D01*
X139333525Y-117083581D01*
X139331900Y-117050500D01*
X139331900Y-116375500D01*
X139333525Y-116342419D01*
X139338385Y-116309657D01*
X139346433Y-116277529D01*
X139357591Y-116246344D01*
X139371752Y-116216404D01*
X139388779Y-116187995D01*
X139408509Y-116161392D01*
X139430751Y-116136851D01*
X139455292Y-116114609D01*
X139481895Y-116094879D01*
X139510304Y-116077852D01*
X139540244Y-116063691D01*
X139571429Y-116052533D01*
X139603557Y-116044485D01*
X139636319Y-116039625D01*
X139669400Y-116038000D01*
X140444400Y-116038000D01*
X140477481Y-116039625D01*
G37*
G36*
X142227481Y-116039625D02*
G01*
X142260243Y-116044485D01*
X142292371Y-116052533D01*
X142323556Y-116063691D01*
X142353496Y-116077852D01*
X142381905Y-116094879D01*
X142408508Y-116114609D01*
X142433049Y-116136851D01*
X142455291Y-116161392D01*
X142475021Y-116187995D01*
X142492048Y-116216404D01*
X142506209Y-116246344D01*
X142517367Y-116277529D01*
X142525415Y-116309657D01*
X142530275Y-116342419D01*
X142531900Y-116375500D01*
X142531900Y-117050500D01*
X142530275Y-117083581D01*
X142525415Y-117116343D01*
X142517367Y-117148471D01*
X142506209Y-117179656D01*
X142492048Y-117209596D01*
X142475021Y-117238005D01*
X142455291Y-117264608D01*
X142433049Y-117289149D01*
X142408508Y-117311391D01*
X142381905Y-117331121D01*
X142353496Y-117348148D01*
X142323556Y-117362309D01*
X142292371Y-117373467D01*
X142260243Y-117381515D01*
X142227481Y-117386375D01*
X142194400Y-117388000D01*
X141419400Y-117388000D01*
X141386319Y-117386375D01*
X141353557Y-117381515D01*
X141321429Y-117373467D01*
X141290244Y-117362309D01*
X141260304Y-117348148D01*
X141231895Y-117331121D01*
X141205292Y-117311391D01*
X141180751Y-117289149D01*
X141158509Y-117264608D01*
X141138779Y-117238005D01*
X141121752Y-117209596D01*
X141107591Y-117179656D01*
X141096433Y-117148471D01*
X141088385Y-117116343D01*
X141083525Y-117083581D01*
X141081900Y-117050500D01*
X141081900Y-116375500D01*
X141083525Y-116342419D01*
X141088385Y-116309657D01*
X141096433Y-116277529D01*
X141107591Y-116246344D01*
X141121752Y-116216404D01*
X141138779Y-116187995D01*
X141158509Y-116161392D01*
X141180751Y-116136851D01*
X141205292Y-116114609D01*
X141231895Y-116094879D01*
X141260304Y-116077852D01*
X141290244Y-116063691D01*
X141321429Y-116052533D01*
X141353557Y-116044485D01*
X141386319Y-116039625D01*
X141419400Y-116038000D01*
X142194400Y-116038000D01*
X142227481Y-116039625D01*
G37*
G36*
X142213481Y-119214625D02*
G01*
X142246243Y-119219485D01*
X142278371Y-119227533D01*
X142309556Y-119238691D01*
X142339496Y-119252852D01*
X142367905Y-119269879D01*
X142394508Y-119289609D01*
X142419049Y-119311851D01*
X142441291Y-119336392D01*
X142461021Y-119362995D01*
X142478048Y-119391404D01*
X142492209Y-119421344D01*
X142503367Y-119452529D01*
X142511415Y-119484657D01*
X142516275Y-119517419D01*
X142517900Y-119550500D01*
X142517900Y-120225500D01*
X142516275Y-120258581D01*
X142511415Y-120291343D01*
X142503367Y-120323471D01*
X142492209Y-120354656D01*
X142478048Y-120384596D01*
X142461021Y-120413005D01*
X142441291Y-120439608D01*
X142419049Y-120464149D01*
X142394508Y-120486391D01*
X142367905Y-120506121D01*
X142339496Y-120523148D01*
X142309556Y-120537309D01*
X142278371Y-120548467D01*
X142246243Y-120556515D01*
X142213481Y-120561375D01*
X142180400Y-120563000D01*
X141405400Y-120563000D01*
X141372319Y-120561375D01*
X141339557Y-120556515D01*
X141307429Y-120548467D01*
X141276244Y-120537309D01*
X141246304Y-120523148D01*
X141217895Y-120506121D01*
X141191292Y-120486391D01*
X141166751Y-120464149D01*
X141144509Y-120439608D01*
X141124779Y-120413005D01*
X141107752Y-120384596D01*
X141093591Y-120354656D01*
X141082433Y-120323471D01*
X141074385Y-120291343D01*
X141069525Y-120258581D01*
X141067900Y-120225500D01*
X141067900Y-119550500D01*
X141069525Y-119517419D01*
X141074385Y-119484657D01*
X141082433Y-119452529D01*
X141093591Y-119421344D01*
X141107752Y-119391404D01*
X141124779Y-119362995D01*
X141144509Y-119336392D01*
X141166751Y-119311851D01*
X141191292Y-119289609D01*
X141217895Y-119269879D01*
X141246304Y-119252852D01*
X141276244Y-119238691D01*
X141307429Y-119227533D01*
X141339557Y-119219485D01*
X141372319Y-119214625D01*
X141405400Y-119213000D01*
X142180400Y-119213000D01*
X142213481Y-119214625D01*
G37*
G36*
X140463481Y-119214625D02*
G01*
X140496243Y-119219485D01*
X140528371Y-119227533D01*
X140559556Y-119238691D01*
X140589496Y-119252852D01*
X140617905Y-119269879D01*
X140644508Y-119289609D01*
X140669049Y-119311851D01*
X140691291Y-119336392D01*
X140711021Y-119362995D01*
X140728048Y-119391404D01*
X140742209Y-119421344D01*
X140753367Y-119452529D01*
X140761415Y-119484657D01*
X140766275Y-119517419D01*
X140767900Y-119550500D01*
X140767900Y-120225500D01*
X140766275Y-120258581D01*
X140761415Y-120291343D01*
X140753367Y-120323471D01*
X140742209Y-120354656D01*
X140728048Y-120384596D01*
X140711021Y-120413005D01*
X140691291Y-120439608D01*
X140669049Y-120464149D01*
X140644508Y-120486391D01*
X140617905Y-120506121D01*
X140589496Y-120523148D01*
X140559556Y-120537309D01*
X140528371Y-120548467D01*
X140496243Y-120556515D01*
X140463481Y-120561375D01*
X140430400Y-120563000D01*
X139655400Y-120563000D01*
X139622319Y-120561375D01*
X139589557Y-120556515D01*
X139557429Y-120548467D01*
X139526244Y-120537309D01*
X139496304Y-120523148D01*
X139467895Y-120506121D01*
X139441292Y-120486391D01*
X139416751Y-120464149D01*
X139394509Y-120439608D01*
X139374779Y-120413005D01*
X139357752Y-120384596D01*
X139343591Y-120354656D01*
X139332433Y-120323471D01*
X139324385Y-120291343D01*
X139319525Y-120258581D01*
X139317900Y-120225500D01*
X139317900Y-119550500D01*
X139319525Y-119517419D01*
X139324385Y-119484657D01*
X139332433Y-119452529D01*
X139343591Y-119421344D01*
X139357752Y-119391404D01*
X139374779Y-119362995D01*
X139394509Y-119336392D01*
X139416751Y-119311851D01*
X139441292Y-119289609D01*
X139467895Y-119269879D01*
X139496304Y-119252852D01*
X139526244Y-119238691D01*
X139557429Y-119227533D01*
X139589557Y-119219485D01*
X139622319Y-119214625D01*
X139655400Y-119213000D01*
X140430400Y-119213000D01*
X140463481Y-119214625D01*
G37*
G36*
X142213481Y-106324125D02*
G01*
X142246243Y-106328985D01*
X142278371Y-106337033D01*
X142309556Y-106348191D01*
X142339496Y-106362352D01*
X142367905Y-106379379D01*
X142394508Y-106399109D01*
X142419049Y-106421351D01*
X142441291Y-106445892D01*
X142461021Y-106472495D01*
X142478048Y-106500904D01*
X142492209Y-106530844D01*
X142503367Y-106562029D01*
X142511415Y-106594157D01*
X142516275Y-106626919D01*
X142517900Y-106660000D01*
X142517900Y-107335000D01*
X142516275Y-107368081D01*
X142511415Y-107400843D01*
X142503367Y-107432971D01*
X142492209Y-107464156D01*
X142478048Y-107494096D01*
X142461021Y-107522505D01*
X142441291Y-107549108D01*
X142419049Y-107573649D01*
X142394508Y-107595891D01*
X142367905Y-107615621D01*
X142339496Y-107632648D01*
X142309556Y-107646809D01*
X142278371Y-107657967D01*
X142246243Y-107666015D01*
X142213481Y-107670875D01*
X142180400Y-107672500D01*
X141405400Y-107672500D01*
X141372319Y-107670875D01*
X141339557Y-107666015D01*
X141307429Y-107657967D01*
X141276244Y-107646809D01*
X141246304Y-107632648D01*
X141217895Y-107615621D01*
X141191292Y-107595891D01*
X141166751Y-107573649D01*
X141144509Y-107549108D01*
X141124779Y-107522505D01*
X141107752Y-107494096D01*
X141093591Y-107464156D01*
X141082433Y-107432971D01*
X141074385Y-107400843D01*
X141069525Y-107368081D01*
X141067900Y-107335000D01*
X141067900Y-106660000D01*
X141069525Y-106626919D01*
X141074385Y-106594157D01*
X141082433Y-106562029D01*
X141093591Y-106530844D01*
X141107752Y-106500904D01*
X141124779Y-106472495D01*
X141144509Y-106445892D01*
X141166751Y-106421351D01*
X141191292Y-106399109D01*
X141217895Y-106379379D01*
X141246304Y-106362352D01*
X141276244Y-106348191D01*
X141307429Y-106337033D01*
X141339557Y-106328985D01*
X141372319Y-106324125D01*
X141405400Y-106322500D01*
X142180400Y-106322500D01*
X142213481Y-106324125D01*
G37*
G36*
X140463481Y-106324125D02*
G01*
X140496243Y-106328985D01*
X140528371Y-106337033D01*
X140559556Y-106348191D01*
X140589496Y-106362352D01*
X140617905Y-106379379D01*
X140644508Y-106399109D01*
X140669049Y-106421351D01*
X140691291Y-106445892D01*
X140711021Y-106472495D01*
X140728048Y-106500904D01*
X140742209Y-106530844D01*
X140753367Y-106562029D01*
X140761415Y-106594157D01*
X140766275Y-106626919D01*
X140767900Y-106660000D01*
X140767900Y-107335000D01*
X140766275Y-107368081D01*
X140761415Y-107400843D01*
X140753367Y-107432971D01*
X140742209Y-107464156D01*
X140728048Y-107494096D01*
X140711021Y-107522505D01*
X140691291Y-107549108D01*
X140669049Y-107573649D01*
X140644508Y-107595891D01*
X140617905Y-107615621D01*
X140589496Y-107632648D01*
X140559556Y-107646809D01*
X140528371Y-107657967D01*
X140496243Y-107666015D01*
X140463481Y-107670875D01*
X140430400Y-107672500D01*
X139655400Y-107672500D01*
X139622319Y-107670875D01*
X139589557Y-107666015D01*
X139557429Y-107657967D01*
X139526244Y-107646809D01*
X139496304Y-107632648D01*
X139467895Y-107615621D01*
X139441292Y-107595891D01*
X139416751Y-107573649D01*
X139394509Y-107549108D01*
X139374779Y-107522505D01*
X139357752Y-107494096D01*
X139343591Y-107464156D01*
X139332433Y-107432971D01*
X139324385Y-107400843D01*
X139319525Y-107368081D01*
X139317900Y-107335000D01*
X139317900Y-106660000D01*
X139319525Y-106626919D01*
X139324385Y-106594157D01*
X139332433Y-106562029D01*
X139343591Y-106530844D01*
X139357752Y-106500904D01*
X139374779Y-106472495D01*
X139394509Y-106445892D01*
X139416751Y-106421351D01*
X139441292Y-106399109D01*
X139467895Y-106379379D01*
X139496304Y-106362352D01*
X139526244Y-106348191D01*
X139557429Y-106337033D01*
X139589557Y-106328985D01*
X139622319Y-106324125D01*
X139655400Y-106322500D01*
X140430400Y-106322500D01*
X140463481Y-106324125D01*
G37*
G36*
X140413981Y-122326125D02*
G01*
X140446743Y-122330985D01*
X140478871Y-122339033D01*
X140510056Y-122350191D01*
X140539996Y-122364352D01*
X140568405Y-122381379D01*
X140595008Y-122401109D01*
X140619549Y-122423351D01*
X140641791Y-122447892D01*
X140661521Y-122474495D01*
X140678548Y-122502904D01*
X140692709Y-122532844D01*
X140703867Y-122564029D01*
X140711915Y-122596157D01*
X140716775Y-122628919D01*
X140718400Y-122662000D01*
X140718400Y-123337000D01*
X140716775Y-123370081D01*
X140711915Y-123402843D01*
X140703867Y-123434971D01*
X140692709Y-123466156D01*
X140678548Y-123496096D01*
X140661521Y-123524505D01*
X140641791Y-123551108D01*
X140619549Y-123575649D01*
X140595008Y-123597891D01*
X140568405Y-123617621D01*
X140539996Y-123634648D01*
X140510056Y-123648809D01*
X140478871Y-123659967D01*
X140446743Y-123668015D01*
X140413981Y-123672875D01*
X140380900Y-123674500D01*
X139605900Y-123674500D01*
X139572819Y-123672875D01*
X139540057Y-123668015D01*
X139507929Y-123659967D01*
X139476744Y-123648809D01*
X139446804Y-123634648D01*
X139418395Y-123617621D01*
X139391792Y-123597891D01*
X139367251Y-123575649D01*
X139345009Y-123551108D01*
X139325279Y-123524505D01*
X139308252Y-123496096D01*
X139294091Y-123466156D01*
X139282933Y-123434971D01*
X139274885Y-123402843D01*
X139270025Y-123370081D01*
X139268400Y-123337000D01*
X139268400Y-122662000D01*
X139270025Y-122628919D01*
X139274885Y-122596157D01*
X139282933Y-122564029D01*
X139294091Y-122532844D01*
X139308252Y-122502904D01*
X139325279Y-122474495D01*
X139345009Y-122447892D01*
X139367251Y-122423351D01*
X139391792Y-122401109D01*
X139418395Y-122381379D01*
X139446804Y-122364352D01*
X139476744Y-122350191D01*
X139507929Y-122339033D01*
X139540057Y-122330985D01*
X139572819Y-122326125D01*
X139605900Y-122324500D01*
X140380900Y-122324500D01*
X140413981Y-122326125D01*
G37*
G36*
X142163981Y-122326125D02*
G01*
X142196743Y-122330985D01*
X142228871Y-122339033D01*
X142260056Y-122350191D01*
X142289996Y-122364352D01*
X142318405Y-122381379D01*
X142345008Y-122401109D01*
X142369549Y-122423351D01*
X142391791Y-122447892D01*
X142411521Y-122474495D01*
X142428548Y-122502904D01*
X142442709Y-122532844D01*
X142453867Y-122564029D01*
X142461915Y-122596157D01*
X142466775Y-122628919D01*
X142468400Y-122662000D01*
X142468400Y-123337000D01*
X142466775Y-123370081D01*
X142461915Y-123402843D01*
X142453867Y-123434971D01*
X142442709Y-123466156D01*
X142428548Y-123496096D01*
X142411521Y-123524505D01*
X142391791Y-123551108D01*
X142369549Y-123575649D01*
X142345008Y-123597891D01*
X142318405Y-123617621D01*
X142289996Y-123634648D01*
X142260056Y-123648809D01*
X142228871Y-123659967D01*
X142196743Y-123668015D01*
X142163981Y-123672875D01*
X142130900Y-123674500D01*
X141355900Y-123674500D01*
X141322819Y-123672875D01*
X141290057Y-123668015D01*
X141257929Y-123659967D01*
X141226744Y-123648809D01*
X141196804Y-123634648D01*
X141168395Y-123617621D01*
X141141792Y-123597891D01*
X141117251Y-123575649D01*
X141095009Y-123551108D01*
X141075279Y-123524505D01*
X141058252Y-123496096D01*
X141044091Y-123466156D01*
X141032933Y-123434971D01*
X141024885Y-123402843D01*
X141020025Y-123370081D01*
X141018400Y-123337000D01*
X141018400Y-122662000D01*
X141020025Y-122628919D01*
X141024885Y-122596157D01*
X141032933Y-122564029D01*
X141044091Y-122532844D01*
X141058252Y-122502904D01*
X141075279Y-122474495D01*
X141095009Y-122447892D01*
X141117251Y-122423351D01*
X141141792Y-122401109D01*
X141168395Y-122381379D01*
X141196804Y-122364352D01*
X141226744Y-122350191D01*
X141257929Y-122339033D01*
X141290057Y-122330985D01*
X141322819Y-122326125D01*
X141355900Y-122324500D01*
X142130900Y-122324500D01*
X142163981Y-122326125D01*
G37*
G36*
X140463481Y-103149125D02*
G01*
X140496243Y-103153985D01*
X140528371Y-103162033D01*
X140559556Y-103173191D01*
X140589496Y-103187352D01*
X140617905Y-103204379D01*
X140644508Y-103224109D01*
X140669049Y-103246351D01*
X140691291Y-103270892D01*
X140711021Y-103297495D01*
X140728048Y-103325904D01*
X140742209Y-103355844D01*
X140753367Y-103387029D01*
X140761415Y-103419157D01*
X140766275Y-103451919D01*
X140767900Y-103485000D01*
X140767900Y-104160000D01*
X140766275Y-104193081D01*
X140761415Y-104225843D01*
X140753367Y-104257971D01*
X140742209Y-104289156D01*
X140728048Y-104319096D01*
X140711021Y-104347505D01*
X140691291Y-104374108D01*
X140669049Y-104398649D01*
X140644508Y-104420891D01*
X140617905Y-104440621D01*
X140589496Y-104457648D01*
X140559556Y-104471809D01*
X140528371Y-104482967D01*
X140496243Y-104491015D01*
X140463481Y-104495875D01*
X140430400Y-104497500D01*
X139655400Y-104497500D01*
X139622319Y-104495875D01*
X139589557Y-104491015D01*
X139557429Y-104482967D01*
X139526244Y-104471809D01*
X139496304Y-104457648D01*
X139467895Y-104440621D01*
X139441292Y-104420891D01*
X139416751Y-104398649D01*
X139394509Y-104374108D01*
X139374779Y-104347505D01*
X139357752Y-104319096D01*
X139343591Y-104289156D01*
X139332433Y-104257971D01*
X139324385Y-104225843D01*
X139319525Y-104193081D01*
X139317900Y-104160000D01*
X139317900Y-103485000D01*
X139319525Y-103451919D01*
X139324385Y-103419157D01*
X139332433Y-103387029D01*
X139343591Y-103355844D01*
X139357752Y-103325904D01*
X139374779Y-103297495D01*
X139394509Y-103270892D01*
X139416751Y-103246351D01*
X139441292Y-103224109D01*
X139467895Y-103204379D01*
X139496304Y-103187352D01*
X139526244Y-103173191D01*
X139557429Y-103162033D01*
X139589557Y-103153985D01*
X139622319Y-103149125D01*
X139655400Y-103147500D01*
X140430400Y-103147500D01*
X140463481Y-103149125D01*
G37*
G36*
X142213481Y-103149125D02*
G01*
X142246243Y-103153985D01*
X142278371Y-103162033D01*
X142309556Y-103173191D01*
X142339496Y-103187352D01*
X142367905Y-103204379D01*
X142394508Y-103224109D01*
X142419049Y-103246351D01*
X142441291Y-103270892D01*
X142461021Y-103297495D01*
X142478048Y-103325904D01*
X142492209Y-103355844D01*
X142503367Y-103387029D01*
X142511415Y-103419157D01*
X142516275Y-103451919D01*
X142517900Y-103485000D01*
X142517900Y-104160000D01*
X142516275Y-104193081D01*
X142511415Y-104225843D01*
X142503367Y-104257971D01*
X142492209Y-104289156D01*
X142478048Y-104319096D01*
X142461021Y-104347505D01*
X142441291Y-104374108D01*
X142419049Y-104398649D01*
X142394508Y-104420891D01*
X142367905Y-104440621D01*
X142339496Y-104457648D01*
X142309556Y-104471809D01*
X142278371Y-104482967D01*
X142246243Y-104491015D01*
X142213481Y-104495875D01*
X142180400Y-104497500D01*
X141405400Y-104497500D01*
X141372319Y-104495875D01*
X141339557Y-104491015D01*
X141307429Y-104482967D01*
X141276244Y-104471809D01*
X141246304Y-104457648D01*
X141217895Y-104440621D01*
X141191292Y-104420891D01*
X141166751Y-104398649D01*
X141144509Y-104374108D01*
X141124779Y-104347505D01*
X141107752Y-104319096D01*
X141093591Y-104289156D01*
X141082433Y-104257971D01*
X141074385Y-104225843D01*
X141069525Y-104193081D01*
X141067900Y-104160000D01*
X141067900Y-103485000D01*
X141069525Y-103451919D01*
X141074385Y-103419157D01*
X141082433Y-103387029D01*
X141093591Y-103355844D01*
X141107752Y-103325904D01*
X141124779Y-103297495D01*
X141144509Y-103270892D01*
X141166751Y-103246351D01*
X141191292Y-103224109D01*
X141217895Y-103204379D01*
X141246304Y-103187352D01*
X141276244Y-103173191D01*
X141307429Y-103162033D01*
X141339557Y-103153985D01*
X141372319Y-103149125D01*
X141405400Y-103147500D01*
X142180400Y-103147500D01*
X142213481Y-103149125D01*
G37*
G36*
X142227481Y-100037625D02*
G01*
X142260243Y-100042485D01*
X142292371Y-100050533D01*
X142323556Y-100061691D01*
X142353496Y-100075852D01*
X142381905Y-100092879D01*
X142408508Y-100112609D01*
X142433049Y-100134851D01*
X142455291Y-100159392D01*
X142475021Y-100185995D01*
X142492048Y-100214404D01*
X142506209Y-100244344D01*
X142517367Y-100275529D01*
X142525415Y-100307657D01*
X142530275Y-100340419D01*
X142531900Y-100373500D01*
X142531900Y-101048500D01*
X142530275Y-101081581D01*
X142525415Y-101114343D01*
X142517367Y-101146471D01*
X142506209Y-101177656D01*
X142492048Y-101207596D01*
X142475021Y-101236005D01*
X142455291Y-101262608D01*
X142433049Y-101287149D01*
X142408508Y-101309391D01*
X142381905Y-101329121D01*
X142353496Y-101346148D01*
X142323556Y-101360309D01*
X142292371Y-101371467D01*
X142260243Y-101379515D01*
X142227481Y-101384375D01*
X142194400Y-101386000D01*
X141419400Y-101386000D01*
X141386319Y-101384375D01*
X141353557Y-101379515D01*
X141321429Y-101371467D01*
X141290244Y-101360309D01*
X141260304Y-101346148D01*
X141231895Y-101329121D01*
X141205292Y-101309391D01*
X141180751Y-101287149D01*
X141158509Y-101262608D01*
X141138779Y-101236005D01*
X141121752Y-101207596D01*
X141107591Y-101177656D01*
X141096433Y-101146471D01*
X141088385Y-101114343D01*
X141083525Y-101081581D01*
X141081900Y-101048500D01*
X141081900Y-100373500D01*
X141083525Y-100340419D01*
X141088385Y-100307657D01*
X141096433Y-100275529D01*
X141107591Y-100244344D01*
X141121752Y-100214404D01*
X141138779Y-100185995D01*
X141158509Y-100159392D01*
X141180751Y-100134851D01*
X141205292Y-100112609D01*
X141231895Y-100092879D01*
X141260304Y-100075852D01*
X141290244Y-100061691D01*
X141321429Y-100050533D01*
X141353557Y-100042485D01*
X141386319Y-100037625D01*
X141419400Y-100036000D01*
X142194400Y-100036000D01*
X142227481Y-100037625D01*
G37*
G36*
X140477481Y-100037625D02*
G01*
X140510243Y-100042485D01*
X140542371Y-100050533D01*
X140573556Y-100061691D01*
X140603496Y-100075852D01*
X140631905Y-100092879D01*
X140658508Y-100112609D01*
X140683049Y-100134851D01*
X140705291Y-100159392D01*
X140725021Y-100185995D01*
X140742048Y-100214404D01*
X140756209Y-100244344D01*
X140767367Y-100275529D01*
X140775415Y-100307657D01*
X140780275Y-100340419D01*
X140781900Y-100373500D01*
X140781900Y-101048500D01*
X140780275Y-101081581D01*
X140775415Y-101114343D01*
X140767367Y-101146471D01*
X140756209Y-101177656D01*
X140742048Y-101207596D01*
X140725021Y-101236005D01*
X140705291Y-101262608D01*
X140683049Y-101287149D01*
X140658508Y-101309391D01*
X140631905Y-101329121D01*
X140603496Y-101346148D01*
X140573556Y-101360309D01*
X140542371Y-101371467D01*
X140510243Y-101379515D01*
X140477481Y-101384375D01*
X140444400Y-101386000D01*
X139669400Y-101386000D01*
X139636319Y-101384375D01*
X139603557Y-101379515D01*
X139571429Y-101371467D01*
X139540244Y-101360309D01*
X139510304Y-101346148D01*
X139481895Y-101329121D01*
X139455292Y-101309391D01*
X139430751Y-101287149D01*
X139408509Y-101262608D01*
X139388779Y-101236005D01*
X139371752Y-101207596D01*
X139357591Y-101177656D01*
X139346433Y-101146471D01*
X139338385Y-101114343D01*
X139333525Y-101081581D01*
X139331900Y-101048500D01*
X139331900Y-100373500D01*
X139333525Y-100340419D01*
X139338385Y-100307657D01*
X139346433Y-100275529D01*
X139357591Y-100244344D01*
X139371752Y-100214404D01*
X139388779Y-100185995D01*
X139408509Y-100159392D01*
X139430751Y-100134851D01*
X139455292Y-100112609D01*
X139481895Y-100092879D01*
X139510304Y-100075852D01*
X139540244Y-100061691D01*
X139571429Y-100050533D01*
X139603557Y-100042485D01*
X139636319Y-100037625D01*
X139669400Y-100036000D01*
X140444400Y-100036000D01*
X140477481Y-100037625D01*
G37*
M02*
