G04 #@! TF.GenerationSoftware,KiCad,Pcbnew,(5.1.5)-2*
G04 #@! TF.CreationDate,2020-03-06T14:17:14-06:00*
G04 #@! TF.ProjectId,PatchPanel,50617463-6850-4616-9e65-6c2e6b696361,rev?*
G04 #@! TF.SameCoordinates,Original*
G04 #@! TF.FileFunction,Copper,L2,Bot*
G04 #@! TF.FilePolarity,Positive*
%FSLAX46Y46*%
G04 Gerber Fmt 4.6, Leading zero omitted, Abs format (unit mm)*
G04 Created by KiCad (PCBNEW (5.1.5)-2) date 2020-03-06 14:17:14*
%MOMM*%
%LPD*%
G04 APERTURE LIST*
%ADD10C,5.080000*%
%ADD11R,1.000000X1.000000*%
%ADD12O,1.000000X1.000000*%
%ADD13C,0.800000*%
%ADD14C,0.381000*%
%ADD15C,4.917000*%
%ADD16C,0.254000*%
G04 APERTURE END LIST*
D10*
X72745000Y-101930500D03*
X72745000Y-109830500D03*
X72745000Y-117730500D03*
X120052500Y-117730500D03*
X120052500Y-109830500D03*
X120052500Y-101930500D03*
X80619000Y-101930500D03*
X80619000Y-109830500D03*
X80619000Y-117730500D03*
X112178500Y-117730500D03*
X112178500Y-109830500D03*
X112178500Y-101930500D03*
X88556500Y-101930500D03*
X88556500Y-109830500D03*
X88556500Y-117730500D03*
X104304500Y-117730500D03*
X104304500Y-109830500D03*
X104304500Y-101930500D03*
X96430500Y-101930500D03*
X96430500Y-109830500D03*
X96430500Y-117730500D03*
X112877000Y-53988000D03*
X112877000Y-61888000D03*
X112877000Y-69788000D03*
X73443500Y-69788000D03*
X73443500Y-61888000D03*
X73443500Y-53988000D03*
X105003000Y-69788000D03*
X105003000Y-61888000D03*
X105003000Y-53988000D03*
X97129000Y-53988000D03*
X97129000Y-61888000D03*
X97129000Y-69788000D03*
X89191500Y-53988000D03*
X89191500Y-61888000D03*
X89191500Y-69788000D03*
X128651000Y-69786500D03*
X128651000Y-61886500D03*
X128651000Y-53986500D03*
X81317500Y-53988000D03*
X81317500Y-61888000D03*
X81317500Y-69788000D03*
X127926500Y-117730500D03*
X127926500Y-109830500D03*
X127926500Y-101930500D03*
X137173000Y-58140000D03*
X145073000Y-58140000D03*
X62523000Y-58394000D03*
X54623000Y-58394000D03*
X120777000Y-53986500D03*
X120777000Y-61886500D03*
X120777000Y-69786500D03*
D11*
X54610000Y-125730000D03*
D12*
X55880000Y-125730000D03*
X54610000Y-127000000D03*
X55880000Y-127000000D03*
X54610000Y-128270000D03*
X55880000Y-128270000D03*
X54610000Y-129540000D03*
X55880000Y-129540000D03*
X54610000Y-130810000D03*
X55880000Y-130810000D03*
D13*
X104775000Y-79311500D03*
X96901000Y-79311500D03*
X128333500Y-79184500D03*
X125793500Y-140271500D03*
X117856000Y-140271500D03*
X110045500Y-140271500D03*
X102171500Y-140271500D03*
X94234000Y-140271500D03*
X86360000Y-140335000D03*
X75755500Y-139827000D03*
X78564500Y-140383500D03*
X145770600Y-126161800D03*
X73215500Y-79311500D03*
X81089500Y-79311500D03*
X89027000Y-79311500D03*
X112712500Y-79311500D03*
X120459500Y-79311500D03*
X126824500Y-89027000D03*
X118872000Y-89090500D03*
X111203500Y-89090500D03*
X103292500Y-89112500D03*
X95419500Y-89154000D03*
X87522500Y-89154000D03*
X79585000Y-89154000D03*
X71706500Y-89154000D03*
X64887490Y-91449510D03*
X66281300Y-139153900D03*
X132156200Y-100761800D03*
X66040000Y-97726500D03*
X84480400Y-140335000D03*
X132105400Y-107035600D03*
X66611500Y-100965000D03*
X92557600Y-140258800D03*
X132105400Y-110261400D03*
X62357000Y-74388560D03*
X100533200Y-140258800D03*
X132029200Y-113487200D03*
X62928500Y-78897060D03*
X108407200Y-140284200D03*
X132054600Y-116738400D03*
X63500000Y-83405560D03*
X116255800Y-140284200D03*
X132080000Y-119888000D03*
X64096989Y-87922011D03*
X124129800Y-140258800D03*
X132054600Y-123012200D03*
X65468500Y-94551500D03*
X70015100Y-140246100D03*
X132156200Y-103835200D03*
D14*
X62928500Y-82804000D02*
X62928500Y-78897060D01*
X63500000Y-87312500D02*
X63500000Y-83405560D01*
D15*
X128649500Y-61888000D02*
X128651000Y-61886500D01*
X73443500Y-61888000D02*
X128649500Y-61888000D01*
X66017000Y-61888000D02*
X62523000Y-58394000D01*
X73443500Y-61888000D02*
X66017000Y-61888000D01*
D14*
X125793500Y-140271500D02*
X125793500Y-140017500D01*
X125793500Y-140017500D02*
X125857000Y-140081000D01*
X125857000Y-140081000D02*
X125857000Y-139928600D01*
D15*
X128651000Y-61886500D02*
X130784000Y-61886500D01*
X130784000Y-61886500D02*
X135763000Y-66865500D01*
X135763000Y-66865500D02*
X135763000Y-86487000D01*
X135763000Y-86487000D02*
X135763000Y-86550500D01*
X135763000Y-86550500D02*
X131508500Y-90805000D01*
X131508500Y-90805000D02*
X71183500Y-90805000D01*
D14*
X64887490Y-91449510D02*
X64887490Y-91449510D01*
X64887490Y-93989510D02*
X64887490Y-91449510D01*
X64677999Y-94930941D02*
X64677999Y-94199001D01*
X55880000Y-125730000D02*
X64868470Y-116741530D01*
X64658979Y-101825765D02*
X64658980Y-100063848D01*
X64677999Y-94199001D02*
X64887490Y-93989510D01*
X64658980Y-100063848D02*
X64877980Y-99844848D01*
X64868470Y-102035256D02*
X64658979Y-101825765D01*
X64877980Y-99844848D02*
X64877980Y-98556094D01*
X64887490Y-96914338D02*
X64887490Y-95140432D01*
X64877980Y-98556094D02*
X64668489Y-98346603D01*
X64668489Y-98346603D02*
X64668490Y-97133338D01*
X64868470Y-116741530D02*
X64868470Y-102035256D01*
X64668490Y-97133338D02*
X64887490Y-96914338D01*
X64887490Y-95140432D02*
X64677999Y-94930941D01*
X64677999Y-94199001D02*
X64671501Y-94199001D01*
X66281300Y-139153900D02*
X66306700Y-139153900D01*
X66281300Y-139153900D02*
X72212200Y-145084800D01*
X72212200Y-145084800D02*
X72285210Y-145157810D01*
X72285210Y-145157810D02*
X74105138Y-145157810D01*
X74105138Y-145157810D02*
X117192410Y-145157810D01*
X118198262Y-145157810D02*
X118201452Y-145161000D01*
X117192410Y-145157810D02*
X118198262Y-145157810D01*
X118989554Y-145145046D02*
X131827858Y-145145046D01*
X118201452Y-145161000D02*
X118973600Y-145161000D01*
X118973600Y-145161000D02*
X118989554Y-145145046D01*
X132156200Y-100761800D02*
X132156200Y-100761800D01*
X131827858Y-145145046D02*
X135882952Y-141089952D01*
X135882952Y-141089952D02*
X136121670Y-140851234D01*
X132156200Y-102692200D02*
X132156200Y-100761800D01*
X132946701Y-103482701D02*
X132156200Y-102692200D01*
X132946701Y-104214641D02*
X132946701Y-103482701D01*
X133476911Y-107655703D02*
X133476910Y-106442438D01*
X134448622Y-114702734D02*
X134562729Y-114588625D01*
X134562729Y-114588625D02*
X134562728Y-112412712D01*
X136121670Y-125045100D02*
X136331159Y-124835611D01*
X135775564Y-118281404D02*
X135169139Y-117674979D01*
X136331159Y-124835611D02*
X136331158Y-121190323D01*
X135775564Y-120634729D02*
X135775564Y-118281404D01*
X136331158Y-121190323D02*
X135775564Y-120634729D01*
X135169137Y-115423249D02*
X134448622Y-114702734D01*
X133273800Y-108127800D02*
X133267420Y-108121420D01*
X136121670Y-140851234D02*
X136121670Y-125045100D01*
X134562728Y-112412712D02*
X133851620Y-111701604D01*
X133851620Y-111701604D02*
X133851620Y-111328466D01*
X133851620Y-111328466D02*
X134057921Y-111122165D01*
X134057921Y-111122165D02*
X134057921Y-109427577D01*
X135169139Y-117674979D02*
X135169137Y-115423249D01*
X134057921Y-109427577D02*
X133273800Y-108643456D01*
X133273800Y-108643456D02*
X133273800Y-108127800D01*
X133267420Y-108121420D02*
X133267420Y-107865194D01*
X133267420Y-107865194D02*
X133476911Y-107655703D01*
X132737210Y-104424132D02*
X132946701Y-104214641D01*
X133476910Y-106442438D02*
X132737210Y-105702738D01*
X132737210Y-105702738D02*
X132737210Y-104424132D01*
X66040000Y-97726500D02*
X66040000Y-97726500D01*
X65820999Y-101344441D02*
X65820999Y-100549001D01*
X66030490Y-101553932D02*
X65820999Y-101344441D01*
X66030490Y-117230510D02*
X66030490Y-101553932D01*
X66040000Y-100330000D02*
X66040000Y-97726500D01*
X57540510Y-125720490D02*
X66030490Y-117230510D01*
X56896000Y-127301942D02*
X56896000Y-126805672D01*
X65820999Y-100549001D02*
X66040000Y-100330000D01*
X55927942Y-128270000D02*
X56896000Y-127301942D01*
X55880000Y-128270000D02*
X55927942Y-128270000D01*
X56896000Y-126805672D02*
X57540510Y-126161162D01*
X57540510Y-126161162D02*
X57540510Y-125720490D01*
X84480400Y-140335000D02*
X86283800Y-142138400D01*
X86283800Y-142138400D02*
X88128428Y-143983028D01*
X88128428Y-143983028D02*
X102614087Y-143983029D01*
X102614087Y-143983029D02*
X103809801Y-143983028D01*
X103809801Y-143983028D02*
X131346532Y-143983028D01*
X131346532Y-143983028D02*
X134959650Y-140369910D01*
X134959650Y-140369910D02*
X134959650Y-139534262D01*
X134959650Y-124563778D02*
X135169140Y-124354286D01*
X134959650Y-139534262D02*
X134959650Y-124563778D01*
X135169140Y-124354286D02*
X135169140Y-121671649D01*
X134655491Y-121158000D02*
X134655488Y-121158000D01*
X135169140Y-121671649D02*
X134655491Y-121158000D01*
X134550222Y-121052733D02*
X134613530Y-120989424D01*
X134655488Y-121158000D02*
X134550222Y-121052733D01*
X134613530Y-120989424D02*
X134613529Y-120989425D01*
X134613529Y-120989425D02*
X134613528Y-120319799D01*
X134613528Y-120319799D02*
X134613528Y-118762712D01*
X133807200Y-117956384D02*
X133807200Y-117799086D01*
X134613528Y-118762712D02*
X133807200Y-117956384D01*
X134007120Y-117599164D02*
X134007119Y-115904575D01*
X133807200Y-117799086D02*
X134007120Y-117599164D01*
X134007119Y-115904575D02*
X133191220Y-115088676D01*
X133191220Y-115088676D02*
X133191220Y-114316794D01*
X133400711Y-114107303D02*
X133400710Y-112894038D01*
X133191220Y-114316794D02*
X133400711Y-114107303D01*
X133400710Y-112894038D02*
X132689600Y-112182928D01*
X132689600Y-111099600D02*
X132686410Y-111096410D01*
X132689600Y-112182928D02*
X132689600Y-111099600D01*
X132895901Y-110640841D02*
X132895901Y-109908901D01*
X132686410Y-111096410D02*
X132686410Y-110850332D01*
X132686410Y-110850332D02*
X132895901Y-110640841D01*
X132895901Y-109908901D02*
X132105400Y-109118400D01*
X132105400Y-109118400D02*
X132105400Y-107035600D01*
X132105400Y-107035600D02*
X132105400Y-107035600D01*
X55880000Y-129540000D02*
X56959500Y-128460500D01*
X56959500Y-128460500D02*
X56959500Y-128060114D01*
X57531000Y-127488614D02*
X57531000Y-126992344D01*
X56959500Y-128060114D02*
X57531000Y-127488614D01*
X58121520Y-126401824D02*
X58121520Y-125961152D01*
X57531000Y-126992344D02*
X58121520Y-126401824D01*
X66611500Y-117471172D02*
X66611500Y-100965000D01*
X66611500Y-100965000D02*
X66611500Y-100965000D01*
X58121520Y-125961152D02*
X66611500Y-117471172D01*
X92557600Y-140258800D02*
X93929200Y-141630400D01*
X93929200Y-141630400D02*
X95700820Y-143402020D01*
X95700820Y-143402020D02*
X102854748Y-143402020D01*
X131105869Y-143402019D02*
X134378640Y-140129248D01*
X102854748Y-143402020D02*
X131105869Y-143402019D01*
X134378640Y-140129248D02*
X134378640Y-139293600D01*
X134588130Y-124113626D02*
X134588129Y-121912313D01*
X134378640Y-139293600D02*
X134378640Y-124323118D01*
X134378640Y-124323118D02*
X134588130Y-124113626D01*
X134588129Y-121912313D02*
X133823030Y-121147214D01*
X133823030Y-120958256D02*
X134032520Y-120748764D01*
X133823030Y-121147214D02*
X133823030Y-120958256D01*
X134032520Y-120748764D02*
X134032519Y-119003375D01*
X133223000Y-117561614D02*
X133426111Y-117358503D01*
X134032519Y-119003375D02*
X133223000Y-118193856D01*
X133223000Y-118193856D02*
X133223000Y-117561614D01*
X133426111Y-117358503D02*
X133426110Y-116145238D01*
X133426110Y-116145238D02*
X132610210Y-115329338D01*
X132819701Y-113866641D02*
X132819701Y-113134701D01*
X132610210Y-115329338D02*
X132610210Y-114076132D01*
X132610210Y-114076132D02*
X132819701Y-113866641D01*
X132819701Y-113134701D02*
X132105400Y-112420400D01*
X132105400Y-112420400D02*
X132105400Y-110261400D01*
X132105400Y-110261400D02*
X132105400Y-110261400D01*
X62357000Y-78295500D02*
X62357000Y-74388560D01*
X62137999Y-78514501D02*
X62357000Y-78295500D01*
X62137999Y-79276501D02*
X62137999Y-78514501D01*
X62347490Y-79485992D02*
X62137999Y-79276501D01*
X62347490Y-82566456D02*
X62347490Y-79485992D01*
X62128489Y-82785457D02*
X62347490Y-82566456D01*
X62128489Y-84025663D02*
X62128489Y-82785457D01*
X62337980Y-84235154D02*
X62128489Y-84025663D01*
X62144470Y-87020858D02*
X62337980Y-86827348D01*
X62144469Y-88782775D02*
X62144470Y-87020858D01*
X62353959Y-92550937D02*
X62353959Y-88992267D01*
X62563450Y-92760428D02*
X62353959Y-92550937D01*
X62563450Y-93011550D02*
X62563450Y-92760428D01*
X54402062Y-123424980D02*
X54949408Y-122877634D01*
X53657500Y-128587500D02*
X53657500Y-128143000D01*
X53430176Y-123424980D02*
X54402062Y-123424980D01*
X62337980Y-86827348D02*
X62337980Y-84235154D01*
X53657500Y-128143000D02*
X52514500Y-127000000D01*
X62353959Y-88992267D02*
X62144469Y-88782775D01*
X52304982Y-124550174D02*
X53430176Y-123424980D01*
X52304981Y-125889995D02*
X52304982Y-124550174D01*
X54949408Y-122877634D02*
X55445678Y-122877634D01*
X54610000Y-129540000D02*
X53657500Y-128587500D01*
X52304980Y-126786652D02*
X52304981Y-125889995D01*
X52514500Y-127000000D02*
X52514500Y-126996172D01*
X52514500Y-126996172D02*
X52304980Y-126786652D01*
X55445678Y-122877634D02*
X62544430Y-115778882D01*
X62544430Y-115778882D02*
X62544430Y-103049773D01*
X62347462Y-93227538D02*
X62563450Y-93011550D01*
X62544430Y-103049773D02*
X62334943Y-102840283D01*
X62334943Y-102840283D02*
X62334943Y-99082057D01*
X62344452Y-96170688D02*
X62487757Y-96027384D01*
X62334943Y-99082057D02*
X62337980Y-99079020D01*
X62337980Y-99079020D02*
X62337980Y-96793020D01*
X62337980Y-96793020D02*
X62344452Y-96786548D01*
X62344452Y-96786548D02*
X62344452Y-96170688D01*
X62347462Y-95887088D02*
X62347462Y-93227538D01*
X62487757Y-96027384D02*
X62347462Y-95887088D01*
X62357000Y-74388560D02*
X62357000Y-74388560D01*
X132029200Y-113487200D02*
X132029200Y-113487200D01*
X130865206Y-142821010D02*
X103095410Y-142821010D01*
X133797630Y-139888586D02*
X130865206Y-142821010D01*
X133797630Y-124082456D02*
X133797630Y-139888586D01*
X134007121Y-123872965D02*
X133797630Y-124082456D01*
X132845101Y-116385901D02*
X132845101Y-117117841D01*
X132029200Y-113487200D02*
X132029200Y-115570000D01*
X132635610Y-117327332D02*
X132635610Y-118428138D01*
X103095410Y-142821010D02*
X100533200Y-140258800D01*
X132029200Y-115570000D02*
X132845101Y-116385901D01*
X133242020Y-120717594D02*
X133242020Y-121387876D01*
X132635610Y-118428138D02*
X133451510Y-119244038D01*
X133451510Y-119244038D02*
X133451511Y-120508103D01*
X134007120Y-122152976D02*
X134007121Y-123872965D01*
X132845101Y-117117841D02*
X132635610Y-117327332D01*
X133242020Y-121387876D02*
X134007120Y-122152976D01*
X133451511Y-120508103D02*
X133242020Y-120717594D01*
X52885990Y-126545990D02*
X52885990Y-125649334D01*
X54610000Y-128270000D02*
X52885990Y-126545990D01*
X52885991Y-124790837D02*
X53670838Y-124005990D01*
X52885990Y-125649334D02*
X52885991Y-124790837D01*
X55190070Y-123458644D02*
X55686340Y-123458644D01*
X53670838Y-124005990D02*
X54642724Y-124005990D01*
X54642724Y-124005990D02*
X55190070Y-123458644D01*
X55686340Y-123458644D02*
X63125440Y-116019544D01*
X62915952Y-102599622D02*
X62915953Y-99341859D01*
X63125440Y-116019544D02*
X63125440Y-102809112D01*
X63125440Y-102809112D02*
X62915952Y-102599622D01*
X63057342Y-99200471D02*
X62918990Y-99062119D01*
X62915953Y-99341859D02*
X63057342Y-99200471D01*
X62925462Y-97031038D02*
X62925462Y-96411350D01*
X62918990Y-99062119D02*
X62918990Y-97037510D01*
X62918990Y-97037510D02*
X62925462Y-97031038D01*
X62925462Y-96411350D02*
X63144460Y-96192352D01*
X63144460Y-95862418D02*
X62928472Y-95646428D01*
X63144460Y-96192352D02*
X63144460Y-95862418D01*
X62928473Y-93477013D02*
X63144460Y-93261026D01*
X62928472Y-95646428D02*
X62928473Y-93477013D01*
X63144460Y-93261026D02*
X63144460Y-92519766D01*
X63144460Y-92519766D02*
X62934969Y-92310275D01*
X62725478Y-88542114D02*
X62725479Y-87301907D01*
X62934969Y-92310275D02*
X62934969Y-88751605D01*
X62934969Y-88751605D02*
X62725478Y-88542114D01*
X62725479Y-87261521D02*
X62918990Y-87068010D01*
X62725479Y-87301907D02*
X62725479Y-87261521D01*
X62918990Y-87068010D02*
X62918990Y-84074000D01*
X62709499Y-83785001D02*
X62709499Y-83026119D01*
X62918990Y-84074000D02*
X62918990Y-83994492D01*
X62918990Y-83994492D02*
X62709499Y-83785001D01*
X62709499Y-83026119D02*
X62928500Y-82807118D01*
X62928500Y-82807118D02*
X62928500Y-82296000D01*
X62928500Y-78897060D02*
X62928500Y-78897060D01*
X132054600Y-116738400D02*
X132054600Y-116738400D01*
X132870501Y-119484701D02*
X132054600Y-118668800D01*
X132870501Y-120267441D02*
X132870501Y-119484701D01*
X125304581Y-142233619D02*
X130630926Y-142233618D01*
X133216620Y-123841794D02*
X133426111Y-123632303D01*
X125298200Y-142240000D02*
X125304581Y-142233619D01*
X110363000Y-142240000D02*
X125298200Y-142240000D01*
X130630926Y-142233618D02*
X133216620Y-139647924D01*
X132661010Y-120476932D02*
X132870501Y-120267441D01*
X108407200Y-140284200D02*
X110363000Y-142240000D01*
X132054600Y-118668800D02*
X132054600Y-116738400D01*
X133426111Y-123632303D02*
X133426111Y-122393639D01*
X133426111Y-122393639D02*
X132661010Y-121628538D01*
X133216620Y-139647924D02*
X133216620Y-123841794D01*
X132661010Y-121628538D02*
X132661010Y-120476932D01*
X54610000Y-127000000D02*
X54177098Y-127000000D01*
X54177098Y-127000000D02*
X53467000Y-126289902D01*
X53467000Y-126289902D02*
X53467000Y-125031500D01*
X53467000Y-125031500D02*
X53911500Y-124587000D01*
X54883386Y-124587000D02*
X55430732Y-124039654D01*
X53911500Y-124587000D02*
X54883386Y-124587000D01*
X55430732Y-124039654D02*
X55927002Y-124039654D01*
X55927002Y-124039654D02*
X63706450Y-116260206D01*
X63706450Y-116260206D02*
X63706450Y-102568450D01*
X63706450Y-102568450D02*
X63496961Y-102358961D01*
X63496961Y-102358961D02*
X63496962Y-99582522D01*
X63496962Y-99582522D02*
X63715960Y-99363524D01*
X63715960Y-99037417D02*
X63500000Y-98821457D01*
X63715960Y-99363524D02*
X63715960Y-99037417D01*
X63506471Y-97720029D02*
X63506472Y-96652014D01*
X63500000Y-98821457D02*
X63500000Y-97726500D01*
X63500000Y-97726500D02*
X63506471Y-97720029D01*
X63506472Y-96652014D02*
X63506472Y-96652012D01*
X63506472Y-96652012D02*
X63725470Y-96433014D01*
X63725470Y-95621756D02*
X63509481Y-95405767D01*
X63725470Y-96433014D02*
X63725470Y-95621756D01*
X63509481Y-95405767D02*
X63509482Y-93717676D01*
X63509482Y-93717676D02*
X63725470Y-93501688D01*
X63725470Y-92279104D02*
X63515979Y-92069613D01*
X63725470Y-93501688D02*
X63725470Y-92279104D01*
X63515979Y-92069613D02*
X63515979Y-88510943D01*
X63306488Y-88301452D02*
X63306488Y-87542570D01*
X63515979Y-88510943D02*
X63306488Y-88301452D01*
X63306488Y-87542570D02*
X63500000Y-87349058D01*
X63500000Y-83405560D02*
X63500000Y-83405560D01*
X132080000Y-119989600D02*
X132080000Y-119989600D01*
X132080000Y-121869200D02*
X132080000Y-119989600D01*
X132845101Y-123391641D02*
X132845101Y-122634301D01*
X132635610Y-123601132D02*
X132845101Y-123391641D01*
X132845101Y-122634301D02*
X132080000Y-121869200D01*
X130390263Y-141652609D02*
X132635610Y-139407262D01*
X132635610Y-139407262D02*
X132635610Y-123601132D01*
X117624209Y-141652609D02*
X130390263Y-141652609D01*
X116255800Y-140284200D02*
X117624209Y-141652609D01*
X54610000Y-125682058D02*
X55671394Y-124620664D01*
X54610000Y-125730000D02*
X54610000Y-125682058D01*
X55671394Y-124620664D02*
X56167664Y-124620664D01*
X56167664Y-124620664D02*
X64287460Y-116500868D01*
X64287460Y-116500868D02*
X64287460Y-114681000D01*
X64077970Y-102066426D02*
X64077971Y-99823185D01*
X64287460Y-114681000D02*
X64287460Y-102275918D01*
X64287460Y-102275918D02*
X64077970Y-102066426D01*
X64077971Y-99823185D02*
X64296970Y-99604186D01*
X64296970Y-99604186D02*
X64296970Y-98796756D01*
X64087481Y-96892675D02*
X64306480Y-96673676D01*
X64296970Y-98796756D02*
X64087480Y-98587264D01*
X64087480Y-98587264D02*
X64087481Y-96892675D01*
X64306480Y-96673676D02*
X64306480Y-95381094D01*
X64090491Y-93958339D02*
X64306480Y-93742350D01*
X64090491Y-95165105D02*
X64090491Y-93958339D01*
X64306480Y-95381094D02*
X64090491Y-95165105D01*
X64306480Y-93742350D02*
X64306480Y-92038442D01*
X64096989Y-91828951D02*
X64096989Y-87922011D01*
X64306480Y-92038442D02*
X64096989Y-91828951D01*
X64096989Y-87922011D02*
X64096989Y-87922011D01*
X124129800Y-140258800D02*
X124942600Y-141071600D01*
X124952199Y-141062001D02*
X130159199Y-141062001D01*
X124942600Y-141071600D02*
X124952199Y-141062001D01*
X130159199Y-141062001D02*
X132054600Y-139166600D01*
X132054600Y-139166600D02*
X132054600Y-123012200D01*
X132054600Y-123012200D02*
X132054600Y-123012200D01*
X55880000Y-127000000D02*
X56959500Y-125920500D01*
X56959500Y-125920500D02*
X56959500Y-125476000D01*
X59944000Y-122491500D02*
X59944000Y-122487672D01*
X56959500Y-125476000D02*
X59944000Y-122491500D01*
X59944000Y-122487672D02*
X60100836Y-122330836D01*
X65152914Y-117286414D02*
X65449480Y-116989848D01*
X65449480Y-116989848D02*
X65449480Y-111696500D01*
X65239989Y-101585103D02*
X65239989Y-100304511D01*
X65239989Y-100304511D02*
X65405000Y-100139500D01*
X65449480Y-111696500D02*
X65449480Y-101794594D01*
X65449480Y-101794594D02*
X65239989Y-101585103D01*
X65408828Y-100139500D02*
X65458990Y-100089338D01*
X65405000Y-100139500D02*
X65408828Y-100139500D01*
X65249499Y-98105941D02*
X65249499Y-97374001D01*
X65458990Y-100089338D02*
X65458990Y-98315432D01*
X65458990Y-98315432D02*
X65249499Y-98105941D01*
X65249499Y-97374001D02*
X65468500Y-97155000D01*
X65468500Y-97155000D02*
X65468500Y-94551500D01*
X65468500Y-94551500D02*
X65468500Y-94551500D01*
X60108492Y-122330836D02*
X65449480Y-116989848D01*
X60100836Y-122330836D02*
X60108492Y-122330836D01*
X132156200Y-103835200D02*
X132156200Y-103835200D01*
X70764400Y-140995400D02*
X70015100Y-140246100D01*
X74345800Y-144576800D02*
X70764400Y-140995400D01*
X117957600Y-144576800D02*
X74345800Y-144576800D01*
X117970362Y-144564038D02*
X117957600Y-144576800D01*
X135540660Y-124804438D02*
X135540660Y-140610572D01*
X133981719Y-112653375D02*
X133981720Y-114347964D01*
X133476911Y-110881503D02*
X133270610Y-111087804D01*
X133476911Y-109668239D02*
X133476911Y-110881503D01*
X133270610Y-111087804D02*
X133270610Y-111942266D01*
X132686410Y-108877738D02*
X133476911Y-109668239D01*
X133270610Y-111942266D02*
X133981719Y-112653375D01*
X135194538Y-120081538D02*
X135194554Y-120081554D01*
X133981720Y-114347964D02*
X133772230Y-114557456D01*
X132156200Y-103835200D02*
X132156200Y-105943400D01*
X132156200Y-105943400D02*
X132895901Y-106683101D01*
X131587195Y-144564037D02*
X117970362Y-144564038D01*
X135540660Y-140610572D02*
X131587195Y-144564037D01*
X132895901Y-106683101D02*
X132895901Y-107415041D01*
X135194554Y-120081554D02*
X135194554Y-120875391D01*
X132686410Y-107624532D02*
X132686410Y-108877738D01*
X132895901Y-107415041D02*
X132686410Y-107624532D01*
X133772230Y-114848014D02*
X134588128Y-115663912D01*
X134588128Y-115663912D02*
X134588130Y-117839824D01*
X135194537Y-118522049D02*
X135194538Y-120081538D01*
X134550222Y-117877734D02*
X135194537Y-118522049D01*
X135194554Y-120875391D02*
X135750149Y-121430986D01*
X133772230Y-114557456D02*
X133772230Y-114848014D01*
X135750149Y-121430986D02*
X135750150Y-124594948D01*
X134588130Y-117839824D02*
X134550222Y-117877734D01*
X135750150Y-124594948D02*
X135540660Y-124804438D01*
D16*
G36*
X149714109Y-46317005D02*
G01*
X149818101Y-46348402D01*
X149914014Y-46399399D01*
X149998194Y-46468055D01*
X150067440Y-46551758D01*
X150119105Y-46647311D01*
X150151227Y-46751078D01*
X150166000Y-46891641D01*
X150166001Y-146015269D01*
X150151995Y-146158109D01*
X150120599Y-146262099D01*
X150069601Y-146358013D01*
X150000941Y-146442199D01*
X149917243Y-146511439D01*
X149821689Y-146563105D01*
X149717922Y-146595227D01*
X149577359Y-146610000D01*
X43214720Y-146610000D01*
X43071891Y-146595995D01*
X42967901Y-146564599D01*
X42871987Y-146513601D01*
X42787801Y-146444941D01*
X42718561Y-146361243D01*
X42666895Y-146265689D01*
X42634773Y-146161922D01*
X42620000Y-146021359D01*
X42620000Y-142014339D01*
X44190826Y-142014339D01*
X44190826Y-142465661D01*
X44278875Y-142908311D01*
X44451588Y-143325278D01*
X44702329Y-143700538D01*
X45021462Y-144019671D01*
X45396722Y-144270412D01*
X45813689Y-144443125D01*
X46256339Y-144531174D01*
X46707661Y-144531174D01*
X47150311Y-144443125D01*
X47567278Y-144270412D01*
X47942538Y-144019671D01*
X48261671Y-143700538D01*
X48512412Y-143325278D01*
X48685125Y-142908311D01*
X48773174Y-142465661D01*
X48773174Y-142014339D01*
X48685125Y-141571689D01*
X48512412Y-141154722D01*
X48261671Y-140779462D01*
X47942538Y-140460329D01*
X47567278Y-140209588D01*
X47150311Y-140036875D01*
X46707661Y-139948826D01*
X46256339Y-139948826D01*
X45813689Y-140036875D01*
X45396722Y-140209588D01*
X45021462Y-140460329D01*
X44702329Y-140779462D01*
X44451588Y-141154722D01*
X44278875Y-141571689D01*
X44190826Y-142014339D01*
X42620000Y-142014339D01*
X42620000Y-139051961D01*
X65246300Y-139051961D01*
X65246300Y-139255839D01*
X65286074Y-139455798D01*
X65364095Y-139644156D01*
X65477363Y-139813674D01*
X65621526Y-139957837D01*
X65791044Y-140071105D01*
X65979402Y-140149126D01*
X66141296Y-140181329D01*
X71657161Y-145697194D01*
X71672815Y-145712847D01*
X71698669Y-145744351D01*
X71824368Y-145847509D01*
X71967776Y-145924163D01*
X72123384Y-145971366D01*
X72244657Y-145983310D01*
X72244660Y-145983310D01*
X72285210Y-145987304D01*
X72325760Y-145983310D01*
X118128509Y-145983310D01*
X118160899Y-145986500D01*
X118160908Y-145986500D01*
X118201451Y-145990493D01*
X118241994Y-145986500D01*
X118933050Y-145986500D01*
X118973600Y-145990494D01*
X119014150Y-145986500D01*
X119014153Y-145986500D01*
X119135426Y-145974556D01*
X119148645Y-145970546D01*
X131787308Y-145970546D01*
X131827858Y-145974540D01*
X131868408Y-145970546D01*
X131868411Y-145970546D01*
X131989684Y-145958602D01*
X132145292Y-145911399D01*
X132288700Y-145834745D01*
X132414399Y-145731587D01*
X132440256Y-145700080D01*
X136125997Y-142014339D01*
X143045086Y-142014339D01*
X143045086Y-142465661D01*
X143133135Y-142908311D01*
X143305848Y-143325278D01*
X143556589Y-143700538D01*
X143875722Y-144019671D01*
X144250982Y-144270412D01*
X144667949Y-144443125D01*
X145110599Y-144531174D01*
X145561921Y-144531174D01*
X146004571Y-144443125D01*
X146421538Y-144270412D01*
X146796798Y-144019671D01*
X147115931Y-143700538D01*
X147366672Y-143325278D01*
X147539385Y-142908311D01*
X147627434Y-142465661D01*
X147627434Y-142014339D01*
X147539385Y-141571689D01*
X147366672Y-141154722D01*
X147115931Y-140779462D01*
X146796798Y-140460329D01*
X146421538Y-140209588D01*
X146004571Y-140036875D01*
X145561921Y-139948826D01*
X145110599Y-139948826D01*
X144667949Y-140036875D01*
X144250982Y-140209588D01*
X143875722Y-140460329D01*
X143556589Y-140779462D01*
X143305848Y-141154722D01*
X143133135Y-141571689D01*
X143045086Y-142014339D01*
X136125997Y-142014339D01*
X136495343Y-141644994D01*
X136495348Y-141644988D01*
X136676705Y-141463631D01*
X136708211Y-141437775D01*
X136811369Y-141312076D01*
X136888023Y-141168668D01*
X136935226Y-141013060D01*
X136947170Y-140891787D01*
X136947170Y-140891785D01*
X136951164Y-140851235D01*
X136947170Y-140810684D01*
X136947170Y-125386242D01*
X136977788Y-125348933D01*
X137020858Y-125296453D01*
X137097512Y-125153044D01*
X137111929Y-125105518D01*
X137144715Y-124997436D01*
X137156659Y-124876163D01*
X137156659Y-124876162D01*
X137160653Y-124835612D01*
X137156659Y-124795061D01*
X137156657Y-121230883D01*
X137160652Y-121190323D01*
X137144713Y-121028496D01*
X137097511Y-120872889D01*
X137020857Y-120729480D01*
X136943550Y-120635281D01*
X136943541Y-120635272D01*
X136917698Y-120603782D01*
X136886207Y-120577938D01*
X136601064Y-120292796D01*
X136601064Y-118321946D01*
X136605057Y-118281403D01*
X136601064Y-118240860D01*
X136601064Y-118240851D01*
X136589120Y-118119578D01*
X136541917Y-117963970D01*
X136465263Y-117820562D01*
X136465262Y-117820560D01*
X136414357Y-117758533D01*
X136362105Y-117694863D01*
X136330603Y-117669010D01*
X135994639Y-117333046D01*
X135994636Y-115463808D01*
X135998631Y-115423248D01*
X135982692Y-115261422D01*
X135935490Y-115105815D01*
X135858836Y-114962406D01*
X135781528Y-114868207D01*
X135781525Y-114868204D01*
X135755677Y-114836708D01*
X135724181Y-114810860D01*
X135388229Y-114474908D01*
X135388227Y-112453272D01*
X135392222Y-112412712D01*
X135376283Y-112250885D01*
X135329081Y-112095278D01*
X135252427Y-111951869D01*
X135175120Y-111857670D01*
X135175111Y-111857661D01*
X135149268Y-111826171D01*
X135117777Y-111800327D01*
X134800857Y-111483408D01*
X134824274Y-111439599D01*
X134871477Y-111283991D01*
X134883421Y-111162718D01*
X134883421Y-111162716D01*
X134887415Y-111122165D01*
X134883421Y-111081615D01*
X134883421Y-109468127D01*
X134887415Y-109427577D01*
X134883421Y-109387024D01*
X134871477Y-109265751D01*
X134824274Y-109110143D01*
X134807845Y-109079407D01*
X134747620Y-108966734D01*
X134670313Y-108872535D01*
X134670310Y-108872532D01*
X134644462Y-108841036D01*
X134612965Y-108815188D01*
X134099300Y-108301523D01*
X134099300Y-108198562D01*
X134129328Y-108161973D01*
X134166610Y-108116545D01*
X134243264Y-107973136D01*
X134247372Y-107959594D01*
X134290467Y-107817528D01*
X134302411Y-107696255D01*
X134302411Y-107696254D01*
X134306405Y-107655704D01*
X134302411Y-107615152D01*
X134302409Y-106482997D01*
X134306404Y-106442438D01*
X134290465Y-106280611D01*
X134243263Y-106125004D01*
X134166609Y-105981595D01*
X134089302Y-105887396D01*
X134089293Y-105887387D01*
X134063450Y-105855897D01*
X134031959Y-105830053D01*
X133562710Y-105360805D01*
X133562710Y-104765275D01*
X133636400Y-104675483D01*
X133713054Y-104532075D01*
X133760257Y-104376467D01*
X133772201Y-104255194D01*
X133772201Y-104255192D01*
X133776195Y-104214642D01*
X133772201Y-104174091D01*
X133772201Y-103523251D01*
X133776195Y-103482700D01*
X133770692Y-103426824D01*
X133760257Y-103320875D01*
X133713054Y-103165267D01*
X133657035Y-103060464D01*
X133636400Y-103021858D01*
X133559092Y-102927659D01*
X133533242Y-102896160D01*
X133501740Y-102870307D01*
X132981700Y-102350268D01*
X132981700Y-101389303D01*
X133073405Y-101252056D01*
X133151426Y-101063698D01*
X133191200Y-100863739D01*
X133191200Y-100659861D01*
X133151426Y-100459902D01*
X133073405Y-100271544D01*
X132960137Y-100102026D01*
X132815974Y-99957863D01*
X132646456Y-99844595D01*
X132458098Y-99766574D01*
X132258139Y-99726800D01*
X132054261Y-99726800D01*
X131854302Y-99766574D01*
X131665944Y-99844595D01*
X131496426Y-99957863D01*
X131352263Y-100102026D01*
X131238995Y-100271544D01*
X131160974Y-100459902D01*
X131121200Y-100659861D01*
X131121200Y-100863739D01*
X131160974Y-101063698D01*
X131238995Y-101252056D01*
X131330701Y-101389304D01*
X131330700Y-102651649D01*
X131326706Y-102692200D01*
X131330700Y-102732750D01*
X131330700Y-102732752D01*
X131342644Y-102854025D01*
X131376496Y-102965619D01*
X131389847Y-103009633D01*
X131434506Y-103093183D01*
X131352263Y-103175426D01*
X131238995Y-103344944D01*
X131160974Y-103533302D01*
X131121200Y-103733261D01*
X131121200Y-103937139D01*
X131160974Y-104137098D01*
X131238995Y-104325456D01*
X131330700Y-104462703D01*
X131330701Y-105902840D01*
X131326706Y-105943400D01*
X131342645Y-106105226D01*
X131389847Y-106260833D01*
X131399116Y-106278173D01*
X131301463Y-106375826D01*
X131188195Y-106545344D01*
X131110174Y-106733702D01*
X131070400Y-106933661D01*
X131070400Y-107137539D01*
X131110174Y-107337498D01*
X131188195Y-107525856D01*
X131279901Y-107663104D01*
X131279900Y-109077849D01*
X131275906Y-109118400D01*
X131279900Y-109158950D01*
X131279900Y-109158952D01*
X131291844Y-109280225D01*
X131314181Y-109353859D01*
X131339047Y-109435833D01*
X131383706Y-109519383D01*
X131301463Y-109601626D01*
X131188195Y-109771144D01*
X131110174Y-109959502D01*
X131101500Y-110003109D01*
X131101500Y-109517790D01*
X130979486Y-108904387D01*
X130740148Y-108326574D01*
X130392683Y-107806556D01*
X129950444Y-107364317D01*
X129430426Y-107016852D01*
X128852613Y-106777514D01*
X128239210Y-106655500D01*
X127613790Y-106655500D01*
X127000387Y-106777514D01*
X126422574Y-107016852D01*
X125902556Y-107364317D01*
X125460317Y-107806556D01*
X125112852Y-108326574D01*
X124873514Y-108904387D01*
X124751500Y-109517790D01*
X124751500Y-110143210D01*
X124873514Y-110756613D01*
X125112852Y-111334426D01*
X125460317Y-111854444D01*
X125902556Y-112296683D01*
X126422574Y-112644148D01*
X127000387Y-112883486D01*
X127613790Y-113005500D01*
X128239210Y-113005500D01*
X128852613Y-112883486D01*
X129430426Y-112644148D01*
X129950444Y-112296683D01*
X130392683Y-111854444D01*
X130740148Y-111334426D01*
X130979486Y-110756613D01*
X131070400Y-110299560D01*
X131070400Y-110363339D01*
X131110174Y-110563298D01*
X131188195Y-110751656D01*
X131279901Y-110888904D01*
X131279900Y-112379849D01*
X131275906Y-112420400D01*
X131279900Y-112460950D01*
X131279900Y-112460952D01*
X131291844Y-112582225D01*
X131330185Y-112708619D01*
X131333417Y-112719272D01*
X131225263Y-112827426D01*
X131111995Y-112996944D01*
X131033974Y-113185302D01*
X130994200Y-113385261D01*
X130994200Y-113589139D01*
X131033974Y-113789098D01*
X131111995Y-113977456D01*
X131203700Y-114114703D01*
X131203701Y-115529440D01*
X131199706Y-115570000D01*
X131215645Y-115731826D01*
X131262847Y-115887433D01*
X131325201Y-116004088D01*
X131250663Y-116078626D01*
X131137395Y-116248144D01*
X131059374Y-116436502D01*
X131019600Y-116636461D01*
X131019600Y-116840339D01*
X131059374Y-117040298D01*
X131137395Y-117228656D01*
X131229101Y-117365904D01*
X131229100Y-118628249D01*
X131225106Y-118668800D01*
X131229100Y-118709350D01*
X131229100Y-118709352D01*
X131241044Y-118830625D01*
X131269532Y-118924538D01*
X131288247Y-118986233D01*
X131364901Y-119129642D01*
X131369294Y-119134995D01*
X131276063Y-119228226D01*
X131162795Y-119397744D01*
X131084774Y-119586102D01*
X131045000Y-119786061D01*
X131045000Y-119989939D01*
X131084774Y-120189898D01*
X131162795Y-120378256D01*
X131254501Y-120515504D01*
X131254500Y-121828649D01*
X131250506Y-121869200D01*
X131254500Y-121909750D01*
X131254500Y-121909752D01*
X131266444Y-122031025D01*
X131308301Y-122169010D01*
X131313647Y-122186633D01*
X131349458Y-122253631D01*
X131250663Y-122352426D01*
X131137395Y-122521944D01*
X131059374Y-122710302D01*
X131019600Y-122910261D01*
X131019600Y-123114139D01*
X131059374Y-123314098D01*
X131137395Y-123502456D01*
X131229101Y-123639704D01*
X131229100Y-138824666D01*
X129817267Y-140236501D01*
X125274934Y-140236501D01*
X125157228Y-140118795D01*
X125125026Y-139956902D01*
X125047005Y-139768544D01*
X124933737Y-139599026D01*
X124789574Y-139454863D01*
X124620056Y-139341595D01*
X124431698Y-139263574D01*
X124231739Y-139223800D01*
X124027861Y-139223800D01*
X123827902Y-139263574D01*
X123639544Y-139341595D01*
X123470026Y-139454863D01*
X123325863Y-139599026D01*
X123212595Y-139768544D01*
X123134574Y-139956902D01*
X123094800Y-140156861D01*
X123094800Y-140360739D01*
X123134574Y-140560698D01*
X123212595Y-140749056D01*
X123264748Y-140827109D01*
X117966143Y-140827109D01*
X117283228Y-140144196D01*
X117251026Y-139982302D01*
X117173005Y-139793944D01*
X117059737Y-139624426D01*
X116915574Y-139480263D01*
X116746056Y-139366995D01*
X116557698Y-139288974D01*
X116357739Y-139249200D01*
X116153861Y-139249200D01*
X115953902Y-139288974D01*
X115765544Y-139366995D01*
X115596026Y-139480263D01*
X115451863Y-139624426D01*
X115338595Y-139793944D01*
X115260574Y-139982302D01*
X115220800Y-140182261D01*
X115220800Y-140386139D01*
X115260574Y-140586098D01*
X115338595Y-140774456D01*
X115451863Y-140943974D01*
X115596026Y-141088137D01*
X115765544Y-141201405D01*
X115953902Y-141279426D01*
X116115796Y-141311628D01*
X116218667Y-141414500D01*
X110704934Y-141414500D01*
X109434628Y-140144196D01*
X109402426Y-139982302D01*
X109324405Y-139793944D01*
X109211137Y-139624426D01*
X109066974Y-139480263D01*
X108897456Y-139366995D01*
X108709098Y-139288974D01*
X108509139Y-139249200D01*
X108305261Y-139249200D01*
X108105302Y-139288974D01*
X107916944Y-139366995D01*
X107747426Y-139480263D01*
X107603263Y-139624426D01*
X107489995Y-139793944D01*
X107411974Y-139982302D01*
X107372200Y-140182261D01*
X107372200Y-140386139D01*
X107411974Y-140586098D01*
X107489995Y-140774456D01*
X107603263Y-140943974D01*
X107747426Y-141088137D01*
X107916944Y-141201405D01*
X108105302Y-141279426D01*
X108267196Y-141311628D01*
X108951077Y-141995510D01*
X103437343Y-141995510D01*
X101560629Y-140118796D01*
X101528426Y-139956902D01*
X101450405Y-139768544D01*
X101337137Y-139599026D01*
X101192974Y-139454863D01*
X101023456Y-139341595D01*
X100835098Y-139263574D01*
X100635139Y-139223800D01*
X100431261Y-139223800D01*
X100231302Y-139263574D01*
X100042944Y-139341595D01*
X99873426Y-139454863D01*
X99729263Y-139599026D01*
X99615995Y-139768544D01*
X99537974Y-139956902D01*
X99498200Y-140156861D01*
X99498200Y-140360739D01*
X99537974Y-140560698D01*
X99615995Y-140749056D01*
X99729263Y-140918574D01*
X99873426Y-141062737D01*
X100042944Y-141176005D01*
X100231302Y-141254026D01*
X100393196Y-141286229D01*
X101683487Y-142576520D01*
X96042753Y-142576520D01*
X94541595Y-141075363D01*
X94541591Y-141075358D01*
X93585028Y-140118796D01*
X93552826Y-139956902D01*
X93474805Y-139768544D01*
X93361537Y-139599026D01*
X93217374Y-139454863D01*
X93047856Y-139341595D01*
X92859498Y-139263574D01*
X92659539Y-139223800D01*
X92455661Y-139223800D01*
X92255702Y-139263574D01*
X92067344Y-139341595D01*
X91897826Y-139454863D01*
X91753663Y-139599026D01*
X91640395Y-139768544D01*
X91562374Y-139956902D01*
X91522600Y-140156861D01*
X91522600Y-140360739D01*
X91562374Y-140560698D01*
X91640395Y-140749056D01*
X91753663Y-140918574D01*
X91897826Y-141062737D01*
X92067344Y-141176005D01*
X92255702Y-141254026D01*
X92417596Y-141286228D01*
X93374158Y-142242791D01*
X93374163Y-142242795D01*
X94288896Y-143157529D01*
X88470361Y-143157528D01*
X86896201Y-141583369D01*
X86896192Y-141583358D01*
X85507828Y-140194996D01*
X85475626Y-140033102D01*
X85397605Y-139844744D01*
X85284337Y-139675226D01*
X85140174Y-139531063D01*
X84970656Y-139417795D01*
X84782298Y-139339774D01*
X84582339Y-139300000D01*
X84378461Y-139300000D01*
X84178502Y-139339774D01*
X83990144Y-139417795D01*
X83820626Y-139531063D01*
X83676463Y-139675226D01*
X83563195Y-139844744D01*
X83485174Y-140033102D01*
X83445400Y-140233061D01*
X83445400Y-140436939D01*
X83485174Y-140636898D01*
X83563195Y-140825256D01*
X83676463Y-140994774D01*
X83820626Y-141138937D01*
X83990144Y-141252205D01*
X84178502Y-141330226D01*
X84340396Y-141362428D01*
X85728758Y-142750792D01*
X85728769Y-142750801D01*
X86729267Y-143751300D01*
X74687733Y-143751300D01*
X71376791Y-140440358D01*
X71042528Y-140106096D01*
X71010326Y-139944202D01*
X70932305Y-139755844D01*
X70819037Y-139586326D01*
X70674874Y-139442163D01*
X70505356Y-139328895D01*
X70316998Y-139250874D01*
X70117039Y-139211100D01*
X69913161Y-139211100D01*
X69713202Y-139250874D01*
X69524844Y-139328895D01*
X69355326Y-139442163D01*
X69211163Y-139586326D01*
X69097895Y-139755844D01*
X69019874Y-139944202D01*
X68980100Y-140144161D01*
X68980100Y-140348039D01*
X69019874Y-140547998D01*
X69097895Y-140736356D01*
X69211163Y-140905874D01*
X69355326Y-141050037D01*
X69524844Y-141163305D01*
X69713202Y-141241326D01*
X69875096Y-141273528D01*
X70209358Y-141607791D01*
X72933877Y-144332310D01*
X72627143Y-144332310D01*
X67308729Y-139013896D01*
X67276526Y-138852002D01*
X67198505Y-138663644D01*
X67085237Y-138494126D01*
X66941074Y-138349963D01*
X66771556Y-138236695D01*
X66583198Y-138158674D01*
X66383239Y-138118900D01*
X66179361Y-138118900D01*
X65979402Y-138158674D01*
X65791044Y-138236695D01*
X65621526Y-138349963D01*
X65477363Y-138494126D01*
X65364095Y-138663644D01*
X65286074Y-138852002D01*
X65246300Y-139051961D01*
X42620000Y-139051961D01*
X42620000Y-126786652D01*
X51475486Y-126786652D01*
X51479480Y-126827202D01*
X51479480Y-126827204D01*
X51491424Y-126948477D01*
X51509126Y-127006832D01*
X51538627Y-127104085D01*
X51615281Y-127247494D01*
X51653252Y-127293761D01*
X51718439Y-127373192D01*
X51749940Y-127399044D01*
X51884585Y-127533689D01*
X51927959Y-127586541D01*
X51959466Y-127612398D01*
X52832000Y-128484933D01*
X52832000Y-128546950D01*
X52828006Y-128587500D01*
X52832000Y-128628050D01*
X52832000Y-128628052D01*
X52843944Y-128749325D01*
X52867345Y-128826467D01*
X52891147Y-128904933D01*
X52967801Y-129048342D01*
X52996700Y-129083555D01*
X53070959Y-129174041D01*
X53102466Y-129199898D01*
X53475000Y-129572432D01*
X53475000Y-129651788D01*
X53518617Y-129871067D01*
X53604176Y-130077624D01*
X53728388Y-130263520D01*
X53886480Y-130421612D01*
X54072376Y-130545824D01*
X54278933Y-130631383D01*
X54498212Y-130675000D01*
X54721788Y-130675000D01*
X54941067Y-130631383D01*
X55147624Y-130545824D01*
X55245000Y-130480759D01*
X55342376Y-130545824D01*
X55548933Y-130631383D01*
X55768212Y-130675000D01*
X55991788Y-130675000D01*
X56211067Y-130631383D01*
X56417624Y-130545824D01*
X56603520Y-130421612D01*
X56761612Y-130263520D01*
X56885824Y-130077624D01*
X56971383Y-129871067D01*
X57015000Y-129651788D01*
X57015000Y-129572433D01*
X57514546Y-129072888D01*
X57546041Y-129047041D01*
X57571889Y-129015545D01*
X57571892Y-129015542D01*
X57649199Y-128921343D01*
X57725853Y-128777934D01*
X57757834Y-128672505D01*
X57773056Y-128622326D01*
X57785000Y-128501053D01*
X57785000Y-128501051D01*
X57788994Y-128460500D01*
X57785000Y-128419950D01*
X57785000Y-128402046D01*
X58086040Y-128101007D01*
X58117541Y-128075155D01*
X58194670Y-127981173D01*
X58220699Y-127949457D01*
X58297353Y-127806048D01*
X58309394Y-127766353D01*
X58344556Y-127650440D01*
X58356500Y-127529167D01*
X58356500Y-127529165D01*
X58360494Y-127488615D01*
X58356500Y-127448064D01*
X58356500Y-127334276D01*
X58676560Y-127014217D01*
X58708061Y-126988365D01*
X58811219Y-126862666D01*
X58887873Y-126719258D01*
X58935076Y-126563650D01*
X58947020Y-126442377D01*
X58947020Y-126442368D01*
X58951013Y-126401825D01*
X58947020Y-126361282D01*
X58947020Y-126303084D01*
X67166546Y-118083560D01*
X67198041Y-118057713D01*
X67223889Y-118026217D01*
X67223892Y-118026214D01*
X67301199Y-117932015D01*
X67377853Y-117788606D01*
X67386975Y-117758534D01*
X67425056Y-117632998D01*
X67437000Y-117511725D01*
X67437000Y-117511723D01*
X67440994Y-117471172D01*
X67437000Y-117430622D01*
X67437000Y-117417790D01*
X69570000Y-117417790D01*
X69570000Y-118043210D01*
X69692014Y-118656613D01*
X69931352Y-119234426D01*
X70278817Y-119754444D01*
X70721056Y-120196683D01*
X71241074Y-120544148D01*
X71818887Y-120783486D01*
X72432290Y-120905500D01*
X73057710Y-120905500D01*
X73671113Y-120783486D01*
X74248926Y-120544148D01*
X74768944Y-120196683D01*
X75211183Y-119754444D01*
X75558648Y-119234426D01*
X75797986Y-118656613D01*
X75920000Y-118043210D01*
X75920000Y-117417790D01*
X77444000Y-117417790D01*
X77444000Y-118043210D01*
X77566014Y-118656613D01*
X77805352Y-119234426D01*
X78152817Y-119754444D01*
X78595056Y-120196683D01*
X79115074Y-120544148D01*
X79692887Y-120783486D01*
X80306290Y-120905500D01*
X80931710Y-120905500D01*
X81545113Y-120783486D01*
X82122926Y-120544148D01*
X82642944Y-120196683D01*
X83085183Y-119754444D01*
X83432648Y-119234426D01*
X83671986Y-118656613D01*
X83794000Y-118043210D01*
X83794000Y-117417790D01*
X85381500Y-117417790D01*
X85381500Y-118043210D01*
X85503514Y-118656613D01*
X85742852Y-119234426D01*
X86090317Y-119754444D01*
X86532556Y-120196683D01*
X87052574Y-120544148D01*
X87630387Y-120783486D01*
X88243790Y-120905500D01*
X88869210Y-120905500D01*
X89482613Y-120783486D01*
X90060426Y-120544148D01*
X90580444Y-120196683D01*
X91022683Y-119754444D01*
X91370148Y-119234426D01*
X91609486Y-118656613D01*
X91731500Y-118043210D01*
X91731500Y-117417790D01*
X93255500Y-117417790D01*
X93255500Y-118043210D01*
X93377514Y-118656613D01*
X93616852Y-119234426D01*
X93964317Y-119754444D01*
X94406556Y-120196683D01*
X94926574Y-120544148D01*
X95504387Y-120783486D01*
X96117790Y-120905500D01*
X96743210Y-120905500D01*
X97356613Y-120783486D01*
X97934426Y-120544148D01*
X98454444Y-120196683D01*
X98896683Y-119754444D01*
X99244148Y-119234426D01*
X99483486Y-118656613D01*
X99605500Y-118043210D01*
X99605500Y-117417790D01*
X101129500Y-117417790D01*
X101129500Y-118043210D01*
X101251514Y-118656613D01*
X101490852Y-119234426D01*
X101838317Y-119754444D01*
X102280556Y-120196683D01*
X102800574Y-120544148D01*
X103378387Y-120783486D01*
X103991790Y-120905500D01*
X104617210Y-120905500D01*
X105230613Y-120783486D01*
X105808426Y-120544148D01*
X106328444Y-120196683D01*
X106770683Y-119754444D01*
X107118148Y-119234426D01*
X107357486Y-118656613D01*
X107479500Y-118043210D01*
X107479500Y-117417790D01*
X109003500Y-117417790D01*
X109003500Y-118043210D01*
X109125514Y-118656613D01*
X109364852Y-119234426D01*
X109712317Y-119754444D01*
X110154556Y-120196683D01*
X110674574Y-120544148D01*
X111252387Y-120783486D01*
X111865790Y-120905500D01*
X112491210Y-120905500D01*
X113104613Y-120783486D01*
X113682426Y-120544148D01*
X114202444Y-120196683D01*
X114644683Y-119754444D01*
X114992148Y-119234426D01*
X115231486Y-118656613D01*
X115353500Y-118043210D01*
X115353500Y-117417790D01*
X116877500Y-117417790D01*
X116877500Y-118043210D01*
X116999514Y-118656613D01*
X117238852Y-119234426D01*
X117586317Y-119754444D01*
X118028556Y-120196683D01*
X118548574Y-120544148D01*
X119126387Y-120783486D01*
X119739790Y-120905500D01*
X120365210Y-120905500D01*
X120978613Y-120783486D01*
X121556426Y-120544148D01*
X122076444Y-120196683D01*
X122518683Y-119754444D01*
X122866148Y-119234426D01*
X123105486Y-118656613D01*
X123227500Y-118043210D01*
X123227500Y-117417790D01*
X124751500Y-117417790D01*
X124751500Y-118043210D01*
X124873514Y-118656613D01*
X125112852Y-119234426D01*
X125460317Y-119754444D01*
X125902556Y-120196683D01*
X126422574Y-120544148D01*
X127000387Y-120783486D01*
X127613790Y-120905500D01*
X128239210Y-120905500D01*
X128852613Y-120783486D01*
X129430426Y-120544148D01*
X129950444Y-120196683D01*
X130392683Y-119754444D01*
X130740148Y-119234426D01*
X130979486Y-118656613D01*
X131101500Y-118043210D01*
X131101500Y-117417790D01*
X130979486Y-116804387D01*
X130740148Y-116226574D01*
X130392683Y-115706556D01*
X129950444Y-115264317D01*
X129430426Y-114916852D01*
X128852613Y-114677514D01*
X128239210Y-114555500D01*
X127613790Y-114555500D01*
X127000387Y-114677514D01*
X126422574Y-114916852D01*
X125902556Y-115264317D01*
X125460317Y-115706556D01*
X125112852Y-116226574D01*
X124873514Y-116804387D01*
X124751500Y-117417790D01*
X123227500Y-117417790D01*
X123105486Y-116804387D01*
X122866148Y-116226574D01*
X122518683Y-115706556D01*
X122076444Y-115264317D01*
X121556426Y-114916852D01*
X120978613Y-114677514D01*
X120365210Y-114555500D01*
X119739790Y-114555500D01*
X119126387Y-114677514D01*
X118548574Y-114916852D01*
X118028556Y-115264317D01*
X117586317Y-115706556D01*
X117238852Y-116226574D01*
X116999514Y-116804387D01*
X116877500Y-117417790D01*
X115353500Y-117417790D01*
X115231486Y-116804387D01*
X114992148Y-116226574D01*
X114644683Y-115706556D01*
X114202444Y-115264317D01*
X113682426Y-114916852D01*
X113104613Y-114677514D01*
X112491210Y-114555500D01*
X111865790Y-114555500D01*
X111252387Y-114677514D01*
X110674574Y-114916852D01*
X110154556Y-115264317D01*
X109712317Y-115706556D01*
X109364852Y-116226574D01*
X109125514Y-116804387D01*
X109003500Y-117417790D01*
X107479500Y-117417790D01*
X107357486Y-116804387D01*
X107118148Y-116226574D01*
X106770683Y-115706556D01*
X106328444Y-115264317D01*
X105808426Y-114916852D01*
X105230613Y-114677514D01*
X104617210Y-114555500D01*
X103991790Y-114555500D01*
X103378387Y-114677514D01*
X102800574Y-114916852D01*
X102280556Y-115264317D01*
X101838317Y-115706556D01*
X101490852Y-116226574D01*
X101251514Y-116804387D01*
X101129500Y-117417790D01*
X99605500Y-117417790D01*
X99483486Y-116804387D01*
X99244148Y-116226574D01*
X98896683Y-115706556D01*
X98454444Y-115264317D01*
X97934426Y-114916852D01*
X97356613Y-114677514D01*
X96743210Y-114555500D01*
X96117790Y-114555500D01*
X95504387Y-114677514D01*
X94926574Y-114916852D01*
X94406556Y-115264317D01*
X93964317Y-115706556D01*
X93616852Y-116226574D01*
X93377514Y-116804387D01*
X93255500Y-117417790D01*
X91731500Y-117417790D01*
X91609486Y-116804387D01*
X91370148Y-116226574D01*
X91022683Y-115706556D01*
X90580444Y-115264317D01*
X90060426Y-114916852D01*
X89482613Y-114677514D01*
X88869210Y-114555500D01*
X88243790Y-114555500D01*
X87630387Y-114677514D01*
X87052574Y-114916852D01*
X86532556Y-115264317D01*
X86090317Y-115706556D01*
X85742852Y-116226574D01*
X85503514Y-116804387D01*
X85381500Y-117417790D01*
X83794000Y-117417790D01*
X83671986Y-116804387D01*
X83432648Y-116226574D01*
X83085183Y-115706556D01*
X82642944Y-115264317D01*
X82122926Y-114916852D01*
X81545113Y-114677514D01*
X80931710Y-114555500D01*
X80306290Y-114555500D01*
X79692887Y-114677514D01*
X79115074Y-114916852D01*
X78595056Y-115264317D01*
X78152817Y-115706556D01*
X77805352Y-116226574D01*
X77566014Y-116804387D01*
X77444000Y-117417790D01*
X75920000Y-117417790D01*
X75797986Y-116804387D01*
X75558648Y-116226574D01*
X75211183Y-115706556D01*
X74768944Y-115264317D01*
X74248926Y-114916852D01*
X73671113Y-114677514D01*
X73057710Y-114555500D01*
X72432290Y-114555500D01*
X71818887Y-114677514D01*
X71241074Y-114916852D01*
X70721056Y-115264317D01*
X70278817Y-115706556D01*
X69931352Y-116226574D01*
X69692014Y-116804387D01*
X69570000Y-117417790D01*
X67437000Y-117417790D01*
X67437000Y-109517790D01*
X69570000Y-109517790D01*
X69570000Y-110143210D01*
X69692014Y-110756613D01*
X69931352Y-111334426D01*
X70278817Y-111854444D01*
X70721056Y-112296683D01*
X71241074Y-112644148D01*
X71818887Y-112883486D01*
X72432290Y-113005500D01*
X73057710Y-113005500D01*
X73671113Y-112883486D01*
X74248926Y-112644148D01*
X74768944Y-112296683D01*
X75211183Y-111854444D01*
X75558648Y-111334426D01*
X75797986Y-110756613D01*
X75920000Y-110143210D01*
X75920000Y-109517790D01*
X77444000Y-109517790D01*
X77444000Y-110143210D01*
X77566014Y-110756613D01*
X77805352Y-111334426D01*
X78152817Y-111854444D01*
X78595056Y-112296683D01*
X79115074Y-112644148D01*
X79692887Y-112883486D01*
X80306290Y-113005500D01*
X80931710Y-113005500D01*
X81545113Y-112883486D01*
X82122926Y-112644148D01*
X82642944Y-112296683D01*
X83085183Y-111854444D01*
X83432648Y-111334426D01*
X83671986Y-110756613D01*
X83794000Y-110143210D01*
X83794000Y-109517790D01*
X85381500Y-109517790D01*
X85381500Y-110143210D01*
X85503514Y-110756613D01*
X85742852Y-111334426D01*
X86090317Y-111854444D01*
X86532556Y-112296683D01*
X87052574Y-112644148D01*
X87630387Y-112883486D01*
X88243790Y-113005500D01*
X88869210Y-113005500D01*
X89482613Y-112883486D01*
X90060426Y-112644148D01*
X90580444Y-112296683D01*
X91022683Y-111854444D01*
X91370148Y-111334426D01*
X91609486Y-110756613D01*
X91731500Y-110143210D01*
X91731500Y-109517790D01*
X93255500Y-109517790D01*
X93255500Y-110143210D01*
X93377514Y-110756613D01*
X93616852Y-111334426D01*
X93964317Y-111854444D01*
X94406556Y-112296683D01*
X94926574Y-112644148D01*
X95504387Y-112883486D01*
X96117790Y-113005500D01*
X96743210Y-113005500D01*
X97356613Y-112883486D01*
X97934426Y-112644148D01*
X98454444Y-112296683D01*
X98896683Y-111854444D01*
X99244148Y-111334426D01*
X99483486Y-110756613D01*
X99605500Y-110143210D01*
X99605500Y-109517790D01*
X101129500Y-109517790D01*
X101129500Y-110143210D01*
X101251514Y-110756613D01*
X101490852Y-111334426D01*
X101838317Y-111854444D01*
X102280556Y-112296683D01*
X102800574Y-112644148D01*
X103378387Y-112883486D01*
X103991790Y-113005500D01*
X104617210Y-113005500D01*
X105230613Y-112883486D01*
X105808426Y-112644148D01*
X106328444Y-112296683D01*
X106770683Y-111854444D01*
X107118148Y-111334426D01*
X107357486Y-110756613D01*
X107479500Y-110143210D01*
X107479500Y-109517790D01*
X109003500Y-109517790D01*
X109003500Y-110143210D01*
X109125514Y-110756613D01*
X109364852Y-111334426D01*
X109712317Y-111854444D01*
X110154556Y-112296683D01*
X110674574Y-112644148D01*
X111252387Y-112883486D01*
X111865790Y-113005500D01*
X112491210Y-113005500D01*
X113104613Y-112883486D01*
X113682426Y-112644148D01*
X114202444Y-112296683D01*
X114644683Y-111854444D01*
X114992148Y-111334426D01*
X115231486Y-110756613D01*
X115353500Y-110143210D01*
X115353500Y-109517790D01*
X116877500Y-109517790D01*
X116877500Y-110143210D01*
X116999514Y-110756613D01*
X117238852Y-111334426D01*
X117586317Y-111854444D01*
X118028556Y-112296683D01*
X118548574Y-112644148D01*
X119126387Y-112883486D01*
X119739790Y-113005500D01*
X120365210Y-113005500D01*
X120978613Y-112883486D01*
X121556426Y-112644148D01*
X122076444Y-112296683D01*
X122518683Y-111854444D01*
X122866148Y-111334426D01*
X123105486Y-110756613D01*
X123227500Y-110143210D01*
X123227500Y-109517790D01*
X123105486Y-108904387D01*
X122866148Y-108326574D01*
X122518683Y-107806556D01*
X122076444Y-107364317D01*
X121556426Y-107016852D01*
X120978613Y-106777514D01*
X120365210Y-106655500D01*
X119739790Y-106655500D01*
X119126387Y-106777514D01*
X118548574Y-107016852D01*
X118028556Y-107364317D01*
X117586317Y-107806556D01*
X117238852Y-108326574D01*
X116999514Y-108904387D01*
X116877500Y-109517790D01*
X115353500Y-109517790D01*
X115231486Y-108904387D01*
X114992148Y-108326574D01*
X114644683Y-107806556D01*
X114202444Y-107364317D01*
X113682426Y-107016852D01*
X113104613Y-106777514D01*
X112491210Y-106655500D01*
X111865790Y-106655500D01*
X111252387Y-106777514D01*
X110674574Y-107016852D01*
X110154556Y-107364317D01*
X109712317Y-107806556D01*
X109364852Y-108326574D01*
X109125514Y-108904387D01*
X109003500Y-109517790D01*
X107479500Y-109517790D01*
X107357486Y-108904387D01*
X107118148Y-108326574D01*
X106770683Y-107806556D01*
X106328444Y-107364317D01*
X105808426Y-107016852D01*
X105230613Y-106777514D01*
X104617210Y-106655500D01*
X103991790Y-106655500D01*
X103378387Y-106777514D01*
X102800574Y-107016852D01*
X102280556Y-107364317D01*
X101838317Y-107806556D01*
X101490852Y-108326574D01*
X101251514Y-108904387D01*
X101129500Y-109517790D01*
X99605500Y-109517790D01*
X99483486Y-108904387D01*
X99244148Y-108326574D01*
X98896683Y-107806556D01*
X98454444Y-107364317D01*
X97934426Y-107016852D01*
X97356613Y-106777514D01*
X96743210Y-106655500D01*
X96117790Y-106655500D01*
X95504387Y-106777514D01*
X94926574Y-107016852D01*
X94406556Y-107364317D01*
X93964317Y-107806556D01*
X93616852Y-108326574D01*
X93377514Y-108904387D01*
X93255500Y-109517790D01*
X91731500Y-109517790D01*
X91609486Y-108904387D01*
X91370148Y-108326574D01*
X91022683Y-107806556D01*
X90580444Y-107364317D01*
X90060426Y-107016852D01*
X89482613Y-106777514D01*
X88869210Y-106655500D01*
X88243790Y-106655500D01*
X87630387Y-106777514D01*
X87052574Y-107016852D01*
X86532556Y-107364317D01*
X86090317Y-107806556D01*
X85742852Y-108326574D01*
X85503514Y-108904387D01*
X85381500Y-109517790D01*
X83794000Y-109517790D01*
X83671986Y-108904387D01*
X83432648Y-108326574D01*
X83085183Y-107806556D01*
X82642944Y-107364317D01*
X82122926Y-107016852D01*
X81545113Y-106777514D01*
X80931710Y-106655500D01*
X80306290Y-106655500D01*
X79692887Y-106777514D01*
X79115074Y-107016852D01*
X78595056Y-107364317D01*
X78152817Y-107806556D01*
X77805352Y-108326574D01*
X77566014Y-108904387D01*
X77444000Y-109517790D01*
X75920000Y-109517790D01*
X75797986Y-108904387D01*
X75558648Y-108326574D01*
X75211183Y-107806556D01*
X74768944Y-107364317D01*
X74248926Y-107016852D01*
X73671113Y-106777514D01*
X73057710Y-106655500D01*
X72432290Y-106655500D01*
X71818887Y-106777514D01*
X71241074Y-107016852D01*
X70721056Y-107364317D01*
X70278817Y-107806556D01*
X69931352Y-108326574D01*
X69692014Y-108904387D01*
X69570000Y-109517790D01*
X67437000Y-109517790D01*
X67437000Y-101592503D01*
X67528705Y-101455256D01*
X67606726Y-101266898D01*
X67646500Y-101066939D01*
X67646500Y-100863061D01*
X67606726Y-100663102D01*
X67528705Y-100474744D01*
X67415437Y-100305226D01*
X67271274Y-100161063D01*
X67101756Y-100047795D01*
X66913398Y-99969774D01*
X66865500Y-99960247D01*
X66865500Y-98354003D01*
X66957205Y-98216756D01*
X67035226Y-98028398D01*
X67075000Y-97828439D01*
X67075000Y-97624561D01*
X67035226Y-97424602D01*
X66957205Y-97236244D01*
X66843937Y-97066726D01*
X66699774Y-96922563D01*
X66530256Y-96809295D01*
X66341898Y-96731274D01*
X66294000Y-96721747D01*
X66294000Y-95179003D01*
X66385705Y-95041756D01*
X66463726Y-94853398D01*
X66503500Y-94653439D01*
X66503500Y-94449561D01*
X66463726Y-94249602D01*
X66385705Y-94061244D01*
X66272437Y-93891726D01*
X66128274Y-93747563D01*
X65958756Y-93634295D01*
X65770398Y-93556274D01*
X65712990Y-93544855D01*
X65712990Y-92077013D01*
X65804695Y-91939766D01*
X65882716Y-91751408D01*
X65922490Y-91551449D01*
X65922490Y-91347571D01*
X65882716Y-91147612D01*
X65804695Y-90959254D01*
X65691427Y-90789736D01*
X65547264Y-90645573D01*
X65377746Y-90532305D01*
X65189388Y-90454284D01*
X64989429Y-90414510D01*
X64922489Y-90414510D01*
X64922489Y-88549514D01*
X65014194Y-88412267D01*
X65092215Y-88223909D01*
X65131989Y-88023950D01*
X65131989Y-87820072D01*
X65092215Y-87620113D01*
X65014194Y-87431755D01*
X64900926Y-87262237D01*
X64756763Y-87118074D01*
X64587245Y-87004806D01*
X64398887Y-86926785D01*
X64325500Y-86912188D01*
X64325500Y-84033063D01*
X64417205Y-83895816D01*
X64495226Y-83707458D01*
X64535000Y-83507499D01*
X64535000Y-83303621D01*
X64495226Y-83103662D01*
X64417205Y-82915304D01*
X64303937Y-82745786D01*
X64159774Y-82601623D01*
X63990256Y-82488355D01*
X63801898Y-82410334D01*
X63754000Y-82400807D01*
X63754000Y-79524563D01*
X63845705Y-79387316D01*
X63923726Y-79198958D01*
X63963500Y-78998999D01*
X63963500Y-78795121D01*
X63923726Y-78595162D01*
X63845705Y-78406804D01*
X63732437Y-78237286D01*
X63588274Y-78093123D01*
X63418756Y-77979855D01*
X63230398Y-77901834D01*
X63182500Y-77892307D01*
X63182500Y-75016063D01*
X63274205Y-74878816D01*
X63352226Y-74690458D01*
X63392000Y-74490499D01*
X63392000Y-74286621D01*
X63352226Y-74086662D01*
X63274205Y-73898304D01*
X63160937Y-73728786D01*
X63016774Y-73584623D01*
X62847256Y-73471355D01*
X62658898Y-73393334D01*
X62458939Y-73353560D01*
X62255061Y-73353560D01*
X62055102Y-73393334D01*
X61866744Y-73471355D01*
X61697226Y-73584623D01*
X61553063Y-73728786D01*
X61439795Y-73898304D01*
X61361774Y-74086662D01*
X61322000Y-74286621D01*
X61322000Y-74490499D01*
X61361774Y-74690458D01*
X61439795Y-74878816D01*
X61531501Y-75016064D01*
X61531500Y-77952280D01*
X61525608Y-77959460D01*
X61448300Y-78053659D01*
X61371646Y-78197068D01*
X61368524Y-78207361D01*
X61324443Y-78352675D01*
X61314136Y-78457326D01*
X61308505Y-78514501D01*
X61312499Y-78555051D01*
X61312499Y-79235951D01*
X61308505Y-79276501D01*
X61312499Y-79317051D01*
X61312499Y-79317053D01*
X61324443Y-79438326D01*
X61371646Y-79593934D01*
X61448300Y-79737343D01*
X61482213Y-79778666D01*
X61521991Y-79827136D01*
X61521990Y-82223236D01*
X61516098Y-82230416D01*
X61438790Y-82324615D01*
X61362136Y-82468024D01*
X61314934Y-82623631D01*
X61298995Y-82785457D01*
X61302990Y-82826017D01*
X61302989Y-83985112D01*
X61298995Y-84025663D01*
X61302989Y-84066213D01*
X61302989Y-84066215D01*
X61314933Y-84187488D01*
X61355969Y-84322765D01*
X61362136Y-84343096D01*
X61438790Y-84486505D01*
X61472703Y-84527828D01*
X61512481Y-84576298D01*
X61512480Y-86489698D01*
X61454771Y-86560016D01*
X61378117Y-86703425D01*
X61330915Y-86859032D01*
X61314976Y-87020858D01*
X61318971Y-87061418D01*
X61318969Y-88742223D01*
X61314975Y-88782772D01*
X61318969Y-88823325D01*
X61318969Y-88823327D01*
X61330913Y-88944600D01*
X61378116Y-89100208D01*
X61394546Y-89130946D01*
X61454768Y-89243614D01*
X61509007Y-89309704D01*
X61528460Y-89333408D01*
X61528459Y-92510386D01*
X61524465Y-92550937D01*
X61528459Y-92591487D01*
X61528459Y-92591489D01*
X61540403Y-92712762D01*
X61581950Y-92849724D01*
X61587606Y-92868370D01*
X61595511Y-92883160D01*
X61581109Y-92910105D01*
X61533907Y-93065712D01*
X61517968Y-93227538D01*
X61521963Y-93268098D01*
X61521962Y-95846538D01*
X61517968Y-95887086D01*
X61521962Y-95927636D01*
X61521962Y-95927640D01*
X61530429Y-96013607D01*
X61518952Y-96130135D01*
X61514958Y-96170686D01*
X61518952Y-96211236D01*
X61518952Y-96686760D01*
X61508486Y-96793020D01*
X61512481Y-96833580D01*
X61512480Y-99010672D01*
X61505449Y-99082057D01*
X61509444Y-99122617D01*
X61509443Y-102799730D01*
X61505449Y-102840278D01*
X61509443Y-102880831D01*
X61509443Y-102880835D01*
X61521387Y-103002108D01*
X61547889Y-103089474D01*
X61567172Y-103153041D01*
X61568590Y-103157716D01*
X61585020Y-103188454D01*
X61645241Y-103301120D01*
X61645243Y-103301123D01*
X61645244Y-103301124D01*
X61718931Y-103390913D01*
X61718930Y-115436949D01*
X55103746Y-122052134D01*
X54989958Y-122052134D01*
X54949407Y-122048140D01*
X54908857Y-122052134D01*
X54908855Y-122052134D01*
X54787582Y-122064078D01*
X54631974Y-122111281D01*
X54488565Y-122187935D01*
X54463796Y-122208263D01*
X54362867Y-122291093D01*
X54337010Y-122322600D01*
X54060130Y-122599480D01*
X53470726Y-122599480D01*
X53430176Y-122595486D01*
X53389625Y-122599480D01*
X53389623Y-122599480D01*
X53268350Y-122611424D01*
X53130217Y-122653326D01*
X53112742Y-122658627D01*
X52969333Y-122735281D01*
X52875134Y-122812588D01*
X52875131Y-122812591D01*
X52843635Y-122838439D01*
X52817787Y-122869935D01*
X51749943Y-123937781D01*
X51718442Y-123963633D01*
X51682502Y-124007426D01*
X51615283Y-124089332D01*
X51538629Y-124232741D01*
X51491427Y-124388348D01*
X51475488Y-124550174D01*
X51479483Y-124590733D01*
X51479481Y-125930547D01*
X51479482Y-125930555D01*
X51479480Y-126746100D01*
X51475486Y-126786652D01*
X42620000Y-126786652D01*
X42620000Y-69475290D01*
X70268500Y-69475290D01*
X70268500Y-70100710D01*
X70390514Y-70714113D01*
X70629852Y-71291926D01*
X70977317Y-71811944D01*
X71419556Y-72254183D01*
X71939574Y-72601648D01*
X72517387Y-72840986D01*
X73130790Y-72963000D01*
X73756210Y-72963000D01*
X74369613Y-72840986D01*
X74947426Y-72601648D01*
X75467444Y-72254183D01*
X75909683Y-71811944D01*
X76257148Y-71291926D01*
X76496486Y-70714113D01*
X76618500Y-70100710D01*
X76618500Y-69475290D01*
X78142500Y-69475290D01*
X78142500Y-70100710D01*
X78264514Y-70714113D01*
X78503852Y-71291926D01*
X78851317Y-71811944D01*
X79293556Y-72254183D01*
X79813574Y-72601648D01*
X80391387Y-72840986D01*
X81004790Y-72963000D01*
X81630210Y-72963000D01*
X82243613Y-72840986D01*
X82821426Y-72601648D01*
X83341444Y-72254183D01*
X83783683Y-71811944D01*
X84131148Y-71291926D01*
X84370486Y-70714113D01*
X84492500Y-70100710D01*
X84492500Y-69475290D01*
X86016500Y-69475290D01*
X86016500Y-70100710D01*
X86138514Y-70714113D01*
X86377852Y-71291926D01*
X86725317Y-71811944D01*
X87167556Y-72254183D01*
X87687574Y-72601648D01*
X88265387Y-72840986D01*
X88878790Y-72963000D01*
X89504210Y-72963000D01*
X90117613Y-72840986D01*
X90695426Y-72601648D01*
X91215444Y-72254183D01*
X91657683Y-71811944D01*
X92005148Y-71291926D01*
X92244486Y-70714113D01*
X92366500Y-70100710D01*
X92366500Y-69475290D01*
X93954000Y-69475290D01*
X93954000Y-70100710D01*
X94076014Y-70714113D01*
X94315352Y-71291926D01*
X94662817Y-71811944D01*
X95105056Y-72254183D01*
X95625074Y-72601648D01*
X96202887Y-72840986D01*
X96816290Y-72963000D01*
X97441710Y-72963000D01*
X98055113Y-72840986D01*
X98632926Y-72601648D01*
X99152944Y-72254183D01*
X99595183Y-71811944D01*
X99942648Y-71291926D01*
X100181986Y-70714113D01*
X100304000Y-70100710D01*
X100304000Y-69475290D01*
X101828000Y-69475290D01*
X101828000Y-70100710D01*
X101950014Y-70714113D01*
X102189352Y-71291926D01*
X102536817Y-71811944D01*
X102979056Y-72254183D01*
X103499074Y-72601648D01*
X104076887Y-72840986D01*
X104690290Y-72963000D01*
X105315710Y-72963000D01*
X105929113Y-72840986D01*
X106506926Y-72601648D01*
X107026944Y-72254183D01*
X107469183Y-71811944D01*
X107816648Y-71291926D01*
X108055986Y-70714113D01*
X108178000Y-70100710D01*
X108178000Y-69475290D01*
X109702000Y-69475290D01*
X109702000Y-70100710D01*
X109824014Y-70714113D01*
X110063352Y-71291926D01*
X110410817Y-71811944D01*
X110853056Y-72254183D01*
X111373074Y-72601648D01*
X111950887Y-72840986D01*
X112564290Y-72963000D01*
X113189710Y-72963000D01*
X113803113Y-72840986D01*
X114380926Y-72601648D01*
X114900944Y-72254183D01*
X115343183Y-71811944D01*
X115690648Y-71291926D01*
X115929986Y-70714113D01*
X116052000Y-70100710D01*
X116052000Y-69475290D01*
X116051702Y-69473790D01*
X117602000Y-69473790D01*
X117602000Y-70099210D01*
X117724014Y-70712613D01*
X117963352Y-71290426D01*
X118310817Y-71810444D01*
X118753056Y-72252683D01*
X119273074Y-72600148D01*
X119850887Y-72839486D01*
X120464290Y-72961500D01*
X121089710Y-72961500D01*
X121703113Y-72839486D01*
X122280926Y-72600148D01*
X122800944Y-72252683D01*
X123243183Y-71810444D01*
X123590648Y-71290426D01*
X123829986Y-70712613D01*
X123952000Y-70099210D01*
X123952000Y-69473790D01*
X125476000Y-69473790D01*
X125476000Y-70099210D01*
X125598014Y-70712613D01*
X125837352Y-71290426D01*
X126184817Y-71810444D01*
X126627056Y-72252683D01*
X127147074Y-72600148D01*
X127724887Y-72839486D01*
X128338290Y-72961500D01*
X128963710Y-72961500D01*
X129577113Y-72839486D01*
X130154926Y-72600148D01*
X130674944Y-72252683D01*
X131117183Y-71810444D01*
X131464648Y-71290426D01*
X131703986Y-70712613D01*
X131826000Y-70099210D01*
X131826000Y-69473790D01*
X131703986Y-68860387D01*
X131464648Y-68282574D01*
X131117183Y-67762556D01*
X130674944Y-67320317D01*
X130154926Y-66972852D01*
X129577113Y-66733514D01*
X128963710Y-66611500D01*
X128338290Y-66611500D01*
X127724887Y-66733514D01*
X127147074Y-66972852D01*
X126627056Y-67320317D01*
X126184817Y-67762556D01*
X125837352Y-68282574D01*
X125598014Y-68860387D01*
X125476000Y-69473790D01*
X123952000Y-69473790D01*
X123829986Y-68860387D01*
X123590648Y-68282574D01*
X123243183Y-67762556D01*
X122800944Y-67320317D01*
X122280926Y-66972852D01*
X121703113Y-66733514D01*
X121089710Y-66611500D01*
X120464290Y-66611500D01*
X119850887Y-66733514D01*
X119273074Y-66972852D01*
X118753056Y-67320317D01*
X118310817Y-67762556D01*
X117963352Y-68282574D01*
X117724014Y-68860387D01*
X117602000Y-69473790D01*
X116051702Y-69473790D01*
X115929986Y-68861887D01*
X115690648Y-68284074D01*
X115343183Y-67764056D01*
X114900944Y-67321817D01*
X114380926Y-66974352D01*
X113803113Y-66735014D01*
X113189710Y-66613000D01*
X112564290Y-66613000D01*
X111950887Y-66735014D01*
X111373074Y-66974352D01*
X110853056Y-67321817D01*
X110410817Y-67764056D01*
X110063352Y-68284074D01*
X109824014Y-68861887D01*
X109702000Y-69475290D01*
X108178000Y-69475290D01*
X108055986Y-68861887D01*
X107816648Y-68284074D01*
X107469183Y-67764056D01*
X107026944Y-67321817D01*
X106506926Y-66974352D01*
X105929113Y-66735014D01*
X105315710Y-66613000D01*
X104690290Y-66613000D01*
X104076887Y-66735014D01*
X103499074Y-66974352D01*
X102979056Y-67321817D01*
X102536817Y-67764056D01*
X102189352Y-68284074D01*
X101950014Y-68861887D01*
X101828000Y-69475290D01*
X100304000Y-69475290D01*
X100181986Y-68861887D01*
X99942648Y-68284074D01*
X99595183Y-67764056D01*
X99152944Y-67321817D01*
X98632926Y-66974352D01*
X98055113Y-66735014D01*
X97441710Y-66613000D01*
X96816290Y-66613000D01*
X96202887Y-66735014D01*
X95625074Y-66974352D01*
X95105056Y-67321817D01*
X94662817Y-67764056D01*
X94315352Y-68284074D01*
X94076014Y-68861887D01*
X93954000Y-69475290D01*
X92366500Y-69475290D01*
X92244486Y-68861887D01*
X92005148Y-68284074D01*
X91657683Y-67764056D01*
X91215444Y-67321817D01*
X90695426Y-66974352D01*
X90117613Y-66735014D01*
X89504210Y-66613000D01*
X88878790Y-66613000D01*
X88265387Y-66735014D01*
X87687574Y-66974352D01*
X87167556Y-67321817D01*
X86725317Y-67764056D01*
X86377852Y-68284074D01*
X86138514Y-68861887D01*
X86016500Y-69475290D01*
X84492500Y-69475290D01*
X84370486Y-68861887D01*
X84131148Y-68284074D01*
X83783683Y-67764056D01*
X83341444Y-67321817D01*
X82821426Y-66974352D01*
X82243613Y-66735014D01*
X81630210Y-66613000D01*
X81004790Y-66613000D01*
X80391387Y-66735014D01*
X79813574Y-66974352D01*
X79293556Y-67321817D01*
X78851317Y-67764056D01*
X78503852Y-68284074D01*
X78264514Y-68861887D01*
X78142500Y-69475290D01*
X76618500Y-69475290D01*
X76496486Y-68861887D01*
X76257148Y-68284074D01*
X75909683Y-67764056D01*
X75467444Y-67321817D01*
X74947426Y-66974352D01*
X74369613Y-66735014D01*
X73756210Y-66613000D01*
X73130790Y-66613000D01*
X72517387Y-66735014D01*
X71939574Y-66974352D01*
X71419556Y-67321817D01*
X70977317Y-67764056D01*
X70629852Y-68284074D01*
X70390514Y-68861887D01*
X70268500Y-69475290D01*
X42620000Y-69475290D01*
X42620000Y-58081290D01*
X59348000Y-58081290D01*
X59348000Y-58706710D01*
X59470014Y-59320113D01*
X59709352Y-59897926D01*
X60056817Y-60417944D01*
X60499056Y-60860183D01*
X60846408Y-61092276D01*
X63722104Y-63967974D01*
X63818981Y-64086019D01*
X64290028Y-64472597D01*
X64827441Y-64759850D01*
X65410568Y-64936740D01*
X65865026Y-64981500D01*
X65865028Y-64981500D01*
X66016999Y-64996468D01*
X66168970Y-64981500D01*
X72721064Y-64981500D01*
X73130790Y-65063000D01*
X73756210Y-65063000D01*
X74165936Y-64981500D01*
X80595064Y-64981500D01*
X81004790Y-65063000D01*
X81630210Y-65063000D01*
X82039936Y-64981500D01*
X88469064Y-64981500D01*
X88878790Y-65063000D01*
X89504210Y-65063000D01*
X89913936Y-64981500D01*
X96406564Y-64981500D01*
X96816290Y-65063000D01*
X97441710Y-65063000D01*
X97851436Y-64981500D01*
X104280564Y-64981500D01*
X104690290Y-65063000D01*
X105315710Y-65063000D01*
X105725436Y-64981500D01*
X112154564Y-64981500D01*
X112564290Y-65063000D01*
X113189710Y-65063000D01*
X113599436Y-64981500D01*
X120062105Y-64981500D01*
X120464290Y-65061500D01*
X121089710Y-65061500D01*
X121491895Y-64981500D01*
X127936105Y-64981500D01*
X128338290Y-65061500D01*
X128963710Y-65061500D01*
X129373436Y-64980000D01*
X129502632Y-64980000D01*
X132669500Y-68146870D01*
X132669501Y-85269130D01*
X130227132Y-87711500D01*
X71031526Y-87711500D01*
X70577068Y-87756260D01*
X69993941Y-87933150D01*
X69456528Y-88220403D01*
X68985481Y-88606981D01*
X68598903Y-89078028D01*
X68311650Y-89615441D01*
X68134760Y-90198568D01*
X68075032Y-90805000D01*
X68134760Y-91411432D01*
X68311650Y-91994559D01*
X68598903Y-92531972D01*
X68985481Y-93003019D01*
X69456528Y-93389597D01*
X69993941Y-93676850D01*
X70577068Y-93853740D01*
X71031526Y-93898500D01*
X131356529Y-93898500D01*
X131508500Y-93913468D01*
X131660471Y-93898500D01*
X131660474Y-93898500D01*
X132114932Y-93853740D01*
X132698059Y-93676850D01*
X133235472Y-93389597D01*
X133706519Y-93003019D01*
X133803405Y-92884963D01*
X137842968Y-88845401D01*
X137961019Y-88748519D01*
X138134818Y-88536744D01*
X138347597Y-88277473D01*
X138634850Y-87740060D01*
X138757581Y-87335470D01*
X138811740Y-87156931D01*
X138856500Y-86702473D01*
X138856500Y-86702471D01*
X138871468Y-86550500D01*
X138856500Y-86398529D01*
X138856500Y-67017470D01*
X138871468Y-66865499D01*
X138846451Y-66611500D01*
X138811740Y-66259068D01*
X138634850Y-65675941D01*
X138347597Y-65138528D01*
X137961019Y-64667481D01*
X137842975Y-64570605D01*
X133078905Y-59806536D01*
X132982019Y-59688481D01*
X132510972Y-59301903D01*
X131973559Y-59014650D01*
X131390432Y-58837760D01*
X130935974Y-58793000D01*
X130935971Y-58793000D01*
X130784000Y-58778032D01*
X130632029Y-58793000D01*
X129373436Y-58793000D01*
X128963710Y-58711500D01*
X128338290Y-58711500D01*
X127921023Y-58794500D01*
X121506977Y-58794500D01*
X121089710Y-58711500D01*
X120464290Y-58711500D01*
X120047023Y-58794500D01*
X113599436Y-58794500D01*
X113189710Y-58713000D01*
X112564290Y-58713000D01*
X112154564Y-58794500D01*
X105725436Y-58794500D01*
X105315710Y-58713000D01*
X104690290Y-58713000D01*
X104280564Y-58794500D01*
X97851436Y-58794500D01*
X97441710Y-58713000D01*
X96816290Y-58713000D01*
X96406564Y-58794500D01*
X89913936Y-58794500D01*
X89504210Y-58713000D01*
X88878790Y-58713000D01*
X88469064Y-58794500D01*
X82039936Y-58794500D01*
X81630210Y-58713000D01*
X81004790Y-58713000D01*
X80595064Y-58794500D01*
X74165936Y-58794500D01*
X73756210Y-58713000D01*
X73130790Y-58713000D01*
X72721064Y-58794500D01*
X67298369Y-58794500D01*
X66331159Y-57827290D01*
X141898000Y-57827290D01*
X141898000Y-58452710D01*
X142020014Y-59066113D01*
X142259352Y-59643926D01*
X142606817Y-60163944D01*
X143049056Y-60606183D01*
X143569074Y-60953648D01*
X144146887Y-61192986D01*
X144760290Y-61315000D01*
X145385710Y-61315000D01*
X145999113Y-61192986D01*
X146576926Y-60953648D01*
X147096944Y-60606183D01*
X147539183Y-60163944D01*
X147886648Y-59643926D01*
X148125986Y-59066113D01*
X148248000Y-58452710D01*
X148248000Y-57827290D01*
X148125986Y-57213887D01*
X147886648Y-56636074D01*
X147539183Y-56116056D01*
X147096944Y-55673817D01*
X146576926Y-55326352D01*
X145999113Y-55087014D01*
X145385710Y-54965000D01*
X144760290Y-54965000D01*
X144146887Y-55087014D01*
X143569074Y-55326352D01*
X143049056Y-55673817D01*
X142606817Y-56116056D01*
X142259352Y-56636074D01*
X142020014Y-57213887D01*
X141898000Y-57827290D01*
X66331159Y-57827290D01*
X65221276Y-56717408D01*
X64989183Y-56370056D01*
X64546944Y-55927817D01*
X64026926Y-55580352D01*
X63449113Y-55341014D01*
X62835710Y-55219000D01*
X62210290Y-55219000D01*
X61596887Y-55341014D01*
X61019074Y-55580352D01*
X60499056Y-55927817D01*
X60056817Y-56370056D01*
X59709352Y-56890074D01*
X59470014Y-57467887D01*
X59348000Y-58081290D01*
X42620000Y-58081290D01*
X42620000Y-49812339D01*
X44190826Y-49812339D01*
X44190826Y-50263661D01*
X44278875Y-50706311D01*
X44451588Y-51123278D01*
X44702329Y-51498538D01*
X45021462Y-51817671D01*
X45396722Y-52068412D01*
X45813689Y-52241125D01*
X46256339Y-52329174D01*
X46707661Y-52329174D01*
X47150311Y-52241125D01*
X47567278Y-52068412D01*
X47942538Y-51817671D01*
X48261671Y-51498538D01*
X48512412Y-51123278D01*
X48685125Y-50706311D01*
X48773174Y-50263661D01*
X48773174Y-49812339D01*
X143045086Y-49812339D01*
X143045086Y-50263661D01*
X143133135Y-50706311D01*
X143305848Y-51123278D01*
X143556589Y-51498538D01*
X143875722Y-51817671D01*
X144250982Y-52068412D01*
X144667949Y-52241125D01*
X145110599Y-52329174D01*
X145561921Y-52329174D01*
X146004571Y-52241125D01*
X146421538Y-52068412D01*
X146796798Y-51817671D01*
X147115931Y-51498538D01*
X147366672Y-51123278D01*
X147539385Y-50706311D01*
X147627434Y-50263661D01*
X147627434Y-49812339D01*
X147539385Y-49369689D01*
X147366672Y-48952722D01*
X147115931Y-48577462D01*
X146796798Y-48258329D01*
X146421538Y-48007588D01*
X146004571Y-47834875D01*
X145561921Y-47746826D01*
X145110599Y-47746826D01*
X144667949Y-47834875D01*
X144250982Y-48007588D01*
X143875722Y-48258329D01*
X143556589Y-48577462D01*
X143305848Y-48952722D01*
X143133135Y-49369689D01*
X143045086Y-49812339D01*
X48773174Y-49812339D01*
X48685125Y-49369689D01*
X48512412Y-48952722D01*
X48261671Y-48577462D01*
X47942538Y-48258329D01*
X47567278Y-48007588D01*
X47150311Y-47834875D01*
X46707661Y-47746826D01*
X46256339Y-47746826D01*
X45813689Y-47834875D01*
X45396722Y-48007588D01*
X45021462Y-48258329D01*
X44702329Y-48577462D01*
X44451588Y-48952722D01*
X44278875Y-49369689D01*
X44190826Y-49812339D01*
X42620000Y-49812339D01*
X42620000Y-46897720D01*
X42634005Y-46754891D01*
X42665402Y-46650899D01*
X42716399Y-46554986D01*
X42785055Y-46470806D01*
X42868758Y-46401560D01*
X42964311Y-46349895D01*
X43068078Y-46317773D01*
X43208641Y-46303000D01*
X149571280Y-46303000D01*
X149714109Y-46317005D01*
G37*
X149714109Y-46317005D02*
X149818101Y-46348402D01*
X149914014Y-46399399D01*
X149998194Y-46468055D01*
X150067440Y-46551758D01*
X150119105Y-46647311D01*
X150151227Y-46751078D01*
X150166000Y-46891641D01*
X150166001Y-146015269D01*
X150151995Y-146158109D01*
X150120599Y-146262099D01*
X150069601Y-146358013D01*
X150000941Y-146442199D01*
X149917243Y-146511439D01*
X149821689Y-146563105D01*
X149717922Y-146595227D01*
X149577359Y-146610000D01*
X43214720Y-146610000D01*
X43071891Y-146595995D01*
X42967901Y-146564599D01*
X42871987Y-146513601D01*
X42787801Y-146444941D01*
X42718561Y-146361243D01*
X42666895Y-146265689D01*
X42634773Y-146161922D01*
X42620000Y-146021359D01*
X42620000Y-142014339D01*
X44190826Y-142014339D01*
X44190826Y-142465661D01*
X44278875Y-142908311D01*
X44451588Y-143325278D01*
X44702329Y-143700538D01*
X45021462Y-144019671D01*
X45396722Y-144270412D01*
X45813689Y-144443125D01*
X46256339Y-144531174D01*
X46707661Y-144531174D01*
X47150311Y-144443125D01*
X47567278Y-144270412D01*
X47942538Y-144019671D01*
X48261671Y-143700538D01*
X48512412Y-143325278D01*
X48685125Y-142908311D01*
X48773174Y-142465661D01*
X48773174Y-142014339D01*
X48685125Y-141571689D01*
X48512412Y-141154722D01*
X48261671Y-140779462D01*
X47942538Y-140460329D01*
X47567278Y-140209588D01*
X47150311Y-140036875D01*
X46707661Y-139948826D01*
X46256339Y-139948826D01*
X45813689Y-140036875D01*
X45396722Y-140209588D01*
X45021462Y-140460329D01*
X44702329Y-140779462D01*
X44451588Y-141154722D01*
X44278875Y-141571689D01*
X44190826Y-142014339D01*
X42620000Y-142014339D01*
X42620000Y-139051961D01*
X65246300Y-139051961D01*
X65246300Y-139255839D01*
X65286074Y-139455798D01*
X65364095Y-139644156D01*
X65477363Y-139813674D01*
X65621526Y-139957837D01*
X65791044Y-140071105D01*
X65979402Y-140149126D01*
X66141296Y-140181329D01*
X71657161Y-145697194D01*
X71672815Y-145712847D01*
X71698669Y-145744351D01*
X71824368Y-145847509D01*
X71967776Y-145924163D01*
X72123384Y-145971366D01*
X72244657Y-145983310D01*
X72244660Y-145983310D01*
X72285210Y-145987304D01*
X72325760Y-145983310D01*
X118128509Y-145983310D01*
X118160899Y-145986500D01*
X118160908Y-145986500D01*
X118201451Y-145990493D01*
X118241994Y-145986500D01*
X118933050Y-145986500D01*
X118973600Y-145990494D01*
X119014150Y-145986500D01*
X119014153Y-145986500D01*
X119135426Y-145974556D01*
X119148645Y-145970546D01*
X131787308Y-145970546D01*
X131827858Y-145974540D01*
X131868408Y-145970546D01*
X131868411Y-145970546D01*
X131989684Y-145958602D01*
X132145292Y-145911399D01*
X132288700Y-145834745D01*
X132414399Y-145731587D01*
X132440256Y-145700080D01*
X136125997Y-142014339D01*
X143045086Y-142014339D01*
X143045086Y-142465661D01*
X143133135Y-142908311D01*
X143305848Y-143325278D01*
X143556589Y-143700538D01*
X143875722Y-144019671D01*
X144250982Y-144270412D01*
X144667949Y-144443125D01*
X145110599Y-144531174D01*
X145561921Y-144531174D01*
X146004571Y-144443125D01*
X146421538Y-144270412D01*
X146796798Y-144019671D01*
X147115931Y-143700538D01*
X147366672Y-143325278D01*
X147539385Y-142908311D01*
X147627434Y-142465661D01*
X147627434Y-142014339D01*
X147539385Y-141571689D01*
X147366672Y-141154722D01*
X147115931Y-140779462D01*
X146796798Y-140460329D01*
X146421538Y-140209588D01*
X146004571Y-140036875D01*
X145561921Y-139948826D01*
X145110599Y-139948826D01*
X144667949Y-140036875D01*
X144250982Y-140209588D01*
X143875722Y-140460329D01*
X143556589Y-140779462D01*
X143305848Y-141154722D01*
X143133135Y-141571689D01*
X143045086Y-142014339D01*
X136125997Y-142014339D01*
X136495343Y-141644994D01*
X136495348Y-141644988D01*
X136676705Y-141463631D01*
X136708211Y-141437775D01*
X136811369Y-141312076D01*
X136888023Y-141168668D01*
X136935226Y-141013060D01*
X136947170Y-140891787D01*
X136947170Y-140891785D01*
X136951164Y-140851235D01*
X136947170Y-140810684D01*
X136947170Y-125386242D01*
X136977788Y-125348933D01*
X137020858Y-125296453D01*
X137097512Y-125153044D01*
X137111929Y-125105518D01*
X137144715Y-124997436D01*
X137156659Y-124876163D01*
X137156659Y-124876162D01*
X137160653Y-124835612D01*
X137156659Y-124795061D01*
X137156657Y-121230883D01*
X137160652Y-121190323D01*
X137144713Y-121028496D01*
X137097511Y-120872889D01*
X137020857Y-120729480D01*
X136943550Y-120635281D01*
X136943541Y-120635272D01*
X136917698Y-120603782D01*
X136886207Y-120577938D01*
X136601064Y-120292796D01*
X136601064Y-118321946D01*
X136605057Y-118281403D01*
X136601064Y-118240860D01*
X136601064Y-118240851D01*
X136589120Y-118119578D01*
X136541917Y-117963970D01*
X136465263Y-117820562D01*
X136465262Y-117820560D01*
X136414357Y-117758533D01*
X136362105Y-117694863D01*
X136330603Y-117669010D01*
X135994639Y-117333046D01*
X135994636Y-115463808D01*
X135998631Y-115423248D01*
X135982692Y-115261422D01*
X135935490Y-115105815D01*
X135858836Y-114962406D01*
X135781528Y-114868207D01*
X135781525Y-114868204D01*
X135755677Y-114836708D01*
X135724181Y-114810860D01*
X135388229Y-114474908D01*
X135388227Y-112453272D01*
X135392222Y-112412712D01*
X135376283Y-112250885D01*
X135329081Y-112095278D01*
X135252427Y-111951869D01*
X135175120Y-111857670D01*
X135175111Y-111857661D01*
X135149268Y-111826171D01*
X135117777Y-111800327D01*
X134800857Y-111483408D01*
X134824274Y-111439599D01*
X134871477Y-111283991D01*
X134883421Y-111162718D01*
X134883421Y-111162716D01*
X134887415Y-111122165D01*
X134883421Y-111081615D01*
X134883421Y-109468127D01*
X134887415Y-109427577D01*
X134883421Y-109387024D01*
X134871477Y-109265751D01*
X134824274Y-109110143D01*
X134807845Y-109079407D01*
X134747620Y-108966734D01*
X134670313Y-108872535D01*
X134670310Y-108872532D01*
X134644462Y-108841036D01*
X134612965Y-108815188D01*
X134099300Y-108301523D01*
X134099300Y-108198562D01*
X134129328Y-108161973D01*
X134166610Y-108116545D01*
X134243264Y-107973136D01*
X134247372Y-107959594D01*
X134290467Y-107817528D01*
X134302411Y-107696255D01*
X134302411Y-107696254D01*
X134306405Y-107655704D01*
X134302411Y-107615152D01*
X134302409Y-106482997D01*
X134306404Y-106442438D01*
X134290465Y-106280611D01*
X134243263Y-106125004D01*
X134166609Y-105981595D01*
X134089302Y-105887396D01*
X134089293Y-105887387D01*
X134063450Y-105855897D01*
X134031959Y-105830053D01*
X133562710Y-105360805D01*
X133562710Y-104765275D01*
X133636400Y-104675483D01*
X133713054Y-104532075D01*
X133760257Y-104376467D01*
X133772201Y-104255194D01*
X133772201Y-104255192D01*
X133776195Y-104214642D01*
X133772201Y-104174091D01*
X133772201Y-103523251D01*
X133776195Y-103482700D01*
X133770692Y-103426824D01*
X133760257Y-103320875D01*
X133713054Y-103165267D01*
X133657035Y-103060464D01*
X133636400Y-103021858D01*
X133559092Y-102927659D01*
X133533242Y-102896160D01*
X133501740Y-102870307D01*
X132981700Y-102350268D01*
X132981700Y-101389303D01*
X133073405Y-101252056D01*
X133151426Y-101063698D01*
X133191200Y-100863739D01*
X133191200Y-100659861D01*
X133151426Y-100459902D01*
X133073405Y-100271544D01*
X132960137Y-100102026D01*
X132815974Y-99957863D01*
X132646456Y-99844595D01*
X132458098Y-99766574D01*
X132258139Y-99726800D01*
X132054261Y-99726800D01*
X131854302Y-99766574D01*
X131665944Y-99844595D01*
X131496426Y-99957863D01*
X131352263Y-100102026D01*
X131238995Y-100271544D01*
X131160974Y-100459902D01*
X131121200Y-100659861D01*
X131121200Y-100863739D01*
X131160974Y-101063698D01*
X131238995Y-101252056D01*
X131330701Y-101389304D01*
X131330700Y-102651649D01*
X131326706Y-102692200D01*
X131330700Y-102732750D01*
X131330700Y-102732752D01*
X131342644Y-102854025D01*
X131376496Y-102965619D01*
X131389847Y-103009633D01*
X131434506Y-103093183D01*
X131352263Y-103175426D01*
X131238995Y-103344944D01*
X131160974Y-103533302D01*
X131121200Y-103733261D01*
X131121200Y-103937139D01*
X131160974Y-104137098D01*
X131238995Y-104325456D01*
X131330700Y-104462703D01*
X131330701Y-105902840D01*
X131326706Y-105943400D01*
X131342645Y-106105226D01*
X131389847Y-106260833D01*
X131399116Y-106278173D01*
X131301463Y-106375826D01*
X131188195Y-106545344D01*
X131110174Y-106733702D01*
X131070400Y-106933661D01*
X131070400Y-107137539D01*
X131110174Y-107337498D01*
X131188195Y-107525856D01*
X131279901Y-107663104D01*
X131279900Y-109077849D01*
X131275906Y-109118400D01*
X131279900Y-109158950D01*
X131279900Y-109158952D01*
X131291844Y-109280225D01*
X131314181Y-109353859D01*
X131339047Y-109435833D01*
X131383706Y-109519383D01*
X131301463Y-109601626D01*
X131188195Y-109771144D01*
X131110174Y-109959502D01*
X131101500Y-110003109D01*
X131101500Y-109517790D01*
X130979486Y-108904387D01*
X130740148Y-108326574D01*
X130392683Y-107806556D01*
X129950444Y-107364317D01*
X129430426Y-107016852D01*
X128852613Y-106777514D01*
X128239210Y-106655500D01*
X127613790Y-106655500D01*
X127000387Y-106777514D01*
X126422574Y-107016852D01*
X125902556Y-107364317D01*
X125460317Y-107806556D01*
X125112852Y-108326574D01*
X124873514Y-108904387D01*
X124751500Y-109517790D01*
X124751500Y-110143210D01*
X124873514Y-110756613D01*
X125112852Y-111334426D01*
X125460317Y-111854444D01*
X125902556Y-112296683D01*
X126422574Y-112644148D01*
X127000387Y-112883486D01*
X127613790Y-113005500D01*
X128239210Y-113005500D01*
X128852613Y-112883486D01*
X129430426Y-112644148D01*
X129950444Y-112296683D01*
X130392683Y-111854444D01*
X130740148Y-111334426D01*
X130979486Y-110756613D01*
X131070400Y-110299560D01*
X131070400Y-110363339D01*
X131110174Y-110563298D01*
X131188195Y-110751656D01*
X131279901Y-110888904D01*
X131279900Y-112379849D01*
X131275906Y-112420400D01*
X131279900Y-112460950D01*
X131279900Y-112460952D01*
X131291844Y-112582225D01*
X131330185Y-112708619D01*
X131333417Y-112719272D01*
X131225263Y-112827426D01*
X131111995Y-112996944D01*
X131033974Y-113185302D01*
X130994200Y-113385261D01*
X130994200Y-113589139D01*
X131033974Y-113789098D01*
X131111995Y-113977456D01*
X131203700Y-114114703D01*
X131203701Y-115529440D01*
X131199706Y-115570000D01*
X131215645Y-115731826D01*
X131262847Y-115887433D01*
X131325201Y-116004088D01*
X131250663Y-116078626D01*
X131137395Y-116248144D01*
X131059374Y-116436502D01*
X131019600Y-116636461D01*
X131019600Y-116840339D01*
X131059374Y-117040298D01*
X131137395Y-117228656D01*
X131229101Y-117365904D01*
X131229100Y-118628249D01*
X131225106Y-118668800D01*
X131229100Y-118709350D01*
X131229100Y-118709352D01*
X131241044Y-118830625D01*
X131269532Y-118924538D01*
X131288247Y-118986233D01*
X131364901Y-119129642D01*
X131369294Y-119134995D01*
X131276063Y-119228226D01*
X131162795Y-119397744D01*
X131084774Y-119586102D01*
X131045000Y-119786061D01*
X131045000Y-119989939D01*
X131084774Y-120189898D01*
X131162795Y-120378256D01*
X131254501Y-120515504D01*
X131254500Y-121828649D01*
X131250506Y-121869200D01*
X131254500Y-121909750D01*
X131254500Y-121909752D01*
X131266444Y-122031025D01*
X131308301Y-122169010D01*
X131313647Y-122186633D01*
X131349458Y-122253631D01*
X131250663Y-122352426D01*
X131137395Y-122521944D01*
X131059374Y-122710302D01*
X131019600Y-122910261D01*
X131019600Y-123114139D01*
X131059374Y-123314098D01*
X131137395Y-123502456D01*
X131229101Y-123639704D01*
X131229100Y-138824666D01*
X129817267Y-140236501D01*
X125274934Y-140236501D01*
X125157228Y-140118795D01*
X125125026Y-139956902D01*
X125047005Y-139768544D01*
X124933737Y-139599026D01*
X124789574Y-139454863D01*
X124620056Y-139341595D01*
X124431698Y-139263574D01*
X124231739Y-139223800D01*
X124027861Y-139223800D01*
X123827902Y-139263574D01*
X123639544Y-139341595D01*
X123470026Y-139454863D01*
X123325863Y-139599026D01*
X123212595Y-139768544D01*
X123134574Y-139956902D01*
X123094800Y-140156861D01*
X123094800Y-140360739D01*
X123134574Y-140560698D01*
X123212595Y-140749056D01*
X123264748Y-140827109D01*
X117966143Y-140827109D01*
X117283228Y-140144196D01*
X117251026Y-139982302D01*
X117173005Y-139793944D01*
X117059737Y-139624426D01*
X116915574Y-139480263D01*
X116746056Y-139366995D01*
X116557698Y-139288974D01*
X116357739Y-139249200D01*
X116153861Y-139249200D01*
X115953902Y-139288974D01*
X115765544Y-139366995D01*
X115596026Y-139480263D01*
X115451863Y-139624426D01*
X115338595Y-139793944D01*
X115260574Y-139982302D01*
X115220800Y-140182261D01*
X115220800Y-140386139D01*
X115260574Y-140586098D01*
X115338595Y-140774456D01*
X115451863Y-140943974D01*
X115596026Y-141088137D01*
X115765544Y-141201405D01*
X115953902Y-141279426D01*
X116115796Y-141311628D01*
X116218667Y-141414500D01*
X110704934Y-141414500D01*
X109434628Y-140144196D01*
X109402426Y-139982302D01*
X109324405Y-139793944D01*
X109211137Y-139624426D01*
X109066974Y-139480263D01*
X108897456Y-139366995D01*
X108709098Y-139288974D01*
X108509139Y-139249200D01*
X108305261Y-139249200D01*
X108105302Y-139288974D01*
X107916944Y-139366995D01*
X107747426Y-139480263D01*
X107603263Y-139624426D01*
X107489995Y-139793944D01*
X107411974Y-139982302D01*
X107372200Y-140182261D01*
X107372200Y-140386139D01*
X107411974Y-140586098D01*
X107489995Y-140774456D01*
X107603263Y-140943974D01*
X107747426Y-141088137D01*
X107916944Y-141201405D01*
X108105302Y-141279426D01*
X108267196Y-141311628D01*
X108951077Y-141995510D01*
X103437343Y-141995510D01*
X101560629Y-140118796D01*
X101528426Y-139956902D01*
X101450405Y-139768544D01*
X101337137Y-139599026D01*
X101192974Y-139454863D01*
X101023456Y-139341595D01*
X100835098Y-139263574D01*
X100635139Y-139223800D01*
X100431261Y-139223800D01*
X100231302Y-139263574D01*
X100042944Y-139341595D01*
X99873426Y-139454863D01*
X99729263Y-139599026D01*
X99615995Y-139768544D01*
X99537974Y-139956902D01*
X99498200Y-140156861D01*
X99498200Y-140360739D01*
X99537974Y-140560698D01*
X99615995Y-140749056D01*
X99729263Y-140918574D01*
X99873426Y-141062737D01*
X100042944Y-141176005D01*
X100231302Y-141254026D01*
X100393196Y-141286229D01*
X101683487Y-142576520D01*
X96042753Y-142576520D01*
X94541595Y-141075363D01*
X94541591Y-141075358D01*
X93585028Y-140118796D01*
X93552826Y-139956902D01*
X93474805Y-139768544D01*
X93361537Y-139599026D01*
X93217374Y-139454863D01*
X93047856Y-139341595D01*
X92859498Y-139263574D01*
X92659539Y-139223800D01*
X92455661Y-139223800D01*
X92255702Y-139263574D01*
X92067344Y-139341595D01*
X91897826Y-139454863D01*
X91753663Y-139599026D01*
X91640395Y-139768544D01*
X91562374Y-139956902D01*
X91522600Y-140156861D01*
X91522600Y-140360739D01*
X91562374Y-140560698D01*
X91640395Y-140749056D01*
X91753663Y-140918574D01*
X91897826Y-141062737D01*
X92067344Y-141176005D01*
X92255702Y-141254026D01*
X92417596Y-141286228D01*
X93374158Y-142242791D01*
X93374163Y-142242795D01*
X94288896Y-143157529D01*
X88470361Y-143157528D01*
X86896201Y-141583369D01*
X86896192Y-141583358D01*
X85507828Y-140194996D01*
X85475626Y-140033102D01*
X85397605Y-139844744D01*
X85284337Y-139675226D01*
X85140174Y-139531063D01*
X84970656Y-139417795D01*
X84782298Y-139339774D01*
X84582339Y-139300000D01*
X84378461Y-139300000D01*
X84178502Y-139339774D01*
X83990144Y-139417795D01*
X83820626Y-139531063D01*
X83676463Y-139675226D01*
X83563195Y-139844744D01*
X83485174Y-140033102D01*
X83445400Y-140233061D01*
X83445400Y-140436939D01*
X83485174Y-140636898D01*
X83563195Y-140825256D01*
X83676463Y-140994774D01*
X83820626Y-141138937D01*
X83990144Y-141252205D01*
X84178502Y-141330226D01*
X84340396Y-141362428D01*
X85728758Y-142750792D01*
X85728769Y-142750801D01*
X86729267Y-143751300D01*
X74687733Y-143751300D01*
X71376791Y-140440358D01*
X71042528Y-140106096D01*
X71010326Y-139944202D01*
X70932305Y-139755844D01*
X70819037Y-139586326D01*
X70674874Y-139442163D01*
X70505356Y-139328895D01*
X70316998Y-139250874D01*
X70117039Y-139211100D01*
X69913161Y-139211100D01*
X69713202Y-139250874D01*
X69524844Y-139328895D01*
X69355326Y-139442163D01*
X69211163Y-139586326D01*
X69097895Y-139755844D01*
X69019874Y-139944202D01*
X68980100Y-140144161D01*
X68980100Y-140348039D01*
X69019874Y-140547998D01*
X69097895Y-140736356D01*
X69211163Y-140905874D01*
X69355326Y-141050037D01*
X69524844Y-141163305D01*
X69713202Y-141241326D01*
X69875096Y-141273528D01*
X70209358Y-141607791D01*
X72933877Y-144332310D01*
X72627143Y-144332310D01*
X67308729Y-139013896D01*
X67276526Y-138852002D01*
X67198505Y-138663644D01*
X67085237Y-138494126D01*
X66941074Y-138349963D01*
X66771556Y-138236695D01*
X66583198Y-138158674D01*
X66383239Y-138118900D01*
X66179361Y-138118900D01*
X65979402Y-138158674D01*
X65791044Y-138236695D01*
X65621526Y-138349963D01*
X65477363Y-138494126D01*
X65364095Y-138663644D01*
X65286074Y-138852002D01*
X65246300Y-139051961D01*
X42620000Y-139051961D01*
X42620000Y-126786652D01*
X51475486Y-126786652D01*
X51479480Y-126827202D01*
X51479480Y-126827204D01*
X51491424Y-126948477D01*
X51509126Y-127006832D01*
X51538627Y-127104085D01*
X51615281Y-127247494D01*
X51653252Y-127293761D01*
X51718439Y-127373192D01*
X51749940Y-127399044D01*
X51884585Y-127533689D01*
X51927959Y-127586541D01*
X51959466Y-127612398D01*
X52832000Y-128484933D01*
X52832000Y-128546950D01*
X52828006Y-128587500D01*
X52832000Y-128628050D01*
X52832000Y-128628052D01*
X52843944Y-128749325D01*
X52867345Y-128826467D01*
X52891147Y-128904933D01*
X52967801Y-129048342D01*
X52996700Y-129083555D01*
X53070959Y-129174041D01*
X53102466Y-129199898D01*
X53475000Y-129572432D01*
X53475000Y-129651788D01*
X53518617Y-129871067D01*
X53604176Y-130077624D01*
X53728388Y-130263520D01*
X53886480Y-130421612D01*
X54072376Y-130545824D01*
X54278933Y-130631383D01*
X54498212Y-130675000D01*
X54721788Y-130675000D01*
X54941067Y-130631383D01*
X55147624Y-130545824D01*
X55245000Y-130480759D01*
X55342376Y-130545824D01*
X55548933Y-130631383D01*
X55768212Y-130675000D01*
X55991788Y-130675000D01*
X56211067Y-130631383D01*
X56417624Y-130545824D01*
X56603520Y-130421612D01*
X56761612Y-130263520D01*
X56885824Y-130077624D01*
X56971383Y-129871067D01*
X57015000Y-129651788D01*
X57015000Y-129572433D01*
X57514546Y-129072888D01*
X57546041Y-129047041D01*
X57571889Y-129015545D01*
X57571892Y-129015542D01*
X57649199Y-128921343D01*
X57725853Y-128777934D01*
X57757834Y-128672505D01*
X57773056Y-128622326D01*
X57785000Y-128501053D01*
X57785000Y-128501051D01*
X57788994Y-128460500D01*
X57785000Y-128419950D01*
X57785000Y-128402046D01*
X58086040Y-128101007D01*
X58117541Y-128075155D01*
X58194670Y-127981173D01*
X58220699Y-127949457D01*
X58297353Y-127806048D01*
X58309394Y-127766353D01*
X58344556Y-127650440D01*
X58356500Y-127529167D01*
X58356500Y-127529165D01*
X58360494Y-127488615D01*
X58356500Y-127448064D01*
X58356500Y-127334276D01*
X58676560Y-127014217D01*
X58708061Y-126988365D01*
X58811219Y-126862666D01*
X58887873Y-126719258D01*
X58935076Y-126563650D01*
X58947020Y-126442377D01*
X58947020Y-126442368D01*
X58951013Y-126401825D01*
X58947020Y-126361282D01*
X58947020Y-126303084D01*
X67166546Y-118083560D01*
X67198041Y-118057713D01*
X67223889Y-118026217D01*
X67223892Y-118026214D01*
X67301199Y-117932015D01*
X67377853Y-117788606D01*
X67386975Y-117758534D01*
X67425056Y-117632998D01*
X67437000Y-117511725D01*
X67437000Y-117511723D01*
X67440994Y-117471172D01*
X67437000Y-117430622D01*
X67437000Y-117417790D01*
X69570000Y-117417790D01*
X69570000Y-118043210D01*
X69692014Y-118656613D01*
X69931352Y-119234426D01*
X70278817Y-119754444D01*
X70721056Y-120196683D01*
X71241074Y-120544148D01*
X71818887Y-120783486D01*
X72432290Y-120905500D01*
X73057710Y-120905500D01*
X73671113Y-120783486D01*
X74248926Y-120544148D01*
X74768944Y-120196683D01*
X75211183Y-119754444D01*
X75558648Y-119234426D01*
X75797986Y-118656613D01*
X75920000Y-118043210D01*
X75920000Y-117417790D01*
X77444000Y-117417790D01*
X77444000Y-118043210D01*
X77566014Y-118656613D01*
X77805352Y-119234426D01*
X78152817Y-119754444D01*
X78595056Y-120196683D01*
X79115074Y-120544148D01*
X79692887Y-120783486D01*
X80306290Y-120905500D01*
X80931710Y-120905500D01*
X81545113Y-120783486D01*
X82122926Y-120544148D01*
X82642944Y-120196683D01*
X83085183Y-119754444D01*
X83432648Y-119234426D01*
X83671986Y-118656613D01*
X83794000Y-118043210D01*
X83794000Y-117417790D01*
X85381500Y-117417790D01*
X85381500Y-118043210D01*
X85503514Y-118656613D01*
X85742852Y-119234426D01*
X86090317Y-119754444D01*
X86532556Y-120196683D01*
X87052574Y-120544148D01*
X87630387Y-120783486D01*
X88243790Y-120905500D01*
X88869210Y-120905500D01*
X89482613Y-120783486D01*
X90060426Y-120544148D01*
X90580444Y-120196683D01*
X91022683Y-119754444D01*
X91370148Y-119234426D01*
X91609486Y-118656613D01*
X91731500Y-118043210D01*
X91731500Y-117417790D01*
X93255500Y-117417790D01*
X93255500Y-118043210D01*
X93377514Y-118656613D01*
X93616852Y-119234426D01*
X93964317Y-119754444D01*
X94406556Y-120196683D01*
X94926574Y-120544148D01*
X95504387Y-120783486D01*
X96117790Y-120905500D01*
X96743210Y-120905500D01*
X97356613Y-120783486D01*
X97934426Y-120544148D01*
X98454444Y-120196683D01*
X98896683Y-119754444D01*
X99244148Y-119234426D01*
X99483486Y-118656613D01*
X99605500Y-118043210D01*
X99605500Y-117417790D01*
X101129500Y-117417790D01*
X101129500Y-118043210D01*
X101251514Y-118656613D01*
X101490852Y-119234426D01*
X101838317Y-119754444D01*
X102280556Y-120196683D01*
X102800574Y-120544148D01*
X103378387Y-120783486D01*
X103991790Y-120905500D01*
X104617210Y-120905500D01*
X105230613Y-120783486D01*
X105808426Y-120544148D01*
X106328444Y-120196683D01*
X106770683Y-119754444D01*
X107118148Y-119234426D01*
X107357486Y-118656613D01*
X107479500Y-118043210D01*
X107479500Y-117417790D01*
X109003500Y-117417790D01*
X109003500Y-118043210D01*
X109125514Y-118656613D01*
X109364852Y-119234426D01*
X109712317Y-119754444D01*
X110154556Y-120196683D01*
X110674574Y-120544148D01*
X111252387Y-120783486D01*
X111865790Y-120905500D01*
X112491210Y-120905500D01*
X113104613Y-120783486D01*
X113682426Y-120544148D01*
X114202444Y-120196683D01*
X114644683Y-119754444D01*
X114992148Y-119234426D01*
X115231486Y-118656613D01*
X115353500Y-118043210D01*
X115353500Y-117417790D01*
X116877500Y-117417790D01*
X116877500Y-118043210D01*
X116999514Y-118656613D01*
X117238852Y-119234426D01*
X117586317Y-119754444D01*
X118028556Y-120196683D01*
X118548574Y-120544148D01*
X119126387Y-120783486D01*
X119739790Y-120905500D01*
X120365210Y-120905500D01*
X120978613Y-120783486D01*
X121556426Y-120544148D01*
X122076444Y-120196683D01*
X122518683Y-119754444D01*
X122866148Y-119234426D01*
X123105486Y-118656613D01*
X123227500Y-118043210D01*
X123227500Y-117417790D01*
X124751500Y-117417790D01*
X124751500Y-118043210D01*
X124873514Y-118656613D01*
X125112852Y-119234426D01*
X125460317Y-119754444D01*
X125902556Y-120196683D01*
X126422574Y-120544148D01*
X127000387Y-120783486D01*
X127613790Y-120905500D01*
X128239210Y-120905500D01*
X128852613Y-120783486D01*
X129430426Y-120544148D01*
X129950444Y-120196683D01*
X130392683Y-119754444D01*
X130740148Y-119234426D01*
X130979486Y-118656613D01*
X131101500Y-118043210D01*
X131101500Y-117417790D01*
X130979486Y-116804387D01*
X130740148Y-116226574D01*
X130392683Y-115706556D01*
X129950444Y-115264317D01*
X129430426Y-114916852D01*
X128852613Y-114677514D01*
X128239210Y-114555500D01*
X127613790Y-114555500D01*
X127000387Y-114677514D01*
X126422574Y-114916852D01*
X125902556Y-115264317D01*
X125460317Y-115706556D01*
X125112852Y-116226574D01*
X124873514Y-116804387D01*
X124751500Y-117417790D01*
X123227500Y-117417790D01*
X123105486Y-116804387D01*
X122866148Y-116226574D01*
X122518683Y-115706556D01*
X122076444Y-115264317D01*
X121556426Y-114916852D01*
X120978613Y-114677514D01*
X120365210Y-114555500D01*
X119739790Y-114555500D01*
X119126387Y-114677514D01*
X118548574Y-114916852D01*
X118028556Y-115264317D01*
X117586317Y-115706556D01*
X117238852Y-116226574D01*
X116999514Y-116804387D01*
X116877500Y-117417790D01*
X115353500Y-117417790D01*
X115231486Y-116804387D01*
X114992148Y-116226574D01*
X114644683Y-115706556D01*
X114202444Y-115264317D01*
X113682426Y-114916852D01*
X113104613Y-114677514D01*
X112491210Y-114555500D01*
X111865790Y-114555500D01*
X111252387Y-114677514D01*
X110674574Y-114916852D01*
X110154556Y-115264317D01*
X109712317Y-115706556D01*
X109364852Y-116226574D01*
X109125514Y-116804387D01*
X109003500Y-117417790D01*
X107479500Y-117417790D01*
X107357486Y-116804387D01*
X107118148Y-116226574D01*
X106770683Y-115706556D01*
X106328444Y-115264317D01*
X105808426Y-114916852D01*
X105230613Y-114677514D01*
X104617210Y-114555500D01*
X103991790Y-114555500D01*
X103378387Y-114677514D01*
X102800574Y-114916852D01*
X102280556Y-115264317D01*
X101838317Y-115706556D01*
X101490852Y-116226574D01*
X101251514Y-116804387D01*
X101129500Y-117417790D01*
X99605500Y-117417790D01*
X99483486Y-116804387D01*
X99244148Y-116226574D01*
X98896683Y-115706556D01*
X98454444Y-115264317D01*
X97934426Y-114916852D01*
X97356613Y-114677514D01*
X96743210Y-114555500D01*
X96117790Y-114555500D01*
X95504387Y-114677514D01*
X94926574Y-114916852D01*
X94406556Y-115264317D01*
X93964317Y-115706556D01*
X93616852Y-116226574D01*
X93377514Y-116804387D01*
X93255500Y-117417790D01*
X91731500Y-117417790D01*
X91609486Y-116804387D01*
X91370148Y-116226574D01*
X91022683Y-115706556D01*
X90580444Y-115264317D01*
X90060426Y-114916852D01*
X89482613Y-114677514D01*
X88869210Y-114555500D01*
X88243790Y-114555500D01*
X87630387Y-114677514D01*
X87052574Y-114916852D01*
X86532556Y-115264317D01*
X86090317Y-115706556D01*
X85742852Y-116226574D01*
X85503514Y-116804387D01*
X85381500Y-117417790D01*
X83794000Y-117417790D01*
X83671986Y-116804387D01*
X83432648Y-116226574D01*
X83085183Y-115706556D01*
X82642944Y-115264317D01*
X82122926Y-114916852D01*
X81545113Y-114677514D01*
X80931710Y-114555500D01*
X80306290Y-114555500D01*
X79692887Y-114677514D01*
X79115074Y-114916852D01*
X78595056Y-115264317D01*
X78152817Y-115706556D01*
X77805352Y-116226574D01*
X77566014Y-116804387D01*
X77444000Y-117417790D01*
X75920000Y-117417790D01*
X75797986Y-116804387D01*
X75558648Y-116226574D01*
X75211183Y-115706556D01*
X74768944Y-115264317D01*
X74248926Y-114916852D01*
X73671113Y-114677514D01*
X73057710Y-114555500D01*
X72432290Y-114555500D01*
X71818887Y-114677514D01*
X71241074Y-114916852D01*
X70721056Y-115264317D01*
X70278817Y-115706556D01*
X69931352Y-116226574D01*
X69692014Y-116804387D01*
X69570000Y-117417790D01*
X67437000Y-117417790D01*
X67437000Y-109517790D01*
X69570000Y-109517790D01*
X69570000Y-110143210D01*
X69692014Y-110756613D01*
X69931352Y-111334426D01*
X70278817Y-111854444D01*
X70721056Y-112296683D01*
X71241074Y-112644148D01*
X71818887Y-112883486D01*
X72432290Y-113005500D01*
X73057710Y-113005500D01*
X73671113Y-112883486D01*
X74248926Y-112644148D01*
X74768944Y-112296683D01*
X75211183Y-111854444D01*
X75558648Y-111334426D01*
X75797986Y-110756613D01*
X75920000Y-110143210D01*
X75920000Y-109517790D01*
X77444000Y-109517790D01*
X77444000Y-110143210D01*
X77566014Y-110756613D01*
X77805352Y-111334426D01*
X78152817Y-111854444D01*
X78595056Y-112296683D01*
X79115074Y-112644148D01*
X79692887Y-112883486D01*
X80306290Y-113005500D01*
X80931710Y-113005500D01*
X81545113Y-112883486D01*
X82122926Y-112644148D01*
X82642944Y-112296683D01*
X83085183Y-111854444D01*
X83432648Y-111334426D01*
X83671986Y-110756613D01*
X83794000Y-110143210D01*
X83794000Y-109517790D01*
X85381500Y-109517790D01*
X85381500Y-110143210D01*
X85503514Y-110756613D01*
X85742852Y-111334426D01*
X86090317Y-111854444D01*
X86532556Y-112296683D01*
X87052574Y-112644148D01*
X87630387Y-112883486D01*
X88243790Y-113005500D01*
X88869210Y-113005500D01*
X89482613Y-112883486D01*
X90060426Y-112644148D01*
X90580444Y-112296683D01*
X91022683Y-111854444D01*
X91370148Y-111334426D01*
X91609486Y-110756613D01*
X91731500Y-110143210D01*
X91731500Y-109517790D01*
X93255500Y-109517790D01*
X93255500Y-110143210D01*
X93377514Y-110756613D01*
X93616852Y-111334426D01*
X93964317Y-111854444D01*
X94406556Y-112296683D01*
X94926574Y-112644148D01*
X95504387Y-112883486D01*
X96117790Y-113005500D01*
X96743210Y-113005500D01*
X97356613Y-112883486D01*
X97934426Y-112644148D01*
X98454444Y-112296683D01*
X98896683Y-111854444D01*
X99244148Y-111334426D01*
X99483486Y-110756613D01*
X99605500Y-110143210D01*
X99605500Y-109517790D01*
X101129500Y-109517790D01*
X101129500Y-110143210D01*
X101251514Y-110756613D01*
X101490852Y-111334426D01*
X101838317Y-111854444D01*
X102280556Y-112296683D01*
X102800574Y-112644148D01*
X103378387Y-112883486D01*
X103991790Y-113005500D01*
X104617210Y-113005500D01*
X105230613Y-112883486D01*
X105808426Y-112644148D01*
X106328444Y-112296683D01*
X106770683Y-111854444D01*
X107118148Y-111334426D01*
X107357486Y-110756613D01*
X107479500Y-110143210D01*
X107479500Y-109517790D01*
X109003500Y-109517790D01*
X109003500Y-110143210D01*
X109125514Y-110756613D01*
X109364852Y-111334426D01*
X109712317Y-111854444D01*
X110154556Y-112296683D01*
X110674574Y-112644148D01*
X111252387Y-112883486D01*
X111865790Y-113005500D01*
X112491210Y-113005500D01*
X113104613Y-112883486D01*
X113682426Y-112644148D01*
X114202444Y-112296683D01*
X114644683Y-111854444D01*
X114992148Y-111334426D01*
X115231486Y-110756613D01*
X115353500Y-110143210D01*
X115353500Y-109517790D01*
X116877500Y-109517790D01*
X116877500Y-110143210D01*
X116999514Y-110756613D01*
X117238852Y-111334426D01*
X117586317Y-111854444D01*
X118028556Y-112296683D01*
X118548574Y-112644148D01*
X119126387Y-112883486D01*
X119739790Y-113005500D01*
X120365210Y-113005500D01*
X120978613Y-112883486D01*
X121556426Y-112644148D01*
X122076444Y-112296683D01*
X122518683Y-111854444D01*
X122866148Y-111334426D01*
X123105486Y-110756613D01*
X123227500Y-110143210D01*
X123227500Y-109517790D01*
X123105486Y-108904387D01*
X122866148Y-108326574D01*
X122518683Y-107806556D01*
X122076444Y-107364317D01*
X121556426Y-107016852D01*
X120978613Y-106777514D01*
X120365210Y-106655500D01*
X119739790Y-106655500D01*
X119126387Y-106777514D01*
X118548574Y-107016852D01*
X118028556Y-107364317D01*
X117586317Y-107806556D01*
X117238852Y-108326574D01*
X116999514Y-108904387D01*
X116877500Y-109517790D01*
X115353500Y-109517790D01*
X115231486Y-108904387D01*
X114992148Y-108326574D01*
X114644683Y-107806556D01*
X114202444Y-107364317D01*
X113682426Y-107016852D01*
X113104613Y-106777514D01*
X112491210Y-106655500D01*
X111865790Y-106655500D01*
X111252387Y-106777514D01*
X110674574Y-107016852D01*
X110154556Y-107364317D01*
X109712317Y-107806556D01*
X109364852Y-108326574D01*
X109125514Y-108904387D01*
X109003500Y-109517790D01*
X107479500Y-109517790D01*
X107357486Y-108904387D01*
X107118148Y-108326574D01*
X106770683Y-107806556D01*
X106328444Y-107364317D01*
X105808426Y-107016852D01*
X105230613Y-106777514D01*
X104617210Y-106655500D01*
X103991790Y-106655500D01*
X103378387Y-106777514D01*
X102800574Y-107016852D01*
X102280556Y-107364317D01*
X101838317Y-107806556D01*
X101490852Y-108326574D01*
X101251514Y-108904387D01*
X101129500Y-109517790D01*
X99605500Y-109517790D01*
X99483486Y-108904387D01*
X99244148Y-108326574D01*
X98896683Y-107806556D01*
X98454444Y-107364317D01*
X97934426Y-107016852D01*
X97356613Y-106777514D01*
X96743210Y-106655500D01*
X96117790Y-106655500D01*
X95504387Y-106777514D01*
X94926574Y-107016852D01*
X94406556Y-107364317D01*
X93964317Y-107806556D01*
X93616852Y-108326574D01*
X93377514Y-108904387D01*
X93255500Y-109517790D01*
X91731500Y-109517790D01*
X91609486Y-108904387D01*
X91370148Y-108326574D01*
X91022683Y-107806556D01*
X90580444Y-107364317D01*
X90060426Y-107016852D01*
X89482613Y-106777514D01*
X88869210Y-106655500D01*
X88243790Y-106655500D01*
X87630387Y-106777514D01*
X87052574Y-107016852D01*
X86532556Y-107364317D01*
X86090317Y-107806556D01*
X85742852Y-108326574D01*
X85503514Y-108904387D01*
X85381500Y-109517790D01*
X83794000Y-109517790D01*
X83671986Y-108904387D01*
X83432648Y-108326574D01*
X83085183Y-107806556D01*
X82642944Y-107364317D01*
X82122926Y-107016852D01*
X81545113Y-106777514D01*
X80931710Y-106655500D01*
X80306290Y-106655500D01*
X79692887Y-106777514D01*
X79115074Y-107016852D01*
X78595056Y-107364317D01*
X78152817Y-107806556D01*
X77805352Y-108326574D01*
X77566014Y-108904387D01*
X77444000Y-109517790D01*
X75920000Y-109517790D01*
X75797986Y-108904387D01*
X75558648Y-108326574D01*
X75211183Y-107806556D01*
X74768944Y-107364317D01*
X74248926Y-107016852D01*
X73671113Y-106777514D01*
X73057710Y-106655500D01*
X72432290Y-106655500D01*
X71818887Y-106777514D01*
X71241074Y-107016852D01*
X70721056Y-107364317D01*
X70278817Y-107806556D01*
X69931352Y-108326574D01*
X69692014Y-108904387D01*
X69570000Y-109517790D01*
X67437000Y-109517790D01*
X67437000Y-101592503D01*
X67528705Y-101455256D01*
X67606726Y-101266898D01*
X67646500Y-101066939D01*
X67646500Y-100863061D01*
X67606726Y-100663102D01*
X67528705Y-100474744D01*
X67415437Y-100305226D01*
X67271274Y-100161063D01*
X67101756Y-100047795D01*
X66913398Y-99969774D01*
X66865500Y-99960247D01*
X66865500Y-98354003D01*
X66957205Y-98216756D01*
X67035226Y-98028398D01*
X67075000Y-97828439D01*
X67075000Y-97624561D01*
X67035226Y-97424602D01*
X66957205Y-97236244D01*
X66843937Y-97066726D01*
X66699774Y-96922563D01*
X66530256Y-96809295D01*
X66341898Y-96731274D01*
X66294000Y-96721747D01*
X66294000Y-95179003D01*
X66385705Y-95041756D01*
X66463726Y-94853398D01*
X66503500Y-94653439D01*
X66503500Y-94449561D01*
X66463726Y-94249602D01*
X66385705Y-94061244D01*
X66272437Y-93891726D01*
X66128274Y-93747563D01*
X65958756Y-93634295D01*
X65770398Y-93556274D01*
X65712990Y-93544855D01*
X65712990Y-92077013D01*
X65804695Y-91939766D01*
X65882716Y-91751408D01*
X65922490Y-91551449D01*
X65922490Y-91347571D01*
X65882716Y-91147612D01*
X65804695Y-90959254D01*
X65691427Y-90789736D01*
X65547264Y-90645573D01*
X65377746Y-90532305D01*
X65189388Y-90454284D01*
X64989429Y-90414510D01*
X64922489Y-90414510D01*
X64922489Y-88549514D01*
X65014194Y-88412267D01*
X65092215Y-88223909D01*
X65131989Y-88023950D01*
X65131989Y-87820072D01*
X65092215Y-87620113D01*
X65014194Y-87431755D01*
X64900926Y-87262237D01*
X64756763Y-87118074D01*
X64587245Y-87004806D01*
X64398887Y-86926785D01*
X64325500Y-86912188D01*
X64325500Y-84033063D01*
X64417205Y-83895816D01*
X64495226Y-83707458D01*
X64535000Y-83507499D01*
X64535000Y-83303621D01*
X64495226Y-83103662D01*
X64417205Y-82915304D01*
X64303937Y-82745786D01*
X64159774Y-82601623D01*
X63990256Y-82488355D01*
X63801898Y-82410334D01*
X63754000Y-82400807D01*
X63754000Y-79524563D01*
X63845705Y-79387316D01*
X63923726Y-79198958D01*
X63963500Y-78998999D01*
X63963500Y-78795121D01*
X63923726Y-78595162D01*
X63845705Y-78406804D01*
X63732437Y-78237286D01*
X63588274Y-78093123D01*
X63418756Y-77979855D01*
X63230398Y-77901834D01*
X63182500Y-77892307D01*
X63182500Y-75016063D01*
X63274205Y-74878816D01*
X63352226Y-74690458D01*
X63392000Y-74490499D01*
X63392000Y-74286621D01*
X63352226Y-74086662D01*
X63274205Y-73898304D01*
X63160937Y-73728786D01*
X63016774Y-73584623D01*
X62847256Y-73471355D01*
X62658898Y-73393334D01*
X62458939Y-73353560D01*
X62255061Y-73353560D01*
X62055102Y-73393334D01*
X61866744Y-73471355D01*
X61697226Y-73584623D01*
X61553063Y-73728786D01*
X61439795Y-73898304D01*
X61361774Y-74086662D01*
X61322000Y-74286621D01*
X61322000Y-74490499D01*
X61361774Y-74690458D01*
X61439795Y-74878816D01*
X61531501Y-75016064D01*
X61531500Y-77952280D01*
X61525608Y-77959460D01*
X61448300Y-78053659D01*
X61371646Y-78197068D01*
X61368524Y-78207361D01*
X61324443Y-78352675D01*
X61314136Y-78457326D01*
X61308505Y-78514501D01*
X61312499Y-78555051D01*
X61312499Y-79235951D01*
X61308505Y-79276501D01*
X61312499Y-79317051D01*
X61312499Y-79317053D01*
X61324443Y-79438326D01*
X61371646Y-79593934D01*
X61448300Y-79737343D01*
X61482213Y-79778666D01*
X61521991Y-79827136D01*
X61521990Y-82223236D01*
X61516098Y-82230416D01*
X61438790Y-82324615D01*
X61362136Y-82468024D01*
X61314934Y-82623631D01*
X61298995Y-82785457D01*
X61302990Y-82826017D01*
X61302989Y-83985112D01*
X61298995Y-84025663D01*
X61302989Y-84066213D01*
X61302989Y-84066215D01*
X61314933Y-84187488D01*
X61355969Y-84322765D01*
X61362136Y-84343096D01*
X61438790Y-84486505D01*
X61472703Y-84527828D01*
X61512481Y-84576298D01*
X61512480Y-86489698D01*
X61454771Y-86560016D01*
X61378117Y-86703425D01*
X61330915Y-86859032D01*
X61314976Y-87020858D01*
X61318971Y-87061418D01*
X61318969Y-88742223D01*
X61314975Y-88782772D01*
X61318969Y-88823325D01*
X61318969Y-88823327D01*
X61330913Y-88944600D01*
X61378116Y-89100208D01*
X61394546Y-89130946D01*
X61454768Y-89243614D01*
X61509007Y-89309704D01*
X61528460Y-89333408D01*
X61528459Y-92510386D01*
X61524465Y-92550937D01*
X61528459Y-92591487D01*
X61528459Y-92591489D01*
X61540403Y-92712762D01*
X61581950Y-92849724D01*
X61587606Y-92868370D01*
X61595511Y-92883160D01*
X61581109Y-92910105D01*
X61533907Y-93065712D01*
X61517968Y-93227538D01*
X61521963Y-93268098D01*
X61521962Y-95846538D01*
X61517968Y-95887086D01*
X61521962Y-95927636D01*
X61521962Y-95927640D01*
X61530429Y-96013607D01*
X61518952Y-96130135D01*
X61514958Y-96170686D01*
X61518952Y-96211236D01*
X61518952Y-96686760D01*
X61508486Y-96793020D01*
X61512481Y-96833580D01*
X61512480Y-99010672D01*
X61505449Y-99082057D01*
X61509444Y-99122617D01*
X61509443Y-102799730D01*
X61505449Y-102840278D01*
X61509443Y-102880831D01*
X61509443Y-102880835D01*
X61521387Y-103002108D01*
X61547889Y-103089474D01*
X61567172Y-103153041D01*
X61568590Y-103157716D01*
X61585020Y-103188454D01*
X61645241Y-103301120D01*
X61645243Y-103301123D01*
X61645244Y-103301124D01*
X61718931Y-103390913D01*
X61718930Y-115436949D01*
X55103746Y-122052134D01*
X54989958Y-122052134D01*
X54949407Y-122048140D01*
X54908857Y-122052134D01*
X54908855Y-122052134D01*
X54787582Y-122064078D01*
X54631974Y-122111281D01*
X54488565Y-122187935D01*
X54463796Y-122208263D01*
X54362867Y-122291093D01*
X54337010Y-122322600D01*
X54060130Y-122599480D01*
X53470726Y-122599480D01*
X53430176Y-122595486D01*
X53389625Y-122599480D01*
X53389623Y-122599480D01*
X53268350Y-122611424D01*
X53130217Y-122653326D01*
X53112742Y-122658627D01*
X52969333Y-122735281D01*
X52875134Y-122812588D01*
X52875131Y-122812591D01*
X52843635Y-122838439D01*
X52817787Y-122869935D01*
X51749943Y-123937781D01*
X51718442Y-123963633D01*
X51682502Y-124007426D01*
X51615283Y-124089332D01*
X51538629Y-124232741D01*
X51491427Y-124388348D01*
X51475488Y-124550174D01*
X51479483Y-124590733D01*
X51479481Y-125930547D01*
X51479482Y-125930555D01*
X51479480Y-126746100D01*
X51475486Y-126786652D01*
X42620000Y-126786652D01*
X42620000Y-69475290D01*
X70268500Y-69475290D01*
X70268500Y-70100710D01*
X70390514Y-70714113D01*
X70629852Y-71291926D01*
X70977317Y-71811944D01*
X71419556Y-72254183D01*
X71939574Y-72601648D01*
X72517387Y-72840986D01*
X73130790Y-72963000D01*
X73756210Y-72963000D01*
X74369613Y-72840986D01*
X74947426Y-72601648D01*
X75467444Y-72254183D01*
X75909683Y-71811944D01*
X76257148Y-71291926D01*
X76496486Y-70714113D01*
X76618500Y-70100710D01*
X76618500Y-69475290D01*
X78142500Y-69475290D01*
X78142500Y-70100710D01*
X78264514Y-70714113D01*
X78503852Y-71291926D01*
X78851317Y-71811944D01*
X79293556Y-72254183D01*
X79813574Y-72601648D01*
X80391387Y-72840986D01*
X81004790Y-72963000D01*
X81630210Y-72963000D01*
X82243613Y-72840986D01*
X82821426Y-72601648D01*
X83341444Y-72254183D01*
X83783683Y-71811944D01*
X84131148Y-71291926D01*
X84370486Y-70714113D01*
X84492500Y-70100710D01*
X84492500Y-69475290D01*
X86016500Y-69475290D01*
X86016500Y-70100710D01*
X86138514Y-70714113D01*
X86377852Y-71291926D01*
X86725317Y-71811944D01*
X87167556Y-72254183D01*
X87687574Y-72601648D01*
X88265387Y-72840986D01*
X88878790Y-72963000D01*
X89504210Y-72963000D01*
X90117613Y-72840986D01*
X90695426Y-72601648D01*
X91215444Y-72254183D01*
X91657683Y-71811944D01*
X92005148Y-71291926D01*
X92244486Y-70714113D01*
X92366500Y-70100710D01*
X92366500Y-69475290D01*
X93954000Y-69475290D01*
X93954000Y-70100710D01*
X94076014Y-70714113D01*
X94315352Y-71291926D01*
X94662817Y-71811944D01*
X95105056Y-72254183D01*
X95625074Y-72601648D01*
X96202887Y-72840986D01*
X96816290Y-72963000D01*
X97441710Y-72963000D01*
X98055113Y-72840986D01*
X98632926Y-72601648D01*
X99152944Y-72254183D01*
X99595183Y-71811944D01*
X99942648Y-71291926D01*
X100181986Y-70714113D01*
X100304000Y-70100710D01*
X100304000Y-69475290D01*
X101828000Y-69475290D01*
X101828000Y-70100710D01*
X101950014Y-70714113D01*
X102189352Y-71291926D01*
X102536817Y-71811944D01*
X102979056Y-72254183D01*
X103499074Y-72601648D01*
X104076887Y-72840986D01*
X104690290Y-72963000D01*
X105315710Y-72963000D01*
X105929113Y-72840986D01*
X106506926Y-72601648D01*
X107026944Y-72254183D01*
X107469183Y-71811944D01*
X107816648Y-71291926D01*
X108055986Y-70714113D01*
X108178000Y-70100710D01*
X108178000Y-69475290D01*
X109702000Y-69475290D01*
X109702000Y-70100710D01*
X109824014Y-70714113D01*
X110063352Y-71291926D01*
X110410817Y-71811944D01*
X110853056Y-72254183D01*
X111373074Y-72601648D01*
X111950887Y-72840986D01*
X112564290Y-72963000D01*
X113189710Y-72963000D01*
X113803113Y-72840986D01*
X114380926Y-72601648D01*
X114900944Y-72254183D01*
X115343183Y-71811944D01*
X115690648Y-71291926D01*
X115929986Y-70714113D01*
X116052000Y-70100710D01*
X116052000Y-69475290D01*
X116051702Y-69473790D01*
X117602000Y-69473790D01*
X117602000Y-70099210D01*
X117724014Y-70712613D01*
X117963352Y-71290426D01*
X118310817Y-71810444D01*
X118753056Y-72252683D01*
X119273074Y-72600148D01*
X119850887Y-72839486D01*
X120464290Y-72961500D01*
X121089710Y-72961500D01*
X121703113Y-72839486D01*
X122280926Y-72600148D01*
X122800944Y-72252683D01*
X123243183Y-71810444D01*
X123590648Y-71290426D01*
X123829986Y-70712613D01*
X123952000Y-70099210D01*
X123952000Y-69473790D01*
X125476000Y-69473790D01*
X125476000Y-70099210D01*
X125598014Y-70712613D01*
X125837352Y-71290426D01*
X126184817Y-71810444D01*
X126627056Y-72252683D01*
X127147074Y-72600148D01*
X127724887Y-72839486D01*
X128338290Y-72961500D01*
X128963710Y-72961500D01*
X129577113Y-72839486D01*
X130154926Y-72600148D01*
X130674944Y-72252683D01*
X131117183Y-71810444D01*
X131464648Y-71290426D01*
X131703986Y-70712613D01*
X131826000Y-70099210D01*
X131826000Y-69473790D01*
X131703986Y-68860387D01*
X131464648Y-68282574D01*
X131117183Y-67762556D01*
X130674944Y-67320317D01*
X130154926Y-66972852D01*
X129577113Y-66733514D01*
X128963710Y-66611500D01*
X128338290Y-66611500D01*
X127724887Y-66733514D01*
X127147074Y-66972852D01*
X126627056Y-67320317D01*
X126184817Y-67762556D01*
X125837352Y-68282574D01*
X125598014Y-68860387D01*
X125476000Y-69473790D01*
X123952000Y-69473790D01*
X123829986Y-68860387D01*
X123590648Y-68282574D01*
X123243183Y-67762556D01*
X122800944Y-67320317D01*
X122280926Y-66972852D01*
X121703113Y-66733514D01*
X121089710Y-66611500D01*
X120464290Y-66611500D01*
X119850887Y-66733514D01*
X119273074Y-66972852D01*
X118753056Y-67320317D01*
X118310817Y-67762556D01*
X117963352Y-68282574D01*
X117724014Y-68860387D01*
X117602000Y-69473790D01*
X116051702Y-69473790D01*
X115929986Y-68861887D01*
X115690648Y-68284074D01*
X115343183Y-67764056D01*
X114900944Y-67321817D01*
X114380926Y-66974352D01*
X113803113Y-66735014D01*
X113189710Y-66613000D01*
X112564290Y-66613000D01*
X111950887Y-66735014D01*
X111373074Y-66974352D01*
X110853056Y-67321817D01*
X110410817Y-67764056D01*
X110063352Y-68284074D01*
X109824014Y-68861887D01*
X109702000Y-69475290D01*
X108178000Y-69475290D01*
X108055986Y-68861887D01*
X107816648Y-68284074D01*
X107469183Y-67764056D01*
X107026944Y-67321817D01*
X106506926Y-66974352D01*
X105929113Y-66735014D01*
X105315710Y-66613000D01*
X104690290Y-66613000D01*
X104076887Y-66735014D01*
X103499074Y-66974352D01*
X102979056Y-67321817D01*
X102536817Y-67764056D01*
X102189352Y-68284074D01*
X101950014Y-68861887D01*
X101828000Y-69475290D01*
X100304000Y-69475290D01*
X100181986Y-68861887D01*
X99942648Y-68284074D01*
X99595183Y-67764056D01*
X99152944Y-67321817D01*
X98632926Y-66974352D01*
X98055113Y-66735014D01*
X97441710Y-66613000D01*
X96816290Y-66613000D01*
X96202887Y-66735014D01*
X95625074Y-66974352D01*
X95105056Y-67321817D01*
X94662817Y-67764056D01*
X94315352Y-68284074D01*
X94076014Y-68861887D01*
X93954000Y-69475290D01*
X92366500Y-69475290D01*
X92244486Y-68861887D01*
X92005148Y-68284074D01*
X91657683Y-67764056D01*
X91215444Y-67321817D01*
X90695426Y-66974352D01*
X90117613Y-66735014D01*
X89504210Y-66613000D01*
X88878790Y-66613000D01*
X88265387Y-66735014D01*
X87687574Y-66974352D01*
X87167556Y-67321817D01*
X86725317Y-67764056D01*
X86377852Y-68284074D01*
X86138514Y-68861887D01*
X86016500Y-69475290D01*
X84492500Y-69475290D01*
X84370486Y-68861887D01*
X84131148Y-68284074D01*
X83783683Y-67764056D01*
X83341444Y-67321817D01*
X82821426Y-66974352D01*
X82243613Y-66735014D01*
X81630210Y-66613000D01*
X81004790Y-66613000D01*
X80391387Y-66735014D01*
X79813574Y-66974352D01*
X79293556Y-67321817D01*
X78851317Y-67764056D01*
X78503852Y-68284074D01*
X78264514Y-68861887D01*
X78142500Y-69475290D01*
X76618500Y-69475290D01*
X76496486Y-68861887D01*
X76257148Y-68284074D01*
X75909683Y-67764056D01*
X75467444Y-67321817D01*
X74947426Y-66974352D01*
X74369613Y-66735014D01*
X73756210Y-66613000D01*
X73130790Y-66613000D01*
X72517387Y-66735014D01*
X71939574Y-66974352D01*
X71419556Y-67321817D01*
X70977317Y-67764056D01*
X70629852Y-68284074D01*
X70390514Y-68861887D01*
X70268500Y-69475290D01*
X42620000Y-69475290D01*
X42620000Y-58081290D01*
X59348000Y-58081290D01*
X59348000Y-58706710D01*
X59470014Y-59320113D01*
X59709352Y-59897926D01*
X60056817Y-60417944D01*
X60499056Y-60860183D01*
X60846408Y-61092276D01*
X63722104Y-63967974D01*
X63818981Y-64086019D01*
X64290028Y-64472597D01*
X64827441Y-64759850D01*
X65410568Y-64936740D01*
X65865026Y-64981500D01*
X65865028Y-64981500D01*
X66016999Y-64996468D01*
X66168970Y-64981500D01*
X72721064Y-64981500D01*
X73130790Y-65063000D01*
X73756210Y-65063000D01*
X74165936Y-64981500D01*
X80595064Y-64981500D01*
X81004790Y-65063000D01*
X81630210Y-65063000D01*
X82039936Y-64981500D01*
X88469064Y-64981500D01*
X88878790Y-65063000D01*
X89504210Y-65063000D01*
X89913936Y-64981500D01*
X96406564Y-64981500D01*
X96816290Y-65063000D01*
X97441710Y-65063000D01*
X97851436Y-64981500D01*
X104280564Y-64981500D01*
X104690290Y-65063000D01*
X105315710Y-65063000D01*
X105725436Y-64981500D01*
X112154564Y-64981500D01*
X112564290Y-65063000D01*
X113189710Y-65063000D01*
X113599436Y-64981500D01*
X120062105Y-64981500D01*
X120464290Y-65061500D01*
X121089710Y-65061500D01*
X121491895Y-64981500D01*
X127936105Y-64981500D01*
X128338290Y-65061500D01*
X128963710Y-65061500D01*
X129373436Y-64980000D01*
X129502632Y-64980000D01*
X132669500Y-68146870D01*
X132669501Y-85269130D01*
X130227132Y-87711500D01*
X71031526Y-87711500D01*
X70577068Y-87756260D01*
X69993941Y-87933150D01*
X69456528Y-88220403D01*
X68985481Y-88606981D01*
X68598903Y-89078028D01*
X68311650Y-89615441D01*
X68134760Y-90198568D01*
X68075032Y-90805000D01*
X68134760Y-91411432D01*
X68311650Y-91994559D01*
X68598903Y-92531972D01*
X68985481Y-93003019D01*
X69456528Y-93389597D01*
X69993941Y-93676850D01*
X70577068Y-93853740D01*
X71031526Y-93898500D01*
X131356529Y-93898500D01*
X131508500Y-93913468D01*
X131660471Y-93898500D01*
X131660474Y-93898500D01*
X132114932Y-93853740D01*
X132698059Y-93676850D01*
X133235472Y-93389597D01*
X133706519Y-93003019D01*
X133803405Y-92884963D01*
X137842968Y-88845401D01*
X137961019Y-88748519D01*
X138134818Y-88536744D01*
X138347597Y-88277473D01*
X138634850Y-87740060D01*
X138757581Y-87335470D01*
X138811740Y-87156931D01*
X138856500Y-86702473D01*
X138856500Y-86702471D01*
X138871468Y-86550500D01*
X138856500Y-86398529D01*
X138856500Y-67017470D01*
X138871468Y-66865499D01*
X138846451Y-66611500D01*
X138811740Y-66259068D01*
X138634850Y-65675941D01*
X138347597Y-65138528D01*
X137961019Y-64667481D01*
X137842975Y-64570605D01*
X133078905Y-59806536D01*
X132982019Y-59688481D01*
X132510972Y-59301903D01*
X131973559Y-59014650D01*
X131390432Y-58837760D01*
X130935974Y-58793000D01*
X130935971Y-58793000D01*
X130784000Y-58778032D01*
X130632029Y-58793000D01*
X129373436Y-58793000D01*
X128963710Y-58711500D01*
X128338290Y-58711500D01*
X127921023Y-58794500D01*
X121506977Y-58794500D01*
X121089710Y-58711500D01*
X120464290Y-58711500D01*
X120047023Y-58794500D01*
X113599436Y-58794500D01*
X113189710Y-58713000D01*
X112564290Y-58713000D01*
X112154564Y-58794500D01*
X105725436Y-58794500D01*
X105315710Y-58713000D01*
X104690290Y-58713000D01*
X104280564Y-58794500D01*
X97851436Y-58794500D01*
X97441710Y-58713000D01*
X96816290Y-58713000D01*
X96406564Y-58794500D01*
X89913936Y-58794500D01*
X89504210Y-58713000D01*
X88878790Y-58713000D01*
X88469064Y-58794500D01*
X82039936Y-58794500D01*
X81630210Y-58713000D01*
X81004790Y-58713000D01*
X80595064Y-58794500D01*
X74165936Y-58794500D01*
X73756210Y-58713000D01*
X73130790Y-58713000D01*
X72721064Y-58794500D01*
X67298369Y-58794500D01*
X66331159Y-57827290D01*
X141898000Y-57827290D01*
X141898000Y-58452710D01*
X142020014Y-59066113D01*
X142259352Y-59643926D01*
X142606817Y-60163944D01*
X143049056Y-60606183D01*
X143569074Y-60953648D01*
X144146887Y-61192986D01*
X144760290Y-61315000D01*
X145385710Y-61315000D01*
X145999113Y-61192986D01*
X146576926Y-60953648D01*
X147096944Y-60606183D01*
X147539183Y-60163944D01*
X147886648Y-59643926D01*
X148125986Y-59066113D01*
X148248000Y-58452710D01*
X148248000Y-57827290D01*
X148125986Y-57213887D01*
X147886648Y-56636074D01*
X147539183Y-56116056D01*
X147096944Y-55673817D01*
X146576926Y-55326352D01*
X145999113Y-55087014D01*
X145385710Y-54965000D01*
X144760290Y-54965000D01*
X144146887Y-55087014D01*
X143569074Y-55326352D01*
X143049056Y-55673817D01*
X142606817Y-56116056D01*
X142259352Y-56636074D01*
X142020014Y-57213887D01*
X141898000Y-57827290D01*
X66331159Y-57827290D01*
X65221276Y-56717408D01*
X64989183Y-56370056D01*
X64546944Y-55927817D01*
X64026926Y-55580352D01*
X63449113Y-55341014D01*
X62835710Y-55219000D01*
X62210290Y-55219000D01*
X61596887Y-55341014D01*
X61019074Y-55580352D01*
X60499056Y-55927817D01*
X60056817Y-56370056D01*
X59709352Y-56890074D01*
X59470014Y-57467887D01*
X59348000Y-58081290D01*
X42620000Y-58081290D01*
X42620000Y-49812339D01*
X44190826Y-49812339D01*
X44190826Y-50263661D01*
X44278875Y-50706311D01*
X44451588Y-51123278D01*
X44702329Y-51498538D01*
X45021462Y-51817671D01*
X45396722Y-52068412D01*
X45813689Y-52241125D01*
X46256339Y-52329174D01*
X46707661Y-52329174D01*
X47150311Y-52241125D01*
X47567278Y-52068412D01*
X47942538Y-51817671D01*
X48261671Y-51498538D01*
X48512412Y-51123278D01*
X48685125Y-50706311D01*
X48773174Y-50263661D01*
X48773174Y-49812339D01*
X143045086Y-49812339D01*
X143045086Y-50263661D01*
X143133135Y-50706311D01*
X143305848Y-51123278D01*
X143556589Y-51498538D01*
X143875722Y-51817671D01*
X144250982Y-52068412D01*
X144667949Y-52241125D01*
X145110599Y-52329174D01*
X145561921Y-52329174D01*
X146004571Y-52241125D01*
X146421538Y-52068412D01*
X146796798Y-51817671D01*
X147115931Y-51498538D01*
X147366672Y-51123278D01*
X147539385Y-50706311D01*
X147627434Y-50263661D01*
X147627434Y-49812339D01*
X147539385Y-49369689D01*
X147366672Y-48952722D01*
X147115931Y-48577462D01*
X146796798Y-48258329D01*
X146421538Y-48007588D01*
X146004571Y-47834875D01*
X145561921Y-47746826D01*
X145110599Y-47746826D01*
X144667949Y-47834875D01*
X144250982Y-48007588D01*
X143875722Y-48258329D01*
X143556589Y-48577462D01*
X143305848Y-48952722D01*
X143133135Y-49369689D01*
X143045086Y-49812339D01*
X48773174Y-49812339D01*
X48685125Y-49369689D01*
X48512412Y-48952722D01*
X48261671Y-48577462D01*
X47942538Y-48258329D01*
X47567278Y-48007588D01*
X47150311Y-47834875D01*
X46707661Y-47746826D01*
X46256339Y-47746826D01*
X45813689Y-47834875D01*
X45396722Y-48007588D01*
X45021462Y-48258329D01*
X44702329Y-48577462D01*
X44451588Y-48952722D01*
X44278875Y-49369689D01*
X44190826Y-49812339D01*
X42620000Y-49812339D01*
X42620000Y-46897720D01*
X42634005Y-46754891D01*
X42665402Y-46650899D01*
X42716399Y-46554986D01*
X42785055Y-46470806D01*
X42868758Y-46401560D01*
X42964311Y-46349895D01*
X43068078Y-46317773D01*
X43208641Y-46303000D01*
X149571280Y-46303000D01*
X149714109Y-46317005D01*
M02*
