G04 #@! TF.GenerationSoftware,KiCad,Pcbnew,(5.1.5)-2*
G04 #@! TF.CreationDate,2020-03-06T14:17:15-06:00*
G04 #@! TF.ProjectId,PatchPanel,50617463-6850-4616-9e65-6c2e6b696361,rev?*
G04 #@! TF.SameCoordinates,Original*
G04 #@! TF.FileFunction,Legend,Bot*
G04 #@! TF.FilePolarity,Positive*
%FSLAX46Y46*%
G04 Gerber Fmt 4.6, Leading zero omitted, Abs format (unit mm)*
G04 Created by KiCad (PCBNEW (5.1.5)-2) date 2020-03-06 14:17:15*
%MOMM*%
%LPD*%
G04 APERTURE LIST*
%ADD10C,0.150000*%
G04 APERTURE END LIST*
D10*
X141123000Y-53340000D02*
X133223000Y-53340000D01*
X141123000Y-61240000D02*
X133223000Y-61240000D01*
X133223000Y-59690000D02*
X132715000Y-59690000D01*
X132715000Y-55118000D02*
X133223000Y-55118000D01*
X132715000Y-59690000D02*
X132715000Y-55118000D01*
X134874000Y-53340000D02*
X134874000Y-52832000D01*
X134874000Y-52832000D02*
X139446000Y-52832000D01*
X139446000Y-52832000D02*
X139446000Y-53340000D01*
X133223000Y-53340000D02*
X133223000Y-61240000D01*
X140614400Y-59690000D02*
X140614400Y-55118000D01*
X141123000Y-53340000D02*
X141123000Y-61240000D01*
X140614400Y-55118000D02*
X141122400Y-55118000D01*
X141122400Y-59690000D02*
X140614400Y-59690000D01*
X142751000Y-53340000D02*
X142751000Y-52832000D01*
X149023000Y-61240000D02*
X141123000Y-61240000D01*
X142751000Y-52832000D02*
X147323000Y-52832000D01*
X147323000Y-52832000D02*
X147323000Y-53340000D01*
X148515000Y-55118000D02*
X149023000Y-55118000D01*
X149023000Y-59690000D02*
X148515000Y-59690000D01*
X149023000Y-53340000D02*
X141123000Y-53340000D01*
X149023000Y-53340000D02*
X149023000Y-61240000D01*
X148515000Y-59690000D02*
X148515000Y-55118000D01*
X65965000Y-59944000D02*
X65965000Y-55372000D01*
X66473000Y-53594000D02*
X66473000Y-61494000D01*
X66473000Y-53594000D02*
X58573000Y-53594000D01*
X66473000Y-59944000D02*
X65965000Y-59944000D01*
X65965000Y-55372000D02*
X66473000Y-55372000D01*
X64773000Y-53086000D02*
X64773000Y-53594000D01*
X60201000Y-53086000D02*
X64773000Y-53086000D01*
X66473000Y-61494000D02*
X58573000Y-61494000D01*
X60201000Y-53594000D02*
X60201000Y-53086000D01*
X58572400Y-59944000D02*
X58064400Y-59944000D01*
X58064400Y-55372000D02*
X58572400Y-55372000D01*
X58573000Y-53594000D02*
X58573000Y-61494000D01*
X58064400Y-59944000D02*
X58064400Y-55372000D01*
X50673000Y-53594000D02*
X50673000Y-61494000D01*
X56896000Y-53086000D02*
X56896000Y-53594000D01*
X52324000Y-53086000D02*
X56896000Y-53086000D01*
X52324000Y-53594000D02*
X52324000Y-53086000D01*
X50165000Y-59944000D02*
X50165000Y-55372000D01*
X50165000Y-55372000D02*
X50673000Y-55372000D01*
X50673000Y-59944000D02*
X50165000Y-59944000D01*
X58573000Y-61494000D02*
X50673000Y-61494000D01*
X58573000Y-53594000D02*
X50673000Y-53594000D01*
X148923000Y-52097142D02*
X148970619Y-52144761D01*
X149113476Y-52192380D01*
X149208714Y-52192380D01*
X149351571Y-52144761D01*
X149446809Y-52049523D01*
X149494428Y-51954285D01*
X149542047Y-51763809D01*
X149542047Y-51620952D01*
X149494428Y-51430476D01*
X149446809Y-51335238D01*
X149351571Y-51240000D01*
X149208714Y-51192380D01*
X149113476Y-51192380D01*
X148970619Y-51240000D01*
X148923000Y-51287619D01*
X148351571Y-52192380D02*
X148446809Y-52144761D01*
X148494428Y-52097142D01*
X148542047Y-52001904D01*
X148542047Y-51716190D01*
X148494428Y-51620952D01*
X148446809Y-51573333D01*
X148351571Y-51525714D01*
X148208714Y-51525714D01*
X148113476Y-51573333D01*
X148065857Y-51620952D01*
X148018238Y-51716190D01*
X148018238Y-52001904D01*
X148065857Y-52097142D01*
X148113476Y-52144761D01*
X148208714Y-52192380D01*
X148351571Y-52192380D01*
X147589666Y-51525714D02*
X147589666Y-52192380D01*
X147589666Y-51620952D02*
X147542047Y-51573333D01*
X147446809Y-51525714D01*
X147303952Y-51525714D01*
X147208714Y-51573333D01*
X147161095Y-51668571D01*
X147161095Y-52192380D01*
X146684904Y-51525714D02*
X146684904Y-52192380D01*
X146684904Y-51620952D02*
X146637285Y-51573333D01*
X146542047Y-51525714D01*
X146399190Y-51525714D01*
X146303952Y-51573333D01*
X146256333Y-51668571D01*
X146256333Y-52192380D01*
X145256333Y-52192380D02*
X145827761Y-52192380D01*
X145542047Y-52192380D02*
X145542047Y-51192380D01*
X145637285Y-51335238D01*
X145732523Y-51430476D01*
X145827761Y-51478095D01*
X144684904Y-51620952D02*
X144780142Y-51573333D01*
X144827761Y-51525714D01*
X144875380Y-51430476D01*
X144875380Y-51382857D01*
X144827761Y-51287619D01*
X144780142Y-51240000D01*
X144684904Y-51192380D01*
X144494428Y-51192380D01*
X144399190Y-51240000D01*
X144351571Y-51287619D01*
X144303952Y-51382857D01*
X144303952Y-51430476D01*
X144351571Y-51525714D01*
X144399190Y-51573333D01*
X144494428Y-51620952D01*
X144684904Y-51620952D01*
X144780142Y-51668571D01*
X144827761Y-51716190D01*
X144875380Y-51811428D01*
X144875380Y-52001904D01*
X144827761Y-52097142D01*
X144780142Y-52144761D01*
X144684904Y-52192380D01*
X144494428Y-52192380D01*
X144399190Y-52144761D01*
X144351571Y-52097142D01*
X144303952Y-52001904D01*
X144303952Y-51811428D01*
X144351571Y-51716190D01*
X144399190Y-51668571D01*
X144494428Y-51620952D01*
X65896809Y-52351142D02*
X65944428Y-52398761D01*
X66087285Y-52446380D01*
X66182523Y-52446380D01*
X66325380Y-52398761D01*
X66420619Y-52303523D01*
X66468238Y-52208285D01*
X66515857Y-52017809D01*
X66515857Y-51874952D01*
X66468238Y-51684476D01*
X66420619Y-51589238D01*
X66325380Y-51494000D01*
X66182523Y-51446380D01*
X66087285Y-51446380D01*
X65944428Y-51494000D01*
X65896809Y-51541619D01*
X65325380Y-52446380D02*
X65420619Y-52398761D01*
X65468238Y-52351142D01*
X65515857Y-52255904D01*
X65515857Y-51970190D01*
X65468238Y-51874952D01*
X65420619Y-51827333D01*
X65325380Y-51779714D01*
X65182523Y-51779714D01*
X65087285Y-51827333D01*
X65039666Y-51874952D01*
X64992047Y-51970190D01*
X64992047Y-52255904D01*
X65039666Y-52351142D01*
X65087285Y-52398761D01*
X65182523Y-52446380D01*
X65325380Y-52446380D01*
X64563476Y-51779714D02*
X64563476Y-52446380D01*
X64563476Y-51874952D02*
X64515857Y-51827333D01*
X64420619Y-51779714D01*
X64277761Y-51779714D01*
X64182523Y-51827333D01*
X64134904Y-51922571D01*
X64134904Y-52446380D01*
X63658714Y-51779714D02*
X63658714Y-52446380D01*
X63658714Y-51874952D02*
X63611095Y-51827333D01*
X63515857Y-51779714D01*
X63373000Y-51779714D01*
X63277761Y-51827333D01*
X63230142Y-51922571D01*
X63230142Y-52446380D01*
X62706333Y-52446380D02*
X62515857Y-52446380D01*
X62420619Y-52398761D01*
X62373000Y-52351142D01*
X62277761Y-52208285D01*
X62230142Y-52017809D01*
X62230142Y-51636857D01*
X62277761Y-51541619D01*
X62325380Y-51494000D01*
X62420619Y-51446380D01*
X62611095Y-51446380D01*
X62706333Y-51494000D01*
X62753952Y-51541619D01*
X62801571Y-51636857D01*
X62801571Y-51874952D01*
X62753952Y-51970190D01*
X62706333Y-52017809D01*
X62611095Y-52065428D01*
X62420619Y-52065428D01*
X62325380Y-52017809D01*
X62277761Y-51970190D01*
X62230142Y-51874952D01*
M02*
