G04 #@! TF.GenerationSoftware,KiCad,Pcbnew,(5.0.0)*
G04 #@! TF.CreationDate,2019-12-11T16:29:05-06:00*
G04 #@! TF.ProjectId,PatchPanel,506174636850616E656C2E6B69636164,rev?*
G04 #@! TF.SameCoordinates,Original*
G04 #@! TF.FileFunction,Copper,L2,Bot,Signal*
G04 #@! TF.FilePolarity,Positive*
%FSLAX46Y46*%
G04 Gerber Fmt 4.6, Leading zero omitted, Abs format (unit mm)*
G04 Created by KiCad (PCBNEW (5.0.0)) date 12/11/19 16:29:05*
%MOMM*%
%LPD*%
G01*
G04 APERTURE LIST*
G04 #@! TA.AperFunction,ComponentPad*
%ADD10C,5.080000*%
G04 #@! TD*
G04 #@! TA.AperFunction,ComponentPad*
%ADD11R,1.000000X1.000000*%
G04 #@! TD*
G04 #@! TA.AperFunction,ComponentPad*
%ADD12O,1.000000X1.000000*%
G04 #@! TD*
G04 #@! TA.AperFunction,ViaPad*
%ADD13C,0.800000*%
G04 #@! TD*
G04 #@! TA.AperFunction,Conductor*
%ADD14C,1.270000*%
G04 #@! TD*
G04 #@! TA.AperFunction,Conductor*
%ADD15C,5.080000*%
G04 #@! TD*
G04 #@! TA.AperFunction,Conductor*
%ADD16C,2.540000*%
G04 #@! TD*
G04 #@! TA.AperFunction,Conductor*
%ADD17C,0.254000*%
G04 #@! TD*
G04 APERTURE END LIST*
D10*
G04 #@! TO.P,Conn2,3*
G04 #@! TO.N,Net-(Conn2-Pad3)*
X159511782Y-132416060D03*
G04 #@! TO.P,Conn2,2*
G04 #@! TO.N,Net-(Conn2-Pad2)*
X167411782Y-132416060D03*
G04 #@! TO.P,Conn2,1*
G04 #@! TO.N,GND*
X175311782Y-132416060D03*
G04 #@! TD*
G04 #@! TO.P,Conn3,1*
G04 #@! TO.N,GND*
X74631060Y-75513218D03*
G04 #@! TO.P,Conn3,2*
G04 #@! TO.N,Net-(Conn3-Pad2)*
X74631060Y-83413218D03*
G04 #@! TO.P,Conn3,3*
G04 #@! TO.N,Net-(Conn3-Pad3)*
X74631060Y-91313218D03*
G04 #@! TD*
G04 #@! TO.P,Conn4,3*
G04 #@! TO.N,Net-(Conn4-Pad3)*
X159791782Y-111461060D03*
G04 #@! TO.P,Conn4,2*
G04 #@! TO.N,Net-(Conn4-Pad2)*
X167691782Y-111461060D03*
G04 #@! TO.P,Conn4,1*
G04 #@! TO.N,GND*
X175591782Y-111461060D03*
G04 #@! TD*
G04 #@! TO.P,Conn5,1*
G04 #@! TO.N,GND*
X96221060Y-74878218D03*
G04 #@! TO.P,Conn5,2*
G04 #@! TO.N,Net-(Conn5-Pad2)*
X96221060Y-82778218D03*
G04 #@! TO.P,Conn5,3*
G04 #@! TO.N,Net-(Conn5-Pad3)*
X96221060Y-90678218D03*
G04 #@! TD*
G04 #@! TO.P,Conn6,3*
G04 #@! TO.N,Net-(Conn6-Pad3)*
X159385000Y-91585744D03*
G04 #@! TO.P,Conn6,2*
G04 #@! TO.N,Net-(Conn6-Pad2)*
X159385000Y-83685744D03*
G04 #@! TO.P,Conn6,1*
G04 #@! TO.N,GND*
X159385000Y-75785744D03*
G04 #@! TD*
G04 #@! TO.P,Conn7,1*
G04 #@! TO.N,GND*
X116541060Y-74878218D03*
G04 #@! TO.P,Conn7,2*
G04 #@! TO.N,Net-(Conn7-Pad2)*
X116541060Y-82778218D03*
G04 #@! TO.P,Conn7,3*
G04 #@! TO.N,Net-(Conn7-Pad3)*
X116541060Y-90678218D03*
G04 #@! TD*
G04 #@! TO.P,Conn8,3*
G04 #@! TO.N,Net-(Conn8-Pad3)*
X137496060Y-90551218D03*
G04 #@! TO.P,Conn8,2*
G04 #@! TO.N,Net-(Conn8-Pad2)*
X137496060Y-82651218D03*
G04 #@! TO.P,Conn8,1*
G04 #@! TO.N,GND*
X137496060Y-74751218D03*
G04 #@! TD*
G04 #@! TO.P,Conn10,1*
G04 #@! TO.N,GND*
X77470000Y-133350000D03*
G04 #@! TO.P,Conn10,2*
G04 #@! TO.N,/Vlog*
X77470000Y-125450000D03*
G04 #@! TO.P,Conn10,3*
G04 #@! TO.N,/Vact*
X77470000Y-117550000D03*
G04 #@! TD*
G04 #@! TO.P,Conn11,3*
G04 #@! TO.N,/Vact*
X140970000Y-117221000D03*
G04 #@! TO.P,Conn11,2*
G04 #@! TO.N,/Vlog*
X140970000Y-125121000D03*
G04 #@! TO.P,Conn11,1*
G04 #@! TO.N,GND*
X140970000Y-133021000D03*
G04 #@! TD*
G04 #@! TO.P,Conn12,3*
G04 #@! TO.N,/Vact*
X90170000Y-117475000D03*
G04 #@! TO.P,Conn12,2*
G04 #@! TO.N,/Vlog*
X90170000Y-125375000D03*
G04 #@! TO.P,Conn12,1*
G04 #@! TO.N,GND*
X90170000Y-133275000D03*
G04 #@! TD*
G04 #@! TO.P,Conn13,1*
G04 #@! TO.N,GND*
X102870000Y-133021000D03*
G04 #@! TO.P,Conn13,2*
G04 #@! TO.N,/Vlog*
X102870000Y-125121000D03*
G04 #@! TO.P,Conn13,3*
G04 #@! TO.N,/Vact*
X102870000Y-117221000D03*
G04 #@! TD*
G04 #@! TO.P,Conn14,1*
G04 #@! TO.N,GND*
X115570000Y-133021000D03*
G04 #@! TO.P,Conn14,2*
G04 #@! TO.N,/Vlog*
X115570000Y-125121000D03*
G04 #@! TO.P,Conn14,3*
G04 #@! TO.N,/Vact*
X115570000Y-117221000D03*
G04 #@! TD*
G04 #@! TO.P,Conn15,3*
G04 #@! TO.N,/Vact*
X52070000Y-117221000D03*
G04 #@! TO.P,Conn15,2*
G04 #@! TO.N,/Vlog*
X52070000Y-125121000D03*
G04 #@! TO.P,Conn15,1*
G04 #@! TO.N,GND*
X52070000Y-133021000D03*
G04 #@! TD*
G04 #@! TO.P,Conn16,1*
G04 #@! TO.N,GND*
X128270000Y-133083000D03*
G04 #@! TO.P,Conn16,2*
G04 #@! TO.N,/Vlog*
X128270000Y-125183000D03*
G04 #@! TO.P,Conn16,3*
G04 #@! TO.N,/Vact*
X128270000Y-117283000D03*
G04 #@! TD*
G04 #@! TO.P,Conn1,1*
G04 #@! TO.N,GND*
X52163180Y-74979654D03*
G04 #@! TO.P,Conn1,2*
G04 #@! TO.N,Net-(Conn1-Pad2)*
X52163180Y-82879654D03*
G04 #@! TO.P,Conn1,3*
G04 #@! TO.N,Net-(Conn1-Pad3)*
X52163180Y-90779654D03*
G04 #@! TD*
G04 #@! TO.P,Conn18,1*
G04 #@! TO.N,GND*
X137160000Y-58166000D03*
G04 #@! TO.P,Conn18,2*
G04 #@! TO.N,/Vact*
X145060000Y-58166000D03*
G04 #@! TD*
G04 #@! TO.P,Conn9,1*
G04 #@! TO.N,GND*
X54610000Y-58420000D03*
G04 #@! TO.P,Conn9,2*
G04 #@! TO.N,/Vlog*
X62510000Y-58420000D03*
G04 #@! TD*
G04 #@! TO.P,Conn17,1*
G04 #@! TO.N,GND*
X64135000Y-133210000D03*
G04 #@! TO.P,Conn17,2*
G04 #@! TO.N,/Vlog*
X64135000Y-125310000D03*
G04 #@! TO.P,Conn17,3*
G04 #@! TO.N,/Vact*
X64135000Y-117410000D03*
G04 #@! TD*
D11*
G04 #@! TO.P,Conn19,1*
G04 #@! TO.N,PB1*
X97155000Y-51435000D03*
D12*
G04 #@! TO.P,Conn19,2*
G04 #@! TO.N,PB2*
X98425000Y-51435000D03*
G04 #@! TO.P,Conn19,3*
G04 #@! TO.N,PB3*
X97155000Y-52705000D03*
G04 #@! TO.P,Conn19,4*
G04 #@! TO.N,PB4*
X98425000Y-52705000D03*
G04 #@! TO.P,Conn19,5*
G04 #@! TO.N,PB5*
X97155000Y-53975000D03*
G04 #@! TO.P,Conn19,6*
G04 #@! TO.N,PB6*
X98425000Y-53975000D03*
G04 #@! TO.P,Conn19,7*
G04 #@! TO.N,PB7*
X97155000Y-55245000D03*
G04 #@! TO.P,Conn19,8*
G04 #@! TO.N,PB8*
X98425000Y-55245000D03*
G04 #@! TO.P,Conn19,9*
G04 #@! TO.N,GND*
X97155000Y-56515000D03*
G04 #@! TO.P,Conn19,10*
X98425000Y-56515000D03*
G04 #@! TD*
D13*
G04 #@! TO.N,GND*
X48260000Y-68580000D03*
X75565000Y-68580000D03*
X182245000Y-111125000D03*
X96520000Y-69215000D03*
X116205000Y-67945000D03*
X137160000Y-68580000D03*
X181610000Y-119380000D03*
X59055000Y-68580000D03*
X81915000Y-68580000D03*
X103505000Y-68580000D03*
X123825000Y-67945000D03*
X144780000Y-68580000D03*
X167005000Y-71120000D03*
X57251600Y-105384600D03*
X51993800Y-102387400D03*
X72415400Y-102946200D03*
X77774800Y-105435400D03*
X93954600Y-103149400D03*
X99110800Y-105511600D03*
X114300000Y-103251000D03*
X119481600Y-105511600D03*
X139547600Y-105308400D03*
X135204200Y-102082600D03*
X163093400Y-62433200D03*
X181089300Y-140195300D03*
X151091900Y-126479300D03*
X149860000Y-99060000D03*
X185420000Y-113030000D03*
X146050000Y-111760000D03*
G04 #@! TO.N,/Vlog*
X55245000Y-68580000D03*
X78740000Y-68580000D03*
X182245000Y-115570000D03*
X100965000Y-68580000D03*
X161925000Y-69487526D03*
X120650000Y-68580000D03*
X141605000Y-68580000D03*
X181610000Y-136525000D03*
G04 #@! TD*
D14*
G04 #@! TO.N,/Vlog*
X55245000Y-67310000D02*
X55245000Y-68580000D01*
X56515000Y-66040000D02*
X55245000Y-67310000D01*
X182245000Y-115570000D02*
X184785000Y-115570000D01*
X100965000Y-66040000D02*
X79375000Y-66040000D01*
X62865000Y-66040000D02*
X62510000Y-65685000D01*
X62865000Y-66040000D02*
X56515000Y-66040000D01*
X62510000Y-65685000D02*
X62510000Y-64452500D01*
D15*
X62510000Y-64452500D02*
X61522501Y-65439999D01*
X62510000Y-58420000D02*
X62510000Y-64452500D01*
D16*
X185521600Y-135153400D02*
X184150000Y-136525000D01*
X181610000Y-136525000D02*
X184150000Y-136525000D01*
X185229500Y-115570000D02*
X185521600Y-115862100D01*
X182245000Y-115570000D02*
X185229500Y-115570000D01*
X185521600Y-115862100D02*
X185521600Y-135153400D01*
X78740000Y-68580000D02*
X78740000Y-65439999D01*
X100965000Y-65541599D02*
X100863400Y-65439999D01*
X100965000Y-68580000D02*
X100965000Y-65541599D01*
X78740000Y-65439999D02*
X100863400Y-65439999D01*
X120573800Y-67938115D02*
X120573800Y-65439999D01*
X120650000Y-68014315D02*
X120573800Y-67938115D01*
X120650000Y-68580000D02*
X120650000Y-68014315D01*
X100863400Y-65439999D02*
X120573800Y-65439999D01*
X162324999Y-65497200D02*
X162382200Y-65439999D01*
X141605000Y-66074999D02*
X140970000Y-65439999D01*
X141605000Y-68580000D02*
X141605000Y-66074999D01*
X120573800Y-65439999D02*
X140970000Y-65439999D01*
X140970000Y-65439999D02*
X162382200Y-65439999D01*
X161925000Y-65897199D02*
X162382200Y-65439999D01*
X161925000Y-69487526D02*
X161925000Y-65897199D01*
D15*
X46752799Y-65439999D02*
X61522501Y-65439999D01*
X44725010Y-67467788D02*
X46752799Y-65439999D01*
X44725010Y-122638112D02*
X44725010Y-67467788D01*
X52070000Y-125121000D02*
X47207898Y-125121000D01*
X47207898Y-125121000D02*
X44725010Y-122638112D01*
D16*
X144562102Y-125121000D02*
X149860000Y-130418898D01*
X140970000Y-125121000D02*
X144562102Y-125121000D01*
X149860000Y-130418898D02*
X149860000Y-134620000D01*
X151765000Y-136525000D02*
X181610000Y-136525000D01*
X149860000Y-134620000D02*
X151765000Y-136525000D01*
X78740000Y-65439999D02*
X61522501Y-65439999D01*
G04 #@! TD*
D17*
G04 #@! TO.N,GND*
G36*
X189417787Y-46474065D02*
X189582920Y-46569405D01*
X189705488Y-46715477D01*
X189781555Y-46924465D01*
X189790000Y-47020996D01*
X189790001Y-145987875D01*
X189745935Y-146237787D01*
X189650596Y-146402919D01*
X189504524Y-146525488D01*
X189295532Y-146601555D01*
X189199004Y-146610000D01*
X43242119Y-146610000D01*
X42992213Y-146565935D01*
X42827081Y-146470596D01*
X42704512Y-146324524D01*
X42628445Y-146115532D01*
X42620000Y-146019004D01*
X42620000Y-141947653D01*
X44729400Y-141947653D01*
X44729400Y-142786347D01*
X45050354Y-143561199D01*
X45643401Y-144154246D01*
X46418253Y-144475200D01*
X47256947Y-144475200D01*
X48031799Y-144154246D01*
X48624846Y-143561199D01*
X48945800Y-142786347D01*
X48945800Y-142074653D01*
X142671800Y-142074653D01*
X142671800Y-142913347D01*
X142992754Y-143688199D01*
X143585801Y-144281246D01*
X144360653Y-144602200D01*
X145199347Y-144602200D01*
X145974199Y-144281246D01*
X146567246Y-143688199D01*
X146888200Y-142913347D01*
X146888200Y-142074653D01*
X146567246Y-141299801D01*
X145974199Y-140706754D01*
X145199347Y-140385800D01*
X144360653Y-140385800D01*
X143585801Y-140706754D01*
X142992754Y-141299801D01*
X142671800Y-142074653D01*
X48945800Y-142074653D01*
X48945800Y-141947653D01*
X48624846Y-141172801D01*
X48031799Y-140579754D01*
X47256947Y-140258800D01*
X46418253Y-140258800D01*
X45643401Y-140579754D01*
X45050354Y-141172801D01*
X44729400Y-141947653D01*
X42620000Y-141947653D01*
X42620000Y-125050129D01*
X42701066Y-125104295D01*
X44741716Y-127144946D01*
X44918851Y-127410047D01*
X45969075Y-128111784D01*
X46895192Y-128296000D01*
X46895193Y-128296000D01*
X47207898Y-128358201D01*
X47520603Y-128296000D01*
X52701547Y-128296000D01*
X52996117Y-128173985D01*
X53308823Y-128111784D01*
X53573923Y-127934650D01*
X53868493Y-127812635D01*
X54093947Y-127587181D01*
X54359047Y-127410047D01*
X54536181Y-127144947D01*
X54761635Y-126919493D01*
X54883650Y-126624923D01*
X55060784Y-126359823D01*
X55122985Y-126047117D01*
X55245000Y-125752547D01*
X55245000Y-125433706D01*
X55307201Y-125121000D01*
X55245000Y-124808294D01*
X55245000Y-124678453D01*
X60960000Y-124678453D01*
X60960000Y-125941547D01*
X61443365Y-127108493D01*
X62336507Y-128001635D01*
X63503453Y-128485000D01*
X64766547Y-128485000D01*
X65933493Y-128001635D01*
X66826635Y-127108493D01*
X67310000Y-125941547D01*
X67310000Y-124818453D01*
X74295000Y-124818453D01*
X74295000Y-126081547D01*
X74778365Y-127248493D01*
X75671507Y-128141635D01*
X76838453Y-128625000D01*
X78101547Y-128625000D01*
X79268493Y-128141635D01*
X80161635Y-127248493D01*
X80645000Y-126081547D01*
X80645000Y-124818453D01*
X80613934Y-124743453D01*
X86995000Y-124743453D01*
X86995000Y-126006547D01*
X87478365Y-127173493D01*
X88371507Y-128066635D01*
X89538453Y-128550000D01*
X90801547Y-128550000D01*
X91968493Y-128066635D01*
X92861635Y-127173493D01*
X93345000Y-126006547D01*
X93345000Y-124743453D01*
X93239790Y-124489453D01*
X99695000Y-124489453D01*
X99695000Y-125752547D01*
X100178365Y-126919493D01*
X101071507Y-127812635D01*
X102238453Y-128296000D01*
X103501547Y-128296000D01*
X104668493Y-127812635D01*
X105561635Y-126919493D01*
X106045000Y-125752547D01*
X106045000Y-124489453D01*
X112395000Y-124489453D01*
X112395000Y-125752547D01*
X112878365Y-126919493D01*
X113771507Y-127812635D01*
X114938453Y-128296000D01*
X116201547Y-128296000D01*
X117368493Y-127812635D01*
X118261635Y-126919493D01*
X118745000Y-125752547D01*
X118745000Y-124551453D01*
X125095000Y-124551453D01*
X125095000Y-125814547D01*
X125578365Y-126981493D01*
X126471507Y-127874635D01*
X127638453Y-128358000D01*
X128901547Y-128358000D01*
X130068493Y-127874635D01*
X130961635Y-126981493D01*
X131445000Y-125814547D01*
X131445000Y-124551453D01*
X131419319Y-124489453D01*
X137795000Y-124489453D01*
X137795000Y-125752547D01*
X138278365Y-126919493D01*
X139171507Y-127812635D01*
X140338453Y-128296000D01*
X141601547Y-128296000D01*
X142768493Y-127812635D01*
X143555128Y-127026000D01*
X143773026Y-127026000D01*
X147955000Y-131207974D01*
X147955001Y-134432375D01*
X147917680Y-134620000D01*
X148065530Y-135363294D01*
X148380290Y-135834366D01*
X148380293Y-135834369D01*
X148486573Y-135993428D01*
X148645632Y-136099708D01*
X150285292Y-137739368D01*
X150391572Y-137898428D01*
X150550631Y-138004708D01*
X150550633Y-138004710D01*
X150854833Y-138207970D01*
X151021706Y-138319471D01*
X151577374Y-138430000D01*
X151577379Y-138430000D01*
X151765000Y-138467320D01*
X151952621Y-138430000D01*
X183962379Y-138430000D01*
X184150000Y-138467320D01*
X184337621Y-138430000D01*
X184337626Y-138430000D01*
X184893294Y-138319471D01*
X185523428Y-137898428D01*
X185629710Y-137739366D01*
X186735968Y-136633109D01*
X186895028Y-136526828D01*
X187033811Y-136319126D01*
X187316070Y-135896695D01*
X187316071Y-135896694D01*
X187426600Y-135341026D01*
X187426600Y-135341022D01*
X187463920Y-135153401D01*
X187426600Y-134965780D01*
X187426600Y-116049721D01*
X187463920Y-115862100D01*
X187426600Y-115674479D01*
X187426600Y-115674474D01*
X187316071Y-115118806D01*
X186895028Y-114488672D01*
X186735966Y-114382390D01*
X186709210Y-114355634D01*
X186602928Y-114196572D01*
X185972794Y-113775529D01*
X185417126Y-113665000D01*
X185417121Y-113665000D01*
X185229500Y-113627680D01*
X185041879Y-113665000D01*
X182057374Y-113665000D01*
X181501706Y-113775529D01*
X180871572Y-114196572D01*
X180450529Y-114826706D01*
X180302679Y-115570000D01*
X180450529Y-116313294D01*
X180871572Y-116943428D01*
X181501706Y-117364471D01*
X182057374Y-117475000D01*
X183616600Y-117475000D01*
X183616601Y-134364322D01*
X183360924Y-134620000D01*
X169697970Y-134620000D01*
X170103417Y-134214553D01*
X170586782Y-133047607D01*
X170586782Y-131784513D01*
X170103417Y-130617567D01*
X169210275Y-129724425D01*
X168043329Y-129241060D01*
X166780235Y-129241060D01*
X165613289Y-129724425D01*
X164720147Y-130617567D01*
X164236782Y-131784513D01*
X164236782Y-133047607D01*
X164720147Y-134214553D01*
X165125594Y-134620000D01*
X161797970Y-134620000D01*
X162203417Y-134214553D01*
X162686782Y-133047607D01*
X162686782Y-131784513D01*
X162203417Y-130617567D01*
X161310275Y-129724425D01*
X160143329Y-129241060D01*
X158880235Y-129241060D01*
X157713289Y-129724425D01*
X156820147Y-130617567D01*
X156336782Y-131784513D01*
X156336782Y-133047607D01*
X156820147Y-134214553D01*
X157225594Y-134620000D01*
X152554077Y-134620000D01*
X151765000Y-133830924D01*
X151765000Y-130606518D01*
X151802320Y-130418897D01*
X151765000Y-130231276D01*
X151765000Y-130231272D01*
X151654471Y-129675604D01*
X151233428Y-129045470D01*
X151074366Y-128939188D01*
X146041812Y-123906634D01*
X145935530Y-123747572D01*
X145305396Y-123326529D01*
X144749728Y-123216000D01*
X144749723Y-123216000D01*
X144562102Y-123178680D01*
X144374481Y-123216000D01*
X143555128Y-123216000D01*
X142768493Y-122429365D01*
X141601547Y-121946000D01*
X140338453Y-121946000D01*
X139171507Y-122429365D01*
X138278365Y-123322507D01*
X137795000Y-124489453D01*
X131419319Y-124489453D01*
X130961635Y-123384507D01*
X130068493Y-122491365D01*
X128901547Y-122008000D01*
X127638453Y-122008000D01*
X126471507Y-122491365D01*
X125578365Y-123384507D01*
X125095000Y-124551453D01*
X118745000Y-124551453D01*
X118745000Y-124489453D01*
X118261635Y-123322507D01*
X117368493Y-122429365D01*
X116201547Y-121946000D01*
X114938453Y-121946000D01*
X113771507Y-122429365D01*
X112878365Y-123322507D01*
X112395000Y-124489453D01*
X106045000Y-124489453D01*
X105561635Y-123322507D01*
X104668493Y-122429365D01*
X103501547Y-121946000D01*
X102238453Y-121946000D01*
X101071507Y-122429365D01*
X100178365Y-123322507D01*
X99695000Y-124489453D01*
X93239790Y-124489453D01*
X92861635Y-123576507D01*
X91968493Y-122683365D01*
X90801547Y-122200000D01*
X89538453Y-122200000D01*
X88371507Y-122683365D01*
X87478365Y-123576507D01*
X86995000Y-124743453D01*
X80613934Y-124743453D01*
X80161635Y-123651507D01*
X79268493Y-122758365D01*
X78101547Y-122275000D01*
X76838453Y-122275000D01*
X75671507Y-122758365D01*
X74778365Y-123651507D01*
X74295000Y-124818453D01*
X67310000Y-124818453D01*
X67310000Y-124678453D01*
X66826635Y-123511507D01*
X65933493Y-122618365D01*
X64766547Y-122135000D01*
X63503453Y-122135000D01*
X62336507Y-122618365D01*
X61443365Y-123511507D01*
X60960000Y-124678453D01*
X55245000Y-124678453D01*
X55245000Y-124489453D01*
X55122985Y-124194883D01*
X55060784Y-123882177D01*
X54883650Y-123617077D01*
X54761635Y-123322507D01*
X54536180Y-123097052D01*
X54359047Y-122831953D01*
X54093947Y-122654819D01*
X53868493Y-122429365D01*
X53573923Y-122307350D01*
X53308823Y-122130216D01*
X52996117Y-122068015D01*
X52701547Y-121946000D01*
X48523026Y-121946000D01*
X47900010Y-121322985D01*
X47900010Y-116589453D01*
X48895000Y-116589453D01*
X48895000Y-117852547D01*
X49378365Y-119019493D01*
X50271507Y-119912635D01*
X51438453Y-120396000D01*
X52701547Y-120396000D01*
X53868493Y-119912635D01*
X54761635Y-119019493D01*
X55245000Y-117852547D01*
X55245000Y-116778453D01*
X60960000Y-116778453D01*
X60960000Y-118041547D01*
X61443365Y-119208493D01*
X62336507Y-120101635D01*
X63503453Y-120585000D01*
X64766547Y-120585000D01*
X65933493Y-120101635D01*
X66826635Y-119208493D01*
X67310000Y-118041547D01*
X67310000Y-116918453D01*
X74295000Y-116918453D01*
X74295000Y-118181547D01*
X74778365Y-119348493D01*
X75671507Y-120241635D01*
X76838453Y-120725000D01*
X78101547Y-120725000D01*
X79268493Y-120241635D01*
X80161635Y-119348493D01*
X80645000Y-118181547D01*
X80645000Y-116918453D01*
X80613934Y-116843453D01*
X86995000Y-116843453D01*
X86995000Y-118106547D01*
X87478365Y-119273493D01*
X88371507Y-120166635D01*
X89538453Y-120650000D01*
X90801547Y-120650000D01*
X91968493Y-120166635D01*
X92861635Y-119273493D01*
X93345000Y-118106547D01*
X93345000Y-116843453D01*
X93239790Y-116589453D01*
X99695000Y-116589453D01*
X99695000Y-117852547D01*
X100178365Y-119019493D01*
X101071507Y-119912635D01*
X102238453Y-120396000D01*
X103501547Y-120396000D01*
X104668493Y-119912635D01*
X105561635Y-119019493D01*
X106045000Y-117852547D01*
X106045000Y-116589453D01*
X112395000Y-116589453D01*
X112395000Y-117852547D01*
X112878365Y-119019493D01*
X113771507Y-119912635D01*
X114938453Y-120396000D01*
X116201547Y-120396000D01*
X117368493Y-119912635D01*
X118261635Y-119019493D01*
X118745000Y-117852547D01*
X118745000Y-116651453D01*
X125095000Y-116651453D01*
X125095000Y-117914547D01*
X125578365Y-119081493D01*
X126471507Y-119974635D01*
X127638453Y-120458000D01*
X128901547Y-120458000D01*
X130068493Y-119974635D01*
X130961635Y-119081493D01*
X131445000Y-117914547D01*
X131445000Y-116651453D01*
X131419319Y-116589453D01*
X137795000Y-116589453D01*
X137795000Y-117852547D01*
X138278365Y-119019493D01*
X139171507Y-119912635D01*
X140338453Y-120396000D01*
X141601547Y-120396000D01*
X142768493Y-119912635D01*
X143661635Y-119019493D01*
X144145000Y-117852547D01*
X144145000Y-116589453D01*
X143661635Y-115422507D01*
X142768493Y-114529365D01*
X141601547Y-114046000D01*
X140338453Y-114046000D01*
X139171507Y-114529365D01*
X138278365Y-115422507D01*
X137795000Y-116589453D01*
X131419319Y-116589453D01*
X130961635Y-115484507D01*
X130068493Y-114591365D01*
X128901547Y-114108000D01*
X127638453Y-114108000D01*
X126471507Y-114591365D01*
X125578365Y-115484507D01*
X125095000Y-116651453D01*
X118745000Y-116651453D01*
X118745000Y-116589453D01*
X118261635Y-115422507D01*
X117368493Y-114529365D01*
X116201547Y-114046000D01*
X114938453Y-114046000D01*
X113771507Y-114529365D01*
X112878365Y-115422507D01*
X112395000Y-116589453D01*
X106045000Y-116589453D01*
X105561635Y-115422507D01*
X104668493Y-114529365D01*
X103501547Y-114046000D01*
X102238453Y-114046000D01*
X101071507Y-114529365D01*
X100178365Y-115422507D01*
X99695000Y-116589453D01*
X93239790Y-116589453D01*
X92861635Y-115676507D01*
X91968493Y-114783365D01*
X90801547Y-114300000D01*
X89538453Y-114300000D01*
X88371507Y-114783365D01*
X87478365Y-115676507D01*
X86995000Y-116843453D01*
X80613934Y-116843453D01*
X80161635Y-115751507D01*
X79268493Y-114858365D01*
X78101547Y-114375000D01*
X76838453Y-114375000D01*
X75671507Y-114858365D01*
X74778365Y-115751507D01*
X74295000Y-116918453D01*
X67310000Y-116918453D01*
X67310000Y-116778453D01*
X66826635Y-115611507D01*
X65933493Y-114718365D01*
X64766547Y-114235000D01*
X63503453Y-114235000D01*
X62336507Y-114718365D01*
X61443365Y-115611507D01*
X60960000Y-116778453D01*
X55245000Y-116778453D01*
X55245000Y-116589453D01*
X54761635Y-115422507D01*
X53868493Y-114529365D01*
X52701547Y-114046000D01*
X51438453Y-114046000D01*
X50271507Y-114529365D01*
X49378365Y-115422507D01*
X48895000Y-116589453D01*
X47900010Y-116589453D01*
X47900010Y-110829513D01*
X156616782Y-110829513D01*
X156616782Y-112092607D01*
X157100147Y-113259553D01*
X157993289Y-114152695D01*
X159160235Y-114636060D01*
X160423329Y-114636060D01*
X161590275Y-114152695D01*
X162483417Y-113259553D01*
X162966782Y-112092607D01*
X162966782Y-110829513D01*
X164516782Y-110829513D01*
X164516782Y-112092607D01*
X165000147Y-113259553D01*
X165893289Y-114152695D01*
X167060235Y-114636060D01*
X168323329Y-114636060D01*
X169490275Y-114152695D01*
X170383417Y-113259553D01*
X170866782Y-112092607D01*
X170866782Y-110829513D01*
X170383417Y-109662567D01*
X169490275Y-108769425D01*
X168323329Y-108286060D01*
X167060235Y-108286060D01*
X165893289Y-108769425D01*
X165000147Y-109662567D01*
X164516782Y-110829513D01*
X162966782Y-110829513D01*
X162483417Y-109662567D01*
X161590275Y-108769425D01*
X160423329Y-108286060D01*
X159160235Y-108286060D01*
X157993289Y-108769425D01*
X157100147Y-109662567D01*
X156616782Y-110829513D01*
X47900010Y-110829513D01*
X47900010Y-90148107D01*
X48988180Y-90148107D01*
X48988180Y-91411201D01*
X49471545Y-92578147D01*
X50364687Y-93471289D01*
X51531633Y-93954654D01*
X52794727Y-93954654D01*
X53961673Y-93471289D01*
X54854815Y-92578147D01*
X55338180Y-91411201D01*
X55338180Y-90681671D01*
X71456060Y-90681671D01*
X71456060Y-91944765D01*
X71939425Y-93111711D01*
X72832567Y-94004853D01*
X73999513Y-94488218D01*
X75262607Y-94488218D01*
X76429553Y-94004853D01*
X77322695Y-93111711D01*
X77806060Y-91944765D01*
X77806060Y-90681671D01*
X77543035Y-90046671D01*
X93046060Y-90046671D01*
X93046060Y-91309765D01*
X93529425Y-92476711D01*
X94422567Y-93369853D01*
X95589513Y-93853218D01*
X96852607Y-93853218D01*
X98019553Y-93369853D01*
X98912695Y-92476711D01*
X99396060Y-91309765D01*
X99396060Y-90046671D01*
X113366060Y-90046671D01*
X113366060Y-91309765D01*
X113849425Y-92476711D01*
X114742567Y-93369853D01*
X115909513Y-93853218D01*
X117172607Y-93853218D01*
X118339553Y-93369853D01*
X119232695Y-92476711D01*
X119716060Y-91309765D01*
X119716060Y-90046671D01*
X119663455Y-89919671D01*
X134321060Y-89919671D01*
X134321060Y-91182765D01*
X134804425Y-92349711D01*
X135697567Y-93242853D01*
X136864513Y-93726218D01*
X138127607Y-93726218D01*
X139294553Y-93242853D01*
X140187695Y-92349711D01*
X140671060Y-91182765D01*
X140671060Y-90954197D01*
X156210000Y-90954197D01*
X156210000Y-92217291D01*
X156693365Y-93384237D01*
X157586507Y-94277379D01*
X158753453Y-94760744D01*
X160016547Y-94760744D01*
X161183493Y-94277379D01*
X162076635Y-93384237D01*
X162560000Y-92217291D01*
X162560000Y-90954197D01*
X162076635Y-89787251D01*
X161183493Y-88894109D01*
X160016547Y-88410744D01*
X158753453Y-88410744D01*
X157586507Y-88894109D01*
X156693365Y-89787251D01*
X156210000Y-90954197D01*
X140671060Y-90954197D01*
X140671060Y-89919671D01*
X140187695Y-88752725D01*
X139294553Y-87859583D01*
X138127607Y-87376218D01*
X136864513Y-87376218D01*
X135697567Y-87859583D01*
X134804425Y-88752725D01*
X134321060Y-89919671D01*
X119663455Y-89919671D01*
X119232695Y-88879725D01*
X118339553Y-87986583D01*
X117172607Y-87503218D01*
X115909513Y-87503218D01*
X114742567Y-87986583D01*
X113849425Y-88879725D01*
X113366060Y-90046671D01*
X99396060Y-90046671D01*
X98912695Y-88879725D01*
X98019553Y-87986583D01*
X96852607Y-87503218D01*
X95589513Y-87503218D01*
X94422567Y-87986583D01*
X93529425Y-88879725D01*
X93046060Y-90046671D01*
X77543035Y-90046671D01*
X77322695Y-89514725D01*
X76429553Y-88621583D01*
X75262607Y-88138218D01*
X73999513Y-88138218D01*
X72832567Y-88621583D01*
X71939425Y-89514725D01*
X71456060Y-90681671D01*
X55338180Y-90681671D01*
X55338180Y-90148107D01*
X54854815Y-88981161D01*
X53961673Y-88088019D01*
X52794727Y-87604654D01*
X51531633Y-87604654D01*
X50364687Y-88088019D01*
X49471545Y-88981161D01*
X48988180Y-90148107D01*
X47900010Y-90148107D01*
X47900010Y-82248107D01*
X48988180Y-82248107D01*
X48988180Y-83511201D01*
X49471545Y-84678147D01*
X50364687Y-85571289D01*
X51531633Y-86054654D01*
X52794727Y-86054654D01*
X53961673Y-85571289D01*
X54854815Y-84678147D01*
X55338180Y-83511201D01*
X55338180Y-82781671D01*
X71456060Y-82781671D01*
X71456060Y-84044765D01*
X71939425Y-85211711D01*
X72832567Y-86104853D01*
X73999513Y-86588218D01*
X75262607Y-86588218D01*
X76429553Y-86104853D01*
X77322695Y-85211711D01*
X77806060Y-84044765D01*
X77806060Y-82781671D01*
X77543035Y-82146671D01*
X93046060Y-82146671D01*
X93046060Y-83409765D01*
X93529425Y-84576711D01*
X94422567Y-85469853D01*
X95589513Y-85953218D01*
X96852607Y-85953218D01*
X98019553Y-85469853D01*
X98912695Y-84576711D01*
X99396060Y-83409765D01*
X99396060Y-82146671D01*
X113366060Y-82146671D01*
X113366060Y-83409765D01*
X113849425Y-84576711D01*
X114742567Y-85469853D01*
X115909513Y-85953218D01*
X117172607Y-85953218D01*
X118339553Y-85469853D01*
X119232695Y-84576711D01*
X119716060Y-83409765D01*
X119716060Y-82146671D01*
X119663455Y-82019671D01*
X134321060Y-82019671D01*
X134321060Y-83282765D01*
X134804425Y-84449711D01*
X135697567Y-85342853D01*
X136864513Y-85826218D01*
X138127607Y-85826218D01*
X139294553Y-85342853D01*
X140187695Y-84449711D01*
X140671060Y-83282765D01*
X140671060Y-83054197D01*
X156210000Y-83054197D01*
X156210000Y-84317291D01*
X156693365Y-85484237D01*
X157586507Y-86377379D01*
X158753453Y-86860744D01*
X160016547Y-86860744D01*
X161183493Y-86377379D01*
X162076635Y-85484237D01*
X162560000Y-84317291D01*
X162560000Y-83054197D01*
X162076635Y-81887251D01*
X161183493Y-80994109D01*
X160016547Y-80510744D01*
X158753453Y-80510744D01*
X157586507Y-80994109D01*
X156693365Y-81887251D01*
X156210000Y-83054197D01*
X140671060Y-83054197D01*
X140671060Y-82019671D01*
X140187695Y-80852725D01*
X139294553Y-79959583D01*
X138127607Y-79476218D01*
X136864513Y-79476218D01*
X135697567Y-79959583D01*
X134804425Y-80852725D01*
X134321060Y-82019671D01*
X119663455Y-82019671D01*
X119232695Y-80979725D01*
X118339553Y-80086583D01*
X117172607Y-79603218D01*
X115909513Y-79603218D01*
X114742567Y-80086583D01*
X113849425Y-80979725D01*
X113366060Y-82146671D01*
X99396060Y-82146671D01*
X98912695Y-80979725D01*
X98019553Y-80086583D01*
X96852607Y-79603218D01*
X95589513Y-79603218D01*
X94422567Y-80086583D01*
X93529425Y-80979725D01*
X93046060Y-82146671D01*
X77543035Y-82146671D01*
X77322695Y-81614725D01*
X76429553Y-80721583D01*
X75262607Y-80238218D01*
X73999513Y-80238218D01*
X72832567Y-80721583D01*
X71939425Y-81614725D01*
X71456060Y-82781671D01*
X55338180Y-82781671D01*
X55338180Y-82248107D01*
X54854815Y-81081161D01*
X53961673Y-80188019D01*
X52794727Y-79704654D01*
X51531633Y-79704654D01*
X50364687Y-80188019D01*
X49471545Y-81081161D01*
X48988180Y-82248107D01*
X47900010Y-82248107D01*
X47900010Y-68782915D01*
X48067927Y-68614999D01*
X53975000Y-68614999D01*
X53975000Y-68705080D01*
X54048687Y-69075529D01*
X54329383Y-69495618D01*
X54749472Y-69776313D01*
X55245000Y-69874880D01*
X55740529Y-69776313D01*
X56160618Y-69495618D01*
X56441313Y-69075529D01*
X56515000Y-68705080D01*
X56515000Y-68614999D01*
X61209796Y-68614999D01*
X61522501Y-68677200D01*
X61835206Y-68614999D01*
X61835207Y-68614999D01*
X62761324Y-68430783D01*
X63811548Y-67729046D01*
X63988684Y-67463943D01*
X64107628Y-67344999D01*
X76835000Y-67344999D01*
X76835000Y-68767625D01*
X76945529Y-69323293D01*
X77366572Y-69953428D01*
X77996706Y-70374471D01*
X78740000Y-70522321D01*
X79483293Y-70374471D01*
X80113428Y-69953428D01*
X80534471Y-69323294D01*
X80645000Y-68767626D01*
X80645000Y-67344999D01*
X99060000Y-67344999D01*
X99060000Y-68767625D01*
X99170529Y-69323293D01*
X99591572Y-69953428D01*
X100221706Y-70374471D01*
X100965000Y-70522321D01*
X101708293Y-70374471D01*
X102338428Y-69953428D01*
X102759471Y-69323294D01*
X102870000Y-68767626D01*
X102870000Y-67344999D01*
X118668800Y-67344999D01*
X118668800Y-67750494D01*
X118631480Y-67938115D01*
X118668800Y-68125736D01*
X118668800Y-68125740D01*
X118745000Y-68508824D01*
X118745000Y-68767625D01*
X118855529Y-69323293D01*
X119276572Y-69953428D01*
X119906706Y-70374471D01*
X120650000Y-70522321D01*
X121393293Y-70374471D01*
X122023428Y-69953428D01*
X122444471Y-69323294D01*
X122555000Y-68767626D01*
X122555000Y-68201935D01*
X122592320Y-68014314D01*
X122555000Y-67826693D01*
X122555000Y-67826690D01*
X122478800Y-67443605D01*
X122478800Y-67344999D01*
X139700000Y-67344999D01*
X139700000Y-68767625D01*
X139810529Y-69323293D01*
X140231572Y-69953428D01*
X140861706Y-70374471D01*
X141605000Y-70522321D01*
X142348293Y-70374471D01*
X142978428Y-69953428D01*
X143399471Y-69323294D01*
X143510000Y-68767626D01*
X143510000Y-67344999D01*
X160020001Y-67344999D01*
X160020000Y-69675151D01*
X160130529Y-70230819D01*
X160551572Y-70860954D01*
X161181706Y-71281997D01*
X161925000Y-71429847D01*
X162668293Y-71281997D01*
X163298428Y-70860954D01*
X163719471Y-70230820D01*
X163830000Y-69675152D01*
X163830000Y-66702122D01*
X164176671Y-66183293D01*
X164324521Y-65439999D01*
X164176671Y-64696705D01*
X163755628Y-64066571D01*
X163125494Y-63645528D01*
X162569826Y-63534999D01*
X162569820Y-63534999D01*
X162382199Y-63497679D01*
X162194578Y-63534999D01*
X141157621Y-63534999D01*
X140970000Y-63497679D01*
X140782379Y-63534999D01*
X120761426Y-63534999D01*
X120573800Y-63497678D01*
X120386174Y-63534999D01*
X101051021Y-63534999D01*
X100863400Y-63497679D01*
X100675779Y-63534999D01*
X78927626Y-63534999D01*
X78740000Y-63497678D01*
X78552374Y-63534999D01*
X65685000Y-63534999D01*
X65685000Y-57788453D01*
X65579790Y-57534453D01*
X141885000Y-57534453D01*
X141885000Y-58797547D01*
X142368365Y-59964493D01*
X143261507Y-60857635D01*
X144428453Y-61341000D01*
X145691547Y-61341000D01*
X146858493Y-60857635D01*
X147751635Y-59964493D01*
X148235000Y-58797547D01*
X148235000Y-57534453D01*
X147751635Y-56367507D01*
X146858493Y-55474365D01*
X145691547Y-54991000D01*
X144428453Y-54991000D01*
X143261507Y-55474365D01*
X142368365Y-56367507D01*
X141885000Y-57534453D01*
X65579790Y-57534453D01*
X65562985Y-57493883D01*
X65500784Y-57181177D01*
X65323650Y-56916077D01*
X65201635Y-56621507D01*
X64976181Y-56396053D01*
X64799047Y-56130953D01*
X64533947Y-55953819D01*
X64308493Y-55728365D01*
X64013921Y-55606349D01*
X63748822Y-55429216D01*
X63436118Y-55367015D01*
X63141547Y-55245000D01*
X62822706Y-55245000D01*
X62510000Y-55182799D01*
X62197294Y-55245000D01*
X61878453Y-55245000D01*
X61583883Y-55367015D01*
X61271177Y-55429216D01*
X61006077Y-55606350D01*
X60711507Y-55728365D01*
X60486053Y-55953819D01*
X60220953Y-56130953D01*
X60043819Y-56396053D01*
X59818365Y-56621507D01*
X59696349Y-56916079D01*
X59519216Y-57181178D01*
X59457015Y-57493882D01*
X59335000Y-57788453D01*
X59335000Y-58107295D01*
X59335001Y-62264999D01*
X47065504Y-62264999D01*
X46752799Y-62202798D01*
X46440094Y-62264999D01*
X46440093Y-62264999D01*
X45513976Y-62449215D01*
X44463752Y-63150952D01*
X44286618Y-63416052D01*
X42701064Y-65001607D01*
X42620000Y-65055772D01*
X42620000Y-50380653D01*
X44881800Y-50380653D01*
X44881800Y-51219347D01*
X45202754Y-51994199D01*
X45795801Y-52587246D01*
X46570653Y-52908200D01*
X47409347Y-52908200D01*
X47899915Y-52705000D01*
X95997765Y-52705000D01*
X96085854Y-53147855D01*
X96214241Y-53340000D01*
X96085854Y-53532145D01*
X95997765Y-53975000D01*
X96085854Y-54417855D01*
X96214241Y-54610000D01*
X96085854Y-54802145D01*
X95997765Y-55245000D01*
X96085854Y-55687855D01*
X96336711Y-56063289D01*
X96712145Y-56314146D01*
X97043217Y-56380000D01*
X97266783Y-56380000D01*
X97597855Y-56314146D01*
X97790000Y-56185759D01*
X97982145Y-56314146D01*
X98313217Y-56380000D01*
X98536783Y-56380000D01*
X98867855Y-56314146D01*
X99243289Y-56063289D01*
X99494146Y-55687855D01*
X99582235Y-55245000D01*
X99494146Y-54802145D01*
X99365759Y-54610000D01*
X99494146Y-54417855D01*
X99582235Y-53975000D01*
X99494146Y-53532145D01*
X99365759Y-53340000D01*
X99494146Y-53147855D01*
X99582235Y-52705000D01*
X99494146Y-52262145D01*
X99365759Y-52070000D01*
X99494146Y-51877855D01*
X99582235Y-51435000D01*
X99494146Y-50992145D01*
X99243289Y-50616711D01*
X98890004Y-50380653D01*
X142671800Y-50380653D01*
X142671800Y-51219347D01*
X142992754Y-51994199D01*
X143585801Y-52587246D01*
X144360653Y-52908200D01*
X145199347Y-52908200D01*
X145974199Y-52587246D01*
X146567246Y-51994199D01*
X146888200Y-51219347D01*
X146888200Y-50380653D01*
X146567246Y-49605801D01*
X145974199Y-49012754D01*
X145199347Y-48691800D01*
X144360653Y-48691800D01*
X143585801Y-49012754D01*
X142992754Y-49605801D01*
X142671800Y-50380653D01*
X98890004Y-50380653D01*
X98867855Y-50365854D01*
X98536783Y-50300000D01*
X98313217Y-50300000D01*
X97982145Y-50365854D01*
X97964164Y-50377869D01*
X97902765Y-50336843D01*
X97655000Y-50287560D01*
X96655000Y-50287560D01*
X96407235Y-50336843D01*
X96197191Y-50477191D01*
X96056843Y-50687235D01*
X96007560Y-50935000D01*
X96007560Y-51935000D01*
X96056843Y-52182765D01*
X96097869Y-52244164D01*
X96085854Y-52262145D01*
X95997765Y-52705000D01*
X47899915Y-52705000D01*
X48184199Y-52587246D01*
X48777246Y-51994199D01*
X49098200Y-51219347D01*
X49098200Y-50380653D01*
X48777246Y-49605801D01*
X48184199Y-49012754D01*
X47409347Y-48691800D01*
X46570653Y-48691800D01*
X45795801Y-49012754D01*
X45202754Y-49605801D01*
X44881800Y-50380653D01*
X42620000Y-50380653D01*
X42620000Y-47052119D01*
X42664065Y-46802213D01*
X42759405Y-46637080D01*
X42905477Y-46514512D01*
X43114465Y-46438445D01*
X43210996Y-46430000D01*
X189167881Y-46430000D01*
X189417787Y-46474065D01*
X189417787Y-46474065D01*
G37*
X189417787Y-46474065D02*
X189582920Y-46569405D01*
X189705488Y-46715477D01*
X189781555Y-46924465D01*
X189790000Y-47020996D01*
X189790001Y-145987875D01*
X189745935Y-146237787D01*
X189650596Y-146402919D01*
X189504524Y-146525488D01*
X189295532Y-146601555D01*
X189199004Y-146610000D01*
X43242119Y-146610000D01*
X42992213Y-146565935D01*
X42827081Y-146470596D01*
X42704512Y-146324524D01*
X42628445Y-146115532D01*
X42620000Y-146019004D01*
X42620000Y-141947653D01*
X44729400Y-141947653D01*
X44729400Y-142786347D01*
X45050354Y-143561199D01*
X45643401Y-144154246D01*
X46418253Y-144475200D01*
X47256947Y-144475200D01*
X48031799Y-144154246D01*
X48624846Y-143561199D01*
X48945800Y-142786347D01*
X48945800Y-142074653D01*
X142671800Y-142074653D01*
X142671800Y-142913347D01*
X142992754Y-143688199D01*
X143585801Y-144281246D01*
X144360653Y-144602200D01*
X145199347Y-144602200D01*
X145974199Y-144281246D01*
X146567246Y-143688199D01*
X146888200Y-142913347D01*
X146888200Y-142074653D01*
X146567246Y-141299801D01*
X145974199Y-140706754D01*
X145199347Y-140385800D01*
X144360653Y-140385800D01*
X143585801Y-140706754D01*
X142992754Y-141299801D01*
X142671800Y-142074653D01*
X48945800Y-142074653D01*
X48945800Y-141947653D01*
X48624846Y-141172801D01*
X48031799Y-140579754D01*
X47256947Y-140258800D01*
X46418253Y-140258800D01*
X45643401Y-140579754D01*
X45050354Y-141172801D01*
X44729400Y-141947653D01*
X42620000Y-141947653D01*
X42620000Y-125050129D01*
X42701066Y-125104295D01*
X44741716Y-127144946D01*
X44918851Y-127410047D01*
X45969075Y-128111784D01*
X46895192Y-128296000D01*
X46895193Y-128296000D01*
X47207898Y-128358201D01*
X47520603Y-128296000D01*
X52701547Y-128296000D01*
X52996117Y-128173985D01*
X53308823Y-128111784D01*
X53573923Y-127934650D01*
X53868493Y-127812635D01*
X54093947Y-127587181D01*
X54359047Y-127410047D01*
X54536181Y-127144947D01*
X54761635Y-126919493D01*
X54883650Y-126624923D01*
X55060784Y-126359823D01*
X55122985Y-126047117D01*
X55245000Y-125752547D01*
X55245000Y-125433706D01*
X55307201Y-125121000D01*
X55245000Y-124808294D01*
X55245000Y-124678453D01*
X60960000Y-124678453D01*
X60960000Y-125941547D01*
X61443365Y-127108493D01*
X62336507Y-128001635D01*
X63503453Y-128485000D01*
X64766547Y-128485000D01*
X65933493Y-128001635D01*
X66826635Y-127108493D01*
X67310000Y-125941547D01*
X67310000Y-124818453D01*
X74295000Y-124818453D01*
X74295000Y-126081547D01*
X74778365Y-127248493D01*
X75671507Y-128141635D01*
X76838453Y-128625000D01*
X78101547Y-128625000D01*
X79268493Y-128141635D01*
X80161635Y-127248493D01*
X80645000Y-126081547D01*
X80645000Y-124818453D01*
X80613934Y-124743453D01*
X86995000Y-124743453D01*
X86995000Y-126006547D01*
X87478365Y-127173493D01*
X88371507Y-128066635D01*
X89538453Y-128550000D01*
X90801547Y-128550000D01*
X91968493Y-128066635D01*
X92861635Y-127173493D01*
X93345000Y-126006547D01*
X93345000Y-124743453D01*
X93239790Y-124489453D01*
X99695000Y-124489453D01*
X99695000Y-125752547D01*
X100178365Y-126919493D01*
X101071507Y-127812635D01*
X102238453Y-128296000D01*
X103501547Y-128296000D01*
X104668493Y-127812635D01*
X105561635Y-126919493D01*
X106045000Y-125752547D01*
X106045000Y-124489453D01*
X112395000Y-124489453D01*
X112395000Y-125752547D01*
X112878365Y-126919493D01*
X113771507Y-127812635D01*
X114938453Y-128296000D01*
X116201547Y-128296000D01*
X117368493Y-127812635D01*
X118261635Y-126919493D01*
X118745000Y-125752547D01*
X118745000Y-124551453D01*
X125095000Y-124551453D01*
X125095000Y-125814547D01*
X125578365Y-126981493D01*
X126471507Y-127874635D01*
X127638453Y-128358000D01*
X128901547Y-128358000D01*
X130068493Y-127874635D01*
X130961635Y-126981493D01*
X131445000Y-125814547D01*
X131445000Y-124551453D01*
X131419319Y-124489453D01*
X137795000Y-124489453D01*
X137795000Y-125752547D01*
X138278365Y-126919493D01*
X139171507Y-127812635D01*
X140338453Y-128296000D01*
X141601547Y-128296000D01*
X142768493Y-127812635D01*
X143555128Y-127026000D01*
X143773026Y-127026000D01*
X147955000Y-131207974D01*
X147955001Y-134432375D01*
X147917680Y-134620000D01*
X148065530Y-135363294D01*
X148380290Y-135834366D01*
X148380293Y-135834369D01*
X148486573Y-135993428D01*
X148645632Y-136099708D01*
X150285292Y-137739368D01*
X150391572Y-137898428D01*
X150550631Y-138004708D01*
X150550633Y-138004710D01*
X150854833Y-138207970D01*
X151021706Y-138319471D01*
X151577374Y-138430000D01*
X151577379Y-138430000D01*
X151765000Y-138467320D01*
X151952621Y-138430000D01*
X183962379Y-138430000D01*
X184150000Y-138467320D01*
X184337621Y-138430000D01*
X184337626Y-138430000D01*
X184893294Y-138319471D01*
X185523428Y-137898428D01*
X185629710Y-137739366D01*
X186735968Y-136633109D01*
X186895028Y-136526828D01*
X187033811Y-136319126D01*
X187316070Y-135896695D01*
X187316071Y-135896694D01*
X187426600Y-135341026D01*
X187426600Y-135341022D01*
X187463920Y-135153401D01*
X187426600Y-134965780D01*
X187426600Y-116049721D01*
X187463920Y-115862100D01*
X187426600Y-115674479D01*
X187426600Y-115674474D01*
X187316071Y-115118806D01*
X186895028Y-114488672D01*
X186735966Y-114382390D01*
X186709210Y-114355634D01*
X186602928Y-114196572D01*
X185972794Y-113775529D01*
X185417126Y-113665000D01*
X185417121Y-113665000D01*
X185229500Y-113627680D01*
X185041879Y-113665000D01*
X182057374Y-113665000D01*
X181501706Y-113775529D01*
X180871572Y-114196572D01*
X180450529Y-114826706D01*
X180302679Y-115570000D01*
X180450529Y-116313294D01*
X180871572Y-116943428D01*
X181501706Y-117364471D01*
X182057374Y-117475000D01*
X183616600Y-117475000D01*
X183616601Y-134364322D01*
X183360924Y-134620000D01*
X169697970Y-134620000D01*
X170103417Y-134214553D01*
X170586782Y-133047607D01*
X170586782Y-131784513D01*
X170103417Y-130617567D01*
X169210275Y-129724425D01*
X168043329Y-129241060D01*
X166780235Y-129241060D01*
X165613289Y-129724425D01*
X164720147Y-130617567D01*
X164236782Y-131784513D01*
X164236782Y-133047607D01*
X164720147Y-134214553D01*
X165125594Y-134620000D01*
X161797970Y-134620000D01*
X162203417Y-134214553D01*
X162686782Y-133047607D01*
X162686782Y-131784513D01*
X162203417Y-130617567D01*
X161310275Y-129724425D01*
X160143329Y-129241060D01*
X158880235Y-129241060D01*
X157713289Y-129724425D01*
X156820147Y-130617567D01*
X156336782Y-131784513D01*
X156336782Y-133047607D01*
X156820147Y-134214553D01*
X157225594Y-134620000D01*
X152554077Y-134620000D01*
X151765000Y-133830924D01*
X151765000Y-130606518D01*
X151802320Y-130418897D01*
X151765000Y-130231276D01*
X151765000Y-130231272D01*
X151654471Y-129675604D01*
X151233428Y-129045470D01*
X151074366Y-128939188D01*
X146041812Y-123906634D01*
X145935530Y-123747572D01*
X145305396Y-123326529D01*
X144749728Y-123216000D01*
X144749723Y-123216000D01*
X144562102Y-123178680D01*
X144374481Y-123216000D01*
X143555128Y-123216000D01*
X142768493Y-122429365D01*
X141601547Y-121946000D01*
X140338453Y-121946000D01*
X139171507Y-122429365D01*
X138278365Y-123322507D01*
X137795000Y-124489453D01*
X131419319Y-124489453D01*
X130961635Y-123384507D01*
X130068493Y-122491365D01*
X128901547Y-122008000D01*
X127638453Y-122008000D01*
X126471507Y-122491365D01*
X125578365Y-123384507D01*
X125095000Y-124551453D01*
X118745000Y-124551453D01*
X118745000Y-124489453D01*
X118261635Y-123322507D01*
X117368493Y-122429365D01*
X116201547Y-121946000D01*
X114938453Y-121946000D01*
X113771507Y-122429365D01*
X112878365Y-123322507D01*
X112395000Y-124489453D01*
X106045000Y-124489453D01*
X105561635Y-123322507D01*
X104668493Y-122429365D01*
X103501547Y-121946000D01*
X102238453Y-121946000D01*
X101071507Y-122429365D01*
X100178365Y-123322507D01*
X99695000Y-124489453D01*
X93239790Y-124489453D01*
X92861635Y-123576507D01*
X91968493Y-122683365D01*
X90801547Y-122200000D01*
X89538453Y-122200000D01*
X88371507Y-122683365D01*
X87478365Y-123576507D01*
X86995000Y-124743453D01*
X80613934Y-124743453D01*
X80161635Y-123651507D01*
X79268493Y-122758365D01*
X78101547Y-122275000D01*
X76838453Y-122275000D01*
X75671507Y-122758365D01*
X74778365Y-123651507D01*
X74295000Y-124818453D01*
X67310000Y-124818453D01*
X67310000Y-124678453D01*
X66826635Y-123511507D01*
X65933493Y-122618365D01*
X64766547Y-122135000D01*
X63503453Y-122135000D01*
X62336507Y-122618365D01*
X61443365Y-123511507D01*
X60960000Y-124678453D01*
X55245000Y-124678453D01*
X55245000Y-124489453D01*
X55122985Y-124194883D01*
X55060784Y-123882177D01*
X54883650Y-123617077D01*
X54761635Y-123322507D01*
X54536180Y-123097052D01*
X54359047Y-122831953D01*
X54093947Y-122654819D01*
X53868493Y-122429365D01*
X53573923Y-122307350D01*
X53308823Y-122130216D01*
X52996117Y-122068015D01*
X52701547Y-121946000D01*
X48523026Y-121946000D01*
X47900010Y-121322985D01*
X47900010Y-116589453D01*
X48895000Y-116589453D01*
X48895000Y-117852547D01*
X49378365Y-119019493D01*
X50271507Y-119912635D01*
X51438453Y-120396000D01*
X52701547Y-120396000D01*
X53868493Y-119912635D01*
X54761635Y-119019493D01*
X55245000Y-117852547D01*
X55245000Y-116778453D01*
X60960000Y-116778453D01*
X60960000Y-118041547D01*
X61443365Y-119208493D01*
X62336507Y-120101635D01*
X63503453Y-120585000D01*
X64766547Y-120585000D01*
X65933493Y-120101635D01*
X66826635Y-119208493D01*
X67310000Y-118041547D01*
X67310000Y-116918453D01*
X74295000Y-116918453D01*
X74295000Y-118181547D01*
X74778365Y-119348493D01*
X75671507Y-120241635D01*
X76838453Y-120725000D01*
X78101547Y-120725000D01*
X79268493Y-120241635D01*
X80161635Y-119348493D01*
X80645000Y-118181547D01*
X80645000Y-116918453D01*
X80613934Y-116843453D01*
X86995000Y-116843453D01*
X86995000Y-118106547D01*
X87478365Y-119273493D01*
X88371507Y-120166635D01*
X89538453Y-120650000D01*
X90801547Y-120650000D01*
X91968493Y-120166635D01*
X92861635Y-119273493D01*
X93345000Y-118106547D01*
X93345000Y-116843453D01*
X93239790Y-116589453D01*
X99695000Y-116589453D01*
X99695000Y-117852547D01*
X100178365Y-119019493D01*
X101071507Y-119912635D01*
X102238453Y-120396000D01*
X103501547Y-120396000D01*
X104668493Y-119912635D01*
X105561635Y-119019493D01*
X106045000Y-117852547D01*
X106045000Y-116589453D01*
X112395000Y-116589453D01*
X112395000Y-117852547D01*
X112878365Y-119019493D01*
X113771507Y-119912635D01*
X114938453Y-120396000D01*
X116201547Y-120396000D01*
X117368493Y-119912635D01*
X118261635Y-119019493D01*
X118745000Y-117852547D01*
X118745000Y-116651453D01*
X125095000Y-116651453D01*
X125095000Y-117914547D01*
X125578365Y-119081493D01*
X126471507Y-119974635D01*
X127638453Y-120458000D01*
X128901547Y-120458000D01*
X130068493Y-119974635D01*
X130961635Y-119081493D01*
X131445000Y-117914547D01*
X131445000Y-116651453D01*
X131419319Y-116589453D01*
X137795000Y-116589453D01*
X137795000Y-117852547D01*
X138278365Y-119019493D01*
X139171507Y-119912635D01*
X140338453Y-120396000D01*
X141601547Y-120396000D01*
X142768493Y-119912635D01*
X143661635Y-119019493D01*
X144145000Y-117852547D01*
X144145000Y-116589453D01*
X143661635Y-115422507D01*
X142768493Y-114529365D01*
X141601547Y-114046000D01*
X140338453Y-114046000D01*
X139171507Y-114529365D01*
X138278365Y-115422507D01*
X137795000Y-116589453D01*
X131419319Y-116589453D01*
X130961635Y-115484507D01*
X130068493Y-114591365D01*
X128901547Y-114108000D01*
X127638453Y-114108000D01*
X126471507Y-114591365D01*
X125578365Y-115484507D01*
X125095000Y-116651453D01*
X118745000Y-116651453D01*
X118745000Y-116589453D01*
X118261635Y-115422507D01*
X117368493Y-114529365D01*
X116201547Y-114046000D01*
X114938453Y-114046000D01*
X113771507Y-114529365D01*
X112878365Y-115422507D01*
X112395000Y-116589453D01*
X106045000Y-116589453D01*
X105561635Y-115422507D01*
X104668493Y-114529365D01*
X103501547Y-114046000D01*
X102238453Y-114046000D01*
X101071507Y-114529365D01*
X100178365Y-115422507D01*
X99695000Y-116589453D01*
X93239790Y-116589453D01*
X92861635Y-115676507D01*
X91968493Y-114783365D01*
X90801547Y-114300000D01*
X89538453Y-114300000D01*
X88371507Y-114783365D01*
X87478365Y-115676507D01*
X86995000Y-116843453D01*
X80613934Y-116843453D01*
X80161635Y-115751507D01*
X79268493Y-114858365D01*
X78101547Y-114375000D01*
X76838453Y-114375000D01*
X75671507Y-114858365D01*
X74778365Y-115751507D01*
X74295000Y-116918453D01*
X67310000Y-116918453D01*
X67310000Y-116778453D01*
X66826635Y-115611507D01*
X65933493Y-114718365D01*
X64766547Y-114235000D01*
X63503453Y-114235000D01*
X62336507Y-114718365D01*
X61443365Y-115611507D01*
X60960000Y-116778453D01*
X55245000Y-116778453D01*
X55245000Y-116589453D01*
X54761635Y-115422507D01*
X53868493Y-114529365D01*
X52701547Y-114046000D01*
X51438453Y-114046000D01*
X50271507Y-114529365D01*
X49378365Y-115422507D01*
X48895000Y-116589453D01*
X47900010Y-116589453D01*
X47900010Y-110829513D01*
X156616782Y-110829513D01*
X156616782Y-112092607D01*
X157100147Y-113259553D01*
X157993289Y-114152695D01*
X159160235Y-114636060D01*
X160423329Y-114636060D01*
X161590275Y-114152695D01*
X162483417Y-113259553D01*
X162966782Y-112092607D01*
X162966782Y-110829513D01*
X164516782Y-110829513D01*
X164516782Y-112092607D01*
X165000147Y-113259553D01*
X165893289Y-114152695D01*
X167060235Y-114636060D01*
X168323329Y-114636060D01*
X169490275Y-114152695D01*
X170383417Y-113259553D01*
X170866782Y-112092607D01*
X170866782Y-110829513D01*
X170383417Y-109662567D01*
X169490275Y-108769425D01*
X168323329Y-108286060D01*
X167060235Y-108286060D01*
X165893289Y-108769425D01*
X165000147Y-109662567D01*
X164516782Y-110829513D01*
X162966782Y-110829513D01*
X162483417Y-109662567D01*
X161590275Y-108769425D01*
X160423329Y-108286060D01*
X159160235Y-108286060D01*
X157993289Y-108769425D01*
X157100147Y-109662567D01*
X156616782Y-110829513D01*
X47900010Y-110829513D01*
X47900010Y-90148107D01*
X48988180Y-90148107D01*
X48988180Y-91411201D01*
X49471545Y-92578147D01*
X50364687Y-93471289D01*
X51531633Y-93954654D01*
X52794727Y-93954654D01*
X53961673Y-93471289D01*
X54854815Y-92578147D01*
X55338180Y-91411201D01*
X55338180Y-90681671D01*
X71456060Y-90681671D01*
X71456060Y-91944765D01*
X71939425Y-93111711D01*
X72832567Y-94004853D01*
X73999513Y-94488218D01*
X75262607Y-94488218D01*
X76429553Y-94004853D01*
X77322695Y-93111711D01*
X77806060Y-91944765D01*
X77806060Y-90681671D01*
X77543035Y-90046671D01*
X93046060Y-90046671D01*
X93046060Y-91309765D01*
X93529425Y-92476711D01*
X94422567Y-93369853D01*
X95589513Y-93853218D01*
X96852607Y-93853218D01*
X98019553Y-93369853D01*
X98912695Y-92476711D01*
X99396060Y-91309765D01*
X99396060Y-90046671D01*
X113366060Y-90046671D01*
X113366060Y-91309765D01*
X113849425Y-92476711D01*
X114742567Y-93369853D01*
X115909513Y-93853218D01*
X117172607Y-93853218D01*
X118339553Y-93369853D01*
X119232695Y-92476711D01*
X119716060Y-91309765D01*
X119716060Y-90046671D01*
X119663455Y-89919671D01*
X134321060Y-89919671D01*
X134321060Y-91182765D01*
X134804425Y-92349711D01*
X135697567Y-93242853D01*
X136864513Y-93726218D01*
X138127607Y-93726218D01*
X139294553Y-93242853D01*
X140187695Y-92349711D01*
X140671060Y-91182765D01*
X140671060Y-90954197D01*
X156210000Y-90954197D01*
X156210000Y-92217291D01*
X156693365Y-93384237D01*
X157586507Y-94277379D01*
X158753453Y-94760744D01*
X160016547Y-94760744D01*
X161183493Y-94277379D01*
X162076635Y-93384237D01*
X162560000Y-92217291D01*
X162560000Y-90954197D01*
X162076635Y-89787251D01*
X161183493Y-88894109D01*
X160016547Y-88410744D01*
X158753453Y-88410744D01*
X157586507Y-88894109D01*
X156693365Y-89787251D01*
X156210000Y-90954197D01*
X140671060Y-90954197D01*
X140671060Y-89919671D01*
X140187695Y-88752725D01*
X139294553Y-87859583D01*
X138127607Y-87376218D01*
X136864513Y-87376218D01*
X135697567Y-87859583D01*
X134804425Y-88752725D01*
X134321060Y-89919671D01*
X119663455Y-89919671D01*
X119232695Y-88879725D01*
X118339553Y-87986583D01*
X117172607Y-87503218D01*
X115909513Y-87503218D01*
X114742567Y-87986583D01*
X113849425Y-88879725D01*
X113366060Y-90046671D01*
X99396060Y-90046671D01*
X98912695Y-88879725D01*
X98019553Y-87986583D01*
X96852607Y-87503218D01*
X95589513Y-87503218D01*
X94422567Y-87986583D01*
X93529425Y-88879725D01*
X93046060Y-90046671D01*
X77543035Y-90046671D01*
X77322695Y-89514725D01*
X76429553Y-88621583D01*
X75262607Y-88138218D01*
X73999513Y-88138218D01*
X72832567Y-88621583D01*
X71939425Y-89514725D01*
X71456060Y-90681671D01*
X55338180Y-90681671D01*
X55338180Y-90148107D01*
X54854815Y-88981161D01*
X53961673Y-88088019D01*
X52794727Y-87604654D01*
X51531633Y-87604654D01*
X50364687Y-88088019D01*
X49471545Y-88981161D01*
X48988180Y-90148107D01*
X47900010Y-90148107D01*
X47900010Y-82248107D01*
X48988180Y-82248107D01*
X48988180Y-83511201D01*
X49471545Y-84678147D01*
X50364687Y-85571289D01*
X51531633Y-86054654D01*
X52794727Y-86054654D01*
X53961673Y-85571289D01*
X54854815Y-84678147D01*
X55338180Y-83511201D01*
X55338180Y-82781671D01*
X71456060Y-82781671D01*
X71456060Y-84044765D01*
X71939425Y-85211711D01*
X72832567Y-86104853D01*
X73999513Y-86588218D01*
X75262607Y-86588218D01*
X76429553Y-86104853D01*
X77322695Y-85211711D01*
X77806060Y-84044765D01*
X77806060Y-82781671D01*
X77543035Y-82146671D01*
X93046060Y-82146671D01*
X93046060Y-83409765D01*
X93529425Y-84576711D01*
X94422567Y-85469853D01*
X95589513Y-85953218D01*
X96852607Y-85953218D01*
X98019553Y-85469853D01*
X98912695Y-84576711D01*
X99396060Y-83409765D01*
X99396060Y-82146671D01*
X113366060Y-82146671D01*
X113366060Y-83409765D01*
X113849425Y-84576711D01*
X114742567Y-85469853D01*
X115909513Y-85953218D01*
X117172607Y-85953218D01*
X118339553Y-85469853D01*
X119232695Y-84576711D01*
X119716060Y-83409765D01*
X119716060Y-82146671D01*
X119663455Y-82019671D01*
X134321060Y-82019671D01*
X134321060Y-83282765D01*
X134804425Y-84449711D01*
X135697567Y-85342853D01*
X136864513Y-85826218D01*
X138127607Y-85826218D01*
X139294553Y-85342853D01*
X140187695Y-84449711D01*
X140671060Y-83282765D01*
X140671060Y-83054197D01*
X156210000Y-83054197D01*
X156210000Y-84317291D01*
X156693365Y-85484237D01*
X157586507Y-86377379D01*
X158753453Y-86860744D01*
X160016547Y-86860744D01*
X161183493Y-86377379D01*
X162076635Y-85484237D01*
X162560000Y-84317291D01*
X162560000Y-83054197D01*
X162076635Y-81887251D01*
X161183493Y-80994109D01*
X160016547Y-80510744D01*
X158753453Y-80510744D01*
X157586507Y-80994109D01*
X156693365Y-81887251D01*
X156210000Y-83054197D01*
X140671060Y-83054197D01*
X140671060Y-82019671D01*
X140187695Y-80852725D01*
X139294553Y-79959583D01*
X138127607Y-79476218D01*
X136864513Y-79476218D01*
X135697567Y-79959583D01*
X134804425Y-80852725D01*
X134321060Y-82019671D01*
X119663455Y-82019671D01*
X119232695Y-80979725D01*
X118339553Y-80086583D01*
X117172607Y-79603218D01*
X115909513Y-79603218D01*
X114742567Y-80086583D01*
X113849425Y-80979725D01*
X113366060Y-82146671D01*
X99396060Y-82146671D01*
X98912695Y-80979725D01*
X98019553Y-80086583D01*
X96852607Y-79603218D01*
X95589513Y-79603218D01*
X94422567Y-80086583D01*
X93529425Y-80979725D01*
X93046060Y-82146671D01*
X77543035Y-82146671D01*
X77322695Y-81614725D01*
X76429553Y-80721583D01*
X75262607Y-80238218D01*
X73999513Y-80238218D01*
X72832567Y-80721583D01*
X71939425Y-81614725D01*
X71456060Y-82781671D01*
X55338180Y-82781671D01*
X55338180Y-82248107D01*
X54854815Y-81081161D01*
X53961673Y-80188019D01*
X52794727Y-79704654D01*
X51531633Y-79704654D01*
X50364687Y-80188019D01*
X49471545Y-81081161D01*
X48988180Y-82248107D01*
X47900010Y-82248107D01*
X47900010Y-68782915D01*
X48067927Y-68614999D01*
X53975000Y-68614999D01*
X53975000Y-68705080D01*
X54048687Y-69075529D01*
X54329383Y-69495618D01*
X54749472Y-69776313D01*
X55245000Y-69874880D01*
X55740529Y-69776313D01*
X56160618Y-69495618D01*
X56441313Y-69075529D01*
X56515000Y-68705080D01*
X56515000Y-68614999D01*
X61209796Y-68614999D01*
X61522501Y-68677200D01*
X61835206Y-68614999D01*
X61835207Y-68614999D01*
X62761324Y-68430783D01*
X63811548Y-67729046D01*
X63988684Y-67463943D01*
X64107628Y-67344999D01*
X76835000Y-67344999D01*
X76835000Y-68767625D01*
X76945529Y-69323293D01*
X77366572Y-69953428D01*
X77996706Y-70374471D01*
X78740000Y-70522321D01*
X79483293Y-70374471D01*
X80113428Y-69953428D01*
X80534471Y-69323294D01*
X80645000Y-68767626D01*
X80645000Y-67344999D01*
X99060000Y-67344999D01*
X99060000Y-68767625D01*
X99170529Y-69323293D01*
X99591572Y-69953428D01*
X100221706Y-70374471D01*
X100965000Y-70522321D01*
X101708293Y-70374471D01*
X102338428Y-69953428D01*
X102759471Y-69323294D01*
X102870000Y-68767626D01*
X102870000Y-67344999D01*
X118668800Y-67344999D01*
X118668800Y-67750494D01*
X118631480Y-67938115D01*
X118668800Y-68125736D01*
X118668800Y-68125740D01*
X118745000Y-68508824D01*
X118745000Y-68767625D01*
X118855529Y-69323293D01*
X119276572Y-69953428D01*
X119906706Y-70374471D01*
X120650000Y-70522321D01*
X121393293Y-70374471D01*
X122023428Y-69953428D01*
X122444471Y-69323294D01*
X122555000Y-68767626D01*
X122555000Y-68201935D01*
X122592320Y-68014314D01*
X122555000Y-67826693D01*
X122555000Y-67826690D01*
X122478800Y-67443605D01*
X122478800Y-67344999D01*
X139700000Y-67344999D01*
X139700000Y-68767625D01*
X139810529Y-69323293D01*
X140231572Y-69953428D01*
X140861706Y-70374471D01*
X141605000Y-70522321D01*
X142348293Y-70374471D01*
X142978428Y-69953428D01*
X143399471Y-69323294D01*
X143510000Y-68767626D01*
X143510000Y-67344999D01*
X160020001Y-67344999D01*
X160020000Y-69675151D01*
X160130529Y-70230819D01*
X160551572Y-70860954D01*
X161181706Y-71281997D01*
X161925000Y-71429847D01*
X162668293Y-71281997D01*
X163298428Y-70860954D01*
X163719471Y-70230820D01*
X163830000Y-69675152D01*
X163830000Y-66702122D01*
X164176671Y-66183293D01*
X164324521Y-65439999D01*
X164176671Y-64696705D01*
X163755628Y-64066571D01*
X163125494Y-63645528D01*
X162569826Y-63534999D01*
X162569820Y-63534999D01*
X162382199Y-63497679D01*
X162194578Y-63534999D01*
X141157621Y-63534999D01*
X140970000Y-63497679D01*
X140782379Y-63534999D01*
X120761426Y-63534999D01*
X120573800Y-63497678D01*
X120386174Y-63534999D01*
X101051021Y-63534999D01*
X100863400Y-63497679D01*
X100675779Y-63534999D01*
X78927626Y-63534999D01*
X78740000Y-63497678D01*
X78552374Y-63534999D01*
X65685000Y-63534999D01*
X65685000Y-57788453D01*
X65579790Y-57534453D01*
X141885000Y-57534453D01*
X141885000Y-58797547D01*
X142368365Y-59964493D01*
X143261507Y-60857635D01*
X144428453Y-61341000D01*
X145691547Y-61341000D01*
X146858493Y-60857635D01*
X147751635Y-59964493D01*
X148235000Y-58797547D01*
X148235000Y-57534453D01*
X147751635Y-56367507D01*
X146858493Y-55474365D01*
X145691547Y-54991000D01*
X144428453Y-54991000D01*
X143261507Y-55474365D01*
X142368365Y-56367507D01*
X141885000Y-57534453D01*
X65579790Y-57534453D01*
X65562985Y-57493883D01*
X65500784Y-57181177D01*
X65323650Y-56916077D01*
X65201635Y-56621507D01*
X64976181Y-56396053D01*
X64799047Y-56130953D01*
X64533947Y-55953819D01*
X64308493Y-55728365D01*
X64013921Y-55606349D01*
X63748822Y-55429216D01*
X63436118Y-55367015D01*
X63141547Y-55245000D01*
X62822706Y-55245000D01*
X62510000Y-55182799D01*
X62197294Y-55245000D01*
X61878453Y-55245000D01*
X61583883Y-55367015D01*
X61271177Y-55429216D01*
X61006077Y-55606350D01*
X60711507Y-55728365D01*
X60486053Y-55953819D01*
X60220953Y-56130953D01*
X60043819Y-56396053D01*
X59818365Y-56621507D01*
X59696349Y-56916079D01*
X59519216Y-57181178D01*
X59457015Y-57493882D01*
X59335000Y-57788453D01*
X59335000Y-58107295D01*
X59335001Y-62264999D01*
X47065504Y-62264999D01*
X46752799Y-62202798D01*
X46440094Y-62264999D01*
X46440093Y-62264999D01*
X45513976Y-62449215D01*
X44463752Y-63150952D01*
X44286618Y-63416052D01*
X42701064Y-65001607D01*
X42620000Y-65055772D01*
X42620000Y-50380653D01*
X44881800Y-50380653D01*
X44881800Y-51219347D01*
X45202754Y-51994199D01*
X45795801Y-52587246D01*
X46570653Y-52908200D01*
X47409347Y-52908200D01*
X47899915Y-52705000D01*
X95997765Y-52705000D01*
X96085854Y-53147855D01*
X96214241Y-53340000D01*
X96085854Y-53532145D01*
X95997765Y-53975000D01*
X96085854Y-54417855D01*
X96214241Y-54610000D01*
X96085854Y-54802145D01*
X95997765Y-55245000D01*
X96085854Y-55687855D01*
X96336711Y-56063289D01*
X96712145Y-56314146D01*
X97043217Y-56380000D01*
X97266783Y-56380000D01*
X97597855Y-56314146D01*
X97790000Y-56185759D01*
X97982145Y-56314146D01*
X98313217Y-56380000D01*
X98536783Y-56380000D01*
X98867855Y-56314146D01*
X99243289Y-56063289D01*
X99494146Y-55687855D01*
X99582235Y-55245000D01*
X99494146Y-54802145D01*
X99365759Y-54610000D01*
X99494146Y-54417855D01*
X99582235Y-53975000D01*
X99494146Y-53532145D01*
X99365759Y-53340000D01*
X99494146Y-53147855D01*
X99582235Y-52705000D01*
X99494146Y-52262145D01*
X99365759Y-52070000D01*
X99494146Y-51877855D01*
X99582235Y-51435000D01*
X99494146Y-50992145D01*
X99243289Y-50616711D01*
X98890004Y-50380653D01*
X142671800Y-50380653D01*
X142671800Y-51219347D01*
X142992754Y-51994199D01*
X143585801Y-52587246D01*
X144360653Y-52908200D01*
X145199347Y-52908200D01*
X145974199Y-52587246D01*
X146567246Y-51994199D01*
X146888200Y-51219347D01*
X146888200Y-50380653D01*
X146567246Y-49605801D01*
X145974199Y-49012754D01*
X145199347Y-48691800D01*
X144360653Y-48691800D01*
X143585801Y-49012754D01*
X142992754Y-49605801D01*
X142671800Y-50380653D01*
X98890004Y-50380653D01*
X98867855Y-50365854D01*
X98536783Y-50300000D01*
X98313217Y-50300000D01*
X97982145Y-50365854D01*
X97964164Y-50377869D01*
X97902765Y-50336843D01*
X97655000Y-50287560D01*
X96655000Y-50287560D01*
X96407235Y-50336843D01*
X96197191Y-50477191D01*
X96056843Y-50687235D01*
X96007560Y-50935000D01*
X96007560Y-51935000D01*
X96056843Y-52182765D01*
X96097869Y-52244164D01*
X96085854Y-52262145D01*
X95997765Y-52705000D01*
X47899915Y-52705000D01*
X48184199Y-52587246D01*
X48777246Y-51994199D01*
X49098200Y-51219347D01*
X49098200Y-50380653D01*
X48777246Y-49605801D01*
X48184199Y-49012754D01*
X47409347Y-48691800D01*
X46570653Y-48691800D01*
X45795801Y-49012754D01*
X45202754Y-49605801D01*
X44881800Y-50380653D01*
X42620000Y-50380653D01*
X42620000Y-47052119D01*
X42664065Y-46802213D01*
X42759405Y-46637080D01*
X42905477Y-46514512D01*
X43114465Y-46438445D01*
X43210996Y-46430000D01*
X189167881Y-46430000D01*
X189417787Y-46474065D01*
G04 #@! TD*
M02*
