G04 #@! TF.GenerationSoftware,KiCad,Pcbnew,(5.0.0)*
G04 #@! TF.CreationDate,2019-12-11T16:29:05-06:00*
G04 #@! TF.ProjectId,PatchPanel,506174636850616E656C2E6B69636164,rev?*
G04 #@! TF.SameCoordinates,Original*
G04 #@! TF.FileFunction,Soldermask,Top*
G04 #@! TF.FilePolarity,Negative*
%FSLAX46Y46*%
G04 Gerber Fmt 4.6, Leading zero omitted, Abs format (unit mm)*
G04 Created by KiCad (PCBNEW (5.0.0)) date 12/11/19 16:29:05*
%MOMM*%
%LPD*%
G01*
G04 APERTURE LIST*
%ADD10C,3.346400*%
%ADD11C,5.480000*%
%ADD12R,1.600000X2.600000*%
%ADD13R,6.200000X6.800000*%
%ADD14R,1.900000X0.850000*%
%ADD15R,2.600000X1.600000*%
%ADD16R,6.800000X6.200000*%
%ADD17R,0.850000X1.900000*%
%ADD18C,0.100000*%
%ADD19C,1.350000*%
%ADD20R,1.400000X1.400000*%
%ADD21O,1.400000X1.400000*%
G04 APERTURE END LIST*
D10*
G04 #@! TO.C,REF\002A\002A*
X144780000Y-50800000D03*
G04 #@! TD*
G04 #@! TO.C,REF\002A\002A*
X46837600Y-142367000D03*
G04 #@! TD*
G04 #@! TO.C,REF\002A\002A*
X144780000Y-142494000D03*
G04 #@! TD*
G04 #@! TO.C,REF\002A\002A*
X46990000Y-50800000D03*
G04 #@! TD*
D11*
G04 #@! TO.C,Conn2*
X159511782Y-132416060D03*
X167411782Y-132416060D03*
X175311782Y-132416060D03*
G04 #@! TD*
G04 #@! TO.C,Conn3*
X74631060Y-75513218D03*
X74631060Y-83413218D03*
X74631060Y-91313218D03*
G04 #@! TD*
G04 #@! TO.C,Conn4*
X159791782Y-111461060D03*
X167691782Y-111461060D03*
X175591782Y-111461060D03*
G04 #@! TD*
G04 #@! TO.C,Conn5*
X96221060Y-74878218D03*
X96221060Y-82778218D03*
X96221060Y-90678218D03*
G04 #@! TD*
G04 #@! TO.C,Conn6*
X159385000Y-91585744D03*
X159385000Y-83685744D03*
X159385000Y-75785744D03*
G04 #@! TD*
G04 #@! TO.C,Conn7*
X116541060Y-74878218D03*
X116541060Y-82778218D03*
X116541060Y-90678218D03*
G04 #@! TD*
G04 #@! TO.C,Conn8*
X137496060Y-90551218D03*
X137496060Y-82651218D03*
X137496060Y-74751218D03*
G04 #@! TD*
G04 #@! TO.C,Conn10*
X77470000Y-133350000D03*
X77470000Y-125450000D03*
X77470000Y-117550000D03*
G04 #@! TD*
G04 #@! TO.C,Conn11*
X140970000Y-117221000D03*
X140970000Y-125121000D03*
X140970000Y-133021000D03*
G04 #@! TD*
G04 #@! TO.C,Conn12*
X90170000Y-117475000D03*
X90170000Y-125375000D03*
X90170000Y-133275000D03*
G04 #@! TD*
G04 #@! TO.C,Conn13*
X102870000Y-133021000D03*
X102870000Y-125121000D03*
X102870000Y-117221000D03*
G04 #@! TD*
G04 #@! TO.C,Conn14*
X115570000Y-133021000D03*
X115570000Y-125121000D03*
X115570000Y-117221000D03*
G04 #@! TD*
G04 #@! TO.C,Conn15*
X52070000Y-117221000D03*
X52070000Y-125121000D03*
X52070000Y-133021000D03*
G04 #@! TD*
G04 #@! TO.C,Conn16*
X128270000Y-133083000D03*
X128270000Y-125183000D03*
X128270000Y-117283000D03*
G04 #@! TD*
D12*
G04 #@! TO.C,Q1*
X59408180Y-97434654D03*
X63968180Y-97434654D03*
D13*
X61688180Y-91134654D03*
G04 #@! TD*
G04 #@! TO.C,Q2*
X61688180Y-82439654D03*
D12*
X59408180Y-76139654D03*
X63968180Y-76139654D03*
G04 #@! TD*
D14*
G04 #@! TO.C,Q3*
X54670000Y-100330000D03*
X52010000Y-100980000D03*
X52010000Y-99680000D03*
G04 #@! TD*
G04 #@! TO.C,Q4*
X62170000Y-67930000D03*
X62170000Y-69230000D03*
X64830000Y-68580000D03*
G04 #@! TD*
D15*
G04 #@! TO.C,Q5*
X152856782Y-139026060D03*
X152856782Y-143586060D03*
D16*
X159156782Y-141306060D03*
G04 #@! TD*
G04 #@! TO.C,Q6*
X168046782Y-141306060D03*
D15*
X174346782Y-139026060D03*
X174346782Y-143586060D03*
G04 #@! TD*
D17*
G04 #@! TO.C,Q7*
X151750000Y-131565000D03*
X151100000Y-128905000D03*
X152400000Y-128905000D03*
G04 #@! TD*
G04 #@! TO.C,Q8*
X182333940Y-142696060D03*
X181033940Y-142696060D03*
X181683940Y-145356060D03*
G04 #@! TD*
D12*
G04 #@! TO.C,Q9*
X81241060Y-97333218D03*
X85801060Y-97333218D03*
D13*
X83521060Y-91033218D03*
G04 #@! TD*
G04 #@! TO.C,Q10*
X83266060Y-82373218D03*
D12*
X80986060Y-76073218D03*
X85546060Y-76073218D03*
G04 #@! TD*
D14*
G04 #@! TO.C,Q11*
X75050000Y-100980000D03*
X72390000Y-101630000D03*
X72390000Y-100330000D03*
G04 #@! TD*
G04 #@! TO.C,Q12*
X84970000Y-68565000D03*
X84970000Y-69865000D03*
X87630000Y-69215000D03*
G04 #@! TD*
D15*
G04 #@! TO.C,Q13*
X152856782Y-118071060D03*
X152856782Y-122631060D03*
D16*
X159156782Y-120351060D03*
G04 #@! TD*
G04 #@! TO.C,Q14*
X167816782Y-120351060D03*
D15*
X174116782Y-118071060D03*
X174116782Y-122631060D03*
G04 #@! TD*
D17*
G04 #@! TO.C,Q15*
X149240000Y-112275000D03*
X147940000Y-112275000D03*
X148590000Y-114935000D03*
G04 #@! TD*
G04 #@! TO.C,Q16*
X181610000Y-124520000D03*
X180960000Y-121860000D03*
X182260000Y-121860000D03*
G04 #@! TD*
D12*
G04 #@! TO.C,Q17*
X102831060Y-97333218D03*
X107391060Y-97333218D03*
D13*
X105111060Y-91033218D03*
G04 #@! TD*
D12*
G04 #@! TO.C,Q18*
X107391060Y-76478218D03*
X102831060Y-76478218D03*
D13*
X105111060Y-82778218D03*
G04 #@! TD*
D14*
G04 #@! TO.C,Q19*
X93920000Y-100315000D03*
X93920000Y-101615000D03*
X96580000Y-100965000D03*
G04 #@! TD*
G04 #@! TO.C,Q20*
X108705000Y-69230000D03*
X106045000Y-69880000D03*
X106045000Y-68580000D03*
G04 #@! TD*
D13*
G04 #@! TO.C,Q21*
X166961060Y-91940744D03*
D12*
X169241060Y-98240744D03*
X164681060Y-98240744D03*
G04 #@! TD*
D13*
G04 #@! TO.C,Q22*
X167086060Y-83915744D03*
D12*
X164806060Y-77615744D03*
X169366060Y-77615744D03*
G04 #@! TD*
D14*
G04 #@! TO.C,Q23*
X151645000Y-97140000D03*
X151645000Y-98440000D03*
X154305000Y-97790000D03*
G04 #@! TD*
G04 #@! TO.C,Q24*
X170180000Y-67960000D03*
X167520000Y-68610000D03*
X167520000Y-67310000D03*
G04 #@! TD*
D12*
G04 #@! TO.C,Q25*
X123151060Y-97206218D03*
X127711060Y-97206218D03*
D13*
X125431060Y-90906218D03*
G04 #@! TD*
D12*
G04 #@! TO.C,Q26*
X127711060Y-76478218D03*
X123151060Y-76478218D03*
D13*
X125431060Y-82778218D03*
G04 #@! TD*
D14*
G04 #@! TO.C,Q27*
X114240000Y-100315000D03*
X114240000Y-101615000D03*
X116900000Y-100965000D03*
G04 #@! TD*
G04 #@! TO.C,Q28*
X128965000Y-69850000D03*
X126305000Y-70500000D03*
X126305000Y-69200000D03*
G04 #@! TD*
D13*
G04 #@! TO.C,Q29*
X146386060Y-90501218D03*
D12*
X148666060Y-96801218D03*
X144106060Y-96801218D03*
G04 #@! TD*
D13*
G04 #@! TO.C,Q30*
X146641060Y-82421218D03*
D12*
X144361060Y-76121218D03*
X148921060Y-76121218D03*
G04 #@! TD*
D14*
G04 #@! TO.C,Q31*
X135195000Y-99045000D03*
X135195000Y-100345000D03*
X137855000Y-99695000D03*
G04 #@! TD*
G04 #@! TO.C,Q32*
X149920000Y-68580000D03*
X147260000Y-69230000D03*
X147260000Y-67930000D03*
G04 #@! TD*
D18*
G04 #@! TO.C,R1*
G36*
X64555581Y-99986279D02*
X64588343Y-99991139D01*
X64620471Y-99999187D01*
X64651656Y-100010345D01*
X64681596Y-100024506D01*
X64710005Y-100041533D01*
X64736608Y-100061263D01*
X64761149Y-100083505D01*
X64783391Y-100108046D01*
X64803121Y-100134649D01*
X64820148Y-100163058D01*
X64834309Y-100192998D01*
X64845467Y-100224183D01*
X64853515Y-100256311D01*
X64858375Y-100289073D01*
X64860000Y-100322154D01*
X64860000Y-100997154D01*
X64858375Y-101030235D01*
X64853515Y-101062997D01*
X64845467Y-101095125D01*
X64834309Y-101126310D01*
X64820148Y-101156250D01*
X64803121Y-101184659D01*
X64783391Y-101211262D01*
X64761149Y-101235803D01*
X64736608Y-101258045D01*
X64710005Y-101277775D01*
X64681596Y-101294802D01*
X64651656Y-101308963D01*
X64620471Y-101320121D01*
X64588343Y-101328169D01*
X64555581Y-101333029D01*
X64522500Y-101334654D01*
X63747500Y-101334654D01*
X63714419Y-101333029D01*
X63681657Y-101328169D01*
X63649529Y-101320121D01*
X63618344Y-101308963D01*
X63588404Y-101294802D01*
X63559995Y-101277775D01*
X63533392Y-101258045D01*
X63508851Y-101235803D01*
X63486609Y-101211262D01*
X63466879Y-101184659D01*
X63449852Y-101156250D01*
X63435691Y-101126310D01*
X63424533Y-101095125D01*
X63416485Y-101062997D01*
X63411625Y-101030235D01*
X63410000Y-100997154D01*
X63410000Y-100322154D01*
X63411625Y-100289073D01*
X63416485Y-100256311D01*
X63424533Y-100224183D01*
X63435691Y-100192998D01*
X63449852Y-100163058D01*
X63466879Y-100134649D01*
X63486609Y-100108046D01*
X63508851Y-100083505D01*
X63533392Y-100061263D01*
X63559995Y-100041533D01*
X63588404Y-100024506D01*
X63618344Y-100010345D01*
X63649529Y-99999187D01*
X63681657Y-99991139D01*
X63714419Y-99986279D01*
X63747500Y-99984654D01*
X64522500Y-99984654D01*
X64555581Y-99986279D01*
X64555581Y-99986279D01*
G37*
D19*
X64135000Y-100659654D03*
D18*
G36*
X62805581Y-99986279D02*
X62838343Y-99991139D01*
X62870471Y-99999187D01*
X62901656Y-100010345D01*
X62931596Y-100024506D01*
X62960005Y-100041533D01*
X62986608Y-100061263D01*
X63011149Y-100083505D01*
X63033391Y-100108046D01*
X63053121Y-100134649D01*
X63070148Y-100163058D01*
X63084309Y-100192998D01*
X63095467Y-100224183D01*
X63103515Y-100256311D01*
X63108375Y-100289073D01*
X63110000Y-100322154D01*
X63110000Y-100997154D01*
X63108375Y-101030235D01*
X63103515Y-101062997D01*
X63095467Y-101095125D01*
X63084309Y-101126310D01*
X63070148Y-101156250D01*
X63053121Y-101184659D01*
X63033391Y-101211262D01*
X63011149Y-101235803D01*
X62986608Y-101258045D01*
X62960005Y-101277775D01*
X62931596Y-101294802D01*
X62901656Y-101308963D01*
X62870471Y-101320121D01*
X62838343Y-101328169D01*
X62805581Y-101333029D01*
X62772500Y-101334654D01*
X61997500Y-101334654D01*
X61964419Y-101333029D01*
X61931657Y-101328169D01*
X61899529Y-101320121D01*
X61868344Y-101308963D01*
X61838404Y-101294802D01*
X61809995Y-101277775D01*
X61783392Y-101258045D01*
X61758851Y-101235803D01*
X61736609Y-101211262D01*
X61716879Y-101184659D01*
X61699852Y-101156250D01*
X61685691Y-101126310D01*
X61674533Y-101095125D01*
X61666485Y-101062997D01*
X61661625Y-101030235D01*
X61660000Y-100997154D01*
X61660000Y-100322154D01*
X61661625Y-100289073D01*
X61666485Y-100256311D01*
X61674533Y-100224183D01*
X61685691Y-100192998D01*
X61699852Y-100163058D01*
X61716879Y-100134649D01*
X61736609Y-100108046D01*
X61758851Y-100083505D01*
X61783392Y-100061263D01*
X61809995Y-100041533D01*
X61838404Y-100024506D01*
X61868344Y-100010345D01*
X61899529Y-99999187D01*
X61931657Y-99991139D01*
X61964419Y-99986279D01*
X61997500Y-99984654D01*
X62772500Y-99984654D01*
X62805581Y-99986279D01*
X62805581Y-99986279D01*
G37*
D19*
X62385000Y-100659654D03*
G04 #@! TD*
D18*
G04 #@! TO.C,R2*
G36*
X60743761Y-71426279D02*
X60776523Y-71431139D01*
X60808651Y-71439187D01*
X60839836Y-71450345D01*
X60869776Y-71464506D01*
X60898185Y-71481533D01*
X60924788Y-71501263D01*
X60949329Y-71523505D01*
X60971571Y-71548046D01*
X60991301Y-71574649D01*
X61008328Y-71603058D01*
X61022489Y-71632998D01*
X61033647Y-71664183D01*
X61041695Y-71696311D01*
X61046555Y-71729073D01*
X61048180Y-71762154D01*
X61048180Y-72437154D01*
X61046555Y-72470235D01*
X61041695Y-72502997D01*
X61033647Y-72535125D01*
X61022489Y-72566310D01*
X61008328Y-72596250D01*
X60991301Y-72624659D01*
X60971571Y-72651262D01*
X60949329Y-72675803D01*
X60924788Y-72698045D01*
X60898185Y-72717775D01*
X60869776Y-72734802D01*
X60839836Y-72748963D01*
X60808651Y-72760121D01*
X60776523Y-72768169D01*
X60743761Y-72773029D01*
X60710680Y-72774654D01*
X59935680Y-72774654D01*
X59902599Y-72773029D01*
X59869837Y-72768169D01*
X59837709Y-72760121D01*
X59806524Y-72748963D01*
X59776584Y-72734802D01*
X59748175Y-72717775D01*
X59721572Y-72698045D01*
X59697031Y-72675803D01*
X59674789Y-72651262D01*
X59655059Y-72624659D01*
X59638032Y-72596250D01*
X59623871Y-72566310D01*
X59612713Y-72535125D01*
X59604665Y-72502997D01*
X59599805Y-72470235D01*
X59598180Y-72437154D01*
X59598180Y-71762154D01*
X59599805Y-71729073D01*
X59604665Y-71696311D01*
X59612713Y-71664183D01*
X59623871Y-71632998D01*
X59638032Y-71603058D01*
X59655059Y-71574649D01*
X59674789Y-71548046D01*
X59697031Y-71523505D01*
X59721572Y-71501263D01*
X59748175Y-71481533D01*
X59776584Y-71464506D01*
X59806524Y-71450345D01*
X59837709Y-71439187D01*
X59869837Y-71431139D01*
X59902599Y-71426279D01*
X59935680Y-71424654D01*
X60710680Y-71424654D01*
X60743761Y-71426279D01*
X60743761Y-71426279D01*
G37*
D19*
X60323180Y-72099654D03*
D18*
G36*
X58993761Y-71426279D02*
X59026523Y-71431139D01*
X59058651Y-71439187D01*
X59089836Y-71450345D01*
X59119776Y-71464506D01*
X59148185Y-71481533D01*
X59174788Y-71501263D01*
X59199329Y-71523505D01*
X59221571Y-71548046D01*
X59241301Y-71574649D01*
X59258328Y-71603058D01*
X59272489Y-71632998D01*
X59283647Y-71664183D01*
X59291695Y-71696311D01*
X59296555Y-71729073D01*
X59298180Y-71762154D01*
X59298180Y-72437154D01*
X59296555Y-72470235D01*
X59291695Y-72502997D01*
X59283647Y-72535125D01*
X59272489Y-72566310D01*
X59258328Y-72596250D01*
X59241301Y-72624659D01*
X59221571Y-72651262D01*
X59199329Y-72675803D01*
X59174788Y-72698045D01*
X59148185Y-72717775D01*
X59119776Y-72734802D01*
X59089836Y-72748963D01*
X59058651Y-72760121D01*
X59026523Y-72768169D01*
X58993761Y-72773029D01*
X58960680Y-72774654D01*
X58185680Y-72774654D01*
X58152599Y-72773029D01*
X58119837Y-72768169D01*
X58087709Y-72760121D01*
X58056524Y-72748963D01*
X58026584Y-72734802D01*
X57998175Y-72717775D01*
X57971572Y-72698045D01*
X57947031Y-72675803D01*
X57924789Y-72651262D01*
X57905059Y-72624659D01*
X57888032Y-72596250D01*
X57873871Y-72566310D01*
X57862713Y-72535125D01*
X57854665Y-72502997D01*
X57849805Y-72470235D01*
X57848180Y-72437154D01*
X57848180Y-71762154D01*
X57849805Y-71729073D01*
X57854665Y-71696311D01*
X57862713Y-71664183D01*
X57873871Y-71632998D01*
X57888032Y-71603058D01*
X57905059Y-71574649D01*
X57924789Y-71548046D01*
X57947031Y-71523505D01*
X57971572Y-71501263D01*
X57998175Y-71481533D01*
X58026584Y-71464506D01*
X58056524Y-71450345D01*
X58087709Y-71439187D01*
X58119837Y-71431139D01*
X58152599Y-71426279D01*
X58185680Y-71424654D01*
X58960680Y-71424654D01*
X58993761Y-71426279D01*
X58993761Y-71426279D01*
G37*
D19*
X58573180Y-72099654D03*
G04 #@! TD*
D18*
G04 #@! TO.C,R3*
G36*
X57818761Y-99986279D02*
X57851523Y-99991139D01*
X57883651Y-99999187D01*
X57914836Y-100010345D01*
X57944776Y-100024506D01*
X57973185Y-100041533D01*
X57999788Y-100061263D01*
X58024329Y-100083505D01*
X58046571Y-100108046D01*
X58066301Y-100134649D01*
X58083328Y-100163058D01*
X58097489Y-100192998D01*
X58108647Y-100224183D01*
X58116695Y-100256311D01*
X58121555Y-100289073D01*
X58123180Y-100322154D01*
X58123180Y-100997154D01*
X58121555Y-101030235D01*
X58116695Y-101062997D01*
X58108647Y-101095125D01*
X58097489Y-101126310D01*
X58083328Y-101156250D01*
X58066301Y-101184659D01*
X58046571Y-101211262D01*
X58024329Y-101235803D01*
X57999788Y-101258045D01*
X57973185Y-101277775D01*
X57944776Y-101294802D01*
X57914836Y-101308963D01*
X57883651Y-101320121D01*
X57851523Y-101328169D01*
X57818761Y-101333029D01*
X57785680Y-101334654D01*
X57010680Y-101334654D01*
X56977599Y-101333029D01*
X56944837Y-101328169D01*
X56912709Y-101320121D01*
X56881524Y-101308963D01*
X56851584Y-101294802D01*
X56823175Y-101277775D01*
X56796572Y-101258045D01*
X56772031Y-101235803D01*
X56749789Y-101211262D01*
X56730059Y-101184659D01*
X56713032Y-101156250D01*
X56698871Y-101126310D01*
X56687713Y-101095125D01*
X56679665Y-101062997D01*
X56674805Y-101030235D01*
X56673180Y-100997154D01*
X56673180Y-100322154D01*
X56674805Y-100289073D01*
X56679665Y-100256311D01*
X56687713Y-100224183D01*
X56698871Y-100192998D01*
X56713032Y-100163058D01*
X56730059Y-100134649D01*
X56749789Y-100108046D01*
X56772031Y-100083505D01*
X56796572Y-100061263D01*
X56823175Y-100041533D01*
X56851584Y-100024506D01*
X56881524Y-100010345D01*
X56912709Y-99999187D01*
X56944837Y-99991139D01*
X56977599Y-99986279D01*
X57010680Y-99984654D01*
X57785680Y-99984654D01*
X57818761Y-99986279D01*
X57818761Y-99986279D01*
G37*
D19*
X57398180Y-100659654D03*
D18*
G36*
X59568761Y-99986279D02*
X59601523Y-99991139D01*
X59633651Y-99999187D01*
X59664836Y-100010345D01*
X59694776Y-100024506D01*
X59723185Y-100041533D01*
X59749788Y-100061263D01*
X59774329Y-100083505D01*
X59796571Y-100108046D01*
X59816301Y-100134649D01*
X59833328Y-100163058D01*
X59847489Y-100192998D01*
X59858647Y-100224183D01*
X59866695Y-100256311D01*
X59871555Y-100289073D01*
X59873180Y-100322154D01*
X59873180Y-100997154D01*
X59871555Y-101030235D01*
X59866695Y-101062997D01*
X59858647Y-101095125D01*
X59847489Y-101126310D01*
X59833328Y-101156250D01*
X59816301Y-101184659D01*
X59796571Y-101211262D01*
X59774329Y-101235803D01*
X59749788Y-101258045D01*
X59723185Y-101277775D01*
X59694776Y-101294802D01*
X59664836Y-101308963D01*
X59633651Y-101320121D01*
X59601523Y-101328169D01*
X59568761Y-101333029D01*
X59535680Y-101334654D01*
X58760680Y-101334654D01*
X58727599Y-101333029D01*
X58694837Y-101328169D01*
X58662709Y-101320121D01*
X58631524Y-101308963D01*
X58601584Y-101294802D01*
X58573175Y-101277775D01*
X58546572Y-101258045D01*
X58522031Y-101235803D01*
X58499789Y-101211262D01*
X58480059Y-101184659D01*
X58463032Y-101156250D01*
X58448871Y-101126310D01*
X58437713Y-101095125D01*
X58429665Y-101062997D01*
X58424805Y-101030235D01*
X58423180Y-100997154D01*
X58423180Y-100322154D01*
X58424805Y-100289073D01*
X58429665Y-100256311D01*
X58437713Y-100224183D01*
X58448871Y-100192998D01*
X58463032Y-100163058D01*
X58480059Y-100134649D01*
X58499789Y-100108046D01*
X58522031Y-100083505D01*
X58546572Y-100061263D01*
X58573175Y-100041533D01*
X58601584Y-100024506D01*
X58631524Y-100010345D01*
X58662709Y-99999187D01*
X58694837Y-99991139D01*
X58727599Y-99986279D01*
X58760680Y-99984654D01*
X59535680Y-99984654D01*
X59568761Y-99986279D01*
X59568761Y-99986279D01*
G37*
D19*
X59148180Y-100659654D03*
G04 #@! TD*
D18*
G04 #@! TO.C,R4*
G36*
X63593761Y-71426279D02*
X63626523Y-71431139D01*
X63658651Y-71439187D01*
X63689836Y-71450345D01*
X63719776Y-71464506D01*
X63748185Y-71481533D01*
X63774788Y-71501263D01*
X63799329Y-71523505D01*
X63821571Y-71548046D01*
X63841301Y-71574649D01*
X63858328Y-71603058D01*
X63872489Y-71632998D01*
X63883647Y-71664183D01*
X63891695Y-71696311D01*
X63896555Y-71729073D01*
X63898180Y-71762154D01*
X63898180Y-72437154D01*
X63896555Y-72470235D01*
X63891695Y-72502997D01*
X63883647Y-72535125D01*
X63872489Y-72566310D01*
X63858328Y-72596250D01*
X63841301Y-72624659D01*
X63821571Y-72651262D01*
X63799329Y-72675803D01*
X63774788Y-72698045D01*
X63748185Y-72717775D01*
X63719776Y-72734802D01*
X63689836Y-72748963D01*
X63658651Y-72760121D01*
X63626523Y-72768169D01*
X63593761Y-72773029D01*
X63560680Y-72774654D01*
X62785680Y-72774654D01*
X62752599Y-72773029D01*
X62719837Y-72768169D01*
X62687709Y-72760121D01*
X62656524Y-72748963D01*
X62626584Y-72734802D01*
X62598175Y-72717775D01*
X62571572Y-72698045D01*
X62547031Y-72675803D01*
X62524789Y-72651262D01*
X62505059Y-72624659D01*
X62488032Y-72596250D01*
X62473871Y-72566310D01*
X62462713Y-72535125D01*
X62454665Y-72502997D01*
X62449805Y-72470235D01*
X62448180Y-72437154D01*
X62448180Y-71762154D01*
X62449805Y-71729073D01*
X62454665Y-71696311D01*
X62462713Y-71664183D01*
X62473871Y-71632998D01*
X62488032Y-71603058D01*
X62505059Y-71574649D01*
X62524789Y-71548046D01*
X62547031Y-71523505D01*
X62571572Y-71501263D01*
X62598175Y-71481533D01*
X62626584Y-71464506D01*
X62656524Y-71450345D01*
X62687709Y-71439187D01*
X62719837Y-71431139D01*
X62752599Y-71426279D01*
X62785680Y-71424654D01*
X63560680Y-71424654D01*
X63593761Y-71426279D01*
X63593761Y-71426279D01*
G37*
D19*
X63173180Y-72099654D03*
D18*
G36*
X65343761Y-71426279D02*
X65376523Y-71431139D01*
X65408651Y-71439187D01*
X65439836Y-71450345D01*
X65469776Y-71464506D01*
X65498185Y-71481533D01*
X65524788Y-71501263D01*
X65549329Y-71523505D01*
X65571571Y-71548046D01*
X65591301Y-71574649D01*
X65608328Y-71603058D01*
X65622489Y-71632998D01*
X65633647Y-71664183D01*
X65641695Y-71696311D01*
X65646555Y-71729073D01*
X65648180Y-71762154D01*
X65648180Y-72437154D01*
X65646555Y-72470235D01*
X65641695Y-72502997D01*
X65633647Y-72535125D01*
X65622489Y-72566310D01*
X65608328Y-72596250D01*
X65591301Y-72624659D01*
X65571571Y-72651262D01*
X65549329Y-72675803D01*
X65524788Y-72698045D01*
X65498185Y-72717775D01*
X65469776Y-72734802D01*
X65439836Y-72748963D01*
X65408651Y-72760121D01*
X65376523Y-72768169D01*
X65343761Y-72773029D01*
X65310680Y-72774654D01*
X64535680Y-72774654D01*
X64502599Y-72773029D01*
X64469837Y-72768169D01*
X64437709Y-72760121D01*
X64406524Y-72748963D01*
X64376584Y-72734802D01*
X64348175Y-72717775D01*
X64321572Y-72698045D01*
X64297031Y-72675803D01*
X64274789Y-72651262D01*
X64255059Y-72624659D01*
X64238032Y-72596250D01*
X64223871Y-72566310D01*
X64212713Y-72535125D01*
X64204665Y-72502997D01*
X64199805Y-72470235D01*
X64198180Y-72437154D01*
X64198180Y-71762154D01*
X64199805Y-71729073D01*
X64204665Y-71696311D01*
X64212713Y-71664183D01*
X64223871Y-71632998D01*
X64238032Y-71603058D01*
X64255059Y-71574649D01*
X64274789Y-71548046D01*
X64297031Y-71523505D01*
X64321572Y-71501263D01*
X64348175Y-71481533D01*
X64376584Y-71464506D01*
X64406524Y-71450345D01*
X64437709Y-71439187D01*
X64469837Y-71431139D01*
X64502599Y-71426279D01*
X64535680Y-71424654D01*
X65310680Y-71424654D01*
X65343761Y-71426279D01*
X65343761Y-71426279D01*
G37*
D19*
X64923180Y-72099654D03*
G04 #@! TD*
D18*
G04 #@! TO.C,R5*
G36*
X150230581Y-137551625D02*
X150263343Y-137556485D01*
X150295471Y-137564533D01*
X150326656Y-137575691D01*
X150356596Y-137589852D01*
X150385005Y-137606879D01*
X150411608Y-137626609D01*
X150436149Y-137648851D01*
X150458391Y-137673392D01*
X150478121Y-137699995D01*
X150495148Y-137728404D01*
X150509309Y-137758344D01*
X150520467Y-137789529D01*
X150528515Y-137821657D01*
X150533375Y-137854419D01*
X150535000Y-137887500D01*
X150535000Y-138662500D01*
X150533375Y-138695581D01*
X150528515Y-138728343D01*
X150520467Y-138760471D01*
X150509309Y-138791656D01*
X150495148Y-138821596D01*
X150478121Y-138850005D01*
X150458391Y-138876608D01*
X150436149Y-138901149D01*
X150411608Y-138923391D01*
X150385005Y-138943121D01*
X150356596Y-138960148D01*
X150326656Y-138974309D01*
X150295471Y-138985467D01*
X150263343Y-138993515D01*
X150230581Y-138998375D01*
X150197500Y-139000000D01*
X149522500Y-139000000D01*
X149489419Y-138998375D01*
X149456657Y-138993515D01*
X149424529Y-138985467D01*
X149393344Y-138974309D01*
X149363404Y-138960148D01*
X149334995Y-138943121D01*
X149308392Y-138923391D01*
X149283851Y-138901149D01*
X149261609Y-138876608D01*
X149241879Y-138850005D01*
X149224852Y-138821596D01*
X149210691Y-138791656D01*
X149199533Y-138760471D01*
X149191485Y-138728343D01*
X149186625Y-138695581D01*
X149185000Y-138662500D01*
X149185000Y-137887500D01*
X149186625Y-137854419D01*
X149191485Y-137821657D01*
X149199533Y-137789529D01*
X149210691Y-137758344D01*
X149224852Y-137728404D01*
X149241879Y-137699995D01*
X149261609Y-137673392D01*
X149283851Y-137648851D01*
X149308392Y-137626609D01*
X149334995Y-137606879D01*
X149363404Y-137589852D01*
X149393344Y-137575691D01*
X149424529Y-137564533D01*
X149456657Y-137556485D01*
X149489419Y-137551625D01*
X149522500Y-137550000D01*
X150197500Y-137550000D01*
X150230581Y-137551625D01*
X150230581Y-137551625D01*
G37*
D19*
X149860000Y-138275000D03*
D18*
G36*
X150230581Y-135801625D02*
X150263343Y-135806485D01*
X150295471Y-135814533D01*
X150326656Y-135825691D01*
X150356596Y-135839852D01*
X150385005Y-135856879D01*
X150411608Y-135876609D01*
X150436149Y-135898851D01*
X150458391Y-135923392D01*
X150478121Y-135949995D01*
X150495148Y-135978404D01*
X150509309Y-136008344D01*
X150520467Y-136039529D01*
X150528515Y-136071657D01*
X150533375Y-136104419D01*
X150535000Y-136137500D01*
X150535000Y-136912500D01*
X150533375Y-136945581D01*
X150528515Y-136978343D01*
X150520467Y-137010471D01*
X150509309Y-137041656D01*
X150495148Y-137071596D01*
X150478121Y-137100005D01*
X150458391Y-137126608D01*
X150436149Y-137151149D01*
X150411608Y-137173391D01*
X150385005Y-137193121D01*
X150356596Y-137210148D01*
X150326656Y-137224309D01*
X150295471Y-137235467D01*
X150263343Y-137243515D01*
X150230581Y-137248375D01*
X150197500Y-137250000D01*
X149522500Y-137250000D01*
X149489419Y-137248375D01*
X149456657Y-137243515D01*
X149424529Y-137235467D01*
X149393344Y-137224309D01*
X149363404Y-137210148D01*
X149334995Y-137193121D01*
X149308392Y-137173391D01*
X149283851Y-137151149D01*
X149261609Y-137126608D01*
X149241879Y-137100005D01*
X149224852Y-137071596D01*
X149210691Y-137041656D01*
X149199533Y-137010471D01*
X149191485Y-136978343D01*
X149186625Y-136945581D01*
X149185000Y-136912500D01*
X149185000Y-136137500D01*
X149186625Y-136104419D01*
X149191485Y-136071657D01*
X149199533Y-136039529D01*
X149210691Y-136008344D01*
X149224852Y-135978404D01*
X149241879Y-135949995D01*
X149261609Y-135923392D01*
X149283851Y-135898851D01*
X149308392Y-135876609D01*
X149334995Y-135856879D01*
X149363404Y-135839852D01*
X149393344Y-135825691D01*
X149424529Y-135814533D01*
X149456657Y-135806485D01*
X149489419Y-135801625D01*
X149522500Y-135800000D01*
X150197500Y-135800000D01*
X150230581Y-135801625D01*
X150230581Y-135801625D01*
G37*
D19*
X149860000Y-136525000D03*
G04 #@! TD*
D18*
G04 #@! TO.C,R6*
G36*
X178577363Y-140187685D02*
X178610125Y-140192545D01*
X178642253Y-140200593D01*
X178673438Y-140211751D01*
X178703378Y-140225912D01*
X178731787Y-140242939D01*
X178758390Y-140262669D01*
X178782931Y-140284911D01*
X178805173Y-140309452D01*
X178824903Y-140336055D01*
X178841930Y-140364464D01*
X178856091Y-140394404D01*
X178867249Y-140425589D01*
X178875297Y-140457717D01*
X178880157Y-140490479D01*
X178881782Y-140523560D01*
X178881782Y-141298560D01*
X178880157Y-141331641D01*
X178875297Y-141364403D01*
X178867249Y-141396531D01*
X178856091Y-141427716D01*
X178841930Y-141457656D01*
X178824903Y-141486065D01*
X178805173Y-141512668D01*
X178782931Y-141537209D01*
X178758390Y-141559451D01*
X178731787Y-141579181D01*
X178703378Y-141596208D01*
X178673438Y-141610369D01*
X178642253Y-141621527D01*
X178610125Y-141629575D01*
X178577363Y-141634435D01*
X178544282Y-141636060D01*
X177869282Y-141636060D01*
X177836201Y-141634435D01*
X177803439Y-141629575D01*
X177771311Y-141621527D01*
X177740126Y-141610369D01*
X177710186Y-141596208D01*
X177681777Y-141579181D01*
X177655174Y-141559451D01*
X177630633Y-141537209D01*
X177608391Y-141512668D01*
X177588661Y-141486065D01*
X177571634Y-141457656D01*
X177557473Y-141427716D01*
X177546315Y-141396531D01*
X177538267Y-141364403D01*
X177533407Y-141331641D01*
X177531782Y-141298560D01*
X177531782Y-140523560D01*
X177533407Y-140490479D01*
X177538267Y-140457717D01*
X177546315Y-140425589D01*
X177557473Y-140394404D01*
X177571634Y-140364464D01*
X177588661Y-140336055D01*
X177608391Y-140309452D01*
X177630633Y-140284911D01*
X177655174Y-140262669D01*
X177681777Y-140242939D01*
X177710186Y-140225912D01*
X177740126Y-140211751D01*
X177771311Y-140200593D01*
X177803439Y-140192545D01*
X177836201Y-140187685D01*
X177869282Y-140186060D01*
X178544282Y-140186060D01*
X178577363Y-140187685D01*
X178577363Y-140187685D01*
G37*
D19*
X178206782Y-140911060D03*
D18*
G36*
X178577363Y-138437685D02*
X178610125Y-138442545D01*
X178642253Y-138450593D01*
X178673438Y-138461751D01*
X178703378Y-138475912D01*
X178731787Y-138492939D01*
X178758390Y-138512669D01*
X178782931Y-138534911D01*
X178805173Y-138559452D01*
X178824903Y-138586055D01*
X178841930Y-138614464D01*
X178856091Y-138644404D01*
X178867249Y-138675589D01*
X178875297Y-138707717D01*
X178880157Y-138740479D01*
X178881782Y-138773560D01*
X178881782Y-139548560D01*
X178880157Y-139581641D01*
X178875297Y-139614403D01*
X178867249Y-139646531D01*
X178856091Y-139677716D01*
X178841930Y-139707656D01*
X178824903Y-139736065D01*
X178805173Y-139762668D01*
X178782931Y-139787209D01*
X178758390Y-139809451D01*
X178731787Y-139829181D01*
X178703378Y-139846208D01*
X178673438Y-139860369D01*
X178642253Y-139871527D01*
X178610125Y-139879575D01*
X178577363Y-139884435D01*
X178544282Y-139886060D01*
X177869282Y-139886060D01*
X177836201Y-139884435D01*
X177803439Y-139879575D01*
X177771311Y-139871527D01*
X177740126Y-139860369D01*
X177710186Y-139846208D01*
X177681777Y-139829181D01*
X177655174Y-139809451D01*
X177630633Y-139787209D01*
X177608391Y-139762668D01*
X177588661Y-139736065D01*
X177571634Y-139707656D01*
X177557473Y-139677716D01*
X177546315Y-139646531D01*
X177538267Y-139614403D01*
X177533407Y-139581641D01*
X177531782Y-139548560D01*
X177531782Y-138773560D01*
X177533407Y-138740479D01*
X177538267Y-138707717D01*
X177546315Y-138675589D01*
X177557473Y-138644404D01*
X177571634Y-138614464D01*
X177588661Y-138586055D01*
X177608391Y-138559452D01*
X177630633Y-138534911D01*
X177655174Y-138512669D01*
X177681777Y-138492939D01*
X177710186Y-138475912D01*
X177740126Y-138461751D01*
X177771311Y-138450593D01*
X177803439Y-138442545D01*
X177836201Y-138437685D01*
X177869282Y-138436060D01*
X178544282Y-138436060D01*
X178577363Y-138437685D01*
X178577363Y-138437685D01*
G37*
D19*
X178206782Y-139161060D03*
G04 #@! TD*
D18*
G04 #@! TO.C,R7*
G36*
X153405581Y-133896625D02*
X153438343Y-133901485D01*
X153470471Y-133909533D01*
X153501656Y-133920691D01*
X153531596Y-133934852D01*
X153560005Y-133951879D01*
X153586608Y-133971609D01*
X153611149Y-133993851D01*
X153633391Y-134018392D01*
X153653121Y-134044995D01*
X153670148Y-134073404D01*
X153684309Y-134103344D01*
X153695467Y-134134529D01*
X153703515Y-134166657D01*
X153708375Y-134199419D01*
X153710000Y-134232500D01*
X153710000Y-135007500D01*
X153708375Y-135040581D01*
X153703515Y-135073343D01*
X153695467Y-135105471D01*
X153684309Y-135136656D01*
X153670148Y-135166596D01*
X153653121Y-135195005D01*
X153633391Y-135221608D01*
X153611149Y-135246149D01*
X153586608Y-135268391D01*
X153560005Y-135288121D01*
X153531596Y-135305148D01*
X153501656Y-135319309D01*
X153470471Y-135330467D01*
X153438343Y-135338515D01*
X153405581Y-135343375D01*
X153372500Y-135345000D01*
X152697500Y-135345000D01*
X152664419Y-135343375D01*
X152631657Y-135338515D01*
X152599529Y-135330467D01*
X152568344Y-135319309D01*
X152538404Y-135305148D01*
X152509995Y-135288121D01*
X152483392Y-135268391D01*
X152458851Y-135246149D01*
X152436609Y-135221608D01*
X152416879Y-135195005D01*
X152399852Y-135166596D01*
X152385691Y-135136656D01*
X152374533Y-135105471D01*
X152366485Y-135073343D01*
X152361625Y-135040581D01*
X152360000Y-135007500D01*
X152360000Y-134232500D01*
X152361625Y-134199419D01*
X152366485Y-134166657D01*
X152374533Y-134134529D01*
X152385691Y-134103344D01*
X152399852Y-134073404D01*
X152416879Y-134044995D01*
X152436609Y-134018392D01*
X152458851Y-133993851D01*
X152483392Y-133971609D01*
X152509995Y-133951879D01*
X152538404Y-133934852D01*
X152568344Y-133920691D01*
X152599529Y-133909533D01*
X152631657Y-133901485D01*
X152664419Y-133896625D01*
X152697500Y-133895000D01*
X153372500Y-133895000D01*
X153405581Y-133896625D01*
X153405581Y-133896625D01*
G37*
D19*
X153035000Y-134620000D03*
D18*
G36*
X153405581Y-135646625D02*
X153438343Y-135651485D01*
X153470471Y-135659533D01*
X153501656Y-135670691D01*
X153531596Y-135684852D01*
X153560005Y-135701879D01*
X153586608Y-135721609D01*
X153611149Y-135743851D01*
X153633391Y-135768392D01*
X153653121Y-135794995D01*
X153670148Y-135823404D01*
X153684309Y-135853344D01*
X153695467Y-135884529D01*
X153703515Y-135916657D01*
X153708375Y-135949419D01*
X153710000Y-135982500D01*
X153710000Y-136757500D01*
X153708375Y-136790581D01*
X153703515Y-136823343D01*
X153695467Y-136855471D01*
X153684309Y-136886656D01*
X153670148Y-136916596D01*
X153653121Y-136945005D01*
X153633391Y-136971608D01*
X153611149Y-136996149D01*
X153586608Y-137018391D01*
X153560005Y-137038121D01*
X153531596Y-137055148D01*
X153501656Y-137069309D01*
X153470471Y-137080467D01*
X153438343Y-137088515D01*
X153405581Y-137093375D01*
X153372500Y-137095000D01*
X152697500Y-137095000D01*
X152664419Y-137093375D01*
X152631657Y-137088515D01*
X152599529Y-137080467D01*
X152568344Y-137069309D01*
X152538404Y-137055148D01*
X152509995Y-137038121D01*
X152483392Y-137018391D01*
X152458851Y-136996149D01*
X152436609Y-136971608D01*
X152416879Y-136945005D01*
X152399852Y-136916596D01*
X152385691Y-136886656D01*
X152374533Y-136855471D01*
X152366485Y-136823343D01*
X152361625Y-136790581D01*
X152360000Y-136757500D01*
X152360000Y-135982500D01*
X152361625Y-135949419D01*
X152366485Y-135916657D01*
X152374533Y-135884529D01*
X152385691Y-135853344D01*
X152399852Y-135823404D01*
X152416879Y-135794995D01*
X152436609Y-135768392D01*
X152458851Y-135743851D01*
X152483392Y-135721609D01*
X152509995Y-135701879D01*
X152538404Y-135684852D01*
X152568344Y-135670691D01*
X152599529Y-135659533D01*
X152631657Y-135651485D01*
X152664419Y-135646625D01*
X152697500Y-135645000D01*
X153372500Y-135645000D01*
X153405581Y-135646625D01*
X153405581Y-135646625D01*
G37*
D19*
X153035000Y-136370000D03*
G04 #@! TD*
D18*
G04 #@! TO.C,R8*
G36*
X178577363Y-142882685D02*
X178610125Y-142887545D01*
X178642253Y-142895593D01*
X178673438Y-142906751D01*
X178703378Y-142920912D01*
X178731787Y-142937939D01*
X178758390Y-142957669D01*
X178782931Y-142979911D01*
X178805173Y-143004452D01*
X178824903Y-143031055D01*
X178841930Y-143059464D01*
X178856091Y-143089404D01*
X178867249Y-143120589D01*
X178875297Y-143152717D01*
X178880157Y-143185479D01*
X178881782Y-143218560D01*
X178881782Y-143993560D01*
X178880157Y-144026641D01*
X178875297Y-144059403D01*
X178867249Y-144091531D01*
X178856091Y-144122716D01*
X178841930Y-144152656D01*
X178824903Y-144181065D01*
X178805173Y-144207668D01*
X178782931Y-144232209D01*
X178758390Y-144254451D01*
X178731787Y-144274181D01*
X178703378Y-144291208D01*
X178673438Y-144305369D01*
X178642253Y-144316527D01*
X178610125Y-144324575D01*
X178577363Y-144329435D01*
X178544282Y-144331060D01*
X177869282Y-144331060D01*
X177836201Y-144329435D01*
X177803439Y-144324575D01*
X177771311Y-144316527D01*
X177740126Y-144305369D01*
X177710186Y-144291208D01*
X177681777Y-144274181D01*
X177655174Y-144254451D01*
X177630633Y-144232209D01*
X177608391Y-144207668D01*
X177588661Y-144181065D01*
X177571634Y-144152656D01*
X177557473Y-144122716D01*
X177546315Y-144091531D01*
X177538267Y-144059403D01*
X177533407Y-144026641D01*
X177531782Y-143993560D01*
X177531782Y-143218560D01*
X177533407Y-143185479D01*
X177538267Y-143152717D01*
X177546315Y-143120589D01*
X177557473Y-143089404D01*
X177571634Y-143059464D01*
X177588661Y-143031055D01*
X177608391Y-143004452D01*
X177630633Y-142979911D01*
X177655174Y-142957669D01*
X177681777Y-142937939D01*
X177710186Y-142920912D01*
X177740126Y-142906751D01*
X177771311Y-142895593D01*
X177803439Y-142887545D01*
X177836201Y-142882685D01*
X177869282Y-142881060D01*
X178544282Y-142881060D01*
X178577363Y-142882685D01*
X178577363Y-142882685D01*
G37*
D19*
X178206782Y-143606060D03*
D18*
G36*
X178577363Y-144632685D02*
X178610125Y-144637545D01*
X178642253Y-144645593D01*
X178673438Y-144656751D01*
X178703378Y-144670912D01*
X178731787Y-144687939D01*
X178758390Y-144707669D01*
X178782931Y-144729911D01*
X178805173Y-144754452D01*
X178824903Y-144781055D01*
X178841930Y-144809464D01*
X178856091Y-144839404D01*
X178867249Y-144870589D01*
X178875297Y-144902717D01*
X178880157Y-144935479D01*
X178881782Y-144968560D01*
X178881782Y-145743560D01*
X178880157Y-145776641D01*
X178875297Y-145809403D01*
X178867249Y-145841531D01*
X178856091Y-145872716D01*
X178841930Y-145902656D01*
X178824903Y-145931065D01*
X178805173Y-145957668D01*
X178782931Y-145982209D01*
X178758390Y-146004451D01*
X178731787Y-146024181D01*
X178703378Y-146041208D01*
X178673438Y-146055369D01*
X178642253Y-146066527D01*
X178610125Y-146074575D01*
X178577363Y-146079435D01*
X178544282Y-146081060D01*
X177869282Y-146081060D01*
X177836201Y-146079435D01*
X177803439Y-146074575D01*
X177771311Y-146066527D01*
X177740126Y-146055369D01*
X177710186Y-146041208D01*
X177681777Y-146024181D01*
X177655174Y-146004451D01*
X177630633Y-145982209D01*
X177608391Y-145957668D01*
X177588661Y-145931065D01*
X177571634Y-145902656D01*
X177557473Y-145872716D01*
X177546315Y-145841531D01*
X177538267Y-145809403D01*
X177533407Y-145776641D01*
X177531782Y-145743560D01*
X177531782Y-144968560D01*
X177533407Y-144935479D01*
X177538267Y-144902717D01*
X177546315Y-144870589D01*
X177557473Y-144839404D01*
X177571634Y-144809464D01*
X177588661Y-144781055D01*
X177608391Y-144754452D01*
X177630633Y-144729911D01*
X177655174Y-144707669D01*
X177681777Y-144687939D01*
X177710186Y-144670912D01*
X177740126Y-144656751D01*
X177771311Y-144645593D01*
X177803439Y-144637545D01*
X177836201Y-144632685D01*
X177869282Y-144631060D01*
X178544282Y-144631060D01*
X178577363Y-144632685D01*
X178577363Y-144632685D01*
G37*
D19*
X178206782Y-145356060D03*
G04 #@! TD*
D18*
G04 #@! TO.C,R9*
G36*
X86086641Y-100519843D02*
X86119403Y-100524703D01*
X86151531Y-100532751D01*
X86182716Y-100543909D01*
X86212656Y-100558070D01*
X86241065Y-100575097D01*
X86267668Y-100594827D01*
X86292209Y-100617069D01*
X86314451Y-100641610D01*
X86334181Y-100668213D01*
X86351208Y-100696622D01*
X86365369Y-100726562D01*
X86376527Y-100757747D01*
X86384575Y-100789875D01*
X86389435Y-100822637D01*
X86391060Y-100855718D01*
X86391060Y-101530718D01*
X86389435Y-101563799D01*
X86384575Y-101596561D01*
X86376527Y-101628689D01*
X86365369Y-101659874D01*
X86351208Y-101689814D01*
X86334181Y-101718223D01*
X86314451Y-101744826D01*
X86292209Y-101769367D01*
X86267668Y-101791609D01*
X86241065Y-101811339D01*
X86212656Y-101828366D01*
X86182716Y-101842527D01*
X86151531Y-101853685D01*
X86119403Y-101861733D01*
X86086641Y-101866593D01*
X86053560Y-101868218D01*
X85278560Y-101868218D01*
X85245479Y-101866593D01*
X85212717Y-101861733D01*
X85180589Y-101853685D01*
X85149404Y-101842527D01*
X85119464Y-101828366D01*
X85091055Y-101811339D01*
X85064452Y-101791609D01*
X85039911Y-101769367D01*
X85017669Y-101744826D01*
X84997939Y-101718223D01*
X84980912Y-101689814D01*
X84966751Y-101659874D01*
X84955593Y-101628689D01*
X84947545Y-101596561D01*
X84942685Y-101563799D01*
X84941060Y-101530718D01*
X84941060Y-100855718D01*
X84942685Y-100822637D01*
X84947545Y-100789875D01*
X84955593Y-100757747D01*
X84966751Y-100726562D01*
X84980912Y-100696622D01*
X84997939Y-100668213D01*
X85017669Y-100641610D01*
X85039911Y-100617069D01*
X85064452Y-100594827D01*
X85091055Y-100575097D01*
X85119464Y-100558070D01*
X85149404Y-100543909D01*
X85180589Y-100532751D01*
X85212717Y-100524703D01*
X85245479Y-100519843D01*
X85278560Y-100518218D01*
X86053560Y-100518218D01*
X86086641Y-100519843D01*
X86086641Y-100519843D01*
G37*
D19*
X85666060Y-101193218D03*
D18*
G36*
X84336641Y-100519843D02*
X84369403Y-100524703D01*
X84401531Y-100532751D01*
X84432716Y-100543909D01*
X84462656Y-100558070D01*
X84491065Y-100575097D01*
X84517668Y-100594827D01*
X84542209Y-100617069D01*
X84564451Y-100641610D01*
X84584181Y-100668213D01*
X84601208Y-100696622D01*
X84615369Y-100726562D01*
X84626527Y-100757747D01*
X84634575Y-100789875D01*
X84639435Y-100822637D01*
X84641060Y-100855718D01*
X84641060Y-101530718D01*
X84639435Y-101563799D01*
X84634575Y-101596561D01*
X84626527Y-101628689D01*
X84615369Y-101659874D01*
X84601208Y-101689814D01*
X84584181Y-101718223D01*
X84564451Y-101744826D01*
X84542209Y-101769367D01*
X84517668Y-101791609D01*
X84491065Y-101811339D01*
X84462656Y-101828366D01*
X84432716Y-101842527D01*
X84401531Y-101853685D01*
X84369403Y-101861733D01*
X84336641Y-101866593D01*
X84303560Y-101868218D01*
X83528560Y-101868218D01*
X83495479Y-101866593D01*
X83462717Y-101861733D01*
X83430589Y-101853685D01*
X83399404Y-101842527D01*
X83369464Y-101828366D01*
X83341055Y-101811339D01*
X83314452Y-101791609D01*
X83289911Y-101769367D01*
X83267669Y-101744826D01*
X83247939Y-101718223D01*
X83230912Y-101689814D01*
X83216751Y-101659874D01*
X83205593Y-101628689D01*
X83197545Y-101596561D01*
X83192685Y-101563799D01*
X83191060Y-101530718D01*
X83191060Y-100855718D01*
X83192685Y-100822637D01*
X83197545Y-100789875D01*
X83205593Y-100757747D01*
X83216751Y-100726562D01*
X83230912Y-100696622D01*
X83247939Y-100668213D01*
X83267669Y-100641610D01*
X83289911Y-100617069D01*
X83314452Y-100594827D01*
X83341055Y-100575097D01*
X83369464Y-100558070D01*
X83399404Y-100543909D01*
X83430589Y-100532751D01*
X83462717Y-100524703D01*
X83495479Y-100519843D01*
X83528560Y-100518218D01*
X84303560Y-100518218D01*
X84336641Y-100519843D01*
X84336641Y-100519843D01*
G37*
D19*
X83916060Y-101193218D03*
G04 #@! TD*
D18*
G04 #@! TO.C,R10*
G36*
X81161641Y-71309843D02*
X81194403Y-71314703D01*
X81226531Y-71322751D01*
X81257716Y-71333909D01*
X81287656Y-71348070D01*
X81316065Y-71365097D01*
X81342668Y-71384827D01*
X81367209Y-71407069D01*
X81389451Y-71431610D01*
X81409181Y-71458213D01*
X81426208Y-71486622D01*
X81440369Y-71516562D01*
X81451527Y-71547747D01*
X81459575Y-71579875D01*
X81464435Y-71612637D01*
X81466060Y-71645718D01*
X81466060Y-72320718D01*
X81464435Y-72353799D01*
X81459575Y-72386561D01*
X81451527Y-72418689D01*
X81440369Y-72449874D01*
X81426208Y-72479814D01*
X81409181Y-72508223D01*
X81389451Y-72534826D01*
X81367209Y-72559367D01*
X81342668Y-72581609D01*
X81316065Y-72601339D01*
X81287656Y-72618366D01*
X81257716Y-72632527D01*
X81226531Y-72643685D01*
X81194403Y-72651733D01*
X81161641Y-72656593D01*
X81128560Y-72658218D01*
X80353560Y-72658218D01*
X80320479Y-72656593D01*
X80287717Y-72651733D01*
X80255589Y-72643685D01*
X80224404Y-72632527D01*
X80194464Y-72618366D01*
X80166055Y-72601339D01*
X80139452Y-72581609D01*
X80114911Y-72559367D01*
X80092669Y-72534826D01*
X80072939Y-72508223D01*
X80055912Y-72479814D01*
X80041751Y-72449874D01*
X80030593Y-72418689D01*
X80022545Y-72386561D01*
X80017685Y-72353799D01*
X80016060Y-72320718D01*
X80016060Y-71645718D01*
X80017685Y-71612637D01*
X80022545Y-71579875D01*
X80030593Y-71547747D01*
X80041751Y-71516562D01*
X80055912Y-71486622D01*
X80072939Y-71458213D01*
X80092669Y-71431610D01*
X80114911Y-71407069D01*
X80139452Y-71384827D01*
X80166055Y-71365097D01*
X80194464Y-71348070D01*
X80224404Y-71333909D01*
X80255589Y-71322751D01*
X80287717Y-71314703D01*
X80320479Y-71309843D01*
X80353560Y-71308218D01*
X81128560Y-71308218D01*
X81161641Y-71309843D01*
X81161641Y-71309843D01*
G37*
D19*
X80741060Y-71983218D03*
D18*
G36*
X82911641Y-71309843D02*
X82944403Y-71314703D01*
X82976531Y-71322751D01*
X83007716Y-71333909D01*
X83037656Y-71348070D01*
X83066065Y-71365097D01*
X83092668Y-71384827D01*
X83117209Y-71407069D01*
X83139451Y-71431610D01*
X83159181Y-71458213D01*
X83176208Y-71486622D01*
X83190369Y-71516562D01*
X83201527Y-71547747D01*
X83209575Y-71579875D01*
X83214435Y-71612637D01*
X83216060Y-71645718D01*
X83216060Y-72320718D01*
X83214435Y-72353799D01*
X83209575Y-72386561D01*
X83201527Y-72418689D01*
X83190369Y-72449874D01*
X83176208Y-72479814D01*
X83159181Y-72508223D01*
X83139451Y-72534826D01*
X83117209Y-72559367D01*
X83092668Y-72581609D01*
X83066065Y-72601339D01*
X83037656Y-72618366D01*
X83007716Y-72632527D01*
X82976531Y-72643685D01*
X82944403Y-72651733D01*
X82911641Y-72656593D01*
X82878560Y-72658218D01*
X82103560Y-72658218D01*
X82070479Y-72656593D01*
X82037717Y-72651733D01*
X82005589Y-72643685D01*
X81974404Y-72632527D01*
X81944464Y-72618366D01*
X81916055Y-72601339D01*
X81889452Y-72581609D01*
X81864911Y-72559367D01*
X81842669Y-72534826D01*
X81822939Y-72508223D01*
X81805912Y-72479814D01*
X81791751Y-72449874D01*
X81780593Y-72418689D01*
X81772545Y-72386561D01*
X81767685Y-72353799D01*
X81766060Y-72320718D01*
X81766060Y-71645718D01*
X81767685Y-71612637D01*
X81772545Y-71579875D01*
X81780593Y-71547747D01*
X81791751Y-71516562D01*
X81805912Y-71486622D01*
X81822939Y-71458213D01*
X81842669Y-71431610D01*
X81864911Y-71407069D01*
X81889452Y-71384827D01*
X81916055Y-71365097D01*
X81944464Y-71348070D01*
X81974404Y-71333909D01*
X82005589Y-71322751D01*
X82037717Y-71314703D01*
X82070479Y-71309843D01*
X82103560Y-71308218D01*
X82878560Y-71308218D01*
X82911641Y-71309843D01*
X82911641Y-71309843D01*
G37*
D19*
X82491060Y-71983218D03*
G04 #@! TD*
D18*
G04 #@! TO.C,R11*
G36*
X79496641Y-100519843D02*
X79529403Y-100524703D01*
X79561531Y-100532751D01*
X79592716Y-100543909D01*
X79622656Y-100558070D01*
X79651065Y-100575097D01*
X79677668Y-100594827D01*
X79702209Y-100617069D01*
X79724451Y-100641610D01*
X79744181Y-100668213D01*
X79761208Y-100696622D01*
X79775369Y-100726562D01*
X79786527Y-100757747D01*
X79794575Y-100789875D01*
X79799435Y-100822637D01*
X79801060Y-100855718D01*
X79801060Y-101530718D01*
X79799435Y-101563799D01*
X79794575Y-101596561D01*
X79786527Y-101628689D01*
X79775369Y-101659874D01*
X79761208Y-101689814D01*
X79744181Y-101718223D01*
X79724451Y-101744826D01*
X79702209Y-101769367D01*
X79677668Y-101791609D01*
X79651065Y-101811339D01*
X79622656Y-101828366D01*
X79592716Y-101842527D01*
X79561531Y-101853685D01*
X79529403Y-101861733D01*
X79496641Y-101866593D01*
X79463560Y-101868218D01*
X78688560Y-101868218D01*
X78655479Y-101866593D01*
X78622717Y-101861733D01*
X78590589Y-101853685D01*
X78559404Y-101842527D01*
X78529464Y-101828366D01*
X78501055Y-101811339D01*
X78474452Y-101791609D01*
X78449911Y-101769367D01*
X78427669Y-101744826D01*
X78407939Y-101718223D01*
X78390912Y-101689814D01*
X78376751Y-101659874D01*
X78365593Y-101628689D01*
X78357545Y-101596561D01*
X78352685Y-101563799D01*
X78351060Y-101530718D01*
X78351060Y-100855718D01*
X78352685Y-100822637D01*
X78357545Y-100789875D01*
X78365593Y-100757747D01*
X78376751Y-100726562D01*
X78390912Y-100696622D01*
X78407939Y-100668213D01*
X78427669Y-100641610D01*
X78449911Y-100617069D01*
X78474452Y-100594827D01*
X78501055Y-100575097D01*
X78529464Y-100558070D01*
X78559404Y-100543909D01*
X78590589Y-100532751D01*
X78622717Y-100524703D01*
X78655479Y-100519843D01*
X78688560Y-100518218D01*
X79463560Y-100518218D01*
X79496641Y-100519843D01*
X79496641Y-100519843D01*
G37*
D19*
X79076060Y-101193218D03*
D18*
G36*
X81246641Y-100519843D02*
X81279403Y-100524703D01*
X81311531Y-100532751D01*
X81342716Y-100543909D01*
X81372656Y-100558070D01*
X81401065Y-100575097D01*
X81427668Y-100594827D01*
X81452209Y-100617069D01*
X81474451Y-100641610D01*
X81494181Y-100668213D01*
X81511208Y-100696622D01*
X81525369Y-100726562D01*
X81536527Y-100757747D01*
X81544575Y-100789875D01*
X81549435Y-100822637D01*
X81551060Y-100855718D01*
X81551060Y-101530718D01*
X81549435Y-101563799D01*
X81544575Y-101596561D01*
X81536527Y-101628689D01*
X81525369Y-101659874D01*
X81511208Y-101689814D01*
X81494181Y-101718223D01*
X81474451Y-101744826D01*
X81452209Y-101769367D01*
X81427668Y-101791609D01*
X81401065Y-101811339D01*
X81372656Y-101828366D01*
X81342716Y-101842527D01*
X81311531Y-101853685D01*
X81279403Y-101861733D01*
X81246641Y-101866593D01*
X81213560Y-101868218D01*
X80438560Y-101868218D01*
X80405479Y-101866593D01*
X80372717Y-101861733D01*
X80340589Y-101853685D01*
X80309404Y-101842527D01*
X80279464Y-101828366D01*
X80251055Y-101811339D01*
X80224452Y-101791609D01*
X80199911Y-101769367D01*
X80177669Y-101744826D01*
X80157939Y-101718223D01*
X80140912Y-101689814D01*
X80126751Y-101659874D01*
X80115593Y-101628689D01*
X80107545Y-101596561D01*
X80102685Y-101563799D01*
X80101060Y-101530718D01*
X80101060Y-100855718D01*
X80102685Y-100822637D01*
X80107545Y-100789875D01*
X80115593Y-100757747D01*
X80126751Y-100726562D01*
X80140912Y-100696622D01*
X80157939Y-100668213D01*
X80177669Y-100641610D01*
X80199911Y-100617069D01*
X80224452Y-100594827D01*
X80251055Y-100575097D01*
X80279464Y-100558070D01*
X80309404Y-100543909D01*
X80340589Y-100532751D01*
X80372717Y-100524703D01*
X80405479Y-100519843D01*
X80438560Y-100518218D01*
X81213560Y-100518218D01*
X81246641Y-100519843D01*
X81246641Y-100519843D01*
G37*
D19*
X80826060Y-101193218D03*
G04 #@! TD*
D18*
G04 #@! TO.C,R12*
G36*
X87991641Y-71309843D02*
X88024403Y-71314703D01*
X88056531Y-71322751D01*
X88087716Y-71333909D01*
X88117656Y-71348070D01*
X88146065Y-71365097D01*
X88172668Y-71384827D01*
X88197209Y-71407069D01*
X88219451Y-71431610D01*
X88239181Y-71458213D01*
X88256208Y-71486622D01*
X88270369Y-71516562D01*
X88281527Y-71547747D01*
X88289575Y-71579875D01*
X88294435Y-71612637D01*
X88296060Y-71645718D01*
X88296060Y-72320718D01*
X88294435Y-72353799D01*
X88289575Y-72386561D01*
X88281527Y-72418689D01*
X88270369Y-72449874D01*
X88256208Y-72479814D01*
X88239181Y-72508223D01*
X88219451Y-72534826D01*
X88197209Y-72559367D01*
X88172668Y-72581609D01*
X88146065Y-72601339D01*
X88117656Y-72618366D01*
X88087716Y-72632527D01*
X88056531Y-72643685D01*
X88024403Y-72651733D01*
X87991641Y-72656593D01*
X87958560Y-72658218D01*
X87183560Y-72658218D01*
X87150479Y-72656593D01*
X87117717Y-72651733D01*
X87085589Y-72643685D01*
X87054404Y-72632527D01*
X87024464Y-72618366D01*
X86996055Y-72601339D01*
X86969452Y-72581609D01*
X86944911Y-72559367D01*
X86922669Y-72534826D01*
X86902939Y-72508223D01*
X86885912Y-72479814D01*
X86871751Y-72449874D01*
X86860593Y-72418689D01*
X86852545Y-72386561D01*
X86847685Y-72353799D01*
X86846060Y-72320718D01*
X86846060Y-71645718D01*
X86847685Y-71612637D01*
X86852545Y-71579875D01*
X86860593Y-71547747D01*
X86871751Y-71516562D01*
X86885912Y-71486622D01*
X86902939Y-71458213D01*
X86922669Y-71431610D01*
X86944911Y-71407069D01*
X86969452Y-71384827D01*
X86996055Y-71365097D01*
X87024464Y-71348070D01*
X87054404Y-71333909D01*
X87085589Y-71322751D01*
X87117717Y-71314703D01*
X87150479Y-71309843D01*
X87183560Y-71308218D01*
X87958560Y-71308218D01*
X87991641Y-71309843D01*
X87991641Y-71309843D01*
G37*
D19*
X87571060Y-71983218D03*
D18*
G36*
X86241641Y-71309843D02*
X86274403Y-71314703D01*
X86306531Y-71322751D01*
X86337716Y-71333909D01*
X86367656Y-71348070D01*
X86396065Y-71365097D01*
X86422668Y-71384827D01*
X86447209Y-71407069D01*
X86469451Y-71431610D01*
X86489181Y-71458213D01*
X86506208Y-71486622D01*
X86520369Y-71516562D01*
X86531527Y-71547747D01*
X86539575Y-71579875D01*
X86544435Y-71612637D01*
X86546060Y-71645718D01*
X86546060Y-72320718D01*
X86544435Y-72353799D01*
X86539575Y-72386561D01*
X86531527Y-72418689D01*
X86520369Y-72449874D01*
X86506208Y-72479814D01*
X86489181Y-72508223D01*
X86469451Y-72534826D01*
X86447209Y-72559367D01*
X86422668Y-72581609D01*
X86396065Y-72601339D01*
X86367656Y-72618366D01*
X86337716Y-72632527D01*
X86306531Y-72643685D01*
X86274403Y-72651733D01*
X86241641Y-72656593D01*
X86208560Y-72658218D01*
X85433560Y-72658218D01*
X85400479Y-72656593D01*
X85367717Y-72651733D01*
X85335589Y-72643685D01*
X85304404Y-72632527D01*
X85274464Y-72618366D01*
X85246055Y-72601339D01*
X85219452Y-72581609D01*
X85194911Y-72559367D01*
X85172669Y-72534826D01*
X85152939Y-72508223D01*
X85135912Y-72479814D01*
X85121751Y-72449874D01*
X85110593Y-72418689D01*
X85102545Y-72386561D01*
X85097685Y-72353799D01*
X85096060Y-72320718D01*
X85096060Y-71645718D01*
X85097685Y-71612637D01*
X85102545Y-71579875D01*
X85110593Y-71547747D01*
X85121751Y-71516562D01*
X85135912Y-71486622D01*
X85152939Y-71458213D01*
X85172669Y-71431610D01*
X85194911Y-71407069D01*
X85219452Y-71384827D01*
X85246055Y-71365097D01*
X85274464Y-71348070D01*
X85304404Y-71333909D01*
X85335589Y-71322751D01*
X85367717Y-71314703D01*
X85400479Y-71309843D01*
X85433560Y-71308218D01*
X86208560Y-71308218D01*
X86241641Y-71309843D01*
X86241641Y-71309843D01*
G37*
D19*
X85821060Y-71983218D03*
G04 #@! TD*
D18*
G04 #@! TO.C,R13*
G36*
X150125581Y-120611625D02*
X150158343Y-120616485D01*
X150190471Y-120624533D01*
X150221656Y-120635691D01*
X150251596Y-120649852D01*
X150280005Y-120666879D01*
X150306608Y-120686609D01*
X150331149Y-120708851D01*
X150353391Y-120733392D01*
X150373121Y-120759995D01*
X150390148Y-120788404D01*
X150404309Y-120818344D01*
X150415467Y-120849529D01*
X150423515Y-120881657D01*
X150428375Y-120914419D01*
X150430000Y-120947500D01*
X150430000Y-121622500D01*
X150428375Y-121655581D01*
X150423515Y-121688343D01*
X150415467Y-121720471D01*
X150404309Y-121751656D01*
X150390148Y-121781596D01*
X150373121Y-121810005D01*
X150353391Y-121836608D01*
X150331149Y-121861149D01*
X150306608Y-121883391D01*
X150280005Y-121903121D01*
X150251596Y-121920148D01*
X150221656Y-121934309D01*
X150190471Y-121945467D01*
X150158343Y-121953515D01*
X150125581Y-121958375D01*
X150092500Y-121960000D01*
X149317500Y-121960000D01*
X149284419Y-121958375D01*
X149251657Y-121953515D01*
X149219529Y-121945467D01*
X149188344Y-121934309D01*
X149158404Y-121920148D01*
X149129995Y-121903121D01*
X149103392Y-121883391D01*
X149078851Y-121861149D01*
X149056609Y-121836608D01*
X149036879Y-121810005D01*
X149019852Y-121781596D01*
X149005691Y-121751656D01*
X148994533Y-121720471D01*
X148986485Y-121688343D01*
X148981625Y-121655581D01*
X148980000Y-121622500D01*
X148980000Y-120947500D01*
X148981625Y-120914419D01*
X148986485Y-120881657D01*
X148994533Y-120849529D01*
X149005691Y-120818344D01*
X149019852Y-120788404D01*
X149036879Y-120759995D01*
X149056609Y-120733392D01*
X149078851Y-120708851D01*
X149103392Y-120686609D01*
X149129995Y-120666879D01*
X149158404Y-120649852D01*
X149188344Y-120635691D01*
X149219529Y-120624533D01*
X149251657Y-120616485D01*
X149284419Y-120611625D01*
X149317500Y-120610000D01*
X150092500Y-120610000D01*
X150125581Y-120611625D01*
X150125581Y-120611625D01*
G37*
D19*
X149705000Y-121285000D03*
D18*
G36*
X148375581Y-120611625D02*
X148408343Y-120616485D01*
X148440471Y-120624533D01*
X148471656Y-120635691D01*
X148501596Y-120649852D01*
X148530005Y-120666879D01*
X148556608Y-120686609D01*
X148581149Y-120708851D01*
X148603391Y-120733392D01*
X148623121Y-120759995D01*
X148640148Y-120788404D01*
X148654309Y-120818344D01*
X148665467Y-120849529D01*
X148673515Y-120881657D01*
X148678375Y-120914419D01*
X148680000Y-120947500D01*
X148680000Y-121622500D01*
X148678375Y-121655581D01*
X148673515Y-121688343D01*
X148665467Y-121720471D01*
X148654309Y-121751656D01*
X148640148Y-121781596D01*
X148623121Y-121810005D01*
X148603391Y-121836608D01*
X148581149Y-121861149D01*
X148556608Y-121883391D01*
X148530005Y-121903121D01*
X148501596Y-121920148D01*
X148471656Y-121934309D01*
X148440471Y-121945467D01*
X148408343Y-121953515D01*
X148375581Y-121958375D01*
X148342500Y-121960000D01*
X147567500Y-121960000D01*
X147534419Y-121958375D01*
X147501657Y-121953515D01*
X147469529Y-121945467D01*
X147438344Y-121934309D01*
X147408404Y-121920148D01*
X147379995Y-121903121D01*
X147353392Y-121883391D01*
X147328851Y-121861149D01*
X147306609Y-121836608D01*
X147286879Y-121810005D01*
X147269852Y-121781596D01*
X147255691Y-121751656D01*
X147244533Y-121720471D01*
X147236485Y-121688343D01*
X147231625Y-121655581D01*
X147230000Y-121622500D01*
X147230000Y-120947500D01*
X147231625Y-120914419D01*
X147236485Y-120881657D01*
X147244533Y-120849529D01*
X147255691Y-120818344D01*
X147269852Y-120788404D01*
X147286879Y-120759995D01*
X147306609Y-120733392D01*
X147328851Y-120708851D01*
X147353392Y-120686609D01*
X147379995Y-120666879D01*
X147408404Y-120649852D01*
X147438344Y-120635691D01*
X147469529Y-120624533D01*
X147501657Y-120616485D01*
X147534419Y-120611625D01*
X147567500Y-120610000D01*
X148342500Y-120610000D01*
X148375581Y-120611625D01*
X148375581Y-120611625D01*
G37*
D19*
X147955000Y-121285000D03*
G04 #@! TD*
D18*
G04 #@! TO.C,R14*
G36*
X178170581Y-118357685D02*
X178203343Y-118362545D01*
X178235471Y-118370593D01*
X178266656Y-118381751D01*
X178296596Y-118395912D01*
X178325005Y-118412939D01*
X178351608Y-118432669D01*
X178376149Y-118454911D01*
X178398391Y-118479452D01*
X178418121Y-118506055D01*
X178435148Y-118534464D01*
X178449309Y-118564404D01*
X178460467Y-118595589D01*
X178468515Y-118627717D01*
X178473375Y-118660479D01*
X178475000Y-118693560D01*
X178475000Y-119468560D01*
X178473375Y-119501641D01*
X178468515Y-119534403D01*
X178460467Y-119566531D01*
X178449309Y-119597716D01*
X178435148Y-119627656D01*
X178418121Y-119656065D01*
X178398391Y-119682668D01*
X178376149Y-119707209D01*
X178351608Y-119729451D01*
X178325005Y-119749181D01*
X178296596Y-119766208D01*
X178266656Y-119780369D01*
X178235471Y-119791527D01*
X178203343Y-119799575D01*
X178170581Y-119804435D01*
X178137500Y-119806060D01*
X177462500Y-119806060D01*
X177429419Y-119804435D01*
X177396657Y-119799575D01*
X177364529Y-119791527D01*
X177333344Y-119780369D01*
X177303404Y-119766208D01*
X177274995Y-119749181D01*
X177248392Y-119729451D01*
X177223851Y-119707209D01*
X177201609Y-119682668D01*
X177181879Y-119656065D01*
X177164852Y-119627656D01*
X177150691Y-119597716D01*
X177139533Y-119566531D01*
X177131485Y-119534403D01*
X177126625Y-119501641D01*
X177125000Y-119468560D01*
X177125000Y-118693560D01*
X177126625Y-118660479D01*
X177131485Y-118627717D01*
X177139533Y-118595589D01*
X177150691Y-118564404D01*
X177164852Y-118534464D01*
X177181879Y-118506055D01*
X177201609Y-118479452D01*
X177223851Y-118454911D01*
X177248392Y-118432669D01*
X177274995Y-118412939D01*
X177303404Y-118395912D01*
X177333344Y-118381751D01*
X177364529Y-118370593D01*
X177396657Y-118362545D01*
X177429419Y-118357685D01*
X177462500Y-118356060D01*
X178137500Y-118356060D01*
X178170581Y-118357685D01*
X178170581Y-118357685D01*
G37*
D19*
X177800000Y-119081060D03*
D18*
G36*
X178170581Y-116607685D02*
X178203343Y-116612545D01*
X178235471Y-116620593D01*
X178266656Y-116631751D01*
X178296596Y-116645912D01*
X178325005Y-116662939D01*
X178351608Y-116682669D01*
X178376149Y-116704911D01*
X178398391Y-116729452D01*
X178418121Y-116756055D01*
X178435148Y-116784464D01*
X178449309Y-116814404D01*
X178460467Y-116845589D01*
X178468515Y-116877717D01*
X178473375Y-116910479D01*
X178475000Y-116943560D01*
X178475000Y-117718560D01*
X178473375Y-117751641D01*
X178468515Y-117784403D01*
X178460467Y-117816531D01*
X178449309Y-117847716D01*
X178435148Y-117877656D01*
X178418121Y-117906065D01*
X178398391Y-117932668D01*
X178376149Y-117957209D01*
X178351608Y-117979451D01*
X178325005Y-117999181D01*
X178296596Y-118016208D01*
X178266656Y-118030369D01*
X178235471Y-118041527D01*
X178203343Y-118049575D01*
X178170581Y-118054435D01*
X178137500Y-118056060D01*
X177462500Y-118056060D01*
X177429419Y-118054435D01*
X177396657Y-118049575D01*
X177364529Y-118041527D01*
X177333344Y-118030369D01*
X177303404Y-118016208D01*
X177274995Y-117999181D01*
X177248392Y-117979451D01*
X177223851Y-117957209D01*
X177201609Y-117932668D01*
X177181879Y-117906065D01*
X177164852Y-117877656D01*
X177150691Y-117847716D01*
X177139533Y-117816531D01*
X177131485Y-117784403D01*
X177126625Y-117751641D01*
X177125000Y-117718560D01*
X177125000Y-116943560D01*
X177126625Y-116910479D01*
X177131485Y-116877717D01*
X177139533Y-116845589D01*
X177150691Y-116814404D01*
X177164852Y-116784464D01*
X177181879Y-116756055D01*
X177201609Y-116729452D01*
X177223851Y-116704911D01*
X177248392Y-116682669D01*
X177274995Y-116662939D01*
X177303404Y-116645912D01*
X177333344Y-116631751D01*
X177364529Y-116620593D01*
X177396657Y-116612545D01*
X177429419Y-116607685D01*
X177462500Y-116606060D01*
X178137500Y-116606060D01*
X178170581Y-116607685D01*
X178170581Y-116607685D01*
G37*
D19*
X177800000Y-117331060D03*
G04 #@! TD*
D18*
G04 #@! TO.C,R15*
G36*
X150125581Y-117436625D02*
X150158343Y-117441485D01*
X150190471Y-117449533D01*
X150221656Y-117460691D01*
X150251596Y-117474852D01*
X150280005Y-117491879D01*
X150306608Y-117511609D01*
X150331149Y-117533851D01*
X150353391Y-117558392D01*
X150373121Y-117584995D01*
X150390148Y-117613404D01*
X150404309Y-117643344D01*
X150415467Y-117674529D01*
X150423515Y-117706657D01*
X150428375Y-117739419D01*
X150430000Y-117772500D01*
X150430000Y-118447500D01*
X150428375Y-118480581D01*
X150423515Y-118513343D01*
X150415467Y-118545471D01*
X150404309Y-118576656D01*
X150390148Y-118606596D01*
X150373121Y-118635005D01*
X150353391Y-118661608D01*
X150331149Y-118686149D01*
X150306608Y-118708391D01*
X150280005Y-118728121D01*
X150251596Y-118745148D01*
X150221656Y-118759309D01*
X150190471Y-118770467D01*
X150158343Y-118778515D01*
X150125581Y-118783375D01*
X150092500Y-118785000D01*
X149317500Y-118785000D01*
X149284419Y-118783375D01*
X149251657Y-118778515D01*
X149219529Y-118770467D01*
X149188344Y-118759309D01*
X149158404Y-118745148D01*
X149129995Y-118728121D01*
X149103392Y-118708391D01*
X149078851Y-118686149D01*
X149056609Y-118661608D01*
X149036879Y-118635005D01*
X149019852Y-118606596D01*
X149005691Y-118576656D01*
X148994533Y-118545471D01*
X148986485Y-118513343D01*
X148981625Y-118480581D01*
X148980000Y-118447500D01*
X148980000Y-117772500D01*
X148981625Y-117739419D01*
X148986485Y-117706657D01*
X148994533Y-117674529D01*
X149005691Y-117643344D01*
X149019852Y-117613404D01*
X149036879Y-117584995D01*
X149056609Y-117558392D01*
X149078851Y-117533851D01*
X149103392Y-117511609D01*
X149129995Y-117491879D01*
X149158404Y-117474852D01*
X149188344Y-117460691D01*
X149219529Y-117449533D01*
X149251657Y-117441485D01*
X149284419Y-117436625D01*
X149317500Y-117435000D01*
X150092500Y-117435000D01*
X150125581Y-117436625D01*
X150125581Y-117436625D01*
G37*
D19*
X149705000Y-118110000D03*
D18*
G36*
X148375581Y-117436625D02*
X148408343Y-117441485D01*
X148440471Y-117449533D01*
X148471656Y-117460691D01*
X148501596Y-117474852D01*
X148530005Y-117491879D01*
X148556608Y-117511609D01*
X148581149Y-117533851D01*
X148603391Y-117558392D01*
X148623121Y-117584995D01*
X148640148Y-117613404D01*
X148654309Y-117643344D01*
X148665467Y-117674529D01*
X148673515Y-117706657D01*
X148678375Y-117739419D01*
X148680000Y-117772500D01*
X148680000Y-118447500D01*
X148678375Y-118480581D01*
X148673515Y-118513343D01*
X148665467Y-118545471D01*
X148654309Y-118576656D01*
X148640148Y-118606596D01*
X148623121Y-118635005D01*
X148603391Y-118661608D01*
X148581149Y-118686149D01*
X148556608Y-118708391D01*
X148530005Y-118728121D01*
X148501596Y-118745148D01*
X148471656Y-118759309D01*
X148440471Y-118770467D01*
X148408343Y-118778515D01*
X148375581Y-118783375D01*
X148342500Y-118785000D01*
X147567500Y-118785000D01*
X147534419Y-118783375D01*
X147501657Y-118778515D01*
X147469529Y-118770467D01*
X147438344Y-118759309D01*
X147408404Y-118745148D01*
X147379995Y-118728121D01*
X147353392Y-118708391D01*
X147328851Y-118686149D01*
X147306609Y-118661608D01*
X147286879Y-118635005D01*
X147269852Y-118606596D01*
X147255691Y-118576656D01*
X147244533Y-118545471D01*
X147236485Y-118513343D01*
X147231625Y-118480581D01*
X147230000Y-118447500D01*
X147230000Y-117772500D01*
X147231625Y-117739419D01*
X147236485Y-117706657D01*
X147244533Y-117674529D01*
X147255691Y-117643344D01*
X147269852Y-117613404D01*
X147286879Y-117584995D01*
X147306609Y-117558392D01*
X147328851Y-117533851D01*
X147353392Y-117511609D01*
X147379995Y-117491879D01*
X147408404Y-117474852D01*
X147438344Y-117460691D01*
X147469529Y-117449533D01*
X147501657Y-117441485D01*
X147534419Y-117436625D01*
X147567500Y-117435000D01*
X148342500Y-117435000D01*
X148375581Y-117436625D01*
X148375581Y-117436625D01*
G37*
D19*
X147955000Y-118110000D03*
G04 #@! TD*
D18*
G04 #@! TO.C,R16*
G36*
X178170581Y-121986625D02*
X178203343Y-121991485D01*
X178235471Y-121999533D01*
X178266656Y-122010691D01*
X178296596Y-122024852D01*
X178325005Y-122041879D01*
X178351608Y-122061609D01*
X178376149Y-122083851D01*
X178398391Y-122108392D01*
X178418121Y-122134995D01*
X178435148Y-122163404D01*
X178449309Y-122193344D01*
X178460467Y-122224529D01*
X178468515Y-122256657D01*
X178473375Y-122289419D01*
X178475000Y-122322500D01*
X178475000Y-123097500D01*
X178473375Y-123130581D01*
X178468515Y-123163343D01*
X178460467Y-123195471D01*
X178449309Y-123226656D01*
X178435148Y-123256596D01*
X178418121Y-123285005D01*
X178398391Y-123311608D01*
X178376149Y-123336149D01*
X178351608Y-123358391D01*
X178325005Y-123378121D01*
X178296596Y-123395148D01*
X178266656Y-123409309D01*
X178235471Y-123420467D01*
X178203343Y-123428515D01*
X178170581Y-123433375D01*
X178137500Y-123435000D01*
X177462500Y-123435000D01*
X177429419Y-123433375D01*
X177396657Y-123428515D01*
X177364529Y-123420467D01*
X177333344Y-123409309D01*
X177303404Y-123395148D01*
X177274995Y-123378121D01*
X177248392Y-123358391D01*
X177223851Y-123336149D01*
X177201609Y-123311608D01*
X177181879Y-123285005D01*
X177164852Y-123256596D01*
X177150691Y-123226656D01*
X177139533Y-123195471D01*
X177131485Y-123163343D01*
X177126625Y-123130581D01*
X177125000Y-123097500D01*
X177125000Y-122322500D01*
X177126625Y-122289419D01*
X177131485Y-122256657D01*
X177139533Y-122224529D01*
X177150691Y-122193344D01*
X177164852Y-122163404D01*
X177181879Y-122134995D01*
X177201609Y-122108392D01*
X177223851Y-122083851D01*
X177248392Y-122061609D01*
X177274995Y-122041879D01*
X177303404Y-122024852D01*
X177333344Y-122010691D01*
X177364529Y-121999533D01*
X177396657Y-121991485D01*
X177429419Y-121986625D01*
X177462500Y-121985000D01*
X178137500Y-121985000D01*
X178170581Y-121986625D01*
X178170581Y-121986625D01*
G37*
D19*
X177800000Y-122710000D03*
D18*
G36*
X178170581Y-123736625D02*
X178203343Y-123741485D01*
X178235471Y-123749533D01*
X178266656Y-123760691D01*
X178296596Y-123774852D01*
X178325005Y-123791879D01*
X178351608Y-123811609D01*
X178376149Y-123833851D01*
X178398391Y-123858392D01*
X178418121Y-123884995D01*
X178435148Y-123913404D01*
X178449309Y-123943344D01*
X178460467Y-123974529D01*
X178468515Y-124006657D01*
X178473375Y-124039419D01*
X178475000Y-124072500D01*
X178475000Y-124847500D01*
X178473375Y-124880581D01*
X178468515Y-124913343D01*
X178460467Y-124945471D01*
X178449309Y-124976656D01*
X178435148Y-125006596D01*
X178418121Y-125035005D01*
X178398391Y-125061608D01*
X178376149Y-125086149D01*
X178351608Y-125108391D01*
X178325005Y-125128121D01*
X178296596Y-125145148D01*
X178266656Y-125159309D01*
X178235471Y-125170467D01*
X178203343Y-125178515D01*
X178170581Y-125183375D01*
X178137500Y-125185000D01*
X177462500Y-125185000D01*
X177429419Y-125183375D01*
X177396657Y-125178515D01*
X177364529Y-125170467D01*
X177333344Y-125159309D01*
X177303404Y-125145148D01*
X177274995Y-125128121D01*
X177248392Y-125108391D01*
X177223851Y-125086149D01*
X177201609Y-125061608D01*
X177181879Y-125035005D01*
X177164852Y-125006596D01*
X177150691Y-124976656D01*
X177139533Y-124945471D01*
X177131485Y-124913343D01*
X177126625Y-124880581D01*
X177125000Y-124847500D01*
X177125000Y-124072500D01*
X177126625Y-124039419D01*
X177131485Y-124006657D01*
X177139533Y-123974529D01*
X177150691Y-123943344D01*
X177164852Y-123913404D01*
X177181879Y-123884995D01*
X177201609Y-123858392D01*
X177223851Y-123833851D01*
X177248392Y-123811609D01*
X177274995Y-123791879D01*
X177303404Y-123774852D01*
X177333344Y-123760691D01*
X177364529Y-123749533D01*
X177396657Y-123741485D01*
X177429419Y-123736625D01*
X177462500Y-123735000D01*
X178137500Y-123735000D01*
X178170581Y-123736625D01*
X178170581Y-123736625D01*
G37*
D19*
X177800000Y-124460000D03*
G04 #@! TD*
D18*
G04 #@! TO.C,R17*
G36*
X106166641Y-100519843D02*
X106199403Y-100524703D01*
X106231531Y-100532751D01*
X106262716Y-100543909D01*
X106292656Y-100558070D01*
X106321065Y-100575097D01*
X106347668Y-100594827D01*
X106372209Y-100617069D01*
X106394451Y-100641610D01*
X106414181Y-100668213D01*
X106431208Y-100696622D01*
X106445369Y-100726562D01*
X106456527Y-100757747D01*
X106464575Y-100789875D01*
X106469435Y-100822637D01*
X106471060Y-100855718D01*
X106471060Y-101530718D01*
X106469435Y-101563799D01*
X106464575Y-101596561D01*
X106456527Y-101628689D01*
X106445369Y-101659874D01*
X106431208Y-101689814D01*
X106414181Y-101718223D01*
X106394451Y-101744826D01*
X106372209Y-101769367D01*
X106347668Y-101791609D01*
X106321065Y-101811339D01*
X106292656Y-101828366D01*
X106262716Y-101842527D01*
X106231531Y-101853685D01*
X106199403Y-101861733D01*
X106166641Y-101866593D01*
X106133560Y-101868218D01*
X105358560Y-101868218D01*
X105325479Y-101866593D01*
X105292717Y-101861733D01*
X105260589Y-101853685D01*
X105229404Y-101842527D01*
X105199464Y-101828366D01*
X105171055Y-101811339D01*
X105144452Y-101791609D01*
X105119911Y-101769367D01*
X105097669Y-101744826D01*
X105077939Y-101718223D01*
X105060912Y-101689814D01*
X105046751Y-101659874D01*
X105035593Y-101628689D01*
X105027545Y-101596561D01*
X105022685Y-101563799D01*
X105021060Y-101530718D01*
X105021060Y-100855718D01*
X105022685Y-100822637D01*
X105027545Y-100789875D01*
X105035593Y-100757747D01*
X105046751Y-100726562D01*
X105060912Y-100696622D01*
X105077939Y-100668213D01*
X105097669Y-100641610D01*
X105119911Y-100617069D01*
X105144452Y-100594827D01*
X105171055Y-100575097D01*
X105199464Y-100558070D01*
X105229404Y-100543909D01*
X105260589Y-100532751D01*
X105292717Y-100524703D01*
X105325479Y-100519843D01*
X105358560Y-100518218D01*
X106133560Y-100518218D01*
X106166641Y-100519843D01*
X106166641Y-100519843D01*
G37*
D19*
X105746060Y-101193218D03*
D18*
G36*
X107916641Y-100519843D02*
X107949403Y-100524703D01*
X107981531Y-100532751D01*
X108012716Y-100543909D01*
X108042656Y-100558070D01*
X108071065Y-100575097D01*
X108097668Y-100594827D01*
X108122209Y-100617069D01*
X108144451Y-100641610D01*
X108164181Y-100668213D01*
X108181208Y-100696622D01*
X108195369Y-100726562D01*
X108206527Y-100757747D01*
X108214575Y-100789875D01*
X108219435Y-100822637D01*
X108221060Y-100855718D01*
X108221060Y-101530718D01*
X108219435Y-101563799D01*
X108214575Y-101596561D01*
X108206527Y-101628689D01*
X108195369Y-101659874D01*
X108181208Y-101689814D01*
X108164181Y-101718223D01*
X108144451Y-101744826D01*
X108122209Y-101769367D01*
X108097668Y-101791609D01*
X108071065Y-101811339D01*
X108042656Y-101828366D01*
X108012716Y-101842527D01*
X107981531Y-101853685D01*
X107949403Y-101861733D01*
X107916641Y-101866593D01*
X107883560Y-101868218D01*
X107108560Y-101868218D01*
X107075479Y-101866593D01*
X107042717Y-101861733D01*
X107010589Y-101853685D01*
X106979404Y-101842527D01*
X106949464Y-101828366D01*
X106921055Y-101811339D01*
X106894452Y-101791609D01*
X106869911Y-101769367D01*
X106847669Y-101744826D01*
X106827939Y-101718223D01*
X106810912Y-101689814D01*
X106796751Y-101659874D01*
X106785593Y-101628689D01*
X106777545Y-101596561D01*
X106772685Y-101563799D01*
X106771060Y-101530718D01*
X106771060Y-100855718D01*
X106772685Y-100822637D01*
X106777545Y-100789875D01*
X106785593Y-100757747D01*
X106796751Y-100726562D01*
X106810912Y-100696622D01*
X106827939Y-100668213D01*
X106847669Y-100641610D01*
X106869911Y-100617069D01*
X106894452Y-100594827D01*
X106921055Y-100575097D01*
X106949464Y-100558070D01*
X106979404Y-100543909D01*
X107010589Y-100532751D01*
X107042717Y-100524703D01*
X107075479Y-100519843D01*
X107108560Y-100518218D01*
X107883560Y-100518218D01*
X107916641Y-100519843D01*
X107916641Y-100519843D01*
G37*
D19*
X107496060Y-101193218D03*
G04 #@! TD*
D18*
G04 #@! TO.C,R18*
G36*
X104741641Y-71309843D02*
X104774403Y-71314703D01*
X104806531Y-71322751D01*
X104837716Y-71333909D01*
X104867656Y-71348070D01*
X104896065Y-71365097D01*
X104922668Y-71384827D01*
X104947209Y-71407069D01*
X104969451Y-71431610D01*
X104989181Y-71458213D01*
X105006208Y-71486622D01*
X105020369Y-71516562D01*
X105031527Y-71547747D01*
X105039575Y-71579875D01*
X105044435Y-71612637D01*
X105046060Y-71645718D01*
X105046060Y-72320718D01*
X105044435Y-72353799D01*
X105039575Y-72386561D01*
X105031527Y-72418689D01*
X105020369Y-72449874D01*
X105006208Y-72479814D01*
X104989181Y-72508223D01*
X104969451Y-72534826D01*
X104947209Y-72559367D01*
X104922668Y-72581609D01*
X104896065Y-72601339D01*
X104867656Y-72618366D01*
X104837716Y-72632527D01*
X104806531Y-72643685D01*
X104774403Y-72651733D01*
X104741641Y-72656593D01*
X104708560Y-72658218D01*
X103933560Y-72658218D01*
X103900479Y-72656593D01*
X103867717Y-72651733D01*
X103835589Y-72643685D01*
X103804404Y-72632527D01*
X103774464Y-72618366D01*
X103746055Y-72601339D01*
X103719452Y-72581609D01*
X103694911Y-72559367D01*
X103672669Y-72534826D01*
X103652939Y-72508223D01*
X103635912Y-72479814D01*
X103621751Y-72449874D01*
X103610593Y-72418689D01*
X103602545Y-72386561D01*
X103597685Y-72353799D01*
X103596060Y-72320718D01*
X103596060Y-71645718D01*
X103597685Y-71612637D01*
X103602545Y-71579875D01*
X103610593Y-71547747D01*
X103621751Y-71516562D01*
X103635912Y-71486622D01*
X103652939Y-71458213D01*
X103672669Y-71431610D01*
X103694911Y-71407069D01*
X103719452Y-71384827D01*
X103746055Y-71365097D01*
X103774464Y-71348070D01*
X103804404Y-71333909D01*
X103835589Y-71322751D01*
X103867717Y-71314703D01*
X103900479Y-71309843D01*
X103933560Y-71308218D01*
X104708560Y-71308218D01*
X104741641Y-71309843D01*
X104741641Y-71309843D01*
G37*
D19*
X104321060Y-71983218D03*
D18*
G36*
X102991641Y-71309843D02*
X103024403Y-71314703D01*
X103056531Y-71322751D01*
X103087716Y-71333909D01*
X103117656Y-71348070D01*
X103146065Y-71365097D01*
X103172668Y-71384827D01*
X103197209Y-71407069D01*
X103219451Y-71431610D01*
X103239181Y-71458213D01*
X103256208Y-71486622D01*
X103270369Y-71516562D01*
X103281527Y-71547747D01*
X103289575Y-71579875D01*
X103294435Y-71612637D01*
X103296060Y-71645718D01*
X103296060Y-72320718D01*
X103294435Y-72353799D01*
X103289575Y-72386561D01*
X103281527Y-72418689D01*
X103270369Y-72449874D01*
X103256208Y-72479814D01*
X103239181Y-72508223D01*
X103219451Y-72534826D01*
X103197209Y-72559367D01*
X103172668Y-72581609D01*
X103146065Y-72601339D01*
X103117656Y-72618366D01*
X103087716Y-72632527D01*
X103056531Y-72643685D01*
X103024403Y-72651733D01*
X102991641Y-72656593D01*
X102958560Y-72658218D01*
X102183560Y-72658218D01*
X102150479Y-72656593D01*
X102117717Y-72651733D01*
X102085589Y-72643685D01*
X102054404Y-72632527D01*
X102024464Y-72618366D01*
X101996055Y-72601339D01*
X101969452Y-72581609D01*
X101944911Y-72559367D01*
X101922669Y-72534826D01*
X101902939Y-72508223D01*
X101885912Y-72479814D01*
X101871751Y-72449874D01*
X101860593Y-72418689D01*
X101852545Y-72386561D01*
X101847685Y-72353799D01*
X101846060Y-72320718D01*
X101846060Y-71645718D01*
X101847685Y-71612637D01*
X101852545Y-71579875D01*
X101860593Y-71547747D01*
X101871751Y-71516562D01*
X101885912Y-71486622D01*
X101902939Y-71458213D01*
X101922669Y-71431610D01*
X101944911Y-71407069D01*
X101969452Y-71384827D01*
X101996055Y-71365097D01*
X102024464Y-71348070D01*
X102054404Y-71333909D01*
X102085589Y-71322751D01*
X102117717Y-71314703D01*
X102150479Y-71309843D01*
X102183560Y-71308218D01*
X102958560Y-71308218D01*
X102991641Y-71309843D01*
X102991641Y-71309843D01*
G37*
D19*
X102571060Y-71983218D03*
G04 #@! TD*
D18*
G04 #@! TO.C,R19*
G36*
X102596641Y-100519843D02*
X102629403Y-100524703D01*
X102661531Y-100532751D01*
X102692716Y-100543909D01*
X102722656Y-100558070D01*
X102751065Y-100575097D01*
X102777668Y-100594827D01*
X102802209Y-100617069D01*
X102824451Y-100641610D01*
X102844181Y-100668213D01*
X102861208Y-100696622D01*
X102875369Y-100726562D01*
X102886527Y-100757747D01*
X102894575Y-100789875D01*
X102899435Y-100822637D01*
X102901060Y-100855718D01*
X102901060Y-101530718D01*
X102899435Y-101563799D01*
X102894575Y-101596561D01*
X102886527Y-101628689D01*
X102875369Y-101659874D01*
X102861208Y-101689814D01*
X102844181Y-101718223D01*
X102824451Y-101744826D01*
X102802209Y-101769367D01*
X102777668Y-101791609D01*
X102751065Y-101811339D01*
X102722656Y-101828366D01*
X102692716Y-101842527D01*
X102661531Y-101853685D01*
X102629403Y-101861733D01*
X102596641Y-101866593D01*
X102563560Y-101868218D01*
X101788560Y-101868218D01*
X101755479Y-101866593D01*
X101722717Y-101861733D01*
X101690589Y-101853685D01*
X101659404Y-101842527D01*
X101629464Y-101828366D01*
X101601055Y-101811339D01*
X101574452Y-101791609D01*
X101549911Y-101769367D01*
X101527669Y-101744826D01*
X101507939Y-101718223D01*
X101490912Y-101689814D01*
X101476751Y-101659874D01*
X101465593Y-101628689D01*
X101457545Y-101596561D01*
X101452685Y-101563799D01*
X101451060Y-101530718D01*
X101451060Y-100855718D01*
X101452685Y-100822637D01*
X101457545Y-100789875D01*
X101465593Y-100757747D01*
X101476751Y-100726562D01*
X101490912Y-100696622D01*
X101507939Y-100668213D01*
X101527669Y-100641610D01*
X101549911Y-100617069D01*
X101574452Y-100594827D01*
X101601055Y-100575097D01*
X101629464Y-100558070D01*
X101659404Y-100543909D01*
X101690589Y-100532751D01*
X101722717Y-100524703D01*
X101755479Y-100519843D01*
X101788560Y-100518218D01*
X102563560Y-100518218D01*
X102596641Y-100519843D01*
X102596641Y-100519843D01*
G37*
D19*
X102176060Y-101193218D03*
D18*
G36*
X100846641Y-100519843D02*
X100879403Y-100524703D01*
X100911531Y-100532751D01*
X100942716Y-100543909D01*
X100972656Y-100558070D01*
X101001065Y-100575097D01*
X101027668Y-100594827D01*
X101052209Y-100617069D01*
X101074451Y-100641610D01*
X101094181Y-100668213D01*
X101111208Y-100696622D01*
X101125369Y-100726562D01*
X101136527Y-100757747D01*
X101144575Y-100789875D01*
X101149435Y-100822637D01*
X101151060Y-100855718D01*
X101151060Y-101530718D01*
X101149435Y-101563799D01*
X101144575Y-101596561D01*
X101136527Y-101628689D01*
X101125369Y-101659874D01*
X101111208Y-101689814D01*
X101094181Y-101718223D01*
X101074451Y-101744826D01*
X101052209Y-101769367D01*
X101027668Y-101791609D01*
X101001065Y-101811339D01*
X100972656Y-101828366D01*
X100942716Y-101842527D01*
X100911531Y-101853685D01*
X100879403Y-101861733D01*
X100846641Y-101866593D01*
X100813560Y-101868218D01*
X100038560Y-101868218D01*
X100005479Y-101866593D01*
X99972717Y-101861733D01*
X99940589Y-101853685D01*
X99909404Y-101842527D01*
X99879464Y-101828366D01*
X99851055Y-101811339D01*
X99824452Y-101791609D01*
X99799911Y-101769367D01*
X99777669Y-101744826D01*
X99757939Y-101718223D01*
X99740912Y-101689814D01*
X99726751Y-101659874D01*
X99715593Y-101628689D01*
X99707545Y-101596561D01*
X99702685Y-101563799D01*
X99701060Y-101530718D01*
X99701060Y-100855718D01*
X99702685Y-100822637D01*
X99707545Y-100789875D01*
X99715593Y-100757747D01*
X99726751Y-100726562D01*
X99740912Y-100696622D01*
X99757939Y-100668213D01*
X99777669Y-100641610D01*
X99799911Y-100617069D01*
X99824452Y-100594827D01*
X99851055Y-100575097D01*
X99879464Y-100558070D01*
X99909404Y-100543909D01*
X99940589Y-100532751D01*
X99972717Y-100524703D01*
X100005479Y-100519843D01*
X100038560Y-100518218D01*
X100813560Y-100518218D01*
X100846641Y-100519843D01*
X100846641Y-100519843D01*
G37*
D19*
X100426060Y-101193218D03*
G04 #@! TD*
D18*
G04 #@! TO.C,R20*
G36*
X107436641Y-71309843D02*
X107469403Y-71314703D01*
X107501531Y-71322751D01*
X107532716Y-71333909D01*
X107562656Y-71348070D01*
X107591065Y-71365097D01*
X107617668Y-71384827D01*
X107642209Y-71407069D01*
X107664451Y-71431610D01*
X107684181Y-71458213D01*
X107701208Y-71486622D01*
X107715369Y-71516562D01*
X107726527Y-71547747D01*
X107734575Y-71579875D01*
X107739435Y-71612637D01*
X107741060Y-71645718D01*
X107741060Y-72320718D01*
X107739435Y-72353799D01*
X107734575Y-72386561D01*
X107726527Y-72418689D01*
X107715369Y-72449874D01*
X107701208Y-72479814D01*
X107684181Y-72508223D01*
X107664451Y-72534826D01*
X107642209Y-72559367D01*
X107617668Y-72581609D01*
X107591065Y-72601339D01*
X107562656Y-72618366D01*
X107532716Y-72632527D01*
X107501531Y-72643685D01*
X107469403Y-72651733D01*
X107436641Y-72656593D01*
X107403560Y-72658218D01*
X106628560Y-72658218D01*
X106595479Y-72656593D01*
X106562717Y-72651733D01*
X106530589Y-72643685D01*
X106499404Y-72632527D01*
X106469464Y-72618366D01*
X106441055Y-72601339D01*
X106414452Y-72581609D01*
X106389911Y-72559367D01*
X106367669Y-72534826D01*
X106347939Y-72508223D01*
X106330912Y-72479814D01*
X106316751Y-72449874D01*
X106305593Y-72418689D01*
X106297545Y-72386561D01*
X106292685Y-72353799D01*
X106291060Y-72320718D01*
X106291060Y-71645718D01*
X106292685Y-71612637D01*
X106297545Y-71579875D01*
X106305593Y-71547747D01*
X106316751Y-71516562D01*
X106330912Y-71486622D01*
X106347939Y-71458213D01*
X106367669Y-71431610D01*
X106389911Y-71407069D01*
X106414452Y-71384827D01*
X106441055Y-71365097D01*
X106469464Y-71348070D01*
X106499404Y-71333909D01*
X106530589Y-71322751D01*
X106562717Y-71314703D01*
X106595479Y-71309843D01*
X106628560Y-71308218D01*
X107403560Y-71308218D01*
X107436641Y-71309843D01*
X107436641Y-71309843D01*
G37*
D19*
X107016060Y-71983218D03*
D18*
G36*
X109186641Y-71309843D02*
X109219403Y-71314703D01*
X109251531Y-71322751D01*
X109282716Y-71333909D01*
X109312656Y-71348070D01*
X109341065Y-71365097D01*
X109367668Y-71384827D01*
X109392209Y-71407069D01*
X109414451Y-71431610D01*
X109434181Y-71458213D01*
X109451208Y-71486622D01*
X109465369Y-71516562D01*
X109476527Y-71547747D01*
X109484575Y-71579875D01*
X109489435Y-71612637D01*
X109491060Y-71645718D01*
X109491060Y-72320718D01*
X109489435Y-72353799D01*
X109484575Y-72386561D01*
X109476527Y-72418689D01*
X109465369Y-72449874D01*
X109451208Y-72479814D01*
X109434181Y-72508223D01*
X109414451Y-72534826D01*
X109392209Y-72559367D01*
X109367668Y-72581609D01*
X109341065Y-72601339D01*
X109312656Y-72618366D01*
X109282716Y-72632527D01*
X109251531Y-72643685D01*
X109219403Y-72651733D01*
X109186641Y-72656593D01*
X109153560Y-72658218D01*
X108378560Y-72658218D01*
X108345479Y-72656593D01*
X108312717Y-72651733D01*
X108280589Y-72643685D01*
X108249404Y-72632527D01*
X108219464Y-72618366D01*
X108191055Y-72601339D01*
X108164452Y-72581609D01*
X108139911Y-72559367D01*
X108117669Y-72534826D01*
X108097939Y-72508223D01*
X108080912Y-72479814D01*
X108066751Y-72449874D01*
X108055593Y-72418689D01*
X108047545Y-72386561D01*
X108042685Y-72353799D01*
X108041060Y-72320718D01*
X108041060Y-71645718D01*
X108042685Y-71612637D01*
X108047545Y-71579875D01*
X108055593Y-71547747D01*
X108066751Y-71516562D01*
X108080912Y-71486622D01*
X108097939Y-71458213D01*
X108117669Y-71431610D01*
X108139911Y-71407069D01*
X108164452Y-71384827D01*
X108191055Y-71365097D01*
X108219464Y-71348070D01*
X108249404Y-71333909D01*
X108280589Y-71322751D01*
X108312717Y-71314703D01*
X108345479Y-71309843D01*
X108378560Y-71308218D01*
X109153560Y-71308218D01*
X109186641Y-71309843D01*
X109186641Y-71309843D01*
G37*
D19*
X108766060Y-71983218D03*
G04 #@! TD*
D18*
G04 #@! TO.C,R21*
G36*
X161601641Y-97339151D02*
X161634403Y-97344011D01*
X161666531Y-97352059D01*
X161697716Y-97363217D01*
X161727656Y-97377378D01*
X161756065Y-97394405D01*
X161782668Y-97414135D01*
X161807209Y-97436377D01*
X161829451Y-97460918D01*
X161849181Y-97487521D01*
X161866208Y-97515930D01*
X161880369Y-97545870D01*
X161891527Y-97577055D01*
X161899575Y-97609183D01*
X161904435Y-97641945D01*
X161906060Y-97675026D01*
X161906060Y-98450026D01*
X161904435Y-98483107D01*
X161899575Y-98515869D01*
X161891527Y-98547997D01*
X161880369Y-98579182D01*
X161866208Y-98609122D01*
X161849181Y-98637531D01*
X161829451Y-98664134D01*
X161807209Y-98688675D01*
X161782668Y-98710917D01*
X161756065Y-98730647D01*
X161727656Y-98747674D01*
X161697716Y-98761835D01*
X161666531Y-98772993D01*
X161634403Y-98781041D01*
X161601641Y-98785901D01*
X161568560Y-98787526D01*
X160893560Y-98787526D01*
X160860479Y-98785901D01*
X160827717Y-98781041D01*
X160795589Y-98772993D01*
X160764404Y-98761835D01*
X160734464Y-98747674D01*
X160706055Y-98730647D01*
X160679452Y-98710917D01*
X160654911Y-98688675D01*
X160632669Y-98664134D01*
X160612939Y-98637531D01*
X160595912Y-98609122D01*
X160581751Y-98579182D01*
X160570593Y-98547997D01*
X160562545Y-98515869D01*
X160557685Y-98483107D01*
X160556060Y-98450026D01*
X160556060Y-97675026D01*
X160557685Y-97641945D01*
X160562545Y-97609183D01*
X160570593Y-97577055D01*
X160581751Y-97545870D01*
X160595912Y-97515930D01*
X160612939Y-97487521D01*
X160632669Y-97460918D01*
X160654911Y-97436377D01*
X160679452Y-97414135D01*
X160706055Y-97394405D01*
X160734464Y-97377378D01*
X160764404Y-97363217D01*
X160795589Y-97352059D01*
X160827717Y-97344011D01*
X160860479Y-97339151D01*
X160893560Y-97337526D01*
X161568560Y-97337526D01*
X161601641Y-97339151D01*
X161601641Y-97339151D01*
G37*
D19*
X161231060Y-98062526D03*
D18*
G36*
X161601641Y-99089151D02*
X161634403Y-99094011D01*
X161666531Y-99102059D01*
X161697716Y-99113217D01*
X161727656Y-99127378D01*
X161756065Y-99144405D01*
X161782668Y-99164135D01*
X161807209Y-99186377D01*
X161829451Y-99210918D01*
X161849181Y-99237521D01*
X161866208Y-99265930D01*
X161880369Y-99295870D01*
X161891527Y-99327055D01*
X161899575Y-99359183D01*
X161904435Y-99391945D01*
X161906060Y-99425026D01*
X161906060Y-100200026D01*
X161904435Y-100233107D01*
X161899575Y-100265869D01*
X161891527Y-100297997D01*
X161880369Y-100329182D01*
X161866208Y-100359122D01*
X161849181Y-100387531D01*
X161829451Y-100414134D01*
X161807209Y-100438675D01*
X161782668Y-100460917D01*
X161756065Y-100480647D01*
X161727656Y-100497674D01*
X161697716Y-100511835D01*
X161666531Y-100522993D01*
X161634403Y-100531041D01*
X161601641Y-100535901D01*
X161568560Y-100537526D01*
X160893560Y-100537526D01*
X160860479Y-100535901D01*
X160827717Y-100531041D01*
X160795589Y-100522993D01*
X160764404Y-100511835D01*
X160734464Y-100497674D01*
X160706055Y-100480647D01*
X160679452Y-100460917D01*
X160654911Y-100438675D01*
X160632669Y-100414134D01*
X160612939Y-100387531D01*
X160595912Y-100359122D01*
X160581751Y-100329182D01*
X160570593Y-100297997D01*
X160562545Y-100265869D01*
X160557685Y-100233107D01*
X160556060Y-100200026D01*
X160556060Y-99425026D01*
X160557685Y-99391945D01*
X160562545Y-99359183D01*
X160570593Y-99327055D01*
X160581751Y-99295870D01*
X160595912Y-99265930D01*
X160612939Y-99237521D01*
X160632669Y-99210918D01*
X160654911Y-99186377D01*
X160679452Y-99164135D01*
X160706055Y-99144405D01*
X160734464Y-99127378D01*
X160764404Y-99113217D01*
X160795589Y-99102059D01*
X160827717Y-99094011D01*
X160860479Y-99089151D01*
X160893560Y-99087526D01*
X161568560Y-99087526D01*
X161601641Y-99089151D01*
X161601641Y-99089151D01*
G37*
D19*
X161231060Y-99812526D03*
G04 #@! TD*
D18*
G04 #@! TO.C,R22*
G36*
X166336641Y-72852369D02*
X166369403Y-72857229D01*
X166401531Y-72865277D01*
X166432716Y-72876435D01*
X166462656Y-72890596D01*
X166491065Y-72907623D01*
X166517668Y-72927353D01*
X166542209Y-72949595D01*
X166564451Y-72974136D01*
X166584181Y-73000739D01*
X166601208Y-73029148D01*
X166615369Y-73059088D01*
X166626527Y-73090273D01*
X166634575Y-73122401D01*
X166639435Y-73155163D01*
X166641060Y-73188244D01*
X166641060Y-73863244D01*
X166639435Y-73896325D01*
X166634575Y-73929087D01*
X166626527Y-73961215D01*
X166615369Y-73992400D01*
X166601208Y-74022340D01*
X166584181Y-74050749D01*
X166564451Y-74077352D01*
X166542209Y-74101893D01*
X166517668Y-74124135D01*
X166491065Y-74143865D01*
X166462656Y-74160892D01*
X166432716Y-74175053D01*
X166401531Y-74186211D01*
X166369403Y-74194259D01*
X166336641Y-74199119D01*
X166303560Y-74200744D01*
X165528560Y-74200744D01*
X165495479Y-74199119D01*
X165462717Y-74194259D01*
X165430589Y-74186211D01*
X165399404Y-74175053D01*
X165369464Y-74160892D01*
X165341055Y-74143865D01*
X165314452Y-74124135D01*
X165289911Y-74101893D01*
X165267669Y-74077352D01*
X165247939Y-74050749D01*
X165230912Y-74022340D01*
X165216751Y-73992400D01*
X165205593Y-73961215D01*
X165197545Y-73929087D01*
X165192685Y-73896325D01*
X165191060Y-73863244D01*
X165191060Y-73188244D01*
X165192685Y-73155163D01*
X165197545Y-73122401D01*
X165205593Y-73090273D01*
X165216751Y-73059088D01*
X165230912Y-73029148D01*
X165247939Y-73000739D01*
X165267669Y-72974136D01*
X165289911Y-72949595D01*
X165314452Y-72927353D01*
X165341055Y-72907623D01*
X165369464Y-72890596D01*
X165399404Y-72876435D01*
X165430589Y-72865277D01*
X165462717Y-72857229D01*
X165495479Y-72852369D01*
X165528560Y-72850744D01*
X166303560Y-72850744D01*
X166336641Y-72852369D01*
X166336641Y-72852369D01*
G37*
D19*
X165916060Y-73525744D03*
D18*
G36*
X164586641Y-72852369D02*
X164619403Y-72857229D01*
X164651531Y-72865277D01*
X164682716Y-72876435D01*
X164712656Y-72890596D01*
X164741065Y-72907623D01*
X164767668Y-72927353D01*
X164792209Y-72949595D01*
X164814451Y-72974136D01*
X164834181Y-73000739D01*
X164851208Y-73029148D01*
X164865369Y-73059088D01*
X164876527Y-73090273D01*
X164884575Y-73122401D01*
X164889435Y-73155163D01*
X164891060Y-73188244D01*
X164891060Y-73863244D01*
X164889435Y-73896325D01*
X164884575Y-73929087D01*
X164876527Y-73961215D01*
X164865369Y-73992400D01*
X164851208Y-74022340D01*
X164834181Y-74050749D01*
X164814451Y-74077352D01*
X164792209Y-74101893D01*
X164767668Y-74124135D01*
X164741065Y-74143865D01*
X164712656Y-74160892D01*
X164682716Y-74175053D01*
X164651531Y-74186211D01*
X164619403Y-74194259D01*
X164586641Y-74199119D01*
X164553560Y-74200744D01*
X163778560Y-74200744D01*
X163745479Y-74199119D01*
X163712717Y-74194259D01*
X163680589Y-74186211D01*
X163649404Y-74175053D01*
X163619464Y-74160892D01*
X163591055Y-74143865D01*
X163564452Y-74124135D01*
X163539911Y-74101893D01*
X163517669Y-74077352D01*
X163497939Y-74050749D01*
X163480912Y-74022340D01*
X163466751Y-73992400D01*
X163455593Y-73961215D01*
X163447545Y-73929087D01*
X163442685Y-73896325D01*
X163441060Y-73863244D01*
X163441060Y-73188244D01*
X163442685Y-73155163D01*
X163447545Y-73122401D01*
X163455593Y-73090273D01*
X163466751Y-73059088D01*
X163480912Y-73029148D01*
X163497939Y-73000739D01*
X163517669Y-72974136D01*
X163539911Y-72949595D01*
X163564452Y-72927353D01*
X163591055Y-72907623D01*
X163619464Y-72890596D01*
X163649404Y-72876435D01*
X163680589Y-72865277D01*
X163712717Y-72857229D01*
X163745479Y-72852369D01*
X163778560Y-72850744D01*
X164553560Y-72850744D01*
X164586641Y-72852369D01*
X164586641Y-72852369D01*
G37*
D19*
X164166060Y-73525744D03*
G04 #@! TD*
D18*
G04 #@! TO.C,R23*
G36*
X157850581Y-97339151D02*
X157883343Y-97344011D01*
X157915471Y-97352059D01*
X157946656Y-97363217D01*
X157976596Y-97377378D01*
X158005005Y-97394405D01*
X158031608Y-97414135D01*
X158056149Y-97436377D01*
X158078391Y-97460918D01*
X158098121Y-97487521D01*
X158115148Y-97515930D01*
X158129309Y-97545870D01*
X158140467Y-97577055D01*
X158148515Y-97609183D01*
X158153375Y-97641945D01*
X158155000Y-97675026D01*
X158155000Y-98450026D01*
X158153375Y-98483107D01*
X158148515Y-98515869D01*
X158140467Y-98547997D01*
X158129309Y-98579182D01*
X158115148Y-98609122D01*
X158098121Y-98637531D01*
X158078391Y-98664134D01*
X158056149Y-98688675D01*
X158031608Y-98710917D01*
X158005005Y-98730647D01*
X157976596Y-98747674D01*
X157946656Y-98761835D01*
X157915471Y-98772993D01*
X157883343Y-98781041D01*
X157850581Y-98785901D01*
X157817500Y-98787526D01*
X157142500Y-98787526D01*
X157109419Y-98785901D01*
X157076657Y-98781041D01*
X157044529Y-98772993D01*
X157013344Y-98761835D01*
X156983404Y-98747674D01*
X156954995Y-98730647D01*
X156928392Y-98710917D01*
X156903851Y-98688675D01*
X156881609Y-98664134D01*
X156861879Y-98637531D01*
X156844852Y-98609122D01*
X156830691Y-98579182D01*
X156819533Y-98547997D01*
X156811485Y-98515869D01*
X156806625Y-98483107D01*
X156805000Y-98450026D01*
X156805000Y-97675026D01*
X156806625Y-97641945D01*
X156811485Y-97609183D01*
X156819533Y-97577055D01*
X156830691Y-97545870D01*
X156844852Y-97515930D01*
X156861879Y-97487521D01*
X156881609Y-97460918D01*
X156903851Y-97436377D01*
X156928392Y-97414135D01*
X156954995Y-97394405D01*
X156983404Y-97377378D01*
X157013344Y-97363217D01*
X157044529Y-97352059D01*
X157076657Y-97344011D01*
X157109419Y-97339151D01*
X157142500Y-97337526D01*
X157817500Y-97337526D01*
X157850581Y-97339151D01*
X157850581Y-97339151D01*
G37*
D19*
X157480000Y-98062526D03*
D18*
G36*
X157850581Y-99089151D02*
X157883343Y-99094011D01*
X157915471Y-99102059D01*
X157946656Y-99113217D01*
X157976596Y-99127378D01*
X158005005Y-99144405D01*
X158031608Y-99164135D01*
X158056149Y-99186377D01*
X158078391Y-99210918D01*
X158098121Y-99237521D01*
X158115148Y-99265930D01*
X158129309Y-99295870D01*
X158140467Y-99327055D01*
X158148515Y-99359183D01*
X158153375Y-99391945D01*
X158155000Y-99425026D01*
X158155000Y-100200026D01*
X158153375Y-100233107D01*
X158148515Y-100265869D01*
X158140467Y-100297997D01*
X158129309Y-100329182D01*
X158115148Y-100359122D01*
X158098121Y-100387531D01*
X158078391Y-100414134D01*
X158056149Y-100438675D01*
X158031608Y-100460917D01*
X158005005Y-100480647D01*
X157976596Y-100497674D01*
X157946656Y-100511835D01*
X157915471Y-100522993D01*
X157883343Y-100531041D01*
X157850581Y-100535901D01*
X157817500Y-100537526D01*
X157142500Y-100537526D01*
X157109419Y-100535901D01*
X157076657Y-100531041D01*
X157044529Y-100522993D01*
X157013344Y-100511835D01*
X156983404Y-100497674D01*
X156954995Y-100480647D01*
X156928392Y-100460917D01*
X156903851Y-100438675D01*
X156881609Y-100414134D01*
X156861879Y-100387531D01*
X156844852Y-100359122D01*
X156830691Y-100329182D01*
X156819533Y-100297997D01*
X156811485Y-100265869D01*
X156806625Y-100233107D01*
X156805000Y-100200026D01*
X156805000Y-99425026D01*
X156806625Y-99391945D01*
X156811485Y-99359183D01*
X156819533Y-99327055D01*
X156830691Y-99295870D01*
X156844852Y-99265930D01*
X156861879Y-99237521D01*
X156881609Y-99210918D01*
X156903851Y-99186377D01*
X156928392Y-99164135D01*
X156954995Y-99144405D01*
X156983404Y-99127378D01*
X157013344Y-99113217D01*
X157044529Y-99102059D01*
X157076657Y-99094011D01*
X157109419Y-99089151D01*
X157142500Y-99087526D01*
X157817500Y-99087526D01*
X157850581Y-99089151D01*
X157850581Y-99089151D01*
G37*
D19*
X157480000Y-99812526D03*
G04 #@! TD*
D18*
G04 #@! TO.C,R24*
G36*
X169031641Y-72852369D02*
X169064403Y-72857229D01*
X169096531Y-72865277D01*
X169127716Y-72876435D01*
X169157656Y-72890596D01*
X169186065Y-72907623D01*
X169212668Y-72927353D01*
X169237209Y-72949595D01*
X169259451Y-72974136D01*
X169279181Y-73000739D01*
X169296208Y-73029148D01*
X169310369Y-73059088D01*
X169321527Y-73090273D01*
X169329575Y-73122401D01*
X169334435Y-73155163D01*
X169336060Y-73188244D01*
X169336060Y-73863244D01*
X169334435Y-73896325D01*
X169329575Y-73929087D01*
X169321527Y-73961215D01*
X169310369Y-73992400D01*
X169296208Y-74022340D01*
X169279181Y-74050749D01*
X169259451Y-74077352D01*
X169237209Y-74101893D01*
X169212668Y-74124135D01*
X169186065Y-74143865D01*
X169157656Y-74160892D01*
X169127716Y-74175053D01*
X169096531Y-74186211D01*
X169064403Y-74194259D01*
X169031641Y-74199119D01*
X168998560Y-74200744D01*
X168223560Y-74200744D01*
X168190479Y-74199119D01*
X168157717Y-74194259D01*
X168125589Y-74186211D01*
X168094404Y-74175053D01*
X168064464Y-74160892D01*
X168036055Y-74143865D01*
X168009452Y-74124135D01*
X167984911Y-74101893D01*
X167962669Y-74077352D01*
X167942939Y-74050749D01*
X167925912Y-74022340D01*
X167911751Y-73992400D01*
X167900593Y-73961215D01*
X167892545Y-73929087D01*
X167887685Y-73896325D01*
X167886060Y-73863244D01*
X167886060Y-73188244D01*
X167887685Y-73155163D01*
X167892545Y-73122401D01*
X167900593Y-73090273D01*
X167911751Y-73059088D01*
X167925912Y-73029148D01*
X167942939Y-73000739D01*
X167962669Y-72974136D01*
X167984911Y-72949595D01*
X168009452Y-72927353D01*
X168036055Y-72907623D01*
X168064464Y-72890596D01*
X168094404Y-72876435D01*
X168125589Y-72865277D01*
X168157717Y-72857229D01*
X168190479Y-72852369D01*
X168223560Y-72850744D01*
X168998560Y-72850744D01*
X169031641Y-72852369D01*
X169031641Y-72852369D01*
G37*
D19*
X168611060Y-73525744D03*
D18*
G36*
X170781641Y-72852369D02*
X170814403Y-72857229D01*
X170846531Y-72865277D01*
X170877716Y-72876435D01*
X170907656Y-72890596D01*
X170936065Y-72907623D01*
X170962668Y-72927353D01*
X170987209Y-72949595D01*
X171009451Y-72974136D01*
X171029181Y-73000739D01*
X171046208Y-73029148D01*
X171060369Y-73059088D01*
X171071527Y-73090273D01*
X171079575Y-73122401D01*
X171084435Y-73155163D01*
X171086060Y-73188244D01*
X171086060Y-73863244D01*
X171084435Y-73896325D01*
X171079575Y-73929087D01*
X171071527Y-73961215D01*
X171060369Y-73992400D01*
X171046208Y-74022340D01*
X171029181Y-74050749D01*
X171009451Y-74077352D01*
X170987209Y-74101893D01*
X170962668Y-74124135D01*
X170936065Y-74143865D01*
X170907656Y-74160892D01*
X170877716Y-74175053D01*
X170846531Y-74186211D01*
X170814403Y-74194259D01*
X170781641Y-74199119D01*
X170748560Y-74200744D01*
X169973560Y-74200744D01*
X169940479Y-74199119D01*
X169907717Y-74194259D01*
X169875589Y-74186211D01*
X169844404Y-74175053D01*
X169814464Y-74160892D01*
X169786055Y-74143865D01*
X169759452Y-74124135D01*
X169734911Y-74101893D01*
X169712669Y-74077352D01*
X169692939Y-74050749D01*
X169675912Y-74022340D01*
X169661751Y-73992400D01*
X169650593Y-73961215D01*
X169642545Y-73929087D01*
X169637685Y-73896325D01*
X169636060Y-73863244D01*
X169636060Y-73188244D01*
X169637685Y-73155163D01*
X169642545Y-73122401D01*
X169650593Y-73090273D01*
X169661751Y-73059088D01*
X169675912Y-73029148D01*
X169692939Y-73000739D01*
X169712669Y-72974136D01*
X169734911Y-72949595D01*
X169759452Y-72927353D01*
X169786055Y-72907623D01*
X169814464Y-72890596D01*
X169844404Y-72876435D01*
X169875589Y-72865277D01*
X169907717Y-72857229D01*
X169940479Y-72852369D01*
X169973560Y-72850744D01*
X170748560Y-72850744D01*
X170781641Y-72852369D01*
X170781641Y-72852369D01*
G37*
D19*
X170361060Y-73525744D03*
G04 #@! TD*
D18*
G04 #@! TO.C,R27*
G36*
X126246641Y-100519843D02*
X126279403Y-100524703D01*
X126311531Y-100532751D01*
X126342716Y-100543909D01*
X126372656Y-100558070D01*
X126401065Y-100575097D01*
X126427668Y-100594827D01*
X126452209Y-100617069D01*
X126474451Y-100641610D01*
X126494181Y-100668213D01*
X126511208Y-100696622D01*
X126525369Y-100726562D01*
X126536527Y-100757747D01*
X126544575Y-100789875D01*
X126549435Y-100822637D01*
X126551060Y-100855718D01*
X126551060Y-101530718D01*
X126549435Y-101563799D01*
X126544575Y-101596561D01*
X126536527Y-101628689D01*
X126525369Y-101659874D01*
X126511208Y-101689814D01*
X126494181Y-101718223D01*
X126474451Y-101744826D01*
X126452209Y-101769367D01*
X126427668Y-101791609D01*
X126401065Y-101811339D01*
X126372656Y-101828366D01*
X126342716Y-101842527D01*
X126311531Y-101853685D01*
X126279403Y-101861733D01*
X126246641Y-101866593D01*
X126213560Y-101868218D01*
X125438560Y-101868218D01*
X125405479Y-101866593D01*
X125372717Y-101861733D01*
X125340589Y-101853685D01*
X125309404Y-101842527D01*
X125279464Y-101828366D01*
X125251055Y-101811339D01*
X125224452Y-101791609D01*
X125199911Y-101769367D01*
X125177669Y-101744826D01*
X125157939Y-101718223D01*
X125140912Y-101689814D01*
X125126751Y-101659874D01*
X125115593Y-101628689D01*
X125107545Y-101596561D01*
X125102685Y-101563799D01*
X125101060Y-101530718D01*
X125101060Y-100855718D01*
X125102685Y-100822637D01*
X125107545Y-100789875D01*
X125115593Y-100757747D01*
X125126751Y-100726562D01*
X125140912Y-100696622D01*
X125157939Y-100668213D01*
X125177669Y-100641610D01*
X125199911Y-100617069D01*
X125224452Y-100594827D01*
X125251055Y-100575097D01*
X125279464Y-100558070D01*
X125309404Y-100543909D01*
X125340589Y-100532751D01*
X125372717Y-100524703D01*
X125405479Y-100519843D01*
X125438560Y-100518218D01*
X126213560Y-100518218D01*
X126246641Y-100519843D01*
X126246641Y-100519843D01*
G37*
D19*
X125826060Y-101193218D03*
D18*
G36*
X127996641Y-100519843D02*
X128029403Y-100524703D01*
X128061531Y-100532751D01*
X128092716Y-100543909D01*
X128122656Y-100558070D01*
X128151065Y-100575097D01*
X128177668Y-100594827D01*
X128202209Y-100617069D01*
X128224451Y-100641610D01*
X128244181Y-100668213D01*
X128261208Y-100696622D01*
X128275369Y-100726562D01*
X128286527Y-100757747D01*
X128294575Y-100789875D01*
X128299435Y-100822637D01*
X128301060Y-100855718D01*
X128301060Y-101530718D01*
X128299435Y-101563799D01*
X128294575Y-101596561D01*
X128286527Y-101628689D01*
X128275369Y-101659874D01*
X128261208Y-101689814D01*
X128244181Y-101718223D01*
X128224451Y-101744826D01*
X128202209Y-101769367D01*
X128177668Y-101791609D01*
X128151065Y-101811339D01*
X128122656Y-101828366D01*
X128092716Y-101842527D01*
X128061531Y-101853685D01*
X128029403Y-101861733D01*
X127996641Y-101866593D01*
X127963560Y-101868218D01*
X127188560Y-101868218D01*
X127155479Y-101866593D01*
X127122717Y-101861733D01*
X127090589Y-101853685D01*
X127059404Y-101842527D01*
X127029464Y-101828366D01*
X127001055Y-101811339D01*
X126974452Y-101791609D01*
X126949911Y-101769367D01*
X126927669Y-101744826D01*
X126907939Y-101718223D01*
X126890912Y-101689814D01*
X126876751Y-101659874D01*
X126865593Y-101628689D01*
X126857545Y-101596561D01*
X126852685Y-101563799D01*
X126851060Y-101530718D01*
X126851060Y-100855718D01*
X126852685Y-100822637D01*
X126857545Y-100789875D01*
X126865593Y-100757747D01*
X126876751Y-100726562D01*
X126890912Y-100696622D01*
X126907939Y-100668213D01*
X126927669Y-100641610D01*
X126949911Y-100617069D01*
X126974452Y-100594827D01*
X127001055Y-100575097D01*
X127029464Y-100558070D01*
X127059404Y-100543909D01*
X127090589Y-100532751D01*
X127122717Y-100524703D01*
X127155479Y-100519843D01*
X127188560Y-100518218D01*
X127963560Y-100518218D01*
X127996641Y-100519843D01*
X127996641Y-100519843D01*
G37*
D19*
X127576060Y-101193218D03*
G04 #@! TD*
D18*
G04 #@! TO.C,R28*
G36*
X122676641Y-71944843D02*
X122709403Y-71949703D01*
X122741531Y-71957751D01*
X122772716Y-71968909D01*
X122802656Y-71983070D01*
X122831065Y-72000097D01*
X122857668Y-72019827D01*
X122882209Y-72042069D01*
X122904451Y-72066610D01*
X122924181Y-72093213D01*
X122941208Y-72121622D01*
X122955369Y-72151562D01*
X122966527Y-72182747D01*
X122974575Y-72214875D01*
X122979435Y-72247637D01*
X122981060Y-72280718D01*
X122981060Y-72955718D01*
X122979435Y-72988799D01*
X122974575Y-73021561D01*
X122966527Y-73053689D01*
X122955369Y-73084874D01*
X122941208Y-73114814D01*
X122924181Y-73143223D01*
X122904451Y-73169826D01*
X122882209Y-73194367D01*
X122857668Y-73216609D01*
X122831065Y-73236339D01*
X122802656Y-73253366D01*
X122772716Y-73267527D01*
X122741531Y-73278685D01*
X122709403Y-73286733D01*
X122676641Y-73291593D01*
X122643560Y-73293218D01*
X121868560Y-73293218D01*
X121835479Y-73291593D01*
X121802717Y-73286733D01*
X121770589Y-73278685D01*
X121739404Y-73267527D01*
X121709464Y-73253366D01*
X121681055Y-73236339D01*
X121654452Y-73216609D01*
X121629911Y-73194367D01*
X121607669Y-73169826D01*
X121587939Y-73143223D01*
X121570912Y-73114814D01*
X121556751Y-73084874D01*
X121545593Y-73053689D01*
X121537545Y-73021561D01*
X121532685Y-72988799D01*
X121531060Y-72955718D01*
X121531060Y-72280718D01*
X121532685Y-72247637D01*
X121537545Y-72214875D01*
X121545593Y-72182747D01*
X121556751Y-72151562D01*
X121570912Y-72121622D01*
X121587939Y-72093213D01*
X121607669Y-72066610D01*
X121629911Y-72042069D01*
X121654452Y-72019827D01*
X121681055Y-72000097D01*
X121709464Y-71983070D01*
X121739404Y-71968909D01*
X121770589Y-71957751D01*
X121802717Y-71949703D01*
X121835479Y-71944843D01*
X121868560Y-71943218D01*
X122643560Y-71943218D01*
X122676641Y-71944843D01*
X122676641Y-71944843D01*
G37*
D19*
X122256060Y-72618218D03*
D18*
G36*
X124426641Y-71944843D02*
X124459403Y-71949703D01*
X124491531Y-71957751D01*
X124522716Y-71968909D01*
X124552656Y-71983070D01*
X124581065Y-72000097D01*
X124607668Y-72019827D01*
X124632209Y-72042069D01*
X124654451Y-72066610D01*
X124674181Y-72093213D01*
X124691208Y-72121622D01*
X124705369Y-72151562D01*
X124716527Y-72182747D01*
X124724575Y-72214875D01*
X124729435Y-72247637D01*
X124731060Y-72280718D01*
X124731060Y-72955718D01*
X124729435Y-72988799D01*
X124724575Y-73021561D01*
X124716527Y-73053689D01*
X124705369Y-73084874D01*
X124691208Y-73114814D01*
X124674181Y-73143223D01*
X124654451Y-73169826D01*
X124632209Y-73194367D01*
X124607668Y-73216609D01*
X124581065Y-73236339D01*
X124552656Y-73253366D01*
X124522716Y-73267527D01*
X124491531Y-73278685D01*
X124459403Y-73286733D01*
X124426641Y-73291593D01*
X124393560Y-73293218D01*
X123618560Y-73293218D01*
X123585479Y-73291593D01*
X123552717Y-73286733D01*
X123520589Y-73278685D01*
X123489404Y-73267527D01*
X123459464Y-73253366D01*
X123431055Y-73236339D01*
X123404452Y-73216609D01*
X123379911Y-73194367D01*
X123357669Y-73169826D01*
X123337939Y-73143223D01*
X123320912Y-73114814D01*
X123306751Y-73084874D01*
X123295593Y-73053689D01*
X123287545Y-73021561D01*
X123282685Y-72988799D01*
X123281060Y-72955718D01*
X123281060Y-72280718D01*
X123282685Y-72247637D01*
X123287545Y-72214875D01*
X123295593Y-72182747D01*
X123306751Y-72151562D01*
X123320912Y-72121622D01*
X123337939Y-72093213D01*
X123357669Y-72066610D01*
X123379911Y-72042069D01*
X123404452Y-72019827D01*
X123431055Y-72000097D01*
X123459464Y-71983070D01*
X123489404Y-71968909D01*
X123520589Y-71957751D01*
X123552717Y-71949703D01*
X123585479Y-71944843D01*
X123618560Y-71943218D01*
X124393560Y-71943218D01*
X124426641Y-71944843D01*
X124426641Y-71944843D01*
G37*
D19*
X124006060Y-72618218D03*
G04 #@! TD*
D18*
G04 #@! TO.C,R29*
G36*
X122820581Y-100519843D02*
X122853343Y-100524703D01*
X122885471Y-100532751D01*
X122916656Y-100543909D01*
X122946596Y-100558070D01*
X122975005Y-100575097D01*
X123001608Y-100594827D01*
X123026149Y-100617069D01*
X123048391Y-100641610D01*
X123068121Y-100668213D01*
X123085148Y-100696622D01*
X123099309Y-100726562D01*
X123110467Y-100757747D01*
X123118515Y-100789875D01*
X123123375Y-100822637D01*
X123125000Y-100855718D01*
X123125000Y-101530718D01*
X123123375Y-101563799D01*
X123118515Y-101596561D01*
X123110467Y-101628689D01*
X123099309Y-101659874D01*
X123085148Y-101689814D01*
X123068121Y-101718223D01*
X123048391Y-101744826D01*
X123026149Y-101769367D01*
X123001608Y-101791609D01*
X122975005Y-101811339D01*
X122946596Y-101828366D01*
X122916656Y-101842527D01*
X122885471Y-101853685D01*
X122853343Y-101861733D01*
X122820581Y-101866593D01*
X122787500Y-101868218D01*
X122012500Y-101868218D01*
X121979419Y-101866593D01*
X121946657Y-101861733D01*
X121914529Y-101853685D01*
X121883344Y-101842527D01*
X121853404Y-101828366D01*
X121824995Y-101811339D01*
X121798392Y-101791609D01*
X121773851Y-101769367D01*
X121751609Y-101744826D01*
X121731879Y-101718223D01*
X121714852Y-101689814D01*
X121700691Y-101659874D01*
X121689533Y-101628689D01*
X121681485Y-101596561D01*
X121676625Y-101563799D01*
X121675000Y-101530718D01*
X121675000Y-100855718D01*
X121676625Y-100822637D01*
X121681485Y-100789875D01*
X121689533Y-100757747D01*
X121700691Y-100726562D01*
X121714852Y-100696622D01*
X121731879Y-100668213D01*
X121751609Y-100641610D01*
X121773851Y-100617069D01*
X121798392Y-100594827D01*
X121824995Y-100575097D01*
X121853404Y-100558070D01*
X121883344Y-100543909D01*
X121914529Y-100532751D01*
X121946657Y-100524703D01*
X121979419Y-100519843D01*
X122012500Y-100518218D01*
X122787500Y-100518218D01*
X122820581Y-100519843D01*
X122820581Y-100519843D01*
G37*
D19*
X122400000Y-101193218D03*
D18*
G36*
X121070581Y-100519843D02*
X121103343Y-100524703D01*
X121135471Y-100532751D01*
X121166656Y-100543909D01*
X121196596Y-100558070D01*
X121225005Y-100575097D01*
X121251608Y-100594827D01*
X121276149Y-100617069D01*
X121298391Y-100641610D01*
X121318121Y-100668213D01*
X121335148Y-100696622D01*
X121349309Y-100726562D01*
X121360467Y-100757747D01*
X121368515Y-100789875D01*
X121373375Y-100822637D01*
X121375000Y-100855718D01*
X121375000Y-101530718D01*
X121373375Y-101563799D01*
X121368515Y-101596561D01*
X121360467Y-101628689D01*
X121349309Y-101659874D01*
X121335148Y-101689814D01*
X121318121Y-101718223D01*
X121298391Y-101744826D01*
X121276149Y-101769367D01*
X121251608Y-101791609D01*
X121225005Y-101811339D01*
X121196596Y-101828366D01*
X121166656Y-101842527D01*
X121135471Y-101853685D01*
X121103343Y-101861733D01*
X121070581Y-101866593D01*
X121037500Y-101868218D01*
X120262500Y-101868218D01*
X120229419Y-101866593D01*
X120196657Y-101861733D01*
X120164529Y-101853685D01*
X120133344Y-101842527D01*
X120103404Y-101828366D01*
X120074995Y-101811339D01*
X120048392Y-101791609D01*
X120023851Y-101769367D01*
X120001609Y-101744826D01*
X119981879Y-101718223D01*
X119964852Y-101689814D01*
X119950691Y-101659874D01*
X119939533Y-101628689D01*
X119931485Y-101596561D01*
X119926625Y-101563799D01*
X119925000Y-101530718D01*
X119925000Y-100855718D01*
X119926625Y-100822637D01*
X119931485Y-100789875D01*
X119939533Y-100757747D01*
X119950691Y-100726562D01*
X119964852Y-100696622D01*
X119981879Y-100668213D01*
X120001609Y-100641610D01*
X120023851Y-100617069D01*
X120048392Y-100594827D01*
X120074995Y-100575097D01*
X120103404Y-100558070D01*
X120133344Y-100543909D01*
X120164529Y-100532751D01*
X120196657Y-100524703D01*
X120229419Y-100519843D01*
X120262500Y-100518218D01*
X121037500Y-100518218D01*
X121070581Y-100519843D01*
X121070581Y-100519843D01*
G37*
D19*
X120650000Y-101193218D03*
G04 #@! TD*
D18*
G04 #@! TO.C,R30*
G36*
X127516641Y-71944843D02*
X127549403Y-71949703D01*
X127581531Y-71957751D01*
X127612716Y-71968909D01*
X127642656Y-71983070D01*
X127671065Y-72000097D01*
X127697668Y-72019827D01*
X127722209Y-72042069D01*
X127744451Y-72066610D01*
X127764181Y-72093213D01*
X127781208Y-72121622D01*
X127795369Y-72151562D01*
X127806527Y-72182747D01*
X127814575Y-72214875D01*
X127819435Y-72247637D01*
X127821060Y-72280718D01*
X127821060Y-72955718D01*
X127819435Y-72988799D01*
X127814575Y-73021561D01*
X127806527Y-73053689D01*
X127795369Y-73084874D01*
X127781208Y-73114814D01*
X127764181Y-73143223D01*
X127744451Y-73169826D01*
X127722209Y-73194367D01*
X127697668Y-73216609D01*
X127671065Y-73236339D01*
X127642656Y-73253366D01*
X127612716Y-73267527D01*
X127581531Y-73278685D01*
X127549403Y-73286733D01*
X127516641Y-73291593D01*
X127483560Y-73293218D01*
X126708560Y-73293218D01*
X126675479Y-73291593D01*
X126642717Y-73286733D01*
X126610589Y-73278685D01*
X126579404Y-73267527D01*
X126549464Y-73253366D01*
X126521055Y-73236339D01*
X126494452Y-73216609D01*
X126469911Y-73194367D01*
X126447669Y-73169826D01*
X126427939Y-73143223D01*
X126410912Y-73114814D01*
X126396751Y-73084874D01*
X126385593Y-73053689D01*
X126377545Y-73021561D01*
X126372685Y-72988799D01*
X126371060Y-72955718D01*
X126371060Y-72280718D01*
X126372685Y-72247637D01*
X126377545Y-72214875D01*
X126385593Y-72182747D01*
X126396751Y-72151562D01*
X126410912Y-72121622D01*
X126427939Y-72093213D01*
X126447669Y-72066610D01*
X126469911Y-72042069D01*
X126494452Y-72019827D01*
X126521055Y-72000097D01*
X126549464Y-71983070D01*
X126579404Y-71968909D01*
X126610589Y-71957751D01*
X126642717Y-71949703D01*
X126675479Y-71944843D01*
X126708560Y-71943218D01*
X127483560Y-71943218D01*
X127516641Y-71944843D01*
X127516641Y-71944843D01*
G37*
D19*
X127096060Y-72618218D03*
D18*
G36*
X129266641Y-71944843D02*
X129299403Y-71949703D01*
X129331531Y-71957751D01*
X129362716Y-71968909D01*
X129392656Y-71983070D01*
X129421065Y-72000097D01*
X129447668Y-72019827D01*
X129472209Y-72042069D01*
X129494451Y-72066610D01*
X129514181Y-72093213D01*
X129531208Y-72121622D01*
X129545369Y-72151562D01*
X129556527Y-72182747D01*
X129564575Y-72214875D01*
X129569435Y-72247637D01*
X129571060Y-72280718D01*
X129571060Y-72955718D01*
X129569435Y-72988799D01*
X129564575Y-73021561D01*
X129556527Y-73053689D01*
X129545369Y-73084874D01*
X129531208Y-73114814D01*
X129514181Y-73143223D01*
X129494451Y-73169826D01*
X129472209Y-73194367D01*
X129447668Y-73216609D01*
X129421065Y-73236339D01*
X129392656Y-73253366D01*
X129362716Y-73267527D01*
X129331531Y-73278685D01*
X129299403Y-73286733D01*
X129266641Y-73291593D01*
X129233560Y-73293218D01*
X128458560Y-73293218D01*
X128425479Y-73291593D01*
X128392717Y-73286733D01*
X128360589Y-73278685D01*
X128329404Y-73267527D01*
X128299464Y-73253366D01*
X128271055Y-73236339D01*
X128244452Y-73216609D01*
X128219911Y-73194367D01*
X128197669Y-73169826D01*
X128177939Y-73143223D01*
X128160912Y-73114814D01*
X128146751Y-73084874D01*
X128135593Y-73053689D01*
X128127545Y-73021561D01*
X128122685Y-72988799D01*
X128121060Y-72955718D01*
X128121060Y-72280718D01*
X128122685Y-72247637D01*
X128127545Y-72214875D01*
X128135593Y-72182747D01*
X128146751Y-72151562D01*
X128160912Y-72121622D01*
X128177939Y-72093213D01*
X128197669Y-72066610D01*
X128219911Y-72042069D01*
X128244452Y-72019827D01*
X128271055Y-72000097D01*
X128299464Y-71983070D01*
X128329404Y-71968909D01*
X128360589Y-71957751D01*
X128392717Y-71949703D01*
X128425479Y-71944843D01*
X128458560Y-71943218D01*
X129233560Y-71943218D01*
X129266641Y-71944843D01*
X129266641Y-71944843D01*
G37*
D19*
X128846060Y-72618218D03*
G04 #@! TD*
D18*
G04 #@! TO.C,R31*
G36*
X147260581Y-100291625D02*
X147293343Y-100296485D01*
X147325471Y-100304533D01*
X147356656Y-100315691D01*
X147386596Y-100329852D01*
X147415005Y-100346879D01*
X147441608Y-100366609D01*
X147466149Y-100388851D01*
X147488391Y-100413392D01*
X147508121Y-100439995D01*
X147525148Y-100468404D01*
X147539309Y-100498344D01*
X147550467Y-100529529D01*
X147558515Y-100561657D01*
X147563375Y-100594419D01*
X147565000Y-100627500D01*
X147565000Y-101302500D01*
X147563375Y-101335581D01*
X147558515Y-101368343D01*
X147550467Y-101400471D01*
X147539309Y-101431656D01*
X147525148Y-101461596D01*
X147508121Y-101490005D01*
X147488391Y-101516608D01*
X147466149Y-101541149D01*
X147441608Y-101563391D01*
X147415005Y-101583121D01*
X147386596Y-101600148D01*
X147356656Y-101614309D01*
X147325471Y-101625467D01*
X147293343Y-101633515D01*
X147260581Y-101638375D01*
X147227500Y-101640000D01*
X146452500Y-101640000D01*
X146419419Y-101638375D01*
X146386657Y-101633515D01*
X146354529Y-101625467D01*
X146323344Y-101614309D01*
X146293404Y-101600148D01*
X146264995Y-101583121D01*
X146238392Y-101563391D01*
X146213851Y-101541149D01*
X146191609Y-101516608D01*
X146171879Y-101490005D01*
X146154852Y-101461596D01*
X146140691Y-101431656D01*
X146129533Y-101400471D01*
X146121485Y-101368343D01*
X146116625Y-101335581D01*
X146115000Y-101302500D01*
X146115000Y-100627500D01*
X146116625Y-100594419D01*
X146121485Y-100561657D01*
X146129533Y-100529529D01*
X146140691Y-100498344D01*
X146154852Y-100468404D01*
X146171879Y-100439995D01*
X146191609Y-100413392D01*
X146213851Y-100388851D01*
X146238392Y-100366609D01*
X146264995Y-100346879D01*
X146293404Y-100329852D01*
X146323344Y-100315691D01*
X146354529Y-100304533D01*
X146386657Y-100296485D01*
X146419419Y-100291625D01*
X146452500Y-100290000D01*
X147227500Y-100290000D01*
X147260581Y-100291625D01*
X147260581Y-100291625D01*
G37*
D19*
X146840000Y-100965000D03*
D18*
G36*
X149010581Y-100291625D02*
X149043343Y-100296485D01*
X149075471Y-100304533D01*
X149106656Y-100315691D01*
X149136596Y-100329852D01*
X149165005Y-100346879D01*
X149191608Y-100366609D01*
X149216149Y-100388851D01*
X149238391Y-100413392D01*
X149258121Y-100439995D01*
X149275148Y-100468404D01*
X149289309Y-100498344D01*
X149300467Y-100529529D01*
X149308515Y-100561657D01*
X149313375Y-100594419D01*
X149315000Y-100627500D01*
X149315000Y-101302500D01*
X149313375Y-101335581D01*
X149308515Y-101368343D01*
X149300467Y-101400471D01*
X149289309Y-101431656D01*
X149275148Y-101461596D01*
X149258121Y-101490005D01*
X149238391Y-101516608D01*
X149216149Y-101541149D01*
X149191608Y-101563391D01*
X149165005Y-101583121D01*
X149136596Y-101600148D01*
X149106656Y-101614309D01*
X149075471Y-101625467D01*
X149043343Y-101633515D01*
X149010581Y-101638375D01*
X148977500Y-101640000D01*
X148202500Y-101640000D01*
X148169419Y-101638375D01*
X148136657Y-101633515D01*
X148104529Y-101625467D01*
X148073344Y-101614309D01*
X148043404Y-101600148D01*
X148014995Y-101583121D01*
X147988392Y-101563391D01*
X147963851Y-101541149D01*
X147941609Y-101516608D01*
X147921879Y-101490005D01*
X147904852Y-101461596D01*
X147890691Y-101431656D01*
X147879533Y-101400471D01*
X147871485Y-101368343D01*
X147866625Y-101335581D01*
X147865000Y-101302500D01*
X147865000Y-100627500D01*
X147866625Y-100594419D01*
X147871485Y-100561657D01*
X147879533Y-100529529D01*
X147890691Y-100498344D01*
X147904852Y-100468404D01*
X147921879Y-100439995D01*
X147941609Y-100413392D01*
X147963851Y-100388851D01*
X147988392Y-100366609D01*
X148014995Y-100346879D01*
X148043404Y-100329852D01*
X148073344Y-100315691D01*
X148104529Y-100304533D01*
X148136657Y-100296485D01*
X148169419Y-100291625D01*
X148202500Y-100290000D01*
X148977500Y-100290000D01*
X149010581Y-100291625D01*
X149010581Y-100291625D01*
G37*
D19*
X148590000Y-100965000D03*
G04 #@! TD*
D18*
G04 #@! TO.C,R32*
G36*
X145776641Y-71182843D02*
X145809403Y-71187703D01*
X145841531Y-71195751D01*
X145872716Y-71206909D01*
X145902656Y-71221070D01*
X145931065Y-71238097D01*
X145957668Y-71257827D01*
X145982209Y-71280069D01*
X146004451Y-71304610D01*
X146024181Y-71331213D01*
X146041208Y-71359622D01*
X146055369Y-71389562D01*
X146066527Y-71420747D01*
X146074575Y-71452875D01*
X146079435Y-71485637D01*
X146081060Y-71518718D01*
X146081060Y-72193718D01*
X146079435Y-72226799D01*
X146074575Y-72259561D01*
X146066527Y-72291689D01*
X146055369Y-72322874D01*
X146041208Y-72352814D01*
X146024181Y-72381223D01*
X146004451Y-72407826D01*
X145982209Y-72432367D01*
X145957668Y-72454609D01*
X145931065Y-72474339D01*
X145902656Y-72491366D01*
X145872716Y-72505527D01*
X145841531Y-72516685D01*
X145809403Y-72524733D01*
X145776641Y-72529593D01*
X145743560Y-72531218D01*
X144968560Y-72531218D01*
X144935479Y-72529593D01*
X144902717Y-72524733D01*
X144870589Y-72516685D01*
X144839404Y-72505527D01*
X144809464Y-72491366D01*
X144781055Y-72474339D01*
X144754452Y-72454609D01*
X144729911Y-72432367D01*
X144707669Y-72407826D01*
X144687939Y-72381223D01*
X144670912Y-72352814D01*
X144656751Y-72322874D01*
X144645593Y-72291689D01*
X144637545Y-72259561D01*
X144632685Y-72226799D01*
X144631060Y-72193718D01*
X144631060Y-71518718D01*
X144632685Y-71485637D01*
X144637545Y-71452875D01*
X144645593Y-71420747D01*
X144656751Y-71389562D01*
X144670912Y-71359622D01*
X144687939Y-71331213D01*
X144707669Y-71304610D01*
X144729911Y-71280069D01*
X144754452Y-71257827D01*
X144781055Y-71238097D01*
X144809464Y-71221070D01*
X144839404Y-71206909D01*
X144870589Y-71195751D01*
X144902717Y-71187703D01*
X144935479Y-71182843D01*
X144968560Y-71181218D01*
X145743560Y-71181218D01*
X145776641Y-71182843D01*
X145776641Y-71182843D01*
G37*
D19*
X145356060Y-71856218D03*
D18*
G36*
X144026641Y-71182843D02*
X144059403Y-71187703D01*
X144091531Y-71195751D01*
X144122716Y-71206909D01*
X144152656Y-71221070D01*
X144181065Y-71238097D01*
X144207668Y-71257827D01*
X144232209Y-71280069D01*
X144254451Y-71304610D01*
X144274181Y-71331213D01*
X144291208Y-71359622D01*
X144305369Y-71389562D01*
X144316527Y-71420747D01*
X144324575Y-71452875D01*
X144329435Y-71485637D01*
X144331060Y-71518718D01*
X144331060Y-72193718D01*
X144329435Y-72226799D01*
X144324575Y-72259561D01*
X144316527Y-72291689D01*
X144305369Y-72322874D01*
X144291208Y-72352814D01*
X144274181Y-72381223D01*
X144254451Y-72407826D01*
X144232209Y-72432367D01*
X144207668Y-72454609D01*
X144181065Y-72474339D01*
X144152656Y-72491366D01*
X144122716Y-72505527D01*
X144091531Y-72516685D01*
X144059403Y-72524733D01*
X144026641Y-72529593D01*
X143993560Y-72531218D01*
X143218560Y-72531218D01*
X143185479Y-72529593D01*
X143152717Y-72524733D01*
X143120589Y-72516685D01*
X143089404Y-72505527D01*
X143059464Y-72491366D01*
X143031055Y-72474339D01*
X143004452Y-72454609D01*
X142979911Y-72432367D01*
X142957669Y-72407826D01*
X142937939Y-72381223D01*
X142920912Y-72352814D01*
X142906751Y-72322874D01*
X142895593Y-72291689D01*
X142887545Y-72259561D01*
X142882685Y-72226799D01*
X142881060Y-72193718D01*
X142881060Y-71518718D01*
X142882685Y-71485637D01*
X142887545Y-71452875D01*
X142895593Y-71420747D01*
X142906751Y-71389562D01*
X142920912Y-71359622D01*
X142937939Y-71331213D01*
X142957669Y-71304610D01*
X142979911Y-71280069D01*
X143004452Y-71257827D01*
X143031055Y-71238097D01*
X143059464Y-71221070D01*
X143089404Y-71206909D01*
X143120589Y-71195751D01*
X143152717Y-71187703D01*
X143185479Y-71182843D01*
X143218560Y-71181218D01*
X143993560Y-71181218D01*
X144026641Y-71182843D01*
X144026641Y-71182843D01*
G37*
D19*
X143606060Y-71856218D03*
G04 #@! TD*
D18*
G04 #@! TO.C,R33*
G36*
X144266641Y-100392843D02*
X144299403Y-100397703D01*
X144331531Y-100405751D01*
X144362716Y-100416909D01*
X144392656Y-100431070D01*
X144421065Y-100448097D01*
X144447668Y-100467827D01*
X144472209Y-100490069D01*
X144494451Y-100514610D01*
X144514181Y-100541213D01*
X144531208Y-100569622D01*
X144545369Y-100599562D01*
X144556527Y-100630747D01*
X144564575Y-100662875D01*
X144569435Y-100695637D01*
X144571060Y-100728718D01*
X144571060Y-101403718D01*
X144569435Y-101436799D01*
X144564575Y-101469561D01*
X144556527Y-101501689D01*
X144545369Y-101532874D01*
X144531208Y-101562814D01*
X144514181Y-101591223D01*
X144494451Y-101617826D01*
X144472209Y-101642367D01*
X144447668Y-101664609D01*
X144421065Y-101684339D01*
X144392656Y-101701366D01*
X144362716Y-101715527D01*
X144331531Y-101726685D01*
X144299403Y-101734733D01*
X144266641Y-101739593D01*
X144233560Y-101741218D01*
X143458560Y-101741218D01*
X143425479Y-101739593D01*
X143392717Y-101734733D01*
X143360589Y-101726685D01*
X143329404Y-101715527D01*
X143299464Y-101701366D01*
X143271055Y-101684339D01*
X143244452Y-101664609D01*
X143219911Y-101642367D01*
X143197669Y-101617826D01*
X143177939Y-101591223D01*
X143160912Y-101562814D01*
X143146751Y-101532874D01*
X143135593Y-101501689D01*
X143127545Y-101469561D01*
X143122685Y-101436799D01*
X143121060Y-101403718D01*
X143121060Y-100728718D01*
X143122685Y-100695637D01*
X143127545Y-100662875D01*
X143135593Y-100630747D01*
X143146751Y-100599562D01*
X143160912Y-100569622D01*
X143177939Y-100541213D01*
X143197669Y-100514610D01*
X143219911Y-100490069D01*
X143244452Y-100467827D01*
X143271055Y-100448097D01*
X143299464Y-100431070D01*
X143329404Y-100416909D01*
X143360589Y-100405751D01*
X143392717Y-100397703D01*
X143425479Y-100392843D01*
X143458560Y-100391218D01*
X144233560Y-100391218D01*
X144266641Y-100392843D01*
X144266641Y-100392843D01*
G37*
D19*
X143846060Y-101066218D03*
D18*
G36*
X142516641Y-100392843D02*
X142549403Y-100397703D01*
X142581531Y-100405751D01*
X142612716Y-100416909D01*
X142642656Y-100431070D01*
X142671065Y-100448097D01*
X142697668Y-100467827D01*
X142722209Y-100490069D01*
X142744451Y-100514610D01*
X142764181Y-100541213D01*
X142781208Y-100569622D01*
X142795369Y-100599562D01*
X142806527Y-100630747D01*
X142814575Y-100662875D01*
X142819435Y-100695637D01*
X142821060Y-100728718D01*
X142821060Y-101403718D01*
X142819435Y-101436799D01*
X142814575Y-101469561D01*
X142806527Y-101501689D01*
X142795369Y-101532874D01*
X142781208Y-101562814D01*
X142764181Y-101591223D01*
X142744451Y-101617826D01*
X142722209Y-101642367D01*
X142697668Y-101664609D01*
X142671065Y-101684339D01*
X142642656Y-101701366D01*
X142612716Y-101715527D01*
X142581531Y-101726685D01*
X142549403Y-101734733D01*
X142516641Y-101739593D01*
X142483560Y-101741218D01*
X141708560Y-101741218D01*
X141675479Y-101739593D01*
X141642717Y-101734733D01*
X141610589Y-101726685D01*
X141579404Y-101715527D01*
X141549464Y-101701366D01*
X141521055Y-101684339D01*
X141494452Y-101664609D01*
X141469911Y-101642367D01*
X141447669Y-101617826D01*
X141427939Y-101591223D01*
X141410912Y-101562814D01*
X141396751Y-101532874D01*
X141385593Y-101501689D01*
X141377545Y-101469561D01*
X141372685Y-101436799D01*
X141371060Y-101403718D01*
X141371060Y-100728718D01*
X141372685Y-100695637D01*
X141377545Y-100662875D01*
X141385593Y-100630747D01*
X141396751Y-100599562D01*
X141410912Y-100569622D01*
X141427939Y-100541213D01*
X141447669Y-100514610D01*
X141469911Y-100490069D01*
X141494452Y-100467827D01*
X141521055Y-100448097D01*
X141549464Y-100431070D01*
X141579404Y-100416909D01*
X141610589Y-100405751D01*
X141642717Y-100397703D01*
X141675479Y-100392843D01*
X141708560Y-100391218D01*
X142483560Y-100391218D01*
X142516641Y-100392843D01*
X142516641Y-100392843D01*
G37*
D19*
X142096060Y-101066218D03*
G04 #@! TD*
D18*
G04 #@! TO.C,R34*
G36*
X148711641Y-71182843D02*
X148744403Y-71187703D01*
X148776531Y-71195751D01*
X148807716Y-71206909D01*
X148837656Y-71221070D01*
X148866065Y-71238097D01*
X148892668Y-71257827D01*
X148917209Y-71280069D01*
X148939451Y-71304610D01*
X148959181Y-71331213D01*
X148976208Y-71359622D01*
X148990369Y-71389562D01*
X149001527Y-71420747D01*
X149009575Y-71452875D01*
X149014435Y-71485637D01*
X149016060Y-71518718D01*
X149016060Y-72193718D01*
X149014435Y-72226799D01*
X149009575Y-72259561D01*
X149001527Y-72291689D01*
X148990369Y-72322874D01*
X148976208Y-72352814D01*
X148959181Y-72381223D01*
X148939451Y-72407826D01*
X148917209Y-72432367D01*
X148892668Y-72454609D01*
X148866065Y-72474339D01*
X148837656Y-72491366D01*
X148807716Y-72505527D01*
X148776531Y-72516685D01*
X148744403Y-72524733D01*
X148711641Y-72529593D01*
X148678560Y-72531218D01*
X147903560Y-72531218D01*
X147870479Y-72529593D01*
X147837717Y-72524733D01*
X147805589Y-72516685D01*
X147774404Y-72505527D01*
X147744464Y-72491366D01*
X147716055Y-72474339D01*
X147689452Y-72454609D01*
X147664911Y-72432367D01*
X147642669Y-72407826D01*
X147622939Y-72381223D01*
X147605912Y-72352814D01*
X147591751Y-72322874D01*
X147580593Y-72291689D01*
X147572545Y-72259561D01*
X147567685Y-72226799D01*
X147566060Y-72193718D01*
X147566060Y-71518718D01*
X147567685Y-71485637D01*
X147572545Y-71452875D01*
X147580593Y-71420747D01*
X147591751Y-71389562D01*
X147605912Y-71359622D01*
X147622939Y-71331213D01*
X147642669Y-71304610D01*
X147664911Y-71280069D01*
X147689452Y-71257827D01*
X147716055Y-71238097D01*
X147744464Y-71221070D01*
X147774404Y-71206909D01*
X147805589Y-71195751D01*
X147837717Y-71187703D01*
X147870479Y-71182843D01*
X147903560Y-71181218D01*
X148678560Y-71181218D01*
X148711641Y-71182843D01*
X148711641Y-71182843D01*
G37*
D19*
X148291060Y-71856218D03*
D18*
G36*
X150461641Y-71182843D02*
X150494403Y-71187703D01*
X150526531Y-71195751D01*
X150557716Y-71206909D01*
X150587656Y-71221070D01*
X150616065Y-71238097D01*
X150642668Y-71257827D01*
X150667209Y-71280069D01*
X150689451Y-71304610D01*
X150709181Y-71331213D01*
X150726208Y-71359622D01*
X150740369Y-71389562D01*
X150751527Y-71420747D01*
X150759575Y-71452875D01*
X150764435Y-71485637D01*
X150766060Y-71518718D01*
X150766060Y-72193718D01*
X150764435Y-72226799D01*
X150759575Y-72259561D01*
X150751527Y-72291689D01*
X150740369Y-72322874D01*
X150726208Y-72352814D01*
X150709181Y-72381223D01*
X150689451Y-72407826D01*
X150667209Y-72432367D01*
X150642668Y-72454609D01*
X150616065Y-72474339D01*
X150587656Y-72491366D01*
X150557716Y-72505527D01*
X150526531Y-72516685D01*
X150494403Y-72524733D01*
X150461641Y-72529593D01*
X150428560Y-72531218D01*
X149653560Y-72531218D01*
X149620479Y-72529593D01*
X149587717Y-72524733D01*
X149555589Y-72516685D01*
X149524404Y-72505527D01*
X149494464Y-72491366D01*
X149466055Y-72474339D01*
X149439452Y-72454609D01*
X149414911Y-72432367D01*
X149392669Y-72407826D01*
X149372939Y-72381223D01*
X149355912Y-72352814D01*
X149341751Y-72322874D01*
X149330593Y-72291689D01*
X149322545Y-72259561D01*
X149317685Y-72226799D01*
X149316060Y-72193718D01*
X149316060Y-71518718D01*
X149317685Y-71485637D01*
X149322545Y-71452875D01*
X149330593Y-71420747D01*
X149341751Y-71389562D01*
X149355912Y-71359622D01*
X149372939Y-71331213D01*
X149392669Y-71304610D01*
X149414911Y-71280069D01*
X149439452Y-71257827D01*
X149466055Y-71238097D01*
X149494464Y-71221070D01*
X149524404Y-71206909D01*
X149555589Y-71195751D01*
X149587717Y-71187703D01*
X149620479Y-71182843D01*
X149653560Y-71181218D01*
X150428560Y-71181218D01*
X150461641Y-71182843D01*
X150461641Y-71182843D01*
G37*
D19*
X150041060Y-71856218D03*
G04 #@! TD*
D11*
G04 #@! TO.C,Conn1*
X52163180Y-74979654D03*
X52163180Y-82879654D03*
X52163180Y-90779654D03*
G04 #@! TD*
G04 #@! TO.C,Conn18*
X137160000Y-58166000D03*
X145060000Y-58166000D03*
G04 #@! TD*
G04 #@! TO.C,Conn9*
X54610000Y-58420000D03*
X62510000Y-58420000D03*
G04 #@! TD*
G04 #@! TO.C,Conn17*
X64135000Y-133210000D03*
X64135000Y-125310000D03*
X64135000Y-117410000D03*
G04 #@! TD*
D20*
G04 #@! TO.C,Conn19*
X97155000Y-51435000D03*
D21*
X98425000Y-51435000D03*
X97155000Y-52705000D03*
X98425000Y-52705000D03*
X97155000Y-53975000D03*
X98425000Y-53975000D03*
X97155000Y-55245000D03*
X98425000Y-55245000D03*
X97155000Y-56515000D03*
X98425000Y-56515000D03*
G04 #@! TD*
D18*
G04 #@! TO.C,D3*
G36*
X185995581Y-109816625D02*
X186028343Y-109821485D01*
X186060471Y-109829533D01*
X186091656Y-109840691D01*
X186121596Y-109854852D01*
X186150005Y-109871879D01*
X186176608Y-109891609D01*
X186201149Y-109913851D01*
X186223391Y-109938392D01*
X186243121Y-109964995D01*
X186260148Y-109993404D01*
X186274309Y-110023344D01*
X186285467Y-110054529D01*
X186293515Y-110086657D01*
X186298375Y-110119419D01*
X186300000Y-110152500D01*
X186300000Y-110827500D01*
X186298375Y-110860581D01*
X186293515Y-110893343D01*
X186285467Y-110925471D01*
X186274309Y-110956656D01*
X186260148Y-110986596D01*
X186243121Y-111015005D01*
X186223391Y-111041608D01*
X186201149Y-111066149D01*
X186176608Y-111088391D01*
X186150005Y-111108121D01*
X186121596Y-111125148D01*
X186091656Y-111139309D01*
X186060471Y-111150467D01*
X186028343Y-111158515D01*
X185995581Y-111163375D01*
X185962500Y-111165000D01*
X185187500Y-111165000D01*
X185154419Y-111163375D01*
X185121657Y-111158515D01*
X185089529Y-111150467D01*
X185058344Y-111139309D01*
X185028404Y-111125148D01*
X184999995Y-111108121D01*
X184973392Y-111088391D01*
X184948851Y-111066149D01*
X184926609Y-111041608D01*
X184906879Y-111015005D01*
X184889852Y-110986596D01*
X184875691Y-110956656D01*
X184864533Y-110925471D01*
X184856485Y-110893343D01*
X184851625Y-110860581D01*
X184850000Y-110827500D01*
X184850000Y-110152500D01*
X184851625Y-110119419D01*
X184856485Y-110086657D01*
X184864533Y-110054529D01*
X184875691Y-110023344D01*
X184889852Y-109993404D01*
X184906879Y-109964995D01*
X184926609Y-109938392D01*
X184948851Y-109913851D01*
X184973392Y-109891609D01*
X184999995Y-109871879D01*
X185028404Y-109854852D01*
X185058344Y-109840691D01*
X185089529Y-109829533D01*
X185121657Y-109821485D01*
X185154419Y-109816625D01*
X185187500Y-109815000D01*
X185962500Y-109815000D01*
X185995581Y-109816625D01*
X185995581Y-109816625D01*
G37*
D19*
X185575000Y-110490000D03*
D18*
G36*
X187745581Y-109816625D02*
X187778343Y-109821485D01*
X187810471Y-109829533D01*
X187841656Y-109840691D01*
X187871596Y-109854852D01*
X187900005Y-109871879D01*
X187926608Y-109891609D01*
X187951149Y-109913851D01*
X187973391Y-109938392D01*
X187993121Y-109964995D01*
X188010148Y-109993404D01*
X188024309Y-110023344D01*
X188035467Y-110054529D01*
X188043515Y-110086657D01*
X188048375Y-110119419D01*
X188050000Y-110152500D01*
X188050000Y-110827500D01*
X188048375Y-110860581D01*
X188043515Y-110893343D01*
X188035467Y-110925471D01*
X188024309Y-110956656D01*
X188010148Y-110986596D01*
X187993121Y-111015005D01*
X187973391Y-111041608D01*
X187951149Y-111066149D01*
X187926608Y-111088391D01*
X187900005Y-111108121D01*
X187871596Y-111125148D01*
X187841656Y-111139309D01*
X187810471Y-111150467D01*
X187778343Y-111158515D01*
X187745581Y-111163375D01*
X187712500Y-111165000D01*
X186937500Y-111165000D01*
X186904419Y-111163375D01*
X186871657Y-111158515D01*
X186839529Y-111150467D01*
X186808344Y-111139309D01*
X186778404Y-111125148D01*
X186749995Y-111108121D01*
X186723392Y-111088391D01*
X186698851Y-111066149D01*
X186676609Y-111041608D01*
X186656879Y-111015005D01*
X186639852Y-110986596D01*
X186625691Y-110956656D01*
X186614533Y-110925471D01*
X186606485Y-110893343D01*
X186601625Y-110860581D01*
X186600000Y-110827500D01*
X186600000Y-110152500D01*
X186601625Y-110119419D01*
X186606485Y-110086657D01*
X186614533Y-110054529D01*
X186625691Y-110023344D01*
X186639852Y-109993404D01*
X186656879Y-109964995D01*
X186676609Y-109938392D01*
X186698851Y-109913851D01*
X186723392Y-109891609D01*
X186749995Y-109871879D01*
X186778404Y-109854852D01*
X186808344Y-109840691D01*
X186839529Y-109829533D01*
X186871657Y-109821485D01*
X186904419Y-109816625D01*
X186937500Y-109815000D01*
X187712500Y-109815000D01*
X187745581Y-109816625D01*
X187745581Y-109816625D01*
G37*
D19*
X187325000Y-110490000D03*
G04 #@! TD*
D18*
G04 #@! TO.C,D4*
G36*
X95825581Y-104736625D02*
X95858343Y-104741485D01*
X95890471Y-104749533D01*
X95921656Y-104760691D01*
X95951596Y-104774852D01*
X95980005Y-104791879D01*
X96006608Y-104811609D01*
X96031149Y-104833851D01*
X96053391Y-104858392D01*
X96073121Y-104884995D01*
X96090148Y-104913404D01*
X96104309Y-104943344D01*
X96115467Y-104974529D01*
X96123515Y-105006657D01*
X96128375Y-105039419D01*
X96130000Y-105072500D01*
X96130000Y-105747500D01*
X96128375Y-105780581D01*
X96123515Y-105813343D01*
X96115467Y-105845471D01*
X96104309Y-105876656D01*
X96090148Y-105906596D01*
X96073121Y-105935005D01*
X96053391Y-105961608D01*
X96031149Y-105986149D01*
X96006608Y-106008391D01*
X95980005Y-106028121D01*
X95951596Y-106045148D01*
X95921656Y-106059309D01*
X95890471Y-106070467D01*
X95858343Y-106078515D01*
X95825581Y-106083375D01*
X95792500Y-106085000D01*
X95017500Y-106085000D01*
X94984419Y-106083375D01*
X94951657Y-106078515D01*
X94919529Y-106070467D01*
X94888344Y-106059309D01*
X94858404Y-106045148D01*
X94829995Y-106028121D01*
X94803392Y-106008391D01*
X94778851Y-105986149D01*
X94756609Y-105961608D01*
X94736879Y-105935005D01*
X94719852Y-105906596D01*
X94705691Y-105876656D01*
X94694533Y-105845471D01*
X94686485Y-105813343D01*
X94681625Y-105780581D01*
X94680000Y-105747500D01*
X94680000Y-105072500D01*
X94681625Y-105039419D01*
X94686485Y-105006657D01*
X94694533Y-104974529D01*
X94705691Y-104943344D01*
X94719852Y-104913404D01*
X94736879Y-104884995D01*
X94756609Y-104858392D01*
X94778851Y-104833851D01*
X94803392Y-104811609D01*
X94829995Y-104791879D01*
X94858404Y-104774852D01*
X94888344Y-104760691D01*
X94919529Y-104749533D01*
X94951657Y-104741485D01*
X94984419Y-104736625D01*
X95017500Y-104735000D01*
X95792500Y-104735000D01*
X95825581Y-104736625D01*
X95825581Y-104736625D01*
G37*
D19*
X95405000Y-105410000D03*
D18*
G36*
X97575581Y-104736625D02*
X97608343Y-104741485D01*
X97640471Y-104749533D01*
X97671656Y-104760691D01*
X97701596Y-104774852D01*
X97730005Y-104791879D01*
X97756608Y-104811609D01*
X97781149Y-104833851D01*
X97803391Y-104858392D01*
X97823121Y-104884995D01*
X97840148Y-104913404D01*
X97854309Y-104943344D01*
X97865467Y-104974529D01*
X97873515Y-105006657D01*
X97878375Y-105039419D01*
X97880000Y-105072500D01*
X97880000Y-105747500D01*
X97878375Y-105780581D01*
X97873515Y-105813343D01*
X97865467Y-105845471D01*
X97854309Y-105876656D01*
X97840148Y-105906596D01*
X97823121Y-105935005D01*
X97803391Y-105961608D01*
X97781149Y-105986149D01*
X97756608Y-106008391D01*
X97730005Y-106028121D01*
X97701596Y-106045148D01*
X97671656Y-106059309D01*
X97640471Y-106070467D01*
X97608343Y-106078515D01*
X97575581Y-106083375D01*
X97542500Y-106085000D01*
X96767500Y-106085000D01*
X96734419Y-106083375D01*
X96701657Y-106078515D01*
X96669529Y-106070467D01*
X96638344Y-106059309D01*
X96608404Y-106045148D01*
X96579995Y-106028121D01*
X96553392Y-106008391D01*
X96528851Y-105986149D01*
X96506609Y-105961608D01*
X96486879Y-105935005D01*
X96469852Y-105906596D01*
X96455691Y-105876656D01*
X96444533Y-105845471D01*
X96436485Y-105813343D01*
X96431625Y-105780581D01*
X96430000Y-105747500D01*
X96430000Y-105072500D01*
X96431625Y-105039419D01*
X96436485Y-105006657D01*
X96444533Y-104974529D01*
X96455691Y-104943344D01*
X96469852Y-104913404D01*
X96486879Y-104884995D01*
X96506609Y-104858392D01*
X96528851Y-104833851D01*
X96553392Y-104811609D01*
X96579995Y-104791879D01*
X96608404Y-104774852D01*
X96638344Y-104760691D01*
X96669529Y-104749533D01*
X96701657Y-104741485D01*
X96734419Y-104736625D01*
X96767500Y-104735000D01*
X97542500Y-104735000D01*
X97575581Y-104736625D01*
X97575581Y-104736625D01*
G37*
D19*
X97155000Y-105410000D03*
G04 #@! TD*
D18*
G04 #@! TO.C,D5*
G36*
X161710581Y-64096625D02*
X161743343Y-64101485D01*
X161775471Y-64109533D01*
X161806656Y-64120691D01*
X161836596Y-64134852D01*
X161865005Y-64151879D01*
X161891608Y-64171609D01*
X161916149Y-64193851D01*
X161938391Y-64218392D01*
X161958121Y-64244995D01*
X161975148Y-64273404D01*
X161989309Y-64303344D01*
X162000467Y-64334529D01*
X162008515Y-64366657D01*
X162013375Y-64399419D01*
X162015000Y-64432500D01*
X162015000Y-65107500D01*
X162013375Y-65140581D01*
X162008515Y-65173343D01*
X162000467Y-65205471D01*
X161989309Y-65236656D01*
X161975148Y-65266596D01*
X161958121Y-65295005D01*
X161938391Y-65321608D01*
X161916149Y-65346149D01*
X161891608Y-65368391D01*
X161865005Y-65388121D01*
X161836596Y-65405148D01*
X161806656Y-65419309D01*
X161775471Y-65430467D01*
X161743343Y-65438515D01*
X161710581Y-65443375D01*
X161677500Y-65445000D01*
X160902500Y-65445000D01*
X160869419Y-65443375D01*
X160836657Y-65438515D01*
X160804529Y-65430467D01*
X160773344Y-65419309D01*
X160743404Y-65405148D01*
X160714995Y-65388121D01*
X160688392Y-65368391D01*
X160663851Y-65346149D01*
X160641609Y-65321608D01*
X160621879Y-65295005D01*
X160604852Y-65266596D01*
X160590691Y-65236656D01*
X160579533Y-65205471D01*
X160571485Y-65173343D01*
X160566625Y-65140581D01*
X160565000Y-65107500D01*
X160565000Y-64432500D01*
X160566625Y-64399419D01*
X160571485Y-64366657D01*
X160579533Y-64334529D01*
X160590691Y-64303344D01*
X160604852Y-64273404D01*
X160621879Y-64244995D01*
X160641609Y-64218392D01*
X160663851Y-64193851D01*
X160688392Y-64171609D01*
X160714995Y-64151879D01*
X160743404Y-64134852D01*
X160773344Y-64120691D01*
X160804529Y-64109533D01*
X160836657Y-64101485D01*
X160869419Y-64096625D01*
X160902500Y-64095000D01*
X161677500Y-64095000D01*
X161710581Y-64096625D01*
X161710581Y-64096625D01*
G37*
D19*
X161290000Y-64770000D03*
D18*
G36*
X163460581Y-64096625D02*
X163493343Y-64101485D01*
X163525471Y-64109533D01*
X163556656Y-64120691D01*
X163586596Y-64134852D01*
X163615005Y-64151879D01*
X163641608Y-64171609D01*
X163666149Y-64193851D01*
X163688391Y-64218392D01*
X163708121Y-64244995D01*
X163725148Y-64273404D01*
X163739309Y-64303344D01*
X163750467Y-64334529D01*
X163758515Y-64366657D01*
X163763375Y-64399419D01*
X163765000Y-64432500D01*
X163765000Y-65107500D01*
X163763375Y-65140581D01*
X163758515Y-65173343D01*
X163750467Y-65205471D01*
X163739309Y-65236656D01*
X163725148Y-65266596D01*
X163708121Y-65295005D01*
X163688391Y-65321608D01*
X163666149Y-65346149D01*
X163641608Y-65368391D01*
X163615005Y-65388121D01*
X163586596Y-65405148D01*
X163556656Y-65419309D01*
X163525471Y-65430467D01*
X163493343Y-65438515D01*
X163460581Y-65443375D01*
X163427500Y-65445000D01*
X162652500Y-65445000D01*
X162619419Y-65443375D01*
X162586657Y-65438515D01*
X162554529Y-65430467D01*
X162523344Y-65419309D01*
X162493404Y-65405148D01*
X162464995Y-65388121D01*
X162438392Y-65368391D01*
X162413851Y-65346149D01*
X162391609Y-65321608D01*
X162371879Y-65295005D01*
X162354852Y-65266596D01*
X162340691Y-65236656D01*
X162329533Y-65205471D01*
X162321485Y-65173343D01*
X162316625Y-65140581D01*
X162315000Y-65107500D01*
X162315000Y-64432500D01*
X162316625Y-64399419D01*
X162321485Y-64366657D01*
X162329533Y-64334529D01*
X162340691Y-64303344D01*
X162354852Y-64273404D01*
X162371879Y-64244995D01*
X162391609Y-64218392D01*
X162413851Y-64193851D01*
X162438392Y-64171609D01*
X162464995Y-64151879D01*
X162493404Y-64134852D01*
X162523344Y-64120691D01*
X162554529Y-64109533D01*
X162586657Y-64101485D01*
X162619419Y-64096625D01*
X162652500Y-64095000D01*
X163427500Y-64095000D01*
X163460581Y-64096625D01*
X163460581Y-64096625D01*
G37*
D19*
X163040000Y-64770000D03*
G04 #@! TD*
D18*
G04 #@! TO.C,D6*
G36*
X117895581Y-104736625D02*
X117928343Y-104741485D01*
X117960471Y-104749533D01*
X117991656Y-104760691D01*
X118021596Y-104774852D01*
X118050005Y-104791879D01*
X118076608Y-104811609D01*
X118101149Y-104833851D01*
X118123391Y-104858392D01*
X118143121Y-104884995D01*
X118160148Y-104913404D01*
X118174309Y-104943344D01*
X118185467Y-104974529D01*
X118193515Y-105006657D01*
X118198375Y-105039419D01*
X118200000Y-105072500D01*
X118200000Y-105747500D01*
X118198375Y-105780581D01*
X118193515Y-105813343D01*
X118185467Y-105845471D01*
X118174309Y-105876656D01*
X118160148Y-105906596D01*
X118143121Y-105935005D01*
X118123391Y-105961608D01*
X118101149Y-105986149D01*
X118076608Y-106008391D01*
X118050005Y-106028121D01*
X118021596Y-106045148D01*
X117991656Y-106059309D01*
X117960471Y-106070467D01*
X117928343Y-106078515D01*
X117895581Y-106083375D01*
X117862500Y-106085000D01*
X117087500Y-106085000D01*
X117054419Y-106083375D01*
X117021657Y-106078515D01*
X116989529Y-106070467D01*
X116958344Y-106059309D01*
X116928404Y-106045148D01*
X116899995Y-106028121D01*
X116873392Y-106008391D01*
X116848851Y-105986149D01*
X116826609Y-105961608D01*
X116806879Y-105935005D01*
X116789852Y-105906596D01*
X116775691Y-105876656D01*
X116764533Y-105845471D01*
X116756485Y-105813343D01*
X116751625Y-105780581D01*
X116750000Y-105747500D01*
X116750000Y-105072500D01*
X116751625Y-105039419D01*
X116756485Y-105006657D01*
X116764533Y-104974529D01*
X116775691Y-104943344D01*
X116789852Y-104913404D01*
X116806879Y-104884995D01*
X116826609Y-104858392D01*
X116848851Y-104833851D01*
X116873392Y-104811609D01*
X116899995Y-104791879D01*
X116928404Y-104774852D01*
X116958344Y-104760691D01*
X116989529Y-104749533D01*
X117021657Y-104741485D01*
X117054419Y-104736625D01*
X117087500Y-104735000D01*
X117862500Y-104735000D01*
X117895581Y-104736625D01*
X117895581Y-104736625D01*
G37*
D19*
X117475000Y-105410000D03*
D18*
G36*
X116145581Y-104736625D02*
X116178343Y-104741485D01*
X116210471Y-104749533D01*
X116241656Y-104760691D01*
X116271596Y-104774852D01*
X116300005Y-104791879D01*
X116326608Y-104811609D01*
X116351149Y-104833851D01*
X116373391Y-104858392D01*
X116393121Y-104884995D01*
X116410148Y-104913404D01*
X116424309Y-104943344D01*
X116435467Y-104974529D01*
X116443515Y-105006657D01*
X116448375Y-105039419D01*
X116450000Y-105072500D01*
X116450000Y-105747500D01*
X116448375Y-105780581D01*
X116443515Y-105813343D01*
X116435467Y-105845471D01*
X116424309Y-105876656D01*
X116410148Y-105906596D01*
X116393121Y-105935005D01*
X116373391Y-105961608D01*
X116351149Y-105986149D01*
X116326608Y-106008391D01*
X116300005Y-106028121D01*
X116271596Y-106045148D01*
X116241656Y-106059309D01*
X116210471Y-106070467D01*
X116178343Y-106078515D01*
X116145581Y-106083375D01*
X116112500Y-106085000D01*
X115337500Y-106085000D01*
X115304419Y-106083375D01*
X115271657Y-106078515D01*
X115239529Y-106070467D01*
X115208344Y-106059309D01*
X115178404Y-106045148D01*
X115149995Y-106028121D01*
X115123392Y-106008391D01*
X115098851Y-105986149D01*
X115076609Y-105961608D01*
X115056879Y-105935005D01*
X115039852Y-105906596D01*
X115025691Y-105876656D01*
X115014533Y-105845471D01*
X115006485Y-105813343D01*
X115001625Y-105780581D01*
X115000000Y-105747500D01*
X115000000Y-105072500D01*
X115001625Y-105039419D01*
X115006485Y-105006657D01*
X115014533Y-104974529D01*
X115025691Y-104943344D01*
X115039852Y-104913404D01*
X115056879Y-104884995D01*
X115076609Y-104858392D01*
X115098851Y-104833851D01*
X115123392Y-104811609D01*
X115149995Y-104791879D01*
X115178404Y-104774852D01*
X115208344Y-104760691D01*
X115239529Y-104749533D01*
X115271657Y-104741485D01*
X115304419Y-104736625D01*
X115337500Y-104735000D01*
X116112500Y-104735000D01*
X116145581Y-104736625D01*
X116145581Y-104736625D01*
G37*
D19*
X115725000Y-105410000D03*
G04 #@! TD*
D18*
G04 #@! TO.C,D7*
G36*
X74475581Y-104736625D02*
X74508343Y-104741485D01*
X74540471Y-104749533D01*
X74571656Y-104760691D01*
X74601596Y-104774852D01*
X74630005Y-104791879D01*
X74656608Y-104811609D01*
X74681149Y-104833851D01*
X74703391Y-104858392D01*
X74723121Y-104884995D01*
X74740148Y-104913404D01*
X74754309Y-104943344D01*
X74765467Y-104974529D01*
X74773515Y-105006657D01*
X74778375Y-105039419D01*
X74780000Y-105072500D01*
X74780000Y-105747500D01*
X74778375Y-105780581D01*
X74773515Y-105813343D01*
X74765467Y-105845471D01*
X74754309Y-105876656D01*
X74740148Y-105906596D01*
X74723121Y-105935005D01*
X74703391Y-105961608D01*
X74681149Y-105986149D01*
X74656608Y-106008391D01*
X74630005Y-106028121D01*
X74601596Y-106045148D01*
X74571656Y-106059309D01*
X74540471Y-106070467D01*
X74508343Y-106078515D01*
X74475581Y-106083375D01*
X74442500Y-106085000D01*
X73667500Y-106085000D01*
X73634419Y-106083375D01*
X73601657Y-106078515D01*
X73569529Y-106070467D01*
X73538344Y-106059309D01*
X73508404Y-106045148D01*
X73479995Y-106028121D01*
X73453392Y-106008391D01*
X73428851Y-105986149D01*
X73406609Y-105961608D01*
X73386879Y-105935005D01*
X73369852Y-105906596D01*
X73355691Y-105876656D01*
X73344533Y-105845471D01*
X73336485Y-105813343D01*
X73331625Y-105780581D01*
X73330000Y-105747500D01*
X73330000Y-105072500D01*
X73331625Y-105039419D01*
X73336485Y-105006657D01*
X73344533Y-104974529D01*
X73355691Y-104943344D01*
X73369852Y-104913404D01*
X73386879Y-104884995D01*
X73406609Y-104858392D01*
X73428851Y-104833851D01*
X73453392Y-104811609D01*
X73479995Y-104791879D01*
X73508404Y-104774852D01*
X73538344Y-104760691D01*
X73569529Y-104749533D01*
X73601657Y-104741485D01*
X73634419Y-104736625D01*
X73667500Y-104735000D01*
X74442500Y-104735000D01*
X74475581Y-104736625D01*
X74475581Y-104736625D01*
G37*
D19*
X74055000Y-105410000D03*
D18*
G36*
X76225581Y-104736625D02*
X76258343Y-104741485D01*
X76290471Y-104749533D01*
X76321656Y-104760691D01*
X76351596Y-104774852D01*
X76380005Y-104791879D01*
X76406608Y-104811609D01*
X76431149Y-104833851D01*
X76453391Y-104858392D01*
X76473121Y-104884995D01*
X76490148Y-104913404D01*
X76504309Y-104943344D01*
X76515467Y-104974529D01*
X76523515Y-105006657D01*
X76528375Y-105039419D01*
X76530000Y-105072500D01*
X76530000Y-105747500D01*
X76528375Y-105780581D01*
X76523515Y-105813343D01*
X76515467Y-105845471D01*
X76504309Y-105876656D01*
X76490148Y-105906596D01*
X76473121Y-105935005D01*
X76453391Y-105961608D01*
X76431149Y-105986149D01*
X76406608Y-106008391D01*
X76380005Y-106028121D01*
X76351596Y-106045148D01*
X76321656Y-106059309D01*
X76290471Y-106070467D01*
X76258343Y-106078515D01*
X76225581Y-106083375D01*
X76192500Y-106085000D01*
X75417500Y-106085000D01*
X75384419Y-106083375D01*
X75351657Y-106078515D01*
X75319529Y-106070467D01*
X75288344Y-106059309D01*
X75258404Y-106045148D01*
X75229995Y-106028121D01*
X75203392Y-106008391D01*
X75178851Y-105986149D01*
X75156609Y-105961608D01*
X75136879Y-105935005D01*
X75119852Y-105906596D01*
X75105691Y-105876656D01*
X75094533Y-105845471D01*
X75086485Y-105813343D01*
X75081625Y-105780581D01*
X75080000Y-105747500D01*
X75080000Y-105072500D01*
X75081625Y-105039419D01*
X75086485Y-105006657D01*
X75094533Y-104974529D01*
X75105691Y-104943344D01*
X75119852Y-104913404D01*
X75136879Y-104884995D01*
X75156609Y-104858392D01*
X75178851Y-104833851D01*
X75203392Y-104811609D01*
X75229995Y-104791879D01*
X75258404Y-104774852D01*
X75288344Y-104760691D01*
X75319529Y-104749533D01*
X75351657Y-104741485D01*
X75384419Y-104736625D01*
X75417500Y-104735000D01*
X76192500Y-104735000D01*
X76225581Y-104736625D01*
X76225581Y-104736625D01*
G37*
D19*
X75805000Y-105410000D03*
G04 #@! TD*
D18*
G04 #@! TO.C,D8*
G36*
X138017355Y-104550867D02*
X138050117Y-104555727D01*
X138082245Y-104563775D01*
X138113430Y-104574933D01*
X138143370Y-104589094D01*
X138171779Y-104606121D01*
X138198382Y-104625851D01*
X138222923Y-104648093D01*
X138245165Y-104672634D01*
X138264895Y-104699237D01*
X138281922Y-104727646D01*
X138296083Y-104757586D01*
X138307241Y-104788771D01*
X138315289Y-104820899D01*
X138320149Y-104853661D01*
X138321774Y-104886742D01*
X138321774Y-105561742D01*
X138320149Y-105594823D01*
X138315289Y-105627585D01*
X138307241Y-105659713D01*
X138296083Y-105690898D01*
X138281922Y-105720838D01*
X138264895Y-105749247D01*
X138245165Y-105775850D01*
X138222923Y-105800391D01*
X138198382Y-105822633D01*
X138171779Y-105842363D01*
X138143370Y-105859390D01*
X138113430Y-105873551D01*
X138082245Y-105884709D01*
X138050117Y-105892757D01*
X138017355Y-105897617D01*
X137984274Y-105899242D01*
X137209274Y-105899242D01*
X137176193Y-105897617D01*
X137143431Y-105892757D01*
X137111303Y-105884709D01*
X137080118Y-105873551D01*
X137050178Y-105859390D01*
X137021769Y-105842363D01*
X136995166Y-105822633D01*
X136970625Y-105800391D01*
X136948383Y-105775850D01*
X136928653Y-105749247D01*
X136911626Y-105720838D01*
X136897465Y-105690898D01*
X136886307Y-105659713D01*
X136878259Y-105627585D01*
X136873399Y-105594823D01*
X136871774Y-105561742D01*
X136871774Y-104886742D01*
X136873399Y-104853661D01*
X136878259Y-104820899D01*
X136886307Y-104788771D01*
X136897465Y-104757586D01*
X136911626Y-104727646D01*
X136928653Y-104699237D01*
X136948383Y-104672634D01*
X136970625Y-104648093D01*
X136995166Y-104625851D01*
X137021769Y-104606121D01*
X137050178Y-104589094D01*
X137080118Y-104574933D01*
X137111303Y-104563775D01*
X137143431Y-104555727D01*
X137176193Y-104550867D01*
X137209274Y-104549242D01*
X137984274Y-104549242D01*
X138017355Y-104550867D01*
X138017355Y-104550867D01*
G37*
D19*
X137596774Y-105224242D03*
D18*
G36*
X136267355Y-104550867D02*
X136300117Y-104555727D01*
X136332245Y-104563775D01*
X136363430Y-104574933D01*
X136393370Y-104589094D01*
X136421779Y-104606121D01*
X136448382Y-104625851D01*
X136472923Y-104648093D01*
X136495165Y-104672634D01*
X136514895Y-104699237D01*
X136531922Y-104727646D01*
X136546083Y-104757586D01*
X136557241Y-104788771D01*
X136565289Y-104820899D01*
X136570149Y-104853661D01*
X136571774Y-104886742D01*
X136571774Y-105561742D01*
X136570149Y-105594823D01*
X136565289Y-105627585D01*
X136557241Y-105659713D01*
X136546083Y-105690898D01*
X136531922Y-105720838D01*
X136514895Y-105749247D01*
X136495165Y-105775850D01*
X136472923Y-105800391D01*
X136448382Y-105822633D01*
X136421779Y-105842363D01*
X136393370Y-105859390D01*
X136363430Y-105873551D01*
X136332245Y-105884709D01*
X136300117Y-105892757D01*
X136267355Y-105897617D01*
X136234274Y-105899242D01*
X135459274Y-105899242D01*
X135426193Y-105897617D01*
X135393431Y-105892757D01*
X135361303Y-105884709D01*
X135330118Y-105873551D01*
X135300178Y-105859390D01*
X135271769Y-105842363D01*
X135245166Y-105822633D01*
X135220625Y-105800391D01*
X135198383Y-105775850D01*
X135178653Y-105749247D01*
X135161626Y-105720838D01*
X135147465Y-105690898D01*
X135136307Y-105659713D01*
X135128259Y-105627585D01*
X135123399Y-105594823D01*
X135121774Y-105561742D01*
X135121774Y-104886742D01*
X135123399Y-104853661D01*
X135128259Y-104820899D01*
X135136307Y-104788771D01*
X135147465Y-104757586D01*
X135161626Y-104727646D01*
X135178653Y-104699237D01*
X135198383Y-104672634D01*
X135220625Y-104648093D01*
X135245166Y-104625851D01*
X135271769Y-104606121D01*
X135300178Y-104589094D01*
X135330118Y-104574933D01*
X135361303Y-104563775D01*
X135393431Y-104555727D01*
X135426193Y-104550867D01*
X135459274Y-104549242D01*
X136234274Y-104549242D01*
X136267355Y-104550867D01*
X136267355Y-104550867D01*
G37*
D19*
X135846774Y-105224242D03*
G04 #@! TD*
D18*
G04 #@! TO.C,D9*
G36*
X183455581Y-139661625D02*
X183488343Y-139666485D01*
X183520471Y-139674533D01*
X183551656Y-139685691D01*
X183581596Y-139699852D01*
X183610005Y-139716879D01*
X183636608Y-139736609D01*
X183661149Y-139758851D01*
X183683391Y-139783392D01*
X183703121Y-139809995D01*
X183720148Y-139838404D01*
X183734309Y-139868344D01*
X183745467Y-139899529D01*
X183753515Y-139931657D01*
X183758375Y-139964419D01*
X183760000Y-139997500D01*
X183760000Y-140672500D01*
X183758375Y-140705581D01*
X183753515Y-140738343D01*
X183745467Y-140770471D01*
X183734309Y-140801656D01*
X183720148Y-140831596D01*
X183703121Y-140860005D01*
X183683391Y-140886608D01*
X183661149Y-140911149D01*
X183636608Y-140933391D01*
X183610005Y-140953121D01*
X183581596Y-140970148D01*
X183551656Y-140984309D01*
X183520471Y-140995467D01*
X183488343Y-141003515D01*
X183455581Y-141008375D01*
X183422500Y-141010000D01*
X182647500Y-141010000D01*
X182614419Y-141008375D01*
X182581657Y-141003515D01*
X182549529Y-140995467D01*
X182518344Y-140984309D01*
X182488404Y-140970148D01*
X182459995Y-140953121D01*
X182433392Y-140933391D01*
X182408851Y-140911149D01*
X182386609Y-140886608D01*
X182366879Y-140860005D01*
X182349852Y-140831596D01*
X182335691Y-140801656D01*
X182324533Y-140770471D01*
X182316485Y-140738343D01*
X182311625Y-140705581D01*
X182310000Y-140672500D01*
X182310000Y-139997500D01*
X182311625Y-139964419D01*
X182316485Y-139931657D01*
X182324533Y-139899529D01*
X182335691Y-139868344D01*
X182349852Y-139838404D01*
X182366879Y-139809995D01*
X182386609Y-139783392D01*
X182408851Y-139758851D01*
X182433392Y-139736609D01*
X182459995Y-139716879D01*
X182488404Y-139699852D01*
X182518344Y-139685691D01*
X182549529Y-139674533D01*
X182581657Y-139666485D01*
X182614419Y-139661625D01*
X182647500Y-139660000D01*
X183422500Y-139660000D01*
X183455581Y-139661625D01*
X183455581Y-139661625D01*
G37*
D19*
X183035000Y-140335000D03*
D18*
G36*
X185205581Y-139661625D02*
X185238343Y-139666485D01*
X185270471Y-139674533D01*
X185301656Y-139685691D01*
X185331596Y-139699852D01*
X185360005Y-139716879D01*
X185386608Y-139736609D01*
X185411149Y-139758851D01*
X185433391Y-139783392D01*
X185453121Y-139809995D01*
X185470148Y-139838404D01*
X185484309Y-139868344D01*
X185495467Y-139899529D01*
X185503515Y-139931657D01*
X185508375Y-139964419D01*
X185510000Y-139997500D01*
X185510000Y-140672500D01*
X185508375Y-140705581D01*
X185503515Y-140738343D01*
X185495467Y-140770471D01*
X185484309Y-140801656D01*
X185470148Y-140831596D01*
X185453121Y-140860005D01*
X185433391Y-140886608D01*
X185411149Y-140911149D01*
X185386608Y-140933391D01*
X185360005Y-140953121D01*
X185331596Y-140970148D01*
X185301656Y-140984309D01*
X185270471Y-140995467D01*
X185238343Y-141003515D01*
X185205581Y-141008375D01*
X185172500Y-141010000D01*
X184397500Y-141010000D01*
X184364419Y-141008375D01*
X184331657Y-141003515D01*
X184299529Y-140995467D01*
X184268344Y-140984309D01*
X184238404Y-140970148D01*
X184209995Y-140953121D01*
X184183392Y-140933391D01*
X184158851Y-140911149D01*
X184136609Y-140886608D01*
X184116879Y-140860005D01*
X184099852Y-140831596D01*
X184085691Y-140801656D01*
X184074533Y-140770471D01*
X184066485Y-140738343D01*
X184061625Y-140705581D01*
X184060000Y-140672500D01*
X184060000Y-139997500D01*
X184061625Y-139964419D01*
X184066485Y-139931657D01*
X184074533Y-139899529D01*
X184085691Y-139868344D01*
X184099852Y-139838404D01*
X184116879Y-139809995D01*
X184136609Y-139783392D01*
X184158851Y-139758851D01*
X184183392Y-139736609D01*
X184209995Y-139716879D01*
X184238404Y-139699852D01*
X184268344Y-139685691D01*
X184299529Y-139674533D01*
X184331657Y-139666485D01*
X184364419Y-139661625D01*
X184397500Y-139660000D01*
X185172500Y-139660000D01*
X185205581Y-139661625D01*
X185205581Y-139661625D01*
G37*
D19*
X184785000Y-140335000D03*
G04 #@! TD*
D18*
G04 #@! TO.C,D10*
G36*
X53760581Y-104736625D02*
X53793343Y-104741485D01*
X53825471Y-104749533D01*
X53856656Y-104760691D01*
X53886596Y-104774852D01*
X53915005Y-104791879D01*
X53941608Y-104811609D01*
X53966149Y-104833851D01*
X53988391Y-104858392D01*
X54008121Y-104884995D01*
X54025148Y-104913404D01*
X54039309Y-104943344D01*
X54050467Y-104974529D01*
X54058515Y-105006657D01*
X54063375Y-105039419D01*
X54065000Y-105072500D01*
X54065000Y-105747500D01*
X54063375Y-105780581D01*
X54058515Y-105813343D01*
X54050467Y-105845471D01*
X54039309Y-105876656D01*
X54025148Y-105906596D01*
X54008121Y-105935005D01*
X53988391Y-105961608D01*
X53966149Y-105986149D01*
X53941608Y-106008391D01*
X53915005Y-106028121D01*
X53886596Y-106045148D01*
X53856656Y-106059309D01*
X53825471Y-106070467D01*
X53793343Y-106078515D01*
X53760581Y-106083375D01*
X53727500Y-106085000D01*
X52952500Y-106085000D01*
X52919419Y-106083375D01*
X52886657Y-106078515D01*
X52854529Y-106070467D01*
X52823344Y-106059309D01*
X52793404Y-106045148D01*
X52764995Y-106028121D01*
X52738392Y-106008391D01*
X52713851Y-105986149D01*
X52691609Y-105961608D01*
X52671879Y-105935005D01*
X52654852Y-105906596D01*
X52640691Y-105876656D01*
X52629533Y-105845471D01*
X52621485Y-105813343D01*
X52616625Y-105780581D01*
X52615000Y-105747500D01*
X52615000Y-105072500D01*
X52616625Y-105039419D01*
X52621485Y-105006657D01*
X52629533Y-104974529D01*
X52640691Y-104943344D01*
X52654852Y-104913404D01*
X52671879Y-104884995D01*
X52691609Y-104858392D01*
X52713851Y-104833851D01*
X52738392Y-104811609D01*
X52764995Y-104791879D01*
X52793404Y-104774852D01*
X52823344Y-104760691D01*
X52854529Y-104749533D01*
X52886657Y-104741485D01*
X52919419Y-104736625D01*
X52952500Y-104735000D01*
X53727500Y-104735000D01*
X53760581Y-104736625D01*
X53760581Y-104736625D01*
G37*
D19*
X53340000Y-105410000D03*
D18*
G36*
X55510581Y-104736625D02*
X55543343Y-104741485D01*
X55575471Y-104749533D01*
X55606656Y-104760691D01*
X55636596Y-104774852D01*
X55665005Y-104791879D01*
X55691608Y-104811609D01*
X55716149Y-104833851D01*
X55738391Y-104858392D01*
X55758121Y-104884995D01*
X55775148Y-104913404D01*
X55789309Y-104943344D01*
X55800467Y-104974529D01*
X55808515Y-105006657D01*
X55813375Y-105039419D01*
X55815000Y-105072500D01*
X55815000Y-105747500D01*
X55813375Y-105780581D01*
X55808515Y-105813343D01*
X55800467Y-105845471D01*
X55789309Y-105876656D01*
X55775148Y-105906596D01*
X55758121Y-105935005D01*
X55738391Y-105961608D01*
X55716149Y-105986149D01*
X55691608Y-106008391D01*
X55665005Y-106028121D01*
X55636596Y-106045148D01*
X55606656Y-106059309D01*
X55575471Y-106070467D01*
X55543343Y-106078515D01*
X55510581Y-106083375D01*
X55477500Y-106085000D01*
X54702500Y-106085000D01*
X54669419Y-106083375D01*
X54636657Y-106078515D01*
X54604529Y-106070467D01*
X54573344Y-106059309D01*
X54543404Y-106045148D01*
X54514995Y-106028121D01*
X54488392Y-106008391D01*
X54463851Y-105986149D01*
X54441609Y-105961608D01*
X54421879Y-105935005D01*
X54404852Y-105906596D01*
X54390691Y-105876656D01*
X54379533Y-105845471D01*
X54371485Y-105813343D01*
X54366625Y-105780581D01*
X54365000Y-105747500D01*
X54365000Y-105072500D01*
X54366625Y-105039419D01*
X54371485Y-105006657D01*
X54379533Y-104974529D01*
X54390691Y-104943344D01*
X54404852Y-104913404D01*
X54421879Y-104884995D01*
X54441609Y-104858392D01*
X54463851Y-104833851D01*
X54488392Y-104811609D01*
X54514995Y-104791879D01*
X54543404Y-104774852D01*
X54573344Y-104760691D01*
X54604529Y-104749533D01*
X54636657Y-104741485D01*
X54669419Y-104736625D01*
X54702500Y-104735000D01*
X55477500Y-104735000D01*
X55510581Y-104736625D01*
X55510581Y-104736625D01*
G37*
D19*
X55090000Y-105410000D03*
G04 #@! TD*
D18*
G04 #@! TO.C,R35*
G36*
X185995581Y-107276625D02*
X186028343Y-107281485D01*
X186060471Y-107289533D01*
X186091656Y-107300691D01*
X186121596Y-107314852D01*
X186150005Y-107331879D01*
X186176608Y-107351609D01*
X186201149Y-107373851D01*
X186223391Y-107398392D01*
X186243121Y-107424995D01*
X186260148Y-107453404D01*
X186274309Y-107483344D01*
X186285467Y-107514529D01*
X186293515Y-107546657D01*
X186298375Y-107579419D01*
X186300000Y-107612500D01*
X186300000Y-108287500D01*
X186298375Y-108320581D01*
X186293515Y-108353343D01*
X186285467Y-108385471D01*
X186274309Y-108416656D01*
X186260148Y-108446596D01*
X186243121Y-108475005D01*
X186223391Y-108501608D01*
X186201149Y-108526149D01*
X186176608Y-108548391D01*
X186150005Y-108568121D01*
X186121596Y-108585148D01*
X186091656Y-108599309D01*
X186060471Y-108610467D01*
X186028343Y-108618515D01*
X185995581Y-108623375D01*
X185962500Y-108625000D01*
X185187500Y-108625000D01*
X185154419Y-108623375D01*
X185121657Y-108618515D01*
X185089529Y-108610467D01*
X185058344Y-108599309D01*
X185028404Y-108585148D01*
X184999995Y-108568121D01*
X184973392Y-108548391D01*
X184948851Y-108526149D01*
X184926609Y-108501608D01*
X184906879Y-108475005D01*
X184889852Y-108446596D01*
X184875691Y-108416656D01*
X184864533Y-108385471D01*
X184856485Y-108353343D01*
X184851625Y-108320581D01*
X184850000Y-108287500D01*
X184850000Y-107612500D01*
X184851625Y-107579419D01*
X184856485Y-107546657D01*
X184864533Y-107514529D01*
X184875691Y-107483344D01*
X184889852Y-107453404D01*
X184906879Y-107424995D01*
X184926609Y-107398392D01*
X184948851Y-107373851D01*
X184973392Y-107351609D01*
X184999995Y-107331879D01*
X185028404Y-107314852D01*
X185058344Y-107300691D01*
X185089529Y-107289533D01*
X185121657Y-107281485D01*
X185154419Y-107276625D01*
X185187500Y-107275000D01*
X185962500Y-107275000D01*
X185995581Y-107276625D01*
X185995581Y-107276625D01*
G37*
D19*
X185575000Y-107950000D03*
D18*
G36*
X187745581Y-107276625D02*
X187778343Y-107281485D01*
X187810471Y-107289533D01*
X187841656Y-107300691D01*
X187871596Y-107314852D01*
X187900005Y-107331879D01*
X187926608Y-107351609D01*
X187951149Y-107373851D01*
X187973391Y-107398392D01*
X187993121Y-107424995D01*
X188010148Y-107453404D01*
X188024309Y-107483344D01*
X188035467Y-107514529D01*
X188043515Y-107546657D01*
X188048375Y-107579419D01*
X188050000Y-107612500D01*
X188050000Y-108287500D01*
X188048375Y-108320581D01*
X188043515Y-108353343D01*
X188035467Y-108385471D01*
X188024309Y-108416656D01*
X188010148Y-108446596D01*
X187993121Y-108475005D01*
X187973391Y-108501608D01*
X187951149Y-108526149D01*
X187926608Y-108548391D01*
X187900005Y-108568121D01*
X187871596Y-108585148D01*
X187841656Y-108599309D01*
X187810471Y-108610467D01*
X187778343Y-108618515D01*
X187745581Y-108623375D01*
X187712500Y-108625000D01*
X186937500Y-108625000D01*
X186904419Y-108623375D01*
X186871657Y-108618515D01*
X186839529Y-108610467D01*
X186808344Y-108599309D01*
X186778404Y-108585148D01*
X186749995Y-108568121D01*
X186723392Y-108548391D01*
X186698851Y-108526149D01*
X186676609Y-108501608D01*
X186656879Y-108475005D01*
X186639852Y-108446596D01*
X186625691Y-108416656D01*
X186614533Y-108385471D01*
X186606485Y-108353343D01*
X186601625Y-108320581D01*
X186600000Y-108287500D01*
X186600000Y-107612500D01*
X186601625Y-107579419D01*
X186606485Y-107546657D01*
X186614533Y-107514529D01*
X186625691Y-107483344D01*
X186639852Y-107453404D01*
X186656879Y-107424995D01*
X186676609Y-107398392D01*
X186698851Y-107373851D01*
X186723392Y-107351609D01*
X186749995Y-107331879D01*
X186778404Y-107314852D01*
X186808344Y-107300691D01*
X186839529Y-107289533D01*
X186871657Y-107281485D01*
X186904419Y-107276625D01*
X186937500Y-107275000D01*
X187712500Y-107275000D01*
X187745581Y-107276625D01*
X187745581Y-107276625D01*
G37*
D19*
X187325000Y-107950000D03*
G04 #@! TD*
D18*
G04 #@! TO.C,R36*
G36*
X93765581Y-104736625D02*
X93798343Y-104741485D01*
X93830471Y-104749533D01*
X93861656Y-104760691D01*
X93891596Y-104774852D01*
X93920005Y-104791879D01*
X93946608Y-104811609D01*
X93971149Y-104833851D01*
X93993391Y-104858392D01*
X94013121Y-104884995D01*
X94030148Y-104913404D01*
X94044309Y-104943344D01*
X94055467Y-104974529D01*
X94063515Y-105006657D01*
X94068375Y-105039419D01*
X94070000Y-105072500D01*
X94070000Y-105747500D01*
X94068375Y-105780581D01*
X94063515Y-105813343D01*
X94055467Y-105845471D01*
X94044309Y-105876656D01*
X94030148Y-105906596D01*
X94013121Y-105935005D01*
X93993391Y-105961608D01*
X93971149Y-105986149D01*
X93946608Y-106008391D01*
X93920005Y-106028121D01*
X93891596Y-106045148D01*
X93861656Y-106059309D01*
X93830471Y-106070467D01*
X93798343Y-106078515D01*
X93765581Y-106083375D01*
X93732500Y-106085000D01*
X92957500Y-106085000D01*
X92924419Y-106083375D01*
X92891657Y-106078515D01*
X92859529Y-106070467D01*
X92828344Y-106059309D01*
X92798404Y-106045148D01*
X92769995Y-106028121D01*
X92743392Y-106008391D01*
X92718851Y-105986149D01*
X92696609Y-105961608D01*
X92676879Y-105935005D01*
X92659852Y-105906596D01*
X92645691Y-105876656D01*
X92634533Y-105845471D01*
X92626485Y-105813343D01*
X92621625Y-105780581D01*
X92620000Y-105747500D01*
X92620000Y-105072500D01*
X92621625Y-105039419D01*
X92626485Y-105006657D01*
X92634533Y-104974529D01*
X92645691Y-104943344D01*
X92659852Y-104913404D01*
X92676879Y-104884995D01*
X92696609Y-104858392D01*
X92718851Y-104833851D01*
X92743392Y-104811609D01*
X92769995Y-104791879D01*
X92798404Y-104774852D01*
X92828344Y-104760691D01*
X92859529Y-104749533D01*
X92891657Y-104741485D01*
X92924419Y-104736625D01*
X92957500Y-104735000D01*
X93732500Y-104735000D01*
X93765581Y-104736625D01*
X93765581Y-104736625D01*
G37*
D19*
X93345000Y-105410000D03*
D18*
G36*
X92015581Y-104736625D02*
X92048343Y-104741485D01*
X92080471Y-104749533D01*
X92111656Y-104760691D01*
X92141596Y-104774852D01*
X92170005Y-104791879D01*
X92196608Y-104811609D01*
X92221149Y-104833851D01*
X92243391Y-104858392D01*
X92263121Y-104884995D01*
X92280148Y-104913404D01*
X92294309Y-104943344D01*
X92305467Y-104974529D01*
X92313515Y-105006657D01*
X92318375Y-105039419D01*
X92320000Y-105072500D01*
X92320000Y-105747500D01*
X92318375Y-105780581D01*
X92313515Y-105813343D01*
X92305467Y-105845471D01*
X92294309Y-105876656D01*
X92280148Y-105906596D01*
X92263121Y-105935005D01*
X92243391Y-105961608D01*
X92221149Y-105986149D01*
X92196608Y-106008391D01*
X92170005Y-106028121D01*
X92141596Y-106045148D01*
X92111656Y-106059309D01*
X92080471Y-106070467D01*
X92048343Y-106078515D01*
X92015581Y-106083375D01*
X91982500Y-106085000D01*
X91207500Y-106085000D01*
X91174419Y-106083375D01*
X91141657Y-106078515D01*
X91109529Y-106070467D01*
X91078344Y-106059309D01*
X91048404Y-106045148D01*
X91019995Y-106028121D01*
X90993392Y-106008391D01*
X90968851Y-105986149D01*
X90946609Y-105961608D01*
X90926879Y-105935005D01*
X90909852Y-105906596D01*
X90895691Y-105876656D01*
X90884533Y-105845471D01*
X90876485Y-105813343D01*
X90871625Y-105780581D01*
X90870000Y-105747500D01*
X90870000Y-105072500D01*
X90871625Y-105039419D01*
X90876485Y-105006657D01*
X90884533Y-104974529D01*
X90895691Y-104943344D01*
X90909852Y-104913404D01*
X90926879Y-104884995D01*
X90946609Y-104858392D01*
X90968851Y-104833851D01*
X90993392Y-104811609D01*
X91019995Y-104791879D01*
X91048404Y-104774852D01*
X91078344Y-104760691D01*
X91109529Y-104749533D01*
X91141657Y-104741485D01*
X91174419Y-104736625D01*
X91207500Y-104735000D01*
X91982500Y-104735000D01*
X92015581Y-104736625D01*
X92015581Y-104736625D01*
G37*
D19*
X91595000Y-105410000D03*
G04 #@! TD*
D18*
G04 #@! TO.C,R37*
G36*
X158055581Y-64096625D02*
X158088343Y-64101485D01*
X158120471Y-64109533D01*
X158151656Y-64120691D01*
X158181596Y-64134852D01*
X158210005Y-64151879D01*
X158236608Y-64171609D01*
X158261149Y-64193851D01*
X158283391Y-64218392D01*
X158303121Y-64244995D01*
X158320148Y-64273404D01*
X158334309Y-64303344D01*
X158345467Y-64334529D01*
X158353515Y-64366657D01*
X158358375Y-64399419D01*
X158360000Y-64432500D01*
X158360000Y-65107500D01*
X158358375Y-65140581D01*
X158353515Y-65173343D01*
X158345467Y-65205471D01*
X158334309Y-65236656D01*
X158320148Y-65266596D01*
X158303121Y-65295005D01*
X158283391Y-65321608D01*
X158261149Y-65346149D01*
X158236608Y-65368391D01*
X158210005Y-65388121D01*
X158181596Y-65405148D01*
X158151656Y-65419309D01*
X158120471Y-65430467D01*
X158088343Y-65438515D01*
X158055581Y-65443375D01*
X158022500Y-65445000D01*
X157247500Y-65445000D01*
X157214419Y-65443375D01*
X157181657Y-65438515D01*
X157149529Y-65430467D01*
X157118344Y-65419309D01*
X157088404Y-65405148D01*
X157059995Y-65388121D01*
X157033392Y-65368391D01*
X157008851Y-65346149D01*
X156986609Y-65321608D01*
X156966879Y-65295005D01*
X156949852Y-65266596D01*
X156935691Y-65236656D01*
X156924533Y-65205471D01*
X156916485Y-65173343D01*
X156911625Y-65140581D01*
X156910000Y-65107500D01*
X156910000Y-64432500D01*
X156911625Y-64399419D01*
X156916485Y-64366657D01*
X156924533Y-64334529D01*
X156935691Y-64303344D01*
X156949852Y-64273404D01*
X156966879Y-64244995D01*
X156986609Y-64218392D01*
X157008851Y-64193851D01*
X157033392Y-64171609D01*
X157059995Y-64151879D01*
X157088404Y-64134852D01*
X157118344Y-64120691D01*
X157149529Y-64109533D01*
X157181657Y-64101485D01*
X157214419Y-64096625D01*
X157247500Y-64095000D01*
X158022500Y-64095000D01*
X158055581Y-64096625D01*
X158055581Y-64096625D01*
G37*
D19*
X157635000Y-64770000D03*
D18*
G36*
X159805581Y-64096625D02*
X159838343Y-64101485D01*
X159870471Y-64109533D01*
X159901656Y-64120691D01*
X159931596Y-64134852D01*
X159960005Y-64151879D01*
X159986608Y-64171609D01*
X160011149Y-64193851D01*
X160033391Y-64218392D01*
X160053121Y-64244995D01*
X160070148Y-64273404D01*
X160084309Y-64303344D01*
X160095467Y-64334529D01*
X160103515Y-64366657D01*
X160108375Y-64399419D01*
X160110000Y-64432500D01*
X160110000Y-65107500D01*
X160108375Y-65140581D01*
X160103515Y-65173343D01*
X160095467Y-65205471D01*
X160084309Y-65236656D01*
X160070148Y-65266596D01*
X160053121Y-65295005D01*
X160033391Y-65321608D01*
X160011149Y-65346149D01*
X159986608Y-65368391D01*
X159960005Y-65388121D01*
X159931596Y-65405148D01*
X159901656Y-65419309D01*
X159870471Y-65430467D01*
X159838343Y-65438515D01*
X159805581Y-65443375D01*
X159772500Y-65445000D01*
X158997500Y-65445000D01*
X158964419Y-65443375D01*
X158931657Y-65438515D01*
X158899529Y-65430467D01*
X158868344Y-65419309D01*
X158838404Y-65405148D01*
X158809995Y-65388121D01*
X158783392Y-65368391D01*
X158758851Y-65346149D01*
X158736609Y-65321608D01*
X158716879Y-65295005D01*
X158699852Y-65266596D01*
X158685691Y-65236656D01*
X158674533Y-65205471D01*
X158666485Y-65173343D01*
X158661625Y-65140581D01*
X158660000Y-65107500D01*
X158660000Y-64432500D01*
X158661625Y-64399419D01*
X158666485Y-64366657D01*
X158674533Y-64334529D01*
X158685691Y-64303344D01*
X158699852Y-64273404D01*
X158716879Y-64244995D01*
X158736609Y-64218392D01*
X158758851Y-64193851D01*
X158783392Y-64171609D01*
X158809995Y-64151879D01*
X158838404Y-64134852D01*
X158868344Y-64120691D01*
X158899529Y-64109533D01*
X158931657Y-64101485D01*
X158964419Y-64096625D01*
X158997500Y-64095000D01*
X159772500Y-64095000D01*
X159805581Y-64096625D01*
X159805581Y-64096625D01*
G37*
D19*
X159385000Y-64770000D03*
G04 #@! TD*
D18*
G04 #@! TO.C,R38*
G36*
X114085581Y-104736625D02*
X114118343Y-104741485D01*
X114150471Y-104749533D01*
X114181656Y-104760691D01*
X114211596Y-104774852D01*
X114240005Y-104791879D01*
X114266608Y-104811609D01*
X114291149Y-104833851D01*
X114313391Y-104858392D01*
X114333121Y-104884995D01*
X114350148Y-104913404D01*
X114364309Y-104943344D01*
X114375467Y-104974529D01*
X114383515Y-105006657D01*
X114388375Y-105039419D01*
X114390000Y-105072500D01*
X114390000Y-105747500D01*
X114388375Y-105780581D01*
X114383515Y-105813343D01*
X114375467Y-105845471D01*
X114364309Y-105876656D01*
X114350148Y-105906596D01*
X114333121Y-105935005D01*
X114313391Y-105961608D01*
X114291149Y-105986149D01*
X114266608Y-106008391D01*
X114240005Y-106028121D01*
X114211596Y-106045148D01*
X114181656Y-106059309D01*
X114150471Y-106070467D01*
X114118343Y-106078515D01*
X114085581Y-106083375D01*
X114052500Y-106085000D01*
X113277500Y-106085000D01*
X113244419Y-106083375D01*
X113211657Y-106078515D01*
X113179529Y-106070467D01*
X113148344Y-106059309D01*
X113118404Y-106045148D01*
X113089995Y-106028121D01*
X113063392Y-106008391D01*
X113038851Y-105986149D01*
X113016609Y-105961608D01*
X112996879Y-105935005D01*
X112979852Y-105906596D01*
X112965691Y-105876656D01*
X112954533Y-105845471D01*
X112946485Y-105813343D01*
X112941625Y-105780581D01*
X112940000Y-105747500D01*
X112940000Y-105072500D01*
X112941625Y-105039419D01*
X112946485Y-105006657D01*
X112954533Y-104974529D01*
X112965691Y-104943344D01*
X112979852Y-104913404D01*
X112996879Y-104884995D01*
X113016609Y-104858392D01*
X113038851Y-104833851D01*
X113063392Y-104811609D01*
X113089995Y-104791879D01*
X113118404Y-104774852D01*
X113148344Y-104760691D01*
X113179529Y-104749533D01*
X113211657Y-104741485D01*
X113244419Y-104736625D01*
X113277500Y-104735000D01*
X114052500Y-104735000D01*
X114085581Y-104736625D01*
X114085581Y-104736625D01*
G37*
D19*
X113665000Y-105410000D03*
D18*
G36*
X112335581Y-104736625D02*
X112368343Y-104741485D01*
X112400471Y-104749533D01*
X112431656Y-104760691D01*
X112461596Y-104774852D01*
X112490005Y-104791879D01*
X112516608Y-104811609D01*
X112541149Y-104833851D01*
X112563391Y-104858392D01*
X112583121Y-104884995D01*
X112600148Y-104913404D01*
X112614309Y-104943344D01*
X112625467Y-104974529D01*
X112633515Y-105006657D01*
X112638375Y-105039419D01*
X112640000Y-105072500D01*
X112640000Y-105747500D01*
X112638375Y-105780581D01*
X112633515Y-105813343D01*
X112625467Y-105845471D01*
X112614309Y-105876656D01*
X112600148Y-105906596D01*
X112583121Y-105935005D01*
X112563391Y-105961608D01*
X112541149Y-105986149D01*
X112516608Y-106008391D01*
X112490005Y-106028121D01*
X112461596Y-106045148D01*
X112431656Y-106059309D01*
X112400471Y-106070467D01*
X112368343Y-106078515D01*
X112335581Y-106083375D01*
X112302500Y-106085000D01*
X111527500Y-106085000D01*
X111494419Y-106083375D01*
X111461657Y-106078515D01*
X111429529Y-106070467D01*
X111398344Y-106059309D01*
X111368404Y-106045148D01*
X111339995Y-106028121D01*
X111313392Y-106008391D01*
X111288851Y-105986149D01*
X111266609Y-105961608D01*
X111246879Y-105935005D01*
X111229852Y-105906596D01*
X111215691Y-105876656D01*
X111204533Y-105845471D01*
X111196485Y-105813343D01*
X111191625Y-105780581D01*
X111190000Y-105747500D01*
X111190000Y-105072500D01*
X111191625Y-105039419D01*
X111196485Y-105006657D01*
X111204533Y-104974529D01*
X111215691Y-104943344D01*
X111229852Y-104913404D01*
X111246879Y-104884995D01*
X111266609Y-104858392D01*
X111288851Y-104833851D01*
X111313392Y-104811609D01*
X111339995Y-104791879D01*
X111368404Y-104774852D01*
X111398344Y-104760691D01*
X111429529Y-104749533D01*
X111461657Y-104741485D01*
X111494419Y-104736625D01*
X111527500Y-104735000D01*
X112302500Y-104735000D01*
X112335581Y-104736625D01*
X112335581Y-104736625D01*
G37*
D19*
X111915000Y-105410000D03*
G04 #@! TD*
D18*
G04 #@! TO.C,R39*
G36*
X72175581Y-104736625D02*
X72208343Y-104741485D01*
X72240471Y-104749533D01*
X72271656Y-104760691D01*
X72301596Y-104774852D01*
X72330005Y-104791879D01*
X72356608Y-104811609D01*
X72381149Y-104833851D01*
X72403391Y-104858392D01*
X72423121Y-104884995D01*
X72440148Y-104913404D01*
X72454309Y-104943344D01*
X72465467Y-104974529D01*
X72473515Y-105006657D01*
X72478375Y-105039419D01*
X72480000Y-105072500D01*
X72480000Y-105747500D01*
X72478375Y-105780581D01*
X72473515Y-105813343D01*
X72465467Y-105845471D01*
X72454309Y-105876656D01*
X72440148Y-105906596D01*
X72423121Y-105935005D01*
X72403391Y-105961608D01*
X72381149Y-105986149D01*
X72356608Y-106008391D01*
X72330005Y-106028121D01*
X72301596Y-106045148D01*
X72271656Y-106059309D01*
X72240471Y-106070467D01*
X72208343Y-106078515D01*
X72175581Y-106083375D01*
X72142500Y-106085000D01*
X71367500Y-106085000D01*
X71334419Y-106083375D01*
X71301657Y-106078515D01*
X71269529Y-106070467D01*
X71238344Y-106059309D01*
X71208404Y-106045148D01*
X71179995Y-106028121D01*
X71153392Y-106008391D01*
X71128851Y-105986149D01*
X71106609Y-105961608D01*
X71086879Y-105935005D01*
X71069852Y-105906596D01*
X71055691Y-105876656D01*
X71044533Y-105845471D01*
X71036485Y-105813343D01*
X71031625Y-105780581D01*
X71030000Y-105747500D01*
X71030000Y-105072500D01*
X71031625Y-105039419D01*
X71036485Y-105006657D01*
X71044533Y-104974529D01*
X71055691Y-104943344D01*
X71069852Y-104913404D01*
X71086879Y-104884995D01*
X71106609Y-104858392D01*
X71128851Y-104833851D01*
X71153392Y-104811609D01*
X71179995Y-104791879D01*
X71208404Y-104774852D01*
X71238344Y-104760691D01*
X71269529Y-104749533D01*
X71301657Y-104741485D01*
X71334419Y-104736625D01*
X71367500Y-104735000D01*
X72142500Y-104735000D01*
X72175581Y-104736625D01*
X72175581Y-104736625D01*
G37*
D19*
X71755000Y-105410000D03*
D18*
G36*
X70425581Y-104736625D02*
X70458343Y-104741485D01*
X70490471Y-104749533D01*
X70521656Y-104760691D01*
X70551596Y-104774852D01*
X70580005Y-104791879D01*
X70606608Y-104811609D01*
X70631149Y-104833851D01*
X70653391Y-104858392D01*
X70673121Y-104884995D01*
X70690148Y-104913404D01*
X70704309Y-104943344D01*
X70715467Y-104974529D01*
X70723515Y-105006657D01*
X70728375Y-105039419D01*
X70730000Y-105072500D01*
X70730000Y-105747500D01*
X70728375Y-105780581D01*
X70723515Y-105813343D01*
X70715467Y-105845471D01*
X70704309Y-105876656D01*
X70690148Y-105906596D01*
X70673121Y-105935005D01*
X70653391Y-105961608D01*
X70631149Y-105986149D01*
X70606608Y-106008391D01*
X70580005Y-106028121D01*
X70551596Y-106045148D01*
X70521656Y-106059309D01*
X70490471Y-106070467D01*
X70458343Y-106078515D01*
X70425581Y-106083375D01*
X70392500Y-106085000D01*
X69617500Y-106085000D01*
X69584419Y-106083375D01*
X69551657Y-106078515D01*
X69519529Y-106070467D01*
X69488344Y-106059309D01*
X69458404Y-106045148D01*
X69429995Y-106028121D01*
X69403392Y-106008391D01*
X69378851Y-105986149D01*
X69356609Y-105961608D01*
X69336879Y-105935005D01*
X69319852Y-105906596D01*
X69305691Y-105876656D01*
X69294533Y-105845471D01*
X69286485Y-105813343D01*
X69281625Y-105780581D01*
X69280000Y-105747500D01*
X69280000Y-105072500D01*
X69281625Y-105039419D01*
X69286485Y-105006657D01*
X69294533Y-104974529D01*
X69305691Y-104943344D01*
X69319852Y-104913404D01*
X69336879Y-104884995D01*
X69356609Y-104858392D01*
X69378851Y-104833851D01*
X69403392Y-104811609D01*
X69429995Y-104791879D01*
X69458404Y-104774852D01*
X69488344Y-104760691D01*
X69519529Y-104749533D01*
X69551657Y-104741485D01*
X69584419Y-104736625D01*
X69617500Y-104735000D01*
X70392500Y-104735000D01*
X70425581Y-104736625D01*
X70425581Y-104736625D01*
G37*
D19*
X70005000Y-105410000D03*
G04 #@! TD*
D18*
G04 #@! TO.C,R40*
G36*
X132612355Y-104550867D02*
X132645117Y-104555727D01*
X132677245Y-104563775D01*
X132708430Y-104574933D01*
X132738370Y-104589094D01*
X132766779Y-104606121D01*
X132793382Y-104625851D01*
X132817923Y-104648093D01*
X132840165Y-104672634D01*
X132859895Y-104699237D01*
X132876922Y-104727646D01*
X132891083Y-104757586D01*
X132902241Y-104788771D01*
X132910289Y-104820899D01*
X132915149Y-104853661D01*
X132916774Y-104886742D01*
X132916774Y-105561742D01*
X132915149Y-105594823D01*
X132910289Y-105627585D01*
X132902241Y-105659713D01*
X132891083Y-105690898D01*
X132876922Y-105720838D01*
X132859895Y-105749247D01*
X132840165Y-105775850D01*
X132817923Y-105800391D01*
X132793382Y-105822633D01*
X132766779Y-105842363D01*
X132738370Y-105859390D01*
X132708430Y-105873551D01*
X132677245Y-105884709D01*
X132645117Y-105892757D01*
X132612355Y-105897617D01*
X132579274Y-105899242D01*
X131804274Y-105899242D01*
X131771193Y-105897617D01*
X131738431Y-105892757D01*
X131706303Y-105884709D01*
X131675118Y-105873551D01*
X131645178Y-105859390D01*
X131616769Y-105842363D01*
X131590166Y-105822633D01*
X131565625Y-105800391D01*
X131543383Y-105775850D01*
X131523653Y-105749247D01*
X131506626Y-105720838D01*
X131492465Y-105690898D01*
X131481307Y-105659713D01*
X131473259Y-105627585D01*
X131468399Y-105594823D01*
X131466774Y-105561742D01*
X131466774Y-104886742D01*
X131468399Y-104853661D01*
X131473259Y-104820899D01*
X131481307Y-104788771D01*
X131492465Y-104757586D01*
X131506626Y-104727646D01*
X131523653Y-104699237D01*
X131543383Y-104672634D01*
X131565625Y-104648093D01*
X131590166Y-104625851D01*
X131616769Y-104606121D01*
X131645178Y-104589094D01*
X131675118Y-104574933D01*
X131706303Y-104563775D01*
X131738431Y-104555727D01*
X131771193Y-104550867D01*
X131804274Y-104549242D01*
X132579274Y-104549242D01*
X132612355Y-104550867D01*
X132612355Y-104550867D01*
G37*
D19*
X132191774Y-105224242D03*
D18*
G36*
X134362355Y-104550867D02*
X134395117Y-104555727D01*
X134427245Y-104563775D01*
X134458430Y-104574933D01*
X134488370Y-104589094D01*
X134516779Y-104606121D01*
X134543382Y-104625851D01*
X134567923Y-104648093D01*
X134590165Y-104672634D01*
X134609895Y-104699237D01*
X134626922Y-104727646D01*
X134641083Y-104757586D01*
X134652241Y-104788771D01*
X134660289Y-104820899D01*
X134665149Y-104853661D01*
X134666774Y-104886742D01*
X134666774Y-105561742D01*
X134665149Y-105594823D01*
X134660289Y-105627585D01*
X134652241Y-105659713D01*
X134641083Y-105690898D01*
X134626922Y-105720838D01*
X134609895Y-105749247D01*
X134590165Y-105775850D01*
X134567923Y-105800391D01*
X134543382Y-105822633D01*
X134516779Y-105842363D01*
X134488370Y-105859390D01*
X134458430Y-105873551D01*
X134427245Y-105884709D01*
X134395117Y-105892757D01*
X134362355Y-105897617D01*
X134329274Y-105899242D01*
X133554274Y-105899242D01*
X133521193Y-105897617D01*
X133488431Y-105892757D01*
X133456303Y-105884709D01*
X133425118Y-105873551D01*
X133395178Y-105859390D01*
X133366769Y-105842363D01*
X133340166Y-105822633D01*
X133315625Y-105800391D01*
X133293383Y-105775850D01*
X133273653Y-105749247D01*
X133256626Y-105720838D01*
X133242465Y-105690898D01*
X133231307Y-105659713D01*
X133223259Y-105627585D01*
X133218399Y-105594823D01*
X133216774Y-105561742D01*
X133216774Y-104886742D01*
X133218399Y-104853661D01*
X133223259Y-104820899D01*
X133231307Y-104788771D01*
X133242465Y-104757586D01*
X133256626Y-104727646D01*
X133273653Y-104699237D01*
X133293383Y-104672634D01*
X133315625Y-104648093D01*
X133340166Y-104625851D01*
X133366769Y-104606121D01*
X133395178Y-104589094D01*
X133425118Y-104574933D01*
X133456303Y-104563775D01*
X133488431Y-104555727D01*
X133521193Y-104550867D01*
X133554274Y-104549242D01*
X134329274Y-104549242D01*
X134362355Y-104550867D01*
X134362355Y-104550867D01*
G37*
D19*
X133941774Y-105224242D03*
G04 #@! TD*
D18*
G04 #@! TO.C,R41*
G36*
X189495581Y-139661625D02*
X189528343Y-139666485D01*
X189560471Y-139674533D01*
X189591656Y-139685691D01*
X189621596Y-139699852D01*
X189650005Y-139716879D01*
X189676608Y-139736609D01*
X189701149Y-139758851D01*
X189723391Y-139783392D01*
X189743121Y-139809995D01*
X189760148Y-139838404D01*
X189774309Y-139868344D01*
X189785467Y-139899529D01*
X189793515Y-139931657D01*
X189798375Y-139964419D01*
X189800000Y-139997500D01*
X189800000Y-140672500D01*
X189798375Y-140705581D01*
X189793515Y-140738343D01*
X189785467Y-140770471D01*
X189774309Y-140801656D01*
X189760148Y-140831596D01*
X189743121Y-140860005D01*
X189723391Y-140886608D01*
X189701149Y-140911149D01*
X189676608Y-140933391D01*
X189650005Y-140953121D01*
X189621596Y-140970148D01*
X189591656Y-140984309D01*
X189560471Y-140995467D01*
X189528343Y-141003515D01*
X189495581Y-141008375D01*
X189462500Y-141010000D01*
X188687500Y-141010000D01*
X188654419Y-141008375D01*
X188621657Y-141003515D01*
X188589529Y-140995467D01*
X188558344Y-140984309D01*
X188528404Y-140970148D01*
X188499995Y-140953121D01*
X188473392Y-140933391D01*
X188448851Y-140911149D01*
X188426609Y-140886608D01*
X188406879Y-140860005D01*
X188389852Y-140831596D01*
X188375691Y-140801656D01*
X188364533Y-140770471D01*
X188356485Y-140738343D01*
X188351625Y-140705581D01*
X188350000Y-140672500D01*
X188350000Y-139997500D01*
X188351625Y-139964419D01*
X188356485Y-139931657D01*
X188364533Y-139899529D01*
X188375691Y-139868344D01*
X188389852Y-139838404D01*
X188406879Y-139809995D01*
X188426609Y-139783392D01*
X188448851Y-139758851D01*
X188473392Y-139736609D01*
X188499995Y-139716879D01*
X188528404Y-139699852D01*
X188558344Y-139685691D01*
X188589529Y-139674533D01*
X188621657Y-139666485D01*
X188654419Y-139661625D01*
X188687500Y-139660000D01*
X189462500Y-139660000D01*
X189495581Y-139661625D01*
X189495581Y-139661625D01*
G37*
D19*
X189075000Y-140335000D03*
D18*
G36*
X187745581Y-139661625D02*
X187778343Y-139666485D01*
X187810471Y-139674533D01*
X187841656Y-139685691D01*
X187871596Y-139699852D01*
X187900005Y-139716879D01*
X187926608Y-139736609D01*
X187951149Y-139758851D01*
X187973391Y-139783392D01*
X187993121Y-139809995D01*
X188010148Y-139838404D01*
X188024309Y-139868344D01*
X188035467Y-139899529D01*
X188043515Y-139931657D01*
X188048375Y-139964419D01*
X188050000Y-139997500D01*
X188050000Y-140672500D01*
X188048375Y-140705581D01*
X188043515Y-140738343D01*
X188035467Y-140770471D01*
X188024309Y-140801656D01*
X188010148Y-140831596D01*
X187993121Y-140860005D01*
X187973391Y-140886608D01*
X187951149Y-140911149D01*
X187926608Y-140933391D01*
X187900005Y-140953121D01*
X187871596Y-140970148D01*
X187841656Y-140984309D01*
X187810471Y-140995467D01*
X187778343Y-141003515D01*
X187745581Y-141008375D01*
X187712500Y-141010000D01*
X186937500Y-141010000D01*
X186904419Y-141008375D01*
X186871657Y-141003515D01*
X186839529Y-140995467D01*
X186808344Y-140984309D01*
X186778404Y-140970148D01*
X186749995Y-140953121D01*
X186723392Y-140933391D01*
X186698851Y-140911149D01*
X186676609Y-140886608D01*
X186656879Y-140860005D01*
X186639852Y-140831596D01*
X186625691Y-140801656D01*
X186614533Y-140770471D01*
X186606485Y-140738343D01*
X186601625Y-140705581D01*
X186600000Y-140672500D01*
X186600000Y-139997500D01*
X186601625Y-139964419D01*
X186606485Y-139931657D01*
X186614533Y-139899529D01*
X186625691Y-139868344D01*
X186639852Y-139838404D01*
X186656879Y-139809995D01*
X186676609Y-139783392D01*
X186698851Y-139758851D01*
X186723392Y-139736609D01*
X186749995Y-139716879D01*
X186778404Y-139699852D01*
X186808344Y-139685691D01*
X186839529Y-139674533D01*
X186871657Y-139666485D01*
X186904419Y-139661625D01*
X186937500Y-139660000D01*
X187712500Y-139660000D01*
X187745581Y-139661625D01*
X187745581Y-139661625D01*
G37*
D19*
X187325000Y-140335000D03*
G04 #@! TD*
D18*
G04 #@! TO.C,R42*
G36*
X51619303Y-104736625D02*
X51652065Y-104741485D01*
X51684193Y-104749533D01*
X51715378Y-104760691D01*
X51745318Y-104774852D01*
X51773727Y-104791879D01*
X51800330Y-104811609D01*
X51824871Y-104833851D01*
X51847113Y-104858392D01*
X51866843Y-104884995D01*
X51883870Y-104913404D01*
X51898031Y-104943344D01*
X51909189Y-104974529D01*
X51917237Y-105006657D01*
X51922097Y-105039419D01*
X51923722Y-105072500D01*
X51923722Y-105747500D01*
X51922097Y-105780581D01*
X51917237Y-105813343D01*
X51909189Y-105845471D01*
X51898031Y-105876656D01*
X51883870Y-105906596D01*
X51866843Y-105935005D01*
X51847113Y-105961608D01*
X51824871Y-105986149D01*
X51800330Y-106008391D01*
X51773727Y-106028121D01*
X51745318Y-106045148D01*
X51715378Y-106059309D01*
X51684193Y-106070467D01*
X51652065Y-106078515D01*
X51619303Y-106083375D01*
X51586222Y-106085000D01*
X50811222Y-106085000D01*
X50778141Y-106083375D01*
X50745379Y-106078515D01*
X50713251Y-106070467D01*
X50682066Y-106059309D01*
X50652126Y-106045148D01*
X50623717Y-106028121D01*
X50597114Y-106008391D01*
X50572573Y-105986149D01*
X50550331Y-105961608D01*
X50530601Y-105935005D01*
X50513574Y-105906596D01*
X50499413Y-105876656D01*
X50488255Y-105845471D01*
X50480207Y-105813343D01*
X50475347Y-105780581D01*
X50473722Y-105747500D01*
X50473722Y-105072500D01*
X50475347Y-105039419D01*
X50480207Y-105006657D01*
X50488255Y-104974529D01*
X50499413Y-104943344D01*
X50513574Y-104913404D01*
X50530601Y-104884995D01*
X50550331Y-104858392D01*
X50572573Y-104833851D01*
X50597114Y-104811609D01*
X50623717Y-104791879D01*
X50652126Y-104774852D01*
X50682066Y-104760691D01*
X50713251Y-104749533D01*
X50745379Y-104741485D01*
X50778141Y-104736625D01*
X50811222Y-104735000D01*
X51586222Y-104735000D01*
X51619303Y-104736625D01*
X51619303Y-104736625D01*
G37*
D19*
X51198722Y-105410000D03*
D18*
G36*
X49869303Y-104736625D02*
X49902065Y-104741485D01*
X49934193Y-104749533D01*
X49965378Y-104760691D01*
X49995318Y-104774852D01*
X50023727Y-104791879D01*
X50050330Y-104811609D01*
X50074871Y-104833851D01*
X50097113Y-104858392D01*
X50116843Y-104884995D01*
X50133870Y-104913404D01*
X50148031Y-104943344D01*
X50159189Y-104974529D01*
X50167237Y-105006657D01*
X50172097Y-105039419D01*
X50173722Y-105072500D01*
X50173722Y-105747500D01*
X50172097Y-105780581D01*
X50167237Y-105813343D01*
X50159189Y-105845471D01*
X50148031Y-105876656D01*
X50133870Y-105906596D01*
X50116843Y-105935005D01*
X50097113Y-105961608D01*
X50074871Y-105986149D01*
X50050330Y-106008391D01*
X50023727Y-106028121D01*
X49995318Y-106045148D01*
X49965378Y-106059309D01*
X49934193Y-106070467D01*
X49902065Y-106078515D01*
X49869303Y-106083375D01*
X49836222Y-106085000D01*
X49061222Y-106085000D01*
X49028141Y-106083375D01*
X48995379Y-106078515D01*
X48963251Y-106070467D01*
X48932066Y-106059309D01*
X48902126Y-106045148D01*
X48873717Y-106028121D01*
X48847114Y-106008391D01*
X48822573Y-105986149D01*
X48800331Y-105961608D01*
X48780601Y-105935005D01*
X48763574Y-105906596D01*
X48749413Y-105876656D01*
X48738255Y-105845471D01*
X48730207Y-105813343D01*
X48725347Y-105780581D01*
X48723722Y-105747500D01*
X48723722Y-105072500D01*
X48725347Y-105039419D01*
X48730207Y-105006657D01*
X48738255Y-104974529D01*
X48749413Y-104943344D01*
X48763574Y-104913404D01*
X48780601Y-104884995D01*
X48800331Y-104858392D01*
X48822573Y-104833851D01*
X48847114Y-104811609D01*
X48873717Y-104791879D01*
X48902126Y-104774852D01*
X48932066Y-104760691D01*
X48963251Y-104749533D01*
X48995379Y-104741485D01*
X49028141Y-104736625D01*
X49061222Y-104735000D01*
X49836222Y-104735000D01*
X49869303Y-104736625D01*
X49869303Y-104736625D01*
G37*
D19*
X49448722Y-105410000D03*
G04 #@! TD*
M02*
