G04 #@! TF.GenerationSoftware,KiCad,Pcbnew,(5.0.0)*
G04 #@! TF.CreationDate,2019-12-11T16:29:05-06:00*
G04 #@! TF.ProjectId,PatchPanel,506174636850616E656C2E6B69636164,rev?*
G04 #@! TF.SameCoordinates,Original*
G04 #@! TF.FileFunction,Soldermask,Bot*
G04 #@! TF.FilePolarity,Negative*
%FSLAX46Y46*%
G04 Gerber Fmt 4.6, Leading zero omitted, Abs format (unit mm)*
G04 Created by KiCad (PCBNEW (5.0.0)) date 12/11/19 16:29:05*
%MOMM*%
%LPD*%
G01*
G04 APERTURE LIST*
%ADD10C,3.346400*%
%ADD11C,5.480000*%
%ADD12R,1.400000X1.400000*%
%ADD13O,1.400000X1.400000*%
G04 APERTURE END LIST*
D10*
G04 #@! TO.C,REF\002A\002A*
X144780000Y-50800000D03*
G04 #@! TD*
G04 #@! TO.C,REF\002A\002A*
X46837600Y-142367000D03*
G04 #@! TD*
G04 #@! TO.C,REF\002A\002A*
X144780000Y-142494000D03*
G04 #@! TD*
G04 #@! TO.C,REF\002A\002A*
X46990000Y-50800000D03*
G04 #@! TD*
D11*
G04 #@! TO.C,Conn2*
X159511782Y-132416060D03*
X167411782Y-132416060D03*
X175311782Y-132416060D03*
G04 #@! TD*
G04 #@! TO.C,Conn3*
X74631060Y-75513218D03*
X74631060Y-83413218D03*
X74631060Y-91313218D03*
G04 #@! TD*
G04 #@! TO.C,Conn4*
X159791782Y-111461060D03*
X167691782Y-111461060D03*
X175591782Y-111461060D03*
G04 #@! TD*
G04 #@! TO.C,Conn5*
X96221060Y-74878218D03*
X96221060Y-82778218D03*
X96221060Y-90678218D03*
G04 #@! TD*
G04 #@! TO.C,Conn6*
X159385000Y-91585744D03*
X159385000Y-83685744D03*
X159385000Y-75785744D03*
G04 #@! TD*
G04 #@! TO.C,Conn7*
X116541060Y-74878218D03*
X116541060Y-82778218D03*
X116541060Y-90678218D03*
G04 #@! TD*
G04 #@! TO.C,Conn8*
X137496060Y-90551218D03*
X137496060Y-82651218D03*
X137496060Y-74751218D03*
G04 #@! TD*
G04 #@! TO.C,Conn10*
X77470000Y-133350000D03*
X77470000Y-125450000D03*
X77470000Y-117550000D03*
G04 #@! TD*
G04 #@! TO.C,Conn11*
X140970000Y-117221000D03*
X140970000Y-125121000D03*
X140970000Y-133021000D03*
G04 #@! TD*
G04 #@! TO.C,Conn12*
X90170000Y-117475000D03*
X90170000Y-125375000D03*
X90170000Y-133275000D03*
G04 #@! TD*
G04 #@! TO.C,Conn13*
X102870000Y-133021000D03*
X102870000Y-125121000D03*
X102870000Y-117221000D03*
G04 #@! TD*
G04 #@! TO.C,Conn14*
X115570000Y-133021000D03*
X115570000Y-125121000D03*
X115570000Y-117221000D03*
G04 #@! TD*
G04 #@! TO.C,Conn15*
X52070000Y-117221000D03*
X52070000Y-125121000D03*
X52070000Y-133021000D03*
G04 #@! TD*
G04 #@! TO.C,Conn16*
X128270000Y-133083000D03*
X128270000Y-125183000D03*
X128270000Y-117283000D03*
G04 #@! TD*
G04 #@! TO.C,Conn1*
X52163180Y-74979654D03*
X52163180Y-82879654D03*
X52163180Y-90779654D03*
G04 #@! TD*
G04 #@! TO.C,Conn18*
X137160000Y-58166000D03*
X145060000Y-58166000D03*
G04 #@! TD*
G04 #@! TO.C,Conn9*
X54610000Y-58420000D03*
X62510000Y-58420000D03*
G04 #@! TD*
G04 #@! TO.C,Conn17*
X64135000Y-133210000D03*
X64135000Y-125310000D03*
X64135000Y-117410000D03*
G04 #@! TD*
D12*
G04 #@! TO.C,Conn19*
X97155000Y-51435000D03*
D13*
X98425000Y-51435000D03*
X97155000Y-52705000D03*
X98425000Y-52705000D03*
X97155000Y-53975000D03*
X98425000Y-53975000D03*
X97155000Y-55245000D03*
X98425000Y-55245000D03*
X97155000Y-56515000D03*
X98425000Y-56515000D03*
G04 #@! TD*
M02*
