G04 #@! TF.GenerationSoftware,KiCad,Pcbnew,(5.0.0)*
G04 #@! TF.CreationDate,2019-12-11T16:29:05-06:00*
G04 #@! TF.ProjectId,PatchPanel,506174636850616E656C2E6B69636164,rev?*
G04 #@! TF.SameCoordinates,Original*
G04 #@! TF.FileFunction,Legend,Top*
G04 #@! TF.FilePolarity,Positive*
%FSLAX46Y46*%
G04 Gerber Fmt 4.6, Leading zero omitted, Abs format (unit mm)*
G04 Created by KiCad (PCBNEW (5.0.0)) date 12/11/19 16:29:05*
%MOMM*%
%LPD*%
G01*
G04 APERTURE LIST*
%ADD10C,0.300000*%
%ADD11C,0.150000*%
%ADD12C,0.120000*%
G04 APERTURE END LIST*
D10*
X180387857Y-132758571D02*
X180387857Y-131258571D01*
X180959285Y-131258571D01*
X181102142Y-131330000D01*
X181173571Y-131401428D01*
X181245000Y-131544285D01*
X181245000Y-131758571D01*
X181173571Y-131901428D01*
X181102142Y-131972857D01*
X180959285Y-132044285D01*
X180387857Y-132044285D01*
X182387857Y-131972857D02*
X182602142Y-132044285D01*
X182673571Y-132115714D01*
X182745000Y-132258571D01*
X182745000Y-132472857D01*
X182673571Y-132615714D01*
X182602142Y-132687142D01*
X182459285Y-132758571D01*
X181887857Y-132758571D01*
X181887857Y-131258571D01*
X182387857Y-131258571D01*
X182530714Y-131330000D01*
X182602142Y-131401428D01*
X182673571Y-131544285D01*
X182673571Y-131687142D01*
X182602142Y-131830000D01*
X182530714Y-131901428D01*
X182387857Y-131972857D01*
X181887857Y-131972857D01*
X183602142Y-131901428D02*
X183459285Y-131830000D01*
X183387857Y-131758571D01*
X183316428Y-131615714D01*
X183316428Y-131544285D01*
X183387857Y-131401428D01*
X183459285Y-131330000D01*
X183602142Y-131258571D01*
X183887857Y-131258571D01*
X184030714Y-131330000D01*
X184102142Y-131401428D01*
X184173571Y-131544285D01*
X184173571Y-131615714D01*
X184102142Y-131758571D01*
X184030714Y-131830000D01*
X183887857Y-131901428D01*
X183602142Y-131901428D01*
X183459285Y-131972857D01*
X183387857Y-132044285D01*
X183316428Y-132187142D01*
X183316428Y-132472857D01*
X183387857Y-132615714D01*
X183459285Y-132687142D01*
X183602142Y-132758571D01*
X183887857Y-132758571D01*
X184030714Y-132687142D01*
X184102142Y-132615714D01*
X184173571Y-132472857D01*
X184173571Y-132187142D01*
X184102142Y-132044285D01*
X184030714Y-131972857D01*
X183887857Y-131901428D01*
X180387857Y-109898571D02*
X180387857Y-108398571D01*
X180959285Y-108398571D01*
X181102142Y-108470000D01*
X181173571Y-108541428D01*
X181245000Y-108684285D01*
X181245000Y-108898571D01*
X181173571Y-109041428D01*
X181102142Y-109112857D01*
X180959285Y-109184285D01*
X180387857Y-109184285D01*
X182387857Y-109112857D02*
X182602142Y-109184285D01*
X182673571Y-109255714D01*
X182745000Y-109398571D01*
X182745000Y-109612857D01*
X182673571Y-109755714D01*
X182602142Y-109827142D01*
X182459285Y-109898571D01*
X181887857Y-109898571D01*
X181887857Y-108398571D01*
X182387857Y-108398571D01*
X182530714Y-108470000D01*
X182602142Y-108541428D01*
X182673571Y-108684285D01*
X182673571Y-108827142D01*
X182602142Y-108970000D01*
X182530714Y-109041428D01*
X182387857Y-109112857D01*
X181887857Y-109112857D01*
X183245000Y-108398571D02*
X184245000Y-108398571D01*
X183602142Y-109898571D01*
X158162857Y-61638571D02*
X158162857Y-60138571D01*
X158734285Y-60138571D01*
X158877142Y-60210000D01*
X158948571Y-60281428D01*
X159020000Y-60424285D01*
X159020000Y-60638571D01*
X158948571Y-60781428D01*
X158877142Y-60852857D01*
X158734285Y-60924285D01*
X158162857Y-60924285D01*
X160162857Y-60852857D02*
X160377142Y-60924285D01*
X160448571Y-60995714D01*
X160520000Y-61138571D01*
X160520000Y-61352857D01*
X160448571Y-61495714D01*
X160377142Y-61567142D01*
X160234285Y-61638571D01*
X159662857Y-61638571D01*
X159662857Y-60138571D01*
X160162857Y-60138571D01*
X160305714Y-60210000D01*
X160377142Y-60281428D01*
X160448571Y-60424285D01*
X160448571Y-60567142D01*
X160377142Y-60710000D01*
X160305714Y-60781428D01*
X160162857Y-60852857D01*
X159662857Y-60852857D01*
X161805714Y-60138571D02*
X161520000Y-60138571D01*
X161377142Y-60210000D01*
X161305714Y-60281428D01*
X161162857Y-60495714D01*
X161091428Y-60781428D01*
X161091428Y-61352857D01*
X161162857Y-61495714D01*
X161234285Y-61567142D01*
X161377142Y-61638571D01*
X161662857Y-61638571D01*
X161805714Y-61567142D01*
X161877142Y-61495714D01*
X161948571Y-61352857D01*
X161948571Y-60995714D01*
X161877142Y-60852857D01*
X161805714Y-60781428D01*
X161662857Y-60710000D01*
X161377142Y-60710000D01*
X161234285Y-60781428D01*
X161162857Y-60852857D01*
X161091428Y-60995714D01*
X131492857Y-109898571D02*
X131492857Y-108398571D01*
X132064285Y-108398571D01*
X132207142Y-108470000D01*
X132278571Y-108541428D01*
X132350000Y-108684285D01*
X132350000Y-108898571D01*
X132278571Y-109041428D01*
X132207142Y-109112857D01*
X132064285Y-109184285D01*
X131492857Y-109184285D01*
X133492857Y-109112857D02*
X133707142Y-109184285D01*
X133778571Y-109255714D01*
X133850000Y-109398571D01*
X133850000Y-109612857D01*
X133778571Y-109755714D01*
X133707142Y-109827142D01*
X133564285Y-109898571D01*
X132992857Y-109898571D01*
X132992857Y-108398571D01*
X133492857Y-108398571D01*
X133635714Y-108470000D01*
X133707142Y-108541428D01*
X133778571Y-108684285D01*
X133778571Y-108827142D01*
X133707142Y-108970000D01*
X133635714Y-109041428D01*
X133492857Y-109112857D01*
X132992857Y-109112857D01*
X135207142Y-108398571D02*
X134492857Y-108398571D01*
X134421428Y-109112857D01*
X134492857Y-109041428D01*
X134635714Y-108970000D01*
X134992857Y-108970000D01*
X135135714Y-109041428D01*
X135207142Y-109112857D01*
X135278571Y-109255714D01*
X135278571Y-109612857D01*
X135207142Y-109755714D01*
X135135714Y-109827142D01*
X134992857Y-109898571D01*
X134635714Y-109898571D01*
X134492857Y-109827142D01*
X134421428Y-109755714D01*
X112442857Y-109898571D02*
X112442857Y-108398571D01*
X113014285Y-108398571D01*
X113157142Y-108470000D01*
X113228571Y-108541428D01*
X113300000Y-108684285D01*
X113300000Y-108898571D01*
X113228571Y-109041428D01*
X113157142Y-109112857D01*
X113014285Y-109184285D01*
X112442857Y-109184285D01*
X114442857Y-109112857D02*
X114657142Y-109184285D01*
X114728571Y-109255714D01*
X114800000Y-109398571D01*
X114800000Y-109612857D01*
X114728571Y-109755714D01*
X114657142Y-109827142D01*
X114514285Y-109898571D01*
X113942857Y-109898571D01*
X113942857Y-108398571D01*
X114442857Y-108398571D01*
X114585714Y-108470000D01*
X114657142Y-108541428D01*
X114728571Y-108684285D01*
X114728571Y-108827142D01*
X114657142Y-108970000D01*
X114585714Y-109041428D01*
X114442857Y-109112857D01*
X113942857Y-109112857D01*
X116085714Y-108898571D02*
X116085714Y-109898571D01*
X115728571Y-108327142D02*
X115371428Y-109398571D01*
X116300000Y-109398571D01*
X92122857Y-109898571D02*
X92122857Y-108398571D01*
X92694285Y-108398571D01*
X92837142Y-108470000D01*
X92908571Y-108541428D01*
X92980000Y-108684285D01*
X92980000Y-108898571D01*
X92908571Y-109041428D01*
X92837142Y-109112857D01*
X92694285Y-109184285D01*
X92122857Y-109184285D01*
X94122857Y-109112857D02*
X94337142Y-109184285D01*
X94408571Y-109255714D01*
X94480000Y-109398571D01*
X94480000Y-109612857D01*
X94408571Y-109755714D01*
X94337142Y-109827142D01*
X94194285Y-109898571D01*
X93622857Y-109898571D01*
X93622857Y-108398571D01*
X94122857Y-108398571D01*
X94265714Y-108470000D01*
X94337142Y-108541428D01*
X94408571Y-108684285D01*
X94408571Y-108827142D01*
X94337142Y-108970000D01*
X94265714Y-109041428D01*
X94122857Y-109112857D01*
X93622857Y-109112857D01*
X94980000Y-108398571D02*
X95908571Y-108398571D01*
X95408571Y-108970000D01*
X95622857Y-108970000D01*
X95765714Y-109041428D01*
X95837142Y-109112857D01*
X95908571Y-109255714D01*
X95908571Y-109612857D01*
X95837142Y-109755714D01*
X95765714Y-109827142D01*
X95622857Y-109898571D01*
X95194285Y-109898571D01*
X95051428Y-109827142D01*
X94980000Y-109755714D01*
X69262857Y-109898571D02*
X69262857Y-108398571D01*
X69834285Y-108398571D01*
X69977142Y-108470000D01*
X70048571Y-108541428D01*
X70120000Y-108684285D01*
X70120000Y-108898571D01*
X70048571Y-109041428D01*
X69977142Y-109112857D01*
X69834285Y-109184285D01*
X69262857Y-109184285D01*
X71262857Y-109112857D02*
X71477142Y-109184285D01*
X71548571Y-109255714D01*
X71620000Y-109398571D01*
X71620000Y-109612857D01*
X71548571Y-109755714D01*
X71477142Y-109827142D01*
X71334285Y-109898571D01*
X70762857Y-109898571D01*
X70762857Y-108398571D01*
X71262857Y-108398571D01*
X71405714Y-108470000D01*
X71477142Y-108541428D01*
X71548571Y-108684285D01*
X71548571Y-108827142D01*
X71477142Y-108970000D01*
X71405714Y-109041428D01*
X71262857Y-109112857D01*
X70762857Y-109112857D01*
X72191428Y-108541428D02*
X72262857Y-108470000D01*
X72405714Y-108398571D01*
X72762857Y-108398571D01*
X72905714Y-108470000D01*
X72977142Y-108541428D01*
X73048571Y-108684285D01*
X73048571Y-108827142D01*
X72977142Y-109041428D01*
X72120000Y-109898571D01*
X73048571Y-109898571D01*
X50212857Y-109898571D02*
X50212857Y-108398571D01*
X50784285Y-108398571D01*
X50927142Y-108470000D01*
X50998571Y-108541428D01*
X51070000Y-108684285D01*
X51070000Y-108898571D01*
X50998571Y-109041428D01*
X50927142Y-109112857D01*
X50784285Y-109184285D01*
X50212857Y-109184285D01*
X52212857Y-109112857D02*
X52427142Y-109184285D01*
X52498571Y-109255714D01*
X52570000Y-109398571D01*
X52570000Y-109612857D01*
X52498571Y-109755714D01*
X52427142Y-109827142D01*
X52284285Y-109898571D01*
X51712857Y-109898571D01*
X51712857Y-108398571D01*
X52212857Y-108398571D01*
X52355714Y-108470000D01*
X52427142Y-108541428D01*
X52498571Y-108684285D01*
X52498571Y-108827142D01*
X52427142Y-108970000D01*
X52355714Y-109041428D01*
X52212857Y-109112857D01*
X51712857Y-109112857D01*
X53998571Y-109898571D02*
X53141428Y-109898571D01*
X53570000Y-109898571D02*
X53570000Y-108398571D01*
X53427142Y-108612857D01*
X53284285Y-108755714D01*
X53141428Y-108827142D01*
D11*
G04 #@! TO.C,REF\002A\002A*
X148798283Y-50800000D02*
G75*
G03X148798283Y-50800000I-4018283J0D01*
G01*
X50855883Y-142367000D02*
G75*
G03X50855883Y-142367000I-4018283J0D01*
G01*
X148798283Y-142494000D02*
G75*
G03X148798283Y-142494000I-4018283J0D01*
G01*
X51008283Y-50800000D02*
G75*
G03X51008283Y-50800000I-4018283J0D01*
G01*
G04 #@! TO.C,Conn2*
X155561782Y-135516060D02*
X163461782Y-135516060D01*
X156069782Y-133966060D02*
X156069782Y-129394060D01*
X156069782Y-129394060D02*
X155561782Y-129394060D01*
X161833782Y-127108060D02*
X157261782Y-127108060D01*
X155561782Y-127616060D02*
X155561782Y-135516060D01*
X155561782Y-133966060D02*
X156069782Y-133966060D01*
X155561782Y-127616060D02*
X163461782Y-127616060D01*
X157261782Y-127108060D02*
X157261782Y-127616060D01*
X161833782Y-127616060D02*
X161833782Y-127108060D01*
X163969782Y-133966060D02*
X163969782Y-129394060D01*
X163461782Y-127616060D02*
X163461782Y-135516060D01*
X163461782Y-127616060D02*
X171361782Y-127616060D01*
X163461782Y-133966060D02*
X163969782Y-133966060D01*
X163969782Y-129394060D02*
X163461782Y-129394060D01*
X165161782Y-127108060D02*
X165161782Y-127616060D01*
X169733782Y-127108060D02*
X165161782Y-127108060D01*
X163461782Y-135516060D02*
X171361782Y-135516060D01*
X169733782Y-127616060D02*
X169733782Y-127108060D01*
X171362382Y-133966060D02*
X171870382Y-133966060D01*
X171870382Y-129394060D02*
X171362382Y-129394060D01*
X171361782Y-127616060D02*
X171361782Y-135516060D01*
X171870382Y-133966060D02*
X171870382Y-129394060D01*
X179261782Y-127616060D02*
X179261782Y-135516060D01*
X173038782Y-127108060D02*
X173038782Y-127616060D01*
X177610782Y-127108060D02*
X173038782Y-127108060D01*
X177610782Y-127616060D02*
X177610782Y-127108060D01*
X179769782Y-133966060D02*
X179769782Y-129394060D01*
X179769782Y-129394060D02*
X179261782Y-129394060D01*
X179261782Y-133966060D02*
X179769782Y-133966060D01*
X171361782Y-135516060D02*
X179261782Y-135516060D01*
X171361782Y-127616060D02*
X179261782Y-127616060D01*
G04 #@! TO.C,Conn3*
X69831060Y-79463218D02*
X69831060Y-71563218D01*
X77731060Y-79463218D02*
X77731060Y-71563218D01*
X76181060Y-71563218D02*
X76181060Y-71055218D01*
X71609060Y-71055218D02*
X71609060Y-71563218D01*
X76181060Y-71055218D02*
X71609060Y-71055218D01*
X69831060Y-73214218D02*
X69323060Y-73214218D01*
X69323060Y-73214218D02*
X69323060Y-77786218D01*
X69323060Y-77786218D02*
X69831060Y-77786218D01*
X69831060Y-71563218D02*
X77731060Y-71563218D01*
X76181060Y-78954618D02*
X71609060Y-78954618D01*
X69831060Y-79463218D02*
X77731060Y-79463218D01*
X71609060Y-78954618D02*
X71609060Y-79462618D01*
X76181060Y-79462618D02*
X76181060Y-78954618D01*
X69831060Y-81091218D02*
X69323060Y-81091218D01*
X77731060Y-87363218D02*
X77731060Y-79463218D01*
X69323060Y-81091218D02*
X69323060Y-85663218D01*
X69323060Y-85663218D02*
X69831060Y-85663218D01*
X71609060Y-86855218D02*
X71609060Y-87363218D01*
X76181060Y-87363218D02*
X76181060Y-86855218D01*
X69831060Y-87363218D02*
X69831060Y-79463218D01*
X69831060Y-87363218D02*
X77731060Y-87363218D01*
X76181060Y-86855218D02*
X71609060Y-86855218D01*
X69831060Y-88991218D02*
X69323060Y-88991218D01*
X69323060Y-93563218D02*
X69831060Y-93563218D01*
X69831060Y-95263218D02*
X69831060Y-87363218D01*
X76181060Y-95263218D02*
X76181060Y-94755218D01*
X69831060Y-95263218D02*
X77731060Y-95263218D01*
X69323060Y-88991218D02*
X69323060Y-93563218D01*
X71609060Y-94755218D02*
X71609060Y-95263218D01*
X76181060Y-94755218D02*
X71609060Y-94755218D01*
X77731060Y-95263218D02*
X77731060Y-87363218D01*
G04 #@! TO.C,Conn4*
X155841782Y-114561060D02*
X163741782Y-114561060D01*
X156349782Y-113011060D02*
X156349782Y-108439060D01*
X156349782Y-108439060D02*
X155841782Y-108439060D01*
X162113782Y-106153060D02*
X157541782Y-106153060D01*
X155841782Y-106661060D02*
X155841782Y-114561060D01*
X155841782Y-113011060D02*
X156349782Y-113011060D01*
X155841782Y-106661060D02*
X163741782Y-106661060D01*
X157541782Y-106153060D02*
X157541782Y-106661060D01*
X162113782Y-106661060D02*
X162113782Y-106153060D01*
X164249782Y-113011060D02*
X164249782Y-108439060D01*
X163741782Y-106661060D02*
X163741782Y-114561060D01*
X163741782Y-106661060D02*
X171641782Y-106661060D01*
X163741782Y-113011060D02*
X164249782Y-113011060D01*
X164249782Y-108439060D02*
X163741782Y-108439060D01*
X165441782Y-106153060D02*
X165441782Y-106661060D01*
X170013782Y-106153060D02*
X165441782Y-106153060D01*
X163741782Y-114561060D02*
X171641782Y-114561060D01*
X170013782Y-106661060D02*
X170013782Y-106153060D01*
X171642382Y-113011060D02*
X172150382Y-113011060D01*
X172150382Y-108439060D02*
X171642382Y-108439060D01*
X171641782Y-106661060D02*
X171641782Y-114561060D01*
X172150382Y-113011060D02*
X172150382Y-108439060D01*
X179541782Y-106661060D02*
X179541782Y-114561060D01*
X173318782Y-106153060D02*
X173318782Y-106661060D01*
X177890782Y-106153060D02*
X173318782Y-106153060D01*
X177890782Y-106661060D02*
X177890782Y-106153060D01*
X180049782Y-113011060D02*
X180049782Y-108439060D01*
X180049782Y-108439060D02*
X179541782Y-108439060D01*
X179541782Y-113011060D02*
X180049782Y-113011060D01*
X171641782Y-114561060D02*
X179541782Y-114561060D01*
X171641782Y-106661060D02*
X179541782Y-106661060D01*
G04 #@! TO.C,Conn5*
X91421060Y-78828218D02*
X91421060Y-70928218D01*
X99321060Y-78828218D02*
X99321060Y-70928218D01*
X97771060Y-70928218D02*
X97771060Y-70420218D01*
X93199060Y-70420218D02*
X93199060Y-70928218D01*
X97771060Y-70420218D02*
X93199060Y-70420218D01*
X91421060Y-72579218D02*
X90913060Y-72579218D01*
X90913060Y-72579218D02*
X90913060Y-77151218D01*
X90913060Y-77151218D02*
X91421060Y-77151218D01*
X91421060Y-70928218D02*
X99321060Y-70928218D01*
X97771060Y-78319618D02*
X93199060Y-78319618D01*
X91421060Y-78828218D02*
X99321060Y-78828218D01*
X93199060Y-78319618D02*
X93199060Y-78827618D01*
X97771060Y-78827618D02*
X97771060Y-78319618D01*
X91421060Y-80456218D02*
X90913060Y-80456218D01*
X99321060Y-86728218D02*
X99321060Y-78828218D01*
X90913060Y-80456218D02*
X90913060Y-85028218D01*
X90913060Y-85028218D02*
X91421060Y-85028218D01*
X93199060Y-86220218D02*
X93199060Y-86728218D01*
X97771060Y-86728218D02*
X97771060Y-86220218D01*
X91421060Y-86728218D02*
X91421060Y-78828218D01*
X91421060Y-86728218D02*
X99321060Y-86728218D01*
X97771060Y-86220218D02*
X93199060Y-86220218D01*
X91421060Y-88356218D02*
X90913060Y-88356218D01*
X90913060Y-92928218D02*
X91421060Y-92928218D01*
X91421060Y-94628218D02*
X91421060Y-86728218D01*
X97771060Y-94628218D02*
X97771060Y-94120218D01*
X91421060Y-94628218D02*
X99321060Y-94628218D01*
X90913060Y-88356218D02*
X90913060Y-92928218D01*
X93199060Y-94120218D02*
X93199060Y-94628218D01*
X97771060Y-94120218D02*
X93199060Y-94120218D01*
X99321060Y-94628218D02*
X99321060Y-86728218D01*
G04 #@! TO.C,Conn6*
X162485000Y-95535744D02*
X162485000Y-87635744D01*
X160935000Y-95027744D02*
X156363000Y-95027744D01*
X156363000Y-95027744D02*
X156363000Y-95535744D01*
X154077000Y-89263744D02*
X154077000Y-93835744D01*
X154585000Y-95535744D02*
X162485000Y-95535744D01*
X160935000Y-95535744D02*
X160935000Y-95027744D01*
X154585000Y-95535744D02*
X154585000Y-87635744D01*
X154077000Y-93835744D02*
X154585000Y-93835744D01*
X154585000Y-89263744D02*
X154077000Y-89263744D01*
X160935000Y-87127744D02*
X156363000Y-87127744D01*
X154585000Y-87635744D02*
X162485000Y-87635744D01*
X154585000Y-87635744D02*
X154585000Y-79735744D01*
X160935000Y-87635744D02*
X160935000Y-87127744D01*
X156363000Y-87127744D02*
X156363000Y-87635744D01*
X154077000Y-85935744D02*
X154585000Y-85935744D01*
X154077000Y-81363744D02*
X154077000Y-85935744D01*
X162485000Y-87635744D02*
X162485000Y-79735744D01*
X154585000Y-81363744D02*
X154077000Y-81363744D01*
X160935000Y-79735144D02*
X160935000Y-79227144D01*
X156363000Y-79227144D02*
X156363000Y-79735144D01*
X154585000Y-79735744D02*
X162485000Y-79735744D01*
X160935000Y-79227144D02*
X156363000Y-79227144D01*
X154585000Y-71835744D02*
X162485000Y-71835744D01*
X154077000Y-78058744D02*
X154585000Y-78058744D01*
X154077000Y-73486744D02*
X154077000Y-78058744D01*
X154585000Y-73486744D02*
X154077000Y-73486744D01*
X160935000Y-71327744D02*
X156363000Y-71327744D01*
X156363000Y-71327744D02*
X156363000Y-71835744D01*
X160935000Y-71835744D02*
X160935000Y-71327744D01*
X162485000Y-79735744D02*
X162485000Y-71835744D01*
X154585000Y-79735744D02*
X154585000Y-71835744D01*
G04 #@! TO.C,Conn7*
X111741060Y-78828218D02*
X111741060Y-70928218D01*
X119641060Y-78828218D02*
X119641060Y-70928218D01*
X118091060Y-70928218D02*
X118091060Y-70420218D01*
X113519060Y-70420218D02*
X113519060Y-70928218D01*
X118091060Y-70420218D02*
X113519060Y-70420218D01*
X111741060Y-72579218D02*
X111233060Y-72579218D01*
X111233060Y-72579218D02*
X111233060Y-77151218D01*
X111233060Y-77151218D02*
X111741060Y-77151218D01*
X111741060Y-70928218D02*
X119641060Y-70928218D01*
X118091060Y-78319618D02*
X113519060Y-78319618D01*
X111741060Y-78828218D02*
X119641060Y-78828218D01*
X113519060Y-78319618D02*
X113519060Y-78827618D01*
X118091060Y-78827618D02*
X118091060Y-78319618D01*
X111741060Y-80456218D02*
X111233060Y-80456218D01*
X119641060Y-86728218D02*
X119641060Y-78828218D01*
X111233060Y-80456218D02*
X111233060Y-85028218D01*
X111233060Y-85028218D02*
X111741060Y-85028218D01*
X113519060Y-86220218D02*
X113519060Y-86728218D01*
X118091060Y-86728218D02*
X118091060Y-86220218D01*
X111741060Y-86728218D02*
X111741060Y-78828218D01*
X111741060Y-86728218D02*
X119641060Y-86728218D01*
X118091060Y-86220218D02*
X113519060Y-86220218D01*
X111741060Y-88356218D02*
X111233060Y-88356218D01*
X111233060Y-92928218D02*
X111741060Y-92928218D01*
X111741060Y-94628218D02*
X111741060Y-86728218D01*
X118091060Y-94628218D02*
X118091060Y-94120218D01*
X111741060Y-94628218D02*
X119641060Y-94628218D01*
X111233060Y-88356218D02*
X111233060Y-92928218D01*
X113519060Y-94120218D02*
X113519060Y-94628218D01*
X118091060Y-94120218D02*
X113519060Y-94120218D01*
X119641060Y-94628218D02*
X119641060Y-86728218D01*
G04 #@! TO.C,Conn8*
X140596060Y-94501218D02*
X140596060Y-86601218D01*
X139046060Y-93993218D02*
X134474060Y-93993218D01*
X134474060Y-93993218D02*
X134474060Y-94501218D01*
X132188060Y-88229218D02*
X132188060Y-92801218D01*
X132696060Y-94501218D02*
X140596060Y-94501218D01*
X139046060Y-94501218D02*
X139046060Y-93993218D01*
X132696060Y-94501218D02*
X132696060Y-86601218D01*
X132188060Y-92801218D02*
X132696060Y-92801218D01*
X132696060Y-88229218D02*
X132188060Y-88229218D01*
X139046060Y-86093218D02*
X134474060Y-86093218D01*
X132696060Y-86601218D02*
X140596060Y-86601218D01*
X132696060Y-86601218D02*
X132696060Y-78701218D01*
X139046060Y-86601218D02*
X139046060Y-86093218D01*
X134474060Y-86093218D02*
X134474060Y-86601218D01*
X132188060Y-84901218D02*
X132696060Y-84901218D01*
X132188060Y-80329218D02*
X132188060Y-84901218D01*
X140596060Y-86601218D02*
X140596060Y-78701218D01*
X132696060Y-80329218D02*
X132188060Y-80329218D01*
X139046060Y-78700618D02*
X139046060Y-78192618D01*
X134474060Y-78192618D02*
X134474060Y-78700618D01*
X132696060Y-78701218D02*
X140596060Y-78701218D01*
X139046060Y-78192618D02*
X134474060Y-78192618D01*
X132696060Y-70801218D02*
X140596060Y-70801218D01*
X132188060Y-77024218D02*
X132696060Y-77024218D01*
X132188060Y-72452218D02*
X132188060Y-77024218D01*
X132696060Y-72452218D02*
X132188060Y-72452218D01*
X139046060Y-70293218D02*
X134474060Y-70293218D01*
X134474060Y-70293218D02*
X134474060Y-70801218D01*
X139046060Y-70801218D02*
X139046060Y-70293218D01*
X140596060Y-78701218D02*
X140596060Y-70801218D01*
X132696060Y-78701218D02*
X132696060Y-70801218D01*
G04 #@! TO.C,Conn10*
X82270000Y-129400000D02*
X82270000Y-137300000D01*
X74370000Y-129400000D02*
X74370000Y-137300000D01*
X75920000Y-137300000D02*
X75920000Y-137808000D01*
X80492000Y-137808000D02*
X80492000Y-137300000D01*
X75920000Y-137808000D02*
X80492000Y-137808000D01*
X82270000Y-135649000D02*
X82778000Y-135649000D01*
X82778000Y-135649000D02*
X82778000Y-131077000D01*
X82778000Y-131077000D02*
X82270000Y-131077000D01*
X82270000Y-137300000D02*
X74370000Y-137300000D01*
X75920000Y-129908600D02*
X80492000Y-129908600D01*
X82270000Y-129400000D02*
X74370000Y-129400000D01*
X80492000Y-129908600D02*
X80492000Y-129400600D01*
X75920000Y-129400600D02*
X75920000Y-129908600D01*
X82270000Y-127772000D02*
X82778000Y-127772000D01*
X74370000Y-121500000D02*
X74370000Y-129400000D01*
X82778000Y-127772000D02*
X82778000Y-123200000D01*
X82778000Y-123200000D02*
X82270000Y-123200000D01*
X80492000Y-122008000D02*
X80492000Y-121500000D01*
X75920000Y-121500000D02*
X75920000Y-122008000D01*
X82270000Y-121500000D02*
X82270000Y-129400000D01*
X82270000Y-121500000D02*
X74370000Y-121500000D01*
X75920000Y-122008000D02*
X80492000Y-122008000D01*
X82270000Y-119872000D02*
X82778000Y-119872000D01*
X82778000Y-115300000D02*
X82270000Y-115300000D01*
X82270000Y-113600000D02*
X82270000Y-121500000D01*
X75920000Y-113600000D02*
X75920000Y-114108000D01*
X82270000Y-113600000D02*
X74370000Y-113600000D01*
X82778000Y-119872000D02*
X82778000Y-115300000D01*
X80492000Y-114108000D02*
X80492000Y-113600000D01*
X75920000Y-114108000D02*
X80492000Y-114108000D01*
X74370000Y-113600000D02*
X74370000Y-121500000D01*
G04 #@! TO.C,Conn11*
X137870000Y-113271000D02*
X137870000Y-121171000D01*
X139420000Y-113779000D02*
X143992000Y-113779000D01*
X143992000Y-113779000D02*
X143992000Y-113271000D01*
X146278000Y-119543000D02*
X146278000Y-114971000D01*
X145770000Y-113271000D02*
X137870000Y-113271000D01*
X139420000Y-113271000D02*
X139420000Y-113779000D01*
X145770000Y-113271000D02*
X145770000Y-121171000D01*
X146278000Y-114971000D02*
X145770000Y-114971000D01*
X145770000Y-119543000D02*
X146278000Y-119543000D01*
X139420000Y-121679000D02*
X143992000Y-121679000D01*
X145770000Y-121171000D02*
X137870000Y-121171000D01*
X145770000Y-121171000D02*
X145770000Y-129071000D01*
X139420000Y-121171000D02*
X139420000Y-121679000D01*
X143992000Y-121679000D02*
X143992000Y-121171000D01*
X146278000Y-122871000D02*
X145770000Y-122871000D01*
X146278000Y-127443000D02*
X146278000Y-122871000D01*
X137870000Y-121171000D02*
X137870000Y-129071000D01*
X145770000Y-127443000D02*
X146278000Y-127443000D01*
X139420000Y-129071600D02*
X139420000Y-129579600D01*
X143992000Y-129579600D02*
X143992000Y-129071600D01*
X145770000Y-129071000D02*
X137870000Y-129071000D01*
X139420000Y-129579600D02*
X143992000Y-129579600D01*
X145770000Y-136971000D02*
X137870000Y-136971000D01*
X146278000Y-130748000D02*
X145770000Y-130748000D01*
X146278000Y-135320000D02*
X146278000Y-130748000D01*
X145770000Y-135320000D02*
X146278000Y-135320000D01*
X139420000Y-137479000D02*
X143992000Y-137479000D01*
X143992000Y-137479000D02*
X143992000Y-136971000D01*
X139420000Y-136971000D02*
X139420000Y-137479000D01*
X137870000Y-129071000D02*
X137870000Y-136971000D01*
X145770000Y-129071000D02*
X145770000Y-136971000D01*
G04 #@! TO.C,Conn12*
X87070000Y-113525000D02*
X87070000Y-121425000D01*
X88620000Y-114033000D02*
X93192000Y-114033000D01*
X93192000Y-114033000D02*
X93192000Y-113525000D01*
X95478000Y-119797000D02*
X95478000Y-115225000D01*
X94970000Y-113525000D02*
X87070000Y-113525000D01*
X88620000Y-113525000D02*
X88620000Y-114033000D01*
X94970000Y-113525000D02*
X94970000Y-121425000D01*
X95478000Y-115225000D02*
X94970000Y-115225000D01*
X94970000Y-119797000D02*
X95478000Y-119797000D01*
X88620000Y-121933000D02*
X93192000Y-121933000D01*
X94970000Y-121425000D02*
X87070000Y-121425000D01*
X94970000Y-121425000D02*
X94970000Y-129325000D01*
X88620000Y-121425000D02*
X88620000Y-121933000D01*
X93192000Y-121933000D02*
X93192000Y-121425000D01*
X95478000Y-123125000D02*
X94970000Y-123125000D01*
X95478000Y-127697000D02*
X95478000Y-123125000D01*
X87070000Y-121425000D02*
X87070000Y-129325000D01*
X94970000Y-127697000D02*
X95478000Y-127697000D01*
X88620000Y-129325600D02*
X88620000Y-129833600D01*
X93192000Y-129833600D02*
X93192000Y-129325600D01*
X94970000Y-129325000D02*
X87070000Y-129325000D01*
X88620000Y-129833600D02*
X93192000Y-129833600D01*
X94970000Y-137225000D02*
X87070000Y-137225000D01*
X95478000Y-131002000D02*
X94970000Y-131002000D01*
X95478000Y-135574000D02*
X95478000Y-131002000D01*
X94970000Y-135574000D02*
X95478000Y-135574000D01*
X88620000Y-137733000D02*
X93192000Y-137733000D01*
X93192000Y-137733000D02*
X93192000Y-137225000D01*
X88620000Y-137225000D02*
X88620000Y-137733000D01*
X87070000Y-129325000D02*
X87070000Y-137225000D01*
X94970000Y-129325000D02*
X94970000Y-137225000D01*
G04 #@! TO.C,Conn13*
X107670000Y-129071000D02*
X107670000Y-136971000D01*
X99770000Y-129071000D02*
X99770000Y-136971000D01*
X101320000Y-136971000D02*
X101320000Y-137479000D01*
X105892000Y-137479000D02*
X105892000Y-136971000D01*
X101320000Y-137479000D02*
X105892000Y-137479000D01*
X107670000Y-135320000D02*
X108178000Y-135320000D01*
X108178000Y-135320000D02*
X108178000Y-130748000D01*
X108178000Y-130748000D02*
X107670000Y-130748000D01*
X107670000Y-136971000D02*
X99770000Y-136971000D01*
X101320000Y-129579600D02*
X105892000Y-129579600D01*
X107670000Y-129071000D02*
X99770000Y-129071000D01*
X105892000Y-129579600D02*
X105892000Y-129071600D01*
X101320000Y-129071600D02*
X101320000Y-129579600D01*
X107670000Y-127443000D02*
X108178000Y-127443000D01*
X99770000Y-121171000D02*
X99770000Y-129071000D01*
X108178000Y-127443000D02*
X108178000Y-122871000D01*
X108178000Y-122871000D02*
X107670000Y-122871000D01*
X105892000Y-121679000D02*
X105892000Y-121171000D01*
X101320000Y-121171000D02*
X101320000Y-121679000D01*
X107670000Y-121171000D02*
X107670000Y-129071000D01*
X107670000Y-121171000D02*
X99770000Y-121171000D01*
X101320000Y-121679000D02*
X105892000Y-121679000D01*
X107670000Y-119543000D02*
X108178000Y-119543000D01*
X108178000Y-114971000D02*
X107670000Y-114971000D01*
X107670000Y-113271000D02*
X107670000Y-121171000D01*
X101320000Y-113271000D02*
X101320000Y-113779000D01*
X107670000Y-113271000D02*
X99770000Y-113271000D01*
X108178000Y-119543000D02*
X108178000Y-114971000D01*
X105892000Y-113779000D02*
X105892000Y-113271000D01*
X101320000Y-113779000D02*
X105892000Y-113779000D01*
X99770000Y-113271000D02*
X99770000Y-121171000D01*
G04 #@! TO.C,Conn14*
X120370000Y-129071000D02*
X120370000Y-136971000D01*
X112470000Y-129071000D02*
X112470000Y-136971000D01*
X114020000Y-136971000D02*
X114020000Y-137479000D01*
X118592000Y-137479000D02*
X118592000Y-136971000D01*
X114020000Y-137479000D02*
X118592000Y-137479000D01*
X120370000Y-135320000D02*
X120878000Y-135320000D01*
X120878000Y-135320000D02*
X120878000Y-130748000D01*
X120878000Y-130748000D02*
X120370000Y-130748000D01*
X120370000Y-136971000D02*
X112470000Y-136971000D01*
X114020000Y-129579600D02*
X118592000Y-129579600D01*
X120370000Y-129071000D02*
X112470000Y-129071000D01*
X118592000Y-129579600D02*
X118592000Y-129071600D01*
X114020000Y-129071600D02*
X114020000Y-129579600D01*
X120370000Y-127443000D02*
X120878000Y-127443000D01*
X112470000Y-121171000D02*
X112470000Y-129071000D01*
X120878000Y-127443000D02*
X120878000Y-122871000D01*
X120878000Y-122871000D02*
X120370000Y-122871000D01*
X118592000Y-121679000D02*
X118592000Y-121171000D01*
X114020000Y-121171000D02*
X114020000Y-121679000D01*
X120370000Y-121171000D02*
X120370000Y-129071000D01*
X120370000Y-121171000D02*
X112470000Y-121171000D01*
X114020000Y-121679000D02*
X118592000Y-121679000D01*
X120370000Y-119543000D02*
X120878000Y-119543000D01*
X120878000Y-114971000D02*
X120370000Y-114971000D01*
X120370000Y-113271000D02*
X120370000Y-121171000D01*
X114020000Y-113271000D02*
X114020000Y-113779000D01*
X120370000Y-113271000D02*
X112470000Y-113271000D01*
X120878000Y-119543000D02*
X120878000Y-114971000D01*
X118592000Y-113779000D02*
X118592000Y-113271000D01*
X114020000Y-113779000D02*
X118592000Y-113779000D01*
X112470000Y-113271000D02*
X112470000Y-121171000D01*
G04 #@! TO.C,Conn15*
X48970000Y-113271000D02*
X48970000Y-121171000D01*
X50520000Y-113779000D02*
X55092000Y-113779000D01*
X55092000Y-113779000D02*
X55092000Y-113271000D01*
X57378000Y-119543000D02*
X57378000Y-114971000D01*
X56870000Y-113271000D02*
X48970000Y-113271000D01*
X50520000Y-113271000D02*
X50520000Y-113779000D01*
X56870000Y-113271000D02*
X56870000Y-121171000D01*
X57378000Y-114971000D02*
X56870000Y-114971000D01*
X56870000Y-119543000D02*
X57378000Y-119543000D01*
X50520000Y-121679000D02*
X55092000Y-121679000D01*
X56870000Y-121171000D02*
X48970000Y-121171000D01*
X56870000Y-121171000D02*
X56870000Y-129071000D01*
X50520000Y-121171000D02*
X50520000Y-121679000D01*
X55092000Y-121679000D02*
X55092000Y-121171000D01*
X57378000Y-122871000D02*
X56870000Y-122871000D01*
X57378000Y-127443000D02*
X57378000Y-122871000D01*
X48970000Y-121171000D02*
X48970000Y-129071000D01*
X56870000Y-127443000D02*
X57378000Y-127443000D01*
X50520000Y-129071600D02*
X50520000Y-129579600D01*
X55092000Y-129579600D02*
X55092000Y-129071600D01*
X56870000Y-129071000D02*
X48970000Y-129071000D01*
X50520000Y-129579600D02*
X55092000Y-129579600D01*
X56870000Y-136971000D02*
X48970000Y-136971000D01*
X57378000Y-130748000D02*
X56870000Y-130748000D01*
X57378000Y-135320000D02*
X57378000Y-130748000D01*
X56870000Y-135320000D02*
X57378000Y-135320000D01*
X50520000Y-137479000D02*
X55092000Y-137479000D01*
X55092000Y-137479000D02*
X55092000Y-136971000D01*
X50520000Y-136971000D02*
X50520000Y-137479000D01*
X48970000Y-129071000D02*
X48970000Y-136971000D01*
X56870000Y-129071000D02*
X56870000Y-136971000D01*
G04 #@! TO.C,Conn16*
X133070000Y-129133000D02*
X133070000Y-137033000D01*
X125170000Y-129133000D02*
X125170000Y-137033000D01*
X126720000Y-137033000D02*
X126720000Y-137541000D01*
X131292000Y-137541000D02*
X131292000Y-137033000D01*
X126720000Y-137541000D02*
X131292000Y-137541000D01*
X133070000Y-135382000D02*
X133578000Y-135382000D01*
X133578000Y-135382000D02*
X133578000Y-130810000D01*
X133578000Y-130810000D02*
X133070000Y-130810000D01*
X133070000Y-137033000D02*
X125170000Y-137033000D01*
X126720000Y-129641600D02*
X131292000Y-129641600D01*
X133070000Y-129133000D02*
X125170000Y-129133000D01*
X131292000Y-129641600D02*
X131292000Y-129133600D01*
X126720000Y-129133600D02*
X126720000Y-129641600D01*
X133070000Y-127505000D02*
X133578000Y-127505000D01*
X125170000Y-121233000D02*
X125170000Y-129133000D01*
X133578000Y-127505000D02*
X133578000Y-122933000D01*
X133578000Y-122933000D02*
X133070000Y-122933000D01*
X131292000Y-121741000D02*
X131292000Y-121233000D01*
X126720000Y-121233000D02*
X126720000Y-121741000D01*
X133070000Y-121233000D02*
X133070000Y-129133000D01*
X133070000Y-121233000D02*
X125170000Y-121233000D01*
X126720000Y-121741000D02*
X131292000Y-121741000D01*
X133070000Y-119605000D02*
X133578000Y-119605000D01*
X133578000Y-115033000D02*
X133070000Y-115033000D01*
X133070000Y-113333000D02*
X133070000Y-121233000D01*
X126720000Y-113333000D02*
X126720000Y-113841000D01*
X133070000Y-113333000D02*
X125170000Y-113333000D01*
X133578000Y-119605000D02*
X133578000Y-115033000D01*
X131292000Y-113841000D02*
X131292000Y-113333000D01*
X126720000Y-113841000D02*
X131292000Y-113841000D01*
X125170000Y-113333000D02*
X125170000Y-121233000D01*
D12*
G04 #@! TO.C,Q1*
X58238180Y-94204654D02*
X58238180Y-95704654D01*
X58238180Y-95704654D02*
X58508180Y-95704654D01*
X58508180Y-95704654D02*
X58508180Y-98534654D01*
X65138180Y-94204654D02*
X65138180Y-95704654D01*
X65138180Y-95704654D02*
X64868180Y-95704654D01*
X64868180Y-95704654D02*
X64868180Y-96804654D01*
G04 #@! TO.C,Q2*
X58508180Y-77869654D02*
X58508180Y-76769654D01*
X58238180Y-77869654D02*
X58508180Y-77869654D01*
X58238180Y-79369654D02*
X58238180Y-77869654D01*
X64868180Y-77869654D02*
X64868180Y-75039654D01*
X65138180Y-77869654D02*
X64868180Y-77869654D01*
X65138180Y-79369654D02*
X65138180Y-77869654D01*
G04 #@! TO.C,Q3*
X52665000Y-101490000D02*
X54075000Y-101490000D01*
X54075000Y-99170000D02*
X51340000Y-99170000D01*
X54075000Y-99160000D02*
X54075000Y-99830000D01*
X54075000Y-100830000D02*
X54075000Y-101490000D01*
G04 #@! TO.C,Q4*
X64235000Y-69080000D02*
X64235000Y-69740000D01*
X64235000Y-67410000D02*
X64235000Y-68080000D01*
X64235000Y-67420000D02*
X61500000Y-67420000D01*
X62825000Y-69740000D02*
X64235000Y-69740000D01*
G04 #@! TO.C,Q5*
X156086782Y-137856060D02*
X154586782Y-137856060D01*
X154586782Y-137856060D02*
X154586782Y-138126060D01*
X154586782Y-138126060D02*
X151756782Y-138126060D01*
X156086782Y-144756060D02*
X154586782Y-144756060D01*
X154586782Y-144756060D02*
X154586782Y-144486060D01*
X154586782Y-144486060D02*
X153486782Y-144486060D01*
G04 #@! TO.C,Q6*
X172616782Y-138126060D02*
X173716782Y-138126060D01*
X172616782Y-137856060D02*
X172616782Y-138126060D01*
X171116782Y-137856060D02*
X172616782Y-137856060D01*
X172616782Y-144486060D02*
X175446782Y-144486060D01*
X172616782Y-144756060D02*
X172616782Y-144486060D01*
X171116782Y-144756060D02*
X172616782Y-144756060D01*
G04 #@! TO.C,Q7*
X150590000Y-129560000D02*
X150590000Y-130970000D01*
X152910000Y-130970000D02*
X152910000Y-128235000D01*
X152920000Y-130970000D02*
X152250000Y-130970000D01*
X151250000Y-130970000D02*
X150590000Y-130970000D01*
G04 #@! TO.C,Q8*
X181183940Y-144761060D02*
X180523940Y-144761060D01*
X182853940Y-144761060D02*
X182183940Y-144761060D01*
X182843940Y-144761060D02*
X182843940Y-142026060D01*
X180523940Y-143351060D02*
X180523940Y-144761060D01*
G04 #@! TO.C,Q9*
X80071060Y-94103218D02*
X80071060Y-95603218D01*
X80071060Y-95603218D02*
X80341060Y-95603218D01*
X80341060Y-95603218D02*
X80341060Y-98433218D01*
X86971060Y-94103218D02*
X86971060Y-95603218D01*
X86971060Y-95603218D02*
X86701060Y-95603218D01*
X86701060Y-95603218D02*
X86701060Y-96703218D01*
G04 #@! TO.C,Q10*
X80086060Y-77803218D02*
X80086060Y-76703218D01*
X79816060Y-77803218D02*
X80086060Y-77803218D01*
X79816060Y-79303218D02*
X79816060Y-77803218D01*
X86446060Y-77803218D02*
X86446060Y-74973218D01*
X86716060Y-77803218D02*
X86446060Y-77803218D01*
X86716060Y-79303218D02*
X86716060Y-77803218D01*
G04 #@! TO.C,Q11*
X73045000Y-102140000D02*
X74455000Y-102140000D01*
X74455000Y-99820000D02*
X71720000Y-99820000D01*
X74455000Y-99810000D02*
X74455000Y-100480000D01*
X74455000Y-101480000D02*
X74455000Y-102140000D01*
G04 #@! TO.C,Q12*
X87035000Y-69715000D02*
X87035000Y-70375000D01*
X87035000Y-68045000D02*
X87035000Y-68715000D01*
X87035000Y-68055000D02*
X84300000Y-68055000D01*
X85625000Y-70375000D02*
X87035000Y-70375000D01*
G04 #@! TO.C,Q13*
X156086782Y-116901060D02*
X154586782Y-116901060D01*
X154586782Y-116901060D02*
X154586782Y-117171060D01*
X154586782Y-117171060D02*
X151756782Y-117171060D01*
X156086782Y-123801060D02*
X154586782Y-123801060D01*
X154586782Y-123801060D02*
X154586782Y-123531060D01*
X154586782Y-123531060D02*
X153486782Y-123531060D01*
G04 #@! TO.C,Q14*
X172386782Y-117171060D02*
X173486782Y-117171060D01*
X172386782Y-116901060D02*
X172386782Y-117171060D01*
X170886782Y-116901060D02*
X172386782Y-116901060D01*
X172386782Y-123531060D02*
X175216782Y-123531060D01*
X172386782Y-123801060D02*
X172386782Y-123531060D01*
X170886782Y-123801060D02*
X172386782Y-123801060D01*
G04 #@! TO.C,Q15*
X148090000Y-114340000D02*
X147430000Y-114340000D01*
X149760000Y-114340000D02*
X149090000Y-114340000D01*
X149750000Y-114340000D02*
X149750000Y-111605000D01*
X147430000Y-112930000D02*
X147430000Y-114340000D01*
G04 #@! TO.C,Q16*
X180450000Y-122515000D02*
X180450000Y-123925000D01*
X182770000Y-123925000D02*
X182770000Y-121190000D01*
X182780000Y-123925000D02*
X182110000Y-123925000D01*
X181110000Y-123925000D02*
X180450000Y-123925000D01*
G04 #@! TO.C,Q17*
X101661060Y-94103218D02*
X101661060Y-95603218D01*
X101661060Y-95603218D02*
X101931060Y-95603218D01*
X101931060Y-95603218D02*
X101931060Y-98433218D01*
X108561060Y-94103218D02*
X108561060Y-95603218D01*
X108561060Y-95603218D02*
X108291060Y-95603218D01*
X108291060Y-95603218D02*
X108291060Y-96703218D01*
G04 #@! TO.C,Q18*
X108561060Y-79708218D02*
X108561060Y-78208218D01*
X108561060Y-78208218D02*
X108291060Y-78208218D01*
X108291060Y-78208218D02*
X108291060Y-75378218D01*
X101661060Y-79708218D02*
X101661060Y-78208218D01*
X101661060Y-78208218D02*
X101931060Y-78208218D01*
X101931060Y-78208218D02*
X101931060Y-77108218D01*
G04 #@! TO.C,Q19*
X95985000Y-101465000D02*
X95985000Y-102125000D01*
X95985000Y-99795000D02*
X95985000Y-100465000D01*
X95985000Y-99805000D02*
X93250000Y-99805000D01*
X94575000Y-102125000D02*
X95985000Y-102125000D01*
G04 #@! TO.C,Q20*
X106700000Y-70390000D02*
X108110000Y-70390000D01*
X108110000Y-68070000D02*
X105375000Y-68070000D01*
X108110000Y-68060000D02*
X108110000Y-68730000D01*
X108110000Y-69730000D02*
X108110000Y-70390000D01*
G04 #@! TO.C,Q21*
X170141060Y-96510744D02*
X170141060Y-97610744D01*
X170411060Y-96510744D02*
X170141060Y-96510744D01*
X170411060Y-95010744D02*
X170411060Y-96510744D01*
X163781060Y-96510744D02*
X163781060Y-99340744D01*
X163511060Y-96510744D02*
X163781060Y-96510744D01*
X163511060Y-95010744D02*
X163511060Y-96510744D01*
G04 #@! TO.C,Q22*
X163906060Y-79345744D02*
X163906060Y-78245744D01*
X163636060Y-79345744D02*
X163906060Y-79345744D01*
X163636060Y-80845744D02*
X163636060Y-79345744D01*
X170266060Y-79345744D02*
X170266060Y-76515744D01*
X170536060Y-79345744D02*
X170266060Y-79345744D01*
X170536060Y-80845744D02*
X170536060Y-79345744D01*
G04 #@! TO.C,Q23*
X153710000Y-98290000D02*
X153710000Y-98950000D01*
X153710000Y-96620000D02*
X153710000Y-97290000D01*
X153710000Y-96630000D02*
X150975000Y-96630000D01*
X152300000Y-98950000D02*
X153710000Y-98950000D01*
G04 #@! TO.C,Q24*
X168175000Y-69120000D02*
X169585000Y-69120000D01*
X169585000Y-66800000D02*
X166850000Y-66800000D01*
X169585000Y-66790000D02*
X169585000Y-67460000D01*
X169585000Y-68460000D02*
X169585000Y-69120000D01*
G04 #@! TO.C,Q25*
X121981060Y-93976218D02*
X121981060Y-95476218D01*
X121981060Y-95476218D02*
X122251060Y-95476218D01*
X122251060Y-95476218D02*
X122251060Y-98306218D01*
X128881060Y-93976218D02*
X128881060Y-95476218D01*
X128881060Y-95476218D02*
X128611060Y-95476218D01*
X128611060Y-95476218D02*
X128611060Y-96576218D01*
G04 #@! TO.C,Q26*
X128881060Y-79708218D02*
X128881060Y-78208218D01*
X128881060Y-78208218D02*
X128611060Y-78208218D01*
X128611060Y-78208218D02*
X128611060Y-75378218D01*
X121981060Y-79708218D02*
X121981060Y-78208218D01*
X121981060Y-78208218D02*
X122251060Y-78208218D01*
X122251060Y-78208218D02*
X122251060Y-77108218D01*
G04 #@! TO.C,Q27*
X116305000Y-101465000D02*
X116305000Y-102125000D01*
X116305000Y-99795000D02*
X116305000Y-100465000D01*
X116305000Y-99805000D02*
X113570000Y-99805000D01*
X114895000Y-102125000D02*
X116305000Y-102125000D01*
G04 #@! TO.C,Q28*
X126960000Y-71010000D02*
X128370000Y-71010000D01*
X128370000Y-68690000D02*
X125635000Y-68690000D01*
X128370000Y-68680000D02*
X128370000Y-69350000D01*
X128370000Y-70350000D02*
X128370000Y-71010000D01*
G04 #@! TO.C,Q29*
X149566060Y-95071218D02*
X149566060Y-96171218D01*
X149836060Y-95071218D02*
X149566060Y-95071218D01*
X149836060Y-93571218D02*
X149836060Y-95071218D01*
X143206060Y-95071218D02*
X143206060Y-97901218D01*
X142936060Y-95071218D02*
X143206060Y-95071218D01*
X142936060Y-93571218D02*
X142936060Y-95071218D01*
G04 #@! TO.C,Q30*
X143461060Y-77851218D02*
X143461060Y-76751218D01*
X143191060Y-77851218D02*
X143461060Y-77851218D01*
X143191060Y-79351218D02*
X143191060Y-77851218D01*
X149821060Y-77851218D02*
X149821060Y-75021218D01*
X150091060Y-77851218D02*
X149821060Y-77851218D01*
X150091060Y-79351218D02*
X150091060Y-77851218D01*
G04 #@! TO.C,Q31*
X137260000Y-100195000D02*
X137260000Y-100855000D01*
X137260000Y-98525000D02*
X137260000Y-99195000D01*
X137260000Y-98535000D02*
X134525000Y-98535000D01*
X135850000Y-100855000D02*
X137260000Y-100855000D01*
G04 #@! TO.C,Q32*
X147915000Y-69740000D02*
X149325000Y-69740000D01*
X149325000Y-67420000D02*
X146590000Y-67420000D01*
X149325000Y-67410000D02*
X149325000Y-68080000D01*
X149325000Y-69080000D02*
X149325000Y-69740000D01*
G04 #@! TO.C,R1*
X63088733Y-101169654D02*
X63431267Y-101169654D01*
X63088733Y-100149654D02*
X63431267Y-100149654D01*
G04 #@! TO.C,R2*
X59619447Y-72609654D02*
X59276913Y-72609654D01*
X59619447Y-71589654D02*
X59276913Y-71589654D01*
G04 #@! TO.C,R3*
X58101913Y-100149654D02*
X58444447Y-100149654D01*
X58101913Y-101169654D02*
X58444447Y-101169654D01*
G04 #@! TO.C,R4*
X64219447Y-71589654D02*
X63876913Y-71589654D01*
X64219447Y-72609654D02*
X63876913Y-72609654D01*
G04 #@! TO.C,R5*
X149350000Y-137228733D02*
X149350000Y-137571267D01*
X150370000Y-137228733D02*
X150370000Y-137571267D01*
G04 #@! TO.C,R6*
X177696782Y-140207327D02*
X177696782Y-139864793D01*
X178716782Y-140207327D02*
X178716782Y-139864793D01*
G04 #@! TO.C,R7*
X153545000Y-135323733D02*
X153545000Y-135666267D01*
X152525000Y-135323733D02*
X152525000Y-135666267D01*
G04 #@! TO.C,R8*
X178716782Y-144652327D02*
X178716782Y-144309793D01*
X177696782Y-144652327D02*
X177696782Y-144309793D01*
G04 #@! TO.C,R9*
X84619793Y-101703218D02*
X84962327Y-101703218D01*
X84619793Y-100683218D02*
X84962327Y-100683218D01*
G04 #@! TO.C,R10*
X81787327Y-71473218D02*
X81444793Y-71473218D01*
X81787327Y-72493218D02*
X81444793Y-72493218D01*
G04 #@! TO.C,R11*
X79779793Y-100683218D02*
X80122327Y-100683218D01*
X79779793Y-101703218D02*
X80122327Y-101703218D01*
G04 #@! TO.C,R12*
X86867327Y-72493218D02*
X86524793Y-72493218D01*
X86867327Y-71473218D02*
X86524793Y-71473218D01*
G04 #@! TO.C,R13*
X149001267Y-121795000D02*
X148658733Y-121795000D01*
X149001267Y-120775000D02*
X148658733Y-120775000D01*
G04 #@! TO.C,R14*
X177290000Y-118377327D02*
X177290000Y-118034793D01*
X178310000Y-118377327D02*
X178310000Y-118034793D01*
G04 #@! TO.C,R15*
X148658733Y-118620000D02*
X149001267Y-118620000D01*
X148658733Y-117600000D02*
X149001267Y-117600000D01*
G04 #@! TO.C,R16*
X178310000Y-123756267D02*
X178310000Y-123413733D01*
X177290000Y-123756267D02*
X177290000Y-123413733D01*
G04 #@! TO.C,R17*
X106449793Y-100683218D02*
X106792327Y-100683218D01*
X106449793Y-101703218D02*
X106792327Y-101703218D01*
G04 #@! TO.C,R18*
X103617327Y-72493218D02*
X103274793Y-72493218D01*
X103617327Y-71473218D02*
X103274793Y-71473218D01*
G04 #@! TO.C,R19*
X101129793Y-101703218D02*
X101472327Y-101703218D01*
X101129793Y-100683218D02*
X101472327Y-100683218D01*
G04 #@! TO.C,R20*
X108062327Y-71473218D02*
X107719793Y-71473218D01*
X108062327Y-72493218D02*
X107719793Y-72493218D01*
G04 #@! TO.C,R21*
X161741060Y-98766259D02*
X161741060Y-99108793D01*
X160721060Y-98766259D02*
X160721060Y-99108793D01*
G04 #@! TO.C,R22*
X165212327Y-74035744D02*
X164869793Y-74035744D01*
X165212327Y-73015744D02*
X164869793Y-73015744D01*
G04 #@! TO.C,R23*
X157990000Y-99108793D02*
X157990000Y-98766259D01*
X156970000Y-99108793D02*
X156970000Y-98766259D01*
G04 #@! TO.C,R24*
X169657327Y-73015744D02*
X169314793Y-73015744D01*
X169657327Y-74035744D02*
X169314793Y-74035744D01*
G04 #@! TO.C,R27*
X126529793Y-100683218D02*
X126872327Y-100683218D01*
X126529793Y-101703218D02*
X126872327Y-101703218D01*
G04 #@! TO.C,R28*
X123302327Y-72108218D02*
X122959793Y-72108218D01*
X123302327Y-73128218D02*
X122959793Y-73128218D01*
G04 #@! TO.C,R29*
X121353733Y-101703218D02*
X121696267Y-101703218D01*
X121353733Y-100683218D02*
X121696267Y-100683218D01*
G04 #@! TO.C,R30*
X128142327Y-72108218D02*
X127799793Y-72108218D01*
X128142327Y-73128218D02*
X127799793Y-73128218D01*
G04 #@! TO.C,R31*
X147543733Y-100455000D02*
X147886267Y-100455000D01*
X147543733Y-101475000D02*
X147886267Y-101475000D01*
G04 #@! TO.C,R32*
X144652327Y-72366218D02*
X144309793Y-72366218D01*
X144652327Y-71346218D02*
X144309793Y-71346218D01*
G04 #@! TO.C,R33*
X142799793Y-101576218D02*
X143142327Y-101576218D01*
X142799793Y-100556218D02*
X143142327Y-100556218D01*
G04 #@! TO.C,R34*
X149337327Y-71346218D02*
X148994793Y-71346218D01*
X149337327Y-72366218D02*
X148994793Y-72366218D01*
D11*
G04 #@! TO.C,Conn1*
X47363180Y-78929654D02*
X47363180Y-71029654D01*
X55263180Y-78929654D02*
X55263180Y-71029654D01*
X53713180Y-71029654D02*
X53713180Y-70521654D01*
X49141180Y-70521654D02*
X49141180Y-71029654D01*
X53713180Y-70521654D02*
X49141180Y-70521654D01*
X47363180Y-72680654D02*
X46855180Y-72680654D01*
X46855180Y-72680654D02*
X46855180Y-77252654D01*
X46855180Y-77252654D02*
X47363180Y-77252654D01*
X47363180Y-71029654D02*
X55263180Y-71029654D01*
X53713180Y-78421054D02*
X49141180Y-78421054D01*
X47363180Y-78929654D02*
X55263180Y-78929654D01*
X49141180Y-78421054D02*
X49141180Y-78929054D01*
X53713180Y-78929054D02*
X53713180Y-78421054D01*
X47363180Y-80557654D02*
X46855180Y-80557654D01*
X55263180Y-86829654D02*
X55263180Y-78929654D01*
X46855180Y-80557654D02*
X46855180Y-85129654D01*
X46855180Y-85129654D02*
X47363180Y-85129654D01*
X49141180Y-86321654D02*
X49141180Y-86829654D01*
X53713180Y-86829654D02*
X53713180Y-86321654D01*
X47363180Y-86829654D02*
X47363180Y-78929654D01*
X47363180Y-86829654D02*
X55263180Y-86829654D01*
X53713180Y-86321654D02*
X49141180Y-86321654D01*
X47363180Y-88457654D02*
X46855180Y-88457654D01*
X46855180Y-93029654D02*
X47363180Y-93029654D01*
X47363180Y-94729654D02*
X47363180Y-86829654D01*
X53713180Y-94729654D02*
X53713180Y-94221654D01*
X47363180Y-94729654D02*
X55263180Y-94729654D01*
X46855180Y-88457654D02*
X46855180Y-93029654D01*
X49141180Y-94221654D02*
X49141180Y-94729654D01*
X53713180Y-94221654D02*
X49141180Y-94221654D01*
X55263180Y-94729654D02*
X55263180Y-86829654D01*
G04 #@! TO.C,Conn18*
X141110000Y-62966000D02*
X133210000Y-62966000D01*
X141110000Y-55066000D02*
X133210000Y-55066000D01*
X133210000Y-56616000D02*
X132702000Y-56616000D01*
X132702000Y-61188000D02*
X133210000Y-61188000D01*
X132702000Y-56616000D02*
X132702000Y-61188000D01*
X134861000Y-62966000D02*
X134861000Y-63474000D01*
X134861000Y-63474000D02*
X139433000Y-63474000D01*
X139433000Y-63474000D02*
X139433000Y-62966000D01*
X133210000Y-62966000D02*
X133210000Y-55066000D01*
X140601400Y-56616000D02*
X140601400Y-61188000D01*
X141110000Y-62966000D02*
X141110000Y-55066000D01*
X140601400Y-61188000D02*
X141109400Y-61188000D01*
X141109400Y-56616000D02*
X140601400Y-56616000D01*
X142738000Y-62966000D02*
X142738000Y-63474000D01*
X149010000Y-55066000D02*
X141110000Y-55066000D01*
X142738000Y-63474000D02*
X147310000Y-63474000D01*
X147310000Y-63474000D02*
X147310000Y-62966000D01*
X148502000Y-61188000D02*
X149010000Y-61188000D01*
X149010000Y-56616000D02*
X148502000Y-56616000D01*
X149010000Y-62966000D02*
X141110000Y-62966000D01*
X149010000Y-62966000D02*
X149010000Y-55066000D01*
X148502000Y-56616000D02*
X148502000Y-61188000D01*
G04 #@! TO.C,Conn9*
X58560000Y-63220000D02*
X50660000Y-63220000D01*
X58560000Y-55320000D02*
X50660000Y-55320000D01*
X50660000Y-56870000D02*
X50152000Y-56870000D01*
X50152000Y-61442000D02*
X50660000Y-61442000D01*
X50152000Y-56870000D02*
X50152000Y-61442000D01*
X52311000Y-63220000D02*
X52311000Y-63728000D01*
X52311000Y-63728000D02*
X56883000Y-63728000D01*
X56883000Y-63728000D02*
X56883000Y-63220000D01*
X50660000Y-63220000D02*
X50660000Y-55320000D01*
X58051400Y-56870000D02*
X58051400Y-61442000D01*
X58560000Y-63220000D02*
X58560000Y-55320000D01*
X58051400Y-61442000D02*
X58559400Y-61442000D01*
X58559400Y-56870000D02*
X58051400Y-56870000D01*
X60188000Y-63220000D02*
X60188000Y-63728000D01*
X66460000Y-55320000D02*
X58560000Y-55320000D01*
X60188000Y-63728000D02*
X64760000Y-63728000D01*
X64760000Y-63728000D02*
X64760000Y-63220000D01*
X65952000Y-61442000D02*
X66460000Y-61442000D01*
X66460000Y-56870000D02*
X65952000Y-56870000D01*
X66460000Y-63220000D02*
X58560000Y-63220000D01*
X66460000Y-63220000D02*
X66460000Y-55320000D01*
X65952000Y-56870000D02*
X65952000Y-61442000D01*
G04 #@! TO.C,Conn17*
X68935000Y-129260000D02*
X68935000Y-137160000D01*
X61035000Y-129260000D02*
X61035000Y-137160000D01*
X62585000Y-137160000D02*
X62585000Y-137668000D01*
X67157000Y-137668000D02*
X67157000Y-137160000D01*
X62585000Y-137668000D02*
X67157000Y-137668000D01*
X68935000Y-135509000D02*
X69443000Y-135509000D01*
X69443000Y-135509000D02*
X69443000Y-130937000D01*
X69443000Y-130937000D02*
X68935000Y-130937000D01*
X68935000Y-137160000D02*
X61035000Y-137160000D01*
X62585000Y-129768600D02*
X67157000Y-129768600D01*
X68935000Y-129260000D02*
X61035000Y-129260000D01*
X67157000Y-129768600D02*
X67157000Y-129260600D01*
X62585000Y-129260600D02*
X62585000Y-129768600D01*
X68935000Y-127632000D02*
X69443000Y-127632000D01*
X61035000Y-121360000D02*
X61035000Y-129260000D01*
X69443000Y-127632000D02*
X69443000Y-123060000D01*
X69443000Y-123060000D02*
X68935000Y-123060000D01*
X67157000Y-121868000D02*
X67157000Y-121360000D01*
X62585000Y-121360000D02*
X62585000Y-121868000D01*
X68935000Y-121360000D02*
X68935000Y-129260000D01*
X68935000Y-121360000D02*
X61035000Y-121360000D01*
X62585000Y-121868000D02*
X67157000Y-121868000D01*
X68935000Y-119732000D02*
X69443000Y-119732000D01*
X69443000Y-115160000D02*
X68935000Y-115160000D01*
X68935000Y-113460000D02*
X68935000Y-121360000D01*
X62585000Y-113460000D02*
X62585000Y-113968000D01*
X68935000Y-113460000D02*
X61035000Y-113460000D01*
X69443000Y-119732000D02*
X69443000Y-115160000D01*
X67157000Y-113968000D02*
X67157000Y-113460000D01*
X62585000Y-113968000D02*
X67157000Y-113968000D01*
X61035000Y-113460000D02*
X61035000Y-121360000D01*
D12*
G04 #@! TO.C,Conn19*
X96025000Y-57210000D02*
X96847470Y-57210000D01*
X98732530Y-57210000D02*
X99555000Y-57210000D01*
X97462530Y-57210000D02*
X98117470Y-57210000D01*
X96025000Y-52195000D02*
X96025000Y-57210000D01*
X99555000Y-50740000D02*
X99555000Y-57210000D01*
X96025000Y-52195000D02*
X96591529Y-52195000D01*
X97718471Y-52195000D02*
X97861529Y-52195000D01*
X97915000Y-52141529D02*
X97915000Y-51998471D01*
X97915000Y-50871529D02*
X97915000Y-50740000D01*
X97915000Y-50740000D02*
X98117470Y-50740000D01*
X98732530Y-50740000D02*
X99555000Y-50740000D01*
X96025000Y-51435000D02*
X96025000Y-50675000D01*
X96025000Y-50675000D02*
X97155000Y-50675000D01*
G04 #@! TO.C,D3*
X187250000Y-109755000D02*
X184790000Y-109755000D01*
X184790000Y-109755000D02*
X184790000Y-111225000D01*
X184790000Y-111225000D02*
X187250000Y-111225000D01*
G04 #@! TO.C,D4*
X97940000Y-104675000D02*
X95480000Y-104675000D01*
X97940000Y-106145000D02*
X97940000Y-104675000D01*
X95480000Y-106145000D02*
X97940000Y-106145000D01*
G04 #@! TO.C,D5*
X163825000Y-64035000D02*
X161365000Y-64035000D01*
X163825000Y-65505000D02*
X163825000Y-64035000D01*
X161365000Y-65505000D02*
X163825000Y-65505000D01*
G04 #@! TO.C,D6*
X115800000Y-106145000D02*
X118260000Y-106145000D01*
X118260000Y-106145000D02*
X118260000Y-104675000D01*
X118260000Y-104675000D02*
X115800000Y-104675000D01*
G04 #@! TO.C,D7*
X76590000Y-104675000D02*
X74130000Y-104675000D01*
X76590000Y-106145000D02*
X76590000Y-104675000D01*
X74130000Y-106145000D02*
X76590000Y-106145000D01*
G04 #@! TO.C,D8*
X135921774Y-105959242D02*
X138381774Y-105959242D01*
X138381774Y-105959242D02*
X138381774Y-104489242D01*
X138381774Y-104489242D02*
X135921774Y-104489242D01*
G04 #@! TO.C,D9*
X184710000Y-139600000D02*
X182250000Y-139600000D01*
X182250000Y-139600000D02*
X182250000Y-141070000D01*
X182250000Y-141070000D02*
X184710000Y-141070000D01*
G04 #@! TO.C,D10*
X55875000Y-104675000D02*
X53415000Y-104675000D01*
X55875000Y-106145000D02*
X55875000Y-104675000D01*
X53415000Y-106145000D02*
X55875000Y-106145000D01*
G04 #@! TO.C,R35*
X186278733Y-107440000D02*
X186621267Y-107440000D01*
X186278733Y-108460000D02*
X186621267Y-108460000D01*
G04 #@! TO.C,R36*
X92298733Y-105920000D02*
X92641267Y-105920000D01*
X92298733Y-104900000D02*
X92641267Y-104900000D01*
G04 #@! TO.C,R37*
X158338733Y-64260000D02*
X158681267Y-64260000D01*
X158338733Y-65280000D02*
X158681267Y-65280000D01*
G04 #@! TO.C,R38*
X112618733Y-105920000D02*
X112961267Y-105920000D01*
X112618733Y-104900000D02*
X112961267Y-104900000D01*
G04 #@! TO.C,R39*
X70708733Y-105920000D02*
X71051267Y-105920000D01*
X70708733Y-104900000D02*
X71051267Y-104900000D01*
G04 #@! TO.C,R40*
X132895507Y-104714242D02*
X133238041Y-104714242D01*
X132895507Y-105734242D02*
X133238041Y-105734242D01*
G04 #@! TO.C,R41*
X188371267Y-140845000D02*
X188028733Y-140845000D01*
X188371267Y-139825000D02*
X188028733Y-139825000D01*
G04 #@! TO.C,R42*
X50152455Y-105920000D02*
X50494989Y-105920000D01*
X50152455Y-104900000D02*
X50494989Y-104900000D01*
G04 #@! TO.C,Conn2*
D11*
X158393734Y-128544726D02*
X158869924Y-128544726D01*
X158298496Y-128830440D02*
X158631829Y-127830440D01*
X158965162Y-128830440D01*
X159869924Y-128735202D02*
X159822305Y-128782821D01*
X159679448Y-128830440D01*
X159584210Y-128830440D01*
X159441353Y-128782821D01*
X159346115Y-128687583D01*
X159298496Y-128592345D01*
X159250877Y-128401869D01*
X159250877Y-128259012D01*
X159298496Y-128068536D01*
X159346115Y-127973298D01*
X159441353Y-127878060D01*
X159584210Y-127830440D01*
X159679448Y-127830440D01*
X159822305Y-127878060D01*
X159869924Y-127925679D01*
X160155639Y-127830440D02*
X160727067Y-127830440D01*
X160441353Y-128830440D02*
X160441353Y-127830440D01*
X166698496Y-128830440D02*
X166222305Y-128830440D01*
X166222305Y-127830440D01*
X167222305Y-127830440D02*
X167412782Y-127830440D01*
X167508020Y-127878060D01*
X167603258Y-127973298D01*
X167650877Y-128163774D01*
X167650877Y-128497107D01*
X167603258Y-128687583D01*
X167508020Y-128782821D01*
X167412782Y-128830440D01*
X167222305Y-128830440D01*
X167127067Y-128782821D01*
X167031829Y-128687583D01*
X166984210Y-128497107D01*
X166984210Y-128163774D01*
X167031829Y-127973298D01*
X167127067Y-127878060D01*
X167222305Y-127830440D01*
X168603258Y-127878060D02*
X168508020Y-127830440D01*
X168365162Y-127830440D01*
X168222305Y-127878060D01*
X168127067Y-127973298D01*
X168079448Y-128068536D01*
X168031829Y-128259012D01*
X168031829Y-128401869D01*
X168079448Y-128592345D01*
X168127067Y-128687583D01*
X168222305Y-128782821D01*
X168365162Y-128830440D01*
X168460401Y-128830440D01*
X168603258Y-128782821D01*
X168650877Y-128735202D01*
X168650877Y-128401869D01*
X168460401Y-128401869D01*
X174562877Y-127878060D02*
X174467639Y-127830440D01*
X174324782Y-127830440D01*
X174181924Y-127878060D01*
X174086686Y-127973298D01*
X174039067Y-128068536D01*
X173991448Y-128259012D01*
X173991448Y-128401869D01*
X174039067Y-128592345D01*
X174086686Y-128687583D01*
X174181924Y-128782821D01*
X174324782Y-128830440D01*
X174420020Y-128830440D01*
X174562877Y-128782821D01*
X174610496Y-128735202D01*
X174610496Y-128401869D01*
X174420020Y-128401869D01*
X175039067Y-128830440D02*
X175039067Y-127830440D01*
X175610496Y-128830440D01*
X175610496Y-127830440D01*
X176086686Y-128830440D02*
X176086686Y-127830440D01*
X176324782Y-127830440D01*
X176467639Y-127878060D01*
X176562877Y-127973298D01*
X176610496Y-128068536D01*
X176658115Y-128259012D01*
X176658115Y-128401869D01*
X176610496Y-128592345D01*
X176562877Y-128687583D01*
X176467639Y-128782821D01*
X176324782Y-128830440D01*
X176086686Y-128830440D01*
G04 #@! TO.C,Conn3*
X70093060Y-76262122D02*
X70045440Y-76357360D01*
X70045440Y-76500218D01*
X70093060Y-76643075D01*
X70188298Y-76738313D01*
X70283536Y-76785932D01*
X70474012Y-76833551D01*
X70616869Y-76833551D01*
X70807345Y-76785932D01*
X70902583Y-76738313D01*
X70997821Y-76643075D01*
X71045440Y-76500218D01*
X71045440Y-76404979D01*
X70997821Y-76262122D01*
X70950202Y-76214503D01*
X70616869Y-76214503D01*
X70616869Y-76404979D01*
X71045440Y-75785932D02*
X70045440Y-75785932D01*
X71045440Y-75214503D01*
X70045440Y-75214503D01*
X71045440Y-74738313D02*
X70045440Y-74738313D01*
X70045440Y-74500218D01*
X70093060Y-74357360D01*
X70188298Y-74262122D01*
X70283536Y-74214503D01*
X70474012Y-74166884D01*
X70616869Y-74166884D01*
X70807345Y-74214503D01*
X70902583Y-74262122D01*
X70997821Y-74357360D01*
X71045440Y-74500218D01*
X71045440Y-74738313D01*
X71045440Y-84126503D02*
X71045440Y-84602694D01*
X70045440Y-84602694D01*
X70045440Y-83602694D02*
X70045440Y-83412218D01*
X70093060Y-83316979D01*
X70188298Y-83221741D01*
X70378774Y-83174122D01*
X70712107Y-83174122D01*
X70902583Y-83221741D01*
X70997821Y-83316979D01*
X71045440Y-83412218D01*
X71045440Y-83602694D01*
X70997821Y-83697932D01*
X70902583Y-83793170D01*
X70712107Y-83840789D01*
X70378774Y-83840789D01*
X70188298Y-83793170D01*
X70093060Y-83697932D01*
X70045440Y-83602694D01*
X70093060Y-82221741D02*
X70045440Y-82316979D01*
X70045440Y-82459837D01*
X70093060Y-82602694D01*
X70188298Y-82697932D01*
X70283536Y-82745551D01*
X70474012Y-82793170D01*
X70616869Y-82793170D01*
X70807345Y-82745551D01*
X70902583Y-82697932D01*
X70997821Y-82602694D01*
X71045440Y-82459837D01*
X71045440Y-82364598D01*
X70997821Y-82221741D01*
X70950202Y-82174122D01*
X70616869Y-82174122D01*
X70616869Y-82364598D01*
X70759726Y-92431265D02*
X70759726Y-91955075D01*
X71045440Y-92526503D02*
X70045440Y-92193170D01*
X71045440Y-91859837D01*
X70950202Y-90955075D02*
X70997821Y-91002694D01*
X71045440Y-91145551D01*
X71045440Y-91240789D01*
X70997821Y-91383646D01*
X70902583Y-91478884D01*
X70807345Y-91526503D01*
X70616869Y-91574122D01*
X70474012Y-91574122D01*
X70283536Y-91526503D01*
X70188298Y-91478884D01*
X70093060Y-91383646D01*
X70045440Y-91240789D01*
X70045440Y-91145551D01*
X70093060Y-91002694D01*
X70140679Y-90955075D01*
X70045440Y-90669360D02*
X70045440Y-90097932D01*
X71045440Y-90383646D02*
X70045440Y-90383646D01*
G04 #@! TO.C,Conn4*
X158673734Y-107589726D02*
X159149924Y-107589726D01*
X158578496Y-107875440D02*
X158911829Y-106875440D01*
X159245162Y-107875440D01*
X160149924Y-107780202D02*
X160102305Y-107827821D01*
X159959448Y-107875440D01*
X159864210Y-107875440D01*
X159721353Y-107827821D01*
X159626115Y-107732583D01*
X159578496Y-107637345D01*
X159530877Y-107446869D01*
X159530877Y-107304012D01*
X159578496Y-107113536D01*
X159626115Y-107018298D01*
X159721353Y-106923060D01*
X159864210Y-106875440D01*
X159959448Y-106875440D01*
X160102305Y-106923060D01*
X160149924Y-106970679D01*
X160435639Y-106875440D02*
X161007067Y-106875440D01*
X160721353Y-107875440D02*
X160721353Y-106875440D01*
X166978496Y-107875440D02*
X166502305Y-107875440D01*
X166502305Y-106875440D01*
X167502305Y-106875440D02*
X167692782Y-106875440D01*
X167788020Y-106923060D01*
X167883258Y-107018298D01*
X167930877Y-107208774D01*
X167930877Y-107542107D01*
X167883258Y-107732583D01*
X167788020Y-107827821D01*
X167692782Y-107875440D01*
X167502305Y-107875440D01*
X167407067Y-107827821D01*
X167311829Y-107732583D01*
X167264210Y-107542107D01*
X167264210Y-107208774D01*
X167311829Y-107018298D01*
X167407067Y-106923060D01*
X167502305Y-106875440D01*
X168883258Y-106923060D02*
X168788020Y-106875440D01*
X168645162Y-106875440D01*
X168502305Y-106923060D01*
X168407067Y-107018298D01*
X168359448Y-107113536D01*
X168311829Y-107304012D01*
X168311829Y-107446869D01*
X168359448Y-107637345D01*
X168407067Y-107732583D01*
X168502305Y-107827821D01*
X168645162Y-107875440D01*
X168740401Y-107875440D01*
X168883258Y-107827821D01*
X168930877Y-107780202D01*
X168930877Y-107446869D01*
X168740401Y-107446869D01*
X174842877Y-106923060D02*
X174747639Y-106875440D01*
X174604782Y-106875440D01*
X174461924Y-106923060D01*
X174366686Y-107018298D01*
X174319067Y-107113536D01*
X174271448Y-107304012D01*
X174271448Y-107446869D01*
X174319067Y-107637345D01*
X174366686Y-107732583D01*
X174461924Y-107827821D01*
X174604782Y-107875440D01*
X174700020Y-107875440D01*
X174842877Y-107827821D01*
X174890496Y-107780202D01*
X174890496Y-107446869D01*
X174700020Y-107446869D01*
X175319067Y-107875440D02*
X175319067Y-106875440D01*
X175890496Y-107875440D01*
X175890496Y-106875440D01*
X176366686Y-107875440D02*
X176366686Y-106875440D01*
X176604782Y-106875440D01*
X176747639Y-106923060D01*
X176842877Y-107018298D01*
X176890496Y-107113536D01*
X176938115Y-107304012D01*
X176938115Y-107446869D01*
X176890496Y-107637345D01*
X176842877Y-107732583D01*
X176747639Y-107827821D01*
X176604782Y-107875440D01*
X176366686Y-107875440D01*
G04 #@! TO.C,Conn5*
X91683060Y-75627122D02*
X91635440Y-75722360D01*
X91635440Y-75865218D01*
X91683060Y-76008075D01*
X91778298Y-76103313D01*
X91873536Y-76150932D01*
X92064012Y-76198551D01*
X92206869Y-76198551D01*
X92397345Y-76150932D01*
X92492583Y-76103313D01*
X92587821Y-76008075D01*
X92635440Y-75865218D01*
X92635440Y-75769979D01*
X92587821Y-75627122D01*
X92540202Y-75579503D01*
X92206869Y-75579503D01*
X92206869Y-75769979D01*
X92635440Y-75150932D02*
X91635440Y-75150932D01*
X92635440Y-74579503D01*
X91635440Y-74579503D01*
X92635440Y-74103313D02*
X91635440Y-74103313D01*
X91635440Y-73865218D01*
X91683060Y-73722360D01*
X91778298Y-73627122D01*
X91873536Y-73579503D01*
X92064012Y-73531884D01*
X92206869Y-73531884D01*
X92397345Y-73579503D01*
X92492583Y-73627122D01*
X92587821Y-73722360D01*
X92635440Y-73865218D01*
X92635440Y-74103313D01*
X92635440Y-83491503D02*
X92635440Y-83967694D01*
X91635440Y-83967694D01*
X91635440Y-82967694D02*
X91635440Y-82777218D01*
X91683060Y-82681979D01*
X91778298Y-82586741D01*
X91968774Y-82539122D01*
X92302107Y-82539122D01*
X92492583Y-82586741D01*
X92587821Y-82681979D01*
X92635440Y-82777218D01*
X92635440Y-82967694D01*
X92587821Y-83062932D01*
X92492583Y-83158170D01*
X92302107Y-83205789D01*
X91968774Y-83205789D01*
X91778298Y-83158170D01*
X91683060Y-83062932D01*
X91635440Y-82967694D01*
X91683060Y-81586741D02*
X91635440Y-81681979D01*
X91635440Y-81824837D01*
X91683060Y-81967694D01*
X91778298Y-82062932D01*
X91873536Y-82110551D01*
X92064012Y-82158170D01*
X92206869Y-82158170D01*
X92397345Y-82110551D01*
X92492583Y-82062932D01*
X92587821Y-81967694D01*
X92635440Y-81824837D01*
X92635440Y-81729598D01*
X92587821Y-81586741D01*
X92540202Y-81539122D01*
X92206869Y-81539122D01*
X92206869Y-81729598D01*
X92349726Y-91796265D02*
X92349726Y-91320075D01*
X92635440Y-91891503D02*
X91635440Y-91558170D01*
X92635440Y-91224837D01*
X92540202Y-90320075D02*
X92587821Y-90367694D01*
X92635440Y-90510551D01*
X92635440Y-90605789D01*
X92587821Y-90748646D01*
X92492583Y-90843884D01*
X92397345Y-90891503D01*
X92206869Y-90939122D01*
X92064012Y-90939122D01*
X91873536Y-90891503D01*
X91778298Y-90843884D01*
X91683060Y-90748646D01*
X91635440Y-90605789D01*
X91635440Y-90510551D01*
X91683060Y-90367694D01*
X91730679Y-90320075D01*
X91635440Y-90034360D02*
X91635440Y-89462932D01*
X92635440Y-89748646D02*
X91635440Y-89748646D01*
G04 #@! TO.C,Conn6*
X155513666Y-92703791D02*
X155513666Y-92227601D01*
X155799380Y-92799029D02*
X154799380Y-92465696D01*
X155799380Y-92132363D01*
X155704142Y-91227601D02*
X155751761Y-91275220D01*
X155799380Y-91418077D01*
X155799380Y-91513315D01*
X155751761Y-91656172D01*
X155656523Y-91751410D01*
X155561285Y-91799029D01*
X155370809Y-91846648D01*
X155227952Y-91846648D01*
X155037476Y-91799029D01*
X154942238Y-91751410D01*
X154847000Y-91656172D01*
X154799380Y-91513315D01*
X154799380Y-91418077D01*
X154847000Y-91275220D01*
X154894619Y-91227601D01*
X154799380Y-90941886D02*
X154799380Y-90370458D01*
X155799380Y-90656172D02*
X154799380Y-90656172D01*
X155799380Y-84399029D02*
X155799380Y-84875220D01*
X154799380Y-84875220D01*
X154799380Y-83875220D02*
X154799380Y-83684744D01*
X154847000Y-83589505D01*
X154942238Y-83494267D01*
X155132714Y-83446648D01*
X155466047Y-83446648D01*
X155656523Y-83494267D01*
X155751761Y-83589505D01*
X155799380Y-83684744D01*
X155799380Y-83875220D01*
X155751761Y-83970458D01*
X155656523Y-84065696D01*
X155466047Y-84113315D01*
X155132714Y-84113315D01*
X154942238Y-84065696D01*
X154847000Y-83970458D01*
X154799380Y-83875220D01*
X154847000Y-82494267D02*
X154799380Y-82589505D01*
X154799380Y-82732363D01*
X154847000Y-82875220D01*
X154942238Y-82970458D01*
X155037476Y-83018077D01*
X155227952Y-83065696D01*
X155370809Y-83065696D01*
X155561285Y-83018077D01*
X155656523Y-82970458D01*
X155751761Y-82875220D01*
X155799380Y-82732363D01*
X155799380Y-82637124D01*
X155751761Y-82494267D01*
X155704142Y-82446648D01*
X155370809Y-82446648D01*
X155370809Y-82637124D01*
X154847000Y-76534648D02*
X154799380Y-76629886D01*
X154799380Y-76772744D01*
X154847000Y-76915601D01*
X154942238Y-77010839D01*
X155037476Y-77058458D01*
X155227952Y-77106077D01*
X155370809Y-77106077D01*
X155561285Y-77058458D01*
X155656523Y-77010839D01*
X155751761Y-76915601D01*
X155799380Y-76772744D01*
X155799380Y-76677505D01*
X155751761Y-76534648D01*
X155704142Y-76487029D01*
X155370809Y-76487029D01*
X155370809Y-76677505D01*
X155799380Y-76058458D02*
X154799380Y-76058458D01*
X155799380Y-75487029D01*
X154799380Y-75487029D01*
X155799380Y-75010839D02*
X154799380Y-75010839D01*
X154799380Y-74772744D01*
X154847000Y-74629886D01*
X154942238Y-74534648D01*
X155037476Y-74487029D01*
X155227952Y-74439410D01*
X155370809Y-74439410D01*
X155561285Y-74487029D01*
X155656523Y-74534648D01*
X155751761Y-74629886D01*
X155799380Y-74772744D01*
X155799380Y-75010839D01*
G04 #@! TO.C,Conn7*
X112003060Y-75627122D02*
X111955440Y-75722360D01*
X111955440Y-75865218D01*
X112003060Y-76008075D01*
X112098298Y-76103313D01*
X112193536Y-76150932D01*
X112384012Y-76198551D01*
X112526869Y-76198551D01*
X112717345Y-76150932D01*
X112812583Y-76103313D01*
X112907821Y-76008075D01*
X112955440Y-75865218D01*
X112955440Y-75769979D01*
X112907821Y-75627122D01*
X112860202Y-75579503D01*
X112526869Y-75579503D01*
X112526869Y-75769979D01*
X112955440Y-75150932D02*
X111955440Y-75150932D01*
X112955440Y-74579503D01*
X111955440Y-74579503D01*
X112955440Y-74103313D02*
X111955440Y-74103313D01*
X111955440Y-73865218D01*
X112003060Y-73722360D01*
X112098298Y-73627122D01*
X112193536Y-73579503D01*
X112384012Y-73531884D01*
X112526869Y-73531884D01*
X112717345Y-73579503D01*
X112812583Y-73627122D01*
X112907821Y-73722360D01*
X112955440Y-73865218D01*
X112955440Y-74103313D01*
X112955440Y-83491503D02*
X112955440Y-83967694D01*
X111955440Y-83967694D01*
X111955440Y-82967694D02*
X111955440Y-82777218D01*
X112003060Y-82681979D01*
X112098298Y-82586741D01*
X112288774Y-82539122D01*
X112622107Y-82539122D01*
X112812583Y-82586741D01*
X112907821Y-82681979D01*
X112955440Y-82777218D01*
X112955440Y-82967694D01*
X112907821Y-83062932D01*
X112812583Y-83158170D01*
X112622107Y-83205789D01*
X112288774Y-83205789D01*
X112098298Y-83158170D01*
X112003060Y-83062932D01*
X111955440Y-82967694D01*
X112003060Y-81586741D02*
X111955440Y-81681979D01*
X111955440Y-81824837D01*
X112003060Y-81967694D01*
X112098298Y-82062932D01*
X112193536Y-82110551D01*
X112384012Y-82158170D01*
X112526869Y-82158170D01*
X112717345Y-82110551D01*
X112812583Y-82062932D01*
X112907821Y-81967694D01*
X112955440Y-81824837D01*
X112955440Y-81729598D01*
X112907821Y-81586741D01*
X112860202Y-81539122D01*
X112526869Y-81539122D01*
X112526869Y-81729598D01*
X112669726Y-91796265D02*
X112669726Y-91320075D01*
X112955440Y-91891503D02*
X111955440Y-91558170D01*
X112955440Y-91224837D01*
X112860202Y-90320075D02*
X112907821Y-90367694D01*
X112955440Y-90510551D01*
X112955440Y-90605789D01*
X112907821Y-90748646D01*
X112812583Y-90843884D01*
X112717345Y-90891503D01*
X112526869Y-90939122D01*
X112384012Y-90939122D01*
X112193536Y-90891503D01*
X112098298Y-90843884D01*
X112003060Y-90748646D01*
X111955440Y-90605789D01*
X111955440Y-90510551D01*
X112003060Y-90367694D01*
X112050679Y-90320075D01*
X111955440Y-90034360D02*
X111955440Y-89462932D01*
X112955440Y-89748646D02*
X111955440Y-89748646D01*
G04 #@! TO.C,Conn8*
X133624726Y-91669265D02*
X133624726Y-91193075D01*
X133910440Y-91764503D02*
X132910440Y-91431170D01*
X133910440Y-91097837D01*
X133815202Y-90193075D02*
X133862821Y-90240694D01*
X133910440Y-90383551D01*
X133910440Y-90478789D01*
X133862821Y-90621646D01*
X133767583Y-90716884D01*
X133672345Y-90764503D01*
X133481869Y-90812122D01*
X133339012Y-90812122D01*
X133148536Y-90764503D01*
X133053298Y-90716884D01*
X132958060Y-90621646D01*
X132910440Y-90478789D01*
X132910440Y-90383551D01*
X132958060Y-90240694D01*
X133005679Y-90193075D01*
X132910440Y-89907360D02*
X132910440Y-89335932D01*
X133910440Y-89621646D02*
X132910440Y-89621646D01*
X133910440Y-83364503D02*
X133910440Y-83840694D01*
X132910440Y-83840694D01*
X132910440Y-82840694D02*
X132910440Y-82650218D01*
X132958060Y-82554979D01*
X133053298Y-82459741D01*
X133243774Y-82412122D01*
X133577107Y-82412122D01*
X133767583Y-82459741D01*
X133862821Y-82554979D01*
X133910440Y-82650218D01*
X133910440Y-82840694D01*
X133862821Y-82935932D01*
X133767583Y-83031170D01*
X133577107Y-83078789D01*
X133243774Y-83078789D01*
X133053298Y-83031170D01*
X132958060Y-82935932D01*
X132910440Y-82840694D01*
X132958060Y-81459741D02*
X132910440Y-81554979D01*
X132910440Y-81697837D01*
X132958060Y-81840694D01*
X133053298Y-81935932D01*
X133148536Y-81983551D01*
X133339012Y-82031170D01*
X133481869Y-82031170D01*
X133672345Y-81983551D01*
X133767583Y-81935932D01*
X133862821Y-81840694D01*
X133910440Y-81697837D01*
X133910440Y-81602598D01*
X133862821Y-81459741D01*
X133815202Y-81412122D01*
X133481869Y-81412122D01*
X133481869Y-81602598D01*
X132958060Y-75500122D02*
X132910440Y-75595360D01*
X132910440Y-75738218D01*
X132958060Y-75881075D01*
X133053298Y-75976313D01*
X133148536Y-76023932D01*
X133339012Y-76071551D01*
X133481869Y-76071551D01*
X133672345Y-76023932D01*
X133767583Y-75976313D01*
X133862821Y-75881075D01*
X133910440Y-75738218D01*
X133910440Y-75642979D01*
X133862821Y-75500122D01*
X133815202Y-75452503D01*
X133481869Y-75452503D01*
X133481869Y-75642979D01*
X133910440Y-75023932D02*
X132910440Y-75023932D01*
X133910440Y-74452503D01*
X132910440Y-74452503D01*
X133910440Y-73976313D02*
X132910440Y-73976313D01*
X132910440Y-73738218D01*
X132958060Y-73595360D01*
X133053298Y-73500122D01*
X133148536Y-73452503D01*
X133339012Y-73404884D01*
X133481869Y-73404884D01*
X133672345Y-73452503D01*
X133767583Y-73500122D01*
X133862821Y-73595360D01*
X133910440Y-73738218D01*
X133910440Y-73976313D01*
G04 #@! TO.C,Conn10*
X81008000Y-134124904D02*
X80960380Y-134220142D01*
X80960380Y-134363000D01*
X81008000Y-134505857D01*
X81103238Y-134601095D01*
X81198476Y-134648714D01*
X81388952Y-134696333D01*
X81531809Y-134696333D01*
X81722285Y-134648714D01*
X81817523Y-134601095D01*
X81912761Y-134505857D01*
X81960380Y-134363000D01*
X81960380Y-134267761D01*
X81912761Y-134124904D01*
X81865142Y-134077285D01*
X81531809Y-134077285D01*
X81531809Y-134267761D01*
X81960380Y-133648714D02*
X80960380Y-133648714D01*
X81960380Y-133077285D01*
X80960380Y-133077285D01*
X81960380Y-132601095D02*
X80960380Y-132601095D01*
X80960380Y-132363000D01*
X81008000Y-132220142D01*
X81103238Y-132124904D01*
X81198476Y-132077285D01*
X81388952Y-132029666D01*
X81531809Y-132029666D01*
X81722285Y-132077285D01*
X81817523Y-132124904D01*
X81912761Y-132220142D01*
X81960380Y-132363000D01*
X81960380Y-132601095D01*
X81960380Y-126165285D02*
X81960380Y-126641476D01*
X80960380Y-126641476D01*
X80960380Y-125641476D02*
X80960380Y-125451000D01*
X81008000Y-125355761D01*
X81103238Y-125260523D01*
X81293714Y-125212904D01*
X81627047Y-125212904D01*
X81817523Y-125260523D01*
X81912761Y-125355761D01*
X81960380Y-125451000D01*
X81960380Y-125641476D01*
X81912761Y-125736714D01*
X81817523Y-125831952D01*
X81627047Y-125879571D01*
X81293714Y-125879571D01*
X81103238Y-125831952D01*
X81008000Y-125736714D01*
X80960380Y-125641476D01*
X81008000Y-124260523D02*
X80960380Y-124355761D01*
X80960380Y-124498619D01*
X81008000Y-124641476D01*
X81103238Y-124736714D01*
X81198476Y-124784333D01*
X81388952Y-124831952D01*
X81531809Y-124831952D01*
X81722285Y-124784333D01*
X81817523Y-124736714D01*
X81912761Y-124641476D01*
X81960380Y-124498619D01*
X81960380Y-124403380D01*
X81912761Y-124260523D01*
X81865142Y-124212904D01*
X81531809Y-124212904D01*
X81531809Y-124403380D01*
X81674666Y-118670047D02*
X81674666Y-118193857D01*
X81960380Y-118765285D02*
X80960380Y-118431952D01*
X81960380Y-118098619D01*
X81865142Y-117193857D02*
X81912761Y-117241476D01*
X81960380Y-117384333D01*
X81960380Y-117479571D01*
X81912761Y-117622428D01*
X81817523Y-117717666D01*
X81722285Y-117765285D01*
X81531809Y-117812904D01*
X81388952Y-117812904D01*
X81198476Y-117765285D01*
X81103238Y-117717666D01*
X81008000Y-117622428D01*
X80960380Y-117479571D01*
X80960380Y-117384333D01*
X81008000Y-117241476D01*
X81055619Y-117193857D01*
X80960380Y-116908142D02*
X80960380Y-116336714D01*
X81960380Y-116622428D02*
X80960380Y-116622428D01*
G04 #@! TO.C,Conn11*
X145174666Y-118341047D02*
X145174666Y-117864857D01*
X145460380Y-118436285D02*
X144460380Y-118102952D01*
X145460380Y-117769619D01*
X145365142Y-116864857D02*
X145412761Y-116912476D01*
X145460380Y-117055333D01*
X145460380Y-117150571D01*
X145412761Y-117293428D01*
X145317523Y-117388666D01*
X145222285Y-117436285D01*
X145031809Y-117483904D01*
X144888952Y-117483904D01*
X144698476Y-117436285D01*
X144603238Y-117388666D01*
X144508000Y-117293428D01*
X144460380Y-117150571D01*
X144460380Y-117055333D01*
X144508000Y-116912476D01*
X144555619Y-116864857D01*
X144460380Y-116579142D02*
X144460380Y-116007714D01*
X145460380Y-116293428D02*
X144460380Y-116293428D01*
X145460380Y-125836285D02*
X145460380Y-126312476D01*
X144460380Y-126312476D01*
X144460380Y-125312476D02*
X144460380Y-125122000D01*
X144508000Y-125026761D01*
X144603238Y-124931523D01*
X144793714Y-124883904D01*
X145127047Y-124883904D01*
X145317523Y-124931523D01*
X145412761Y-125026761D01*
X145460380Y-125122000D01*
X145460380Y-125312476D01*
X145412761Y-125407714D01*
X145317523Y-125502952D01*
X145127047Y-125550571D01*
X144793714Y-125550571D01*
X144603238Y-125502952D01*
X144508000Y-125407714D01*
X144460380Y-125312476D01*
X144508000Y-123931523D02*
X144460380Y-124026761D01*
X144460380Y-124169619D01*
X144508000Y-124312476D01*
X144603238Y-124407714D01*
X144698476Y-124455333D01*
X144888952Y-124502952D01*
X145031809Y-124502952D01*
X145222285Y-124455333D01*
X145317523Y-124407714D01*
X145412761Y-124312476D01*
X145460380Y-124169619D01*
X145460380Y-124074380D01*
X145412761Y-123931523D01*
X145365142Y-123883904D01*
X145031809Y-123883904D01*
X145031809Y-124074380D01*
X144508000Y-133795904D02*
X144460380Y-133891142D01*
X144460380Y-134034000D01*
X144508000Y-134176857D01*
X144603238Y-134272095D01*
X144698476Y-134319714D01*
X144888952Y-134367333D01*
X145031809Y-134367333D01*
X145222285Y-134319714D01*
X145317523Y-134272095D01*
X145412761Y-134176857D01*
X145460380Y-134034000D01*
X145460380Y-133938761D01*
X145412761Y-133795904D01*
X145365142Y-133748285D01*
X145031809Y-133748285D01*
X145031809Y-133938761D01*
X145460380Y-133319714D02*
X144460380Y-133319714D01*
X145460380Y-132748285D01*
X144460380Y-132748285D01*
X145460380Y-132272095D02*
X144460380Y-132272095D01*
X144460380Y-132034000D01*
X144508000Y-131891142D01*
X144603238Y-131795904D01*
X144698476Y-131748285D01*
X144888952Y-131700666D01*
X145031809Y-131700666D01*
X145222285Y-131748285D01*
X145317523Y-131795904D01*
X145412761Y-131891142D01*
X145460380Y-132034000D01*
X145460380Y-132272095D01*
G04 #@! TO.C,Conn12*
X94374666Y-118595047D02*
X94374666Y-118118857D01*
X94660380Y-118690285D02*
X93660380Y-118356952D01*
X94660380Y-118023619D01*
X94565142Y-117118857D02*
X94612761Y-117166476D01*
X94660380Y-117309333D01*
X94660380Y-117404571D01*
X94612761Y-117547428D01*
X94517523Y-117642666D01*
X94422285Y-117690285D01*
X94231809Y-117737904D01*
X94088952Y-117737904D01*
X93898476Y-117690285D01*
X93803238Y-117642666D01*
X93708000Y-117547428D01*
X93660380Y-117404571D01*
X93660380Y-117309333D01*
X93708000Y-117166476D01*
X93755619Y-117118857D01*
X93660380Y-116833142D02*
X93660380Y-116261714D01*
X94660380Y-116547428D02*
X93660380Y-116547428D01*
X94660380Y-126090285D02*
X94660380Y-126566476D01*
X93660380Y-126566476D01*
X93660380Y-125566476D02*
X93660380Y-125376000D01*
X93708000Y-125280761D01*
X93803238Y-125185523D01*
X93993714Y-125137904D01*
X94327047Y-125137904D01*
X94517523Y-125185523D01*
X94612761Y-125280761D01*
X94660380Y-125376000D01*
X94660380Y-125566476D01*
X94612761Y-125661714D01*
X94517523Y-125756952D01*
X94327047Y-125804571D01*
X93993714Y-125804571D01*
X93803238Y-125756952D01*
X93708000Y-125661714D01*
X93660380Y-125566476D01*
X93708000Y-124185523D02*
X93660380Y-124280761D01*
X93660380Y-124423619D01*
X93708000Y-124566476D01*
X93803238Y-124661714D01*
X93898476Y-124709333D01*
X94088952Y-124756952D01*
X94231809Y-124756952D01*
X94422285Y-124709333D01*
X94517523Y-124661714D01*
X94612761Y-124566476D01*
X94660380Y-124423619D01*
X94660380Y-124328380D01*
X94612761Y-124185523D01*
X94565142Y-124137904D01*
X94231809Y-124137904D01*
X94231809Y-124328380D01*
X93708000Y-134049904D02*
X93660380Y-134145142D01*
X93660380Y-134288000D01*
X93708000Y-134430857D01*
X93803238Y-134526095D01*
X93898476Y-134573714D01*
X94088952Y-134621333D01*
X94231809Y-134621333D01*
X94422285Y-134573714D01*
X94517523Y-134526095D01*
X94612761Y-134430857D01*
X94660380Y-134288000D01*
X94660380Y-134192761D01*
X94612761Y-134049904D01*
X94565142Y-134002285D01*
X94231809Y-134002285D01*
X94231809Y-134192761D01*
X94660380Y-133573714D02*
X93660380Y-133573714D01*
X94660380Y-133002285D01*
X93660380Y-133002285D01*
X94660380Y-132526095D02*
X93660380Y-132526095D01*
X93660380Y-132288000D01*
X93708000Y-132145142D01*
X93803238Y-132049904D01*
X93898476Y-132002285D01*
X94088952Y-131954666D01*
X94231809Y-131954666D01*
X94422285Y-132002285D01*
X94517523Y-132049904D01*
X94612761Y-132145142D01*
X94660380Y-132288000D01*
X94660380Y-132526095D01*
G04 #@! TO.C,Conn13*
X106408000Y-133795904D02*
X106360380Y-133891142D01*
X106360380Y-134034000D01*
X106408000Y-134176857D01*
X106503238Y-134272095D01*
X106598476Y-134319714D01*
X106788952Y-134367333D01*
X106931809Y-134367333D01*
X107122285Y-134319714D01*
X107217523Y-134272095D01*
X107312761Y-134176857D01*
X107360380Y-134034000D01*
X107360380Y-133938761D01*
X107312761Y-133795904D01*
X107265142Y-133748285D01*
X106931809Y-133748285D01*
X106931809Y-133938761D01*
X107360380Y-133319714D02*
X106360380Y-133319714D01*
X107360380Y-132748285D01*
X106360380Y-132748285D01*
X107360380Y-132272095D02*
X106360380Y-132272095D01*
X106360380Y-132034000D01*
X106408000Y-131891142D01*
X106503238Y-131795904D01*
X106598476Y-131748285D01*
X106788952Y-131700666D01*
X106931809Y-131700666D01*
X107122285Y-131748285D01*
X107217523Y-131795904D01*
X107312761Y-131891142D01*
X107360380Y-132034000D01*
X107360380Y-132272095D01*
X107360380Y-125836285D02*
X107360380Y-126312476D01*
X106360380Y-126312476D01*
X106360380Y-125312476D02*
X106360380Y-125122000D01*
X106408000Y-125026761D01*
X106503238Y-124931523D01*
X106693714Y-124883904D01*
X107027047Y-124883904D01*
X107217523Y-124931523D01*
X107312761Y-125026761D01*
X107360380Y-125122000D01*
X107360380Y-125312476D01*
X107312761Y-125407714D01*
X107217523Y-125502952D01*
X107027047Y-125550571D01*
X106693714Y-125550571D01*
X106503238Y-125502952D01*
X106408000Y-125407714D01*
X106360380Y-125312476D01*
X106408000Y-123931523D02*
X106360380Y-124026761D01*
X106360380Y-124169619D01*
X106408000Y-124312476D01*
X106503238Y-124407714D01*
X106598476Y-124455333D01*
X106788952Y-124502952D01*
X106931809Y-124502952D01*
X107122285Y-124455333D01*
X107217523Y-124407714D01*
X107312761Y-124312476D01*
X107360380Y-124169619D01*
X107360380Y-124074380D01*
X107312761Y-123931523D01*
X107265142Y-123883904D01*
X106931809Y-123883904D01*
X106931809Y-124074380D01*
X107074666Y-118341047D02*
X107074666Y-117864857D01*
X107360380Y-118436285D02*
X106360380Y-118102952D01*
X107360380Y-117769619D01*
X107265142Y-116864857D02*
X107312761Y-116912476D01*
X107360380Y-117055333D01*
X107360380Y-117150571D01*
X107312761Y-117293428D01*
X107217523Y-117388666D01*
X107122285Y-117436285D01*
X106931809Y-117483904D01*
X106788952Y-117483904D01*
X106598476Y-117436285D01*
X106503238Y-117388666D01*
X106408000Y-117293428D01*
X106360380Y-117150571D01*
X106360380Y-117055333D01*
X106408000Y-116912476D01*
X106455619Y-116864857D01*
X106360380Y-116579142D02*
X106360380Y-116007714D01*
X107360380Y-116293428D02*
X106360380Y-116293428D01*
G04 #@! TO.C,Conn14*
X119108000Y-133795904D02*
X119060380Y-133891142D01*
X119060380Y-134034000D01*
X119108000Y-134176857D01*
X119203238Y-134272095D01*
X119298476Y-134319714D01*
X119488952Y-134367333D01*
X119631809Y-134367333D01*
X119822285Y-134319714D01*
X119917523Y-134272095D01*
X120012761Y-134176857D01*
X120060380Y-134034000D01*
X120060380Y-133938761D01*
X120012761Y-133795904D01*
X119965142Y-133748285D01*
X119631809Y-133748285D01*
X119631809Y-133938761D01*
X120060380Y-133319714D02*
X119060380Y-133319714D01*
X120060380Y-132748285D01*
X119060380Y-132748285D01*
X120060380Y-132272095D02*
X119060380Y-132272095D01*
X119060380Y-132034000D01*
X119108000Y-131891142D01*
X119203238Y-131795904D01*
X119298476Y-131748285D01*
X119488952Y-131700666D01*
X119631809Y-131700666D01*
X119822285Y-131748285D01*
X119917523Y-131795904D01*
X120012761Y-131891142D01*
X120060380Y-132034000D01*
X120060380Y-132272095D01*
X120060380Y-125836285D02*
X120060380Y-126312476D01*
X119060380Y-126312476D01*
X119060380Y-125312476D02*
X119060380Y-125122000D01*
X119108000Y-125026761D01*
X119203238Y-124931523D01*
X119393714Y-124883904D01*
X119727047Y-124883904D01*
X119917523Y-124931523D01*
X120012761Y-125026761D01*
X120060380Y-125122000D01*
X120060380Y-125312476D01*
X120012761Y-125407714D01*
X119917523Y-125502952D01*
X119727047Y-125550571D01*
X119393714Y-125550571D01*
X119203238Y-125502952D01*
X119108000Y-125407714D01*
X119060380Y-125312476D01*
X119108000Y-123931523D02*
X119060380Y-124026761D01*
X119060380Y-124169619D01*
X119108000Y-124312476D01*
X119203238Y-124407714D01*
X119298476Y-124455333D01*
X119488952Y-124502952D01*
X119631809Y-124502952D01*
X119822285Y-124455333D01*
X119917523Y-124407714D01*
X120012761Y-124312476D01*
X120060380Y-124169619D01*
X120060380Y-124074380D01*
X120012761Y-123931523D01*
X119965142Y-123883904D01*
X119631809Y-123883904D01*
X119631809Y-124074380D01*
X119774666Y-118341047D02*
X119774666Y-117864857D01*
X120060380Y-118436285D02*
X119060380Y-118102952D01*
X120060380Y-117769619D01*
X119965142Y-116864857D02*
X120012761Y-116912476D01*
X120060380Y-117055333D01*
X120060380Y-117150571D01*
X120012761Y-117293428D01*
X119917523Y-117388666D01*
X119822285Y-117436285D01*
X119631809Y-117483904D01*
X119488952Y-117483904D01*
X119298476Y-117436285D01*
X119203238Y-117388666D01*
X119108000Y-117293428D01*
X119060380Y-117150571D01*
X119060380Y-117055333D01*
X119108000Y-116912476D01*
X119155619Y-116864857D01*
X119060380Y-116579142D02*
X119060380Y-116007714D01*
X120060380Y-116293428D02*
X119060380Y-116293428D01*
G04 #@! TO.C,Conn15*
X56274666Y-118341047D02*
X56274666Y-117864857D01*
X56560380Y-118436285D02*
X55560380Y-118102952D01*
X56560380Y-117769619D01*
X56465142Y-116864857D02*
X56512761Y-116912476D01*
X56560380Y-117055333D01*
X56560380Y-117150571D01*
X56512761Y-117293428D01*
X56417523Y-117388666D01*
X56322285Y-117436285D01*
X56131809Y-117483904D01*
X55988952Y-117483904D01*
X55798476Y-117436285D01*
X55703238Y-117388666D01*
X55608000Y-117293428D01*
X55560380Y-117150571D01*
X55560380Y-117055333D01*
X55608000Y-116912476D01*
X55655619Y-116864857D01*
X55560380Y-116579142D02*
X55560380Y-116007714D01*
X56560380Y-116293428D02*
X55560380Y-116293428D01*
X56560380Y-125836285D02*
X56560380Y-126312476D01*
X55560380Y-126312476D01*
X55560380Y-125312476D02*
X55560380Y-125122000D01*
X55608000Y-125026761D01*
X55703238Y-124931523D01*
X55893714Y-124883904D01*
X56227047Y-124883904D01*
X56417523Y-124931523D01*
X56512761Y-125026761D01*
X56560380Y-125122000D01*
X56560380Y-125312476D01*
X56512761Y-125407714D01*
X56417523Y-125502952D01*
X56227047Y-125550571D01*
X55893714Y-125550571D01*
X55703238Y-125502952D01*
X55608000Y-125407714D01*
X55560380Y-125312476D01*
X55608000Y-123931523D02*
X55560380Y-124026761D01*
X55560380Y-124169619D01*
X55608000Y-124312476D01*
X55703238Y-124407714D01*
X55798476Y-124455333D01*
X55988952Y-124502952D01*
X56131809Y-124502952D01*
X56322285Y-124455333D01*
X56417523Y-124407714D01*
X56512761Y-124312476D01*
X56560380Y-124169619D01*
X56560380Y-124074380D01*
X56512761Y-123931523D01*
X56465142Y-123883904D01*
X56131809Y-123883904D01*
X56131809Y-124074380D01*
X55608000Y-133795904D02*
X55560380Y-133891142D01*
X55560380Y-134034000D01*
X55608000Y-134176857D01*
X55703238Y-134272095D01*
X55798476Y-134319714D01*
X55988952Y-134367333D01*
X56131809Y-134367333D01*
X56322285Y-134319714D01*
X56417523Y-134272095D01*
X56512761Y-134176857D01*
X56560380Y-134034000D01*
X56560380Y-133938761D01*
X56512761Y-133795904D01*
X56465142Y-133748285D01*
X56131809Y-133748285D01*
X56131809Y-133938761D01*
X56560380Y-133319714D02*
X55560380Y-133319714D01*
X56560380Y-132748285D01*
X55560380Y-132748285D01*
X56560380Y-132272095D02*
X55560380Y-132272095D01*
X55560380Y-132034000D01*
X55608000Y-131891142D01*
X55703238Y-131795904D01*
X55798476Y-131748285D01*
X55988952Y-131700666D01*
X56131809Y-131700666D01*
X56322285Y-131748285D01*
X56417523Y-131795904D01*
X56512761Y-131891142D01*
X56560380Y-132034000D01*
X56560380Y-132272095D01*
G04 #@! TO.C,Conn16*
X131808000Y-133857904D02*
X131760380Y-133953142D01*
X131760380Y-134096000D01*
X131808000Y-134238857D01*
X131903238Y-134334095D01*
X131998476Y-134381714D01*
X132188952Y-134429333D01*
X132331809Y-134429333D01*
X132522285Y-134381714D01*
X132617523Y-134334095D01*
X132712761Y-134238857D01*
X132760380Y-134096000D01*
X132760380Y-134000761D01*
X132712761Y-133857904D01*
X132665142Y-133810285D01*
X132331809Y-133810285D01*
X132331809Y-134000761D01*
X132760380Y-133381714D02*
X131760380Y-133381714D01*
X132760380Y-132810285D01*
X131760380Y-132810285D01*
X132760380Y-132334095D02*
X131760380Y-132334095D01*
X131760380Y-132096000D01*
X131808000Y-131953142D01*
X131903238Y-131857904D01*
X131998476Y-131810285D01*
X132188952Y-131762666D01*
X132331809Y-131762666D01*
X132522285Y-131810285D01*
X132617523Y-131857904D01*
X132712761Y-131953142D01*
X132760380Y-132096000D01*
X132760380Y-132334095D01*
X132760380Y-125898285D02*
X132760380Y-126374476D01*
X131760380Y-126374476D01*
X131760380Y-125374476D02*
X131760380Y-125184000D01*
X131808000Y-125088761D01*
X131903238Y-124993523D01*
X132093714Y-124945904D01*
X132427047Y-124945904D01*
X132617523Y-124993523D01*
X132712761Y-125088761D01*
X132760380Y-125184000D01*
X132760380Y-125374476D01*
X132712761Y-125469714D01*
X132617523Y-125564952D01*
X132427047Y-125612571D01*
X132093714Y-125612571D01*
X131903238Y-125564952D01*
X131808000Y-125469714D01*
X131760380Y-125374476D01*
X131808000Y-123993523D02*
X131760380Y-124088761D01*
X131760380Y-124231619D01*
X131808000Y-124374476D01*
X131903238Y-124469714D01*
X131998476Y-124517333D01*
X132188952Y-124564952D01*
X132331809Y-124564952D01*
X132522285Y-124517333D01*
X132617523Y-124469714D01*
X132712761Y-124374476D01*
X132760380Y-124231619D01*
X132760380Y-124136380D01*
X132712761Y-123993523D01*
X132665142Y-123945904D01*
X132331809Y-123945904D01*
X132331809Y-124136380D01*
X132474666Y-118403047D02*
X132474666Y-117926857D01*
X132760380Y-118498285D02*
X131760380Y-118164952D01*
X132760380Y-117831619D01*
X132665142Y-116926857D02*
X132712761Y-116974476D01*
X132760380Y-117117333D01*
X132760380Y-117212571D01*
X132712761Y-117355428D01*
X132617523Y-117450666D01*
X132522285Y-117498285D01*
X132331809Y-117545904D01*
X132188952Y-117545904D01*
X131998476Y-117498285D01*
X131903238Y-117450666D01*
X131808000Y-117355428D01*
X131760380Y-117212571D01*
X131760380Y-117117333D01*
X131808000Y-116974476D01*
X131855619Y-116926857D01*
X131760380Y-116641142D02*
X131760380Y-116069714D01*
X132760380Y-116355428D02*
X131760380Y-116355428D01*
G04 #@! TO.C,Q1*
X57735799Y-93329892D02*
X57688180Y-93425130D01*
X57592941Y-93520368D01*
X57450084Y-93663225D01*
X57402465Y-93758463D01*
X57402465Y-93853701D01*
X57640560Y-93806082D02*
X57592941Y-93901320D01*
X57497703Y-93996558D01*
X57307227Y-94044177D01*
X56973894Y-94044177D01*
X56783418Y-93996558D01*
X56688180Y-93901320D01*
X56640560Y-93806082D01*
X56640560Y-93615606D01*
X56688180Y-93520368D01*
X56783418Y-93425130D01*
X56973894Y-93377511D01*
X57307227Y-93377511D01*
X57497703Y-93425130D01*
X57592941Y-93520368D01*
X57640560Y-93615606D01*
X57640560Y-93806082D01*
X57640560Y-92425130D02*
X57640560Y-92996558D01*
X57640560Y-92710844D02*
X56640560Y-92710844D01*
X56783418Y-92806082D01*
X56878656Y-92901320D01*
X56926275Y-92996558D01*
G04 #@! TO.C,Q2*
X66735799Y-80434892D02*
X66688180Y-80530130D01*
X66592941Y-80625368D01*
X66450084Y-80768225D01*
X66402465Y-80863463D01*
X66402465Y-80958701D01*
X66640560Y-80911082D02*
X66592941Y-81006320D01*
X66497703Y-81101558D01*
X66307227Y-81149177D01*
X65973894Y-81149177D01*
X65783418Y-81101558D01*
X65688180Y-81006320D01*
X65640560Y-80911082D01*
X65640560Y-80720606D01*
X65688180Y-80625368D01*
X65783418Y-80530130D01*
X65973894Y-80482511D01*
X66307227Y-80482511D01*
X66497703Y-80530130D01*
X66592941Y-80625368D01*
X66640560Y-80720606D01*
X66640560Y-80911082D01*
X65735799Y-80101558D02*
X65688180Y-80053939D01*
X65640560Y-79958701D01*
X65640560Y-79720606D01*
X65688180Y-79625368D01*
X65735799Y-79577749D01*
X65831037Y-79530130D01*
X65926275Y-79530130D01*
X66069132Y-79577749D01*
X66640560Y-80149177D01*
X66640560Y-79530130D01*
G04 #@! TO.C,Q3*
X53244761Y-98877619D02*
X53149523Y-98830000D01*
X53054285Y-98734761D01*
X52911428Y-98591904D01*
X52816190Y-98544285D01*
X52720952Y-98544285D01*
X52768571Y-98782380D02*
X52673333Y-98734761D01*
X52578095Y-98639523D01*
X52530476Y-98449047D01*
X52530476Y-98115714D01*
X52578095Y-97925238D01*
X52673333Y-97830000D01*
X52768571Y-97782380D01*
X52959047Y-97782380D01*
X53054285Y-97830000D01*
X53149523Y-97925238D01*
X53197142Y-98115714D01*
X53197142Y-98449047D01*
X53149523Y-98639523D01*
X53054285Y-98734761D01*
X52959047Y-98782380D01*
X52768571Y-98782380D01*
X53530476Y-97782380D02*
X54149523Y-97782380D01*
X53816190Y-98163333D01*
X53959047Y-98163333D01*
X54054285Y-98210952D01*
X54101904Y-98258571D01*
X54149523Y-98353809D01*
X54149523Y-98591904D01*
X54101904Y-98687142D01*
X54054285Y-98734761D01*
X53959047Y-98782380D01*
X53673333Y-98782380D01*
X53578095Y-98734761D01*
X53530476Y-98687142D01*
G04 #@! TO.C,Q4*
X63404761Y-67127619D02*
X63309523Y-67080000D01*
X63214285Y-66984761D01*
X63071428Y-66841904D01*
X62976190Y-66794285D01*
X62880952Y-66794285D01*
X62928571Y-67032380D02*
X62833333Y-66984761D01*
X62738095Y-66889523D01*
X62690476Y-66699047D01*
X62690476Y-66365714D01*
X62738095Y-66175238D01*
X62833333Y-66080000D01*
X62928571Y-66032380D01*
X63119047Y-66032380D01*
X63214285Y-66080000D01*
X63309523Y-66175238D01*
X63357142Y-66365714D01*
X63357142Y-66699047D01*
X63309523Y-66889523D01*
X63214285Y-66984761D01*
X63119047Y-67032380D01*
X62928571Y-67032380D01*
X64214285Y-66365714D02*
X64214285Y-67032380D01*
X63976190Y-65984761D02*
X63738095Y-66699047D01*
X64357142Y-66699047D01*
G04 #@! TO.C,Q5*
X156961543Y-137353679D02*
X156866305Y-137306060D01*
X156771067Y-137210821D01*
X156628210Y-137067964D01*
X156532972Y-137020345D01*
X156437734Y-137020345D01*
X156485353Y-137258440D02*
X156390115Y-137210821D01*
X156294877Y-137115583D01*
X156247258Y-136925107D01*
X156247258Y-136591774D01*
X156294877Y-136401298D01*
X156390115Y-136306060D01*
X156485353Y-136258440D01*
X156675829Y-136258440D01*
X156771067Y-136306060D01*
X156866305Y-136401298D01*
X156913924Y-136591774D01*
X156913924Y-136925107D01*
X156866305Y-137115583D01*
X156771067Y-137210821D01*
X156675829Y-137258440D01*
X156485353Y-137258440D01*
X157818686Y-136258440D02*
X157342496Y-136258440D01*
X157294877Y-136734631D01*
X157342496Y-136687012D01*
X157437734Y-136639393D01*
X157675829Y-136639393D01*
X157771067Y-136687012D01*
X157818686Y-136734631D01*
X157866305Y-136829869D01*
X157866305Y-137067964D01*
X157818686Y-137163202D01*
X157771067Y-137210821D01*
X157675829Y-137258440D01*
X157437734Y-137258440D01*
X157342496Y-137210821D01*
X157294877Y-137163202D01*
G04 #@! TO.C,Q6*
X170051543Y-146353679D02*
X169956305Y-146306060D01*
X169861067Y-146210821D01*
X169718210Y-146067964D01*
X169622972Y-146020345D01*
X169527734Y-146020345D01*
X169575353Y-146258440D02*
X169480115Y-146210821D01*
X169384877Y-146115583D01*
X169337258Y-145925107D01*
X169337258Y-145591774D01*
X169384877Y-145401298D01*
X169480115Y-145306060D01*
X169575353Y-145258440D01*
X169765829Y-145258440D01*
X169861067Y-145306060D01*
X169956305Y-145401298D01*
X170003924Y-145591774D01*
X170003924Y-145925107D01*
X169956305Y-146115583D01*
X169861067Y-146210821D01*
X169765829Y-146258440D01*
X169575353Y-146258440D01*
X170861067Y-145258440D02*
X170670591Y-145258440D01*
X170575353Y-145306060D01*
X170527734Y-145353679D01*
X170432496Y-145496536D01*
X170384877Y-145687012D01*
X170384877Y-146067964D01*
X170432496Y-146163202D01*
X170480115Y-146210821D01*
X170575353Y-146258440D01*
X170765829Y-146258440D01*
X170861067Y-146210821D01*
X170908686Y-146163202D01*
X170956305Y-146067964D01*
X170956305Y-145829869D01*
X170908686Y-145734631D01*
X170861067Y-145687012D01*
X170765829Y-145639393D01*
X170575353Y-145639393D01*
X170480115Y-145687012D01*
X170432496Y-145734631D01*
X170384877Y-145829869D01*
G04 #@! TO.C,Q7*
X154297619Y-130330238D02*
X154250000Y-130425476D01*
X154154761Y-130520714D01*
X154011904Y-130663571D01*
X153964285Y-130758809D01*
X153964285Y-130854047D01*
X154202380Y-130806428D02*
X154154761Y-130901666D01*
X154059523Y-130996904D01*
X153869047Y-131044523D01*
X153535714Y-131044523D01*
X153345238Y-130996904D01*
X153250000Y-130901666D01*
X153202380Y-130806428D01*
X153202380Y-130615952D01*
X153250000Y-130520714D01*
X153345238Y-130425476D01*
X153535714Y-130377857D01*
X153869047Y-130377857D01*
X154059523Y-130425476D01*
X154154761Y-130520714D01*
X154202380Y-130615952D01*
X154202380Y-130806428D01*
X153202380Y-130044523D02*
X153202380Y-129377857D01*
X154202380Y-129806428D01*
G04 #@! TO.C,Q8*
X184231559Y-144121298D02*
X184183940Y-144216536D01*
X184088701Y-144311774D01*
X183945844Y-144454631D01*
X183898225Y-144549869D01*
X183898225Y-144645107D01*
X184136320Y-144597488D02*
X184088701Y-144692726D01*
X183993463Y-144787964D01*
X183802987Y-144835583D01*
X183469654Y-144835583D01*
X183279178Y-144787964D01*
X183183940Y-144692726D01*
X183136320Y-144597488D01*
X183136320Y-144407012D01*
X183183940Y-144311774D01*
X183279178Y-144216536D01*
X183469654Y-144168917D01*
X183802987Y-144168917D01*
X183993463Y-144216536D01*
X184088701Y-144311774D01*
X184136320Y-144407012D01*
X184136320Y-144597488D01*
X183564892Y-143597488D02*
X183517273Y-143692726D01*
X183469654Y-143740345D01*
X183374416Y-143787964D01*
X183326797Y-143787964D01*
X183231559Y-143740345D01*
X183183940Y-143692726D01*
X183136320Y-143597488D01*
X183136320Y-143407012D01*
X183183940Y-143311774D01*
X183231559Y-143264155D01*
X183326797Y-143216536D01*
X183374416Y-143216536D01*
X183469654Y-143264155D01*
X183517273Y-143311774D01*
X183564892Y-143407012D01*
X183564892Y-143597488D01*
X183612511Y-143692726D01*
X183660130Y-143740345D01*
X183755368Y-143787964D01*
X183945844Y-143787964D01*
X184041082Y-143740345D01*
X184088701Y-143692726D01*
X184136320Y-143597488D01*
X184136320Y-143407012D01*
X184088701Y-143311774D01*
X184041082Y-143264155D01*
X183945844Y-143216536D01*
X183755368Y-143216536D01*
X183660130Y-143264155D01*
X183612511Y-143311774D01*
X183564892Y-143407012D01*
G04 #@! TO.C,Q9*
X79568679Y-93228456D02*
X79521060Y-93323694D01*
X79425821Y-93418932D01*
X79282964Y-93561789D01*
X79235345Y-93657027D01*
X79235345Y-93752265D01*
X79473440Y-93704646D02*
X79425821Y-93799884D01*
X79330583Y-93895122D01*
X79140107Y-93942741D01*
X78806774Y-93942741D01*
X78616298Y-93895122D01*
X78521060Y-93799884D01*
X78473440Y-93704646D01*
X78473440Y-93514170D01*
X78521060Y-93418932D01*
X78616298Y-93323694D01*
X78806774Y-93276075D01*
X79140107Y-93276075D01*
X79330583Y-93323694D01*
X79425821Y-93418932D01*
X79473440Y-93514170D01*
X79473440Y-93704646D01*
X79473440Y-92799884D02*
X79473440Y-92609408D01*
X79425821Y-92514170D01*
X79378202Y-92466551D01*
X79235345Y-92371313D01*
X79044869Y-92323694D01*
X78663917Y-92323694D01*
X78568679Y-92371313D01*
X78521060Y-92418932D01*
X78473440Y-92514170D01*
X78473440Y-92704646D01*
X78521060Y-92799884D01*
X78568679Y-92847503D01*
X78663917Y-92895122D01*
X78902012Y-92895122D01*
X78997250Y-92847503D01*
X79044869Y-92799884D01*
X79092488Y-92704646D01*
X79092488Y-92514170D01*
X79044869Y-92418932D01*
X78997250Y-92371313D01*
X78902012Y-92323694D01*
G04 #@! TO.C,Q10*
X88313679Y-80844646D02*
X88266060Y-80939884D01*
X88170821Y-81035122D01*
X88027964Y-81177979D01*
X87980345Y-81273218D01*
X87980345Y-81368456D01*
X88218440Y-81320837D02*
X88170821Y-81416075D01*
X88075583Y-81511313D01*
X87885107Y-81558932D01*
X87551774Y-81558932D01*
X87361298Y-81511313D01*
X87266060Y-81416075D01*
X87218440Y-81320837D01*
X87218440Y-81130360D01*
X87266060Y-81035122D01*
X87361298Y-80939884D01*
X87551774Y-80892265D01*
X87885107Y-80892265D01*
X88075583Y-80939884D01*
X88170821Y-81035122D01*
X88218440Y-81130360D01*
X88218440Y-81320837D01*
X88218440Y-79939884D02*
X88218440Y-80511313D01*
X88218440Y-80225598D02*
X87218440Y-80225598D01*
X87361298Y-80320837D01*
X87456536Y-80416075D01*
X87504155Y-80511313D01*
X87218440Y-79320837D02*
X87218440Y-79225598D01*
X87266060Y-79130360D01*
X87313679Y-79082741D01*
X87408917Y-79035122D01*
X87599393Y-78987503D01*
X87837488Y-78987503D01*
X88027964Y-79035122D01*
X88123202Y-79082741D01*
X88170821Y-79130360D01*
X88218440Y-79225598D01*
X88218440Y-79320837D01*
X88170821Y-79416075D01*
X88123202Y-79463694D01*
X88027964Y-79511313D01*
X87837488Y-79558932D01*
X87599393Y-79558932D01*
X87408917Y-79511313D01*
X87313679Y-79463694D01*
X87266060Y-79416075D01*
X87218440Y-79320837D01*
G04 #@! TO.C,Q11*
X73148571Y-99527619D02*
X73053333Y-99480000D01*
X72958095Y-99384761D01*
X72815238Y-99241904D01*
X72720000Y-99194285D01*
X72624761Y-99194285D01*
X72672380Y-99432380D02*
X72577142Y-99384761D01*
X72481904Y-99289523D01*
X72434285Y-99099047D01*
X72434285Y-98765714D01*
X72481904Y-98575238D01*
X72577142Y-98480000D01*
X72672380Y-98432380D01*
X72862857Y-98432380D01*
X72958095Y-98480000D01*
X73053333Y-98575238D01*
X73100952Y-98765714D01*
X73100952Y-99099047D01*
X73053333Y-99289523D01*
X72958095Y-99384761D01*
X72862857Y-99432380D01*
X72672380Y-99432380D01*
X74053333Y-99432380D02*
X73481904Y-99432380D01*
X73767619Y-99432380D02*
X73767619Y-98432380D01*
X73672380Y-98575238D01*
X73577142Y-98670476D01*
X73481904Y-98718095D01*
X75005714Y-99432380D02*
X74434285Y-99432380D01*
X74720000Y-99432380D02*
X74720000Y-98432380D01*
X74624761Y-98575238D01*
X74529523Y-98670476D01*
X74434285Y-98718095D01*
G04 #@! TO.C,Q12*
X85728571Y-67762619D02*
X85633333Y-67715000D01*
X85538095Y-67619761D01*
X85395238Y-67476904D01*
X85300000Y-67429285D01*
X85204761Y-67429285D01*
X85252380Y-67667380D02*
X85157142Y-67619761D01*
X85061904Y-67524523D01*
X85014285Y-67334047D01*
X85014285Y-67000714D01*
X85061904Y-66810238D01*
X85157142Y-66715000D01*
X85252380Y-66667380D01*
X85442857Y-66667380D01*
X85538095Y-66715000D01*
X85633333Y-66810238D01*
X85680952Y-67000714D01*
X85680952Y-67334047D01*
X85633333Y-67524523D01*
X85538095Y-67619761D01*
X85442857Y-67667380D01*
X85252380Y-67667380D01*
X86633333Y-67667380D02*
X86061904Y-67667380D01*
X86347619Y-67667380D02*
X86347619Y-66667380D01*
X86252380Y-66810238D01*
X86157142Y-66905476D01*
X86061904Y-66953095D01*
X87014285Y-66762619D02*
X87061904Y-66715000D01*
X87157142Y-66667380D01*
X87395238Y-66667380D01*
X87490476Y-66715000D01*
X87538095Y-66762619D01*
X87585714Y-66857857D01*
X87585714Y-66953095D01*
X87538095Y-67095952D01*
X86966666Y-67667380D01*
X87585714Y-67667380D01*
G04 #@! TO.C,Q13*
X156485353Y-116398679D02*
X156390115Y-116351060D01*
X156294877Y-116255821D01*
X156152020Y-116112964D01*
X156056782Y-116065345D01*
X155961543Y-116065345D01*
X156009162Y-116303440D02*
X155913924Y-116255821D01*
X155818686Y-116160583D01*
X155771067Y-115970107D01*
X155771067Y-115636774D01*
X155818686Y-115446298D01*
X155913924Y-115351060D01*
X156009162Y-115303440D01*
X156199639Y-115303440D01*
X156294877Y-115351060D01*
X156390115Y-115446298D01*
X156437734Y-115636774D01*
X156437734Y-115970107D01*
X156390115Y-116160583D01*
X156294877Y-116255821D01*
X156199639Y-116303440D01*
X156009162Y-116303440D01*
X157390115Y-116303440D02*
X156818686Y-116303440D01*
X157104401Y-116303440D02*
X157104401Y-115303440D01*
X157009162Y-115446298D01*
X156913924Y-115541536D01*
X156818686Y-115589155D01*
X157723448Y-115303440D02*
X158342496Y-115303440D01*
X158009162Y-115684393D01*
X158152020Y-115684393D01*
X158247258Y-115732012D01*
X158294877Y-115779631D01*
X158342496Y-115874869D01*
X158342496Y-116112964D01*
X158294877Y-116208202D01*
X158247258Y-116255821D01*
X158152020Y-116303440D01*
X157866305Y-116303440D01*
X157771067Y-116255821D01*
X157723448Y-116208202D01*
G04 #@! TO.C,Q14*
X169345353Y-125398679D02*
X169250115Y-125351060D01*
X169154877Y-125255821D01*
X169012020Y-125112964D01*
X168916782Y-125065345D01*
X168821543Y-125065345D01*
X168869162Y-125303440D02*
X168773924Y-125255821D01*
X168678686Y-125160583D01*
X168631067Y-124970107D01*
X168631067Y-124636774D01*
X168678686Y-124446298D01*
X168773924Y-124351060D01*
X168869162Y-124303440D01*
X169059639Y-124303440D01*
X169154877Y-124351060D01*
X169250115Y-124446298D01*
X169297734Y-124636774D01*
X169297734Y-124970107D01*
X169250115Y-125160583D01*
X169154877Y-125255821D01*
X169059639Y-125303440D01*
X168869162Y-125303440D01*
X170250115Y-125303440D02*
X169678686Y-125303440D01*
X169964401Y-125303440D02*
X169964401Y-124303440D01*
X169869162Y-124446298D01*
X169773924Y-124541536D01*
X169678686Y-124589155D01*
X171107258Y-124636774D02*
X171107258Y-125303440D01*
X170869162Y-124255821D02*
X170631067Y-124970107D01*
X171250115Y-124970107D01*
G04 #@! TO.C,Q15*
X151137619Y-114176428D02*
X151090000Y-114271666D01*
X150994761Y-114366904D01*
X150851904Y-114509761D01*
X150804285Y-114605000D01*
X150804285Y-114700238D01*
X151042380Y-114652619D02*
X150994761Y-114747857D01*
X150899523Y-114843095D01*
X150709047Y-114890714D01*
X150375714Y-114890714D01*
X150185238Y-114843095D01*
X150090000Y-114747857D01*
X150042380Y-114652619D01*
X150042380Y-114462142D01*
X150090000Y-114366904D01*
X150185238Y-114271666D01*
X150375714Y-114224047D01*
X150709047Y-114224047D01*
X150899523Y-114271666D01*
X150994761Y-114366904D01*
X151042380Y-114462142D01*
X151042380Y-114652619D01*
X151042380Y-113271666D02*
X151042380Y-113843095D01*
X151042380Y-113557380D02*
X150042380Y-113557380D01*
X150185238Y-113652619D01*
X150280476Y-113747857D01*
X150328095Y-113843095D01*
X150042380Y-112366904D02*
X150042380Y-112843095D01*
X150518571Y-112890714D01*
X150470952Y-112843095D01*
X150423333Y-112747857D01*
X150423333Y-112509761D01*
X150470952Y-112414523D01*
X150518571Y-112366904D01*
X150613809Y-112319285D01*
X150851904Y-112319285D01*
X150947142Y-112366904D01*
X150994761Y-112414523D01*
X151042380Y-112509761D01*
X151042380Y-112747857D01*
X150994761Y-112843095D01*
X150947142Y-112890714D01*
G04 #@! TO.C,Q16*
X184157619Y-123761428D02*
X184110000Y-123856666D01*
X184014761Y-123951904D01*
X183871904Y-124094761D01*
X183824285Y-124190000D01*
X183824285Y-124285238D01*
X184062380Y-124237619D02*
X184014761Y-124332857D01*
X183919523Y-124428095D01*
X183729047Y-124475714D01*
X183395714Y-124475714D01*
X183205238Y-124428095D01*
X183110000Y-124332857D01*
X183062380Y-124237619D01*
X183062380Y-124047142D01*
X183110000Y-123951904D01*
X183205238Y-123856666D01*
X183395714Y-123809047D01*
X183729047Y-123809047D01*
X183919523Y-123856666D01*
X184014761Y-123951904D01*
X184062380Y-124047142D01*
X184062380Y-124237619D01*
X184062380Y-122856666D02*
X184062380Y-123428095D01*
X184062380Y-123142380D02*
X183062380Y-123142380D01*
X183205238Y-123237619D01*
X183300476Y-123332857D01*
X183348095Y-123428095D01*
X183062380Y-121999523D02*
X183062380Y-122190000D01*
X183110000Y-122285238D01*
X183157619Y-122332857D01*
X183300476Y-122428095D01*
X183490952Y-122475714D01*
X183871904Y-122475714D01*
X183967142Y-122428095D01*
X184014761Y-122380476D01*
X184062380Y-122285238D01*
X184062380Y-122094761D01*
X184014761Y-121999523D01*
X183967142Y-121951904D01*
X183871904Y-121904285D01*
X183633809Y-121904285D01*
X183538571Y-121951904D01*
X183490952Y-121999523D01*
X183443333Y-122094761D01*
X183443333Y-122285238D01*
X183490952Y-122380476D01*
X183538571Y-122428095D01*
X183633809Y-122475714D01*
G04 #@! TO.C,Q17*
X101158679Y-93704646D02*
X101111060Y-93799884D01*
X101015821Y-93895122D01*
X100872964Y-94037979D01*
X100825345Y-94133218D01*
X100825345Y-94228456D01*
X101063440Y-94180837D02*
X101015821Y-94276075D01*
X100920583Y-94371313D01*
X100730107Y-94418932D01*
X100396774Y-94418932D01*
X100206298Y-94371313D01*
X100111060Y-94276075D01*
X100063440Y-94180837D01*
X100063440Y-93990360D01*
X100111060Y-93895122D01*
X100206298Y-93799884D01*
X100396774Y-93752265D01*
X100730107Y-93752265D01*
X100920583Y-93799884D01*
X101015821Y-93895122D01*
X101063440Y-93990360D01*
X101063440Y-94180837D01*
X101063440Y-92799884D02*
X101063440Y-93371313D01*
X101063440Y-93085598D02*
X100063440Y-93085598D01*
X100206298Y-93180837D01*
X100301536Y-93276075D01*
X100349155Y-93371313D01*
X100063440Y-92466551D02*
X100063440Y-91799884D01*
X101063440Y-92228456D01*
G04 #@! TO.C,Q18*
X110158679Y-81249646D02*
X110111060Y-81344884D01*
X110015821Y-81440122D01*
X109872964Y-81582979D01*
X109825345Y-81678218D01*
X109825345Y-81773456D01*
X110063440Y-81725837D02*
X110015821Y-81821075D01*
X109920583Y-81916313D01*
X109730107Y-81963932D01*
X109396774Y-81963932D01*
X109206298Y-81916313D01*
X109111060Y-81821075D01*
X109063440Y-81725837D01*
X109063440Y-81535360D01*
X109111060Y-81440122D01*
X109206298Y-81344884D01*
X109396774Y-81297265D01*
X109730107Y-81297265D01*
X109920583Y-81344884D01*
X110015821Y-81440122D01*
X110063440Y-81535360D01*
X110063440Y-81725837D01*
X110063440Y-80344884D02*
X110063440Y-80916313D01*
X110063440Y-80630598D02*
X109063440Y-80630598D01*
X109206298Y-80725837D01*
X109301536Y-80821075D01*
X109349155Y-80916313D01*
X109492012Y-79773456D02*
X109444393Y-79868694D01*
X109396774Y-79916313D01*
X109301536Y-79963932D01*
X109253917Y-79963932D01*
X109158679Y-79916313D01*
X109111060Y-79868694D01*
X109063440Y-79773456D01*
X109063440Y-79582979D01*
X109111060Y-79487741D01*
X109158679Y-79440122D01*
X109253917Y-79392503D01*
X109301536Y-79392503D01*
X109396774Y-79440122D01*
X109444393Y-79487741D01*
X109492012Y-79582979D01*
X109492012Y-79773456D01*
X109539631Y-79868694D01*
X109587250Y-79916313D01*
X109682488Y-79963932D01*
X109872964Y-79963932D01*
X109968202Y-79916313D01*
X110015821Y-79868694D01*
X110063440Y-79773456D01*
X110063440Y-79582979D01*
X110015821Y-79487741D01*
X109968202Y-79440122D01*
X109872964Y-79392503D01*
X109682488Y-79392503D01*
X109587250Y-79440122D01*
X109539631Y-79487741D01*
X109492012Y-79582979D01*
G04 #@! TO.C,Q19*
X94678571Y-99512619D02*
X94583333Y-99465000D01*
X94488095Y-99369761D01*
X94345238Y-99226904D01*
X94250000Y-99179285D01*
X94154761Y-99179285D01*
X94202380Y-99417380D02*
X94107142Y-99369761D01*
X94011904Y-99274523D01*
X93964285Y-99084047D01*
X93964285Y-98750714D01*
X94011904Y-98560238D01*
X94107142Y-98465000D01*
X94202380Y-98417380D01*
X94392857Y-98417380D01*
X94488095Y-98465000D01*
X94583333Y-98560238D01*
X94630952Y-98750714D01*
X94630952Y-99084047D01*
X94583333Y-99274523D01*
X94488095Y-99369761D01*
X94392857Y-99417380D01*
X94202380Y-99417380D01*
X95583333Y-99417380D02*
X95011904Y-99417380D01*
X95297619Y-99417380D02*
X95297619Y-98417380D01*
X95202380Y-98560238D01*
X95107142Y-98655476D01*
X95011904Y-98703095D01*
X96059523Y-99417380D02*
X96250000Y-99417380D01*
X96345238Y-99369761D01*
X96392857Y-99322142D01*
X96488095Y-99179285D01*
X96535714Y-98988809D01*
X96535714Y-98607857D01*
X96488095Y-98512619D01*
X96440476Y-98465000D01*
X96345238Y-98417380D01*
X96154761Y-98417380D01*
X96059523Y-98465000D01*
X96011904Y-98512619D01*
X95964285Y-98607857D01*
X95964285Y-98845952D01*
X96011904Y-98941190D01*
X96059523Y-98988809D01*
X96154761Y-99036428D01*
X96345238Y-99036428D01*
X96440476Y-98988809D01*
X96488095Y-98941190D01*
X96535714Y-98845952D01*
G04 #@! TO.C,Q20*
X106803571Y-67777619D02*
X106708333Y-67730000D01*
X106613095Y-67634761D01*
X106470238Y-67491904D01*
X106375000Y-67444285D01*
X106279761Y-67444285D01*
X106327380Y-67682380D02*
X106232142Y-67634761D01*
X106136904Y-67539523D01*
X106089285Y-67349047D01*
X106089285Y-67015714D01*
X106136904Y-66825238D01*
X106232142Y-66730000D01*
X106327380Y-66682380D01*
X106517857Y-66682380D01*
X106613095Y-66730000D01*
X106708333Y-66825238D01*
X106755952Y-67015714D01*
X106755952Y-67349047D01*
X106708333Y-67539523D01*
X106613095Y-67634761D01*
X106517857Y-67682380D01*
X106327380Y-67682380D01*
X107136904Y-66777619D02*
X107184523Y-66730000D01*
X107279761Y-66682380D01*
X107517857Y-66682380D01*
X107613095Y-66730000D01*
X107660714Y-66777619D01*
X107708333Y-66872857D01*
X107708333Y-66968095D01*
X107660714Y-67110952D01*
X107089285Y-67682380D01*
X107708333Y-67682380D01*
X108327380Y-66682380D02*
X108422619Y-66682380D01*
X108517857Y-66730000D01*
X108565476Y-66777619D01*
X108613095Y-66872857D01*
X108660714Y-67063333D01*
X108660714Y-67301428D01*
X108613095Y-67491904D01*
X108565476Y-67587142D01*
X108517857Y-67634761D01*
X108422619Y-67682380D01*
X108327380Y-67682380D01*
X108232142Y-67634761D01*
X108184523Y-67587142D01*
X108136904Y-67491904D01*
X108089285Y-67301428D01*
X108089285Y-67063333D01*
X108136904Y-66872857D01*
X108184523Y-66777619D01*
X108232142Y-66730000D01*
X108327380Y-66682380D01*
G04 #@! TO.C,Q21*
X163008679Y-94612172D02*
X162961060Y-94707410D01*
X162865821Y-94802648D01*
X162722964Y-94945505D01*
X162675345Y-95040744D01*
X162675345Y-95135982D01*
X162913440Y-95088363D02*
X162865821Y-95183601D01*
X162770583Y-95278839D01*
X162580107Y-95326458D01*
X162246774Y-95326458D01*
X162056298Y-95278839D01*
X161961060Y-95183601D01*
X161913440Y-95088363D01*
X161913440Y-94897886D01*
X161961060Y-94802648D01*
X162056298Y-94707410D01*
X162246774Y-94659791D01*
X162580107Y-94659791D01*
X162770583Y-94707410D01*
X162865821Y-94802648D01*
X162913440Y-94897886D01*
X162913440Y-95088363D01*
X162008679Y-94278839D02*
X161961060Y-94231220D01*
X161913440Y-94135982D01*
X161913440Y-93897886D01*
X161961060Y-93802648D01*
X162008679Y-93755029D01*
X162103917Y-93707410D01*
X162199155Y-93707410D01*
X162342012Y-93755029D01*
X162913440Y-94326458D01*
X162913440Y-93707410D01*
X162913440Y-92755029D02*
X162913440Y-93326458D01*
X162913440Y-93040744D02*
X161913440Y-93040744D01*
X162056298Y-93135982D01*
X162151536Y-93231220D01*
X162199155Y-93326458D01*
G04 #@! TO.C,Q22*
X172133679Y-82387172D02*
X172086060Y-82482410D01*
X171990821Y-82577648D01*
X171847964Y-82720505D01*
X171800345Y-82815744D01*
X171800345Y-82910982D01*
X172038440Y-82863363D02*
X171990821Y-82958601D01*
X171895583Y-83053839D01*
X171705107Y-83101458D01*
X171371774Y-83101458D01*
X171181298Y-83053839D01*
X171086060Y-82958601D01*
X171038440Y-82863363D01*
X171038440Y-82672886D01*
X171086060Y-82577648D01*
X171181298Y-82482410D01*
X171371774Y-82434791D01*
X171705107Y-82434791D01*
X171895583Y-82482410D01*
X171990821Y-82577648D01*
X172038440Y-82672886D01*
X172038440Y-82863363D01*
X171133679Y-82053839D02*
X171086060Y-82006220D01*
X171038440Y-81910982D01*
X171038440Y-81672886D01*
X171086060Y-81577648D01*
X171133679Y-81530029D01*
X171228917Y-81482410D01*
X171324155Y-81482410D01*
X171467012Y-81530029D01*
X172038440Y-82101458D01*
X172038440Y-81482410D01*
X171133679Y-81101458D02*
X171086060Y-81053839D01*
X171038440Y-80958601D01*
X171038440Y-80720505D01*
X171086060Y-80625267D01*
X171133679Y-80577648D01*
X171228917Y-80530029D01*
X171324155Y-80530029D01*
X171467012Y-80577648D01*
X172038440Y-81149077D01*
X172038440Y-80530029D01*
G04 #@! TO.C,Q23*
X152403571Y-96337619D02*
X152308333Y-96290000D01*
X152213095Y-96194761D01*
X152070238Y-96051904D01*
X151975000Y-96004285D01*
X151879761Y-96004285D01*
X151927380Y-96242380D02*
X151832142Y-96194761D01*
X151736904Y-96099523D01*
X151689285Y-95909047D01*
X151689285Y-95575714D01*
X151736904Y-95385238D01*
X151832142Y-95290000D01*
X151927380Y-95242380D01*
X152117857Y-95242380D01*
X152213095Y-95290000D01*
X152308333Y-95385238D01*
X152355952Y-95575714D01*
X152355952Y-95909047D01*
X152308333Y-96099523D01*
X152213095Y-96194761D01*
X152117857Y-96242380D01*
X151927380Y-96242380D01*
X152736904Y-95337619D02*
X152784523Y-95290000D01*
X152879761Y-95242380D01*
X153117857Y-95242380D01*
X153213095Y-95290000D01*
X153260714Y-95337619D01*
X153308333Y-95432857D01*
X153308333Y-95528095D01*
X153260714Y-95670952D01*
X152689285Y-96242380D01*
X153308333Y-96242380D01*
X153641666Y-95242380D02*
X154260714Y-95242380D01*
X153927380Y-95623333D01*
X154070238Y-95623333D01*
X154165476Y-95670952D01*
X154213095Y-95718571D01*
X154260714Y-95813809D01*
X154260714Y-96051904D01*
X154213095Y-96147142D01*
X154165476Y-96194761D01*
X154070238Y-96242380D01*
X153784523Y-96242380D01*
X153689285Y-96194761D01*
X153641666Y-96147142D01*
G04 #@! TO.C,Q24*
X168278571Y-66507619D02*
X168183333Y-66460000D01*
X168088095Y-66364761D01*
X167945238Y-66221904D01*
X167850000Y-66174285D01*
X167754761Y-66174285D01*
X167802380Y-66412380D02*
X167707142Y-66364761D01*
X167611904Y-66269523D01*
X167564285Y-66079047D01*
X167564285Y-65745714D01*
X167611904Y-65555238D01*
X167707142Y-65460000D01*
X167802380Y-65412380D01*
X167992857Y-65412380D01*
X168088095Y-65460000D01*
X168183333Y-65555238D01*
X168230952Y-65745714D01*
X168230952Y-66079047D01*
X168183333Y-66269523D01*
X168088095Y-66364761D01*
X167992857Y-66412380D01*
X167802380Y-66412380D01*
X168611904Y-65507619D02*
X168659523Y-65460000D01*
X168754761Y-65412380D01*
X168992857Y-65412380D01*
X169088095Y-65460000D01*
X169135714Y-65507619D01*
X169183333Y-65602857D01*
X169183333Y-65698095D01*
X169135714Y-65840952D01*
X168564285Y-66412380D01*
X169183333Y-66412380D01*
X170040476Y-65745714D02*
X170040476Y-66412380D01*
X169802380Y-65364761D02*
X169564285Y-66079047D01*
X170183333Y-66079047D01*
G04 #@! TO.C,Q25*
X121478679Y-93577646D02*
X121431060Y-93672884D01*
X121335821Y-93768122D01*
X121192964Y-93910979D01*
X121145345Y-94006218D01*
X121145345Y-94101456D01*
X121383440Y-94053837D02*
X121335821Y-94149075D01*
X121240583Y-94244313D01*
X121050107Y-94291932D01*
X120716774Y-94291932D01*
X120526298Y-94244313D01*
X120431060Y-94149075D01*
X120383440Y-94053837D01*
X120383440Y-93863360D01*
X120431060Y-93768122D01*
X120526298Y-93672884D01*
X120716774Y-93625265D01*
X121050107Y-93625265D01*
X121240583Y-93672884D01*
X121335821Y-93768122D01*
X121383440Y-93863360D01*
X121383440Y-94053837D01*
X120478679Y-93244313D02*
X120431060Y-93196694D01*
X120383440Y-93101456D01*
X120383440Y-92863360D01*
X120431060Y-92768122D01*
X120478679Y-92720503D01*
X120573917Y-92672884D01*
X120669155Y-92672884D01*
X120812012Y-92720503D01*
X121383440Y-93291932D01*
X121383440Y-92672884D01*
X120383440Y-91768122D02*
X120383440Y-92244313D01*
X120859631Y-92291932D01*
X120812012Y-92244313D01*
X120764393Y-92149075D01*
X120764393Y-91910979D01*
X120812012Y-91815741D01*
X120859631Y-91768122D01*
X120954869Y-91720503D01*
X121192964Y-91720503D01*
X121288202Y-91768122D01*
X121335821Y-91815741D01*
X121383440Y-91910979D01*
X121383440Y-92149075D01*
X121335821Y-92244313D01*
X121288202Y-92291932D01*
G04 #@! TO.C,Q26*
X130478679Y-81249646D02*
X130431060Y-81344884D01*
X130335821Y-81440122D01*
X130192964Y-81582979D01*
X130145345Y-81678218D01*
X130145345Y-81773456D01*
X130383440Y-81725837D02*
X130335821Y-81821075D01*
X130240583Y-81916313D01*
X130050107Y-81963932D01*
X129716774Y-81963932D01*
X129526298Y-81916313D01*
X129431060Y-81821075D01*
X129383440Y-81725837D01*
X129383440Y-81535360D01*
X129431060Y-81440122D01*
X129526298Y-81344884D01*
X129716774Y-81297265D01*
X130050107Y-81297265D01*
X130240583Y-81344884D01*
X130335821Y-81440122D01*
X130383440Y-81535360D01*
X130383440Y-81725837D01*
X129478679Y-80916313D02*
X129431060Y-80868694D01*
X129383440Y-80773456D01*
X129383440Y-80535360D01*
X129431060Y-80440122D01*
X129478679Y-80392503D01*
X129573917Y-80344884D01*
X129669155Y-80344884D01*
X129812012Y-80392503D01*
X130383440Y-80963932D01*
X130383440Y-80344884D01*
X129383440Y-79487741D02*
X129383440Y-79678218D01*
X129431060Y-79773456D01*
X129478679Y-79821075D01*
X129621536Y-79916313D01*
X129812012Y-79963932D01*
X130192964Y-79963932D01*
X130288202Y-79916313D01*
X130335821Y-79868694D01*
X130383440Y-79773456D01*
X130383440Y-79582979D01*
X130335821Y-79487741D01*
X130288202Y-79440122D01*
X130192964Y-79392503D01*
X129954869Y-79392503D01*
X129859631Y-79440122D01*
X129812012Y-79487741D01*
X129764393Y-79582979D01*
X129764393Y-79773456D01*
X129812012Y-79868694D01*
X129859631Y-79916313D01*
X129954869Y-79963932D01*
G04 #@! TO.C,Q27*
X114998571Y-99512619D02*
X114903333Y-99465000D01*
X114808095Y-99369761D01*
X114665238Y-99226904D01*
X114570000Y-99179285D01*
X114474761Y-99179285D01*
X114522380Y-99417380D02*
X114427142Y-99369761D01*
X114331904Y-99274523D01*
X114284285Y-99084047D01*
X114284285Y-98750714D01*
X114331904Y-98560238D01*
X114427142Y-98465000D01*
X114522380Y-98417380D01*
X114712857Y-98417380D01*
X114808095Y-98465000D01*
X114903333Y-98560238D01*
X114950952Y-98750714D01*
X114950952Y-99084047D01*
X114903333Y-99274523D01*
X114808095Y-99369761D01*
X114712857Y-99417380D01*
X114522380Y-99417380D01*
X115331904Y-98512619D02*
X115379523Y-98465000D01*
X115474761Y-98417380D01*
X115712857Y-98417380D01*
X115808095Y-98465000D01*
X115855714Y-98512619D01*
X115903333Y-98607857D01*
X115903333Y-98703095D01*
X115855714Y-98845952D01*
X115284285Y-99417380D01*
X115903333Y-99417380D01*
X116236666Y-98417380D02*
X116903333Y-98417380D01*
X116474761Y-99417380D01*
G04 #@! TO.C,Q28*
X127063571Y-68397619D02*
X126968333Y-68350000D01*
X126873095Y-68254761D01*
X126730238Y-68111904D01*
X126635000Y-68064285D01*
X126539761Y-68064285D01*
X126587380Y-68302380D02*
X126492142Y-68254761D01*
X126396904Y-68159523D01*
X126349285Y-67969047D01*
X126349285Y-67635714D01*
X126396904Y-67445238D01*
X126492142Y-67350000D01*
X126587380Y-67302380D01*
X126777857Y-67302380D01*
X126873095Y-67350000D01*
X126968333Y-67445238D01*
X127015952Y-67635714D01*
X127015952Y-67969047D01*
X126968333Y-68159523D01*
X126873095Y-68254761D01*
X126777857Y-68302380D01*
X126587380Y-68302380D01*
X127396904Y-67397619D02*
X127444523Y-67350000D01*
X127539761Y-67302380D01*
X127777857Y-67302380D01*
X127873095Y-67350000D01*
X127920714Y-67397619D01*
X127968333Y-67492857D01*
X127968333Y-67588095D01*
X127920714Y-67730952D01*
X127349285Y-68302380D01*
X127968333Y-68302380D01*
X128539761Y-67730952D02*
X128444523Y-67683333D01*
X128396904Y-67635714D01*
X128349285Y-67540476D01*
X128349285Y-67492857D01*
X128396904Y-67397619D01*
X128444523Y-67350000D01*
X128539761Y-67302380D01*
X128730238Y-67302380D01*
X128825476Y-67350000D01*
X128873095Y-67397619D01*
X128920714Y-67492857D01*
X128920714Y-67540476D01*
X128873095Y-67635714D01*
X128825476Y-67683333D01*
X128730238Y-67730952D01*
X128539761Y-67730952D01*
X128444523Y-67778571D01*
X128396904Y-67826190D01*
X128349285Y-67921428D01*
X128349285Y-68111904D01*
X128396904Y-68207142D01*
X128444523Y-68254761D01*
X128539761Y-68302380D01*
X128730238Y-68302380D01*
X128825476Y-68254761D01*
X128873095Y-68207142D01*
X128920714Y-68111904D01*
X128920714Y-67921428D01*
X128873095Y-67826190D01*
X128825476Y-67778571D01*
X128730238Y-67730952D01*
G04 #@! TO.C,Q29*
X142433679Y-93172646D02*
X142386060Y-93267884D01*
X142290821Y-93363122D01*
X142147964Y-93505979D01*
X142100345Y-93601218D01*
X142100345Y-93696456D01*
X142338440Y-93648837D02*
X142290821Y-93744075D01*
X142195583Y-93839313D01*
X142005107Y-93886932D01*
X141671774Y-93886932D01*
X141481298Y-93839313D01*
X141386060Y-93744075D01*
X141338440Y-93648837D01*
X141338440Y-93458360D01*
X141386060Y-93363122D01*
X141481298Y-93267884D01*
X141671774Y-93220265D01*
X142005107Y-93220265D01*
X142195583Y-93267884D01*
X142290821Y-93363122D01*
X142338440Y-93458360D01*
X142338440Y-93648837D01*
X141433679Y-92839313D02*
X141386060Y-92791694D01*
X141338440Y-92696456D01*
X141338440Y-92458360D01*
X141386060Y-92363122D01*
X141433679Y-92315503D01*
X141528917Y-92267884D01*
X141624155Y-92267884D01*
X141767012Y-92315503D01*
X142338440Y-92886932D01*
X142338440Y-92267884D01*
X142338440Y-91791694D02*
X142338440Y-91601218D01*
X142290821Y-91505979D01*
X142243202Y-91458360D01*
X142100345Y-91363122D01*
X141909869Y-91315503D01*
X141528917Y-91315503D01*
X141433679Y-91363122D01*
X141386060Y-91410741D01*
X141338440Y-91505979D01*
X141338440Y-91696456D01*
X141386060Y-91791694D01*
X141433679Y-91839313D01*
X141528917Y-91886932D01*
X141767012Y-91886932D01*
X141862250Y-91839313D01*
X141909869Y-91791694D01*
X141957488Y-91696456D01*
X141957488Y-91505979D01*
X141909869Y-91410741D01*
X141862250Y-91363122D01*
X141767012Y-91315503D01*
G04 #@! TO.C,Q30*
X151688679Y-80892646D02*
X151641060Y-80987884D01*
X151545821Y-81083122D01*
X151402964Y-81225979D01*
X151355345Y-81321218D01*
X151355345Y-81416456D01*
X151593440Y-81368837D02*
X151545821Y-81464075D01*
X151450583Y-81559313D01*
X151260107Y-81606932D01*
X150926774Y-81606932D01*
X150736298Y-81559313D01*
X150641060Y-81464075D01*
X150593440Y-81368837D01*
X150593440Y-81178360D01*
X150641060Y-81083122D01*
X150736298Y-80987884D01*
X150926774Y-80940265D01*
X151260107Y-80940265D01*
X151450583Y-80987884D01*
X151545821Y-81083122D01*
X151593440Y-81178360D01*
X151593440Y-81368837D01*
X150593440Y-80606932D02*
X150593440Y-79987884D01*
X150974393Y-80321218D01*
X150974393Y-80178360D01*
X151022012Y-80083122D01*
X151069631Y-80035503D01*
X151164869Y-79987884D01*
X151402964Y-79987884D01*
X151498202Y-80035503D01*
X151545821Y-80083122D01*
X151593440Y-80178360D01*
X151593440Y-80464075D01*
X151545821Y-80559313D01*
X151498202Y-80606932D01*
X150593440Y-79368837D02*
X150593440Y-79273598D01*
X150641060Y-79178360D01*
X150688679Y-79130741D01*
X150783917Y-79083122D01*
X150974393Y-79035503D01*
X151212488Y-79035503D01*
X151402964Y-79083122D01*
X151498202Y-79130741D01*
X151545821Y-79178360D01*
X151593440Y-79273598D01*
X151593440Y-79368837D01*
X151545821Y-79464075D01*
X151498202Y-79511694D01*
X151402964Y-79559313D01*
X151212488Y-79606932D01*
X150974393Y-79606932D01*
X150783917Y-79559313D01*
X150688679Y-79511694D01*
X150641060Y-79464075D01*
X150593440Y-79368837D01*
G04 #@! TO.C,Q31*
X135953571Y-98242619D02*
X135858333Y-98195000D01*
X135763095Y-98099761D01*
X135620238Y-97956904D01*
X135525000Y-97909285D01*
X135429761Y-97909285D01*
X135477380Y-98147380D02*
X135382142Y-98099761D01*
X135286904Y-98004523D01*
X135239285Y-97814047D01*
X135239285Y-97480714D01*
X135286904Y-97290238D01*
X135382142Y-97195000D01*
X135477380Y-97147380D01*
X135667857Y-97147380D01*
X135763095Y-97195000D01*
X135858333Y-97290238D01*
X135905952Y-97480714D01*
X135905952Y-97814047D01*
X135858333Y-98004523D01*
X135763095Y-98099761D01*
X135667857Y-98147380D01*
X135477380Y-98147380D01*
X136239285Y-97147380D02*
X136858333Y-97147380D01*
X136525000Y-97528333D01*
X136667857Y-97528333D01*
X136763095Y-97575952D01*
X136810714Y-97623571D01*
X136858333Y-97718809D01*
X136858333Y-97956904D01*
X136810714Y-98052142D01*
X136763095Y-98099761D01*
X136667857Y-98147380D01*
X136382142Y-98147380D01*
X136286904Y-98099761D01*
X136239285Y-98052142D01*
X137810714Y-98147380D02*
X137239285Y-98147380D01*
X137525000Y-98147380D02*
X137525000Y-97147380D01*
X137429761Y-97290238D01*
X137334523Y-97385476D01*
X137239285Y-97433095D01*
G04 #@! TO.C,Q32*
X148018571Y-67127619D02*
X147923333Y-67080000D01*
X147828095Y-66984761D01*
X147685238Y-66841904D01*
X147590000Y-66794285D01*
X147494761Y-66794285D01*
X147542380Y-67032380D02*
X147447142Y-66984761D01*
X147351904Y-66889523D01*
X147304285Y-66699047D01*
X147304285Y-66365714D01*
X147351904Y-66175238D01*
X147447142Y-66080000D01*
X147542380Y-66032380D01*
X147732857Y-66032380D01*
X147828095Y-66080000D01*
X147923333Y-66175238D01*
X147970952Y-66365714D01*
X147970952Y-66699047D01*
X147923333Y-66889523D01*
X147828095Y-66984761D01*
X147732857Y-67032380D01*
X147542380Y-67032380D01*
X148304285Y-66032380D02*
X148923333Y-66032380D01*
X148590000Y-66413333D01*
X148732857Y-66413333D01*
X148828095Y-66460952D01*
X148875714Y-66508571D01*
X148923333Y-66603809D01*
X148923333Y-66841904D01*
X148875714Y-66937142D01*
X148828095Y-66984761D01*
X148732857Y-67032380D01*
X148447142Y-67032380D01*
X148351904Y-66984761D01*
X148304285Y-66937142D01*
X149304285Y-66127619D02*
X149351904Y-66080000D01*
X149447142Y-66032380D01*
X149685238Y-66032380D01*
X149780476Y-66080000D01*
X149828095Y-66127619D01*
X149875714Y-66222857D01*
X149875714Y-66318095D01*
X149828095Y-66460952D01*
X149256666Y-67032380D01*
X149875714Y-67032380D01*
G04 #@! TO.C,R1*
X63093333Y-103017034D02*
X62760000Y-102540844D01*
X62521904Y-103017034D02*
X62521904Y-102017034D01*
X62902857Y-102017034D01*
X62998095Y-102064654D01*
X63045714Y-102112273D01*
X63093333Y-102207511D01*
X63093333Y-102350368D01*
X63045714Y-102445606D01*
X62998095Y-102493225D01*
X62902857Y-102540844D01*
X62521904Y-102540844D01*
X64045714Y-103017034D02*
X63474285Y-103017034D01*
X63760000Y-103017034D02*
X63760000Y-102017034D01*
X63664761Y-102159892D01*
X63569523Y-102255130D01*
X63474285Y-102302749D01*
G04 #@! TO.C,R2*
X59281513Y-73982034D02*
X58948180Y-73505844D01*
X58710084Y-73982034D02*
X58710084Y-72982034D01*
X59091037Y-72982034D01*
X59186275Y-73029654D01*
X59233894Y-73077273D01*
X59281513Y-73172511D01*
X59281513Y-73315368D01*
X59233894Y-73410606D01*
X59186275Y-73458225D01*
X59091037Y-73505844D01*
X58710084Y-73505844D01*
X59662465Y-73077273D02*
X59710084Y-73029654D01*
X59805322Y-72982034D01*
X60043418Y-72982034D01*
X60138656Y-73029654D01*
X60186275Y-73077273D01*
X60233894Y-73172511D01*
X60233894Y-73267749D01*
X60186275Y-73410606D01*
X59614846Y-73982034D01*
X60233894Y-73982034D01*
G04 #@! TO.C,R3*
X58106513Y-102687380D02*
X57773180Y-102211190D01*
X57535084Y-102687380D02*
X57535084Y-101687380D01*
X57916037Y-101687380D01*
X58011275Y-101735000D01*
X58058894Y-101782619D01*
X58106513Y-101877857D01*
X58106513Y-102020714D01*
X58058894Y-102115952D01*
X58011275Y-102163571D01*
X57916037Y-102211190D01*
X57535084Y-102211190D01*
X58439846Y-101687380D02*
X59058894Y-101687380D01*
X58725560Y-102068333D01*
X58868418Y-102068333D01*
X58963656Y-102115952D01*
X59011275Y-102163571D01*
X59058894Y-102258809D01*
X59058894Y-102496904D01*
X59011275Y-102592142D01*
X58963656Y-102639761D01*
X58868418Y-102687380D01*
X58582703Y-102687380D01*
X58487465Y-102639761D01*
X58439846Y-102592142D01*
G04 #@! TO.C,R4*
X63881513Y-73982034D02*
X63548180Y-73505844D01*
X63310084Y-73982034D02*
X63310084Y-72982034D01*
X63691037Y-72982034D01*
X63786275Y-73029654D01*
X63833894Y-73077273D01*
X63881513Y-73172511D01*
X63881513Y-73315368D01*
X63833894Y-73410606D01*
X63786275Y-73458225D01*
X63691037Y-73505844D01*
X63310084Y-73505844D01*
X64738656Y-73315368D02*
X64738656Y-73982034D01*
X64500560Y-72934415D02*
X64262465Y-73648701D01*
X64881513Y-73648701D01*
G04 #@! TO.C,R5*
X148407380Y-137566666D02*
X147931190Y-137900000D01*
X148407380Y-138138095D02*
X147407380Y-138138095D01*
X147407380Y-137757142D01*
X147455000Y-137661904D01*
X147502619Y-137614285D01*
X147597857Y-137566666D01*
X147740714Y-137566666D01*
X147835952Y-137614285D01*
X147883571Y-137661904D01*
X147931190Y-137757142D01*
X147931190Y-138138095D01*
X147407380Y-136661904D02*
X147407380Y-137138095D01*
X147883571Y-137185714D01*
X147835952Y-137138095D01*
X147788333Y-137042857D01*
X147788333Y-136804761D01*
X147835952Y-136709523D01*
X147883571Y-136661904D01*
X147978809Y-136614285D01*
X148216904Y-136614285D01*
X148312142Y-136661904D01*
X148359761Y-136709523D01*
X148407380Y-136804761D01*
X148407380Y-137042857D01*
X148359761Y-137138095D01*
X148312142Y-137185714D01*
G04 #@! TO.C,R6*
X177229162Y-140202726D02*
X176752972Y-140536060D01*
X177229162Y-140774155D02*
X176229162Y-140774155D01*
X176229162Y-140393202D01*
X176276782Y-140297964D01*
X176324401Y-140250345D01*
X176419639Y-140202726D01*
X176562496Y-140202726D01*
X176657734Y-140250345D01*
X176705353Y-140297964D01*
X176752972Y-140393202D01*
X176752972Y-140774155D01*
X176229162Y-139345583D02*
X176229162Y-139536060D01*
X176276782Y-139631298D01*
X176324401Y-139678917D01*
X176467258Y-139774155D01*
X176657734Y-139821774D01*
X177038686Y-139821774D01*
X177133924Y-139774155D01*
X177181543Y-139726536D01*
X177229162Y-139631298D01*
X177229162Y-139440821D01*
X177181543Y-139345583D01*
X177133924Y-139297964D01*
X177038686Y-139250345D01*
X176800591Y-139250345D01*
X176705353Y-139297964D01*
X176657734Y-139345583D01*
X176610115Y-139440821D01*
X176610115Y-139631298D01*
X176657734Y-139726536D01*
X176705353Y-139774155D01*
X176800591Y-139821774D01*
G04 #@! TO.C,R7*
X154917380Y-135661666D02*
X154441190Y-135995000D01*
X154917380Y-136233095D02*
X153917380Y-136233095D01*
X153917380Y-135852142D01*
X153965000Y-135756904D01*
X154012619Y-135709285D01*
X154107857Y-135661666D01*
X154250714Y-135661666D01*
X154345952Y-135709285D01*
X154393571Y-135756904D01*
X154441190Y-135852142D01*
X154441190Y-136233095D01*
X153917380Y-135328333D02*
X153917380Y-134661666D01*
X154917380Y-135090238D01*
G04 #@! TO.C,R8*
X177229162Y-144647726D02*
X176752972Y-144981060D01*
X177229162Y-145219155D02*
X176229162Y-145219155D01*
X176229162Y-144838202D01*
X176276782Y-144742964D01*
X176324401Y-144695345D01*
X176419639Y-144647726D01*
X176562496Y-144647726D01*
X176657734Y-144695345D01*
X176705353Y-144742964D01*
X176752972Y-144838202D01*
X176752972Y-145219155D01*
X176657734Y-144076298D02*
X176610115Y-144171536D01*
X176562496Y-144219155D01*
X176467258Y-144266774D01*
X176419639Y-144266774D01*
X176324401Y-144219155D01*
X176276782Y-144171536D01*
X176229162Y-144076298D01*
X176229162Y-143885821D01*
X176276782Y-143790583D01*
X176324401Y-143742964D01*
X176419639Y-143695345D01*
X176467258Y-143695345D01*
X176562496Y-143742964D01*
X176610115Y-143790583D01*
X176657734Y-143885821D01*
X176657734Y-144076298D01*
X176705353Y-144171536D01*
X176752972Y-144219155D01*
X176848210Y-144266774D01*
X177038686Y-144266774D01*
X177133924Y-144219155D01*
X177181543Y-144171536D01*
X177229162Y-144076298D01*
X177229162Y-143885821D01*
X177181543Y-143790583D01*
X177133924Y-143742964D01*
X177038686Y-143695345D01*
X176848210Y-143695345D01*
X176752972Y-143742964D01*
X176705353Y-143790583D01*
X176657734Y-143885821D01*
G04 #@! TO.C,R9*
X84624393Y-100215598D02*
X84291060Y-99739408D01*
X84052964Y-100215598D02*
X84052964Y-99215598D01*
X84433917Y-99215598D01*
X84529155Y-99263218D01*
X84576774Y-99310837D01*
X84624393Y-99406075D01*
X84624393Y-99548932D01*
X84576774Y-99644170D01*
X84529155Y-99691789D01*
X84433917Y-99739408D01*
X84052964Y-99739408D01*
X85100583Y-100215598D02*
X85291060Y-100215598D01*
X85386298Y-100167979D01*
X85433917Y-100120360D01*
X85529155Y-99977503D01*
X85576774Y-99787027D01*
X85576774Y-99406075D01*
X85529155Y-99310837D01*
X85481536Y-99263218D01*
X85386298Y-99215598D01*
X85195821Y-99215598D01*
X85100583Y-99263218D01*
X85052964Y-99310837D01*
X85005345Y-99406075D01*
X85005345Y-99644170D01*
X85052964Y-99739408D01*
X85100583Y-99787027D01*
X85195821Y-99834646D01*
X85386298Y-99834646D01*
X85481536Y-99787027D01*
X85529155Y-99739408D01*
X85576774Y-99644170D01*
G04 #@! TO.C,R10*
X80973202Y-73865598D02*
X80639869Y-73389408D01*
X80401774Y-73865598D02*
X80401774Y-72865598D01*
X80782726Y-72865598D01*
X80877964Y-72913218D01*
X80925583Y-72960837D01*
X80973202Y-73056075D01*
X80973202Y-73198932D01*
X80925583Y-73294170D01*
X80877964Y-73341789D01*
X80782726Y-73389408D01*
X80401774Y-73389408D01*
X81925583Y-73865598D02*
X81354155Y-73865598D01*
X81639869Y-73865598D02*
X81639869Y-72865598D01*
X81544631Y-73008456D01*
X81449393Y-73103694D01*
X81354155Y-73151313D01*
X82544631Y-72865598D02*
X82639869Y-72865598D01*
X82735107Y-72913218D01*
X82782726Y-72960837D01*
X82830345Y-73056075D01*
X82877964Y-73246551D01*
X82877964Y-73484646D01*
X82830345Y-73675122D01*
X82782726Y-73770360D01*
X82735107Y-73817979D01*
X82639869Y-73865598D01*
X82544631Y-73865598D01*
X82449393Y-73817979D01*
X82401774Y-73770360D01*
X82354155Y-73675122D01*
X82306536Y-73484646D01*
X82306536Y-73246551D01*
X82354155Y-73056075D01*
X82401774Y-72960837D01*
X82449393Y-72913218D01*
X82544631Y-72865598D01*
G04 #@! TO.C,R11*
X79308202Y-100215598D02*
X78974869Y-99739408D01*
X78736774Y-100215598D02*
X78736774Y-99215598D01*
X79117726Y-99215598D01*
X79212964Y-99263218D01*
X79260583Y-99310837D01*
X79308202Y-99406075D01*
X79308202Y-99548932D01*
X79260583Y-99644170D01*
X79212964Y-99691789D01*
X79117726Y-99739408D01*
X78736774Y-99739408D01*
X80260583Y-100215598D02*
X79689155Y-100215598D01*
X79974869Y-100215598D02*
X79974869Y-99215598D01*
X79879631Y-99358456D01*
X79784393Y-99453694D01*
X79689155Y-99501313D01*
X81212964Y-100215598D02*
X80641536Y-100215598D01*
X80927250Y-100215598D02*
X80927250Y-99215598D01*
X80832012Y-99358456D01*
X80736774Y-99453694D01*
X80641536Y-99501313D01*
G04 #@! TO.C,R12*
X86053202Y-73865598D02*
X85719869Y-73389408D01*
X85481774Y-73865598D02*
X85481774Y-72865598D01*
X85862726Y-72865598D01*
X85957964Y-72913218D01*
X86005583Y-72960837D01*
X86053202Y-73056075D01*
X86053202Y-73198932D01*
X86005583Y-73294170D01*
X85957964Y-73341789D01*
X85862726Y-73389408D01*
X85481774Y-73389408D01*
X87005583Y-73865598D02*
X86434155Y-73865598D01*
X86719869Y-73865598D02*
X86719869Y-72865598D01*
X86624631Y-73008456D01*
X86529393Y-73103694D01*
X86434155Y-73151313D01*
X87386536Y-72960837D02*
X87434155Y-72913218D01*
X87529393Y-72865598D01*
X87767488Y-72865598D01*
X87862726Y-72913218D01*
X87910345Y-72960837D01*
X87957964Y-73056075D01*
X87957964Y-73151313D01*
X87910345Y-73294170D01*
X87338917Y-73865598D01*
X87957964Y-73865598D01*
G04 #@! TO.C,R13*
X148187142Y-123167380D02*
X147853809Y-122691190D01*
X147615714Y-123167380D02*
X147615714Y-122167380D01*
X147996666Y-122167380D01*
X148091904Y-122215000D01*
X148139523Y-122262619D01*
X148187142Y-122357857D01*
X148187142Y-122500714D01*
X148139523Y-122595952D01*
X148091904Y-122643571D01*
X147996666Y-122691190D01*
X147615714Y-122691190D01*
X149139523Y-123167380D02*
X148568095Y-123167380D01*
X148853809Y-123167380D02*
X148853809Y-122167380D01*
X148758571Y-122310238D01*
X148663333Y-122405476D01*
X148568095Y-122453095D01*
X149472857Y-122167380D02*
X150091904Y-122167380D01*
X149758571Y-122548333D01*
X149901428Y-122548333D01*
X149996666Y-122595952D01*
X150044285Y-122643571D01*
X150091904Y-122738809D01*
X150091904Y-122976904D01*
X150044285Y-123072142D01*
X149996666Y-123119761D01*
X149901428Y-123167380D01*
X149615714Y-123167380D01*
X149520476Y-123119761D01*
X149472857Y-123072142D01*
G04 #@! TO.C,R14*
X176822380Y-118848917D02*
X176346190Y-119182250D01*
X176822380Y-119420345D02*
X175822380Y-119420345D01*
X175822380Y-119039393D01*
X175870000Y-118944155D01*
X175917619Y-118896536D01*
X176012857Y-118848917D01*
X176155714Y-118848917D01*
X176250952Y-118896536D01*
X176298571Y-118944155D01*
X176346190Y-119039393D01*
X176346190Y-119420345D01*
X176822380Y-117896536D02*
X176822380Y-118467964D01*
X176822380Y-118182250D02*
X175822380Y-118182250D01*
X175965238Y-118277488D01*
X176060476Y-118372726D01*
X176108095Y-118467964D01*
X176155714Y-117039393D02*
X176822380Y-117039393D01*
X175774761Y-117277488D02*
X176489047Y-117515583D01*
X176489047Y-116896536D01*
G04 #@! TO.C,R15*
X147947142Y-119832380D02*
X147613809Y-119356190D01*
X147375714Y-119832380D02*
X147375714Y-118832380D01*
X147756666Y-118832380D01*
X147851904Y-118880000D01*
X147899523Y-118927619D01*
X147947142Y-119022857D01*
X147947142Y-119165714D01*
X147899523Y-119260952D01*
X147851904Y-119308571D01*
X147756666Y-119356190D01*
X147375714Y-119356190D01*
X148899523Y-119832380D02*
X148328095Y-119832380D01*
X148613809Y-119832380D02*
X148613809Y-118832380D01*
X148518571Y-118975238D01*
X148423333Y-119070476D01*
X148328095Y-119118095D01*
X149804285Y-118832380D02*
X149328095Y-118832380D01*
X149280476Y-119308571D01*
X149328095Y-119260952D01*
X149423333Y-119213333D01*
X149661428Y-119213333D01*
X149756666Y-119260952D01*
X149804285Y-119308571D01*
X149851904Y-119403809D01*
X149851904Y-119641904D01*
X149804285Y-119737142D01*
X149756666Y-119784761D01*
X149661428Y-119832380D01*
X149423333Y-119832380D01*
X149328095Y-119784761D01*
X149280476Y-119737142D01*
G04 #@! TO.C,R16*
X176822380Y-124227857D02*
X176346190Y-124561190D01*
X176822380Y-124799285D02*
X175822380Y-124799285D01*
X175822380Y-124418333D01*
X175870000Y-124323095D01*
X175917619Y-124275476D01*
X176012857Y-124227857D01*
X176155714Y-124227857D01*
X176250952Y-124275476D01*
X176298571Y-124323095D01*
X176346190Y-124418333D01*
X176346190Y-124799285D01*
X176822380Y-123275476D02*
X176822380Y-123846904D01*
X176822380Y-123561190D02*
X175822380Y-123561190D01*
X175965238Y-123656428D01*
X176060476Y-123751666D01*
X176108095Y-123846904D01*
X175822380Y-122418333D02*
X175822380Y-122608809D01*
X175870000Y-122704047D01*
X175917619Y-122751666D01*
X176060476Y-122846904D01*
X176250952Y-122894523D01*
X176631904Y-122894523D01*
X176727142Y-122846904D01*
X176774761Y-122799285D01*
X176822380Y-122704047D01*
X176822380Y-122513571D01*
X176774761Y-122418333D01*
X176727142Y-122370714D01*
X176631904Y-122323095D01*
X176393809Y-122323095D01*
X176298571Y-122370714D01*
X176250952Y-122418333D01*
X176203333Y-122513571D01*
X176203333Y-122704047D01*
X176250952Y-122799285D01*
X176298571Y-122846904D01*
X176393809Y-122894523D01*
G04 #@! TO.C,R17*
X105978202Y-100215598D02*
X105644869Y-99739408D01*
X105406774Y-100215598D02*
X105406774Y-99215598D01*
X105787726Y-99215598D01*
X105882964Y-99263218D01*
X105930583Y-99310837D01*
X105978202Y-99406075D01*
X105978202Y-99548932D01*
X105930583Y-99644170D01*
X105882964Y-99691789D01*
X105787726Y-99739408D01*
X105406774Y-99739408D01*
X106930583Y-100215598D02*
X106359155Y-100215598D01*
X106644869Y-100215598D02*
X106644869Y-99215598D01*
X106549631Y-99358456D01*
X106454393Y-99453694D01*
X106359155Y-99501313D01*
X107263917Y-99215598D02*
X107930583Y-99215598D01*
X107502012Y-100215598D01*
G04 #@! TO.C,R18*
X102803202Y-73865598D02*
X102469869Y-73389408D01*
X102231774Y-73865598D02*
X102231774Y-72865598D01*
X102612726Y-72865598D01*
X102707964Y-72913218D01*
X102755583Y-72960837D01*
X102803202Y-73056075D01*
X102803202Y-73198932D01*
X102755583Y-73294170D01*
X102707964Y-73341789D01*
X102612726Y-73389408D01*
X102231774Y-73389408D01*
X103755583Y-73865598D02*
X103184155Y-73865598D01*
X103469869Y-73865598D02*
X103469869Y-72865598D01*
X103374631Y-73008456D01*
X103279393Y-73103694D01*
X103184155Y-73151313D01*
X104327012Y-73294170D02*
X104231774Y-73246551D01*
X104184155Y-73198932D01*
X104136536Y-73103694D01*
X104136536Y-73056075D01*
X104184155Y-72960837D01*
X104231774Y-72913218D01*
X104327012Y-72865598D01*
X104517488Y-72865598D01*
X104612726Y-72913218D01*
X104660345Y-72960837D01*
X104707964Y-73056075D01*
X104707964Y-73103694D01*
X104660345Y-73198932D01*
X104612726Y-73246551D01*
X104517488Y-73294170D01*
X104327012Y-73294170D01*
X104231774Y-73341789D01*
X104184155Y-73389408D01*
X104136536Y-73484646D01*
X104136536Y-73675122D01*
X104184155Y-73770360D01*
X104231774Y-73817979D01*
X104327012Y-73865598D01*
X104517488Y-73865598D01*
X104612726Y-73817979D01*
X104660345Y-73770360D01*
X104707964Y-73675122D01*
X104707964Y-73484646D01*
X104660345Y-73389408D01*
X104612726Y-73341789D01*
X104517488Y-73294170D01*
G04 #@! TO.C,R19*
X100658202Y-100215598D02*
X100324869Y-99739408D01*
X100086774Y-100215598D02*
X100086774Y-99215598D01*
X100467726Y-99215598D01*
X100562964Y-99263218D01*
X100610583Y-99310837D01*
X100658202Y-99406075D01*
X100658202Y-99548932D01*
X100610583Y-99644170D01*
X100562964Y-99691789D01*
X100467726Y-99739408D01*
X100086774Y-99739408D01*
X101610583Y-100215598D02*
X101039155Y-100215598D01*
X101324869Y-100215598D02*
X101324869Y-99215598D01*
X101229631Y-99358456D01*
X101134393Y-99453694D01*
X101039155Y-99501313D01*
X102086774Y-100215598D02*
X102277250Y-100215598D01*
X102372488Y-100167979D01*
X102420107Y-100120360D01*
X102515345Y-99977503D01*
X102562964Y-99787027D01*
X102562964Y-99406075D01*
X102515345Y-99310837D01*
X102467726Y-99263218D01*
X102372488Y-99215598D01*
X102182012Y-99215598D01*
X102086774Y-99263218D01*
X102039155Y-99310837D01*
X101991536Y-99406075D01*
X101991536Y-99644170D01*
X102039155Y-99739408D01*
X102086774Y-99787027D01*
X102182012Y-99834646D01*
X102372488Y-99834646D01*
X102467726Y-99787027D01*
X102515345Y-99739408D01*
X102562964Y-99644170D01*
G04 #@! TO.C,R20*
X107248202Y-73865598D02*
X106914869Y-73389408D01*
X106676774Y-73865598D02*
X106676774Y-72865598D01*
X107057726Y-72865598D01*
X107152964Y-72913218D01*
X107200583Y-72960837D01*
X107248202Y-73056075D01*
X107248202Y-73198932D01*
X107200583Y-73294170D01*
X107152964Y-73341789D01*
X107057726Y-73389408D01*
X106676774Y-73389408D01*
X107629155Y-72960837D02*
X107676774Y-72913218D01*
X107772012Y-72865598D01*
X108010107Y-72865598D01*
X108105345Y-72913218D01*
X108152964Y-72960837D01*
X108200583Y-73056075D01*
X108200583Y-73151313D01*
X108152964Y-73294170D01*
X107581536Y-73865598D01*
X108200583Y-73865598D01*
X108819631Y-72865598D02*
X108914869Y-72865598D01*
X109010107Y-72913218D01*
X109057726Y-72960837D01*
X109105345Y-73056075D01*
X109152964Y-73246551D01*
X109152964Y-73484646D01*
X109105345Y-73675122D01*
X109057726Y-73770360D01*
X109010107Y-73817979D01*
X108914869Y-73865598D01*
X108819631Y-73865598D01*
X108724393Y-73817979D01*
X108676774Y-73770360D01*
X108629155Y-73675122D01*
X108581536Y-73484646D01*
X108581536Y-73246551D01*
X108629155Y-73056075D01*
X108676774Y-72960837D01*
X108724393Y-72913218D01*
X108819631Y-72865598D01*
G04 #@! TO.C,R21*
X160647142Y-102052380D02*
X160313809Y-101576190D01*
X160075714Y-102052380D02*
X160075714Y-101052380D01*
X160456666Y-101052380D01*
X160551904Y-101100000D01*
X160599523Y-101147619D01*
X160647142Y-101242857D01*
X160647142Y-101385714D01*
X160599523Y-101480952D01*
X160551904Y-101528571D01*
X160456666Y-101576190D01*
X160075714Y-101576190D01*
X161028095Y-101147619D02*
X161075714Y-101100000D01*
X161170952Y-101052380D01*
X161409047Y-101052380D01*
X161504285Y-101100000D01*
X161551904Y-101147619D01*
X161599523Y-101242857D01*
X161599523Y-101338095D01*
X161551904Y-101480952D01*
X160980476Y-102052380D01*
X161599523Y-102052380D01*
X162551904Y-102052380D02*
X161980476Y-102052380D01*
X162266190Y-102052380D02*
X162266190Y-101052380D01*
X162170952Y-101195238D01*
X162075714Y-101290476D01*
X161980476Y-101338095D01*
G04 #@! TO.C,R22*
X164398202Y-75408124D02*
X164064869Y-74931934D01*
X163826774Y-75408124D02*
X163826774Y-74408124D01*
X164207726Y-74408124D01*
X164302964Y-74455744D01*
X164350583Y-74503363D01*
X164398202Y-74598601D01*
X164398202Y-74741458D01*
X164350583Y-74836696D01*
X164302964Y-74884315D01*
X164207726Y-74931934D01*
X163826774Y-74931934D01*
X164779155Y-74503363D02*
X164826774Y-74455744D01*
X164922012Y-74408124D01*
X165160107Y-74408124D01*
X165255345Y-74455744D01*
X165302964Y-74503363D01*
X165350583Y-74598601D01*
X165350583Y-74693839D01*
X165302964Y-74836696D01*
X164731536Y-75408124D01*
X165350583Y-75408124D01*
X165731536Y-74503363D02*
X165779155Y-74455744D01*
X165874393Y-74408124D01*
X166112488Y-74408124D01*
X166207726Y-74455744D01*
X166255345Y-74503363D01*
X166302964Y-74598601D01*
X166302964Y-74693839D01*
X166255345Y-74836696D01*
X165683917Y-75408124D01*
X166302964Y-75408124D01*
G04 #@! TO.C,R23*
X156837142Y-102052380D02*
X156503809Y-101576190D01*
X156265714Y-102052380D02*
X156265714Y-101052380D01*
X156646666Y-101052380D01*
X156741904Y-101100000D01*
X156789523Y-101147619D01*
X156837142Y-101242857D01*
X156837142Y-101385714D01*
X156789523Y-101480952D01*
X156741904Y-101528571D01*
X156646666Y-101576190D01*
X156265714Y-101576190D01*
X157218095Y-101147619D02*
X157265714Y-101100000D01*
X157360952Y-101052380D01*
X157599047Y-101052380D01*
X157694285Y-101100000D01*
X157741904Y-101147619D01*
X157789523Y-101242857D01*
X157789523Y-101338095D01*
X157741904Y-101480952D01*
X157170476Y-102052380D01*
X157789523Y-102052380D01*
X158122857Y-101052380D02*
X158741904Y-101052380D01*
X158408571Y-101433333D01*
X158551428Y-101433333D01*
X158646666Y-101480952D01*
X158694285Y-101528571D01*
X158741904Y-101623809D01*
X158741904Y-101861904D01*
X158694285Y-101957142D01*
X158646666Y-102004761D01*
X158551428Y-102052380D01*
X158265714Y-102052380D01*
X158170476Y-102004761D01*
X158122857Y-101957142D01*
G04 #@! TO.C,R24*
X168843202Y-75408124D02*
X168509869Y-74931934D01*
X168271774Y-75408124D02*
X168271774Y-74408124D01*
X168652726Y-74408124D01*
X168747964Y-74455744D01*
X168795583Y-74503363D01*
X168843202Y-74598601D01*
X168843202Y-74741458D01*
X168795583Y-74836696D01*
X168747964Y-74884315D01*
X168652726Y-74931934D01*
X168271774Y-74931934D01*
X169224155Y-74503363D02*
X169271774Y-74455744D01*
X169367012Y-74408124D01*
X169605107Y-74408124D01*
X169700345Y-74455744D01*
X169747964Y-74503363D01*
X169795583Y-74598601D01*
X169795583Y-74693839D01*
X169747964Y-74836696D01*
X169176536Y-75408124D01*
X169795583Y-75408124D01*
X170652726Y-74741458D02*
X170652726Y-75408124D01*
X170414631Y-74360505D02*
X170176536Y-75074791D01*
X170795583Y-75074791D01*
G04 #@! TO.C,R27*
X126058202Y-100215598D02*
X125724869Y-99739408D01*
X125486774Y-100215598D02*
X125486774Y-99215598D01*
X125867726Y-99215598D01*
X125962964Y-99263218D01*
X126010583Y-99310837D01*
X126058202Y-99406075D01*
X126058202Y-99548932D01*
X126010583Y-99644170D01*
X125962964Y-99691789D01*
X125867726Y-99739408D01*
X125486774Y-99739408D01*
X126439155Y-99310837D02*
X126486774Y-99263218D01*
X126582012Y-99215598D01*
X126820107Y-99215598D01*
X126915345Y-99263218D01*
X126962964Y-99310837D01*
X127010583Y-99406075D01*
X127010583Y-99501313D01*
X126962964Y-99644170D01*
X126391536Y-100215598D01*
X127010583Y-100215598D01*
X127343917Y-99215598D02*
X128010583Y-99215598D01*
X127582012Y-100215598D01*
G04 #@! TO.C,R28*
X122488202Y-74500598D02*
X122154869Y-74024408D01*
X121916774Y-74500598D02*
X121916774Y-73500598D01*
X122297726Y-73500598D01*
X122392964Y-73548218D01*
X122440583Y-73595837D01*
X122488202Y-73691075D01*
X122488202Y-73833932D01*
X122440583Y-73929170D01*
X122392964Y-73976789D01*
X122297726Y-74024408D01*
X121916774Y-74024408D01*
X122869155Y-73595837D02*
X122916774Y-73548218D01*
X123012012Y-73500598D01*
X123250107Y-73500598D01*
X123345345Y-73548218D01*
X123392964Y-73595837D01*
X123440583Y-73691075D01*
X123440583Y-73786313D01*
X123392964Y-73929170D01*
X122821536Y-74500598D01*
X123440583Y-74500598D01*
X124012012Y-73929170D02*
X123916774Y-73881551D01*
X123869155Y-73833932D01*
X123821536Y-73738694D01*
X123821536Y-73691075D01*
X123869155Y-73595837D01*
X123916774Y-73548218D01*
X124012012Y-73500598D01*
X124202488Y-73500598D01*
X124297726Y-73548218D01*
X124345345Y-73595837D01*
X124392964Y-73691075D01*
X124392964Y-73738694D01*
X124345345Y-73833932D01*
X124297726Y-73881551D01*
X124202488Y-73929170D01*
X124012012Y-73929170D01*
X123916774Y-73976789D01*
X123869155Y-74024408D01*
X123821536Y-74119646D01*
X123821536Y-74310122D01*
X123869155Y-74405360D01*
X123916774Y-74452979D01*
X124012012Y-74500598D01*
X124202488Y-74500598D01*
X124297726Y-74452979D01*
X124345345Y-74405360D01*
X124392964Y-74310122D01*
X124392964Y-74119646D01*
X124345345Y-74024408D01*
X124297726Y-73976789D01*
X124202488Y-73929170D01*
G04 #@! TO.C,R29*
X120882142Y-100215598D02*
X120548809Y-99739408D01*
X120310714Y-100215598D02*
X120310714Y-99215598D01*
X120691666Y-99215598D01*
X120786904Y-99263218D01*
X120834523Y-99310837D01*
X120882142Y-99406075D01*
X120882142Y-99548932D01*
X120834523Y-99644170D01*
X120786904Y-99691789D01*
X120691666Y-99739408D01*
X120310714Y-99739408D01*
X121263095Y-99310837D02*
X121310714Y-99263218D01*
X121405952Y-99215598D01*
X121644047Y-99215598D01*
X121739285Y-99263218D01*
X121786904Y-99310837D01*
X121834523Y-99406075D01*
X121834523Y-99501313D01*
X121786904Y-99644170D01*
X121215476Y-100215598D01*
X121834523Y-100215598D01*
X122310714Y-100215598D02*
X122501190Y-100215598D01*
X122596428Y-100167979D01*
X122644047Y-100120360D01*
X122739285Y-99977503D01*
X122786904Y-99787027D01*
X122786904Y-99406075D01*
X122739285Y-99310837D01*
X122691666Y-99263218D01*
X122596428Y-99215598D01*
X122405952Y-99215598D01*
X122310714Y-99263218D01*
X122263095Y-99310837D01*
X122215476Y-99406075D01*
X122215476Y-99644170D01*
X122263095Y-99739408D01*
X122310714Y-99787027D01*
X122405952Y-99834646D01*
X122596428Y-99834646D01*
X122691666Y-99787027D01*
X122739285Y-99739408D01*
X122786904Y-99644170D01*
G04 #@! TO.C,R30*
X127328202Y-74500598D02*
X126994869Y-74024408D01*
X126756774Y-74500598D02*
X126756774Y-73500598D01*
X127137726Y-73500598D01*
X127232964Y-73548218D01*
X127280583Y-73595837D01*
X127328202Y-73691075D01*
X127328202Y-73833932D01*
X127280583Y-73929170D01*
X127232964Y-73976789D01*
X127137726Y-74024408D01*
X126756774Y-74024408D01*
X127661536Y-73500598D02*
X128280583Y-73500598D01*
X127947250Y-73881551D01*
X128090107Y-73881551D01*
X128185345Y-73929170D01*
X128232964Y-73976789D01*
X128280583Y-74072027D01*
X128280583Y-74310122D01*
X128232964Y-74405360D01*
X128185345Y-74452979D01*
X128090107Y-74500598D01*
X127804393Y-74500598D01*
X127709155Y-74452979D01*
X127661536Y-74405360D01*
X128899631Y-73500598D02*
X128994869Y-73500598D01*
X129090107Y-73548218D01*
X129137726Y-73595837D01*
X129185345Y-73691075D01*
X129232964Y-73881551D01*
X129232964Y-74119646D01*
X129185345Y-74310122D01*
X129137726Y-74405360D01*
X129090107Y-74452979D01*
X128994869Y-74500598D01*
X128899631Y-74500598D01*
X128804393Y-74452979D01*
X128756774Y-74405360D01*
X128709155Y-74310122D01*
X128661536Y-74119646D01*
X128661536Y-73881551D01*
X128709155Y-73691075D01*
X128756774Y-73595837D01*
X128804393Y-73548218D01*
X128899631Y-73500598D01*
G04 #@! TO.C,R31*
X147072142Y-99987380D02*
X146738809Y-99511190D01*
X146500714Y-99987380D02*
X146500714Y-98987380D01*
X146881666Y-98987380D01*
X146976904Y-99035000D01*
X147024523Y-99082619D01*
X147072142Y-99177857D01*
X147072142Y-99320714D01*
X147024523Y-99415952D01*
X146976904Y-99463571D01*
X146881666Y-99511190D01*
X146500714Y-99511190D01*
X147405476Y-98987380D02*
X148024523Y-98987380D01*
X147691190Y-99368333D01*
X147834047Y-99368333D01*
X147929285Y-99415952D01*
X147976904Y-99463571D01*
X148024523Y-99558809D01*
X148024523Y-99796904D01*
X147976904Y-99892142D01*
X147929285Y-99939761D01*
X147834047Y-99987380D01*
X147548333Y-99987380D01*
X147453095Y-99939761D01*
X147405476Y-99892142D01*
X148976904Y-99987380D02*
X148405476Y-99987380D01*
X148691190Y-99987380D02*
X148691190Y-98987380D01*
X148595952Y-99130238D01*
X148500714Y-99225476D01*
X148405476Y-99273095D01*
G04 #@! TO.C,R32*
X143838202Y-73738598D02*
X143504869Y-73262408D01*
X143266774Y-73738598D02*
X143266774Y-72738598D01*
X143647726Y-72738598D01*
X143742964Y-72786218D01*
X143790583Y-72833837D01*
X143838202Y-72929075D01*
X143838202Y-73071932D01*
X143790583Y-73167170D01*
X143742964Y-73214789D01*
X143647726Y-73262408D01*
X143266774Y-73262408D01*
X144171536Y-72738598D02*
X144790583Y-72738598D01*
X144457250Y-73119551D01*
X144600107Y-73119551D01*
X144695345Y-73167170D01*
X144742964Y-73214789D01*
X144790583Y-73310027D01*
X144790583Y-73548122D01*
X144742964Y-73643360D01*
X144695345Y-73690979D01*
X144600107Y-73738598D01*
X144314393Y-73738598D01*
X144219155Y-73690979D01*
X144171536Y-73643360D01*
X145171536Y-72833837D02*
X145219155Y-72786218D01*
X145314393Y-72738598D01*
X145552488Y-72738598D01*
X145647726Y-72786218D01*
X145695345Y-72833837D01*
X145742964Y-72929075D01*
X145742964Y-73024313D01*
X145695345Y-73167170D01*
X145123917Y-73738598D01*
X145742964Y-73738598D01*
G04 #@! TO.C,R33*
X142328202Y-100088598D02*
X141994869Y-99612408D01*
X141756774Y-100088598D02*
X141756774Y-99088598D01*
X142137726Y-99088598D01*
X142232964Y-99136218D01*
X142280583Y-99183837D01*
X142328202Y-99279075D01*
X142328202Y-99421932D01*
X142280583Y-99517170D01*
X142232964Y-99564789D01*
X142137726Y-99612408D01*
X141756774Y-99612408D01*
X142661536Y-99088598D02*
X143280583Y-99088598D01*
X142947250Y-99469551D01*
X143090107Y-99469551D01*
X143185345Y-99517170D01*
X143232964Y-99564789D01*
X143280583Y-99660027D01*
X143280583Y-99898122D01*
X143232964Y-99993360D01*
X143185345Y-100040979D01*
X143090107Y-100088598D01*
X142804393Y-100088598D01*
X142709155Y-100040979D01*
X142661536Y-99993360D01*
X143613917Y-99088598D02*
X144232964Y-99088598D01*
X143899631Y-99469551D01*
X144042488Y-99469551D01*
X144137726Y-99517170D01*
X144185345Y-99564789D01*
X144232964Y-99660027D01*
X144232964Y-99898122D01*
X144185345Y-99993360D01*
X144137726Y-100040979D01*
X144042488Y-100088598D01*
X143756774Y-100088598D01*
X143661536Y-100040979D01*
X143613917Y-99993360D01*
G04 #@! TO.C,R34*
X148523202Y-73738598D02*
X148189869Y-73262408D01*
X147951774Y-73738598D02*
X147951774Y-72738598D01*
X148332726Y-72738598D01*
X148427964Y-72786218D01*
X148475583Y-72833837D01*
X148523202Y-72929075D01*
X148523202Y-73071932D01*
X148475583Y-73167170D01*
X148427964Y-73214789D01*
X148332726Y-73262408D01*
X147951774Y-73262408D01*
X148856536Y-72738598D02*
X149475583Y-72738598D01*
X149142250Y-73119551D01*
X149285107Y-73119551D01*
X149380345Y-73167170D01*
X149427964Y-73214789D01*
X149475583Y-73310027D01*
X149475583Y-73548122D01*
X149427964Y-73643360D01*
X149380345Y-73690979D01*
X149285107Y-73738598D01*
X148999393Y-73738598D01*
X148904155Y-73690979D01*
X148856536Y-73643360D01*
X150332726Y-73071932D02*
X150332726Y-73738598D01*
X150094631Y-72690979D02*
X149856536Y-73405265D01*
X150475583Y-73405265D01*
G04 #@! TO.C,Conn1*
X47625180Y-75728558D02*
X47577560Y-75823796D01*
X47577560Y-75966654D01*
X47625180Y-76109511D01*
X47720418Y-76204749D01*
X47815656Y-76252368D01*
X48006132Y-76299987D01*
X48148989Y-76299987D01*
X48339465Y-76252368D01*
X48434703Y-76204749D01*
X48529941Y-76109511D01*
X48577560Y-75966654D01*
X48577560Y-75871415D01*
X48529941Y-75728558D01*
X48482322Y-75680939D01*
X48148989Y-75680939D01*
X48148989Y-75871415D01*
X48577560Y-75252368D02*
X47577560Y-75252368D01*
X48577560Y-74680939D01*
X47577560Y-74680939D01*
X48577560Y-74204749D02*
X47577560Y-74204749D01*
X47577560Y-73966654D01*
X47625180Y-73823796D01*
X47720418Y-73728558D01*
X47815656Y-73680939D01*
X48006132Y-73633320D01*
X48148989Y-73633320D01*
X48339465Y-73680939D01*
X48434703Y-73728558D01*
X48529941Y-73823796D01*
X48577560Y-73966654D01*
X48577560Y-74204749D01*
X48577560Y-83592939D02*
X48577560Y-84069130D01*
X47577560Y-84069130D01*
X47577560Y-83069130D02*
X47577560Y-82878654D01*
X47625180Y-82783415D01*
X47720418Y-82688177D01*
X47910894Y-82640558D01*
X48244227Y-82640558D01*
X48434703Y-82688177D01*
X48529941Y-82783415D01*
X48577560Y-82878654D01*
X48577560Y-83069130D01*
X48529941Y-83164368D01*
X48434703Y-83259606D01*
X48244227Y-83307225D01*
X47910894Y-83307225D01*
X47720418Y-83259606D01*
X47625180Y-83164368D01*
X47577560Y-83069130D01*
X47625180Y-81688177D02*
X47577560Y-81783415D01*
X47577560Y-81926273D01*
X47625180Y-82069130D01*
X47720418Y-82164368D01*
X47815656Y-82211987D01*
X48006132Y-82259606D01*
X48148989Y-82259606D01*
X48339465Y-82211987D01*
X48434703Y-82164368D01*
X48529941Y-82069130D01*
X48577560Y-81926273D01*
X48577560Y-81831034D01*
X48529941Y-81688177D01*
X48482322Y-81640558D01*
X48148989Y-81640558D01*
X48148989Y-81831034D01*
X48291846Y-91897701D02*
X48291846Y-91421511D01*
X48577560Y-91992939D02*
X47577560Y-91659606D01*
X48577560Y-91326273D01*
X48482322Y-90421511D02*
X48529941Y-90469130D01*
X48577560Y-90611987D01*
X48577560Y-90707225D01*
X48529941Y-90850082D01*
X48434703Y-90945320D01*
X48339465Y-90992939D01*
X48148989Y-91040558D01*
X48006132Y-91040558D01*
X47815656Y-90992939D01*
X47720418Y-90945320D01*
X47625180Y-90850082D01*
X47577560Y-90707225D01*
X47577560Y-90611987D01*
X47625180Y-90469130D01*
X47672799Y-90421511D01*
X47577560Y-90135796D02*
X47577560Y-89564368D01*
X48577560Y-89850082D02*
X47577560Y-89850082D01*
G04 #@! TO.C,Conn18*
X144910000Y-64923142D02*
X144862380Y-64970761D01*
X144719523Y-65018380D01*
X144624285Y-65018380D01*
X144481428Y-64970761D01*
X144386190Y-64875523D01*
X144338571Y-64780285D01*
X144290952Y-64589809D01*
X144290952Y-64446952D01*
X144338571Y-64256476D01*
X144386190Y-64161238D01*
X144481428Y-64066000D01*
X144624285Y-64018380D01*
X144719523Y-64018380D01*
X144862380Y-64066000D01*
X144910000Y-64113619D01*
X145481428Y-65018380D02*
X145386190Y-64970761D01*
X145338571Y-64923142D01*
X145290952Y-64827904D01*
X145290952Y-64542190D01*
X145338571Y-64446952D01*
X145386190Y-64399333D01*
X145481428Y-64351714D01*
X145624285Y-64351714D01*
X145719523Y-64399333D01*
X145767142Y-64446952D01*
X145814761Y-64542190D01*
X145814761Y-64827904D01*
X145767142Y-64923142D01*
X145719523Y-64970761D01*
X145624285Y-65018380D01*
X145481428Y-65018380D01*
X146243333Y-64351714D02*
X146243333Y-65018380D01*
X146243333Y-64446952D02*
X146290952Y-64399333D01*
X146386190Y-64351714D01*
X146529047Y-64351714D01*
X146624285Y-64399333D01*
X146671904Y-64494571D01*
X146671904Y-65018380D01*
X147148095Y-64351714D02*
X147148095Y-65018380D01*
X147148095Y-64446952D02*
X147195714Y-64399333D01*
X147290952Y-64351714D01*
X147433809Y-64351714D01*
X147529047Y-64399333D01*
X147576666Y-64494571D01*
X147576666Y-65018380D01*
X148576666Y-65018380D02*
X148005238Y-65018380D01*
X148290952Y-65018380D02*
X148290952Y-64018380D01*
X148195714Y-64161238D01*
X148100476Y-64256476D01*
X148005238Y-64304095D01*
X149148095Y-64446952D02*
X149052857Y-64399333D01*
X149005238Y-64351714D01*
X148957619Y-64256476D01*
X148957619Y-64208857D01*
X149005238Y-64113619D01*
X149052857Y-64066000D01*
X149148095Y-64018380D01*
X149338571Y-64018380D01*
X149433809Y-64066000D01*
X149481428Y-64113619D01*
X149529047Y-64208857D01*
X149529047Y-64256476D01*
X149481428Y-64351714D01*
X149433809Y-64399333D01*
X149338571Y-64446952D01*
X149148095Y-64446952D01*
X149052857Y-64494571D01*
X149005238Y-64542190D01*
X148957619Y-64637428D01*
X148957619Y-64827904D01*
X149005238Y-64923142D01*
X149052857Y-64970761D01*
X149148095Y-65018380D01*
X149338571Y-65018380D01*
X149433809Y-64970761D01*
X149481428Y-64923142D01*
X149529047Y-64827904D01*
X149529047Y-64637428D01*
X149481428Y-64542190D01*
X149433809Y-64494571D01*
X149338571Y-64446952D01*
G04 #@! TO.C,Conn9*
X62836190Y-65177142D02*
X62788571Y-65224761D01*
X62645714Y-65272380D01*
X62550476Y-65272380D01*
X62407619Y-65224761D01*
X62312380Y-65129523D01*
X62264761Y-65034285D01*
X62217142Y-64843809D01*
X62217142Y-64700952D01*
X62264761Y-64510476D01*
X62312380Y-64415238D01*
X62407619Y-64320000D01*
X62550476Y-64272380D01*
X62645714Y-64272380D01*
X62788571Y-64320000D01*
X62836190Y-64367619D01*
X63407619Y-65272380D02*
X63312380Y-65224761D01*
X63264761Y-65177142D01*
X63217142Y-65081904D01*
X63217142Y-64796190D01*
X63264761Y-64700952D01*
X63312380Y-64653333D01*
X63407619Y-64605714D01*
X63550476Y-64605714D01*
X63645714Y-64653333D01*
X63693333Y-64700952D01*
X63740952Y-64796190D01*
X63740952Y-65081904D01*
X63693333Y-65177142D01*
X63645714Y-65224761D01*
X63550476Y-65272380D01*
X63407619Y-65272380D01*
X64169523Y-64605714D02*
X64169523Y-65272380D01*
X64169523Y-64700952D02*
X64217142Y-64653333D01*
X64312380Y-64605714D01*
X64455238Y-64605714D01*
X64550476Y-64653333D01*
X64598095Y-64748571D01*
X64598095Y-65272380D01*
X65074285Y-64605714D02*
X65074285Y-65272380D01*
X65074285Y-64700952D02*
X65121904Y-64653333D01*
X65217142Y-64605714D01*
X65360000Y-64605714D01*
X65455238Y-64653333D01*
X65502857Y-64748571D01*
X65502857Y-65272380D01*
X66026666Y-65272380D02*
X66217142Y-65272380D01*
X66312380Y-65224761D01*
X66360000Y-65177142D01*
X66455238Y-65034285D01*
X66502857Y-64843809D01*
X66502857Y-64462857D01*
X66455238Y-64367619D01*
X66407619Y-64320000D01*
X66312380Y-64272380D01*
X66121904Y-64272380D01*
X66026666Y-64320000D01*
X65979047Y-64367619D01*
X65931428Y-64462857D01*
X65931428Y-64700952D01*
X65979047Y-64796190D01*
X66026666Y-64843809D01*
X66121904Y-64891428D01*
X66312380Y-64891428D01*
X66407619Y-64843809D01*
X66455238Y-64796190D01*
X66502857Y-64700952D01*
G04 #@! TO.C,Conn17*
X67673000Y-133984904D02*
X67625380Y-134080142D01*
X67625380Y-134223000D01*
X67673000Y-134365857D01*
X67768238Y-134461095D01*
X67863476Y-134508714D01*
X68053952Y-134556333D01*
X68196809Y-134556333D01*
X68387285Y-134508714D01*
X68482523Y-134461095D01*
X68577761Y-134365857D01*
X68625380Y-134223000D01*
X68625380Y-134127761D01*
X68577761Y-133984904D01*
X68530142Y-133937285D01*
X68196809Y-133937285D01*
X68196809Y-134127761D01*
X68625380Y-133508714D02*
X67625380Y-133508714D01*
X68625380Y-132937285D01*
X67625380Y-132937285D01*
X68625380Y-132461095D02*
X67625380Y-132461095D01*
X67625380Y-132223000D01*
X67673000Y-132080142D01*
X67768238Y-131984904D01*
X67863476Y-131937285D01*
X68053952Y-131889666D01*
X68196809Y-131889666D01*
X68387285Y-131937285D01*
X68482523Y-131984904D01*
X68577761Y-132080142D01*
X68625380Y-132223000D01*
X68625380Y-132461095D01*
X68625380Y-126025285D02*
X68625380Y-126501476D01*
X67625380Y-126501476D01*
X67625380Y-125501476D02*
X67625380Y-125311000D01*
X67673000Y-125215761D01*
X67768238Y-125120523D01*
X67958714Y-125072904D01*
X68292047Y-125072904D01*
X68482523Y-125120523D01*
X68577761Y-125215761D01*
X68625380Y-125311000D01*
X68625380Y-125501476D01*
X68577761Y-125596714D01*
X68482523Y-125691952D01*
X68292047Y-125739571D01*
X67958714Y-125739571D01*
X67768238Y-125691952D01*
X67673000Y-125596714D01*
X67625380Y-125501476D01*
X67673000Y-124120523D02*
X67625380Y-124215761D01*
X67625380Y-124358619D01*
X67673000Y-124501476D01*
X67768238Y-124596714D01*
X67863476Y-124644333D01*
X68053952Y-124691952D01*
X68196809Y-124691952D01*
X68387285Y-124644333D01*
X68482523Y-124596714D01*
X68577761Y-124501476D01*
X68625380Y-124358619D01*
X68625380Y-124263380D01*
X68577761Y-124120523D01*
X68530142Y-124072904D01*
X68196809Y-124072904D01*
X68196809Y-124263380D01*
X68339666Y-118530047D02*
X68339666Y-118053857D01*
X68625380Y-118625285D02*
X67625380Y-118291952D01*
X68625380Y-117958619D01*
X68530142Y-117053857D02*
X68577761Y-117101476D01*
X68625380Y-117244333D01*
X68625380Y-117339571D01*
X68577761Y-117482428D01*
X68482523Y-117577666D01*
X68387285Y-117625285D01*
X68196809Y-117672904D01*
X68053952Y-117672904D01*
X67863476Y-117625285D01*
X67768238Y-117577666D01*
X67673000Y-117482428D01*
X67625380Y-117339571D01*
X67625380Y-117244333D01*
X67673000Y-117101476D01*
X67720619Y-117053857D01*
X67625380Y-116768142D02*
X67625380Y-116196714D01*
X68625380Y-116482428D02*
X67625380Y-116482428D01*
G04 #@! TO.C,Conn19*
X95790000Y-50097142D02*
X95742380Y-50144761D01*
X95599523Y-50192380D01*
X95504285Y-50192380D01*
X95361428Y-50144761D01*
X95266190Y-50049523D01*
X95218571Y-49954285D01*
X95170952Y-49763809D01*
X95170952Y-49620952D01*
X95218571Y-49430476D01*
X95266190Y-49335238D01*
X95361428Y-49240000D01*
X95504285Y-49192380D01*
X95599523Y-49192380D01*
X95742380Y-49240000D01*
X95790000Y-49287619D01*
X96361428Y-50192380D02*
X96266190Y-50144761D01*
X96218571Y-50097142D01*
X96170952Y-50001904D01*
X96170952Y-49716190D01*
X96218571Y-49620952D01*
X96266190Y-49573333D01*
X96361428Y-49525714D01*
X96504285Y-49525714D01*
X96599523Y-49573333D01*
X96647142Y-49620952D01*
X96694761Y-49716190D01*
X96694761Y-50001904D01*
X96647142Y-50097142D01*
X96599523Y-50144761D01*
X96504285Y-50192380D01*
X96361428Y-50192380D01*
X97123333Y-49525714D02*
X97123333Y-50192380D01*
X97123333Y-49620952D02*
X97170952Y-49573333D01*
X97266190Y-49525714D01*
X97409047Y-49525714D01*
X97504285Y-49573333D01*
X97551904Y-49668571D01*
X97551904Y-50192380D01*
X98028095Y-49525714D02*
X98028095Y-50192380D01*
X98028095Y-49620952D02*
X98075714Y-49573333D01*
X98170952Y-49525714D01*
X98313809Y-49525714D01*
X98409047Y-49573333D01*
X98456666Y-49668571D01*
X98456666Y-50192380D01*
X99456666Y-50192380D02*
X98885238Y-50192380D01*
X99170952Y-50192380D02*
X99170952Y-49192380D01*
X99075714Y-49335238D01*
X98980476Y-49430476D01*
X98885238Y-49478095D01*
X99932857Y-50192380D02*
X100123333Y-50192380D01*
X100218571Y-50144761D01*
X100266190Y-50097142D01*
X100361428Y-49954285D01*
X100409047Y-49763809D01*
X100409047Y-49382857D01*
X100361428Y-49287619D01*
X100313809Y-49240000D01*
X100218571Y-49192380D01*
X100028095Y-49192380D01*
X99932857Y-49240000D01*
X99885238Y-49287619D01*
X99837619Y-49382857D01*
X99837619Y-49620952D01*
X99885238Y-49716190D01*
X99932857Y-49763809D01*
X100028095Y-49811428D01*
X100218571Y-49811428D01*
X100313809Y-49763809D01*
X100361428Y-49716190D01*
X100409047Y-49620952D01*
G04 #@! TO.C,D3*
X186586904Y-112847380D02*
X186586904Y-111847380D01*
X186825000Y-111847380D01*
X186967857Y-111895000D01*
X187063095Y-111990238D01*
X187110714Y-112085476D01*
X187158333Y-112275952D01*
X187158333Y-112418809D01*
X187110714Y-112609285D01*
X187063095Y-112704523D01*
X186967857Y-112799761D01*
X186825000Y-112847380D01*
X186586904Y-112847380D01*
X187491666Y-111847380D02*
X188110714Y-111847380D01*
X187777380Y-112228333D01*
X187920238Y-112228333D01*
X188015476Y-112275952D01*
X188063095Y-112323571D01*
X188110714Y-112418809D01*
X188110714Y-112656904D01*
X188063095Y-112752142D01*
X188015476Y-112799761D01*
X187920238Y-112847380D01*
X187634523Y-112847380D01*
X187539285Y-112799761D01*
X187491666Y-112752142D01*
G04 #@! TO.C,D4*
X95541904Y-107292380D02*
X95541904Y-106292380D01*
X95780000Y-106292380D01*
X95922857Y-106340000D01*
X96018095Y-106435238D01*
X96065714Y-106530476D01*
X96113333Y-106720952D01*
X96113333Y-106863809D01*
X96065714Y-107054285D01*
X96018095Y-107149523D01*
X95922857Y-107244761D01*
X95780000Y-107292380D01*
X95541904Y-107292380D01*
X96970476Y-106625714D02*
X96970476Y-107292380D01*
X96732380Y-106244761D02*
X96494285Y-106959047D01*
X97113333Y-106959047D01*
G04 #@! TO.C,D5*
X161426904Y-66652380D02*
X161426904Y-65652380D01*
X161665000Y-65652380D01*
X161807857Y-65700000D01*
X161903095Y-65795238D01*
X161950714Y-65890476D01*
X161998333Y-66080952D01*
X161998333Y-66223809D01*
X161950714Y-66414285D01*
X161903095Y-66509523D01*
X161807857Y-66604761D01*
X161665000Y-66652380D01*
X161426904Y-66652380D01*
X162903095Y-65652380D02*
X162426904Y-65652380D01*
X162379285Y-66128571D01*
X162426904Y-66080952D01*
X162522142Y-66033333D01*
X162760238Y-66033333D01*
X162855476Y-66080952D01*
X162903095Y-66128571D01*
X162950714Y-66223809D01*
X162950714Y-66461904D01*
X162903095Y-66557142D01*
X162855476Y-66604761D01*
X162760238Y-66652380D01*
X162522142Y-66652380D01*
X162426904Y-66604761D01*
X162379285Y-66557142D01*
G04 #@! TO.C,D6*
X115861904Y-107292380D02*
X115861904Y-106292380D01*
X116100000Y-106292380D01*
X116242857Y-106340000D01*
X116338095Y-106435238D01*
X116385714Y-106530476D01*
X116433333Y-106720952D01*
X116433333Y-106863809D01*
X116385714Y-107054285D01*
X116338095Y-107149523D01*
X116242857Y-107244761D01*
X116100000Y-107292380D01*
X115861904Y-107292380D01*
X117290476Y-106292380D02*
X117100000Y-106292380D01*
X117004761Y-106340000D01*
X116957142Y-106387619D01*
X116861904Y-106530476D01*
X116814285Y-106720952D01*
X116814285Y-107101904D01*
X116861904Y-107197142D01*
X116909523Y-107244761D01*
X117004761Y-107292380D01*
X117195238Y-107292380D01*
X117290476Y-107244761D01*
X117338095Y-107197142D01*
X117385714Y-107101904D01*
X117385714Y-106863809D01*
X117338095Y-106768571D01*
X117290476Y-106720952D01*
X117195238Y-106673333D01*
X117004761Y-106673333D01*
X116909523Y-106720952D01*
X116861904Y-106768571D01*
X116814285Y-106863809D01*
G04 #@! TO.C,D7*
X74191904Y-107292380D02*
X74191904Y-106292380D01*
X74430000Y-106292380D01*
X74572857Y-106340000D01*
X74668095Y-106435238D01*
X74715714Y-106530476D01*
X74763333Y-106720952D01*
X74763333Y-106863809D01*
X74715714Y-107054285D01*
X74668095Y-107149523D01*
X74572857Y-107244761D01*
X74430000Y-107292380D01*
X74191904Y-107292380D01*
X75096666Y-106292380D02*
X75763333Y-106292380D01*
X75334761Y-107292380D01*
G04 #@! TO.C,D8*
X135983678Y-107106622D02*
X135983678Y-106106622D01*
X136221774Y-106106622D01*
X136364631Y-106154242D01*
X136459869Y-106249480D01*
X136507488Y-106344718D01*
X136555107Y-106535194D01*
X136555107Y-106678051D01*
X136507488Y-106868527D01*
X136459869Y-106963765D01*
X136364631Y-107059003D01*
X136221774Y-107106622D01*
X135983678Y-107106622D01*
X137126535Y-106535194D02*
X137031297Y-106487575D01*
X136983678Y-106439956D01*
X136936059Y-106344718D01*
X136936059Y-106297099D01*
X136983678Y-106201861D01*
X137031297Y-106154242D01*
X137126535Y-106106622D01*
X137317012Y-106106622D01*
X137412250Y-106154242D01*
X137459869Y-106201861D01*
X137507488Y-106297099D01*
X137507488Y-106344718D01*
X137459869Y-106439956D01*
X137412250Y-106487575D01*
X137317012Y-106535194D01*
X137126535Y-106535194D01*
X137031297Y-106582813D01*
X136983678Y-106630432D01*
X136936059Y-106725670D01*
X136936059Y-106916146D01*
X136983678Y-107011384D01*
X137031297Y-107059003D01*
X137126535Y-107106622D01*
X137317012Y-107106622D01*
X137412250Y-107059003D01*
X137459869Y-107011384D01*
X137507488Y-106916146D01*
X137507488Y-106725670D01*
X137459869Y-106630432D01*
X137412250Y-106582813D01*
X137317012Y-106535194D01*
G04 #@! TO.C,D9*
X183171904Y-139357380D02*
X183171904Y-138357380D01*
X183410000Y-138357380D01*
X183552857Y-138405000D01*
X183648095Y-138500238D01*
X183695714Y-138595476D01*
X183743333Y-138785952D01*
X183743333Y-138928809D01*
X183695714Y-139119285D01*
X183648095Y-139214523D01*
X183552857Y-139309761D01*
X183410000Y-139357380D01*
X183171904Y-139357380D01*
X184219523Y-139357380D02*
X184410000Y-139357380D01*
X184505238Y-139309761D01*
X184552857Y-139262142D01*
X184648095Y-139119285D01*
X184695714Y-138928809D01*
X184695714Y-138547857D01*
X184648095Y-138452619D01*
X184600476Y-138405000D01*
X184505238Y-138357380D01*
X184314761Y-138357380D01*
X184219523Y-138405000D01*
X184171904Y-138452619D01*
X184124285Y-138547857D01*
X184124285Y-138785952D01*
X184171904Y-138881190D01*
X184219523Y-138928809D01*
X184314761Y-138976428D01*
X184505238Y-138976428D01*
X184600476Y-138928809D01*
X184648095Y-138881190D01*
X184695714Y-138785952D01*
G04 #@! TO.C,D10*
X53000714Y-107292380D02*
X53000714Y-106292380D01*
X53238809Y-106292380D01*
X53381666Y-106340000D01*
X53476904Y-106435238D01*
X53524523Y-106530476D01*
X53572142Y-106720952D01*
X53572142Y-106863809D01*
X53524523Y-107054285D01*
X53476904Y-107149523D01*
X53381666Y-107244761D01*
X53238809Y-107292380D01*
X53000714Y-107292380D01*
X54524523Y-107292380D02*
X53953095Y-107292380D01*
X54238809Y-107292380D02*
X54238809Y-106292380D01*
X54143571Y-106435238D01*
X54048333Y-106530476D01*
X53953095Y-106578095D01*
X55143571Y-106292380D02*
X55238809Y-106292380D01*
X55334047Y-106340000D01*
X55381666Y-106387619D01*
X55429285Y-106482857D01*
X55476904Y-106673333D01*
X55476904Y-106911428D01*
X55429285Y-107101904D01*
X55381666Y-107197142D01*
X55334047Y-107244761D01*
X55238809Y-107292380D01*
X55143571Y-107292380D01*
X55048333Y-107244761D01*
X55000714Y-107197142D01*
X54953095Y-107101904D01*
X54905476Y-106911428D01*
X54905476Y-106673333D01*
X54953095Y-106482857D01*
X55000714Y-106387619D01*
X55048333Y-106340000D01*
X55143571Y-106292380D01*
G04 #@! TO.C,R35*
X185807142Y-106972380D02*
X185473809Y-106496190D01*
X185235714Y-106972380D02*
X185235714Y-105972380D01*
X185616666Y-105972380D01*
X185711904Y-106020000D01*
X185759523Y-106067619D01*
X185807142Y-106162857D01*
X185807142Y-106305714D01*
X185759523Y-106400952D01*
X185711904Y-106448571D01*
X185616666Y-106496190D01*
X185235714Y-106496190D01*
X186140476Y-105972380D02*
X186759523Y-105972380D01*
X186426190Y-106353333D01*
X186569047Y-106353333D01*
X186664285Y-106400952D01*
X186711904Y-106448571D01*
X186759523Y-106543809D01*
X186759523Y-106781904D01*
X186711904Y-106877142D01*
X186664285Y-106924761D01*
X186569047Y-106972380D01*
X186283333Y-106972380D01*
X186188095Y-106924761D01*
X186140476Y-106877142D01*
X187664285Y-105972380D02*
X187188095Y-105972380D01*
X187140476Y-106448571D01*
X187188095Y-106400952D01*
X187283333Y-106353333D01*
X187521428Y-106353333D01*
X187616666Y-106400952D01*
X187664285Y-106448571D01*
X187711904Y-106543809D01*
X187711904Y-106781904D01*
X187664285Y-106877142D01*
X187616666Y-106924761D01*
X187521428Y-106972380D01*
X187283333Y-106972380D01*
X187188095Y-106924761D01*
X187140476Y-106877142D01*
G04 #@! TO.C,R36*
X91827142Y-104432380D02*
X91493809Y-103956190D01*
X91255714Y-104432380D02*
X91255714Y-103432380D01*
X91636666Y-103432380D01*
X91731904Y-103480000D01*
X91779523Y-103527619D01*
X91827142Y-103622857D01*
X91827142Y-103765714D01*
X91779523Y-103860952D01*
X91731904Y-103908571D01*
X91636666Y-103956190D01*
X91255714Y-103956190D01*
X92160476Y-103432380D02*
X92779523Y-103432380D01*
X92446190Y-103813333D01*
X92589047Y-103813333D01*
X92684285Y-103860952D01*
X92731904Y-103908571D01*
X92779523Y-104003809D01*
X92779523Y-104241904D01*
X92731904Y-104337142D01*
X92684285Y-104384761D01*
X92589047Y-104432380D01*
X92303333Y-104432380D01*
X92208095Y-104384761D01*
X92160476Y-104337142D01*
X93636666Y-103432380D02*
X93446190Y-103432380D01*
X93350952Y-103480000D01*
X93303333Y-103527619D01*
X93208095Y-103670476D01*
X93160476Y-103860952D01*
X93160476Y-104241904D01*
X93208095Y-104337142D01*
X93255714Y-104384761D01*
X93350952Y-104432380D01*
X93541428Y-104432380D01*
X93636666Y-104384761D01*
X93684285Y-104337142D01*
X93731904Y-104241904D01*
X93731904Y-104003809D01*
X93684285Y-103908571D01*
X93636666Y-103860952D01*
X93541428Y-103813333D01*
X93350952Y-103813333D01*
X93255714Y-103860952D01*
X93208095Y-103908571D01*
X93160476Y-104003809D01*
G04 #@! TO.C,R37*
X157867142Y-63792380D02*
X157533809Y-63316190D01*
X157295714Y-63792380D02*
X157295714Y-62792380D01*
X157676666Y-62792380D01*
X157771904Y-62840000D01*
X157819523Y-62887619D01*
X157867142Y-62982857D01*
X157867142Y-63125714D01*
X157819523Y-63220952D01*
X157771904Y-63268571D01*
X157676666Y-63316190D01*
X157295714Y-63316190D01*
X158200476Y-62792380D02*
X158819523Y-62792380D01*
X158486190Y-63173333D01*
X158629047Y-63173333D01*
X158724285Y-63220952D01*
X158771904Y-63268571D01*
X158819523Y-63363809D01*
X158819523Y-63601904D01*
X158771904Y-63697142D01*
X158724285Y-63744761D01*
X158629047Y-63792380D01*
X158343333Y-63792380D01*
X158248095Y-63744761D01*
X158200476Y-63697142D01*
X159152857Y-62792380D02*
X159819523Y-62792380D01*
X159390952Y-63792380D01*
G04 #@! TO.C,R38*
X112147142Y-104432380D02*
X111813809Y-103956190D01*
X111575714Y-104432380D02*
X111575714Y-103432380D01*
X111956666Y-103432380D01*
X112051904Y-103480000D01*
X112099523Y-103527619D01*
X112147142Y-103622857D01*
X112147142Y-103765714D01*
X112099523Y-103860952D01*
X112051904Y-103908571D01*
X111956666Y-103956190D01*
X111575714Y-103956190D01*
X112480476Y-103432380D02*
X113099523Y-103432380D01*
X112766190Y-103813333D01*
X112909047Y-103813333D01*
X113004285Y-103860952D01*
X113051904Y-103908571D01*
X113099523Y-104003809D01*
X113099523Y-104241904D01*
X113051904Y-104337142D01*
X113004285Y-104384761D01*
X112909047Y-104432380D01*
X112623333Y-104432380D01*
X112528095Y-104384761D01*
X112480476Y-104337142D01*
X113670952Y-103860952D02*
X113575714Y-103813333D01*
X113528095Y-103765714D01*
X113480476Y-103670476D01*
X113480476Y-103622857D01*
X113528095Y-103527619D01*
X113575714Y-103480000D01*
X113670952Y-103432380D01*
X113861428Y-103432380D01*
X113956666Y-103480000D01*
X114004285Y-103527619D01*
X114051904Y-103622857D01*
X114051904Y-103670476D01*
X114004285Y-103765714D01*
X113956666Y-103813333D01*
X113861428Y-103860952D01*
X113670952Y-103860952D01*
X113575714Y-103908571D01*
X113528095Y-103956190D01*
X113480476Y-104051428D01*
X113480476Y-104241904D01*
X113528095Y-104337142D01*
X113575714Y-104384761D01*
X113670952Y-104432380D01*
X113861428Y-104432380D01*
X113956666Y-104384761D01*
X114004285Y-104337142D01*
X114051904Y-104241904D01*
X114051904Y-104051428D01*
X114004285Y-103956190D01*
X113956666Y-103908571D01*
X113861428Y-103860952D01*
G04 #@! TO.C,R39*
X70237142Y-104432380D02*
X69903809Y-103956190D01*
X69665714Y-104432380D02*
X69665714Y-103432380D01*
X70046666Y-103432380D01*
X70141904Y-103480000D01*
X70189523Y-103527619D01*
X70237142Y-103622857D01*
X70237142Y-103765714D01*
X70189523Y-103860952D01*
X70141904Y-103908571D01*
X70046666Y-103956190D01*
X69665714Y-103956190D01*
X70570476Y-103432380D02*
X71189523Y-103432380D01*
X70856190Y-103813333D01*
X70999047Y-103813333D01*
X71094285Y-103860952D01*
X71141904Y-103908571D01*
X71189523Y-104003809D01*
X71189523Y-104241904D01*
X71141904Y-104337142D01*
X71094285Y-104384761D01*
X70999047Y-104432380D01*
X70713333Y-104432380D01*
X70618095Y-104384761D01*
X70570476Y-104337142D01*
X71665714Y-104432380D02*
X71856190Y-104432380D01*
X71951428Y-104384761D01*
X71999047Y-104337142D01*
X72094285Y-104194285D01*
X72141904Y-104003809D01*
X72141904Y-103622857D01*
X72094285Y-103527619D01*
X72046666Y-103480000D01*
X71951428Y-103432380D01*
X71760952Y-103432380D01*
X71665714Y-103480000D01*
X71618095Y-103527619D01*
X71570476Y-103622857D01*
X71570476Y-103860952D01*
X71618095Y-103956190D01*
X71665714Y-104003809D01*
X71760952Y-104051428D01*
X71951428Y-104051428D01*
X72046666Y-104003809D01*
X72094285Y-103956190D01*
X72141904Y-103860952D01*
G04 #@! TO.C,R40*
X132423916Y-104246622D02*
X132090583Y-103770432D01*
X131852488Y-104246622D02*
X131852488Y-103246622D01*
X132233440Y-103246622D01*
X132328678Y-103294242D01*
X132376297Y-103341861D01*
X132423916Y-103437099D01*
X132423916Y-103579956D01*
X132376297Y-103675194D01*
X132328678Y-103722813D01*
X132233440Y-103770432D01*
X131852488Y-103770432D01*
X133281059Y-103579956D02*
X133281059Y-104246622D01*
X133042964Y-103199003D02*
X132804869Y-103913289D01*
X133423916Y-103913289D01*
X133995345Y-103246622D02*
X134090583Y-103246622D01*
X134185821Y-103294242D01*
X134233440Y-103341861D01*
X134281059Y-103437099D01*
X134328678Y-103627575D01*
X134328678Y-103865670D01*
X134281059Y-104056146D01*
X134233440Y-104151384D01*
X134185821Y-104199003D01*
X134090583Y-104246622D01*
X133995345Y-104246622D01*
X133900107Y-104199003D01*
X133852488Y-104151384D01*
X133804869Y-104056146D01*
X133757250Y-103865670D01*
X133757250Y-103627575D01*
X133804869Y-103437099D01*
X133852488Y-103341861D01*
X133900107Y-103294242D01*
X133995345Y-103246622D01*
G04 #@! TO.C,R41*
X187557142Y-142217380D02*
X187223809Y-141741190D01*
X186985714Y-142217380D02*
X186985714Y-141217380D01*
X187366666Y-141217380D01*
X187461904Y-141265000D01*
X187509523Y-141312619D01*
X187557142Y-141407857D01*
X187557142Y-141550714D01*
X187509523Y-141645952D01*
X187461904Y-141693571D01*
X187366666Y-141741190D01*
X186985714Y-141741190D01*
X188414285Y-141550714D02*
X188414285Y-142217380D01*
X188176190Y-141169761D02*
X187938095Y-141884047D01*
X188557142Y-141884047D01*
X189461904Y-142217380D02*
X188890476Y-142217380D01*
X189176190Y-142217380D02*
X189176190Y-141217380D01*
X189080952Y-141360238D01*
X188985714Y-141455476D01*
X188890476Y-141503095D01*
G04 #@! TO.C,R42*
X49680864Y-104432380D02*
X49347531Y-103956190D01*
X49109436Y-104432380D02*
X49109436Y-103432380D01*
X49490388Y-103432380D01*
X49585626Y-103480000D01*
X49633245Y-103527619D01*
X49680864Y-103622857D01*
X49680864Y-103765714D01*
X49633245Y-103860952D01*
X49585626Y-103908571D01*
X49490388Y-103956190D01*
X49109436Y-103956190D01*
X50538007Y-103765714D02*
X50538007Y-104432380D01*
X50299912Y-103384761D02*
X50061817Y-104099047D01*
X50680864Y-104099047D01*
X51014198Y-103527619D02*
X51061817Y-103480000D01*
X51157055Y-103432380D01*
X51395150Y-103432380D01*
X51490388Y-103480000D01*
X51538007Y-103527619D01*
X51585626Y-103622857D01*
X51585626Y-103718095D01*
X51538007Y-103860952D01*
X50966579Y-104432380D01*
X51585626Y-104432380D01*
G04 #@! TD*
M02*
