M48
;DRILL file {KiCad (5.0.0)} date 12/11/19 16:28:58
;FORMAT={-:-/ absolute / inch / decimal}
FMAT,2
INCH,TZ
T1C0.0157
T2C0.0256
T3C0.1616
%
G90
G05
M72
T1
X1.9Y-2.7
X2.047Y-4.031
X2.175Y-2.7
X2.254Y-4.149
X2.325Y-2.7
X2.851Y-4.053
X2.975Y-2.7
X3.062Y-4.151
X3.1Y-2.7
X3.225Y-2.7
X3.699Y-4.061
X3.8Y-2.725
X3.902Y-4.154
X3.975Y-2.7
X4.075Y-2.7
X4.5Y-4.065
X4.575Y-2.675
X4.704Y-4.154
X4.75Y-2.7
X4.875Y-2.675
X5.323Y-4.019
X5.4Y-2.7
X5.494Y-4.146
X5.575Y-2.7
X5.7Y-2.7
X5.75Y-4.4
X5.9Y-3.9
X5.9485Y-4.9795
X6.375Y-2.7357
X6.421Y-2.458
X6.575Y-2.8
X7.1295Y-5.5195
X7.15Y-4.7
X7.15Y-5.375
X7.175Y-4.375
X7.175Y-4.55
X7.3Y-4.45
T2
X3.825Y-2.025
X3.825Y-2.075
X3.825Y-2.125
X3.825Y-2.175
X3.825Y-2.225
X3.875Y-2.025
X3.875Y-2.075
X3.875Y-2.125
X3.875Y-2.175
X3.875Y-2.225
T3
X2.9382Y-2.973
X2.9382Y-3.284
X2.9382Y-3.595
X4.55Y-4.615
X4.55Y-4.926
X4.55Y-5.237
X2.525Y-4.6224
X2.525Y-4.9335
X2.525Y-5.2445
X4.05Y-4.615
X4.05Y-4.926
X4.05Y-5.237
X6.28Y-5.2132
X6.591Y-5.2132
X6.902Y-5.2132
X3.05Y-4.628
X3.05Y-4.939
X3.05Y-5.25
X5.4Y-2.29
X5.711Y-2.29
X5.55Y-4.615
X5.55Y-4.926
X5.55Y-5.237
X4.5882Y-2.948
X4.5882Y-3.259
X4.5882Y-3.57
X2.0537Y-2.952
X2.0537Y-3.263
X2.0537Y-3.574
X3.7882Y-2.948
X3.7882Y-3.259
X3.7882Y-3.57
X2.05Y-4.615
X2.05Y-4.926
X2.05Y-5.237
X5.05Y-4.6174
X5.05Y-4.9285
X5.05Y-5.2395
X6.291Y-4.3882
X6.602Y-4.3882
X6.9131Y-4.3882
X3.55Y-4.625
X3.55Y-4.936
X3.55Y-5.247
X6.275Y-2.9837
X6.275Y-3.2947
X6.275Y-3.6057
X5.4132Y-2.943
X5.4132Y-3.254
X5.4132Y-3.565
X2.15Y-2.3
X2.461Y-2.3
T0
M30
