G04 #@! TF.GenerationSoftware,KiCad,Pcbnew,(5.0.0)*
G04 #@! TF.CreationDate,2019-12-11T16:29:05-06:00*
G04 #@! TF.ProjectId,PatchPanel,506174636850616E656C2E6B69636164,rev?*
G04 #@! TF.SameCoordinates,Original*
G04 #@! TF.FileFunction,Paste,Top*
G04 #@! TF.FilePolarity,Positive*
%FSLAX46Y46*%
G04 Gerber Fmt 4.6, Leading zero omitted, Abs format (unit mm)*
G04 Created by KiCad (PCBNEW (5.0.0)) date 12/11/19 16:29:05*
%MOMM*%
%LPD*%
G01*
G04 APERTURE LIST*
%ADD10R,1.200000X2.200000*%
%ADD11R,2.750000X3.050000*%
%ADD12R,1.500000X0.450000*%
%ADD13R,2.200000X1.200000*%
%ADD14R,3.050000X2.750000*%
%ADD15R,0.450000X1.500000*%
%ADD16C,0.100000*%
%ADD17C,0.950000*%
G04 APERTURE END LIST*
D10*
G04 #@! TO.C,Q1*
X59408180Y-97434654D03*
X63968180Y-97434654D03*
D11*
X63213180Y-89459654D03*
X60163180Y-92809654D03*
X60163180Y-89459654D03*
X63213180Y-92809654D03*
G04 #@! TD*
G04 #@! TO.C,Q2*
X60163180Y-80764654D03*
X63213180Y-84114654D03*
X63213180Y-80764654D03*
X60163180Y-84114654D03*
D10*
X59408180Y-76139654D03*
X63968180Y-76139654D03*
G04 #@! TD*
D12*
G04 #@! TO.C,Q3*
X54670000Y-100330000D03*
X52010000Y-100980000D03*
X52010000Y-99680000D03*
G04 #@! TD*
G04 #@! TO.C,Q4*
X62170000Y-67930000D03*
X62170000Y-69230000D03*
X64830000Y-68580000D03*
G04 #@! TD*
D13*
G04 #@! TO.C,Q5*
X152856782Y-139026060D03*
X152856782Y-143586060D03*
D14*
X160831782Y-142831060D03*
X157481782Y-139781060D03*
X160831782Y-139781060D03*
X157481782Y-142831060D03*
G04 #@! TD*
G04 #@! TO.C,Q6*
X169721782Y-139781060D03*
X166371782Y-142831060D03*
X169721782Y-142831060D03*
X166371782Y-139781060D03*
D13*
X174346782Y-139026060D03*
X174346782Y-143586060D03*
G04 #@! TD*
D15*
G04 #@! TO.C,Q7*
X151750000Y-131565000D03*
X151100000Y-128905000D03*
X152400000Y-128905000D03*
G04 #@! TD*
G04 #@! TO.C,Q8*
X182333940Y-142696060D03*
X181033940Y-142696060D03*
X181683940Y-145356060D03*
G04 #@! TD*
D10*
G04 #@! TO.C,Q9*
X81241060Y-97333218D03*
X85801060Y-97333218D03*
D11*
X85046060Y-89358218D03*
X81996060Y-92708218D03*
X81996060Y-89358218D03*
X85046060Y-92708218D03*
G04 #@! TD*
G04 #@! TO.C,Q10*
X81741060Y-80698218D03*
X84791060Y-84048218D03*
X84791060Y-80698218D03*
X81741060Y-84048218D03*
D10*
X80986060Y-76073218D03*
X85546060Y-76073218D03*
G04 #@! TD*
D12*
G04 #@! TO.C,Q11*
X75050000Y-100980000D03*
X72390000Y-101630000D03*
X72390000Y-100330000D03*
G04 #@! TD*
G04 #@! TO.C,Q12*
X84970000Y-68565000D03*
X84970000Y-69865000D03*
X87630000Y-69215000D03*
G04 #@! TD*
D13*
G04 #@! TO.C,Q13*
X152856782Y-118071060D03*
X152856782Y-122631060D03*
D14*
X160831782Y-121876060D03*
X157481782Y-118826060D03*
X160831782Y-118826060D03*
X157481782Y-121876060D03*
G04 #@! TD*
G04 #@! TO.C,Q14*
X169491782Y-118826060D03*
X166141782Y-121876060D03*
X169491782Y-121876060D03*
X166141782Y-118826060D03*
D13*
X174116782Y-118071060D03*
X174116782Y-122631060D03*
G04 #@! TD*
D15*
G04 #@! TO.C,Q15*
X149240000Y-112275000D03*
X147940000Y-112275000D03*
X148590000Y-114935000D03*
G04 #@! TD*
G04 #@! TO.C,Q16*
X181610000Y-124520000D03*
X180960000Y-121860000D03*
X182260000Y-121860000D03*
G04 #@! TD*
D10*
G04 #@! TO.C,Q17*
X102831060Y-97333218D03*
X107391060Y-97333218D03*
D11*
X106636060Y-89358218D03*
X103586060Y-92708218D03*
X103586060Y-89358218D03*
X106636060Y-92708218D03*
G04 #@! TD*
D10*
G04 #@! TO.C,Q18*
X107391060Y-76478218D03*
X102831060Y-76478218D03*
D11*
X103586060Y-84453218D03*
X106636060Y-81103218D03*
X106636060Y-84453218D03*
X103586060Y-81103218D03*
G04 #@! TD*
D12*
G04 #@! TO.C,Q19*
X93920000Y-100315000D03*
X93920000Y-101615000D03*
X96580000Y-100965000D03*
G04 #@! TD*
G04 #@! TO.C,Q20*
X108705000Y-69230000D03*
X106045000Y-69880000D03*
X106045000Y-68580000D03*
G04 #@! TD*
D11*
G04 #@! TO.C,Q21*
X168486060Y-93615744D03*
X165436060Y-90265744D03*
X165436060Y-93615744D03*
X168486060Y-90265744D03*
D10*
X169241060Y-98240744D03*
X164681060Y-98240744D03*
G04 #@! TD*
D11*
G04 #@! TO.C,Q22*
X165561060Y-82240744D03*
X168611060Y-85590744D03*
X168611060Y-82240744D03*
X165561060Y-85590744D03*
D10*
X164806060Y-77615744D03*
X169366060Y-77615744D03*
G04 #@! TD*
D12*
G04 #@! TO.C,Q23*
X151645000Y-97140000D03*
X151645000Y-98440000D03*
X154305000Y-97790000D03*
G04 #@! TD*
G04 #@! TO.C,Q24*
X170180000Y-67960000D03*
X167520000Y-68610000D03*
X167520000Y-67310000D03*
G04 #@! TD*
D10*
G04 #@! TO.C,Q25*
X123151060Y-97206218D03*
X127711060Y-97206218D03*
D11*
X126956060Y-89231218D03*
X123906060Y-92581218D03*
X123906060Y-89231218D03*
X126956060Y-92581218D03*
G04 #@! TD*
D10*
G04 #@! TO.C,Q26*
X127711060Y-76478218D03*
X123151060Y-76478218D03*
D11*
X123906060Y-84453218D03*
X126956060Y-81103218D03*
X126956060Y-84453218D03*
X123906060Y-81103218D03*
G04 #@! TD*
D12*
G04 #@! TO.C,Q27*
X114240000Y-100315000D03*
X114240000Y-101615000D03*
X116900000Y-100965000D03*
G04 #@! TD*
G04 #@! TO.C,Q28*
X128965000Y-69850000D03*
X126305000Y-70500000D03*
X126305000Y-69200000D03*
G04 #@! TD*
D11*
G04 #@! TO.C,Q29*
X147911060Y-92176218D03*
X144861060Y-88826218D03*
X144861060Y-92176218D03*
X147911060Y-88826218D03*
D10*
X148666060Y-96801218D03*
X144106060Y-96801218D03*
G04 #@! TD*
D11*
G04 #@! TO.C,Q30*
X145116060Y-80746218D03*
X148166060Y-84096218D03*
X148166060Y-80746218D03*
X145116060Y-84096218D03*
D10*
X144361060Y-76121218D03*
X148921060Y-76121218D03*
G04 #@! TD*
D12*
G04 #@! TO.C,Q31*
X135195000Y-99045000D03*
X135195000Y-100345000D03*
X137855000Y-99695000D03*
G04 #@! TD*
G04 #@! TO.C,Q32*
X149920000Y-68580000D03*
X147260000Y-69230000D03*
X147260000Y-67930000D03*
G04 #@! TD*
D16*
G04 #@! TO.C,R1*
G36*
X64445779Y-100185798D02*
X64468834Y-100189217D01*
X64491443Y-100194881D01*
X64513387Y-100202733D01*
X64534457Y-100212698D01*
X64554448Y-100224680D01*
X64573168Y-100238564D01*
X64590438Y-100254216D01*
X64606090Y-100271486D01*
X64619974Y-100290206D01*
X64631956Y-100310197D01*
X64641921Y-100331267D01*
X64649773Y-100353211D01*
X64655437Y-100375820D01*
X64658856Y-100398875D01*
X64660000Y-100422154D01*
X64660000Y-100897154D01*
X64658856Y-100920433D01*
X64655437Y-100943488D01*
X64649773Y-100966097D01*
X64641921Y-100988041D01*
X64631956Y-101009111D01*
X64619974Y-101029102D01*
X64606090Y-101047822D01*
X64590438Y-101065092D01*
X64573168Y-101080744D01*
X64554448Y-101094628D01*
X64534457Y-101106610D01*
X64513387Y-101116575D01*
X64491443Y-101124427D01*
X64468834Y-101130091D01*
X64445779Y-101133510D01*
X64422500Y-101134654D01*
X63847500Y-101134654D01*
X63824221Y-101133510D01*
X63801166Y-101130091D01*
X63778557Y-101124427D01*
X63756613Y-101116575D01*
X63735543Y-101106610D01*
X63715552Y-101094628D01*
X63696832Y-101080744D01*
X63679562Y-101065092D01*
X63663910Y-101047822D01*
X63650026Y-101029102D01*
X63638044Y-101009111D01*
X63628079Y-100988041D01*
X63620227Y-100966097D01*
X63614563Y-100943488D01*
X63611144Y-100920433D01*
X63610000Y-100897154D01*
X63610000Y-100422154D01*
X63611144Y-100398875D01*
X63614563Y-100375820D01*
X63620227Y-100353211D01*
X63628079Y-100331267D01*
X63638044Y-100310197D01*
X63650026Y-100290206D01*
X63663910Y-100271486D01*
X63679562Y-100254216D01*
X63696832Y-100238564D01*
X63715552Y-100224680D01*
X63735543Y-100212698D01*
X63756613Y-100202733D01*
X63778557Y-100194881D01*
X63801166Y-100189217D01*
X63824221Y-100185798D01*
X63847500Y-100184654D01*
X64422500Y-100184654D01*
X64445779Y-100185798D01*
X64445779Y-100185798D01*
G37*
D17*
X64135000Y-100659654D03*
D16*
G36*
X62695779Y-100185798D02*
X62718834Y-100189217D01*
X62741443Y-100194881D01*
X62763387Y-100202733D01*
X62784457Y-100212698D01*
X62804448Y-100224680D01*
X62823168Y-100238564D01*
X62840438Y-100254216D01*
X62856090Y-100271486D01*
X62869974Y-100290206D01*
X62881956Y-100310197D01*
X62891921Y-100331267D01*
X62899773Y-100353211D01*
X62905437Y-100375820D01*
X62908856Y-100398875D01*
X62910000Y-100422154D01*
X62910000Y-100897154D01*
X62908856Y-100920433D01*
X62905437Y-100943488D01*
X62899773Y-100966097D01*
X62891921Y-100988041D01*
X62881956Y-101009111D01*
X62869974Y-101029102D01*
X62856090Y-101047822D01*
X62840438Y-101065092D01*
X62823168Y-101080744D01*
X62804448Y-101094628D01*
X62784457Y-101106610D01*
X62763387Y-101116575D01*
X62741443Y-101124427D01*
X62718834Y-101130091D01*
X62695779Y-101133510D01*
X62672500Y-101134654D01*
X62097500Y-101134654D01*
X62074221Y-101133510D01*
X62051166Y-101130091D01*
X62028557Y-101124427D01*
X62006613Y-101116575D01*
X61985543Y-101106610D01*
X61965552Y-101094628D01*
X61946832Y-101080744D01*
X61929562Y-101065092D01*
X61913910Y-101047822D01*
X61900026Y-101029102D01*
X61888044Y-101009111D01*
X61878079Y-100988041D01*
X61870227Y-100966097D01*
X61864563Y-100943488D01*
X61861144Y-100920433D01*
X61860000Y-100897154D01*
X61860000Y-100422154D01*
X61861144Y-100398875D01*
X61864563Y-100375820D01*
X61870227Y-100353211D01*
X61878079Y-100331267D01*
X61888044Y-100310197D01*
X61900026Y-100290206D01*
X61913910Y-100271486D01*
X61929562Y-100254216D01*
X61946832Y-100238564D01*
X61965552Y-100224680D01*
X61985543Y-100212698D01*
X62006613Y-100202733D01*
X62028557Y-100194881D01*
X62051166Y-100189217D01*
X62074221Y-100185798D01*
X62097500Y-100184654D01*
X62672500Y-100184654D01*
X62695779Y-100185798D01*
X62695779Y-100185798D01*
G37*
D17*
X62385000Y-100659654D03*
G04 #@! TD*
D16*
G04 #@! TO.C,R2*
G36*
X60633959Y-71625798D02*
X60657014Y-71629217D01*
X60679623Y-71634881D01*
X60701567Y-71642733D01*
X60722637Y-71652698D01*
X60742628Y-71664680D01*
X60761348Y-71678564D01*
X60778618Y-71694216D01*
X60794270Y-71711486D01*
X60808154Y-71730206D01*
X60820136Y-71750197D01*
X60830101Y-71771267D01*
X60837953Y-71793211D01*
X60843617Y-71815820D01*
X60847036Y-71838875D01*
X60848180Y-71862154D01*
X60848180Y-72337154D01*
X60847036Y-72360433D01*
X60843617Y-72383488D01*
X60837953Y-72406097D01*
X60830101Y-72428041D01*
X60820136Y-72449111D01*
X60808154Y-72469102D01*
X60794270Y-72487822D01*
X60778618Y-72505092D01*
X60761348Y-72520744D01*
X60742628Y-72534628D01*
X60722637Y-72546610D01*
X60701567Y-72556575D01*
X60679623Y-72564427D01*
X60657014Y-72570091D01*
X60633959Y-72573510D01*
X60610680Y-72574654D01*
X60035680Y-72574654D01*
X60012401Y-72573510D01*
X59989346Y-72570091D01*
X59966737Y-72564427D01*
X59944793Y-72556575D01*
X59923723Y-72546610D01*
X59903732Y-72534628D01*
X59885012Y-72520744D01*
X59867742Y-72505092D01*
X59852090Y-72487822D01*
X59838206Y-72469102D01*
X59826224Y-72449111D01*
X59816259Y-72428041D01*
X59808407Y-72406097D01*
X59802743Y-72383488D01*
X59799324Y-72360433D01*
X59798180Y-72337154D01*
X59798180Y-71862154D01*
X59799324Y-71838875D01*
X59802743Y-71815820D01*
X59808407Y-71793211D01*
X59816259Y-71771267D01*
X59826224Y-71750197D01*
X59838206Y-71730206D01*
X59852090Y-71711486D01*
X59867742Y-71694216D01*
X59885012Y-71678564D01*
X59903732Y-71664680D01*
X59923723Y-71652698D01*
X59944793Y-71642733D01*
X59966737Y-71634881D01*
X59989346Y-71629217D01*
X60012401Y-71625798D01*
X60035680Y-71624654D01*
X60610680Y-71624654D01*
X60633959Y-71625798D01*
X60633959Y-71625798D01*
G37*
D17*
X60323180Y-72099654D03*
D16*
G36*
X58883959Y-71625798D02*
X58907014Y-71629217D01*
X58929623Y-71634881D01*
X58951567Y-71642733D01*
X58972637Y-71652698D01*
X58992628Y-71664680D01*
X59011348Y-71678564D01*
X59028618Y-71694216D01*
X59044270Y-71711486D01*
X59058154Y-71730206D01*
X59070136Y-71750197D01*
X59080101Y-71771267D01*
X59087953Y-71793211D01*
X59093617Y-71815820D01*
X59097036Y-71838875D01*
X59098180Y-71862154D01*
X59098180Y-72337154D01*
X59097036Y-72360433D01*
X59093617Y-72383488D01*
X59087953Y-72406097D01*
X59080101Y-72428041D01*
X59070136Y-72449111D01*
X59058154Y-72469102D01*
X59044270Y-72487822D01*
X59028618Y-72505092D01*
X59011348Y-72520744D01*
X58992628Y-72534628D01*
X58972637Y-72546610D01*
X58951567Y-72556575D01*
X58929623Y-72564427D01*
X58907014Y-72570091D01*
X58883959Y-72573510D01*
X58860680Y-72574654D01*
X58285680Y-72574654D01*
X58262401Y-72573510D01*
X58239346Y-72570091D01*
X58216737Y-72564427D01*
X58194793Y-72556575D01*
X58173723Y-72546610D01*
X58153732Y-72534628D01*
X58135012Y-72520744D01*
X58117742Y-72505092D01*
X58102090Y-72487822D01*
X58088206Y-72469102D01*
X58076224Y-72449111D01*
X58066259Y-72428041D01*
X58058407Y-72406097D01*
X58052743Y-72383488D01*
X58049324Y-72360433D01*
X58048180Y-72337154D01*
X58048180Y-71862154D01*
X58049324Y-71838875D01*
X58052743Y-71815820D01*
X58058407Y-71793211D01*
X58066259Y-71771267D01*
X58076224Y-71750197D01*
X58088206Y-71730206D01*
X58102090Y-71711486D01*
X58117742Y-71694216D01*
X58135012Y-71678564D01*
X58153732Y-71664680D01*
X58173723Y-71652698D01*
X58194793Y-71642733D01*
X58216737Y-71634881D01*
X58239346Y-71629217D01*
X58262401Y-71625798D01*
X58285680Y-71624654D01*
X58860680Y-71624654D01*
X58883959Y-71625798D01*
X58883959Y-71625798D01*
G37*
D17*
X58573180Y-72099654D03*
G04 #@! TD*
D16*
G04 #@! TO.C,R3*
G36*
X57708959Y-100185798D02*
X57732014Y-100189217D01*
X57754623Y-100194881D01*
X57776567Y-100202733D01*
X57797637Y-100212698D01*
X57817628Y-100224680D01*
X57836348Y-100238564D01*
X57853618Y-100254216D01*
X57869270Y-100271486D01*
X57883154Y-100290206D01*
X57895136Y-100310197D01*
X57905101Y-100331267D01*
X57912953Y-100353211D01*
X57918617Y-100375820D01*
X57922036Y-100398875D01*
X57923180Y-100422154D01*
X57923180Y-100897154D01*
X57922036Y-100920433D01*
X57918617Y-100943488D01*
X57912953Y-100966097D01*
X57905101Y-100988041D01*
X57895136Y-101009111D01*
X57883154Y-101029102D01*
X57869270Y-101047822D01*
X57853618Y-101065092D01*
X57836348Y-101080744D01*
X57817628Y-101094628D01*
X57797637Y-101106610D01*
X57776567Y-101116575D01*
X57754623Y-101124427D01*
X57732014Y-101130091D01*
X57708959Y-101133510D01*
X57685680Y-101134654D01*
X57110680Y-101134654D01*
X57087401Y-101133510D01*
X57064346Y-101130091D01*
X57041737Y-101124427D01*
X57019793Y-101116575D01*
X56998723Y-101106610D01*
X56978732Y-101094628D01*
X56960012Y-101080744D01*
X56942742Y-101065092D01*
X56927090Y-101047822D01*
X56913206Y-101029102D01*
X56901224Y-101009111D01*
X56891259Y-100988041D01*
X56883407Y-100966097D01*
X56877743Y-100943488D01*
X56874324Y-100920433D01*
X56873180Y-100897154D01*
X56873180Y-100422154D01*
X56874324Y-100398875D01*
X56877743Y-100375820D01*
X56883407Y-100353211D01*
X56891259Y-100331267D01*
X56901224Y-100310197D01*
X56913206Y-100290206D01*
X56927090Y-100271486D01*
X56942742Y-100254216D01*
X56960012Y-100238564D01*
X56978732Y-100224680D01*
X56998723Y-100212698D01*
X57019793Y-100202733D01*
X57041737Y-100194881D01*
X57064346Y-100189217D01*
X57087401Y-100185798D01*
X57110680Y-100184654D01*
X57685680Y-100184654D01*
X57708959Y-100185798D01*
X57708959Y-100185798D01*
G37*
D17*
X57398180Y-100659654D03*
D16*
G36*
X59458959Y-100185798D02*
X59482014Y-100189217D01*
X59504623Y-100194881D01*
X59526567Y-100202733D01*
X59547637Y-100212698D01*
X59567628Y-100224680D01*
X59586348Y-100238564D01*
X59603618Y-100254216D01*
X59619270Y-100271486D01*
X59633154Y-100290206D01*
X59645136Y-100310197D01*
X59655101Y-100331267D01*
X59662953Y-100353211D01*
X59668617Y-100375820D01*
X59672036Y-100398875D01*
X59673180Y-100422154D01*
X59673180Y-100897154D01*
X59672036Y-100920433D01*
X59668617Y-100943488D01*
X59662953Y-100966097D01*
X59655101Y-100988041D01*
X59645136Y-101009111D01*
X59633154Y-101029102D01*
X59619270Y-101047822D01*
X59603618Y-101065092D01*
X59586348Y-101080744D01*
X59567628Y-101094628D01*
X59547637Y-101106610D01*
X59526567Y-101116575D01*
X59504623Y-101124427D01*
X59482014Y-101130091D01*
X59458959Y-101133510D01*
X59435680Y-101134654D01*
X58860680Y-101134654D01*
X58837401Y-101133510D01*
X58814346Y-101130091D01*
X58791737Y-101124427D01*
X58769793Y-101116575D01*
X58748723Y-101106610D01*
X58728732Y-101094628D01*
X58710012Y-101080744D01*
X58692742Y-101065092D01*
X58677090Y-101047822D01*
X58663206Y-101029102D01*
X58651224Y-101009111D01*
X58641259Y-100988041D01*
X58633407Y-100966097D01*
X58627743Y-100943488D01*
X58624324Y-100920433D01*
X58623180Y-100897154D01*
X58623180Y-100422154D01*
X58624324Y-100398875D01*
X58627743Y-100375820D01*
X58633407Y-100353211D01*
X58641259Y-100331267D01*
X58651224Y-100310197D01*
X58663206Y-100290206D01*
X58677090Y-100271486D01*
X58692742Y-100254216D01*
X58710012Y-100238564D01*
X58728732Y-100224680D01*
X58748723Y-100212698D01*
X58769793Y-100202733D01*
X58791737Y-100194881D01*
X58814346Y-100189217D01*
X58837401Y-100185798D01*
X58860680Y-100184654D01*
X59435680Y-100184654D01*
X59458959Y-100185798D01*
X59458959Y-100185798D01*
G37*
D17*
X59148180Y-100659654D03*
G04 #@! TD*
D16*
G04 #@! TO.C,R4*
G36*
X63483959Y-71625798D02*
X63507014Y-71629217D01*
X63529623Y-71634881D01*
X63551567Y-71642733D01*
X63572637Y-71652698D01*
X63592628Y-71664680D01*
X63611348Y-71678564D01*
X63628618Y-71694216D01*
X63644270Y-71711486D01*
X63658154Y-71730206D01*
X63670136Y-71750197D01*
X63680101Y-71771267D01*
X63687953Y-71793211D01*
X63693617Y-71815820D01*
X63697036Y-71838875D01*
X63698180Y-71862154D01*
X63698180Y-72337154D01*
X63697036Y-72360433D01*
X63693617Y-72383488D01*
X63687953Y-72406097D01*
X63680101Y-72428041D01*
X63670136Y-72449111D01*
X63658154Y-72469102D01*
X63644270Y-72487822D01*
X63628618Y-72505092D01*
X63611348Y-72520744D01*
X63592628Y-72534628D01*
X63572637Y-72546610D01*
X63551567Y-72556575D01*
X63529623Y-72564427D01*
X63507014Y-72570091D01*
X63483959Y-72573510D01*
X63460680Y-72574654D01*
X62885680Y-72574654D01*
X62862401Y-72573510D01*
X62839346Y-72570091D01*
X62816737Y-72564427D01*
X62794793Y-72556575D01*
X62773723Y-72546610D01*
X62753732Y-72534628D01*
X62735012Y-72520744D01*
X62717742Y-72505092D01*
X62702090Y-72487822D01*
X62688206Y-72469102D01*
X62676224Y-72449111D01*
X62666259Y-72428041D01*
X62658407Y-72406097D01*
X62652743Y-72383488D01*
X62649324Y-72360433D01*
X62648180Y-72337154D01*
X62648180Y-71862154D01*
X62649324Y-71838875D01*
X62652743Y-71815820D01*
X62658407Y-71793211D01*
X62666259Y-71771267D01*
X62676224Y-71750197D01*
X62688206Y-71730206D01*
X62702090Y-71711486D01*
X62717742Y-71694216D01*
X62735012Y-71678564D01*
X62753732Y-71664680D01*
X62773723Y-71652698D01*
X62794793Y-71642733D01*
X62816737Y-71634881D01*
X62839346Y-71629217D01*
X62862401Y-71625798D01*
X62885680Y-71624654D01*
X63460680Y-71624654D01*
X63483959Y-71625798D01*
X63483959Y-71625798D01*
G37*
D17*
X63173180Y-72099654D03*
D16*
G36*
X65233959Y-71625798D02*
X65257014Y-71629217D01*
X65279623Y-71634881D01*
X65301567Y-71642733D01*
X65322637Y-71652698D01*
X65342628Y-71664680D01*
X65361348Y-71678564D01*
X65378618Y-71694216D01*
X65394270Y-71711486D01*
X65408154Y-71730206D01*
X65420136Y-71750197D01*
X65430101Y-71771267D01*
X65437953Y-71793211D01*
X65443617Y-71815820D01*
X65447036Y-71838875D01*
X65448180Y-71862154D01*
X65448180Y-72337154D01*
X65447036Y-72360433D01*
X65443617Y-72383488D01*
X65437953Y-72406097D01*
X65430101Y-72428041D01*
X65420136Y-72449111D01*
X65408154Y-72469102D01*
X65394270Y-72487822D01*
X65378618Y-72505092D01*
X65361348Y-72520744D01*
X65342628Y-72534628D01*
X65322637Y-72546610D01*
X65301567Y-72556575D01*
X65279623Y-72564427D01*
X65257014Y-72570091D01*
X65233959Y-72573510D01*
X65210680Y-72574654D01*
X64635680Y-72574654D01*
X64612401Y-72573510D01*
X64589346Y-72570091D01*
X64566737Y-72564427D01*
X64544793Y-72556575D01*
X64523723Y-72546610D01*
X64503732Y-72534628D01*
X64485012Y-72520744D01*
X64467742Y-72505092D01*
X64452090Y-72487822D01*
X64438206Y-72469102D01*
X64426224Y-72449111D01*
X64416259Y-72428041D01*
X64408407Y-72406097D01*
X64402743Y-72383488D01*
X64399324Y-72360433D01*
X64398180Y-72337154D01*
X64398180Y-71862154D01*
X64399324Y-71838875D01*
X64402743Y-71815820D01*
X64408407Y-71793211D01*
X64416259Y-71771267D01*
X64426224Y-71750197D01*
X64438206Y-71730206D01*
X64452090Y-71711486D01*
X64467742Y-71694216D01*
X64485012Y-71678564D01*
X64503732Y-71664680D01*
X64523723Y-71652698D01*
X64544793Y-71642733D01*
X64566737Y-71634881D01*
X64589346Y-71629217D01*
X64612401Y-71625798D01*
X64635680Y-71624654D01*
X65210680Y-71624654D01*
X65233959Y-71625798D01*
X65233959Y-71625798D01*
G37*
D17*
X64923180Y-72099654D03*
G04 #@! TD*
D16*
G04 #@! TO.C,R5*
G36*
X150120779Y-137751144D02*
X150143834Y-137754563D01*
X150166443Y-137760227D01*
X150188387Y-137768079D01*
X150209457Y-137778044D01*
X150229448Y-137790026D01*
X150248168Y-137803910D01*
X150265438Y-137819562D01*
X150281090Y-137836832D01*
X150294974Y-137855552D01*
X150306956Y-137875543D01*
X150316921Y-137896613D01*
X150324773Y-137918557D01*
X150330437Y-137941166D01*
X150333856Y-137964221D01*
X150335000Y-137987500D01*
X150335000Y-138562500D01*
X150333856Y-138585779D01*
X150330437Y-138608834D01*
X150324773Y-138631443D01*
X150316921Y-138653387D01*
X150306956Y-138674457D01*
X150294974Y-138694448D01*
X150281090Y-138713168D01*
X150265438Y-138730438D01*
X150248168Y-138746090D01*
X150229448Y-138759974D01*
X150209457Y-138771956D01*
X150188387Y-138781921D01*
X150166443Y-138789773D01*
X150143834Y-138795437D01*
X150120779Y-138798856D01*
X150097500Y-138800000D01*
X149622500Y-138800000D01*
X149599221Y-138798856D01*
X149576166Y-138795437D01*
X149553557Y-138789773D01*
X149531613Y-138781921D01*
X149510543Y-138771956D01*
X149490552Y-138759974D01*
X149471832Y-138746090D01*
X149454562Y-138730438D01*
X149438910Y-138713168D01*
X149425026Y-138694448D01*
X149413044Y-138674457D01*
X149403079Y-138653387D01*
X149395227Y-138631443D01*
X149389563Y-138608834D01*
X149386144Y-138585779D01*
X149385000Y-138562500D01*
X149385000Y-137987500D01*
X149386144Y-137964221D01*
X149389563Y-137941166D01*
X149395227Y-137918557D01*
X149403079Y-137896613D01*
X149413044Y-137875543D01*
X149425026Y-137855552D01*
X149438910Y-137836832D01*
X149454562Y-137819562D01*
X149471832Y-137803910D01*
X149490552Y-137790026D01*
X149510543Y-137778044D01*
X149531613Y-137768079D01*
X149553557Y-137760227D01*
X149576166Y-137754563D01*
X149599221Y-137751144D01*
X149622500Y-137750000D01*
X150097500Y-137750000D01*
X150120779Y-137751144D01*
X150120779Y-137751144D01*
G37*
D17*
X149860000Y-138275000D03*
D16*
G36*
X150120779Y-136001144D02*
X150143834Y-136004563D01*
X150166443Y-136010227D01*
X150188387Y-136018079D01*
X150209457Y-136028044D01*
X150229448Y-136040026D01*
X150248168Y-136053910D01*
X150265438Y-136069562D01*
X150281090Y-136086832D01*
X150294974Y-136105552D01*
X150306956Y-136125543D01*
X150316921Y-136146613D01*
X150324773Y-136168557D01*
X150330437Y-136191166D01*
X150333856Y-136214221D01*
X150335000Y-136237500D01*
X150335000Y-136812500D01*
X150333856Y-136835779D01*
X150330437Y-136858834D01*
X150324773Y-136881443D01*
X150316921Y-136903387D01*
X150306956Y-136924457D01*
X150294974Y-136944448D01*
X150281090Y-136963168D01*
X150265438Y-136980438D01*
X150248168Y-136996090D01*
X150229448Y-137009974D01*
X150209457Y-137021956D01*
X150188387Y-137031921D01*
X150166443Y-137039773D01*
X150143834Y-137045437D01*
X150120779Y-137048856D01*
X150097500Y-137050000D01*
X149622500Y-137050000D01*
X149599221Y-137048856D01*
X149576166Y-137045437D01*
X149553557Y-137039773D01*
X149531613Y-137031921D01*
X149510543Y-137021956D01*
X149490552Y-137009974D01*
X149471832Y-136996090D01*
X149454562Y-136980438D01*
X149438910Y-136963168D01*
X149425026Y-136944448D01*
X149413044Y-136924457D01*
X149403079Y-136903387D01*
X149395227Y-136881443D01*
X149389563Y-136858834D01*
X149386144Y-136835779D01*
X149385000Y-136812500D01*
X149385000Y-136237500D01*
X149386144Y-136214221D01*
X149389563Y-136191166D01*
X149395227Y-136168557D01*
X149403079Y-136146613D01*
X149413044Y-136125543D01*
X149425026Y-136105552D01*
X149438910Y-136086832D01*
X149454562Y-136069562D01*
X149471832Y-136053910D01*
X149490552Y-136040026D01*
X149510543Y-136028044D01*
X149531613Y-136018079D01*
X149553557Y-136010227D01*
X149576166Y-136004563D01*
X149599221Y-136001144D01*
X149622500Y-136000000D01*
X150097500Y-136000000D01*
X150120779Y-136001144D01*
X150120779Y-136001144D01*
G37*
D17*
X149860000Y-136525000D03*
G04 #@! TD*
D16*
G04 #@! TO.C,R6*
G36*
X178467561Y-140387204D02*
X178490616Y-140390623D01*
X178513225Y-140396287D01*
X178535169Y-140404139D01*
X178556239Y-140414104D01*
X178576230Y-140426086D01*
X178594950Y-140439970D01*
X178612220Y-140455622D01*
X178627872Y-140472892D01*
X178641756Y-140491612D01*
X178653738Y-140511603D01*
X178663703Y-140532673D01*
X178671555Y-140554617D01*
X178677219Y-140577226D01*
X178680638Y-140600281D01*
X178681782Y-140623560D01*
X178681782Y-141198560D01*
X178680638Y-141221839D01*
X178677219Y-141244894D01*
X178671555Y-141267503D01*
X178663703Y-141289447D01*
X178653738Y-141310517D01*
X178641756Y-141330508D01*
X178627872Y-141349228D01*
X178612220Y-141366498D01*
X178594950Y-141382150D01*
X178576230Y-141396034D01*
X178556239Y-141408016D01*
X178535169Y-141417981D01*
X178513225Y-141425833D01*
X178490616Y-141431497D01*
X178467561Y-141434916D01*
X178444282Y-141436060D01*
X177969282Y-141436060D01*
X177946003Y-141434916D01*
X177922948Y-141431497D01*
X177900339Y-141425833D01*
X177878395Y-141417981D01*
X177857325Y-141408016D01*
X177837334Y-141396034D01*
X177818614Y-141382150D01*
X177801344Y-141366498D01*
X177785692Y-141349228D01*
X177771808Y-141330508D01*
X177759826Y-141310517D01*
X177749861Y-141289447D01*
X177742009Y-141267503D01*
X177736345Y-141244894D01*
X177732926Y-141221839D01*
X177731782Y-141198560D01*
X177731782Y-140623560D01*
X177732926Y-140600281D01*
X177736345Y-140577226D01*
X177742009Y-140554617D01*
X177749861Y-140532673D01*
X177759826Y-140511603D01*
X177771808Y-140491612D01*
X177785692Y-140472892D01*
X177801344Y-140455622D01*
X177818614Y-140439970D01*
X177837334Y-140426086D01*
X177857325Y-140414104D01*
X177878395Y-140404139D01*
X177900339Y-140396287D01*
X177922948Y-140390623D01*
X177946003Y-140387204D01*
X177969282Y-140386060D01*
X178444282Y-140386060D01*
X178467561Y-140387204D01*
X178467561Y-140387204D01*
G37*
D17*
X178206782Y-140911060D03*
D16*
G36*
X178467561Y-138637204D02*
X178490616Y-138640623D01*
X178513225Y-138646287D01*
X178535169Y-138654139D01*
X178556239Y-138664104D01*
X178576230Y-138676086D01*
X178594950Y-138689970D01*
X178612220Y-138705622D01*
X178627872Y-138722892D01*
X178641756Y-138741612D01*
X178653738Y-138761603D01*
X178663703Y-138782673D01*
X178671555Y-138804617D01*
X178677219Y-138827226D01*
X178680638Y-138850281D01*
X178681782Y-138873560D01*
X178681782Y-139448560D01*
X178680638Y-139471839D01*
X178677219Y-139494894D01*
X178671555Y-139517503D01*
X178663703Y-139539447D01*
X178653738Y-139560517D01*
X178641756Y-139580508D01*
X178627872Y-139599228D01*
X178612220Y-139616498D01*
X178594950Y-139632150D01*
X178576230Y-139646034D01*
X178556239Y-139658016D01*
X178535169Y-139667981D01*
X178513225Y-139675833D01*
X178490616Y-139681497D01*
X178467561Y-139684916D01*
X178444282Y-139686060D01*
X177969282Y-139686060D01*
X177946003Y-139684916D01*
X177922948Y-139681497D01*
X177900339Y-139675833D01*
X177878395Y-139667981D01*
X177857325Y-139658016D01*
X177837334Y-139646034D01*
X177818614Y-139632150D01*
X177801344Y-139616498D01*
X177785692Y-139599228D01*
X177771808Y-139580508D01*
X177759826Y-139560517D01*
X177749861Y-139539447D01*
X177742009Y-139517503D01*
X177736345Y-139494894D01*
X177732926Y-139471839D01*
X177731782Y-139448560D01*
X177731782Y-138873560D01*
X177732926Y-138850281D01*
X177736345Y-138827226D01*
X177742009Y-138804617D01*
X177749861Y-138782673D01*
X177759826Y-138761603D01*
X177771808Y-138741612D01*
X177785692Y-138722892D01*
X177801344Y-138705622D01*
X177818614Y-138689970D01*
X177837334Y-138676086D01*
X177857325Y-138664104D01*
X177878395Y-138654139D01*
X177900339Y-138646287D01*
X177922948Y-138640623D01*
X177946003Y-138637204D01*
X177969282Y-138636060D01*
X178444282Y-138636060D01*
X178467561Y-138637204D01*
X178467561Y-138637204D01*
G37*
D17*
X178206782Y-139161060D03*
G04 #@! TD*
D16*
G04 #@! TO.C,R7*
G36*
X153295779Y-134096144D02*
X153318834Y-134099563D01*
X153341443Y-134105227D01*
X153363387Y-134113079D01*
X153384457Y-134123044D01*
X153404448Y-134135026D01*
X153423168Y-134148910D01*
X153440438Y-134164562D01*
X153456090Y-134181832D01*
X153469974Y-134200552D01*
X153481956Y-134220543D01*
X153491921Y-134241613D01*
X153499773Y-134263557D01*
X153505437Y-134286166D01*
X153508856Y-134309221D01*
X153510000Y-134332500D01*
X153510000Y-134907500D01*
X153508856Y-134930779D01*
X153505437Y-134953834D01*
X153499773Y-134976443D01*
X153491921Y-134998387D01*
X153481956Y-135019457D01*
X153469974Y-135039448D01*
X153456090Y-135058168D01*
X153440438Y-135075438D01*
X153423168Y-135091090D01*
X153404448Y-135104974D01*
X153384457Y-135116956D01*
X153363387Y-135126921D01*
X153341443Y-135134773D01*
X153318834Y-135140437D01*
X153295779Y-135143856D01*
X153272500Y-135145000D01*
X152797500Y-135145000D01*
X152774221Y-135143856D01*
X152751166Y-135140437D01*
X152728557Y-135134773D01*
X152706613Y-135126921D01*
X152685543Y-135116956D01*
X152665552Y-135104974D01*
X152646832Y-135091090D01*
X152629562Y-135075438D01*
X152613910Y-135058168D01*
X152600026Y-135039448D01*
X152588044Y-135019457D01*
X152578079Y-134998387D01*
X152570227Y-134976443D01*
X152564563Y-134953834D01*
X152561144Y-134930779D01*
X152560000Y-134907500D01*
X152560000Y-134332500D01*
X152561144Y-134309221D01*
X152564563Y-134286166D01*
X152570227Y-134263557D01*
X152578079Y-134241613D01*
X152588044Y-134220543D01*
X152600026Y-134200552D01*
X152613910Y-134181832D01*
X152629562Y-134164562D01*
X152646832Y-134148910D01*
X152665552Y-134135026D01*
X152685543Y-134123044D01*
X152706613Y-134113079D01*
X152728557Y-134105227D01*
X152751166Y-134099563D01*
X152774221Y-134096144D01*
X152797500Y-134095000D01*
X153272500Y-134095000D01*
X153295779Y-134096144D01*
X153295779Y-134096144D01*
G37*
D17*
X153035000Y-134620000D03*
D16*
G36*
X153295779Y-135846144D02*
X153318834Y-135849563D01*
X153341443Y-135855227D01*
X153363387Y-135863079D01*
X153384457Y-135873044D01*
X153404448Y-135885026D01*
X153423168Y-135898910D01*
X153440438Y-135914562D01*
X153456090Y-135931832D01*
X153469974Y-135950552D01*
X153481956Y-135970543D01*
X153491921Y-135991613D01*
X153499773Y-136013557D01*
X153505437Y-136036166D01*
X153508856Y-136059221D01*
X153510000Y-136082500D01*
X153510000Y-136657500D01*
X153508856Y-136680779D01*
X153505437Y-136703834D01*
X153499773Y-136726443D01*
X153491921Y-136748387D01*
X153481956Y-136769457D01*
X153469974Y-136789448D01*
X153456090Y-136808168D01*
X153440438Y-136825438D01*
X153423168Y-136841090D01*
X153404448Y-136854974D01*
X153384457Y-136866956D01*
X153363387Y-136876921D01*
X153341443Y-136884773D01*
X153318834Y-136890437D01*
X153295779Y-136893856D01*
X153272500Y-136895000D01*
X152797500Y-136895000D01*
X152774221Y-136893856D01*
X152751166Y-136890437D01*
X152728557Y-136884773D01*
X152706613Y-136876921D01*
X152685543Y-136866956D01*
X152665552Y-136854974D01*
X152646832Y-136841090D01*
X152629562Y-136825438D01*
X152613910Y-136808168D01*
X152600026Y-136789448D01*
X152588044Y-136769457D01*
X152578079Y-136748387D01*
X152570227Y-136726443D01*
X152564563Y-136703834D01*
X152561144Y-136680779D01*
X152560000Y-136657500D01*
X152560000Y-136082500D01*
X152561144Y-136059221D01*
X152564563Y-136036166D01*
X152570227Y-136013557D01*
X152578079Y-135991613D01*
X152588044Y-135970543D01*
X152600026Y-135950552D01*
X152613910Y-135931832D01*
X152629562Y-135914562D01*
X152646832Y-135898910D01*
X152665552Y-135885026D01*
X152685543Y-135873044D01*
X152706613Y-135863079D01*
X152728557Y-135855227D01*
X152751166Y-135849563D01*
X152774221Y-135846144D01*
X152797500Y-135845000D01*
X153272500Y-135845000D01*
X153295779Y-135846144D01*
X153295779Y-135846144D01*
G37*
D17*
X153035000Y-136370000D03*
G04 #@! TD*
D16*
G04 #@! TO.C,R8*
G36*
X178467561Y-143082204D02*
X178490616Y-143085623D01*
X178513225Y-143091287D01*
X178535169Y-143099139D01*
X178556239Y-143109104D01*
X178576230Y-143121086D01*
X178594950Y-143134970D01*
X178612220Y-143150622D01*
X178627872Y-143167892D01*
X178641756Y-143186612D01*
X178653738Y-143206603D01*
X178663703Y-143227673D01*
X178671555Y-143249617D01*
X178677219Y-143272226D01*
X178680638Y-143295281D01*
X178681782Y-143318560D01*
X178681782Y-143893560D01*
X178680638Y-143916839D01*
X178677219Y-143939894D01*
X178671555Y-143962503D01*
X178663703Y-143984447D01*
X178653738Y-144005517D01*
X178641756Y-144025508D01*
X178627872Y-144044228D01*
X178612220Y-144061498D01*
X178594950Y-144077150D01*
X178576230Y-144091034D01*
X178556239Y-144103016D01*
X178535169Y-144112981D01*
X178513225Y-144120833D01*
X178490616Y-144126497D01*
X178467561Y-144129916D01*
X178444282Y-144131060D01*
X177969282Y-144131060D01*
X177946003Y-144129916D01*
X177922948Y-144126497D01*
X177900339Y-144120833D01*
X177878395Y-144112981D01*
X177857325Y-144103016D01*
X177837334Y-144091034D01*
X177818614Y-144077150D01*
X177801344Y-144061498D01*
X177785692Y-144044228D01*
X177771808Y-144025508D01*
X177759826Y-144005517D01*
X177749861Y-143984447D01*
X177742009Y-143962503D01*
X177736345Y-143939894D01*
X177732926Y-143916839D01*
X177731782Y-143893560D01*
X177731782Y-143318560D01*
X177732926Y-143295281D01*
X177736345Y-143272226D01*
X177742009Y-143249617D01*
X177749861Y-143227673D01*
X177759826Y-143206603D01*
X177771808Y-143186612D01*
X177785692Y-143167892D01*
X177801344Y-143150622D01*
X177818614Y-143134970D01*
X177837334Y-143121086D01*
X177857325Y-143109104D01*
X177878395Y-143099139D01*
X177900339Y-143091287D01*
X177922948Y-143085623D01*
X177946003Y-143082204D01*
X177969282Y-143081060D01*
X178444282Y-143081060D01*
X178467561Y-143082204D01*
X178467561Y-143082204D01*
G37*
D17*
X178206782Y-143606060D03*
D16*
G36*
X178467561Y-144832204D02*
X178490616Y-144835623D01*
X178513225Y-144841287D01*
X178535169Y-144849139D01*
X178556239Y-144859104D01*
X178576230Y-144871086D01*
X178594950Y-144884970D01*
X178612220Y-144900622D01*
X178627872Y-144917892D01*
X178641756Y-144936612D01*
X178653738Y-144956603D01*
X178663703Y-144977673D01*
X178671555Y-144999617D01*
X178677219Y-145022226D01*
X178680638Y-145045281D01*
X178681782Y-145068560D01*
X178681782Y-145643560D01*
X178680638Y-145666839D01*
X178677219Y-145689894D01*
X178671555Y-145712503D01*
X178663703Y-145734447D01*
X178653738Y-145755517D01*
X178641756Y-145775508D01*
X178627872Y-145794228D01*
X178612220Y-145811498D01*
X178594950Y-145827150D01*
X178576230Y-145841034D01*
X178556239Y-145853016D01*
X178535169Y-145862981D01*
X178513225Y-145870833D01*
X178490616Y-145876497D01*
X178467561Y-145879916D01*
X178444282Y-145881060D01*
X177969282Y-145881060D01*
X177946003Y-145879916D01*
X177922948Y-145876497D01*
X177900339Y-145870833D01*
X177878395Y-145862981D01*
X177857325Y-145853016D01*
X177837334Y-145841034D01*
X177818614Y-145827150D01*
X177801344Y-145811498D01*
X177785692Y-145794228D01*
X177771808Y-145775508D01*
X177759826Y-145755517D01*
X177749861Y-145734447D01*
X177742009Y-145712503D01*
X177736345Y-145689894D01*
X177732926Y-145666839D01*
X177731782Y-145643560D01*
X177731782Y-145068560D01*
X177732926Y-145045281D01*
X177736345Y-145022226D01*
X177742009Y-144999617D01*
X177749861Y-144977673D01*
X177759826Y-144956603D01*
X177771808Y-144936612D01*
X177785692Y-144917892D01*
X177801344Y-144900622D01*
X177818614Y-144884970D01*
X177837334Y-144871086D01*
X177857325Y-144859104D01*
X177878395Y-144849139D01*
X177900339Y-144841287D01*
X177922948Y-144835623D01*
X177946003Y-144832204D01*
X177969282Y-144831060D01*
X178444282Y-144831060D01*
X178467561Y-144832204D01*
X178467561Y-144832204D01*
G37*
D17*
X178206782Y-145356060D03*
G04 #@! TD*
D16*
G04 #@! TO.C,R9*
G36*
X85976839Y-100719362D02*
X85999894Y-100722781D01*
X86022503Y-100728445D01*
X86044447Y-100736297D01*
X86065517Y-100746262D01*
X86085508Y-100758244D01*
X86104228Y-100772128D01*
X86121498Y-100787780D01*
X86137150Y-100805050D01*
X86151034Y-100823770D01*
X86163016Y-100843761D01*
X86172981Y-100864831D01*
X86180833Y-100886775D01*
X86186497Y-100909384D01*
X86189916Y-100932439D01*
X86191060Y-100955718D01*
X86191060Y-101430718D01*
X86189916Y-101453997D01*
X86186497Y-101477052D01*
X86180833Y-101499661D01*
X86172981Y-101521605D01*
X86163016Y-101542675D01*
X86151034Y-101562666D01*
X86137150Y-101581386D01*
X86121498Y-101598656D01*
X86104228Y-101614308D01*
X86085508Y-101628192D01*
X86065517Y-101640174D01*
X86044447Y-101650139D01*
X86022503Y-101657991D01*
X85999894Y-101663655D01*
X85976839Y-101667074D01*
X85953560Y-101668218D01*
X85378560Y-101668218D01*
X85355281Y-101667074D01*
X85332226Y-101663655D01*
X85309617Y-101657991D01*
X85287673Y-101650139D01*
X85266603Y-101640174D01*
X85246612Y-101628192D01*
X85227892Y-101614308D01*
X85210622Y-101598656D01*
X85194970Y-101581386D01*
X85181086Y-101562666D01*
X85169104Y-101542675D01*
X85159139Y-101521605D01*
X85151287Y-101499661D01*
X85145623Y-101477052D01*
X85142204Y-101453997D01*
X85141060Y-101430718D01*
X85141060Y-100955718D01*
X85142204Y-100932439D01*
X85145623Y-100909384D01*
X85151287Y-100886775D01*
X85159139Y-100864831D01*
X85169104Y-100843761D01*
X85181086Y-100823770D01*
X85194970Y-100805050D01*
X85210622Y-100787780D01*
X85227892Y-100772128D01*
X85246612Y-100758244D01*
X85266603Y-100746262D01*
X85287673Y-100736297D01*
X85309617Y-100728445D01*
X85332226Y-100722781D01*
X85355281Y-100719362D01*
X85378560Y-100718218D01*
X85953560Y-100718218D01*
X85976839Y-100719362D01*
X85976839Y-100719362D01*
G37*
D17*
X85666060Y-101193218D03*
D16*
G36*
X84226839Y-100719362D02*
X84249894Y-100722781D01*
X84272503Y-100728445D01*
X84294447Y-100736297D01*
X84315517Y-100746262D01*
X84335508Y-100758244D01*
X84354228Y-100772128D01*
X84371498Y-100787780D01*
X84387150Y-100805050D01*
X84401034Y-100823770D01*
X84413016Y-100843761D01*
X84422981Y-100864831D01*
X84430833Y-100886775D01*
X84436497Y-100909384D01*
X84439916Y-100932439D01*
X84441060Y-100955718D01*
X84441060Y-101430718D01*
X84439916Y-101453997D01*
X84436497Y-101477052D01*
X84430833Y-101499661D01*
X84422981Y-101521605D01*
X84413016Y-101542675D01*
X84401034Y-101562666D01*
X84387150Y-101581386D01*
X84371498Y-101598656D01*
X84354228Y-101614308D01*
X84335508Y-101628192D01*
X84315517Y-101640174D01*
X84294447Y-101650139D01*
X84272503Y-101657991D01*
X84249894Y-101663655D01*
X84226839Y-101667074D01*
X84203560Y-101668218D01*
X83628560Y-101668218D01*
X83605281Y-101667074D01*
X83582226Y-101663655D01*
X83559617Y-101657991D01*
X83537673Y-101650139D01*
X83516603Y-101640174D01*
X83496612Y-101628192D01*
X83477892Y-101614308D01*
X83460622Y-101598656D01*
X83444970Y-101581386D01*
X83431086Y-101562666D01*
X83419104Y-101542675D01*
X83409139Y-101521605D01*
X83401287Y-101499661D01*
X83395623Y-101477052D01*
X83392204Y-101453997D01*
X83391060Y-101430718D01*
X83391060Y-100955718D01*
X83392204Y-100932439D01*
X83395623Y-100909384D01*
X83401287Y-100886775D01*
X83409139Y-100864831D01*
X83419104Y-100843761D01*
X83431086Y-100823770D01*
X83444970Y-100805050D01*
X83460622Y-100787780D01*
X83477892Y-100772128D01*
X83496612Y-100758244D01*
X83516603Y-100746262D01*
X83537673Y-100736297D01*
X83559617Y-100728445D01*
X83582226Y-100722781D01*
X83605281Y-100719362D01*
X83628560Y-100718218D01*
X84203560Y-100718218D01*
X84226839Y-100719362D01*
X84226839Y-100719362D01*
G37*
D17*
X83916060Y-101193218D03*
G04 #@! TD*
D16*
G04 #@! TO.C,R10*
G36*
X81051839Y-71509362D02*
X81074894Y-71512781D01*
X81097503Y-71518445D01*
X81119447Y-71526297D01*
X81140517Y-71536262D01*
X81160508Y-71548244D01*
X81179228Y-71562128D01*
X81196498Y-71577780D01*
X81212150Y-71595050D01*
X81226034Y-71613770D01*
X81238016Y-71633761D01*
X81247981Y-71654831D01*
X81255833Y-71676775D01*
X81261497Y-71699384D01*
X81264916Y-71722439D01*
X81266060Y-71745718D01*
X81266060Y-72220718D01*
X81264916Y-72243997D01*
X81261497Y-72267052D01*
X81255833Y-72289661D01*
X81247981Y-72311605D01*
X81238016Y-72332675D01*
X81226034Y-72352666D01*
X81212150Y-72371386D01*
X81196498Y-72388656D01*
X81179228Y-72404308D01*
X81160508Y-72418192D01*
X81140517Y-72430174D01*
X81119447Y-72440139D01*
X81097503Y-72447991D01*
X81074894Y-72453655D01*
X81051839Y-72457074D01*
X81028560Y-72458218D01*
X80453560Y-72458218D01*
X80430281Y-72457074D01*
X80407226Y-72453655D01*
X80384617Y-72447991D01*
X80362673Y-72440139D01*
X80341603Y-72430174D01*
X80321612Y-72418192D01*
X80302892Y-72404308D01*
X80285622Y-72388656D01*
X80269970Y-72371386D01*
X80256086Y-72352666D01*
X80244104Y-72332675D01*
X80234139Y-72311605D01*
X80226287Y-72289661D01*
X80220623Y-72267052D01*
X80217204Y-72243997D01*
X80216060Y-72220718D01*
X80216060Y-71745718D01*
X80217204Y-71722439D01*
X80220623Y-71699384D01*
X80226287Y-71676775D01*
X80234139Y-71654831D01*
X80244104Y-71633761D01*
X80256086Y-71613770D01*
X80269970Y-71595050D01*
X80285622Y-71577780D01*
X80302892Y-71562128D01*
X80321612Y-71548244D01*
X80341603Y-71536262D01*
X80362673Y-71526297D01*
X80384617Y-71518445D01*
X80407226Y-71512781D01*
X80430281Y-71509362D01*
X80453560Y-71508218D01*
X81028560Y-71508218D01*
X81051839Y-71509362D01*
X81051839Y-71509362D01*
G37*
D17*
X80741060Y-71983218D03*
D16*
G36*
X82801839Y-71509362D02*
X82824894Y-71512781D01*
X82847503Y-71518445D01*
X82869447Y-71526297D01*
X82890517Y-71536262D01*
X82910508Y-71548244D01*
X82929228Y-71562128D01*
X82946498Y-71577780D01*
X82962150Y-71595050D01*
X82976034Y-71613770D01*
X82988016Y-71633761D01*
X82997981Y-71654831D01*
X83005833Y-71676775D01*
X83011497Y-71699384D01*
X83014916Y-71722439D01*
X83016060Y-71745718D01*
X83016060Y-72220718D01*
X83014916Y-72243997D01*
X83011497Y-72267052D01*
X83005833Y-72289661D01*
X82997981Y-72311605D01*
X82988016Y-72332675D01*
X82976034Y-72352666D01*
X82962150Y-72371386D01*
X82946498Y-72388656D01*
X82929228Y-72404308D01*
X82910508Y-72418192D01*
X82890517Y-72430174D01*
X82869447Y-72440139D01*
X82847503Y-72447991D01*
X82824894Y-72453655D01*
X82801839Y-72457074D01*
X82778560Y-72458218D01*
X82203560Y-72458218D01*
X82180281Y-72457074D01*
X82157226Y-72453655D01*
X82134617Y-72447991D01*
X82112673Y-72440139D01*
X82091603Y-72430174D01*
X82071612Y-72418192D01*
X82052892Y-72404308D01*
X82035622Y-72388656D01*
X82019970Y-72371386D01*
X82006086Y-72352666D01*
X81994104Y-72332675D01*
X81984139Y-72311605D01*
X81976287Y-72289661D01*
X81970623Y-72267052D01*
X81967204Y-72243997D01*
X81966060Y-72220718D01*
X81966060Y-71745718D01*
X81967204Y-71722439D01*
X81970623Y-71699384D01*
X81976287Y-71676775D01*
X81984139Y-71654831D01*
X81994104Y-71633761D01*
X82006086Y-71613770D01*
X82019970Y-71595050D01*
X82035622Y-71577780D01*
X82052892Y-71562128D01*
X82071612Y-71548244D01*
X82091603Y-71536262D01*
X82112673Y-71526297D01*
X82134617Y-71518445D01*
X82157226Y-71512781D01*
X82180281Y-71509362D01*
X82203560Y-71508218D01*
X82778560Y-71508218D01*
X82801839Y-71509362D01*
X82801839Y-71509362D01*
G37*
D17*
X82491060Y-71983218D03*
G04 #@! TD*
D16*
G04 #@! TO.C,R11*
G36*
X79386839Y-100719362D02*
X79409894Y-100722781D01*
X79432503Y-100728445D01*
X79454447Y-100736297D01*
X79475517Y-100746262D01*
X79495508Y-100758244D01*
X79514228Y-100772128D01*
X79531498Y-100787780D01*
X79547150Y-100805050D01*
X79561034Y-100823770D01*
X79573016Y-100843761D01*
X79582981Y-100864831D01*
X79590833Y-100886775D01*
X79596497Y-100909384D01*
X79599916Y-100932439D01*
X79601060Y-100955718D01*
X79601060Y-101430718D01*
X79599916Y-101453997D01*
X79596497Y-101477052D01*
X79590833Y-101499661D01*
X79582981Y-101521605D01*
X79573016Y-101542675D01*
X79561034Y-101562666D01*
X79547150Y-101581386D01*
X79531498Y-101598656D01*
X79514228Y-101614308D01*
X79495508Y-101628192D01*
X79475517Y-101640174D01*
X79454447Y-101650139D01*
X79432503Y-101657991D01*
X79409894Y-101663655D01*
X79386839Y-101667074D01*
X79363560Y-101668218D01*
X78788560Y-101668218D01*
X78765281Y-101667074D01*
X78742226Y-101663655D01*
X78719617Y-101657991D01*
X78697673Y-101650139D01*
X78676603Y-101640174D01*
X78656612Y-101628192D01*
X78637892Y-101614308D01*
X78620622Y-101598656D01*
X78604970Y-101581386D01*
X78591086Y-101562666D01*
X78579104Y-101542675D01*
X78569139Y-101521605D01*
X78561287Y-101499661D01*
X78555623Y-101477052D01*
X78552204Y-101453997D01*
X78551060Y-101430718D01*
X78551060Y-100955718D01*
X78552204Y-100932439D01*
X78555623Y-100909384D01*
X78561287Y-100886775D01*
X78569139Y-100864831D01*
X78579104Y-100843761D01*
X78591086Y-100823770D01*
X78604970Y-100805050D01*
X78620622Y-100787780D01*
X78637892Y-100772128D01*
X78656612Y-100758244D01*
X78676603Y-100746262D01*
X78697673Y-100736297D01*
X78719617Y-100728445D01*
X78742226Y-100722781D01*
X78765281Y-100719362D01*
X78788560Y-100718218D01*
X79363560Y-100718218D01*
X79386839Y-100719362D01*
X79386839Y-100719362D01*
G37*
D17*
X79076060Y-101193218D03*
D16*
G36*
X81136839Y-100719362D02*
X81159894Y-100722781D01*
X81182503Y-100728445D01*
X81204447Y-100736297D01*
X81225517Y-100746262D01*
X81245508Y-100758244D01*
X81264228Y-100772128D01*
X81281498Y-100787780D01*
X81297150Y-100805050D01*
X81311034Y-100823770D01*
X81323016Y-100843761D01*
X81332981Y-100864831D01*
X81340833Y-100886775D01*
X81346497Y-100909384D01*
X81349916Y-100932439D01*
X81351060Y-100955718D01*
X81351060Y-101430718D01*
X81349916Y-101453997D01*
X81346497Y-101477052D01*
X81340833Y-101499661D01*
X81332981Y-101521605D01*
X81323016Y-101542675D01*
X81311034Y-101562666D01*
X81297150Y-101581386D01*
X81281498Y-101598656D01*
X81264228Y-101614308D01*
X81245508Y-101628192D01*
X81225517Y-101640174D01*
X81204447Y-101650139D01*
X81182503Y-101657991D01*
X81159894Y-101663655D01*
X81136839Y-101667074D01*
X81113560Y-101668218D01*
X80538560Y-101668218D01*
X80515281Y-101667074D01*
X80492226Y-101663655D01*
X80469617Y-101657991D01*
X80447673Y-101650139D01*
X80426603Y-101640174D01*
X80406612Y-101628192D01*
X80387892Y-101614308D01*
X80370622Y-101598656D01*
X80354970Y-101581386D01*
X80341086Y-101562666D01*
X80329104Y-101542675D01*
X80319139Y-101521605D01*
X80311287Y-101499661D01*
X80305623Y-101477052D01*
X80302204Y-101453997D01*
X80301060Y-101430718D01*
X80301060Y-100955718D01*
X80302204Y-100932439D01*
X80305623Y-100909384D01*
X80311287Y-100886775D01*
X80319139Y-100864831D01*
X80329104Y-100843761D01*
X80341086Y-100823770D01*
X80354970Y-100805050D01*
X80370622Y-100787780D01*
X80387892Y-100772128D01*
X80406612Y-100758244D01*
X80426603Y-100746262D01*
X80447673Y-100736297D01*
X80469617Y-100728445D01*
X80492226Y-100722781D01*
X80515281Y-100719362D01*
X80538560Y-100718218D01*
X81113560Y-100718218D01*
X81136839Y-100719362D01*
X81136839Y-100719362D01*
G37*
D17*
X80826060Y-101193218D03*
G04 #@! TD*
D16*
G04 #@! TO.C,R12*
G36*
X87881839Y-71509362D02*
X87904894Y-71512781D01*
X87927503Y-71518445D01*
X87949447Y-71526297D01*
X87970517Y-71536262D01*
X87990508Y-71548244D01*
X88009228Y-71562128D01*
X88026498Y-71577780D01*
X88042150Y-71595050D01*
X88056034Y-71613770D01*
X88068016Y-71633761D01*
X88077981Y-71654831D01*
X88085833Y-71676775D01*
X88091497Y-71699384D01*
X88094916Y-71722439D01*
X88096060Y-71745718D01*
X88096060Y-72220718D01*
X88094916Y-72243997D01*
X88091497Y-72267052D01*
X88085833Y-72289661D01*
X88077981Y-72311605D01*
X88068016Y-72332675D01*
X88056034Y-72352666D01*
X88042150Y-72371386D01*
X88026498Y-72388656D01*
X88009228Y-72404308D01*
X87990508Y-72418192D01*
X87970517Y-72430174D01*
X87949447Y-72440139D01*
X87927503Y-72447991D01*
X87904894Y-72453655D01*
X87881839Y-72457074D01*
X87858560Y-72458218D01*
X87283560Y-72458218D01*
X87260281Y-72457074D01*
X87237226Y-72453655D01*
X87214617Y-72447991D01*
X87192673Y-72440139D01*
X87171603Y-72430174D01*
X87151612Y-72418192D01*
X87132892Y-72404308D01*
X87115622Y-72388656D01*
X87099970Y-72371386D01*
X87086086Y-72352666D01*
X87074104Y-72332675D01*
X87064139Y-72311605D01*
X87056287Y-72289661D01*
X87050623Y-72267052D01*
X87047204Y-72243997D01*
X87046060Y-72220718D01*
X87046060Y-71745718D01*
X87047204Y-71722439D01*
X87050623Y-71699384D01*
X87056287Y-71676775D01*
X87064139Y-71654831D01*
X87074104Y-71633761D01*
X87086086Y-71613770D01*
X87099970Y-71595050D01*
X87115622Y-71577780D01*
X87132892Y-71562128D01*
X87151612Y-71548244D01*
X87171603Y-71536262D01*
X87192673Y-71526297D01*
X87214617Y-71518445D01*
X87237226Y-71512781D01*
X87260281Y-71509362D01*
X87283560Y-71508218D01*
X87858560Y-71508218D01*
X87881839Y-71509362D01*
X87881839Y-71509362D01*
G37*
D17*
X87571060Y-71983218D03*
D16*
G36*
X86131839Y-71509362D02*
X86154894Y-71512781D01*
X86177503Y-71518445D01*
X86199447Y-71526297D01*
X86220517Y-71536262D01*
X86240508Y-71548244D01*
X86259228Y-71562128D01*
X86276498Y-71577780D01*
X86292150Y-71595050D01*
X86306034Y-71613770D01*
X86318016Y-71633761D01*
X86327981Y-71654831D01*
X86335833Y-71676775D01*
X86341497Y-71699384D01*
X86344916Y-71722439D01*
X86346060Y-71745718D01*
X86346060Y-72220718D01*
X86344916Y-72243997D01*
X86341497Y-72267052D01*
X86335833Y-72289661D01*
X86327981Y-72311605D01*
X86318016Y-72332675D01*
X86306034Y-72352666D01*
X86292150Y-72371386D01*
X86276498Y-72388656D01*
X86259228Y-72404308D01*
X86240508Y-72418192D01*
X86220517Y-72430174D01*
X86199447Y-72440139D01*
X86177503Y-72447991D01*
X86154894Y-72453655D01*
X86131839Y-72457074D01*
X86108560Y-72458218D01*
X85533560Y-72458218D01*
X85510281Y-72457074D01*
X85487226Y-72453655D01*
X85464617Y-72447991D01*
X85442673Y-72440139D01*
X85421603Y-72430174D01*
X85401612Y-72418192D01*
X85382892Y-72404308D01*
X85365622Y-72388656D01*
X85349970Y-72371386D01*
X85336086Y-72352666D01*
X85324104Y-72332675D01*
X85314139Y-72311605D01*
X85306287Y-72289661D01*
X85300623Y-72267052D01*
X85297204Y-72243997D01*
X85296060Y-72220718D01*
X85296060Y-71745718D01*
X85297204Y-71722439D01*
X85300623Y-71699384D01*
X85306287Y-71676775D01*
X85314139Y-71654831D01*
X85324104Y-71633761D01*
X85336086Y-71613770D01*
X85349970Y-71595050D01*
X85365622Y-71577780D01*
X85382892Y-71562128D01*
X85401612Y-71548244D01*
X85421603Y-71536262D01*
X85442673Y-71526297D01*
X85464617Y-71518445D01*
X85487226Y-71512781D01*
X85510281Y-71509362D01*
X85533560Y-71508218D01*
X86108560Y-71508218D01*
X86131839Y-71509362D01*
X86131839Y-71509362D01*
G37*
D17*
X85821060Y-71983218D03*
G04 #@! TD*
D16*
G04 #@! TO.C,R13*
G36*
X150015779Y-120811144D02*
X150038834Y-120814563D01*
X150061443Y-120820227D01*
X150083387Y-120828079D01*
X150104457Y-120838044D01*
X150124448Y-120850026D01*
X150143168Y-120863910D01*
X150160438Y-120879562D01*
X150176090Y-120896832D01*
X150189974Y-120915552D01*
X150201956Y-120935543D01*
X150211921Y-120956613D01*
X150219773Y-120978557D01*
X150225437Y-121001166D01*
X150228856Y-121024221D01*
X150230000Y-121047500D01*
X150230000Y-121522500D01*
X150228856Y-121545779D01*
X150225437Y-121568834D01*
X150219773Y-121591443D01*
X150211921Y-121613387D01*
X150201956Y-121634457D01*
X150189974Y-121654448D01*
X150176090Y-121673168D01*
X150160438Y-121690438D01*
X150143168Y-121706090D01*
X150124448Y-121719974D01*
X150104457Y-121731956D01*
X150083387Y-121741921D01*
X150061443Y-121749773D01*
X150038834Y-121755437D01*
X150015779Y-121758856D01*
X149992500Y-121760000D01*
X149417500Y-121760000D01*
X149394221Y-121758856D01*
X149371166Y-121755437D01*
X149348557Y-121749773D01*
X149326613Y-121741921D01*
X149305543Y-121731956D01*
X149285552Y-121719974D01*
X149266832Y-121706090D01*
X149249562Y-121690438D01*
X149233910Y-121673168D01*
X149220026Y-121654448D01*
X149208044Y-121634457D01*
X149198079Y-121613387D01*
X149190227Y-121591443D01*
X149184563Y-121568834D01*
X149181144Y-121545779D01*
X149180000Y-121522500D01*
X149180000Y-121047500D01*
X149181144Y-121024221D01*
X149184563Y-121001166D01*
X149190227Y-120978557D01*
X149198079Y-120956613D01*
X149208044Y-120935543D01*
X149220026Y-120915552D01*
X149233910Y-120896832D01*
X149249562Y-120879562D01*
X149266832Y-120863910D01*
X149285552Y-120850026D01*
X149305543Y-120838044D01*
X149326613Y-120828079D01*
X149348557Y-120820227D01*
X149371166Y-120814563D01*
X149394221Y-120811144D01*
X149417500Y-120810000D01*
X149992500Y-120810000D01*
X150015779Y-120811144D01*
X150015779Y-120811144D01*
G37*
D17*
X149705000Y-121285000D03*
D16*
G36*
X148265779Y-120811144D02*
X148288834Y-120814563D01*
X148311443Y-120820227D01*
X148333387Y-120828079D01*
X148354457Y-120838044D01*
X148374448Y-120850026D01*
X148393168Y-120863910D01*
X148410438Y-120879562D01*
X148426090Y-120896832D01*
X148439974Y-120915552D01*
X148451956Y-120935543D01*
X148461921Y-120956613D01*
X148469773Y-120978557D01*
X148475437Y-121001166D01*
X148478856Y-121024221D01*
X148480000Y-121047500D01*
X148480000Y-121522500D01*
X148478856Y-121545779D01*
X148475437Y-121568834D01*
X148469773Y-121591443D01*
X148461921Y-121613387D01*
X148451956Y-121634457D01*
X148439974Y-121654448D01*
X148426090Y-121673168D01*
X148410438Y-121690438D01*
X148393168Y-121706090D01*
X148374448Y-121719974D01*
X148354457Y-121731956D01*
X148333387Y-121741921D01*
X148311443Y-121749773D01*
X148288834Y-121755437D01*
X148265779Y-121758856D01*
X148242500Y-121760000D01*
X147667500Y-121760000D01*
X147644221Y-121758856D01*
X147621166Y-121755437D01*
X147598557Y-121749773D01*
X147576613Y-121741921D01*
X147555543Y-121731956D01*
X147535552Y-121719974D01*
X147516832Y-121706090D01*
X147499562Y-121690438D01*
X147483910Y-121673168D01*
X147470026Y-121654448D01*
X147458044Y-121634457D01*
X147448079Y-121613387D01*
X147440227Y-121591443D01*
X147434563Y-121568834D01*
X147431144Y-121545779D01*
X147430000Y-121522500D01*
X147430000Y-121047500D01*
X147431144Y-121024221D01*
X147434563Y-121001166D01*
X147440227Y-120978557D01*
X147448079Y-120956613D01*
X147458044Y-120935543D01*
X147470026Y-120915552D01*
X147483910Y-120896832D01*
X147499562Y-120879562D01*
X147516832Y-120863910D01*
X147535552Y-120850026D01*
X147555543Y-120838044D01*
X147576613Y-120828079D01*
X147598557Y-120820227D01*
X147621166Y-120814563D01*
X147644221Y-120811144D01*
X147667500Y-120810000D01*
X148242500Y-120810000D01*
X148265779Y-120811144D01*
X148265779Y-120811144D01*
G37*
D17*
X147955000Y-121285000D03*
G04 #@! TD*
D16*
G04 #@! TO.C,R14*
G36*
X178060779Y-118557204D02*
X178083834Y-118560623D01*
X178106443Y-118566287D01*
X178128387Y-118574139D01*
X178149457Y-118584104D01*
X178169448Y-118596086D01*
X178188168Y-118609970D01*
X178205438Y-118625622D01*
X178221090Y-118642892D01*
X178234974Y-118661612D01*
X178246956Y-118681603D01*
X178256921Y-118702673D01*
X178264773Y-118724617D01*
X178270437Y-118747226D01*
X178273856Y-118770281D01*
X178275000Y-118793560D01*
X178275000Y-119368560D01*
X178273856Y-119391839D01*
X178270437Y-119414894D01*
X178264773Y-119437503D01*
X178256921Y-119459447D01*
X178246956Y-119480517D01*
X178234974Y-119500508D01*
X178221090Y-119519228D01*
X178205438Y-119536498D01*
X178188168Y-119552150D01*
X178169448Y-119566034D01*
X178149457Y-119578016D01*
X178128387Y-119587981D01*
X178106443Y-119595833D01*
X178083834Y-119601497D01*
X178060779Y-119604916D01*
X178037500Y-119606060D01*
X177562500Y-119606060D01*
X177539221Y-119604916D01*
X177516166Y-119601497D01*
X177493557Y-119595833D01*
X177471613Y-119587981D01*
X177450543Y-119578016D01*
X177430552Y-119566034D01*
X177411832Y-119552150D01*
X177394562Y-119536498D01*
X177378910Y-119519228D01*
X177365026Y-119500508D01*
X177353044Y-119480517D01*
X177343079Y-119459447D01*
X177335227Y-119437503D01*
X177329563Y-119414894D01*
X177326144Y-119391839D01*
X177325000Y-119368560D01*
X177325000Y-118793560D01*
X177326144Y-118770281D01*
X177329563Y-118747226D01*
X177335227Y-118724617D01*
X177343079Y-118702673D01*
X177353044Y-118681603D01*
X177365026Y-118661612D01*
X177378910Y-118642892D01*
X177394562Y-118625622D01*
X177411832Y-118609970D01*
X177430552Y-118596086D01*
X177450543Y-118584104D01*
X177471613Y-118574139D01*
X177493557Y-118566287D01*
X177516166Y-118560623D01*
X177539221Y-118557204D01*
X177562500Y-118556060D01*
X178037500Y-118556060D01*
X178060779Y-118557204D01*
X178060779Y-118557204D01*
G37*
D17*
X177800000Y-119081060D03*
D16*
G36*
X178060779Y-116807204D02*
X178083834Y-116810623D01*
X178106443Y-116816287D01*
X178128387Y-116824139D01*
X178149457Y-116834104D01*
X178169448Y-116846086D01*
X178188168Y-116859970D01*
X178205438Y-116875622D01*
X178221090Y-116892892D01*
X178234974Y-116911612D01*
X178246956Y-116931603D01*
X178256921Y-116952673D01*
X178264773Y-116974617D01*
X178270437Y-116997226D01*
X178273856Y-117020281D01*
X178275000Y-117043560D01*
X178275000Y-117618560D01*
X178273856Y-117641839D01*
X178270437Y-117664894D01*
X178264773Y-117687503D01*
X178256921Y-117709447D01*
X178246956Y-117730517D01*
X178234974Y-117750508D01*
X178221090Y-117769228D01*
X178205438Y-117786498D01*
X178188168Y-117802150D01*
X178169448Y-117816034D01*
X178149457Y-117828016D01*
X178128387Y-117837981D01*
X178106443Y-117845833D01*
X178083834Y-117851497D01*
X178060779Y-117854916D01*
X178037500Y-117856060D01*
X177562500Y-117856060D01*
X177539221Y-117854916D01*
X177516166Y-117851497D01*
X177493557Y-117845833D01*
X177471613Y-117837981D01*
X177450543Y-117828016D01*
X177430552Y-117816034D01*
X177411832Y-117802150D01*
X177394562Y-117786498D01*
X177378910Y-117769228D01*
X177365026Y-117750508D01*
X177353044Y-117730517D01*
X177343079Y-117709447D01*
X177335227Y-117687503D01*
X177329563Y-117664894D01*
X177326144Y-117641839D01*
X177325000Y-117618560D01*
X177325000Y-117043560D01*
X177326144Y-117020281D01*
X177329563Y-116997226D01*
X177335227Y-116974617D01*
X177343079Y-116952673D01*
X177353044Y-116931603D01*
X177365026Y-116911612D01*
X177378910Y-116892892D01*
X177394562Y-116875622D01*
X177411832Y-116859970D01*
X177430552Y-116846086D01*
X177450543Y-116834104D01*
X177471613Y-116824139D01*
X177493557Y-116816287D01*
X177516166Y-116810623D01*
X177539221Y-116807204D01*
X177562500Y-116806060D01*
X178037500Y-116806060D01*
X178060779Y-116807204D01*
X178060779Y-116807204D01*
G37*
D17*
X177800000Y-117331060D03*
G04 #@! TD*
D16*
G04 #@! TO.C,R15*
G36*
X150015779Y-117636144D02*
X150038834Y-117639563D01*
X150061443Y-117645227D01*
X150083387Y-117653079D01*
X150104457Y-117663044D01*
X150124448Y-117675026D01*
X150143168Y-117688910D01*
X150160438Y-117704562D01*
X150176090Y-117721832D01*
X150189974Y-117740552D01*
X150201956Y-117760543D01*
X150211921Y-117781613D01*
X150219773Y-117803557D01*
X150225437Y-117826166D01*
X150228856Y-117849221D01*
X150230000Y-117872500D01*
X150230000Y-118347500D01*
X150228856Y-118370779D01*
X150225437Y-118393834D01*
X150219773Y-118416443D01*
X150211921Y-118438387D01*
X150201956Y-118459457D01*
X150189974Y-118479448D01*
X150176090Y-118498168D01*
X150160438Y-118515438D01*
X150143168Y-118531090D01*
X150124448Y-118544974D01*
X150104457Y-118556956D01*
X150083387Y-118566921D01*
X150061443Y-118574773D01*
X150038834Y-118580437D01*
X150015779Y-118583856D01*
X149992500Y-118585000D01*
X149417500Y-118585000D01*
X149394221Y-118583856D01*
X149371166Y-118580437D01*
X149348557Y-118574773D01*
X149326613Y-118566921D01*
X149305543Y-118556956D01*
X149285552Y-118544974D01*
X149266832Y-118531090D01*
X149249562Y-118515438D01*
X149233910Y-118498168D01*
X149220026Y-118479448D01*
X149208044Y-118459457D01*
X149198079Y-118438387D01*
X149190227Y-118416443D01*
X149184563Y-118393834D01*
X149181144Y-118370779D01*
X149180000Y-118347500D01*
X149180000Y-117872500D01*
X149181144Y-117849221D01*
X149184563Y-117826166D01*
X149190227Y-117803557D01*
X149198079Y-117781613D01*
X149208044Y-117760543D01*
X149220026Y-117740552D01*
X149233910Y-117721832D01*
X149249562Y-117704562D01*
X149266832Y-117688910D01*
X149285552Y-117675026D01*
X149305543Y-117663044D01*
X149326613Y-117653079D01*
X149348557Y-117645227D01*
X149371166Y-117639563D01*
X149394221Y-117636144D01*
X149417500Y-117635000D01*
X149992500Y-117635000D01*
X150015779Y-117636144D01*
X150015779Y-117636144D01*
G37*
D17*
X149705000Y-118110000D03*
D16*
G36*
X148265779Y-117636144D02*
X148288834Y-117639563D01*
X148311443Y-117645227D01*
X148333387Y-117653079D01*
X148354457Y-117663044D01*
X148374448Y-117675026D01*
X148393168Y-117688910D01*
X148410438Y-117704562D01*
X148426090Y-117721832D01*
X148439974Y-117740552D01*
X148451956Y-117760543D01*
X148461921Y-117781613D01*
X148469773Y-117803557D01*
X148475437Y-117826166D01*
X148478856Y-117849221D01*
X148480000Y-117872500D01*
X148480000Y-118347500D01*
X148478856Y-118370779D01*
X148475437Y-118393834D01*
X148469773Y-118416443D01*
X148461921Y-118438387D01*
X148451956Y-118459457D01*
X148439974Y-118479448D01*
X148426090Y-118498168D01*
X148410438Y-118515438D01*
X148393168Y-118531090D01*
X148374448Y-118544974D01*
X148354457Y-118556956D01*
X148333387Y-118566921D01*
X148311443Y-118574773D01*
X148288834Y-118580437D01*
X148265779Y-118583856D01*
X148242500Y-118585000D01*
X147667500Y-118585000D01*
X147644221Y-118583856D01*
X147621166Y-118580437D01*
X147598557Y-118574773D01*
X147576613Y-118566921D01*
X147555543Y-118556956D01*
X147535552Y-118544974D01*
X147516832Y-118531090D01*
X147499562Y-118515438D01*
X147483910Y-118498168D01*
X147470026Y-118479448D01*
X147458044Y-118459457D01*
X147448079Y-118438387D01*
X147440227Y-118416443D01*
X147434563Y-118393834D01*
X147431144Y-118370779D01*
X147430000Y-118347500D01*
X147430000Y-117872500D01*
X147431144Y-117849221D01*
X147434563Y-117826166D01*
X147440227Y-117803557D01*
X147448079Y-117781613D01*
X147458044Y-117760543D01*
X147470026Y-117740552D01*
X147483910Y-117721832D01*
X147499562Y-117704562D01*
X147516832Y-117688910D01*
X147535552Y-117675026D01*
X147555543Y-117663044D01*
X147576613Y-117653079D01*
X147598557Y-117645227D01*
X147621166Y-117639563D01*
X147644221Y-117636144D01*
X147667500Y-117635000D01*
X148242500Y-117635000D01*
X148265779Y-117636144D01*
X148265779Y-117636144D01*
G37*
D17*
X147955000Y-118110000D03*
G04 #@! TD*
D16*
G04 #@! TO.C,R16*
G36*
X178060779Y-122186144D02*
X178083834Y-122189563D01*
X178106443Y-122195227D01*
X178128387Y-122203079D01*
X178149457Y-122213044D01*
X178169448Y-122225026D01*
X178188168Y-122238910D01*
X178205438Y-122254562D01*
X178221090Y-122271832D01*
X178234974Y-122290552D01*
X178246956Y-122310543D01*
X178256921Y-122331613D01*
X178264773Y-122353557D01*
X178270437Y-122376166D01*
X178273856Y-122399221D01*
X178275000Y-122422500D01*
X178275000Y-122997500D01*
X178273856Y-123020779D01*
X178270437Y-123043834D01*
X178264773Y-123066443D01*
X178256921Y-123088387D01*
X178246956Y-123109457D01*
X178234974Y-123129448D01*
X178221090Y-123148168D01*
X178205438Y-123165438D01*
X178188168Y-123181090D01*
X178169448Y-123194974D01*
X178149457Y-123206956D01*
X178128387Y-123216921D01*
X178106443Y-123224773D01*
X178083834Y-123230437D01*
X178060779Y-123233856D01*
X178037500Y-123235000D01*
X177562500Y-123235000D01*
X177539221Y-123233856D01*
X177516166Y-123230437D01*
X177493557Y-123224773D01*
X177471613Y-123216921D01*
X177450543Y-123206956D01*
X177430552Y-123194974D01*
X177411832Y-123181090D01*
X177394562Y-123165438D01*
X177378910Y-123148168D01*
X177365026Y-123129448D01*
X177353044Y-123109457D01*
X177343079Y-123088387D01*
X177335227Y-123066443D01*
X177329563Y-123043834D01*
X177326144Y-123020779D01*
X177325000Y-122997500D01*
X177325000Y-122422500D01*
X177326144Y-122399221D01*
X177329563Y-122376166D01*
X177335227Y-122353557D01*
X177343079Y-122331613D01*
X177353044Y-122310543D01*
X177365026Y-122290552D01*
X177378910Y-122271832D01*
X177394562Y-122254562D01*
X177411832Y-122238910D01*
X177430552Y-122225026D01*
X177450543Y-122213044D01*
X177471613Y-122203079D01*
X177493557Y-122195227D01*
X177516166Y-122189563D01*
X177539221Y-122186144D01*
X177562500Y-122185000D01*
X178037500Y-122185000D01*
X178060779Y-122186144D01*
X178060779Y-122186144D01*
G37*
D17*
X177800000Y-122710000D03*
D16*
G36*
X178060779Y-123936144D02*
X178083834Y-123939563D01*
X178106443Y-123945227D01*
X178128387Y-123953079D01*
X178149457Y-123963044D01*
X178169448Y-123975026D01*
X178188168Y-123988910D01*
X178205438Y-124004562D01*
X178221090Y-124021832D01*
X178234974Y-124040552D01*
X178246956Y-124060543D01*
X178256921Y-124081613D01*
X178264773Y-124103557D01*
X178270437Y-124126166D01*
X178273856Y-124149221D01*
X178275000Y-124172500D01*
X178275000Y-124747500D01*
X178273856Y-124770779D01*
X178270437Y-124793834D01*
X178264773Y-124816443D01*
X178256921Y-124838387D01*
X178246956Y-124859457D01*
X178234974Y-124879448D01*
X178221090Y-124898168D01*
X178205438Y-124915438D01*
X178188168Y-124931090D01*
X178169448Y-124944974D01*
X178149457Y-124956956D01*
X178128387Y-124966921D01*
X178106443Y-124974773D01*
X178083834Y-124980437D01*
X178060779Y-124983856D01*
X178037500Y-124985000D01*
X177562500Y-124985000D01*
X177539221Y-124983856D01*
X177516166Y-124980437D01*
X177493557Y-124974773D01*
X177471613Y-124966921D01*
X177450543Y-124956956D01*
X177430552Y-124944974D01*
X177411832Y-124931090D01*
X177394562Y-124915438D01*
X177378910Y-124898168D01*
X177365026Y-124879448D01*
X177353044Y-124859457D01*
X177343079Y-124838387D01*
X177335227Y-124816443D01*
X177329563Y-124793834D01*
X177326144Y-124770779D01*
X177325000Y-124747500D01*
X177325000Y-124172500D01*
X177326144Y-124149221D01*
X177329563Y-124126166D01*
X177335227Y-124103557D01*
X177343079Y-124081613D01*
X177353044Y-124060543D01*
X177365026Y-124040552D01*
X177378910Y-124021832D01*
X177394562Y-124004562D01*
X177411832Y-123988910D01*
X177430552Y-123975026D01*
X177450543Y-123963044D01*
X177471613Y-123953079D01*
X177493557Y-123945227D01*
X177516166Y-123939563D01*
X177539221Y-123936144D01*
X177562500Y-123935000D01*
X178037500Y-123935000D01*
X178060779Y-123936144D01*
X178060779Y-123936144D01*
G37*
D17*
X177800000Y-124460000D03*
G04 #@! TD*
D16*
G04 #@! TO.C,R17*
G36*
X106056839Y-100719362D02*
X106079894Y-100722781D01*
X106102503Y-100728445D01*
X106124447Y-100736297D01*
X106145517Y-100746262D01*
X106165508Y-100758244D01*
X106184228Y-100772128D01*
X106201498Y-100787780D01*
X106217150Y-100805050D01*
X106231034Y-100823770D01*
X106243016Y-100843761D01*
X106252981Y-100864831D01*
X106260833Y-100886775D01*
X106266497Y-100909384D01*
X106269916Y-100932439D01*
X106271060Y-100955718D01*
X106271060Y-101430718D01*
X106269916Y-101453997D01*
X106266497Y-101477052D01*
X106260833Y-101499661D01*
X106252981Y-101521605D01*
X106243016Y-101542675D01*
X106231034Y-101562666D01*
X106217150Y-101581386D01*
X106201498Y-101598656D01*
X106184228Y-101614308D01*
X106165508Y-101628192D01*
X106145517Y-101640174D01*
X106124447Y-101650139D01*
X106102503Y-101657991D01*
X106079894Y-101663655D01*
X106056839Y-101667074D01*
X106033560Y-101668218D01*
X105458560Y-101668218D01*
X105435281Y-101667074D01*
X105412226Y-101663655D01*
X105389617Y-101657991D01*
X105367673Y-101650139D01*
X105346603Y-101640174D01*
X105326612Y-101628192D01*
X105307892Y-101614308D01*
X105290622Y-101598656D01*
X105274970Y-101581386D01*
X105261086Y-101562666D01*
X105249104Y-101542675D01*
X105239139Y-101521605D01*
X105231287Y-101499661D01*
X105225623Y-101477052D01*
X105222204Y-101453997D01*
X105221060Y-101430718D01*
X105221060Y-100955718D01*
X105222204Y-100932439D01*
X105225623Y-100909384D01*
X105231287Y-100886775D01*
X105239139Y-100864831D01*
X105249104Y-100843761D01*
X105261086Y-100823770D01*
X105274970Y-100805050D01*
X105290622Y-100787780D01*
X105307892Y-100772128D01*
X105326612Y-100758244D01*
X105346603Y-100746262D01*
X105367673Y-100736297D01*
X105389617Y-100728445D01*
X105412226Y-100722781D01*
X105435281Y-100719362D01*
X105458560Y-100718218D01*
X106033560Y-100718218D01*
X106056839Y-100719362D01*
X106056839Y-100719362D01*
G37*
D17*
X105746060Y-101193218D03*
D16*
G36*
X107806839Y-100719362D02*
X107829894Y-100722781D01*
X107852503Y-100728445D01*
X107874447Y-100736297D01*
X107895517Y-100746262D01*
X107915508Y-100758244D01*
X107934228Y-100772128D01*
X107951498Y-100787780D01*
X107967150Y-100805050D01*
X107981034Y-100823770D01*
X107993016Y-100843761D01*
X108002981Y-100864831D01*
X108010833Y-100886775D01*
X108016497Y-100909384D01*
X108019916Y-100932439D01*
X108021060Y-100955718D01*
X108021060Y-101430718D01*
X108019916Y-101453997D01*
X108016497Y-101477052D01*
X108010833Y-101499661D01*
X108002981Y-101521605D01*
X107993016Y-101542675D01*
X107981034Y-101562666D01*
X107967150Y-101581386D01*
X107951498Y-101598656D01*
X107934228Y-101614308D01*
X107915508Y-101628192D01*
X107895517Y-101640174D01*
X107874447Y-101650139D01*
X107852503Y-101657991D01*
X107829894Y-101663655D01*
X107806839Y-101667074D01*
X107783560Y-101668218D01*
X107208560Y-101668218D01*
X107185281Y-101667074D01*
X107162226Y-101663655D01*
X107139617Y-101657991D01*
X107117673Y-101650139D01*
X107096603Y-101640174D01*
X107076612Y-101628192D01*
X107057892Y-101614308D01*
X107040622Y-101598656D01*
X107024970Y-101581386D01*
X107011086Y-101562666D01*
X106999104Y-101542675D01*
X106989139Y-101521605D01*
X106981287Y-101499661D01*
X106975623Y-101477052D01*
X106972204Y-101453997D01*
X106971060Y-101430718D01*
X106971060Y-100955718D01*
X106972204Y-100932439D01*
X106975623Y-100909384D01*
X106981287Y-100886775D01*
X106989139Y-100864831D01*
X106999104Y-100843761D01*
X107011086Y-100823770D01*
X107024970Y-100805050D01*
X107040622Y-100787780D01*
X107057892Y-100772128D01*
X107076612Y-100758244D01*
X107096603Y-100746262D01*
X107117673Y-100736297D01*
X107139617Y-100728445D01*
X107162226Y-100722781D01*
X107185281Y-100719362D01*
X107208560Y-100718218D01*
X107783560Y-100718218D01*
X107806839Y-100719362D01*
X107806839Y-100719362D01*
G37*
D17*
X107496060Y-101193218D03*
G04 #@! TD*
D16*
G04 #@! TO.C,R18*
G36*
X104631839Y-71509362D02*
X104654894Y-71512781D01*
X104677503Y-71518445D01*
X104699447Y-71526297D01*
X104720517Y-71536262D01*
X104740508Y-71548244D01*
X104759228Y-71562128D01*
X104776498Y-71577780D01*
X104792150Y-71595050D01*
X104806034Y-71613770D01*
X104818016Y-71633761D01*
X104827981Y-71654831D01*
X104835833Y-71676775D01*
X104841497Y-71699384D01*
X104844916Y-71722439D01*
X104846060Y-71745718D01*
X104846060Y-72220718D01*
X104844916Y-72243997D01*
X104841497Y-72267052D01*
X104835833Y-72289661D01*
X104827981Y-72311605D01*
X104818016Y-72332675D01*
X104806034Y-72352666D01*
X104792150Y-72371386D01*
X104776498Y-72388656D01*
X104759228Y-72404308D01*
X104740508Y-72418192D01*
X104720517Y-72430174D01*
X104699447Y-72440139D01*
X104677503Y-72447991D01*
X104654894Y-72453655D01*
X104631839Y-72457074D01*
X104608560Y-72458218D01*
X104033560Y-72458218D01*
X104010281Y-72457074D01*
X103987226Y-72453655D01*
X103964617Y-72447991D01*
X103942673Y-72440139D01*
X103921603Y-72430174D01*
X103901612Y-72418192D01*
X103882892Y-72404308D01*
X103865622Y-72388656D01*
X103849970Y-72371386D01*
X103836086Y-72352666D01*
X103824104Y-72332675D01*
X103814139Y-72311605D01*
X103806287Y-72289661D01*
X103800623Y-72267052D01*
X103797204Y-72243997D01*
X103796060Y-72220718D01*
X103796060Y-71745718D01*
X103797204Y-71722439D01*
X103800623Y-71699384D01*
X103806287Y-71676775D01*
X103814139Y-71654831D01*
X103824104Y-71633761D01*
X103836086Y-71613770D01*
X103849970Y-71595050D01*
X103865622Y-71577780D01*
X103882892Y-71562128D01*
X103901612Y-71548244D01*
X103921603Y-71536262D01*
X103942673Y-71526297D01*
X103964617Y-71518445D01*
X103987226Y-71512781D01*
X104010281Y-71509362D01*
X104033560Y-71508218D01*
X104608560Y-71508218D01*
X104631839Y-71509362D01*
X104631839Y-71509362D01*
G37*
D17*
X104321060Y-71983218D03*
D16*
G36*
X102881839Y-71509362D02*
X102904894Y-71512781D01*
X102927503Y-71518445D01*
X102949447Y-71526297D01*
X102970517Y-71536262D01*
X102990508Y-71548244D01*
X103009228Y-71562128D01*
X103026498Y-71577780D01*
X103042150Y-71595050D01*
X103056034Y-71613770D01*
X103068016Y-71633761D01*
X103077981Y-71654831D01*
X103085833Y-71676775D01*
X103091497Y-71699384D01*
X103094916Y-71722439D01*
X103096060Y-71745718D01*
X103096060Y-72220718D01*
X103094916Y-72243997D01*
X103091497Y-72267052D01*
X103085833Y-72289661D01*
X103077981Y-72311605D01*
X103068016Y-72332675D01*
X103056034Y-72352666D01*
X103042150Y-72371386D01*
X103026498Y-72388656D01*
X103009228Y-72404308D01*
X102990508Y-72418192D01*
X102970517Y-72430174D01*
X102949447Y-72440139D01*
X102927503Y-72447991D01*
X102904894Y-72453655D01*
X102881839Y-72457074D01*
X102858560Y-72458218D01*
X102283560Y-72458218D01*
X102260281Y-72457074D01*
X102237226Y-72453655D01*
X102214617Y-72447991D01*
X102192673Y-72440139D01*
X102171603Y-72430174D01*
X102151612Y-72418192D01*
X102132892Y-72404308D01*
X102115622Y-72388656D01*
X102099970Y-72371386D01*
X102086086Y-72352666D01*
X102074104Y-72332675D01*
X102064139Y-72311605D01*
X102056287Y-72289661D01*
X102050623Y-72267052D01*
X102047204Y-72243997D01*
X102046060Y-72220718D01*
X102046060Y-71745718D01*
X102047204Y-71722439D01*
X102050623Y-71699384D01*
X102056287Y-71676775D01*
X102064139Y-71654831D01*
X102074104Y-71633761D01*
X102086086Y-71613770D01*
X102099970Y-71595050D01*
X102115622Y-71577780D01*
X102132892Y-71562128D01*
X102151612Y-71548244D01*
X102171603Y-71536262D01*
X102192673Y-71526297D01*
X102214617Y-71518445D01*
X102237226Y-71512781D01*
X102260281Y-71509362D01*
X102283560Y-71508218D01*
X102858560Y-71508218D01*
X102881839Y-71509362D01*
X102881839Y-71509362D01*
G37*
D17*
X102571060Y-71983218D03*
G04 #@! TD*
D16*
G04 #@! TO.C,R19*
G36*
X102486839Y-100719362D02*
X102509894Y-100722781D01*
X102532503Y-100728445D01*
X102554447Y-100736297D01*
X102575517Y-100746262D01*
X102595508Y-100758244D01*
X102614228Y-100772128D01*
X102631498Y-100787780D01*
X102647150Y-100805050D01*
X102661034Y-100823770D01*
X102673016Y-100843761D01*
X102682981Y-100864831D01*
X102690833Y-100886775D01*
X102696497Y-100909384D01*
X102699916Y-100932439D01*
X102701060Y-100955718D01*
X102701060Y-101430718D01*
X102699916Y-101453997D01*
X102696497Y-101477052D01*
X102690833Y-101499661D01*
X102682981Y-101521605D01*
X102673016Y-101542675D01*
X102661034Y-101562666D01*
X102647150Y-101581386D01*
X102631498Y-101598656D01*
X102614228Y-101614308D01*
X102595508Y-101628192D01*
X102575517Y-101640174D01*
X102554447Y-101650139D01*
X102532503Y-101657991D01*
X102509894Y-101663655D01*
X102486839Y-101667074D01*
X102463560Y-101668218D01*
X101888560Y-101668218D01*
X101865281Y-101667074D01*
X101842226Y-101663655D01*
X101819617Y-101657991D01*
X101797673Y-101650139D01*
X101776603Y-101640174D01*
X101756612Y-101628192D01*
X101737892Y-101614308D01*
X101720622Y-101598656D01*
X101704970Y-101581386D01*
X101691086Y-101562666D01*
X101679104Y-101542675D01*
X101669139Y-101521605D01*
X101661287Y-101499661D01*
X101655623Y-101477052D01*
X101652204Y-101453997D01*
X101651060Y-101430718D01*
X101651060Y-100955718D01*
X101652204Y-100932439D01*
X101655623Y-100909384D01*
X101661287Y-100886775D01*
X101669139Y-100864831D01*
X101679104Y-100843761D01*
X101691086Y-100823770D01*
X101704970Y-100805050D01*
X101720622Y-100787780D01*
X101737892Y-100772128D01*
X101756612Y-100758244D01*
X101776603Y-100746262D01*
X101797673Y-100736297D01*
X101819617Y-100728445D01*
X101842226Y-100722781D01*
X101865281Y-100719362D01*
X101888560Y-100718218D01*
X102463560Y-100718218D01*
X102486839Y-100719362D01*
X102486839Y-100719362D01*
G37*
D17*
X102176060Y-101193218D03*
D16*
G36*
X100736839Y-100719362D02*
X100759894Y-100722781D01*
X100782503Y-100728445D01*
X100804447Y-100736297D01*
X100825517Y-100746262D01*
X100845508Y-100758244D01*
X100864228Y-100772128D01*
X100881498Y-100787780D01*
X100897150Y-100805050D01*
X100911034Y-100823770D01*
X100923016Y-100843761D01*
X100932981Y-100864831D01*
X100940833Y-100886775D01*
X100946497Y-100909384D01*
X100949916Y-100932439D01*
X100951060Y-100955718D01*
X100951060Y-101430718D01*
X100949916Y-101453997D01*
X100946497Y-101477052D01*
X100940833Y-101499661D01*
X100932981Y-101521605D01*
X100923016Y-101542675D01*
X100911034Y-101562666D01*
X100897150Y-101581386D01*
X100881498Y-101598656D01*
X100864228Y-101614308D01*
X100845508Y-101628192D01*
X100825517Y-101640174D01*
X100804447Y-101650139D01*
X100782503Y-101657991D01*
X100759894Y-101663655D01*
X100736839Y-101667074D01*
X100713560Y-101668218D01*
X100138560Y-101668218D01*
X100115281Y-101667074D01*
X100092226Y-101663655D01*
X100069617Y-101657991D01*
X100047673Y-101650139D01*
X100026603Y-101640174D01*
X100006612Y-101628192D01*
X99987892Y-101614308D01*
X99970622Y-101598656D01*
X99954970Y-101581386D01*
X99941086Y-101562666D01*
X99929104Y-101542675D01*
X99919139Y-101521605D01*
X99911287Y-101499661D01*
X99905623Y-101477052D01*
X99902204Y-101453997D01*
X99901060Y-101430718D01*
X99901060Y-100955718D01*
X99902204Y-100932439D01*
X99905623Y-100909384D01*
X99911287Y-100886775D01*
X99919139Y-100864831D01*
X99929104Y-100843761D01*
X99941086Y-100823770D01*
X99954970Y-100805050D01*
X99970622Y-100787780D01*
X99987892Y-100772128D01*
X100006612Y-100758244D01*
X100026603Y-100746262D01*
X100047673Y-100736297D01*
X100069617Y-100728445D01*
X100092226Y-100722781D01*
X100115281Y-100719362D01*
X100138560Y-100718218D01*
X100713560Y-100718218D01*
X100736839Y-100719362D01*
X100736839Y-100719362D01*
G37*
D17*
X100426060Y-101193218D03*
G04 #@! TD*
D16*
G04 #@! TO.C,R20*
G36*
X107326839Y-71509362D02*
X107349894Y-71512781D01*
X107372503Y-71518445D01*
X107394447Y-71526297D01*
X107415517Y-71536262D01*
X107435508Y-71548244D01*
X107454228Y-71562128D01*
X107471498Y-71577780D01*
X107487150Y-71595050D01*
X107501034Y-71613770D01*
X107513016Y-71633761D01*
X107522981Y-71654831D01*
X107530833Y-71676775D01*
X107536497Y-71699384D01*
X107539916Y-71722439D01*
X107541060Y-71745718D01*
X107541060Y-72220718D01*
X107539916Y-72243997D01*
X107536497Y-72267052D01*
X107530833Y-72289661D01*
X107522981Y-72311605D01*
X107513016Y-72332675D01*
X107501034Y-72352666D01*
X107487150Y-72371386D01*
X107471498Y-72388656D01*
X107454228Y-72404308D01*
X107435508Y-72418192D01*
X107415517Y-72430174D01*
X107394447Y-72440139D01*
X107372503Y-72447991D01*
X107349894Y-72453655D01*
X107326839Y-72457074D01*
X107303560Y-72458218D01*
X106728560Y-72458218D01*
X106705281Y-72457074D01*
X106682226Y-72453655D01*
X106659617Y-72447991D01*
X106637673Y-72440139D01*
X106616603Y-72430174D01*
X106596612Y-72418192D01*
X106577892Y-72404308D01*
X106560622Y-72388656D01*
X106544970Y-72371386D01*
X106531086Y-72352666D01*
X106519104Y-72332675D01*
X106509139Y-72311605D01*
X106501287Y-72289661D01*
X106495623Y-72267052D01*
X106492204Y-72243997D01*
X106491060Y-72220718D01*
X106491060Y-71745718D01*
X106492204Y-71722439D01*
X106495623Y-71699384D01*
X106501287Y-71676775D01*
X106509139Y-71654831D01*
X106519104Y-71633761D01*
X106531086Y-71613770D01*
X106544970Y-71595050D01*
X106560622Y-71577780D01*
X106577892Y-71562128D01*
X106596612Y-71548244D01*
X106616603Y-71536262D01*
X106637673Y-71526297D01*
X106659617Y-71518445D01*
X106682226Y-71512781D01*
X106705281Y-71509362D01*
X106728560Y-71508218D01*
X107303560Y-71508218D01*
X107326839Y-71509362D01*
X107326839Y-71509362D01*
G37*
D17*
X107016060Y-71983218D03*
D16*
G36*
X109076839Y-71509362D02*
X109099894Y-71512781D01*
X109122503Y-71518445D01*
X109144447Y-71526297D01*
X109165517Y-71536262D01*
X109185508Y-71548244D01*
X109204228Y-71562128D01*
X109221498Y-71577780D01*
X109237150Y-71595050D01*
X109251034Y-71613770D01*
X109263016Y-71633761D01*
X109272981Y-71654831D01*
X109280833Y-71676775D01*
X109286497Y-71699384D01*
X109289916Y-71722439D01*
X109291060Y-71745718D01*
X109291060Y-72220718D01*
X109289916Y-72243997D01*
X109286497Y-72267052D01*
X109280833Y-72289661D01*
X109272981Y-72311605D01*
X109263016Y-72332675D01*
X109251034Y-72352666D01*
X109237150Y-72371386D01*
X109221498Y-72388656D01*
X109204228Y-72404308D01*
X109185508Y-72418192D01*
X109165517Y-72430174D01*
X109144447Y-72440139D01*
X109122503Y-72447991D01*
X109099894Y-72453655D01*
X109076839Y-72457074D01*
X109053560Y-72458218D01*
X108478560Y-72458218D01*
X108455281Y-72457074D01*
X108432226Y-72453655D01*
X108409617Y-72447991D01*
X108387673Y-72440139D01*
X108366603Y-72430174D01*
X108346612Y-72418192D01*
X108327892Y-72404308D01*
X108310622Y-72388656D01*
X108294970Y-72371386D01*
X108281086Y-72352666D01*
X108269104Y-72332675D01*
X108259139Y-72311605D01*
X108251287Y-72289661D01*
X108245623Y-72267052D01*
X108242204Y-72243997D01*
X108241060Y-72220718D01*
X108241060Y-71745718D01*
X108242204Y-71722439D01*
X108245623Y-71699384D01*
X108251287Y-71676775D01*
X108259139Y-71654831D01*
X108269104Y-71633761D01*
X108281086Y-71613770D01*
X108294970Y-71595050D01*
X108310622Y-71577780D01*
X108327892Y-71562128D01*
X108346612Y-71548244D01*
X108366603Y-71536262D01*
X108387673Y-71526297D01*
X108409617Y-71518445D01*
X108432226Y-71512781D01*
X108455281Y-71509362D01*
X108478560Y-71508218D01*
X109053560Y-71508218D01*
X109076839Y-71509362D01*
X109076839Y-71509362D01*
G37*
D17*
X108766060Y-71983218D03*
G04 #@! TD*
D16*
G04 #@! TO.C,R21*
G36*
X161491839Y-97538670D02*
X161514894Y-97542089D01*
X161537503Y-97547753D01*
X161559447Y-97555605D01*
X161580517Y-97565570D01*
X161600508Y-97577552D01*
X161619228Y-97591436D01*
X161636498Y-97607088D01*
X161652150Y-97624358D01*
X161666034Y-97643078D01*
X161678016Y-97663069D01*
X161687981Y-97684139D01*
X161695833Y-97706083D01*
X161701497Y-97728692D01*
X161704916Y-97751747D01*
X161706060Y-97775026D01*
X161706060Y-98350026D01*
X161704916Y-98373305D01*
X161701497Y-98396360D01*
X161695833Y-98418969D01*
X161687981Y-98440913D01*
X161678016Y-98461983D01*
X161666034Y-98481974D01*
X161652150Y-98500694D01*
X161636498Y-98517964D01*
X161619228Y-98533616D01*
X161600508Y-98547500D01*
X161580517Y-98559482D01*
X161559447Y-98569447D01*
X161537503Y-98577299D01*
X161514894Y-98582963D01*
X161491839Y-98586382D01*
X161468560Y-98587526D01*
X160993560Y-98587526D01*
X160970281Y-98586382D01*
X160947226Y-98582963D01*
X160924617Y-98577299D01*
X160902673Y-98569447D01*
X160881603Y-98559482D01*
X160861612Y-98547500D01*
X160842892Y-98533616D01*
X160825622Y-98517964D01*
X160809970Y-98500694D01*
X160796086Y-98481974D01*
X160784104Y-98461983D01*
X160774139Y-98440913D01*
X160766287Y-98418969D01*
X160760623Y-98396360D01*
X160757204Y-98373305D01*
X160756060Y-98350026D01*
X160756060Y-97775026D01*
X160757204Y-97751747D01*
X160760623Y-97728692D01*
X160766287Y-97706083D01*
X160774139Y-97684139D01*
X160784104Y-97663069D01*
X160796086Y-97643078D01*
X160809970Y-97624358D01*
X160825622Y-97607088D01*
X160842892Y-97591436D01*
X160861612Y-97577552D01*
X160881603Y-97565570D01*
X160902673Y-97555605D01*
X160924617Y-97547753D01*
X160947226Y-97542089D01*
X160970281Y-97538670D01*
X160993560Y-97537526D01*
X161468560Y-97537526D01*
X161491839Y-97538670D01*
X161491839Y-97538670D01*
G37*
D17*
X161231060Y-98062526D03*
D16*
G36*
X161491839Y-99288670D02*
X161514894Y-99292089D01*
X161537503Y-99297753D01*
X161559447Y-99305605D01*
X161580517Y-99315570D01*
X161600508Y-99327552D01*
X161619228Y-99341436D01*
X161636498Y-99357088D01*
X161652150Y-99374358D01*
X161666034Y-99393078D01*
X161678016Y-99413069D01*
X161687981Y-99434139D01*
X161695833Y-99456083D01*
X161701497Y-99478692D01*
X161704916Y-99501747D01*
X161706060Y-99525026D01*
X161706060Y-100100026D01*
X161704916Y-100123305D01*
X161701497Y-100146360D01*
X161695833Y-100168969D01*
X161687981Y-100190913D01*
X161678016Y-100211983D01*
X161666034Y-100231974D01*
X161652150Y-100250694D01*
X161636498Y-100267964D01*
X161619228Y-100283616D01*
X161600508Y-100297500D01*
X161580517Y-100309482D01*
X161559447Y-100319447D01*
X161537503Y-100327299D01*
X161514894Y-100332963D01*
X161491839Y-100336382D01*
X161468560Y-100337526D01*
X160993560Y-100337526D01*
X160970281Y-100336382D01*
X160947226Y-100332963D01*
X160924617Y-100327299D01*
X160902673Y-100319447D01*
X160881603Y-100309482D01*
X160861612Y-100297500D01*
X160842892Y-100283616D01*
X160825622Y-100267964D01*
X160809970Y-100250694D01*
X160796086Y-100231974D01*
X160784104Y-100211983D01*
X160774139Y-100190913D01*
X160766287Y-100168969D01*
X160760623Y-100146360D01*
X160757204Y-100123305D01*
X160756060Y-100100026D01*
X160756060Y-99525026D01*
X160757204Y-99501747D01*
X160760623Y-99478692D01*
X160766287Y-99456083D01*
X160774139Y-99434139D01*
X160784104Y-99413069D01*
X160796086Y-99393078D01*
X160809970Y-99374358D01*
X160825622Y-99357088D01*
X160842892Y-99341436D01*
X160861612Y-99327552D01*
X160881603Y-99315570D01*
X160902673Y-99305605D01*
X160924617Y-99297753D01*
X160947226Y-99292089D01*
X160970281Y-99288670D01*
X160993560Y-99287526D01*
X161468560Y-99287526D01*
X161491839Y-99288670D01*
X161491839Y-99288670D01*
G37*
D17*
X161231060Y-99812526D03*
G04 #@! TD*
D16*
G04 #@! TO.C,R22*
G36*
X166226839Y-73051888D02*
X166249894Y-73055307D01*
X166272503Y-73060971D01*
X166294447Y-73068823D01*
X166315517Y-73078788D01*
X166335508Y-73090770D01*
X166354228Y-73104654D01*
X166371498Y-73120306D01*
X166387150Y-73137576D01*
X166401034Y-73156296D01*
X166413016Y-73176287D01*
X166422981Y-73197357D01*
X166430833Y-73219301D01*
X166436497Y-73241910D01*
X166439916Y-73264965D01*
X166441060Y-73288244D01*
X166441060Y-73763244D01*
X166439916Y-73786523D01*
X166436497Y-73809578D01*
X166430833Y-73832187D01*
X166422981Y-73854131D01*
X166413016Y-73875201D01*
X166401034Y-73895192D01*
X166387150Y-73913912D01*
X166371498Y-73931182D01*
X166354228Y-73946834D01*
X166335508Y-73960718D01*
X166315517Y-73972700D01*
X166294447Y-73982665D01*
X166272503Y-73990517D01*
X166249894Y-73996181D01*
X166226839Y-73999600D01*
X166203560Y-74000744D01*
X165628560Y-74000744D01*
X165605281Y-73999600D01*
X165582226Y-73996181D01*
X165559617Y-73990517D01*
X165537673Y-73982665D01*
X165516603Y-73972700D01*
X165496612Y-73960718D01*
X165477892Y-73946834D01*
X165460622Y-73931182D01*
X165444970Y-73913912D01*
X165431086Y-73895192D01*
X165419104Y-73875201D01*
X165409139Y-73854131D01*
X165401287Y-73832187D01*
X165395623Y-73809578D01*
X165392204Y-73786523D01*
X165391060Y-73763244D01*
X165391060Y-73288244D01*
X165392204Y-73264965D01*
X165395623Y-73241910D01*
X165401287Y-73219301D01*
X165409139Y-73197357D01*
X165419104Y-73176287D01*
X165431086Y-73156296D01*
X165444970Y-73137576D01*
X165460622Y-73120306D01*
X165477892Y-73104654D01*
X165496612Y-73090770D01*
X165516603Y-73078788D01*
X165537673Y-73068823D01*
X165559617Y-73060971D01*
X165582226Y-73055307D01*
X165605281Y-73051888D01*
X165628560Y-73050744D01*
X166203560Y-73050744D01*
X166226839Y-73051888D01*
X166226839Y-73051888D01*
G37*
D17*
X165916060Y-73525744D03*
D16*
G36*
X164476839Y-73051888D02*
X164499894Y-73055307D01*
X164522503Y-73060971D01*
X164544447Y-73068823D01*
X164565517Y-73078788D01*
X164585508Y-73090770D01*
X164604228Y-73104654D01*
X164621498Y-73120306D01*
X164637150Y-73137576D01*
X164651034Y-73156296D01*
X164663016Y-73176287D01*
X164672981Y-73197357D01*
X164680833Y-73219301D01*
X164686497Y-73241910D01*
X164689916Y-73264965D01*
X164691060Y-73288244D01*
X164691060Y-73763244D01*
X164689916Y-73786523D01*
X164686497Y-73809578D01*
X164680833Y-73832187D01*
X164672981Y-73854131D01*
X164663016Y-73875201D01*
X164651034Y-73895192D01*
X164637150Y-73913912D01*
X164621498Y-73931182D01*
X164604228Y-73946834D01*
X164585508Y-73960718D01*
X164565517Y-73972700D01*
X164544447Y-73982665D01*
X164522503Y-73990517D01*
X164499894Y-73996181D01*
X164476839Y-73999600D01*
X164453560Y-74000744D01*
X163878560Y-74000744D01*
X163855281Y-73999600D01*
X163832226Y-73996181D01*
X163809617Y-73990517D01*
X163787673Y-73982665D01*
X163766603Y-73972700D01*
X163746612Y-73960718D01*
X163727892Y-73946834D01*
X163710622Y-73931182D01*
X163694970Y-73913912D01*
X163681086Y-73895192D01*
X163669104Y-73875201D01*
X163659139Y-73854131D01*
X163651287Y-73832187D01*
X163645623Y-73809578D01*
X163642204Y-73786523D01*
X163641060Y-73763244D01*
X163641060Y-73288244D01*
X163642204Y-73264965D01*
X163645623Y-73241910D01*
X163651287Y-73219301D01*
X163659139Y-73197357D01*
X163669104Y-73176287D01*
X163681086Y-73156296D01*
X163694970Y-73137576D01*
X163710622Y-73120306D01*
X163727892Y-73104654D01*
X163746612Y-73090770D01*
X163766603Y-73078788D01*
X163787673Y-73068823D01*
X163809617Y-73060971D01*
X163832226Y-73055307D01*
X163855281Y-73051888D01*
X163878560Y-73050744D01*
X164453560Y-73050744D01*
X164476839Y-73051888D01*
X164476839Y-73051888D01*
G37*
D17*
X164166060Y-73525744D03*
G04 #@! TD*
D16*
G04 #@! TO.C,R23*
G36*
X157740779Y-97538670D02*
X157763834Y-97542089D01*
X157786443Y-97547753D01*
X157808387Y-97555605D01*
X157829457Y-97565570D01*
X157849448Y-97577552D01*
X157868168Y-97591436D01*
X157885438Y-97607088D01*
X157901090Y-97624358D01*
X157914974Y-97643078D01*
X157926956Y-97663069D01*
X157936921Y-97684139D01*
X157944773Y-97706083D01*
X157950437Y-97728692D01*
X157953856Y-97751747D01*
X157955000Y-97775026D01*
X157955000Y-98350026D01*
X157953856Y-98373305D01*
X157950437Y-98396360D01*
X157944773Y-98418969D01*
X157936921Y-98440913D01*
X157926956Y-98461983D01*
X157914974Y-98481974D01*
X157901090Y-98500694D01*
X157885438Y-98517964D01*
X157868168Y-98533616D01*
X157849448Y-98547500D01*
X157829457Y-98559482D01*
X157808387Y-98569447D01*
X157786443Y-98577299D01*
X157763834Y-98582963D01*
X157740779Y-98586382D01*
X157717500Y-98587526D01*
X157242500Y-98587526D01*
X157219221Y-98586382D01*
X157196166Y-98582963D01*
X157173557Y-98577299D01*
X157151613Y-98569447D01*
X157130543Y-98559482D01*
X157110552Y-98547500D01*
X157091832Y-98533616D01*
X157074562Y-98517964D01*
X157058910Y-98500694D01*
X157045026Y-98481974D01*
X157033044Y-98461983D01*
X157023079Y-98440913D01*
X157015227Y-98418969D01*
X157009563Y-98396360D01*
X157006144Y-98373305D01*
X157005000Y-98350026D01*
X157005000Y-97775026D01*
X157006144Y-97751747D01*
X157009563Y-97728692D01*
X157015227Y-97706083D01*
X157023079Y-97684139D01*
X157033044Y-97663069D01*
X157045026Y-97643078D01*
X157058910Y-97624358D01*
X157074562Y-97607088D01*
X157091832Y-97591436D01*
X157110552Y-97577552D01*
X157130543Y-97565570D01*
X157151613Y-97555605D01*
X157173557Y-97547753D01*
X157196166Y-97542089D01*
X157219221Y-97538670D01*
X157242500Y-97537526D01*
X157717500Y-97537526D01*
X157740779Y-97538670D01*
X157740779Y-97538670D01*
G37*
D17*
X157480000Y-98062526D03*
D16*
G36*
X157740779Y-99288670D02*
X157763834Y-99292089D01*
X157786443Y-99297753D01*
X157808387Y-99305605D01*
X157829457Y-99315570D01*
X157849448Y-99327552D01*
X157868168Y-99341436D01*
X157885438Y-99357088D01*
X157901090Y-99374358D01*
X157914974Y-99393078D01*
X157926956Y-99413069D01*
X157936921Y-99434139D01*
X157944773Y-99456083D01*
X157950437Y-99478692D01*
X157953856Y-99501747D01*
X157955000Y-99525026D01*
X157955000Y-100100026D01*
X157953856Y-100123305D01*
X157950437Y-100146360D01*
X157944773Y-100168969D01*
X157936921Y-100190913D01*
X157926956Y-100211983D01*
X157914974Y-100231974D01*
X157901090Y-100250694D01*
X157885438Y-100267964D01*
X157868168Y-100283616D01*
X157849448Y-100297500D01*
X157829457Y-100309482D01*
X157808387Y-100319447D01*
X157786443Y-100327299D01*
X157763834Y-100332963D01*
X157740779Y-100336382D01*
X157717500Y-100337526D01*
X157242500Y-100337526D01*
X157219221Y-100336382D01*
X157196166Y-100332963D01*
X157173557Y-100327299D01*
X157151613Y-100319447D01*
X157130543Y-100309482D01*
X157110552Y-100297500D01*
X157091832Y-100283616D01*
X157074562Y-100267964D01*
X157058910Y-100250694D01*
X157045026Y-100231974D01*
X157033044Y-100211983D01*
X157023079Y-100190913D01*
X157015227Y-100168969D01*
X157009563Y-100146360D01*
X157006144Y-100123305D01*
X157005000Y-100100026D01*
X157005000Y-99525026D01*
X157006144Y-99501747D01*
X157009563Y-99478692D01*
X157015227Y-99456083D01*
X157023079Y-99434139D01*
X157033044Y-99413069D01*
X157045026Y-99393078D01*
X157058910Y-99374358D01*
X157074562Y-99357088D01*
X157091832Y-99341436D01*
X157110552Y-99327552D01*
X157130543Y-99315570D01*
X157151613Y-99305605D01*
X157173557Y-99297753D01*
X157196166Y-99292089D01*
X157219221Y-99288670D01*
X157242500Y-99287526D01*
X157717500Y-99287526D01*
X157740779Y-99288670D01*
X157740779Y-99288670D01*
G37*
D17*
X157480000Y-99812526D03*
G04 #@! TD*
D16*
G04 #@! TO.C,R24*
G36*
X168921839Y-73051888D02*
X168944894Y-73055307D01*
X168967503Y-73060971D01*
X168989447Y-73068823D01*
X169010517Y-73078788D01*
X169030508Y-73090770D01*
X169049228Y-73104654D01*
X169066498Y-73120306D01*
X169082150Y-73137576D01*
X169096034Y-73156296D01*
X169108016Y-73176287D01*
X169117981Y-73197357D01*
X169125833Y-73219301D01*
X169131497Y-73241910D01*
X169134916Y-73264965D01*
X169136060Y-73288244D01*
X169136060Y-73763244D01*
X169134916Y-73786523D01*
X169131497Y-73809578D01*
X169125833Y-73832187D01*
X169117981Y-73854131D01*
X169108016Y-73875201D01*
X169096034Y-73895192D01*
X169082150Y-73913912D01*
X169066498Y-73931182D01*
X169049228Y-73946834D01*
X169030508Y-73960718D01*
X169010517Y-73972700D01*
X168989447Y-73982665D01*
X168967503Y-73990517D01*
X168944894Y-73996181D01*
X168921839Y-73999600D01*
X168898560Y-74000744D01*
X168323560Y-74000744D01*
X168300281Y-73999600D01*
X168277226Y-73996181D01*
X168254617Y-73990517D01*
X168232673Y-73982665D01*
X168211603Y-73972700D01*
X168191612Y-73960718D01*
X168172892Y-73946834D01*
X168155622Y-73931182D01*
X168139970Y-73913912D01*
X168126086Y-73895192D01*
X168114104Y-73875201D01*
X168104139Y-73854131D01*
X168096287Y-73832187D01*
X168090623Y-73809578D01*
X168087204Y-73786523D01*
X168086060Y-73763244D01*
X168086060Y-73288244D01*
X168087204Y-73264965D01*
X168090623Y-73241910D01*
X168096287Y-73219301D01*
X168104139Y-73197357D01*
X168114104Y-73176287D01*
X168126086Y-73156296D01*
X168139970Y-73137576D01*
X168155622Y-73120306D01*
X168172892Y-73104654D01*
X168191612Y-73090770D01*
X168211603Y-73078788D01*
X168232673Y-73068823D01*
X168254617Y-73060971D01*
X168277226Y-73055307D01*
X168300281Y-73051888D01*
X168323560Y-73050744D01*
X168898560Y-73050744D01*
X168921839Y-73051888D01*
X168921839Y-73051888D01*
G37*
D17*
X168611060Y-73525744D03*
D16*
G36*
X170671839Y-73051888D02*
X170694894Y-73055307D01*
X170717503Y-73060971D01*
X170739447Y-73068823D01*
X170760517Y-73078788D01*
X170780508Y-73090770D01*
X170799228Y-73104654D01*
X170816498Y-73120306D01*
X170832150Y-73137576D01*
X170846034Y-73156296D01*
X170858016Y-73176287D01*
X170867981Y-73197357D01*
X170875833Y-73219301D01*
X170881497Y-73241910D01*
X170884916Y-73264965D01*
X170886060Y-73288244D01*
X170886060Y-73763244D01*
X170884916Y-73786523D01*
X170881497Y-73809578D01*
X170875833Y-73832187D01*
X170867981Y-73854131D01*
X170858016Y-73875201D01*
X170846034Y-73895192D01*
X170832150Y-73913912D01*
X170816498Y-73931182D01*
X170799228Y-73946834D01*
X170780508Y-73960718D01*
X170760517Y-73972700D01*
X170739447Y-73982665D01*
X170717503Y-73990517D01*
X170694894Y-73996181D01*
X170671839Y-73999600D01*
X170648560Y-74000744D01*
X170073560Y-74000744D01*
X170050281Y-73999600D01*
X170027226Y-73996181D01*
X170004617Y-73990517D01*
X169982673Y-73982665D01*
X169961603Y-73972700D01*
X169941612Y-73960718D01*
X169922892Y-73946834D01*
X169905622Y-73931182D01*
X169889970Y-73913912D01*
X169876086Y-73895192D01*
X169864104Y-73875201D01*
X169854139Y-73854131D01*
X169846287Y-73832187D01*
X169840623Y-73809578D01*
X169837204Y-73786523D01*
X169836060Y-73763244D01*
X169836060Y-73288244D01*
X169837204Y-73264965D01*
X169840623Y-73241910D01*
X169846287Y-73219301D01*
X169854139Y-73197357D01*
X169864104Y-73176287D01*
X169876086Y-73156296D01*
X169889970Y-73137576D01*
X169905622Y-73120306D01*
X169922892Y-73104654D01*
X169941612Y-73090770D01*
X169961603Y-73078788D01*
X169982673Y-73068823D01*
X170004617Y-73060971D01*
X170027226Y-73055307D01*
X170050281Y-73051888D01*
X170073560Y-73050744D01*
X170648560Y-73050744D01*
X170671839Y-73051888D01*
X170671839Y-73051888D01*
G37*
D17*
X170361060Y-73525744D03*
G04 #@! TD*
D16*
G04 #@! TO.C,R27*
G36*
X126136839Y-100719362D02*
X126159894Y-100722781D01*
X126182503Y-100728445D01*
X126204447Y-100736297D01*
X126225517Y-100746262D01*
X126245508Y-100758244D01*
X126264228Y-100772128D01*
X126281498Y-100787780D01*
X126297150Y-100805050D01*
X126311034Y-100823770D01*
X126323016Y-100843761D01*
X126332981Y-100864831D01*
X126340833Y-100886775D01*
X126346497Y-100909384D01*
X126349916Y-100932439D01*
X126351060Y-100955718D01*
X126351060Y-101430718D01*
X126349916Y-101453997D01*
X126346497Y-101477052D01*
X126340833Y-101499661D01*
X126332981Y-101521605D01*
X126323016Y-101542675D01*
X126311034Y-101562666D01*
X126297150Y-101581386D01*
X126281498Y-101598656D01*
X126264228Y-101614308D01*
X126245508Y-101628192D01*
X126225517Y-101640174D01*
X126204447Y-101650139D01*
X126182503Y-101657991D01*
X126159894Y-101663655D01*
X126136839Y-101667074D01*
X126113560Y-101668218D01*
X125538560Y-101668218D01*
X125515281Y-101667074D01*
X125492226Y-101663655D01*
X125469617Y-101657991D01*
X125447673Y-101650139D01*
X125426603Y-101640174D01*
X125406612Y-101628192D01*
X125387892Y-101614308D01*
X125370622Y-101598656D01*
X125354970Y-101581386D01*
X125341086Y-101562666D01*
X125329104Y-101542675D01*
X125319139Y-101521605D01*
X125311287Y-101499661D01*
X125305623Y-101477052D01*
X125302204Y-101453997D01*
X125301060Y-101430718D01*
X125301060Y-100955718D01*
X125302204Y-100932439D01*
X125305623Y-100909384D01*
X125311287Y-100886775D01*
X125319139Y-100864831D01*
X125329104Y-100843761D01*
X125341086Y-100823770D01*
X125354970Y-100805050D01*
X125370622Y-100787780D01*
X125387892Y-100772128D01*
X125406612Y-100758244D01*
X125426603Y-100746262D01*
X125447673Y-100736297D01*
X125469617Y-100728445D01*
X125492226Y-100722781D01*
X125515281Y-100719362D01*
X125538560Y-100718218D01*
X126113560Y-100718218D01*
X126136839Y-100719362D01*
X126136839Y-100719362D01*
G37*
D17*
X125826060Y-101193218D03*
D16*
G36*
X127886839Y-100719362D02*
X127909894Y-100722781D01*
X127932503Y-100728445D01*
X127954447Y-100736297D01*
X127975517Y-100746262D01*
X127995508Y-100758244D01*
X128014228Y-100772128D01*
X128031498Y-100787780D01*
X128047150Y-100805050D01*
X128061034Y-100823770D01*
X128073016Y-100843761D01*
X128082981Y-100864831D01*
X128090833Y-100886775D01*
X128096497Y-100909384D01*
X128099916Y-100932439D01*
X128101060Y-100955718D01*
X128101060Y-101430718D01*
X128099916Y-101453997D01*
X128096497Y-101477052D01*
X128090833Y-101499661D01*
X128082981Y-101521605D01*
X128073016Y-101542675D01*
X128061034Y-101562666D01*
X128047150Y-101581386D01*
X128031498Y-101598656D01*
X128014228Y-101614308D01*
X127995508Y-101628192D01*
X127975517Y-101640174D01*
X127954447Y-101650139D01*
X127932503Y-101657991D01*
X127909894Y-101663655D01*
X127886839Y-101667074D01*
X127863560Y-101668218D01*
X127288560Y-101668218D01*
X127265281Y-101667074D01*
X127242226Y-101663655D01*
X127219617Y-101657991D01*
X127197673Y-101650139D01*
X127176603Y-101640174D01*
X127156612Y-101628192D01*
X127137892Y-101614308D01*
X127120622Y-101598656D01*
X127104970Y-101581386D01*
X127091086Y-101562666D01*
X127079104Y-101542675D01*
X127069139Y-101521605D01*
X127061287Y-101499661D01*
X127055623Y-101477052D01*
X127052204Y-101453997D01*
X127051060Y-101430718D01*
X127051060Y-100955718D01*
X127052204Y-100932439D01*
X127055623Y-100909384D01*
X127061287Y-100886775D01*
X127069139Y-100864831D01*
X127079104Y-100843761D01*
X127091086Y-100823770D01*
X127104970Y-100805050D01*
X127120622Y-100787780D01*
X127137892Y-100772128D01*
X127156612Y-100758244D01*
X127176603Y-100746262D01*
X127197673Y-100736297D01*
X127219617Y-100728445D01*
X127242226Y-100722781D01*
X127265281Y-100719362D01*
X127288560Y-100718218D01*
X127863560Y-100718218D01*
X127886839Y-100719362D01*
X127886839Y-100719362D01*
G37*
D17*
X127576060Y-101193218D03*
G04 #@! TD*
D16*
G04 #@! TO.C,R28*
G36*
X122566839Y-72144362D02*
X122589894Y-72147781D01*
X122612503Y-72153445D01*
X122634447Y-72161297D01*
X122655517Y-72171262D01*
X122675508Y-72183244D01*
X122694228Y-72197128D01*
X122711498Y-72212780D01*
X122727150Y-72230050D01*
X122741034Y-72248770D01*
X122753016Y-72268761D01*
X122762981Y-72289831D01*
X122770833Y-72311775D01*
X122776497Y-72334384D01*
X122779916Y-72357439D01*
X122781060Y-72380718D01*
X122781060Y-72855718D01*
X122779916Y-72878997D01*
X122776497Y-72902052D01*
X122770833Y-72924661D01*
X122762981Y-72946605D01*
X122753016Y-72967675D01*
X122741034Y-72987666D01*
X122727150Y-73006386D01*
X122711498Y-73023656D01*
X122694228Y-73039308D01*
X122675508Y-73053192D01*
X122655517Y-73065174D01*
X122634447Y-73075139D01*
X122612503Y-73082991D01*
X122589894Y-73088655D01*
X122566839Y-73092074D01*
X122543560Y-73093218D01*
X121968560Y-73093218D01*
X121945281Y-73092074D01*
X121922226Y-73088655D01*
X121899617Y-73082991D01*
X121877673Y-73075139D01*
X121856603Y-73065174D01*
X121836612Y-73053192D01*
X121817892Y-73039308D01*
X121800622Y-73023656D01*
X121784970Y-73006386D01*
X121771086Y-72987666D01*
X121759104Y-72967675D01*
X121749139Y-72946605D01*
X121741287Y-72924661D01*
X121735623Y-72902052D01*
X121732204Y-72878997D01*
X121731060Y-72855718D01*
X121731060Y-72380718D01*
X121732204Y-72357439D01*
X121735623Y-72334384D01*
X121741287Y-72311775D01*
X121749139Y-72289831D01*
X121759104Y-72268761D01*
X121771086Y-72248770D01*
X121784970Y-72230050D01*
X121800622Y-72212780D01*
X121817892Y-72197128D01*
X121836612Y-72183244D01*
X121856603Y-72171262D01*
X121877673Y-72161297D01*
X121899617Y-72153445D01*
X121922226Y-72147781D01*
X121945281Y-72144362D01*
X121968560Y-72143218D01*
X122543560Y-72143218D01*
X122566839Y-72144362D01*
X122566839Y-72144362D01*
G37*
D17*
X122256060Y-72618218D03*
D16*
G36*
X124316839Y-72144362D02*
X124339894Y-72147781D01*
X124362503Y-72153445D01*
X124384447Y-72161297D01*
X124405517Y-72171262D01*
X124425508Y-72183244D01*
X124444228Y-72197128D01*
X124461498Y-72212780D01*
X124477150Y-72230050D01*
X124491034Y-72248770D01*
X124503016Y-72268761D01*
X124512981Y-72289831D01*
X124520833Y-72311775D01*
X124526497Y-72334384D01*
X124529916Y-72357439D01*
X124531060Y-72380718D01*
X124531060Y-72855718D01*
X124529916Y-72878997D01*
X124526497Y-72902052D01*
X124520833Y-72924661D01*
X124512981Y-72946605D01*
X124503016Y-72967675D01*
X124491034Y-72987666D01*
X124477150Y-73006386D01*
X124461498Y-73023656D01*
X124444228Y-73039308D01*
X124425508Y-73053192D01*
X124405517Y-73065174D01*
X124384447Y-73075139D01*
X124362503Y-73082991D01*
X124339894Y-73088655D01*
X124316839Y-73092074D01*
X124293560Y-73093218D01*
X123718560Y-73093218D01*
X123695281Y-73092074D01*
X123672226Y-73088655D01*
X123649617Y-73082991D01*
X123627673Y-73075139D01*
X123606603Y-73065174D01*
X123586612Y-73053192D01*
X123567892Y-73039308D01*
X123550622Y-73023656D01*
X123534970Y-73006386D01*
X123521086Y-72987666D01*
X123509104Y-72967675D01*
X123499139Y-72946605D01*
X123491287Y-72924661D01*
X123485623Y-72902052D01*
X123482204Y-72878997D01*
X123481060Y-72855718D01*
X123481060Y-72380718D01*
X123482204Y-72357439D01*
X123485623Y-72334384D01*
X123491287Y-72311775D01*
X123499139Y-72289831D01*
X123509104Y-72268761D01*
X123521086Y-72248770D01*
X123534970Y-72230050D01*
X123550622Y-72212780D01*
X123567892Y-72197128D01*
X123586612Y-72183244D01*
X123606603Y-72171262D01*
X123627673Y-72161297D01*
X123649617Y-72153445D01*
X123672226Y-72147781D01*
X123695281Y-72144362D01*
X123718560Y-72143218D01*
X124293560Y-72143218D01*
X124316839Y-72144362D01*
X124316839Y-72144362D01*
G37*
D17*
X124006060Y-72618218D03*
G04 #@! TD*
D16*
G04 #@! TO.C,R29*
G36*
X122710779Y-100719362D02*
X122733834Y-100722781D01*
X122756443Y-100728445D01*
X122778387Y-100736297D01*
X122799457Y-100746262D01*
X122819448Y-100758244D01*
X122838168Y-100772128D01*
X122855438Y-100787780D01*
X122871090Y-100805050D01*
X122884974Y-100823770D01*
X122896956Y-100843761D01*
X122906921Y-100864831D01*
X122914773Y-100886775D01*
X122920437Y-100909384D01*
X122923856Y-100932439D01*
X122925000Y-100955718D01*
X122925000Y-101430718D01*
X122923856Y-101453997D01*
X122920437Y-101477052D01*
X122914773Y-101499661D01*
X122906921Y-101521605D01*
X122896956Y-101542675D01*
X122884974Y-101562666D01*
X122871090Y-101581386D01*
X122855438Y-101598656D01*
X122838168Y-101614308D01*
X122819448Y-101628192D01*
X122799457Y-101640174D01*
X122778387Y-101650139D01*
X122756443Y-101657991D01*
X122733834Y-101663655D01*
X122710779Y-101667074D01*
X122687500Y-101668218D01*
X122112500Y-101668218D01*
X122089221Y-101667074D01*
X122066166Y-101663655D01*
X122043557Y-101657991D01*
X122021613Y-101650139D01*
X122000543Y-101640174D01*
X121980552Y-101628192D01*
X121961832Y-101614308D01*
X121944562Y-101598656D01*
X121928910Y-101581386D01*
X121915026Y-101562666D01*
X121903044Y-101542675D01*
X121893079Y-101521605D01*
X121885227Y-101499661D01*
X121879563Y-101477052D01*
X121876144Y-101453997D01*
X121875000Y-101430718D01*
X121875000Y-100955718D01*
X121876144Y-100932439D01*
X121879563Y-100909384D01*
X121885227Y-100886775D01*
X121893079Y-100864831D01*
X121903044Y-100843761D01*
X121915026Y-100823770D01*
X121928910Y-100805050D01*
X121944562Y-100787780D01*
X121961832Y-100772128D01*
X121980552Y-100758244D01*
X122000543Y-100746262D01*
X122021613Y-100736297D01*
X122043557Y-100728445D01*
X122066166Y-100722781D01*
X122089221Y-100719362D01*
X122112500Y-100718218D01*
X122687500Y-100718218D01*
X122710779Y-100719362D01*
X122710779Y-100719362D01*
G37*
D17*
X122400000Y-101193218D03*
D16*
G36*
X120960779Y-100719362D02*
X120983834Y-100722781D01*
X121006443Y-100728445D01*
X121028387Y-100736297D01*
X121049457Y-100746262D01*
X121069448Y-100758244D01*
X121088168Y-100772128D01*
X121105438Y-100787780D01*
X121121090Y-100805050D01*
X121134974Y-100823770D01*
X121146956Y-100843761D01*
X121156921Y-100864831D01*
X121164773Y-100886775D01*
X121170437Y-100909384D01*
X121173856Y-100932439D01*
X121175000Y-100955718D01*
X121175000Y-101430718D01*
X121173856Y-101453997D01*
X121170437Y-101477052D01*
X121164773Y-101499661D01*
X121156921Y-101521605D01*
X121146956Y-101542675D01*
X121134974Y-101562666D01*
X121121090Y-101581386D01*
X121105438Y-101598656D01*
X121088168Y-101614308D01*
X121069448Y-101628192D01*
X121049457Y-101640174D01*
X121028387Y-101650139D01*
X121006443Y-101657991D01*
X120983834Y-101663655D01*
X120960779Y-101667074D01*
X120937500Y-101668218D01*
X120362500Y-101668218D01*
X120339221Y-101667074D01*
X120316166Y-101663655D01*
X120293557Y-101657991D01*
X120271613Y-101650139D01*
X120250543Y-101640174D01*
X120230552Y-101628192D01*
X120211832Y-101614308D01*
X120194562Y-101598656D01*
X120178910Y-101581386D01*
X120165026Y-101562666D01*
X120153044Y-101542675D01*
X120143079Y-101521605D01*
X120135227Y-101499661D01*
X120129563Y-101477052D01*
X120126144Y-101453997D01*
X120125000Y-101430718D01*
X120125000Y-100955718D01*
X120126144Y-100932439D01*
X120129563Y-100909384D01*
X120135227Y-100886775D01*
X120143079Y-100864831D01*
X120153044Y-100843761D01*
X120165026Y-100823770D01*
X120178910Y-100805050D01*
X120194562Y-100787780D01*
X120211832Y-100772128D01*
X120230552Y-100758244D01*
X120250543Y-100746262D01*
X120271613Y-100736297D01*
X120293557Y-100728445D01*
X120316166Y-100722781D01*
X120339221Y-100719362D01*
X120362500Y-100718218D01*
X120937500Y-100718218D01*
X120960779Y-100719362D01*
X120960779Y-100719362D01*
G37*
D17*
X120650000Y-101193218D03*
G04 #@! TD*
D16*
G04 #@! TO.C,R30*
G36*
X127406839Y-72144362D02*
X127429894Y-72147781D01*
X127452503Y-72153445D01*
X127474447Y-72161297D01*
X127495517Y-72171262D01*
X127515508Y-72183244D01*
X127534228Y-72197128D01*
X127551498Y-72212780D01*
X127567150Y-72230050D01*
X127581034Y-72248770D01*
X127593016Y-72268761D01*
X127602981Y-72289831D01*
X127610833Y-72311775D01*
X127616497Y-72334384D01*
X127619916Y-72357439D01*
X127621060Y-72380718D01*
X127621060Y-72855718D01*
X127619916Y-72878997D01*
X127616497Y-72902052D01*
X127610833Y-72924661D01*
X127602981Y-72946605D01*
X127593016Y-72967675D01*
X127581034Y-72987666D01*
X127567150Y-73006386D01*
X127551498Y-73023656D01*
X127534228Y-73039308D01*
X127515508Y-73053192D01*
X127495517Y-73065174D01*
X127474447Y-73075139D01*
X127452503Y-73082991D01*
X127429894Y-73088655D01*
X127406839Y-73092074D01*
X127383560Y-73093218D01*
X126808560Y-73093218D01*
X126785281Y-73092074D01*
X126762226Y-73088655D01*
X126739617Y-73082991D01*
X126717673Y-73075139D01*
X126696603Y-73065174D01*
X126676612Y-73053192D01*
X126657892Y-73039308D01*
X126640622Y-73023656D01*
X126624970Y-73006386D01*
X126611086Y-72987666D01*
X126599104Y-72967675D01*
X126589139Y-72946605D01*
X126581287Y-72924661D01*
X126575623Y-72902052D01*
X126572204Y-72878997D01*
X126571060Y-72855718D01*
X126571060Y-72380718D01*
X126572204Y-72357439D01*
X126575623Y-72334384D01*
X126581287Y-72311775D01*
X126589139Y-72289831D01*
X126599104Y-72268761D01*
X126611086Y-72248770D01*
X126624970Y-72230050D01*
X126640622Y-72212780D01*
X126657892Y-72197128D01*
X126676612Y-72183244D01*
X126696603Y-72171262D01*
X126717673Y-72161297D01*
X126739617Y-72153445D01*
X126762226Y-72147781D01*
X126785281Y-72144362D01*
X126808560Y-72143218D01*
X127383560Y-72143218D01*
X127406839Y-72144362D01*
X127406839Y-72144362D01*
G37*
D17*
X127096060Y-72618218D03*
D16*
G36*
X129156839Y-72144362D02*
X129179894Y-72147781D01*
X129202503Y-72153445D01*
X129224447Y-72161297D01*
X129245517Y-72171262D01*
X129265508Y-72183244D01*
X129284228Y-72197128D01*
X129301498Y-72212780D01*
X129317150Y-72230050D01*
X129331034Y-72248770D01*
X129343016Y-72268761D01*
X129352981Y-72289831D01*
X129360833Y-72311775D01*
X129366497Y-72334384D01*
X129369916Y-72357439D01*
X129371060Y-72380718D01*
X129371060Y-72855718D01*
X129369916Y-72878997D01*
X129366497Y-72902052D01*
X129360833Y-72924661D01*
X129352981Y-72946605D01*
X129343016Y-72967675D01*
X129331034Y-72987666D01*
X129317150Y-73006386D01*
X129301498Y-73023656D01*
X129284228Y-73039308D01*
X129265508Y-73053192D01*
X129245517Y-73065174D01*
X129224447Y-73075139D01*
X129202503Y-73082991D01*
X129179894Y-73088655D01*
X129156839Y-73092074D01*
X129133560Y-73093218D01*
X128558560Y-73093218D01*
X128535281Y-73092074D01*
X128512226Y-73088655D01*
X128489617Y-73082991D01*
X128467673Y-73075139D01*
X128446603Y-73065174D01*
X128426612Y-73053192D01*
X128407892Y-73039308D01*
X128390622Y-73023656D01*
X128374970Y-73006386D01*
X128361086Y-72987666D01*
X128349104Y-72967675D01*
X128339139Y-72946605D01*
X128331287Y-72924661D01*
X128325623Y-72902052D01*
X128322204Y-72878997D01*
X128321060Y-72855718D01*
X128321060Y-72380718D01*
X128322204Y-72357439D01*
X128325623Y-72334384D01*
X128331287Y-72311775D01*
X128339139Y-72289831D01*
X128349104Y-72268761D01*
X128361086Y-72248770D01*
X128374970Y-72230050D01*
X128390622Y-72212780D01*
X128407892Y-72197128D01*
X128426612Y-72183244D01*
X128446603Y-72171262D01*
X128467673Y-72161297D01*
X128489617Y-72153445D01*
X128512226Y-72147781D01*
X128535281Y-72144362D01*
X128558560Y-72143218D01*
X129133560Y-72143218D01*
X129156839Y-72144362D01*
X129156839Y-72144362D01*
G37*
D17*
X128846060Y-72618218D03*
G04 #@! TD*
D16*
G04 #@! TO.C,R31*
G36*
X147150779Y-100491144D02*
X147173834Y-100494563D01*
X147196443Y-100500227D01*
X147218387Y-100508079D01*
X147239457Y-100518044D01*
X147259448Y-100530026D01*
X147278168Y-100543910D01*
X147295438Y-100559562D01*
X147311090Y-100576832D01*
X147324974Y-100595552D01*
X147336956Y-100615543D01*
X147346921Y-100636613D01*
X147354773Y-100658557D01*
X147360437Y-100681166D01*
X147363856Y-100704221D01*
X147365000Y-100727500D01*
X147365000Y-101202500D01*
X147363856Y-101225779D01*
X147360437Y-101248834D01*
X147354773Y-101271443D01*
X147346921Y-101293387D01*
X147336956Y-101314457D01*
X147324974Y-101334448D01*
X147311090Y-101353168D01*
X147295438Y-101370438D01*
X147278168Y-101386090D01*
X147259448Y-101399974D01*
X147239457Y-101411956D01*
X147218387Y-101421921D01*
X147196443Y-101429773D01*
X147173834Y-101435437D01*
X147150779Y-101438856D01*
X147127500Y-101440000D01*
X146552500Y-101440000D01*
X146529221Y-101438856D01*
X146506166Y-101435437D01*
X146483557Y-101429773D01*
X146461613Y-101421921D01*
X146440543Y-101411956D01*
X146420552Y-101399974D01*
X146401832Y-101386090D01*
X146384562Y-101370438D01*
X146368910Y-101353168D01*
X146355026Y-101334448D01*
X146343044Y-101314457D01*
X146333079Y-101293387D01*
X146325227Y-101271443D01*
X146319563Y-101248834D01*
X146316144Y-101225779D01*
X146315000Y-101202500D01*
X146315000Y-100727500D01*
X146316144Y-100704221D01*
X146319563Y-100681166D01*
X146325227Y-100658557D01*
X146333079Y-100636613D01*
X146343044Y-100615543D01*
X146355026Y-100595552D01*
X146368910Y-100576832D01*
X146384562Y-100559562D01*
X146401832Y-100543910D01*
X146420552Y-100530026D01*
X146440543Y-100518044D01*
X146461613Y-100508079D01*
X146483557Y-100500227D01*
X146506166Y-100494563D01*
X146529221Y-100491144D01*
X146552500Y-100490000D01*
X147127500Y-100490000D01*
X147150779Y-100491144D01*
X147150779Y-100491144D01*
G37*
D17*
X146840000Y-100965000D03*
D16*
G36*
X148900779Y-100491144D02*
X148923834Y-100494563D01*
X148946443Y-100500227D01*
X148968387Y-100508079D01*
X148989457Y-100518044D01*
X149009448Y-100530026D01*
X149028168Y-100543910D01*
X149045438Y-100559562D01*
X149061090Y-100576832D01*
X149074974Y-100595552D01*
X149086956Y-100615543D01*
X149096921Y-100636613D01*
X149104773Y-100658557D01*
X149110437Y-100681166D01*
X149113856Y-100704221D01*
X149115000Y-100727500D01*
X149115000Y-101202500D01*
X149113856Y-101225779D01*
X149110437Y-101248834D01*
X149104773Y-101271443D01*
X149096921Y-101293387D01*
X149086956Y-101314457D01*
X149074974Y-101334448D01*
X149061090Y-101353168D01*
X149045438Y-101370438D01*
X149028168Y-101386090D01*
X149009448Y-101399974D01*
X148989457Y-101411956D01*
X148968387Y-101421921D01*
X148946443Y-101429773D01*
X148923834Y-101435437D01*
X148900779Y-101438856D01*
X148877500Y-101440000D01*
X148302500Y-101440000D01*
X148279221Y-101438856D01*
X148256166Y-101435437D01*
X148233557Y-101429773D01*
X148211613Y-101421921D01*
X148190543Y-101411956D01*
X148170552Y-101399974D01*
X148151832Y-101386090D01*
X148134562Y-101370438D01*
X148118910Y-101353168D01*
X148105026Y-101334448D01*
X148093044Y-101314457D01*
X148083079Y-101293387D01*
X148075227Y-101271443D01*
X148069563Y-101248834D01*
X148066144Y-101225779D01*
X148065000Y-101202500D01*
X148065000Y-100727500D01*
X148066144Y-100704221D01*
X148069563Y-100681166D01*
X148075227Y-100658557D01*
X148083079Y-100636613D01*
X148093044Y-100615543D01*
X148105026Y-100595552D01*
X148118910Y-100576832D01*
X148134562Y-100559562D01*
X148151832Y-100543910D01*
X148170552Y-100530026D01*
X148190543Y-100518044D01*
X148211613Y-100508079D01*
X148233557Y-100500227D01*
X148256166Y-100494563D01*
X148279221Y-100491144D01*
X148302500Y-100490000D01*
X148877500Y-100490000D01*
X148900779Y-100491144D01*
X148900779Y-100491144D01*
G37*
D17*
X148590000Y-100965000D03*
G04 #@! TD*
D16*
G04 #@! TO.C,R32*
G36*
X145666839Y-71382362D02*
X145689894Y-71385781D01*
X145712503Y-71391445D01*
X145734447Y-71399297D01*
X145755517Y-71409262D01*
X145775508Y-71421244D01*
X145794228Y-71435128D01*
X145811498Y-71450780D01*
X145827150Y-71468050D01*
X145841034Y-71486770D01*
X145853016Y-71506761D01*
X145862981Y-71527831D01*
X145870833Y-71549775D01*
X145876497Y-71572384D01*
X145879916Y-71595439D01*
X145881060Y-71618718D01*
X145881060Y-72093718D01*
X145879916Y-72116997D01*
X145876497Y-72140052D01*
X145870833Y-72162661D01*
X145862981Y-72184605D01*
X145853016Y-72205675D01*
X145841034Y-72225666D01*
X145827150Y-72244386D01*
X145811498Y-72261656D01*
X145794228Y-72277308D01*
X145775508Y-72291192D01*
X145755517Y-72303174D01*
X145734447Y-72313139D01*
X145712503Y-72320991D01*
X145689894Y-72326655D01*
X145666839Y-72330074D01*
X145643560Y-72331218D01*
X145068560Y-72331218D01*
X145045281Y-72330074D01*
X145022226Y-72326655D01*
X144999617Y-72320991D01*
X144977673Y-72313139D01*
X144956603Y-72303174D01*
X144936612Y-72291192D01*
X144917892Y-72277308D01*
X144900622Y-72261656D01*
X144884970Y-72244386D01*
X144871086Y-72225666D01*
X144859104Y-72205675D01*
X144849139Y-72184605D01*
X144841287Y-72162661D01*
X144835623Y-72140052D01*
X144832204Y-72116997D01*
X144831060Y-72093718D01*
X144831060Y-71618718D01*
X144832204Y-71595439D01*
X144835623Y-71572384D01*
X144841287Y-71549775D01*
X144849139Y-71527831D01*
X144859104Y-71506761D01*
X144871086Y-71486770D01*
X144884970Y-71468050D01*
X144900622Y-71450780D01*
X144917892Y-71435128D01*
X144936612Y-71421244D01*
X144956603Y-71409262D01*
X144977673Y-71399297D01*
X144999617Y-71391445D01*
X145022226Y-71385781D01*
X145045281Y-71382362D01*
X145068560Y-71381218D01*
X145643560Y-71381218D01*
X145666839Y-71382362D01*
X145666839Y-71382362D01*
G37*
D17*
X145356060Y-71856218D03*
D16*
G36*
X143916839Y-71382362D02*
X143939894Y-71385781D01*
X143962503Y-71391445D01*
X143984447Y-71399297D01*
X144005517Y-71409262D01*
X144025508Y-71421244D01*
X144044228Y-71435128D01*
X144061498Y-71450780D01*
X144077150Y-71468050D01*
X144091034Y-71486770D01*
X144103016Y-71506761D01*
X144112981Y-71527831D01*
X144120833Y-71549775D01*
X144126497Y-71572384D01*
X144129916Y-71595439D01*
X144131060Y-71618718D01*
X144131060Y-72093718D01*
X144129916Y-72116997D01*
X144126497Y-72140052D01*
X144120833Y-72162661D01*
X144112981Y-72184605D01*
X144103016Y-72205675D01*
X144091034Y-72225666D01*
X144077150Y-72244386D01*
X144061498Y-72261656D01*
X144044228Y-72277308D01*
X144025508Y-72291192D01*
X144005517Y-72303174D01*
X143984447Y-72313139D01*
X143962503Y-72320991D01*
X143939894Y-72326655D01*
X143916839Y-72330074D01*
X143893560Y-72331218D01*
X143318560Y-72331218D01*
X143295281Y-72330074D01*
X143272226Y-72326655D01*
X143249617Y-72320991D01*
X143227673Y-72313139D01*
X143206603Y-72303174D01*
X143186612Y-72291192D01*
X143167892Y-72277308D01*
X143150622Y-72261656D01*
X143134970Y-72244386D01*
X143121086Y-72225666D01*
X143109104Y-72205675D01*
X143099139Y-72184605D01*
X143091287Y-72162661D01*
X143085623Y-72140052D01*
X143082204Y-72116997D01*
X143081060Y-72093718D01*
X143081060Y-71618718D01*
X143082204Y-71595439D01*
X143085623Y-71572384D01*
X143091287Y-71549775D01*
X143099139Y-71527831D01*
X143109104Y-71506761D01*
X143121086Y-71486770D01*
X143134970Y-71468050D01*
X143150622Y-71450780D01*
X143167892Y-71435128D01*
X143186612Y-71421244D01*
X143206603Y-71409262D01*
X143227673Y-71399297D01*
X143249617Y-71391445D01*
X143272226Y-71385781D01*
X143295281Y-71382362D01*
X143318560Y-71381218D01*
X143893560Y-71381218D01*
X143916839Y-71382362D01*
X143916839Y-71382362D01*
G37*
D17*
X143606060Y-71856218D03*
G04 #@! TD*
D16*
G04 #@! TO.C,R33*
G36*
X144156839Y-100592362D02*
X144179894Y-100595781D01*
X144202503Y-100601445D01*
X144224447Y-100609297D01*
X144245517Y-100619262D01*
X144265508Y-100631244D01*
X144284228Y-100645128D01*
X144301498Y-100660780D01*
X144317150Y-100678050D01*
X144331034Y-100696770D01*
X144343016Y-100716761D01*
X144352981Y-100737831D01*
X144360833Y-100759775D01*
X144366497Y-100782384D01*
X144369916Y-100805439D01*
X144371060Y-100828718D01*
X144371060Y-101303718D01*
X144369916Y-101326997D01*
X144366497Y-101350052D01*
X144360833Y-101372661D01*
X144352981Y-101394605D01*
X144343016Y-101415675D01*
X144331034Y-101435666D01*
X144317150Y-101454386D01*
X144301498Y-101471656D01*
X144284228Y-101487308D01*
X144265508Y-101501192D01*
X144245517Y-101513174D01*
X144224447Y-101523139D01*
X144202503Y-101530991D01*
X144179894Y-101536655D01*
X144156839Y-101540074D01*
X144133560Y-101541218D01*
X143558560Y-101541218D01*
X143535281Y-101540074D01*
X143512226Y-101536655D01*
X143489617Y-101530991D01*
X143467673Y-101523139D01*
X143446603Y-101513174D01*
X143426612Y-101501192D01*
X143407892Y-101487308D01*
X143390622Y-101471656D01*
X143374970Y-101454386D01*
X143361086Y-101435666D01*
X143349104Y-101415675D01*
X143339139Y-101394605D01*
X143331287Y-101372661D01*
X143325623Y-101350052D01*
X143322204Y-101326997D01*
X143321060Y-101303718D01*
X143321060Y-100828718D01*
X143322204Y-100805439D01*
X143325623Y-100782384D01*
X143331287Y-100759775D01*
X143339139Y-100737831D01*
X143349104Y-100716761D01*
X143361086Y-100696770D01*
X143374970Y-100678050D01*
X143390622Y-100660780D01*
X143407892Y-100645128D01*
X143426612Y-100631244D01*
X143446603Y-100619262D01*
X143467673Y-100609297D01*
X143489617Y-100601445D01*
X143512226Y-100595781D01*
X143535281Y-100592362D01*
X143558560Y-100591218D01*
X144133560Y-100591218D01*
X144156839Y-100592362D01*
X144156839Y-100592362D01*
G37*
D17*
X143846060Y-101066218D03*
D16*
G36*
X142406839Y-100592362D02*
X142429894Y-100595781D01*
X142452503Y-100601445D01*
X142474447Y-100609297D01*
X142495517Y-100619262D01*
X142515508Y-100631244D01*
X142534228Y-100645128D01*
X142551498Y-100660780D01*
X142567150Y-100678050D01*
X142581034Y-100696770D01*
X142593016Y-100716761D01*
X142602981Y-100737831D01*
X142610833Y-100759775D01*
X142616497Y-100782384D01*
X142619916Y-100805439D01*
X142621060Y-100828718D01*
X142621060Y-101303718D01*
X142619916Y-101326997D01*
X142616497Y-101350052D01*
X142610833Y-101372661D01*
X142602981Y-101394605D01*
X142593016Y-101415675D01*
X142581034Y-101435666D01*
X142567150Y-101454386D01*
X142551498Y-101471656D01*
X142534228Y-101487308D01*
X142515508Y-101501192D01*
X142495517Y-101513174D01*
X142474447Y-101523139D01*
X142452503Y-101530991D01*
X142429894Y-101536655D01*
X142406839Y-101540074D01*
X142383560Y-101541218D01*
X141808560Y-101541218D01*
X141785281Y-101540074D01*
X141762226Y-101536655D01*
X141739617Y-101530991D01*
X141717673Y-101523139D01*
X141696603Y-101513174D01*
X141676612Y-101501192D01*
X141657892Y-101487308D01*
X141640622Y-101471656D01*
X141624970Y-101454386D01*
X141611086Y-101435666D01*
X141599104Y-101415675D01*
X141589139Y-101394605D01*
X141581287Y-101372661D01*
X141575623Y-101350052D01*
X141572204Y-101326997D01*
X141571060Y-101303718D01*
X141571060Y-100828718D01*
X141572204Y-100805439D01*
X141575623Y-100782384D01*
X141581287Y-100759775D01*
X141589139Y-100737831D01*
X141599104Y-100716761D01*
X141611086Y-100696770D01*
X141624970Y-100678050D01*
X141640622Y-100660780D01*
X141657892Y-100645128D01*
X141676612Y-100631244D01*
X141696603Y-100619262D01*
X141717673Y-100609297D01*
X141739617Y-100601445D01*
X141762226Y-100595781D01*
X141785281Y-100592362D01*
X141808560Y-100591218D01*
X142383560Y-100591218D01*
X142406839Y-100592362D01*
X142406839Y-100592362D01*
G37*
D17*
X142096060Y-101066218D03*
G04 #@! TD*
D16*
G04 #@! TO.C,R34*
G36*
X148601839Y-71382362D02*
X148624894Y-71385781D01*
X148647503Y-71391445D01*
X148669447Y-71399297D01*
X148690517Y-71409262D01*
X148710508Y-71421244D01*
X148729228Y-71435128D01*
X148746498Y-71450780D01*
X148762150Y-71468050D01*
X148776034Y-71486770D01*
X148788016Y-71506761D01*
X148797981Y-71527831D01*
X148805833Y-71549775D01*
X148811497Y-71572384D01*
X148814916Y-71595439D01*
X148816060Y-71618718D01*
X148816060Y-72093718D01*
X148814916Y-72116997D01*
X148811497Y-72140052D01*
X148805833Y-72162661D01*
X148797981Y-72184605D01*
X148788016Y-72205675D01*
X148776034Y-72225666D01*
X148762150Y-72244386D01*
X148746498Y-72261656D01*
X148729228Y-72277308D01*
X148710508Y-72291192D01*
X148690517Y-72303174D01*
X148669447Y-72313139D01*
X148647503Y-72320991D01*
X148624894Y-72326655D01*
X148601839Y-72330074D01*
X148578560Y-72331218D01*
X148003560Y-72331218D01*
X147980281Y-72330074D01*
X147957226Y-72326655D01*
X147934617Y-72320991D01*
X147912673Y-72313139D01*
X147891603Y-72303174D01*
X147871612Y-72291192D01*
X147852892Y-72277308D01*
X147835622Y-72261656D01*
X147819970Y-72244386D01*
X147806086Y-72225666D01*
X147794104Y-72205675D01*
X147784139Y-72184605D01*
X147776287Y-72162661D01*
X147770623Y-72140052D01*
X147767204Y-72116997D01*
X147766060Y-72093718D01*
X147766060Y-71618718D01*
X147767204Y-71595439D01*
X147770623Y-71572384D01*
X147776287Y-71549775D01*
X147784139Y-71527831D01*
X147794104Y-71506761D01*
X147806086Y-71486770D01*
X147819970Y-71468050D01*
X147835622Y-71450780D01*
X147852892Y-71435128D01*
X147871612Y-71421244D01*
X147891603Y-71409262D01*
X147912673Y-71399297D01*
X147934617Y-71391445D01*
X147957226Y-71385781D01*
X147980281Y-71382362D01*
X148003560Y-71381218D01*
X148578560Y-71381218D01*
X148601839Y-71382362D01*
X148601839Y-71382362D01*
G37*
D17*
X148291060Y-71856218D03*
D16*
G36*
X150351839Y-71382362D02*
X150374894Y-71385781D01*
X150397503Y-71391445D01*
X150419447Y-71399297D01*
X150440517Y-71409262D01*
X150460508Y-71421244D01*
X150479228Y-71435128D01*
X150496498Y-71450780D01*
X150512150Y-71468050D01*
X150526034Y-71486770D01*
X150538016Y-71506761D01*
X150547981Y-71527831D01*
X150555833Y-71549775D01*
X150561497Y-71572384D01*
X150564916Y-71595439D01*
X150566060Y-71618718D01*
X150566060Y-72093718D01*
X150564916Y-72116997D01*
X150561497Y-72140052D01*
X150555833Y-72162661D01*
X150547981Y-72184605D01*
X150538016Y-72205675D01*
X150526034Y-72225666D01*
X150512150Y-72244386D01*
X150496498Y-72261656D01*
X150479228Y-72277308D01*
X150460508Y-72291192D01*
X150440517Y-72303174D01*
X150419447Y-72313139D01*
X150397503Y-72320991D01*
X150374894Y-72326655D01*
X150351839Y-72330074D01*
X150328560Y-72331218D01*
X149753560Y-72331218D01*
X149730281Y-72330074D01*
X149707226Y-72326655D01*
X149684617Y-72320991D01*
X149662673Y-72313139D01*
X149641603Y-72303174D01*
X149621612Y-72291192D01*
X149602892Y-72277308D01*
X149585622Y-72261656D01*
X149569970Y-72244386D01*
X149556086Y-72225666D01*
X149544104Y-72205675D01*
X149534139Y-72184605D01*
X149526287Y-72162661D01*
X149520623Y-72140052D01*
X149517204Y-72116997D01*
X149516060Y-72093718D01*
X149516060Y-71618718D01*
X149517204Y-71595439D01*
X149520623Y-71572384D01*
X149526287Y-71549775D01*
X149534139Y-71527831D01*
X149544104Y-71506761D01*
X149556086Y-71486770D01*
X149569970Y-71468050D01*
X149585622Y-71450780D01*
X149602892Y-71435128D01*
X149621612Y-71421244D01*
X149641603Y-71409262D01*
X149662673Y-71399297D01*
X149684617Y-71391445D01*
X149707226Y-71385781D01*
X149730281Y-71382362D01*
X149753560Y-71381218D01*
X150328560Y-71381218D01*
X150351839Y-71382362D01*
X150351839Y-71382362D01*
G37*
D17*
X150041060Y-71856218D03*
G04 #@! TD*
D16*
G04 #@! TO.C,D3*
G36*
X185885779Y-110016144D02*
X185908834Y-110019563D01*
X185931443Y-110025227D01*
X185953387Y-110033079D01*
X185974457Y-110043044D01*
X185994448Y-110055026D01*
X186013168Y-110068910D01*
X186030438Y-110084562D01*
X186046090Y-110101832D01*
X186059974Y-110120552D01*
X186071956Y-110140543D01*
X186081921Y-110161613D01*
X186089773Y-110183557D01*
X186095437Y-110206166D01*
X186098856Y-110229221D01*
X186100000Y-110252500D01*
X186100000Y-110727500D01*
X186098856Y-110750779D01*
X186095437Y-110773834D01*
X186089773Y-110796443D01*
X186081921Y-110818387D01*
X186071956Y-110839457D01*
X186059974Y-110859448D01*
X186046090Y-110878168D01*
X186030438Y-110895438D01*
X186013168Y-110911090D01*
X185994448Y-110924974D01*
X185974457Y-110936956D01*
X185953387Y-110946921D01*
X185931443Y-110954773D01*
X185908834Y-110960437D01*
X185885779Y-110963856D01*
X185862500Y-110965000D01*
X185287500Y-110965000D01*
X185264221Y-110963856D01*
X185241166Y-110960437D01*
X185218557Y-110954773D01*
X185196613Y-110946921D01*
X185175543Y-110936956D01*
X185155552Y-110924974D01*
X185136832Y-110911090D01*
X185119562Y-110895438D01*
X185103910Y-110878168D01*
X185090026Y-110859448D01*
X185078044Y-110839457D01*
X185068079Y-110818387D01*
X185060227Y-110796443D01*
X185054563Y-110773834D01*
X185051144Y-110750779D01*
X185050000Y-110727500D01*
X185050000Y-110252500D01*
X185051144Y-110229221D01*
X185054563Y-110206166D01*
X185060227Y-110183557D01*
X185068079Y-110161613D01*
X185078044Y-110140543D01*
X185090026Y-110120552D01*
X185103910Y-110101832D01*
X185119562Y-110084562D01*
X185136832Y-110068910D01*
X185155552Y-110055026D01*
X185175543Y-110043044D01*
X185196613Y-110033079D01*
X185218557Y-110025227D01*
X185241166Y-110019563D01*
X185264221Y-110016144D01*
X185287500Y-110015000D01*
X185862500Y-110015000D01*
X185885779Y-110016144D01*
X185885779Y-110016144D01*
G37*
D17*
X185575000Y-110490000D03*
D16*
G36*
X187635779Y-110016144D02*
X187658834Y-110019563D01*
X187681443Y-110025227D01*
X187703387Y-110033079D01*
X187724457Y-110043044D01*
X187744448Y-110055026D01*
X187763168Y-110068910D01*
X187780438Y-110084562D01*
X187796090Y-110101832D01*
X187809974Y-110120552D01*
X187821956Y-110140543D01*
X187831921Y-110161613D01*
X187839773Y-110183557D01*
X187845437Y-110206166D01*
X187848856Y-110229221D01*
X187850000Y-110252500D01*
X187850000Y-110727500D01*
X187848856Y-110750779D01*
X187845437Y-110773834D01*
X187839773Y-110796443D01*
X187831921Y-110818387D01*
X187821956Y-110839457D01*
X187809974Y-110859448D01*
X187796090Y-110878168D01*
X187780438Y-110895438D01*
X187763168Y-110911090D01*
X187744448Y-110924974D01*
X187724457Y-110936956D01*
X187703387Y-110946921D01*
X187681443Y-110954773D01*
X187658834Y-110960437D01*
X187635779Y-110963856D01*
X187612500Y-110965000D01*
X187037500Y-110965000D01*
X187014221Y-110963856D01*
X186991166Y-110960437D01*
X186968557Y-110954773D01*
X186946613Y-110946921D01*
X186925543Y-110936956D01*
X186905552Y-110924974D01*
X186886832Y-110911090D01*
X186869562Y-110895438D01*
X186853910Y-110878168D01*
X186840026Y-110859448D01*
X186828044Y-110839457D01*
X186818079Y-110818387D01*
X186810227Y-110796443D01*
X186804563Y-110773834D01*
X186801144Y-110750779D01*
X186800000Y-110727500D01*
X186800000Y-110252500D01*
X186801144Y-110229221D01*
X186804563Y-110206166D01*
X186810227Y-110183557D01*
X186818079Y-110161613D01*
X186828044Y-110140543D01*
X186840026Y-110120552D01*
X186853910Y-110101832D01*
X186869562Y-110084562D01*
X186886832Y-110068910D01*
X186905552Y-110055026D01*
X186925543Y-110043044D01*
X186946613Y-110033079D01*
X186968557Y-110025227D01*
X186991166Y-110019563D01*
X187014221Y-110016144D01*
X187037500Y-110015000D01*
X187612500Y-110015000D01*
X187635779Y-110016144D01*
X187635779Y-110016144D01*
G37*
D17*
X187325000Y-110490000D03*
G04 #@! TD*
D16*
G04 #@! TO.C,D4*
G36*
X95715779Y-104936144D02*
X95738834Y-104939563D01*
X95761443Y-104945227D01*
X95783387Y-104953079D01*
X95804457Y-104963044D01*
X95824448Y-104975026D01*
X95843168Y-104988910D01*
X95860438Y-105004562D01*
X95876090Y-105021832D01*
X95889974Y-105040552D01*
X95901956Y-105060543D01*
X95911921Y-105081613D01*
X95919773Y-105103557D01*
X95925437Y-105126166D01*
X95928856Y-105149221D01*
X95930000Y-105172500D01*
X95930000Y-105647500D01*
X95928856Y-105670779D01*
X95925437Y-105693834D01*
X95919773Y-105716443D01*
X95911921Y-105738387D01*
X95901956Y-105759457D01*
X95889974Y-105779448D01*
X95876090Y-105798168D01*
X95860438Y-105815438D01*
X95843168Y-105831090D01*
X95824448Y-105844974D01*
X95804457Y-105856956D01*
X95783387Y-105866921D01*
X95761443Y-105874773D01*
X95738834Y-105880437D01*
X95715779Y-105883856D01*
X95692500Y-105885000D01*
X95117500Y-105885000D01*
X95094221Y-105883856D01*
X95071166Y-105880437D01*
X95048557Y-105874773D01*
X95026613Y-105866921D01*
X95005543Y-105856956D01*
X94985552Y-105844974D01*
X94966832Y-105831090D01*
X94949562Y-105815438D01*
X94933910Y-105798168D01*
X94920026Y-105779448D01*
X94908044Y-105759457D01*
X94898079Y-105738387D01*
X94890227Y-105716443D01*
X94884563Y-105693834D01*
X94881144Y-105670779D01*
X94880000Y-105647500D01*
X94880000Y-105172500D01*
X94881144Y-105149221D01*
X94884563Y-105126166D01*
X94890227Y-105103557D01*
X94898079Y-105081613D01*
X94908044Y-105060543D01*
X94920026Y-105040552D01*
X94933910Y-105021832D01*
X94949562Y-105004562D01*
X94966832Y-104988910D01*
X94985552Y-104975026D01*
X95005543Y-104963044D01*
X95026613Y-104953079D01*
X95048557Y-104945227D01*
X95071166Y-104939563D01*
X95094221Y-104936144D01*
X95117500Y-104935000D01*
X95692500Y-104935000D01*
X95715779Y-104936144D01*
X95715779Y-104936144D01*
G37*
D17*
X95405000Y-105410000D03*
D16*
G36*
X97465779Y-104936144D02*
X97488834Y-104939563D01*
X97511443Y-104945227D01*
X97533387Y-104953079D01*
X97554457Y-104963044D01*
X97574448Y-104975026D01*
X97593168Y-104988910D01*
X97610438Y-105004562D01*
X97626090Y-105021832D01*
X97639974Y-105040552D01*
X97651956Y-105060543D01*
X97661921Y-105081613D01*
X97669773Y-105103557D01*
X97675437Y-105126166D01*
X97678856Y-105149221D01*
X97680000Y-105172500D01*
X97680000Y-105647500D01*
X97678856Y-105670779D01*
X97675437Y-105693834D01*
X97669773Y-105716443D01*
X97661921Y-105738387D01*
X97651956Y-105759457D01*
X97639974Y-105779448D01*
X97626090Y-105798168D01*
X97610438Y-105815438D01*
X97593168Y-105831090D01*
X97574448Y-105844974D01*
X97554457Y-105856956D01*
X97533387Y-105866921D01*
X97511443Y-105874773D01*
X97488834Y-105880437D01*
X97465779Y-105883856D01*
X97442500Y-105885000D01*
X96867500Y-105885000D01*
X96844221Y-105883856D01*
X96821166Y-105880437D01*
X96798557Y-105874773D01*
X96776613Y-105866921D01*
X96755543Y-105856956D01*
X96735552Y-105844974D01*
X96716832Y-105831090D01*
X96699562Y-105815438D01*
X96683910Y-105798168D01*
X96670026Y-105779448D01*
X96658044Y-105759457D01*
X96648079Y-105738387D01*
X96640227Y-105716443D01*
X96634563Y-105693834D01*
X96631144Y-105670779D01*
X96630000Y-105647500D01*
X96630000Y-105172500D01*
X96631144Y-105149221D01*
X96634563Y-105126166D01*
X96640227Y-105103557D01*
X96648079Y-105081613D01*
X96658044Y-105060543D01*
X96670026Y-105040552D01*
X96683910Y-105021832D01*
X96699562Y-105004562D01*
X96716832Y-104988910D01*
X96735552Y-104975026D01*
X96755543Y-104963044D01*
X96776613Y-104953079D01*
X96798557Y-104945227D01*
X96821166Y-104939563D01*
X96844221Y-104936144D01*
X96867500Y-104935000D01*
X97442500Y-104935000D01*
X97465779Y-104936144D01*
X97465779Y-104936144D01*
G37*
D17*
X97155000Y-105410000D03*
G04 #@! TD*
D16*
G04 #@! TO.C,D5*
G36*
X161600779Y-64296144D02*
X161623834Y-64299563D01*
X161646443Y-64305227D01*
X161668387Y-64313079D01*
X161689457Y-64323044D01*
X161709448Y-64335026D01*
X161728168Y-64348910D01*
X161745438Y-64364562D01*
X161761090Y-64381832D01*
X161774974Y-64400552D01*
X161786956Y-64420543D01*
X161796921Y-64441613D01*
X161804773Y-64463557D01*
X161810437Y-64486166D01*
X161813856Y-64509221D01*
X161815000Y-64532500D01*
X161815000Y-65007500D01*
X161813856Y-65030779D01*
X161810437Y-65053834D01*
X161804773Y-65076443D01*
X161796921Y-65098387D01*
X161786956Y-65119457D01*
X161774974Y-65139448D01*
X161761090Y-65158168D01*
X161745438Y-65175438D01*
X161728168Y-65191090D01*
X161709448Y-65204974D01*
X161689457Y-65216956D01*
X161668387Y-65226921D01*
X161646443Y-65234773D01*
X161623834Y-65240437D01*
X161600779Y-65243856D01*
X161577500Y-65245000D01*
X161002500Y-65245000D01*
X160979221Y-65243856D01*
X160956166Y-65240437D01*
X160933557Y-65234773D01*
X160911613Y-65226921D01*
X160890543Y-65216956D01*
X160870552Y-65204974D01*
X160851832Y-65191090D01*
X160834562Y-65175438D01*
X160818910Y-65158168D01*
X160805026Y-65139448D01*
X160793044Y-65119457D01*
X160783079Y-65098387D01*
X160775227Y-65076443D01*
X160769563Y-65053834D01*
X160766144Y-65030779D01*
X160765000Y-65007500D01*
X160765000Y-64532500D01*
X160766144Y-64509221D01*
X160769563Y-64486166D01*
X160775227Y-64463557D01*
X160783079Y-64441613D01*
X160793044Y-64420543D01*
X160805026Y-64400552D01*
X160818910Y-64381832D01*
X160834562Y-64364562D01*
X160851832Y-64348910D01*
X160870552Y-64335026D01*
X160890543Y-64323044D01*
X160911613Y-64313079D01*
X160933557Y-64305227D01*
X160956166Y-64299563D01*
X160979221Y-64296144D01*
X161002500Y-64295000D01*
X161577500Y-64295000D01*
X161600779Y-64296144D01*
X161600779Y-64296144D01*
G37*
D17*
X161290000Y-64770000D03*
D16*
G36*
X163350779Y-64296144D02*
X163373834Y-64299563D01*
X163396443Y-64305227D01*
X163418387Y-64313079D01*
X163439457Y-64323044D01*
X163459448Y-64335026D01*
X163478168Y-64348910D01*
X163495438Y-64364562D01*
X163511090Y-64381832D01*
X163524974Y-64400552D01*
X163536956Y-64420543D01*
X163546921Y-64441613D01*
X163554773Y-64463557D01*
X163560437Y-64486166D01*
X163563856Y-64509221D01*
X163565000Y-64532500D01*
X163565000Y-65007500D01*
X163563856Y-65030779D01*
X163560437Y-65053834D01*
X163554773Y-65076443D01*
X163546921Y-65098387D01*
X163536956Y-65119457D01*
X163524974Y-65139448D01*
X163511090Y-65158168D01*
X163495438Y-65175438D01*
X163478168Y-65191090D01*
X163459448Y-65204974D01*
X163439457Y-65216956D01*
X163418387Y-65226921D01*
X163396443Y-65234773D01*
X163373834Y-65240437D01*
X163350779Y-65243856D01*
X163327500Y-65245000D01*
X162752500Y-65245000D01*
X162729221Y-65243856D01*
X162706166Y-65240437D01*
X162683557Y-65234773D01*
X162661613Y-65226921D01*
X162640543Y-65216956D01*
X162620552Y-65204974D01*
X162601832Y-65191090D01*
X162584562Y-65175438D01*
X162568910Y-65158168D01*
X162555026Y-65139448D01*
X162543044Y-65119457D01*
X162533079Y-65098387D01*
X162525227Y-65076443D01*
X162519563Y-65053834D01*
X162516144Y-65030779D01*
X162515000Y-65007500D01*
X162515000Y-64532500D01*
X162516144Y-64509221D01*
X162519563Y-64486166D01*
X162525227Y-64463557D01*
X162533079Y-64441613D01*
X162543044Y-64420543D01*
X162555026Y-64400552D01*
X162568910Y-64381832D01*
X162584562Y-64364562D01*
X162601832Y-64348910D01*
X162620552Y-64335026D01*
X162640543Y-64323044D01*
X162661613Y-64313079D01*
X162683557Y-64305227D01*
X162706166Y-64299563D01*
X162729221Y-64296144D01*
X162752500Y-64295000D01*
X163327500Y-64295000D01*
X163350779Y-64296144D01*
X163350779Y-64296144D01*
G37*
D17*
X163040000Y-64770000D03*
G04 #@! TD*
D16*
G04 #@! TO.C,D6*
G36*
X117785779Y-104936144D02*
X117808834Y-104939563D01*
X117831443Y-104945227D01*
X117853387Y-104953079D01*
X117874457Y-104963044D01*
X117894448Y-104975026D01*
X117913168Y-104988910D01*
X117930438Y-105004562D01*
X117946090Y-105021832D01*
X117959974Y-105040552D01*
X117971956Y-105060543D01*
X117981921Y-105081613D01*
X117989773Y-105103557D01*
X117995437Y-105126166D01*
X117998856Y-105149221D01*
X118000000Y-105172500D01*
X118000000Y-105647500D01*
X117998856Y-105670779D01*
X117995437Y-105693834D01*
X117989773Y-105716443D01*
X117981921Y-105738387D01*
X117971956Y-105759457D01*
X117959974Y-105779448D01*
X117946090Y-105798168D01*
X117930438Y-105815438D01*
X117913168Y-105831090D01*
X117894448Y-105844974D01*
X117874457Y-105856956D01*
X117853387Y-105866921D01*
X117831443Y-105874773D01*
X117808834Y-105880437D01*
X117785779Y-105883856D01*
X117762500Y-105885000D01*
X117187500Y-105885000D01*
X117164221Y-105883856D01*
X117141166Y-105880437D01*
X117118557Y-105874773D01*
X117096613Y-105866921D01*
X117075543Y-105856956D01*
X117055552Y-105844974D01*
X117036832Y-105831090D01*
X117019562Y-105815438D01*
X117003910Y-105798168D01*
X116990026Y-105779448D01*
X116978044Y-105759457D01*
X116968079Y-105738387D01*
X116960227Y-105716443D01*
X116954563Y-105693834D01*
X116951144Y-105670779D01*
X116950000Y-105647500D01*
X116950000Y-105172500D01*
X116951144Y-105149221D01*
X116954563Y-105126166D01*
X116960227Y-105103557D01*
X116968079Y-105081613D01*
X116978044Y-105060543D01*
X116990026Y-105040552D01*
X117003910Y-105021832D01*
X117019562Y-105004562D01*
X117036832Y-104988910D01*
X117055552Y-104975026D01*
X117075543Y-104963044D01*
X117096613Y-104953079D01*
X117118557Y-104945227D01*
X117141166Y-104939563D01*
X117164221Y-104936144D01*
X117187500Y-104935000D01*
X117762500Y-104935000D01*
X117785779Y-104936144D01*
X117785779Y-104936144D01*
G37*
D17*
X117475000Y-105410000D03*
D16*
G36*
X116035779Y-104936144D02*
X116058834Y-104939563D01*
X116081443Y-104945227D01*
X116103387Y-104953079D01*
X116124457Y-104963044D01*
X116144448Y-104975026D01*
X116163168Y-104988910D01*
X116180438Y-105004562D01*
X116196090Y-105021832D01*
X116209974Y-105040552D01*
X116221956Y-105060543D01*
X116231921Y-105081613D01*
X116239773Y-105103557D01*
X116245437Y-105126166D01*
X116248856Y-105149221D01*
X116250000Y-105172500D01*
X116250000Y-105647500D01*
X116248856Y-105670779D01*
X116245437Y-105693834D01*
X116239773Y-105716443D01*
X116231921Y-105738387D01*
X116221956Y-105759457D01*
X116209974Y-105779448D01*
X116196090Y-105798168D01*
X116180438Y-105815438D01*
X116163168Y-105831090D01*
X116144448Y-105844974D01*
X116124457Y-105856956D01*
X116103387Y-105866921D01*
X116081443Y-105874773D01*
X116058834Y-105880437D01*
X116035779Y-105883856D01*
X116012500Y-105885000D01*
X115437500Y-105885000D01*
X115414221Y-105883856D01*
X115391166Y-105880437D01*
X115368557Y-105874773D01*
X115346613Y-105866921D01*
X115325543Y-105856956D01*
X115305552Y-105844974D01*
X115286832Y-105831090D01*
X115269562Y-105815438D01*
X115253910Y-105798168D01*
X115240026Y-105779448D01*
X115228044Y-105759457D01*
X115218079Y-105738387D01*
X115210227Y-105716443D01*
X115204563Y-105693834D01*
X115201144Y-105670779D01*
X115200000Y-105647500D01*
X115200000Y-105172500D01*
X115201144Y-105149221D01*
X115204563Y-105126166D01*
X115210227Y-105103557D01*
X115218079Y-105081613D01*
X115228044Y-105060543D01*
X115240026Y-105040552D01*
X115253910Y-105021832D01*
X115269562Y-105004562D01*
X115286832Y-104988910D01*
X115305552Y-104975026D01*
X115325543Y-104963044D01*
X115346613Y-104953079D01*
X115368557Y-104945227D01*
X115391166Y-104939563D01*
X115414221Y-104936144D01*
X115437500Y-104935000D01*
X116012500Y-104935000D01*
X116035779Y-104936144D01*
X116035779Y-104936144D01*
G37*
D17*
X115725000Y-105410000D03*
G04 #@! TD*
D16*
G04 #@! TO.C,D7*
G36*
X74365779Y-104936144D02*
X74388834Y-104939563D01*
X74411443Y-104945227D01*
X74433387Y-104953079D01*
X74454457Y-104963044D01*
X74474448Y-104975026D01*
X74493168Y-104988910D01*
X74510438Y-105004562D01*
X74526090Y-105021832D01*
X74539974Y-105040552D01*
X74551956Y-105060543D01*
X74561921Y-105081613D01*
X74569773Y-105103557D01*
X74575437Y-105126166D01*
X74578856Y-105149221D01*
X74580000Y-105172500D01*
X74580000Y-105647500D01*
X74578856Y-105670779D01*
X74575437Y-105693834D01*
X74569773Y-105716443D01*
X74561921Y-105738387D01*
X74551956Y-105759457D01*
X74539974Y-105779448D01*
X74526090Y-105798168D01*
X74510438Y-105815438D01*
X74493168Y-105831090D01*
X74474448Y-105844974D01*
X74454457Y-105856956D01*
X74433387Y-105866921D01*
X74411443Y-105874773D01*
X74388834Y-105880437D01*
X74365779Y-105883856D01*
X74342500Y-105885000D01*
X73767500Y-105885000D01*
X73744221Y-105883856D01*
X73721166Y-105880437D01*
X73698557Y-105874773D01*
X73676613Y-105866921D01*
X73655543Y-105856956D01*
X73635552Y-105844974D01*
X73616832Y-105831090D01*
X73599562Y-105815438D01*
X73583910Y-105798168D01*
X73570026Y-105779448D01*
X73558044Y-105759457D01*
X73548079Y-105738387D01*
X73540227Y-105716443D01*
X73534563Y-105693834D01*
X73531144Y-105670779D01*
X73530000Y-105647500D01*
X73530000Y-105172500D01*
X73531144Y-105149221D01*
X73534563Y-105126166D01*
X73540227Y-105103557D01*
X73548079Y-105081613D01*
X73558044Y-105060543D01*
X73570026Y-105040552D01*
X73583910Y-105021832D01*
X73599562Y-105004562D01*
X73616832Y-104988910D01*
X73635552Y-104975026D01*
X73655543Y-104963044D01*
X73676613Y-104953079D01*
X73698557Y-104945227D01*
X73721166Y-104939563D01*
X73744221Y-104936144D01*
X73767500Y-104935000D01*
X74342500Y-104935000D01*
X74365779Y-104936144D01*
X74365779Y-104936144D01*
G37*
D17*
X74055000Y-105410000D03*
D16*
G36*
X76115779Y-104936144D02*
X76138834Y-104939563D01*
X76161443Y-104945227D01*
X76183387Y-104953079D01*
X76204457Y-104963044D01*
X76224448Y-104975026D01*
X76243168Y-104988910D01*
X76260438Y-105004562D01*
X76276090Y-105021832D01*
X76289974Y-105040552D01*
X76301956Y-105060543D01*
X76311921Y-105081613D01*
X76319773Y-105103557D01*
X76325437Y-105126166D01*
X76328856Y-105149221D01*
X76330000Y-105172500D01*
X76330000Y-105647500D01*
X76328856Y-105670779D01*
X76325437Y-105693834D01*
X76319773Y-105716443D01*
X76311921Y-105738387D01*
X76301956Y-105759457D01*
X76289974Y-105779448D01*
X76276090Y-105798168D01*
X76260438Y-105815438D01*
X76243168Y-105831090D01*
X76224448Y-105844974D01*
X76204457Y-105856956D01*
X76183387Y-105866921D01*
X76161443Y-105874773D01*
X76138834Y-105880437D01*
X76115779Y-105883856D01*
X76092500Y-105885000D01*
X75517500Y-105885000D01*
X75494221Y-105883856D01*
X75471166Y-105880437D01*
X75448557Y-105874773D01*
X75426613Y-105866921D01*
X75405543Y-105856956D01*
X75385552Y-105844974D01*
X75366832Y-105831090D01*
X75349562Y-105815438D01*
X75333910Y-105798168D01*
X75320026Y-105779448D01*
X75308044Y-105759457D01*
X75298079Y-105738387D01*
X75290227Y-105716443D01*
X75284563Y-105693834D01*
X75281144Y-105670779D01*
X75280000Y-105647500D01*
X75280000Y-105172500D01*
X75281144Y-105149221D01*
X75284563Y-105126166D01*
X75290227Y-105103557D01*
X75298079Y-105081613D01*
X75308044Y-105060543D01*
X75320026Y-105040552D01*
X75333910Y-105021832D01*
X75349562Y-105004562D01*
X75366832Y-104988910D01*
X75385552Y-104975026D01*
X75405543Y-104963044D01*
X75426613Y-104953079D01*
X75448557Y-104945227D01*
X75471166Y-104939563D01*
X75494221Y-104936144D01*
X75517500Y-104935000D01*
X76092500Y-104935000D01*
X76115779Y-104936144D01*
X76115779Y-104936144D01*
G37*
D17*
X75805000Y-105410000D03*
G04 #@! TD*
D16*
G04 #@! TO.C,D8*
G36*
X137907553Y-104750386D02*
X137930608Y-104753805D01*
X137953217Y-104759469D01*
X137975161Y-104767321D01*
X137996231Y-104777286D01*
X138016222Y-104789268D01*
X138034942Y-104803152D01*
X138052212Y-104818804D01*
X138067864Y-104836074D01*
X138081748Y-104854794D01*
X138093730Y-104874785D01*
X138103695Y-104895855D01*
X138111547Y-104917799D01*
X138117211Y-104940408D01*
X138120630Y-104963463D01*
X138121774Y-104986742D01*
X138121774Y-105461742D01*
X138120630Y-105485021D01*
X138117211Y-105508076D01*
X138111547Y-105530685D01*
X138103695Y-105552629D01*
X138093730Y-105573699D01*
X138081748Y-105593690D01*
X138067864Y-105612410D01*
X138052212Y-105629680D01*
X138034942Y-105645332D01*
X138016222Y-105659216D01*
X137996231Y-105671198D01*
X137975161Y-105681163D01*
X137953217Y-105689015D01*
X137930608Y-105694679D01*
X137907553Y-105698098D01*
X137884274Y-105699242D01*
X137309274Y-105699242D01*
X137285995Y-105698098D01*
X137262940Y-105694679D01*
X137240331Y-105689015D01*
X137218387Y-105681163D01*
X137197317Y-105671198D01*
X137177326Y-105659216D01*
X137158606Y-105645332D01*
X137141336Y-105629680D01*
X137125684Y-105612410D01*
X137111800Y-105593690D01*
X137099818Y-105573699D01*
X137089853Y-105552629D01*
X137082001Y-105530685D01*
X137076337Y-105508076D01*
X137072918Y-105485021D01*
X137071774Y-105461742D01*
X137071774Y-104986742D01*
X137072918Y-104963463D01*
X137076337Y-104940408D01*
X137082001Y-104917799D01*
X137089853Y-104895855D01*
X137099818Y-104874785D01*
X137111800Y-104854794D01*
X137125684Y-104836074D01*
X137141336Y-104818804D01*
X137158606Y-104803152D01*
X137177326Y-104789268D01*
X137197317Y-104777286D01*
X137218387Y-104767321D01*
X137240331Y-104759469D01*
X137262940Y-104753805D01*
X137285995Y-104750386D01*
X137309274Y-104749242D01*
X137884274Y-104749242D01*
X137907553Y-104750386D01*
X137907553Y-104750386D01*
G37*
D17*
X137596774Y-105224242D03*
D16*
G36*
X136157553Y-104750386D02*
X136180608Y-104753805D01*
X136203217Y-104759469D01*
X136225161Y-104767321D01*
X136246231Y-104777286D01*
X136266222Y-104789268D01*
X136284942Y-104803152D01*
X136302212Y-104818804D01*
X136317864Y-104836074D01*
X136331748Y-104854794D01*
X136343730Y-104874785D01*
X136353695Y-104895855D01*
X136361547Y-104917799D01*
X136367211Y-104940408D01*
X136370630Y-104963463D01*
X136371774Y-104986742D01*
X136371774Y-105461742D01*
X136370630Y-105485021D01*
X136367211Y-105508076D01*
X136361547Y-105530685D01*
X136353695Y-105552629D01*
X136343730Y-105573699D01*
X136331748Y-105593690D01*
X136317864Y-105612410D01*
X136302212Y-105629680D01*
X136284942Y-105645332D01*
X136266222Y-105659216D01*
X136246231Y-105671198D01*
X136225161Y-105681163D01*
X136203217Y-105689015D01*
X136180608Y-105694679D01*
X136157553Y-105698098D01*
X136134274Y-105699242D01*
X135559274Y-105699242D01*
X135535995Y-105698098D01*
X135512940Y-105694679D01*
X135490331Y-105689015D01*
X135468387Y-105681163D01*
X135447317Y-105671198D01*
X135427326Y-105659216D01*
X135408606Y-105645332D01*
X135391336Y-105629680D01*
X135375684Y-105612410D01*
X135361800Y-105593690D01*
X135349818Y-105573699D01*
X135339853Y-105552629D01*
X135332001Y-105530685D01*
X135326337Y-105508076D01*
X135322918Y-105485021D01*
X135321774Y-105461742D01*
X135321774Y-104986742D01*
X135322918Y-104963463D01*
X135326337Y-104940408D01*
X135332001Y-104917799D01*
X135339853Y-104895855D01*
X135349818Y-104874785D01*
X135361800Y-104854794D01*
X135375684Y-104836074D01*
X135391336Y-104818804D01*
X135408606Y-104803152D01*
X135427326Y-104789268D01*
X135447317Y-104777286D01*
X135468387Y-104767321D01*
X135490331Y-104759469D01*
X135512940Y-104753805D01*
X135535995Y-104750386D01*
X135559274Y-104749242D01*
X136134274Y-104749242D01*
X136157553Y-104750386D01*
X136157553Y-104750386D01*
G37*
D17*
X135846774Y-105224242D03*
G04 #@! TD*
D16*
G04 #@! TO.C,D9*
G36*
X183345779Y-139861144D02*
X183368834Y-139864563D01*
X183391443Y-139870227D01*
X183413387Y-139878079D01*
X183434457Y-139888044D01*
X183454448Y-139900026D01*
X183473168Y-139913910D01*
X183490438Y-139929562D01*
X183506090Y-139946832D01*
X183519974Y-139965552D01*
X183531956Y-139985543D01*
X183541921Y-140006613D01*
X183549773Y-140028557D01*
X183555437Y-140051166D01*
X183558856Y-140074221D01*
X183560000Y-140097500D01*
X183560000Y-140572500D01*
X183558856Y-140595779D01*
X183555437Y-140618834D01*
X183549773Y-140641443D01*
X183541921Y-140663387D01*
X183531956Y-140684457D01*
X183519974Y-140704448D01*
X183506090Y-140723168D01*
X183490438Y-140740438D01*
X183473168Y-140756090D01*
X183454448Y-140769974D01*
X183434457Y-140781956D01*
X183413387Y-140791921D01*
X183391443Y-140799773D01*
X183368834Y-140805437D01*
X183345779Y-140808856D01*
X183322500Y-140810000D01*
X182747500Y-140810000D01*
X182724221Y-140808856D01*
X182701166Y-140805437D01*
X182678557Y-140799773D01*
X182656613Y-140791921D01*
X182635543Y-140781956D01*
X182615552Y-140769974D01*
X182596832Y-140756090D01*
X182579562Y-140740438D01*
X182563910Y-140723168D01*
X182550026Y-140704448D01*
X182538044Y-140684457D01*
X182528079Y-140663387D01*
X182520227Y-140641443D01*
X182514563Y-140618834D01*
X182511144Y-140595779D01*
X182510000Y-140572500D01*
X182510000Y-140097500D01*
X182511144Y-140074221D01*
X182514563Y-140051166D01*
X182520227Y-140028557D01*
X182528079Y-140006613D01*
X182538044Y-139985543D01*
X182550026Y-139965552D01*
X182563910Y-139946832D01*
X182579562Y-139929562D01*
X182596832Y-139913910D01*
X182615552Y-139900026D01*
X182635543Y-139888044D01*
X182656613Y-139878079D01*
X182678557Y-139870227D01*
X182701166Y-139864563D01*
X182724221Y-139861144D01*
X182747500Y-139860000D01*
X183322500Y-139860000D01*
X183345779Y-139861144D01*
X183345779Y-139861144D01*
G37*
D17*
X183035000Y-140335000D03*
D16*
G36*
X185095779Y-139861144D02*
X185118834Y-139864563D01*
X185141443Y-139870227D01*
X185163387Y-139878079D01*
X185184457Y-139888044D01*
X185204448Y-139900026D01*
X185223168Y-139913910D01*
X185240438Y-139929562D01*
X185256090Y-139946832D01*
X185269974Y-139965552D01*
X185281956Y-139985543D01*
X185291921Y-140006613D01*
X185299773Y-140028557D01*
X185305437Y-140051166D01*
X185308856Y-140074221D01*
X185310000Y-140097500D01*
X185310000Y-140572500D01*
X185308856Y-140595779D01*
X185305437Y-140618834D01*
X185299773Y-140641443D01*
X185291921Y-140663387D01*
X185281956Y-140684457D01*
X185269974Y-140704448D01*
X185256090Y-140723168D01*
X185240438Y-140740438D01*
X185223168Y-140756090D01*
X185204448Y-140769974D01*
X185184457Y-140781956D01*
X185163387Y-140791921D01*
X185141443Y-140799773D01*
X185118834Y-140805437D01*
X185095779Y-140808856D01*
X185072500Y-140810000D01*
X184497500Y-140810000D01*
X184474221Y-140808856D01*
X184451166Y-140805437D01*
X184428557Y-140799773D01*
X184406613Y-140791921D01*
X184385543Y-140781956D01*
X184365552Y-140769974D01*
X184346832Y-140756090D01*
X184329562Y-140740438D01*
X184313910Y-140723168D01*
X184300026Y-140704448D01*
X184288044Y-140684457D01*
X184278079Y-140663387D01*
X184270227Y-140641443D01*
X184264563Y-140618834D01*
X184261144Y-140595779D01*
X184260000Y-140572500D01*
X184260000Y-140097500D01*
X184261144Y-140074221D01*
X184264563Y-140051166D01*
X184270227Y-140028557D01*
X184278079Y-140006613D01*
X184288044Y-139985543D01*
X184300026Y-139965552D01*
X184313910Y-139946832D01*
X184329562Y-139929562D01*
X184346832Y-139913910D01*
X184365552Y-139900026D01*
X184385543Y-139888044D01*
X184406613Y-139878079D01*
X184428557Y-139870227D01*
X184451166Y-139864563D01*
X184474221Y-139861144D01*
X184497500Y-139860000D01*
X185072500Y-139860000D01*
X185095779Y-139861144D01*
X185095779Y-139861144D01*
G37*
D17*
X184785000Y-140335000D03*
G04 #@! TD*
D16*
G04 #@! TO.C,D10*
G36*
X53650779Y-104936144D02*
X53673834Y-104939563D01*
X53696443Y-104945227D01*
X53718387Y-104953079D01*
X53739457Y-104963044D01*
X53759448Y-104975026D01*
X53778168Y-104988910D01*
X53795438Y-105004562D01*
X53811090Y-105021832D01*
X53824974Y-105040552D01*
X53836956Y-105060543D01*
X53846921Y-105081613D01*
X53854773Y-105103557D01*
X53860437Y-105126166D01*
X53863856Y-105149221D01*
X53865000Y-105172500D01*
X53865000Y-105647500D01*
X53863856Y-105670779D01*
X53860437Y-105693834D01*
X53854773Y-105716443D01*
X53846921Y-105738387D01*
X53836956Y-105759457D01*
X53824974Y-105779448D01*
X53811090Y-105798168D01*
X53795438Y-105815438D01*
X53778168Y-105831090D01*
X53759448Y-105844974D01*
X53739457Y-105856956D01*
X53718387Y-105866921D01*
X53696443Y-105874773D01*
X53673834Y-105880437D01*
X53650779Y-105883856D01*
X53627500Y-105885000D01*
X53052500Y-105885000D01*
X53029221Y-105883856D01*
X53006166Y-105880437D01*
X52983557Y-105874773D01*
X52961613Y-105866921D01*
X52940543Y-105856956D01*
X52920552Y-105844974D01*
X52901832Y-105831090D01*
X52884562Y-105815438D01*
X52868910Y-105798168D01*
X52855026Y-105779448D01*
X52843044Y-105759457D01*
X52833079Y-105738387D01*
X52825227Y-105716443D01*
X52819563Y-105693834D01*
X52816144Y-105670779D01*
X52815000Y-105647500D01*
X52815000Y-105172500D01*
X52816144Y-105149221D01*
X52819563Y-105126166D01*
X52825227Y-105103557D01*
X52833079Y-105081613D01*
X52843044Y-105060543D01*
X52855026Y-105040552D01*
X52868910Y-105021832D01*
X52884562Y-105004562D01*
X52901832Y-104988910D01*
X52920552Y-104975026D01*
X52940543Y-104963044D01*
X52961613Y-104953079D01*
X52983557Y-104945227D01*
X53006166Y-104939563D01*
X53029221Y-104936144D01*
X53052500Y-104935000D01*
X53627500Y-104935000D01*
X53650779Y-104936144D01*
X53650779Y-104936144D01*
G37*
D17*
X53340000Y-105410000D03*
D16*
G36*
X55400779Y-104936144D02*
X55423834Y-104939563D01*
X55446443Y-104945227D01*
X55468387Y-104953079D01*
X55489457Y-104963044D01*
X55509448Y-104975026D01*
X55528168Y-104988910D01*
X55545438Y-105004562D01*
X55561090Y-105021832D01*
X55574974Y-105040552D01*
X55586956Y-105060543D01*
X55596921Y-105081613D01*
X55604773Y-105103557D01*
X55610437Y-105126166D01*
X55613856Y-105149221D01*
X55615000Y-105172500D01*
X55615000Y-105647500D01*
X55613856Y-105670779D01*
X55610437Y-105693834D01*
X55604773Y-105716443D01*
X55596921Y-105738387D01*
X55586956Y-105759457D01*
X55574974Y-105779448D01*
X55561090Y-105798168D01*
X55545438Y-105815438D01*
X55528168Y-105831090D01*
X55509448Y-105844974D01*
X55489457Y-105856956D01*
X55468387Y-105866921D01*
X55446443Y-105874773D01*
X55423834Y-105880437D01*
X55400779Y-105883856D01*
X55377500Y-105885000D01*
X54802500Y-105885000D01*
X54779221Y-105883856D01*
X54756166Y-105880437D01*
X54733557Y-105874773D01*
X54711613Y-105866921D01*
X54690543Y-105856956D01*
X54670552Y-105844974D01*
X54651832Y-105831090D01*
X54634562Y-105815438D01*
X54618910Y-105798168D01*
X54605026Y-105779448D01*
X54593044Y-105759457D01*
X54583079Y-105738387D01*
X54575227Y-105716443D01*
X54569563Y-105693834D01*
X54566144Y-105670779D01*
X54565000Y-105647500D01*
X54565000Y-105172500D01*
X54566144Y-105149221D01*
X54569563Y-105126166D01*
X54575227Y-105103557D01*
X54583079Y-105081613D01*
X54593044Y-105060543D01*
X54605026Y-105040552D01*
X54618910Y-105021832D01*
X54634562Y-105004562D01*
X54651832Y-104988910D01*
X54670552Y-104975026D01*
X54690543Y-104963044D01*
X54711613Y-104953079D01*
X54733557Y-104945227D01*
X54756166Y-104939563D01*
X54779221Y-104936144D01*
X54802500Y-104935000D01*
X55377500Y-104935000D01*
X55400779Y-104936144D01*
X55400779Y-104936144D01*
G37*
D17*
X55090000Y-105410000D03*
G04 #@! TD*
D16*
G04 #@! TO.C,R35*
G36*
X185885779Y-107476144D02*
X185908834Y-107479563D01*
X185931443Y-107485227D01*
X185953387Y-107493079D01*
X185974457Y-107503044D01*
X185994448Y-107515026D01*
X186013168Y-107528910D01*
X186030438Y-107544562D01*
X186046090Y-107561832D01*
X186059974Y-107580552D01*
X186071956Y-107600543D01*
X186081921Y-107621613D01*
X186089773Y-107643557D01*
X186095437Y-107666166D01*
X186098856Y-107689221D01*
X186100000Y-107712500D01*
X186100000Y-108187500D01*
X186098856Y-108210779D01*
X186095437Y-108233834D01*
X186089773Y-108256443D01*
X186081921Y-108278387D01*
X186071956Y-108299457D01*
X186059974Y-108319448D01*
X186046090Y-108338168D01*
X186030438Y-108355438D01*
X186013168Y-108371090D01*
X185994448Y-108384974D01*
X185974457Y-108396956D01*
X185953387Y-108406921D01*
X185931443Y-108414773D01*
X185908834Y-108420437D01*
X185885779Y-108423856D01*
X185862500Y-108425000D01*
X185287500Y-108425000D01*
X185264221Y-108423856D01*
X185241166Y-108420437D01*
X185218557Y-108414773D01*
X185196613Y-108406921D01*
X185175543Y-108396956D01*
X185155552Y-108384974D01*
X185136832Y-108371090D01*
X185119562Y-108355438D01*
X185103910Y-108338168D01*
X185090026Y-108319448D01*
X185078044Y-108299457D01*
X185068079Y-108278387D01*
X185060227Y-108256443D01*
X185054563Y-108233834D01*
X185051144Y-108210779D01*
X185050000Y-108187500D01*
X185050000Y-107712500D01*
X185051144Y-107689221D01*
X185054563Y-107666166D01*
X185060227Y-107643557D01*
X185068079Y-107621613D01*
X185078044Y-107600543D01*
X185090026Y-107580552D01*
X185103910Y-107561832D01*
X185119562Y-107544562D01*
X185136832Y-107528910D01*
X185155552Y-107515026D01*
X185175543Y-107503044D01*
X185196613Y-107493079D01*
X185218557Y-107485227D01*
X185241166Y-107479563D01*
X185264221Y-107476144D01*
X185287500Y-107475000D01*
X185862500Y-107475000D01*
X185885779Y-107476144D01*
X185885779Y-107476144D01*
G37*
D17*
X185575000Y-107950000D03*
D16*
G36*
X187635779Y-107476144D02*
X187658834Y-107479563D01*
X187681443Y-107485227D01*
X187703387Y-107493079D01*
X187724457Y-107503044D01*
X187744448Y-107515026D01*
X187763168Y-107528910D01*
X187780438Y-107544562D01*
X187796090Y-107561832D01*
X187809974Y-107580552D01*
X187821956Y-107600543D01*
X187831921Y-107621613D01*
X187839773Y-107643557D01*
X187845437Y-107666166D01*
X187848856Y-107689221D01*
X187850000Y-107712500D01*
X187850000Y-108187500D01*
X187848856Y-108210779D01*
X187845437Y-108233834D01*
X187839773Y-108256443D01*
X187831921Y-108278387D01*
X187821956Y-108299457D01*
X187809974Y-108319448D01*
X187796090Y-108338168D01*
X187780438Y-108355438D01*
X187763168Y-108371090D01*
X187744448Y-108384974D01*
X187724457Y-108396956D01*
X187703387Y-108406921D01*
X187681443Y-108414773D01*
X187658834Y-108420437D01*
X187635779Y-108423856D01*
X187612500Y-108425000D01*
X187037500Y-108425000D01*
X187014221Y-108423856D01*
X186991166Y-108420437D01*
X186968557Y-108414773D01*
X186946613Y-108406921D01*
X186925543Y-108396956D01*
X186905552Y-108384974D01*
X186886832Y-108371090D01*
X186869562Y-108355438D01*
X186853910Y-108338168D01*
X186840026Y-108319448D01*
X186828044Y-108299457D01*
X186818079Y-108278387D01*
X186810227Y-108256443D01*
X186804563Y-108233834D01*
X186801144Y-108210779D01*
X186800000Y-108187500D01*
X186800000Y-107712500D01*
X186801144Y-107689221D01*
X186804563Y-107666166D01*
X186810227Y-107643557D01*
X186818079Y-107621613D01*
X186828044Y-107600543D01*
X186840026Y-107580552D01*
X186853910Y-107561832D01*
X186869562Y-107544562D01*
X186886832Y-107528910D01*
X186905552Y-107515026D01*
X186925543Y-107503044D01*
X186946613Y-107493079D01*
X186968557Y-107485227D01*
X186991166Y-107479563D01*
X187014221Y-107476144D01*
X187037500Y-107475000D01*
X187612500Y-107475000D01*
X187635779Y-107476144D01*
X187635779Y-107476144D01*
G37*
D17*
X187325000Y-107950000D03*
G04 #@! TD*
D16*
G04 #@! TO.C,R36*
G36*
X93655779Y-104936144D02*
X93678834Y-104939563D01*
X93701443Y-104945227D01*
X93723387Y-104953079D01*
X93744457Y-104963044D01*
X93764448Y-104975026D01*
X93783168Y-104988910D01*
X93800438Y-105004562D01*
X93816090Y-105021832D01*
X93829974Y-105040552D01*
X93841956Y-105060543D01*
X93851921Y-105081613D01*
X93859773Y-105103557D01*
X93865437Y-105126166D01*
X93868856Y-105149221D01*
X93870000Y-105172500D01*
X93870000Y-105647500D01*
X93868856Y-105670779D01*
X93865437Y-105693834D01*
X93859773Y-105716443D01*
X93851921Y-105738387D01*
X93841956Y-105759457D01*
X93829974Y-105779448D01*
X93816090Y-105798168D01*
X93800438Y-105815438D01*
X93783168Y-105831090D01*
X93764448Y-105844974D01*
X93744457Y-105856956D01*
X93723387Y-105866921D01*
X93701443Y-105874773D01*
X93678834Y-105880437D01*
X93655779Y-105883856D01*
X93632500Y-105885000D01*
X93057500Y-105885000D01*
X93034221Y-105883856D01*
X93011166Y-105880437D01*
X92988557Y-105874773D01*
X92966613Y-105866921D01*
X92945543Y-105856956D01*
X92925552Y-105844974D01*
X92906832Y-105831090D01*
X92889562Y-105815438D01*
X92873910Y-105798168D01*
X92860026Y-105779448D01*
X92848044Y-105759457D01*
X92838079Y-105738387D01*
X92830227Y-105716443D01*
X92824563Y-105693834D01*
X92821144Y-105670779D01*
X92820000Y-105647500D01*
X92820000Y-105172500D01*
X92821144Y-105149221D01*
X92824563Y-105126166D01*
X92830227Y-105103557D01*
X92838079Y-105081613D01*
X92848044Y-105060543D01*
X92860026Y-105040552D01*
X92873910Y-105021832D01*
X92889562Y-105004562D01*
X92906832Y-104988910D01*
X92925552Y-104975026D01*
X92945543Y-104963044D01*
X92966613Y-104953079D01*
X92988557Y-104945227D01*
X93011166Y-104939563D01*
X93034221Y-104936144D01*
X93057500Y-104935000D01*
X93632500Y-104935000D01*
X93655779Y-104936144D01*
X93655779Y-104936144D01*
G37*
D17*
X93345000Y-105410000D03*
D16*
G36*
X91905779Y-104936144D02*
X91928834Y-104939563D01*
X91951443Y-104945227D01*
X91973387Y-104953079D01*
X91994457Y-104963044D01*
X92014448Y-104975026D01*
X92033168Y-104988910D01*
X92050438Y-105004562D01*
X92066090Y-105021832D01*
X92079974Y-105040552D01*
X92091956Y-105060543D01*
X92101921Y-105081613D01*
X92109773Y-105103557D01*
X92115437Y-105126166D01*
X92118856Y-105149221D01*
X92120000Y-105172500D01*
X92120000Y-105647500D01*
X92118856Y-105670779D01*
X92115437Y-105693834D01*
X92109773Y-105716443D01*
X92101921Y-105738387D01*
X92091956Y-105759457D01*
X92079974Y-105779448D01*
X92066090Y-105798168D01*
X92050438Y-105815438D01*
X92033168Y-105831090D01*
X92014448Y-105844974D01*
X91994457Y-105856956D01*
X91973387Y-105866921D01*
X91951443Y-105874773D01*
X91928834Y-105880437D01*
X91905779Y-105883856D01*
X91882500Y-105885000D01*
X91307500Y-105885000D01*
X91284221Y-105883856D01*
X91261166Y-105880437D01*
X91238557Y-105874773D01*
X91216613Y-105866921D01*
X91195543Y-105856956D01*
X91175552Y-105844974D01*
X91156832Y-105831090D01*
X91139562Y-105815438D01*
X91123910Y-105798168D01*
X91110026Y-105779448D01*
X91098044Y-105759457D01*
X91088079Y-105738387D01*
X91080227Y-105716443D01*
X91074563Y-105693834D01*
X91071144Y-105670779D01*
X91070000Y-105647500D01*
X91070000Y-105172500D01*
X91071144Y-105149221D01*
X91074563Y-105126166D01*
X91080227Y-105103557D01*
X91088079Y-105081613D01*
X91098044Y-105060543D01*
X91110026Y-105040552D01*
X91123910Y-105021832D01*
X91139562Y-105004562D01*
X91156832Y-104988910D01*
X91175552Y-104975026D01*
X91195543Y-104963044D01*
X91216613Y-104953079D01*
X91238557Y-104945227D01*
X91261166Y-104939563D01*
X91284221Y-104936144D01*
X91307500Y-104935000D01*
X91882500Y-104935000D01*
X91905779Y-104936144D01*
X91905779Y-104936144D01*
G37*
D17*
X91595000Y-105410000D03*
G04 #@! TD*
D16*
G04 #@! TO.C,R37*
G36*
X157945779Y-64296144D02*
X157968834Y-64299563D01*
X157991443Y-64305227D01*
X158013387Y-64313079D01*
X158034457Y-64323044D01*
X158054448Y-64335026D01*
X158073168Y-64348910D01*
X158090438Y-64364562D01*
X158106090Y-64381832D01*
X158119974Y-64400552D01*
X158131956Y-64420543D01*
X158141921Y-64441613D01*
X158149773Y-64463557D01*
X158155437Y-64486166D01*
X158158856Y-64509221D01*
X158160000Y-64532500D01*
X158160000Y-65007500D01*
X158158856Y-65030779D01*
X158155437Y-65053834D01*
X158149773Y-65076443D01*
X158141921Y-65098387D01*
X158131956Y-65119457D01*
X158119974Y-65139448D01*
X158106090Y-65158168D01*
X158090438Y-65175438D01*
X158073168Y-65191090D01*
X158054448Y-65204974D01*
X158034457Y-65216956D01*
X158013387Y-65226921D01*
X157991443Y-65234773D01*
X157968834Y-65240437D01*
X157945779Y-65243856D01*
X157922500Y-65245000D01*
X157347500Y-65245000D01*
X157324221Y-65243856D01*
X157301166Y-65240437D01*
X157278557Y-65234773D01*
X157256613Y-65226921D01*
X157235543Y-65216956D01*
X157215552Y-65204974D01*
X157196832Y-65191090D01*
X157179562Y-65175438D01*
X157163910Y-65158168D01*
X157150026Y-65139448D01*
X157138044Y-65119457D01*
X157128079Y-65098387D01*
X157120227Y-65076443D01*
X157114563Y-65053834D01*
X157111144Y-65030779D01*
X157110000Y-65007500D01*
X157110000Y-64532500D01*
X157111144Y-64509221D01*
X157114563Y-64486166D01*
X157120227Y-64463557D01*
X157128079Y-64441613D01*
X157138044Y-64420543D01*
X157150026Y-64400552D01*
X157163910Y-64381832D01*
X157179562Y-64364562D01*
X157196832Y-64348910D01*
X157215552Y-64335026D01*
X157235543Y-64323044D01*
X157256613Y-64313079D01*
X157278557Y-64305227D01*
X157301166Y-64299563D01*
X157324221Y-64296144D01*
X157347500Y-64295000D01*
X157922500Y-64295000D01*
X157945779Y-64296144D01*
X157945779Y-64296144D01*
G37*
D17*
X157635000Y-64770000D03*
D16*
G36*
X159695779Y-64296144D02*
X159718834Y-64299563D01*
X159741443Y-64305227D01*
X159763387Y-64313079D01*
X159784457Y-64323044D01*
X159804448Y-64335026D01*
X159823168Y-64348910D01*
X159840438Y-64364562D01*
X159856090Y-64381832D01*
X159869974Y-64400552D01*
X159881956Y-64420543D01*
X159891921Y-64441613D01*
X159899773Y-64463557D01*
X159905437Y-64486166D01*
X159908856Y-64509221D01*
X159910000Y-64532500D01*
X159910000Y-65007500D01*
X159908856Y-65030779D01*
X159905437Y-65053834D01*
X159899773Y-65076443D01*
X159891921Y-65098387D01*
X159881956Y-65119457D01*
X159869974Y-65139448D01*
X159856090Y-65158168D01*
X159840438Y-65175438D01*
X159823168Y-65191090D01*
X159804448Y-65204974D01*
X159784457Y-65216956D01*
X159763387Y-65226921D01*
X159741443Y-65234773D01*
X159718834Y-65240437D01*
X159695779Y-65243856D01*
X159672500Y-65245000D01*
X159097500Y-65245000D01*
X159074221Y-65243856D01*
X159051166Y-65240437D01*
X159028557Y-65234773D01*
X159006613Y-65226921D01*
X158985543Y-65216956D01*
X158965552Y-65204974D01*
X158946832Y-65191090D01*
X158929562Y-65175438D01*
X158913910Y-65158168D01*
X158900026Y-65139448D01*
X158888044Y-65119457D01*
X158878079Y-65098387D01*
X158870227Y-65076443D01*
X158864563Y-65053834D01*
X158861144Y-65030779D01*
X158860000Y-65007500D01*
X158860000Y-64532500D01*
X158861144Y-64509221D01*
X158864563Y-64486166D01*
X158870227Y-64463557D01*
X158878079Y-64441613D01*
X158888044Y-64420543D01*
X158900026Y-64400552D01*
X158913910Y-64381832D01*
X158929562Y-64364562D01*
X158946832Y-64348910D01*
X158965552Y-64335026D01*
X158985543Y-64323044D01*
X159006613Y-64313079D01*
X159028557Y-64305227D01*
X159051166Y-64299563D01*
X159074221Y-64296144D01*
X159097500Y-64295000D01*
X159672500Y-64295000D01*
X159695779Y-64296144D01*
X159695779Y-64296144D01*
G37*
D17*
X159385000Y-64770000D03*
G04 #@! TD*
D16*
G04 #@! TO.C,R38*
G36*
X113975779Y-104936144D02*
X113998834Y-104939563D01*
X114021443Y-104945227D01*
X114043387Y-104953079D01*
X114064457Y-104963044D01*
X114084448Y-104975026D01*
X114103168Y-104988910D01*
X114120438Y-105004562D01*
X114136090Y-105021832D01*
X114149974Y-105040552D01*
X114161956Y-105060543D01*
X114171921Y-105081613D01*
X114179773Y-105103557D01*
X114185437Y-105126166D01*
X114188856Y-105149221D01*
X114190000Y-105172500D01*
X114190000Y-105647500D01*
X114188856Y-105670779D01*
X114185437Y-105693834D01*
X114179773Y-105716443D01*
X114171921Y-105738387D01*
X114161956Y-105759457D01*
X114149974Y-105779448D01*
X114136090Y-105798168D01*
X114120438Y-105815438D01*
X114103168Y-105831090D01*
X114084448Y-105844974D01*
X114064457Y-105856956D01*
X114043387Y-105866921D01*
X114021443Y-105874773D01*
X113998834Y-105880437D01*
X113975779Y-105883856D01*
X113952500Y-105885000D01*
X113377500Y-105885000D01*
X113354221Y-105883856D01*
X113331166Y-105880437D01*
X113308557Y-105874773D01*
X113286613Y-105866921D01*
X113265543Y-105856956D01*
X113245552Y-105844974D01*
X113226832Y-105831090D01*
X113209562Y-105815438D01*
X113193910Y-105798168D01*
X113180026Y-105779448D01*
X113168044Y-105759457D01*
X113158079Y-105738387D01*
X113150227Y-105716443D01*
X113144563Y-105693834D01*
X113141144Y-105670779D01*
X113140000Y-105647500D01*
X113140000Y-105172500D01*
X113141144Y-105149221D01*
X113144563Y-105126166D01*
X113150227Y-105103557D01*
X113158079Y-105081613D01*
X113168044Y-105060543D01*
X113180026Y-105040552D01*
X113193910Y-105021832D01*
X113209562Y-105004562D01*
X113226832Y-104988910D01*
X113245552Y-104975026D01*
X113265543Y-104963044D01*
X113286613Y-104953079D01*
X113308557Y-104945227D01*
X113331166Y-104939563D01*
X113354221Y-104936144D01*
X113377500Y-104935000D01*
X113952500Y-104935000D01*
X113975779Y-104936144D01*
X113975779Y-104936144D01*
G37*
D17*
X113665000Y-105410000D03*
D16*
G36*
X112225779Y-104936144D02*
X112248834Y-104939563D01*
X112271443Y-104945227D01*
X112293387Y-104953079D01*
X112314457Y-104963044D01*
X112334448Y-104975026D01*
X112353168Y-104988910D01*
X112370438Y-105004562D01*
X112386090Y-105021832D01*
X112399974Y-105040552D01*
X112411956Y-105060543D01*
X112421921Y-105081613D01*
X112429773Y-105103557D01*
X112435437Y-105126166D01*
X112438856Y-105149221D01*
X112440000Y-105172500D01*
X112440000Y-105647500D01*
X112438856Y-105670779D01*
X112435437Y-105693834D01*
X112429773Y-105716443D01*
X112421921Y-105738387D01*
X112411956Y-105759457D01*
X112399974Y-105779448D01*
X112386090Y-105798168D01*
X112370438Y-105815438D01*
X112353168Y-105831090D01*
X112334448Y-105844974D01*
X112314457Y-105856956D01*
X112293387Y-105866921D01*
X112271443Y-105874773D01*
X112248834Y-105880437D01*
X112225779Y-105883856D01*
X112202500Y-105885000D01*
X111627500Y-105885000D01*
X111604221Y-105883856D01*
X111581166Y-105880437D01*
X111558557Y-105874773D01*
X111536613Y-105866921D01*
X111515543Y-105856956D01*
X111495552Y-105844974D01*
X111476832Y-105831090D01*
X111459562Y-105815438D01*
X111443910Y-105798168D01*
X111430026Y-105779448D01*
X111418044Y-105759457D01*
X111408079Y-105738387D01*
X111400227Y-105716443D01*
X111394563Y-105693834D01*
X111391144Y-105670779D01*
X111390000Y-105647500D01*
X111390000Y-105172500D01*
X111391144Y-105149221D01*
X111394563Y-105126166D01*
X111400227Y-105103557D01*
X111408079Y-105081613D01*
X111418044Y-105060543D01*
X111430026Y-105040552D01*
X111443910Y-105021832D01*
X111459562Y-105004562D01*
X111476832Y-104988910D01*
X111495552Y-104975026D01*
X111515543Y-104963044D01*
X111536613Y-104953079D01*
X111558557Y-104945227D01*
X111581166Y-104939563D01*
X111604221Y-104936144D01*
X111627500Y-104935000D01*
X112202500Y-104935000D01*
X112225779Y-104936144D01*
X112225779Y-104936144D01*
G37*
D17*
X111915000Y-105410000D03*
G04 #@! TD*
D16*
G04 #@! TO.C,R39*
G36*
X72065779Y-104936144D02*
X72088834Y-104939563D01*
X72111443Y-104945227D01*
X72133387Y-104953079D01*
X72154457Y-104963044D01*
X72174448Y-104975026D01*
X72193168Y-104988910D01*
X72210438Y-105004562D01*
X72226090Y-105021832D01*
X72239974Y-105040552D01*
X72251956Y-105060543D01*
X72261921Y-105081613D01*
X72269773Y-105103557D01*
X72275437Y-105126166D01*
X72278856Y-105149221D01*
X72280000Y-105172500D01*
X72280000Y-105647500D01*
X72278856Y-105670779D01*
X72275437Y-105693834D01*
X72269773Y-105716443D01*
X72261921Y-105738387D01*
X72251956Y-105759457D01*
X72239974Y-105779448D01*
X72226090Y-105798168D01*
X72210438Y-105815438D01*
X72193168Y-105831090D01*
X72174448Y-105844974D01*
X72154457Y-105856956D01*
X72133387Y-105866921D01*
X72111443Y-105874773D01*
X72088834Y-105880437D01*
X72065779Y-105883856D01*
X72042500Y-105885000D01*
X71467500Y-105885000D01*
X71444221Y-105883856D01*
X71421166Y-105880437D01*
X71398557Y-105874773D01*
X71376613Y-105866921D01*
X71355543Y-105856956D01*
X71335552Y-105844974D01*
X71316832Y-105831090D01*
X71299562Y-105815438D01*
X71283910Y-105798168D01*
X71270026Y-105779448D01*
X71258044Y-105759457D01*
X71248079Y-105738387D01*
X71240227Y-105716443D01*
X71234563Y-105693834D01*
X71231144Y-105670779D01*
X71230000Y-105647500D01*
X71230000Y-105172500D01*
X71231144Y-105149221D01*
X71234563Y-105126166D01*
X71240227Y-105103557D01*
X71248079Y-105081613D01*
X71258044Y-105060543D01*
X71270026Y-105040552D01*
X71283910Y-105021832D01*
X71299562Y-105004562D01*
X71316832Y-104988910D01*
X71335552Y-104975026D01*
X71355543Y-104963044D01*
X71376613Y-104953079D01*
X71398557Y-104945227D01*
X71421166Y-104939563D01*
X71444221Y-104936144D01*
X71467500Y-104935000D01*
X72042500Y-104935000D01*
X72065779Y-104936144D01*
X72065779Y-104936144D01*
G37*
D17*
X71755000Y-105410000D03*
D16*
G36*
X70315779Y-104936144D02*
X70338834Y-104939563D01*
X70361443Y-104945227D01*
X70383387Y-104953079D01*
X70404457Y-104963044D01*
X70424448Y-104975026D01*
X70443168Y-104988910D01*
X70460438Y-105004562D01*
X70476090Y-105021832D01*
X70489974Y-105040552D01*
X70501956Y-105060543D01*
X70511921Y-105081613D01*
X70519773Y-105103557D01*
X70525437Y-105126166D01*
X70528856Y-105149221D01*
X70530000Y-105172500D01*
X70530000Y-105647500D01*
X70528856Y-105670779D01*
X70525437Y-105693834D01*
X70519773Y-105716443D01*
X70511921Y-105738387D01*
X70501956Y-105759457D01*
X70489974Y-105779448D01*
X70476090Y-105798168D01*
X70460438Y-105815438D01*
X70443168Y-105831090D01*
X70424448Y-105844974D01*
X70404457Y-105856956D01*
X70383387Y-105866921D01*
X70361443Y-105874773D01*
X70338834Y-105880437D01*
X70315779Y-105883856D01*
X70292500Y-105885000D01*
X69717500Y-105885000D01*
X69694221Y-105883856D01*
X69671166Y-105880437D01*
X69648557Y-105874773D01*
X69626613Y-105866921D01*
X69605543Y-105856956D01*
X69585552Y-105844974D01*
X69566832Y-105831090D01*
X69549562Y-105815438D01*
X69533910Y-105798168D01*
X69520026Y-105779448D01*
X69508044Y-105759457D01*
X69498079Y-105738387D01*
X69490227Y-105716443D01*
X69484563Y-105693834D01*
X69481144Y-105670779D01*
X69480000Y-105647500D01*
X69480000Y-105172500D01*
X69481144Y-105149221D01*
X69484563Y-105126166D01*
X69490227Y-105103557D01*
X69498079Y-105081613D01*
X69508044Y-105060543D01*
X69520026Y-105040552D01*
X69533910Y-105021832D01*
X69549562Y-105004562D01*
X69566832Y-104988910D01*
X69585552Y-104975026D01*
X69605543Y-104963044D01*
X69626613Y-104953079D01*
X69648557Y-104945227D01*
X69671166Y-104939563D01*
X69694221Y-104936144D01*
X69717500Y-104935000D01*
X70292500Y-104935000D01*
X70315779Y-104936144D01*
X70315779Y-104936144D01*
G37*
D17*
X70005000Y-105410000D03*
G04 #@! TD*
D16*
G04 #@! TO.C,R40*
G36*
X132502553Y-104750386D02*
X132525608Y-104753805D01*
X132548217Y-104759469D01*
X132570161Y-104767321D01*
X132591231Y-104777286D01*
X132611222Y-104789268D01*
X132629942Y-104803152D01*
X132647212Y-104818804D01*
X132662864Y-104836074D01*
X132676748Y-104854794D01*
X132688730Y-104874785D01*
X132698695Y-104895855D01*
X132706547Y-104917799D01*
X132712211Y-104940408D01*
X132715630Y-104963463D01*
X132716774Y-104986742D01*
X132716774Y-105461742D01*
X132715630Y-105485021D01*
X132712211Y-105508076D01*
X132706547Y-105530685D01*
X132698695Y-105552629D01*
X132688730Y-105573699D01*
X132676748Y-105593690D01*
X132662864Y-105612410D01*
X132647212Y-105629680D01*
X132629942Y-105645332D01*
X132611222Y-105659216D01*
X132591231Y-105671198D01*
X132570161Y-105681163D01*
X132548217Y-105689015D01*
X132525608Y-105694679D01*
X132502553Y-105698098D01*
X132479274Y-105699242D01*
X131904274Y-105699242D01*
X131880995Y-105698098D01*
X131857940Y-105694679D01*
X131835331Y-105689015D01*
X131813387Y-105681163D01*
X131792317Y-105671198D01*
X131772326Y-105659216D01*
X131753606Y-105645332D01*
X131736336Y-105629680D01*
X131720684Y-105612410D01*
X131706800Y-105593690D01*
X131694818Y-105573699D01*
X131684853Y-105552629D01*
X131677001Y-105530685D01*
X131671337Y-105508076D01*
X131667918Y-105485021D01*
X131666774Y-105461742D01*
X131666774Y-104986742D01*
X131667918Y-104963463D01*
X131671337Y-104940408D01*
X131677001Y-104917799D01*
X131684853Y-104895855D01*
X131694818Y-104874785D01*
X131706800Y-104854794D01*
X131720684Y-104836074D01*
X131736336Y-104818804D01*
X131753606Y-104803152D01*
X131772326Y-104789268D01*
X131792317Y-104777286D01*
X131813387Y-104767321D01*
X131835331Y-104759469D01*
X131857940Y-104753805D01*
X131880995Y-104750386D01*
X131904274Y-104749242D01*
X132479274Y-104749242D01*
X132502553Y-104750386D01*
X132502553Y-104750386D01*
G37*
D17*
X132191774Y-105224242D03*
D16*
G36*
X134252553Y-104750386D02*
X134275608Y-104753805D01*
X134298217Y-104759469D01*
X134320161Y-104767321D01*
X134341231Y-104777286D01*
X134361222Y-104789268D01*
X134379942Y-104803152D01*
X134397212Y-104818804D01*
X134412864Y-104836074D01*
X134426748Y-104854794D01*
X134438730Y-104874785D01*
X134448695Y-104895855D01*
X134456547Y-104917799D01*
X134462211Y-104940408D01*
X134465630Y-104963463D01*
X134466774Y-104986742D01*
X134466774Y-105461742D01*
X134465630Y-105485021D01*
X134462211Y-105508076D01*
X134456547Y-105530685D01*
X134448695Y-105552629D01*
X134438730Y-105573699D01*
X134426748Y-105593690D01*
X134412864Y-105612410D01*
X134397212Y-105629680D01*
X134379942Y-105645332D01*
X134361222Y-105659216D01*
X134341231Y-105671198D01*
X134320161Y-105681163D01*
X134298217Y-105689015D01*
X134275608Y-105694679D01*
X134252553Y-105698098D01*
X134229274Y-105699242D01*
X133654274Y-105699242D01*
X133630995Y-105698098D01*
X133607940Y-105694679D01*
X133585331Y-105689015D01*
X133563387Y-105681163D01*
X133542317Y-105671198D01*
X133522326Y-105659216D01*
X133503606Y-105645332D01*
X133486336Y-105629680D01*
X133470684Y-105612410D01*
X133456800Y-105593690D01*
X133444818Y-105573699D01*
X133434853Y-105552629D01*
X133427001Y-105530685D01*
X133421337Y-105508076D01*
X133417918Y-105485021D01*
X133416774Y-105461742D01*
X133416774Y-104986742D01*
X133417918Y-104963463D01*
X133421337Y-104940408D01*
X133427001Y-104917799D01*
X133434853Y-104895855D01*
X133444818Y-104874785D01*
X133456800Y-104854794D01*
X133470684Y-104836074D01*
X133486336Y-104818804D01*
X133503606Y-104803152D01*
X133522326Y-104789268D01*
X133542317Y-104777286D01*
X133563387Y-104767321D01*
X133585331Y-104759469D01*
X133607940Y-104753805D01*
X133630995Y-104750386D01*
X133654274Y-104749242D01*
X134229274Y-104749242D01*
X134252553Y-104750386D01*
X134252553Y-104750386D01*
G37*
D17*
X133941774Y-105224242D03*
G04 #@! TD*
D16*
G04 #@! TO.C,R41*
G36*
X189385779Y-139861144D02*
X189408834Y-139864563D01*
X189431443Y-139870227D01*
X189453387Y-139878079D01*
X189474457Y-139888044D01*
X189494448Y-139900026D01*
X189513168Y-139913910D01*
X189530438Y-139929562D01*
X189546090Y-139946832D01*
X189559974Y-139965552D01*
X189571956Y-139985543D01*
X189581921Y-140006613D01*
X189589773Y-140028557D01*
X189595437Y-140051166D01*
X189598856Y-140074221D01*
X189600000Y-140097500D01*
X189600000Y-140572500D01*
X189598856Y-140595779D01*
X189595437Y-140618834D01*
X189589773Y-140641443D01*
X189581921Y-140663387D01*
X189571956Y-140684457D01*
X189559974Y-140704448D01*
X189546090Y-140723168D01*
X189530438Y-140740438D01*
X189513168Y-140756090D01*
X189494448Y-140769974D01*
X189474457Y-140781956D01*
X189453387Y-140791921D01*
X189431443Y-140799773D01*
X189408834Y-140805437D01*
X189385779Y-140808856D01*
X189362500Y-140810000D01*
X188787500Y-140810000D01*
X188764221Y-140808856D01*
X188741166Y-140805437D01*
X188718557Y-140799773D01*
X188696613Y-140791921D01*
X188675543Y-140781956D01*
X188655552Y-140769974D01*
X188636832Y-140756090D01*
X188619562Y-140740438D01*
X188603910Y-140723168D01*
X188590026Y-140704448D01*
X188578044Y-140684457D01*
X188568079Y-140663387D01*
X188560227Y-140641443D01*
X188554563Y-140618834D01*
X188551144Y-140595779D01*
X188550000Y-140572500D01*
X188550000Y-140097500D01*
X188551144Y-140074221D01*
X188554563Y-140051166D01*
X188560227Y-140028557D01*
X188568079Y-140006613D01*
X188578044Y-139985543D01*
X188590026Y-139965552D01*
X188603910Y-139946832D01*
X188619562Y-139929562D01*
X188636832Y-139913910D01*
X188655552Y-139900026D01*
X188675543Y-139888044D01*
X188696613Y-139878079D01*
X188718557Y-139870227D01*
X188741166Y-139864563D01*
X188764221Y-139861144D01*
X188787500Y-139860000D01*
X189362500Y-139860000D01*
X189385779Y-139861144D01*
X189385779Y-139861144D01*
G37*
D17*
X189075000Y-140335000D03*
D16*
G36*
X187635779Y-139861144D02*
X187658834Y-139864563D01*
X187681443Y-139870227D01*
X187703387Y-139878079D01*
X187724457Y-139888044D01*
X187744448Y-139900026D01*
X187763168Y-139913910D01*
X187780438Y-139929562D01*
X187796090Y-139946832D01*
X187809974Y-139965552D01*
X187821956Y-139985543D01*
X187831921Y-140006613D01*
X187839773Y-140028557D01*
X187845437Y-140051166D01*
X187848856Y-140074221D01*
X187850000Y-140097500D01*
X187850000Y-140572500D01*
X187848856Y-140595779D01*
X187845437Y-140618834D01*
X187839773Y-140641443D01*
X187831921Y-140663387D01*
X187821956Y-140684457D01*
X187809974Y-140704448D01*
X187796090Y-140723168D01*
X187780438Y-140740438D01*
X187763168Y-140756090D01*
X187744448Y-140769974D01*
X187724457Y-140781956D01*
X187703387Y-140791921D01*
X187681443Y-140799773D01*
X187658834Y-140805437D01*
X187635779Y-140808856D01*
X187612500Y-140810000D01*
X187037500Y-140810000D01*
X187014221Y-140808856D01*
X186991166Y-140805437D01*
X186968557Y-140799773D01*
X186946613Y-140791921D01*
X186925543Y-140781956D01*
X186905552Y-140769974D01*
X186886832Y-140756090D01*
X186869562Y-140740438D01*
X186853910Y-140723168D01*
X186840026Y-140704448D01*
X186828044Y-140684457D01*
X186818079Y-140663387D01*
X186810227Y-140641443D01*
X186804563Y-140618834D01*
X186801144Y-140595779D01*
X186800000Y-140572500D01*
X186800000Y-140097500D01*
X186801144Y-140074221D01*
X186804563Y-140051166D01*
X186810227Y-140028557D01*
X186818079Y-140006613D01*
X186828044Y-139985543D01*
X186840026Y-139965552D01*
X186853910Y-139946832D01*
X186869562Y-139929562D01*
X186886832Y-139913910D01*
X186905552Y-139900026D01*
X186925543Y-139888044D01*
X186946613Y-139878079D01*
X186968557Y-139870227D01*
X186991166Y-139864563D01*
X187014221Y-139861144D01*
X187037500Y-139860000D01*
X187612500Y-139860000D01*
X187635779Y-139861144D01*
X187635779Y-139861144D01*
G37*
D17*
X187325000Y-140335000D03*
G04 #@! TD*
D16*
G04 #@! TO.C,R42*
G36*
X51509501Y-104936144D02*
X51532556Y-104939563D01*
X51555165Y-104945227D01*
X51577109Y-104953079D01*
X51598179Y-104963044D01*
X51618170Y-104975026D01*
X51636890Y-104988910D01*
X51654160Y-105004562D01*
X51669812Y-105021832D01*
X51683696Y-105040552D01*
X51695678Y-105060543D01*
X51705643Y-105081613D01*
X51713495Y-105103557D01*
X51719159Y-105126166D01*
X51722578Y-105149221D01*
X51723722Y-105172500D01*
X51723722Y-105647500D01*
X51722578Y-105670779D01*
X51719159Y-105693834D01*
X51713495Y-105716443D01*
X51705643Y-105738387D01*
X51695678Y-105759457D01*
X51683696Y-105779448D01*
X51669812Y-105798168D01*
X51654160Y-105815438D01*
X51636890Y-105831090D01*
X51618170Y-105844974D01*
X51598179Y-105856956D01*
X51577109Y-105866921D01*
X51555165Y-105874773D01*
X51532556Y-105880437D01*
X51509501Y-105883856D01*
X51486222Y-105885000D01*
X50911222Y-105885000D01*
X50887943Y-105883856D01*
X50864888Y-105880437D01*
X50842279Y-105874773D01*
X50820335Y-105866921D01*
X50799265Y-105856956D01*
X50779274Y-105844974D01*
X50760554Y-105831090D01*
X50743284Y-105815438D01*
X50727632Y-105798168D01*
X50713748Y-105779448D01*
X50701766Y-105759457D01*
X50691801Y-105738387D01*
X50683949Y-105716443D01*
X50678285Y-105693834D01*
X50674866Y-105670779D01*
X50673722Y-105647500D01*
X50673722Y-105172500D01*
X50674866Y-105149221D01*
X50678285Y-105126166D01*
X50683949Y-105103557D01*
X50691801Y-105081613D01*
X50701766Y-105060543D01*
X50713748Y-105040552D01*
X50727632Y-105021832D01*
X50743284Y-105004562D01*
X50760554Y-104988910D01*
X50779274Y-104975026D01*
X50799265Y-104963044D01*
X50820335Y-104953079D01*
X50842279Y-104945227D01*
X50864888Y-104939563D01*
X50887943Y-104936144D01*
X50911222Y-104935000D01*
X51486222Y-104935000D01*
X51509501Y-104936144D01*
X51509501Y-104936144D01*
G37*
D17*
X51198722Y-105410000D03*
D16*
G36*
X49759501Y-104936144D02*
X49782556Y-104939563D01*
X49805165Y-104945227D01*
X49827109Y-104953079D01*
X49848179Y-104963044D01*
X49868170Y-104975026D01*
X49886890Y-104988910D01*
X49904160Y-105004562D01*
X49919812Y-105021832D01*
X49933696Y-105040552D01*
X49945678Y-105060543D01*
X49955643Y-105081613D01*
X49963495Y-105103557D01*
X49969159Y-105126166D01*
X49972578Y-105149221D01*
X49973722Y-105172500D01*
X49973722Y-105647500D01*
X49972578Y-105670779D01*
X49969159Y-105693834D01*
X49963495Y-105716443D01*
X49955643Y-105738387D01*
X49945678Y-105759457D01*
X49933696Y-105779448D01*
X49919812Y-105798168D01*
X49904160Y-105815438D01*
X49886890Y-105831090D01*
X49868170Y-105844974D01*
X49848179Y-105856956D01*
X49827109Y-105866921D01*
X49805165Y-105874773D01*
X49782556Y-105880437D01*
X49759501Y-105883856D01*
X49736222Y-105885000D01*
X49161222Y-105885000D01*
X49137943Y-105883856D01*
X49114888Y-105880437D01*
X49092279Y-105874773D01*
X49070335Y-105866921D01*
X49049265Y-105856956D01*
X49029274Y-105844974D01*
X49010554Y-105831090D01*
X48993284Y-105815438D01*
X48977632Y-105798168D01*
X48963748Y-105779448D01*
X48951766Y-105759457D01*
X48941801Y-105738387D01*
X48933949Y-105716443D01*
X48928285Y-105693834D01*
X48924866Y-105670779D01*
X48923722Y-105647500D01*
X48923722Y-105172500D01*
X48924866Y-105149221D01*
X48928285Y-105126166D01*
X48933949Y-105103557D01*
X48941801Y-105081613D01*
X48951766Y-105060543D01*
X48963748Y-105040552D01*
X48977632Y-105021832D01*
X48993284Y-105004562D01*
X49010554Y-104988910D01*
X49029274Y-104975026D01*
X49049265Y-104963044D01*
X49070335Y-104953079D01*
X49092279Y-104945227D01*
X49114888Y-104939563D01*
X49137943Y-104936144D01*
X49161222Y-104935000D01*
X49736222Y-104935000D01*
X49759501Y-104936144D01*
X49759501Y-104936144D01*
G37*
D17*
X49448722Y-105410000D03*
G04 #@! TD*
M02*
