M48
;DRILL file {KiCad (5.0.0)} date 12/30/18 19:09:50
;FORMAT={-:-/ absolute / inch / decimal}
FMAT,2
INCH,TZ
T1C0.1616
%
G90
G05
M72
T1
X5.9335Y-0.989
X6.2445Y-0.989
X7.231Y-0.6855
X7.231Y-0.9965
X10.5224Y-2.989
X10.8335Y-2.989
X11.1445Y-2.989
X10.5224Y-1.489
X10.8335Y-1.489
X11.1445Y-1.489
X6.9224Y-2.489
X7.2335Y-2.489
X7.5445Y-2.489
X8.931Y-0.6855
X8.931Y-0.9965
X10.5224Y-1.989
X10.8335Y-1.989
X11.1445Y-1.989
X9.3224Y-2.489
X9.6335Y-2.489
X9.9445Y-2.489
X5.9335Y-1.989
X6.2445Y-1.989
X10.601Y-0.6855
X10.601Y-0.9965
X9.3224Y-2.989
X9.6335Y-2.989
X9.9445Y-2.989
X6.9224Y-2.989
X7.2335Y-2.989
X7.5445Y-2.989
X5.9335Y-1.489
X6.2445Y-1.489
X9.3224Y-1.989
X9.6335Y-1.989
X9.9445Y-1.989
X8.1224Y-1.489
X8.4335Y-1.489
X8.7445Y-1.489
X6.9224Y-1.489
X7.2335Y-1.489
X7.5445Y-1.489
X8.1224Y-1.989
X8.4335Y-1.989
X8.7445Y-1.989
X10.5224Y-2.489
X10.8335Y-2.489
X11.1445Y-2.489
X5.9335Y-2.489
X6.2445Y-2.489
X6.9224Y-1.989
X7.2335Y-1.989
X7.5445Y-1.989
X8.1224Y-2.989
X8.4335Y-2.989
X8.7445Y-2.989
X5.9335Y-2.989
X6.2445Y-2.989
X8.1224Y-2.489
X8.4335Y-2.489
X8.7445Y-2.489
X9.3224Y-1.489
X9.6335Y-1.489
X9.9445Y-1.489
T0
M30
