G75*
%MOIN*%
%OFA0B0*%
%FSLAX24Y24*%
%IPPOS*%
%LPD*%
%AMOC8*
5,1,8,0,0,1.08239X$1,22.5*
%
%ADD10C,0.2080*%
%ADD11C,0.1780*%
D10*
X011430Y019143D03*
X014530Y019143D03*
X014530Y025343D03*
X011430Y025343D03*
X011430Y031543D03*
X014530Y031543D03*
X014530Y037743D03*
X011430Y037743D03*
X011430Y043943D03*
X014530Y043943D03*
X014530Y050143D03*
X011430Y050143D03*
X011430Y056343D03*
X014530Y056343D03*
X014530Y062543D03*
X011430Y062543D03*
X011430Y068743D03*
X014530Y068743D03*
X014530Y074943D03*
X011430Y074943D03*
X022930Y071843D03*
X022930Y078043D03*
X022930Y084243D03*
X022930Y090443D03*
X029130Y090443D03*
X029130Y084243D03*
X029130Y078043D03*
X029130Y071843D03*
X029430Y063793D03*
X029430Y060693D03*
X026330Y060693D03*
X029430Y054493D03*
X029430Y051393D03*
X026330Y051393D03*
X029430Y045193D03*
X029430Y042093D03*
X026330Y042093D03*
X029130Y034743D03*
X029130Y028443D03*
X029130Y022243D03*
X029130Y016043D03*
X022930Y016043D03*
X022930Y022243D03*
X022930Y028443D03*
X022930Y034743D03*
X037530Y032793D03*
X040630Y032793D03*
X040630Y035893D03*
X040630Y042093D03*
X040630Y045193D03*
X037530Y042093D03*
X037530Y051393D03*
X040630Y051393D03*
X040630Y054493D03*
X040630Y060693D03*
X040630Y063793D03*
X037530Y060693D03*
X037530Y069993D03*
X040630Y069993D03*
X040630Y073093D03*
X040630Y079293D03*
X040630Y082393D03*
X037530Y079293D03*
X037530Y088593D03*
X040630Y088593D03*
X040630Y091693D03*
X046830Y088593D03*
X049930Y088593D03*
X049930Y091693D03*
X049930Y082393D03*
X049930Y079293D03*
X046830Y079293D03*
X049930Y073093D03*
X049930Y069993D03*
X046830Y069993D03*
X049930Y063793D03*
X049930Y060693D03*
X046830Y060693D03*
X049930Y054493D03*
X049930Y051393D03*
X046830Y051393D03*
X049930Y045193D03*
X049930Y042093D03*
X046830Y042093D03*
X049930Y035893D03*
X049930Y032793D03*
X046830Y032793D03*
X049930Y026593D03*
X049930Y023493D03*
X046830Y023493D03*
X049930Y017293D03*
X049930Y014193D03*
X046830Y014193D03*
X040630Y014193D03*
X040630Y017293D03*
X037530Y014193D03*
X037530Y023493D03*
X040630Y023493D03*
X040630Y026593D03*
D11*
X011730Y016043D03*
X014830Y016043D03*
X012680Y011693D03*
X011730Y022243D03*
X011730Y028443D03*
X014830Y028443D03*
X011730Y034643D03*
X011730Y040843D03*
X014830Y040843D03*
X011730Y047043D03*
X011730Y053243D03*
X014830Y053243D03*
X011730Y059443D03*
X011730Y065643D03*
X014830Y065643D03*
X011730Y071843D03*
X011730Y078043D03*
X014830Y078043D03*
X011730Y081743D03*
X017680Y082693D03*
X017680Y094193D03*
X033180Y094193D03*
X053680Y094193D03*
X053680Y052943D03*
X033180Y052943D03*
X033180Y011693D03*
X053680Y011693D03*
M02*
