%
M48
M72
T01C0.1600
T02C0.1700
%
T01
X22930Y84243
X22930Y78043
X22930Y71843
X29130Y71843
X29130Y78043
X29130Y84243
X29130Y90443
X22930Y90443
X14530Y74943
X11430Y74943
X11430Y68743
X14530Y68743
X14530Y62543
X11430Y62543
X11430Y56343
X14530Y56343
X14530Y50143
X11430Y50143
X11430Y43943
X14530Y43943
X14530Y37743
X11430Y37743
X11430Y31543
X14530Y31543
X14530Y25343
X11430Y25343
X11430Y19143
X14530Y19143
X22930Y16043
X22930Y22243
X22930Y28443
X22930Y34743
X26330Y42093
X29430Y42093
X29430Y45193
X29430Y51393
X29430Y54493
X26330Y51393
X26330Y60693
X29430Y60693
X29430Y63793
X37530Y60693
X40630Y60693
X40630Y63793
X40630Y69993
X40630Y73093
X37530Y69993
X37530Y79293
X40630Y79293
X40630Y82393
X40630Y88593
X40630Y91693
X37530Y88593
X46830Y88593
X49930Y88593
X49930Y91693
X49930Y82393
X49930Y79293
X46830Y79293
X49930Y73093
X49930Y69993
X46830Y69993
X49930Y63793
X49930Y60693
X46830Y60693
X49930Y54493
X49930Y51393
X46830Y51393
X49930Y45193
X49930Y42093
X46830Y42093
X49930Y35893
X49930Y32793
X46830Y32793
X49930Y26593
X49930Y23493
X46830Y23493
X49930Y17293
X49930Y14193
X46830Y14193
X40630Y14193
X40630Y17293
X37530Y14193
X37530Y23493
X40630Y23493
X40630Y26593
X40630Y32793
X40630Y35893
X37530Y32793
X37530Y42093
X40630Y42093
X40630Y45193
X40630Y51393
X40630Y54493
X37530Y51393
X29130Y34743
X29130Y28443
X29130Y22243
X29130Y16043
T02
X11730Y16043
X14830Y16043
X12680Y11693
X11730Y22243
X11730Y28443
X14830Y28443
X11730Y34643
X11730Y40843
X14830Y40843
X11730Y47043
X11730Y53243
X14830Y53243
X11730Y59443
X11730Y65643
X14830Y65643
X11730Y71843
X11730Y78043
X14830Y78043
X17680Y82693
X11730Y81743
X17680Y94193
X33180Y94193
X53680Y94193
X53680Y52943
X33180Y52943
X33180Y11693
X53680Y11693
M30
