G75*
%MOIN*%
%OFA0B0*%
%FSLAX24Y24*%
%IPPOS*%
%LPD*%
%AMOC8*
5,1,8,0,0,1.08239X$1,22.5*
%
%ADD10C,0.0030*%
%ADD11C,0.0040*%
D10*
X028123Y041558D02*
X028317Y041558D01*
X028365Y041607D01*
X028365Y041703D01*
X028317Y041752D01*
X028220Y041752D01*
X028220Y041655D01*
X028123Y041558D02*
X028075Y041607D01*
X028075Y041703D01*
X028123Y041752D01*
X028075Y041853D02*
X028365Y042046D01*
X028075Y042046D01*
X028075Y042148D02*
X028075Y042293D01*
X028123Y042341D01*
X028317Y042341D01*
X028365Y042293D01*
X028365Y042148D01*
X028075Y042148D01*
X028075Y041853D02*
X028365Y041853D01*
X028365Y044758D02*
X028365Y044952D01*
X028365Y044855D02*
X028075Y044855D01*
X028172Y044758D01*
X028123Y045053D02*
X028075Y045101D01*
X028075Y045198D01*
X028123Y045246D01*
X028172Y045246D01*
X028365Y045053D01*
X028365Y045246D01*
X028268Y045348D02*
X028365Y045444D01*
X028268Y045541D01*
X028075Y045541D01*
X028075Y045348D02*
X028268Y045348D01*
X025165Y042250D02*
X025068Y042346D01*
X024875Y042346D01*
X024875Y042153D02*
X025068Y042153D01*
X025165Y042250D01*
X025117Y042052D02*
X025165Y042003D01*
X025165Y041907D01*
X025117Y041858D01*
X025020Y041858D02*
X024972Y041955D01*
X024972Y042003D01*
X025020Y042052D01*
X025117Y042052D01*
X025020Y041858D02*
X024875Y041858D01*
X024875Y042052D01*
X024875Y051158D02*
X025020Y051158D01*
X024972Y051255D01*
X024972Y051303D01*
X025020Y051352D01*
X025117Y051352D01*
X025165Y051303D01*
X025165Y051207D01*
X025117Y051158D01*
X024875Y051158D02*
X024875Y051352D01*
X024875Y051453D02*
X025068Y051453D01*
X025165Y051550D01*
X025068Y051646D01*
X024875Y051646D01*
X028075Y051593D02*
X028075Y051448D01*
X028365Y051448D01*
X028365Y051593D01*
X028317Y051641D01*
X028123Y051641D01*
X028075Y051593D01*
X028075Y051346D02*
X028365Y051346D01*
X028075Y051153D01*
X028365Y051153D01*
X028317Y051052D02*
X028220Y051052D01*
X028220Y050955D01*
X028317Y050858D02*
X028365Y050907D01*
X028365Y051003D01*
X028317Y051052D01*
X028317Y050858D02*
X028123Y050858D01*
X028075Y050907D01*
X028075Y051003D01*
X028123Y051052D01*
X028172Y054058D02*
X028075Y054155D01*
X028365Y054155D01*
X028365Y054058D02*
X028365Y054252D01*
X028365Y054353D02*
X028172Y054546D01*
X028123Y054546D01*
X028075Y054498D01*
X028075Y054401D01*
X028123Y054353D01*
X028365Y054353D02*
X028365Y054546D01*
X028268Y054648D02*
X028365Y054744D01*
X028268Y054841D01*
X028075Y054841D01*
X028075Y054648D02*
X028268Y054648D01*
X028317Y060158D02*
X028365Y060207D01*
X028365Y060303D01*
X028317Y060352D01*
X028220Y060352D01*
X028220Y060255D01*
X028123Y060158D02*
X028317Y060158D01*
X028123Y060158D02*
X028075Y060207D01*
X028075Y060303D01*
X028123Y060352D01*
X028075Y060453D02*
X028365Y060646D01*
X028075Y060646D01*
X028075Y060748D02*
X028075Y060893D01*
X028123Y060941D01*
X028317Y060941D01*
X028365Y060893D01*
X028365Y060748D01*
X028075Y060748D01*
X028075Y060453D02*
X028365Y060453D01*
X028365Y063358D02*
X028365Y063552D01*
X028365Y063455D02*
X028075Y063455D01*
X028172Y063358D01*
X028123Y063653D02*
X028075Y063701D01*
X028075Y063798D01*
X028123Y063846D01*
X028172Y063846D01*
X028365Y063653D01*
X028365Y063846D01*
X028268Y063948D02*
X028365Y064044D01*
X028268Y064141D01*
X028075Y064141D01*
X028075Y063948D02*
X028268Y063948D01*
X025165Y060850D02*
X025068Y060946D01*
X024875Y060946D01*
X024875Y060753D02*
X025068Y060753D01*
X025165Y060850D01*
X025117Y060652D02*
X025165Y060603D01*
X025165Y060507D01*
X025117Y060458D01*
X025020Y060458D02*
X024972Y060555D01*
X024972Y060603D01*
X025020Y060652D01*
X025117Y060652D01*
X025020Y060458D02*
X024875Y060458D01*
X024875Y060652D01*
X036075Y060652D02*
X036075Y060458D01*
X036220Y060458D01*
X036172Y060555D01*
X036172Y060603D01*
X036220Y060652D01*
X036317Y060652D01*
X036365Y060603D01*
X036365Y060507D01*
X036317Y060458D01*
X036268Y060753D02*
X036365Y060850D01*
X036268Y060946D01*
X036075Y060946D01*
X036075Y060753D02*
X036268Y060753D01*
X039275Y060748D02*
X039275Y060893D01*
X039323Y060941D01*
X039517Y060941D01*
X039565Y060893D01*
X039565Y060748D01*
X039275Y060748D01*
X039275Y060646D02*
X039565Y060646D01*
X039275Y060453D01*
X039565Y060453D01*
X039517Y060352D02*
X039420Y060352D01*
X039420Y060255D01*
X039517Y060158D02*
X039565Y060207D01*
X039565Y060303D01*
X039517Y060352D01*
X039517Y060158D02*
X039323Y060158D01*
X039275Y060207D01*
X039275Y060303D01*
X039323Y060352D01*
X039372Y063358D02*
X039275Y063455D01*
X039565Y063455D01*
X039565Y063358D02*
X039565Y063552D01*
X039565Y063653D02*
X039372Y063846D01*
X039323Y063846D01*
X039275Y063798D01*
X039275Y063701D01*
X039323Y063653D01*
X039565Y063653D02*
X039565Y063846D01*
X039468Y063948D02*
X039565Y064044D01*
X039468Y064141D01*
X039275Y064141D01*
X039275Y063948D02*
X039468Y063948D01*
X039517Y069458D02*
X039565Y069507D01*
X039565Y069603D01*
X039517Y069652D01*
X039420Y069652D01*
X039420Y069555D01*
X039323Y069458D02*
X039517Y069458D01*
X039323Y069458D02*
X039275Y069507D01*
X039275Y069603D01*
X039323Y069652D01*
X039275Y069753D02*
X039565Y069946D01*
X039275Y069946D01*
X039275Y070048D02*
X039275Y070193D01*
X039323Y070241D01*
X039517Y070241D01*
X039565Y070193D01*
X039565Y070048D01*
X039275Y070048D01*
X039275Y069753D02*
X039565Y069753D01*
X039565Y072658D02*
X039565Y072852D01*
X039565Y072755D02*
X039275Y072755D01*
X039372Y072658D01*
X039323Y072953D02*
X039275Y073001D01*
X039275Y073098D01*
X039323Y073146D01*
X039372Y073146D01*
X039565Y072953D01*
X039565Y073146D01*
X039468Y073248D02*
X039565Y073344D01*
X039468Y073441D01*
X039275Y073441D01*
X039275Y073248D02*
X039468Y073248D01*
X036365Y070150D02*
X036268Y070246D01*
X036075Y070246D01*
X036075Y070053D02*
X036268Y070053D01*
X036365Y070150D01*
X036317Y069952D02*
X036365Y069903D01*
X036365Y069807D01*
X036317Y069758D01*
X036220Y069758D02*
X036172Y069855D01*
X036172Y069903D01*
X036220Y069952D01*
X036317Y069952D01*
X036220Y069758D02*
X036075Y069758D01*
X036075Y069952D01*
X036075Y079058D02*
X036220Y079058D01*
X036172Y079155D01*
X036172Y079203D01*
X036220Y079252D01*
X036317Y079252D01*
X036365Y079203D01*
X036365Y079107D01*
X036317Y079058D01*
X036075Y079058D02*
X036075Y079252D01*
X036075Y079353D02*
X036268Y079353D01*
X036365Y079450D01*
X036268Y079546D01*
X036075Y079546D01*
X039275Y079493D02*
X039275Y079348D01*
X039565Y079348D01*
X039565Y079493D01*
X039517Y079541D01*
X039323Y079541D01*
X039275Y079493D01*
X039275Y079246D02*
X039565Y079246D01*
X039275Y079053D01*
X039565Y079053D01*
X039517Y078952D02*
X039420Y078952D01*
X039420Y078855D01*
X039517Y078758D02*
X039565Y078807D01*
X039565Y078903D01*
X039517Y078952D01*
X039517Y078758D02*
X039323Y078758D01*
X039275Y078807D01*
X039275Y078903D01*
X039323Y078952D01*
X039372Y081958D02*
X039275Y082055D01*
X039565Y082055D01*
X039565Y081958D02*
X039565Y082152D01*
X039565Y082253D02*
X039372Y082446D01*
X039323Y082446D01*
X039275Y082398D01*
X039275Y082301D01*
X039323Y082253D01*
X039565Y082253D02*
X039565Y082446D01*
X039468Y082548D02*
X039565Y082644D01*
X039468Y082741D01*
X039275Y082741D01*
X039275Y082548D02*
X039468Y082548D01*
X039517Y088058D02*
X039565Y088107D01*
X039565Y088203D01*
X039517Y088252D01*
X039420Y088252D01*
X039420Y088155D01*
X039323Y088058D02*
X039517Y088058D01*
X039323Y088058D02*
X039275Y088107D01*
X039275Y088203D01*
X039323Y088252D01*
X039275Y088353D02*
X039565Y088546D01*
X039275Y088546D01*
X039275Y088648D02*
X039275Y088793D01*
X039323Y088841D01*
X039517Y088841D01*
X039565Y088793D01*
X039565Y088648D01*
X039275Y088648D01*
X039275Y088353D02*
X039565Y088353D01*
X039565Y091258D02*
X039565Y091452D01*
X039565Y091355D02*
X039275Y091355D01*
X039372Y091258D01*
X039323Y091553D02*
X039275Y091601D01*
X039275Y091698D01*
X039323Y091746D01*
X039372Y091746D01*
X039565Y091553D01*
X039565Y091746D01*
X039468Y091848D02*
X039565Y091944D01*
X039468Y092041D01*
X039275Y092041D01*
X039275Y091848D02*
X039468Y091848D01*
X036365Y088750D02*
X036268Y088846D01*
X036075Y088846D01*
X036075Y088653D02*
X036268Y088653D01*
X036365Y088750D01*
X036317Y088552D02*
X036365Y088503D01*
X036365Y088407D01*
X036317Y088358D01*
X036220Y088358D02*
X036172Y088455D01*
X036172Y088503D01*
X036220Y088552D01*
X036317Y088552D01*
X036220Y088358D02*
X036075Y088358D01*
X036075Y088552D01*
X045375Y088552D02*
X045375Y088358D01*
X045520Y088358D01*
X045472Y088455D01*
X045472Y088503D01*
X045520Y088552D01*
X045617Y088552D01*
X045665Y088503D01*
X045665Y088407D01*
X045617Y088358D01*
X045568Y088653D02*
X045665Y088750D01*
X045568Y088846D01*
X045375Y088846D01*
X045375Y088653D02*
X045568Y088653D01*
X048575Y088648D02*
X048575Y088793D01*
X048623Y088841D01*
X048817Y088841D01*
X048865Y088793D01*
X048865Y088648D01*
X048575Y088648D01*
X048575Y088546D02*
X048865Y088546D01*
X048575Y088353D01*
X048865Y088353D01*
X048817Y088252D02*
X048720Y088252D01*
X048720Y088155D01*
X048817Y088058D02*
X048865Y088107D01*
X048865Y088203D01*
X048817Y088252D01*
X048817Y088058D02*
X048623Y088058D01*
X048575Y088107D01*
X048575Y088203D01*
X048623Y088252D01*
X048672Y091258D02*
X048575Y091355D01*
X048865Y091355D01*
X048865Y091258D02*
X048865Y091452D01*
X048865Y091553D02*
X048672Y091746D01*
X048623Y091746D01*
X048575Y091698D01*
X048575Y091601D01*
X048623Y091553D01*
X048865Y091553D02*
X048865Y091746D01*
X048768Y091848D02*
X048865Y091944D01*
X048768Y092041D01*
X048575Y092041D01*
X048575Y091848D02*
X048768Y091848D01*
X048768Y082741D02*
X048575Y082741D01*
X048768Y082741D02*
X048865Y082644D01*
X048768Y082548D01*
X048575Y082548D01*
X048623Y082446D02*
X048575Y082398D01*
X048575Y082301D01*
X048623Y082253D01*
X048623Y082446D02*
X048672Y082446D01*
X048865Y082253D01*
X048865Y082446D01*
X048865Y082152D02*
X048865Y081958D01*
X048865Y082055D02*
X048575Y082055D01*
X048672Y081958D01*
X048623Y079541D02*
X048575Y079493D01*
X048575Y079348D01*
X048865Y079348D01*
X048865Y079493D01*
X048817Y079541D01*
X048623Y079541D01*
X048575Y079246D02*
X048865Y079246D01*
X048575Y079053D01*
X048865Y079053D01*
X048817Y078952D02*
X048720Y078952D01*
X048720Y078855D01*
X048817Y078758D02*
X048865Y078807D01*
X048865Y078903D01*
X048817Y078952D01*
X048817Y078758D02*
X048623Y078758D01*
X048575Y078807D01*
X048575Y078903D01*
X048623Y078952D01*
X045665Y079107D02*
X045617Y079058D01*
X045665Y079107D02*
X045665Y079203D01*
X045617Y079252D01*
X045520Y079252D01*
X045472Y079203D01*
X045472Y079155D01*
X045520Y079058D01*
X045375Y079058D01*
X045375Y079252D01*
X045375Y079353D02*
X045568Y079353D01*
X045665Y079450D01*
X045568Y079546D01*
X045375Y079546D01*
X048575Y073441D02*
X048768Y073441D01*
X048865Y073344D01*
X048768Y073248D01*
X048575Y073248D01*
X048623Y073146D02*
X048575Y073098D01*
X048575Y073001D01*
X048623Y072953D01*
X048623Y073146D02*
X048672Y073146D01*
X048865Y072953D01*
X048865Y073146D01*
X048865Y072852D02*
X048865Y072658D01*
X048865Y072755D02*
X048575Y072755D01*
X048672Y072658D01*
X048623Y070241D02*
X048575Y070193D01*
X048575Y070048D01*
X048865Y070048D01*
X048865Y070193D01*
X048817Y070241D01*
X048623Y070241D01*
X048575Y069946D02*
X048865Y069946D01*
X048575Y069753D01*
X048865Y069753D01*
X048817Y069652D02*
X048720Y069652D01*
X048720Y069555D01*
X048817Y069458D02*
X048865Y069507D01*
X048865Y069603D01*
X048817Y069652D01*
X048817Y069458D02*
X048623Y069458D01*
X048575Y069507D01*
X048575Y069603D01*
X048623Y069652D01*
X045665Y069807D02*
X045617Y069758D01*
X045665Y069807D02*
X045665Y069903D01*
X045617Y069952D01*
X045520Y069952D01*
X045472Y069903D01*
X045472Y069855D01*
X045520Y069758D01*
X045375Y069758D01*
X045375Y069952D01*
X045375Y070053D02*
X045568Y070053D01*
X045665Y070150D01*
X045568Y070246D01*
X045375Y070246D01*
X048575Y064141D02*
X048768Y064141D01*
X048865Y064044D01*
X048768Y063948D01*
X048575Y063948D01*
X048623Y063846D02*
X048575Y063798D01*
X048575Y063701D01*
X048623Y063653D01*
X048623Y063846D02*
X048672Y063846D01*
X048865Y063653D01*
X048865Y063846D01*
X048865Y063552D02*
X048865Y063358D01*
X048865Y063455D02*
X048575Y063455D01*
X048672Y063358D01*
X048623Y060941D02*
X048575Y060893D01*
X048575Y060748D01*
X048865Y060748D01*
X048865Y060893D01*
X048817Y060941D01*
X048623Y060941D01*
X048575Y060646D02*
X048865Y060646D01*
X048575Y060453D01*
X048865Y060453D01*
X048817Y060352D02*
X048720Y060352D01*
X048720Y060255D01*
X048817Y060158D02*
X048865Y060207D01*
X048865Y060303D01*
X048817Y060352D01*
X048817Y060158D02*
X048623Y060158D01*
X048575Y060207D01*
X048575Y060303D01*
X048623Y060352D01*
X045665Y060507D02*
X045617Y060458D01*
X045665Y060507D02*
X045665Y060603D01*
X045617Y060652D01*
X045520Y060652D01*
X045472Y060603D01*
X045472Y060555D01*
X045520Y060458D01*
X045375Y060458D01*
X045375Y060652D01*
X045375Y060753D02*
X045568Y060753D01*
X045665Y060850D01*
X045568Y060946D01*
X045375Y060946D01*
X048575Y054841D02*
X048768Y054841D01*
X048865Y054744D01*
X048768Y054648D01*
X048575Y054648D01*
X048623Y054546D02*
X048575Y054498D01*
X048575Y054401D01*
X048623Y054353D01*
X048623Y054546D02*
X048672Y054546D01*
X048865Y054353D01*
X048865Y054546D01*
X048865Y054252D02*
X048865Y054058D01*
X048865Y054155D02*
X048575Y054155D01*
X048672Y054058D01*
X048623Y051641D02*
X048575Y051593D01*
X048575Y051448D01*
X048865Y051448D01*
X048865Y051593D01*
X048817Y051641D01*
X048623Y051641D01*
X048575Y051346D02*
X048865Y051346D01*
X048575Y051153D01*
X048865Y051153D01*
X048817Y051052D02*
X048720Y051052D01*
X048720Y050955D01*
X048817Y050858D02*
X048865Y050907D01*
X048865Y051003D01*
X048817Y051052D01*
X048817Y050858D02*
X048623Y050858D01*
X048575Y050907D01*
X048575Y051003D01*
X048623Y051052D01*
X045665Y051207D02*
X045617Y051158D01*
X045665Y051207D02*
X045665Y051303D01*
X045617Y051352D01*
X045520Y051352D01*
X045472Y051303D01*
X045472Y051255D01*
X045520Y051158D01*
X045375Y051158D01*
X045375Y051352D01*
X045375Y051453D02*
X045568Y051453D01*
X045665Y051550D01*
X045568Y051646D01*
X045375Y051646D01*
X048575Y045541D02*
X048768Y045541D01*
X048865Y045444D01*
X048768Y045348D01*
X048575Y045348D01*
X048623Y045246D02*
X048575Y045198D01*
X048575Y045101D01*
X048623Y045053D01*
X048623Y045246D02*
X048672Y045246D01*
X048865Y045053D01*
X048865Y045246D01*
X048865Y044952D02*
X048865Y044758D01*
X048865Y044855D02*
X048575Y044855D01*
X048672Y044758D01*
X048623Y042341D02*
X048575Y042293D01*
X048575Y042148D01*
X048865Y042148D01*
X048865Y042293D01*
X048817Y042341D01*
X048623Y042341D01*
X048575Y042046D02*
X048865Y042046D01*
X048575Y041853D01*
X048865Y041853D01*
X048817Y041752D02*
X048720Y041752D01*
X048720Y041655D01*
X048817Y041558D02*
X048865Y041607D01*
X048865Y041703D01*
X048817Y041752D01*
X048817Y041558D02*
X048623Y041558D01*
X048575Y041607D01*
X048575Y041703D01*
X048623Y041752D01*
X045665Y041907D02*
X045617Y041858D01*
X045665Y041907D02*
X045665Y042003D01*
X045617Y042052D01*
X045520Y042052D01*
X045472Y042003D01*
X045472Y041955D01*
X045520Y041858D01*
X045375Y041858D01*
X045375Y042052D01*
X045375Y042153D02*
X045568Y042153D01*
X045665Y042250D01*
X045568Y042346D01*
X045375Y042346D01*
X048575Y036241D02*
X048768Y036241D01*
X048865Y036144D01*
X048768Y036048D01*
X048575Y036048D01*
X048623Y035946D02*
X048575Y035898D01*
X048575Y035801D01*
X048623Y035753D01*
X048623Y035946D02*
X048672Y035946D01*
X048865Y035753D01*
X048865Y035946D01*
X048865Y035652D02*
X048865Y035458D01*
X048865Y035555D02*
X048575Y035555D01*
X048672Y035458D01*
X048623Y033041D02*
X048575Y032993D01*
X048575Y032848D01*
X048865Y032848D01*
X048865Y032993D01*
X048817Y033041D01*
X048623Y033041D01*
X048575Y032746D02*
X048865Y032746D01*
X048575Y032553D01*
X048865Y032553D01*
X048817Y032452D02*
X048720Y032452D01*
X048720Y032355D01*
X048817Y032258D02*
X048865Y032307D01*
X048865Y032403D01*
X048817Y032452D01*
X048817Y032258D02*
X048623Y032258D01*
X048575Y032307D01*
X048575Y032403D01*
X048623Y032452D01*
X045665Y032607D02*
X045617Y032558D01*
X045665Y032607D02*
X045665Y032703D01*
X045617Y032752D01*
X045520Y032752D01*
X045472Y032703D01*
X045472Y032655D01*
X045520Y032558D01*
X045375Y032558D01*
X045375Y032752D01*
X045375Y032853D02*
X045568Y032853D01*
X045665Y032950D01*
X045568Y033046D01*
X045375Y033046D01*
X048575Y026941D02*
X048768Y026941D01*
X048865Y026844D01*
X048768Y026748D01*
X048575Y026748D01*
X048623Y026646D02*
X048575Y026598D01*
X048575Y026501D01*
X048623Y026453D01*
X048623Y026646D02*
X048672Y026646D01*
X048865Y026453D01*
X048865Y026646D01*
X048865Y026352D02*
X048865Y026158D01*
X048865Y026255D02*
X048575Y026255D01*
X048672Y026158D01*
X048623Y023741D02*
X048575Y023693D01*
X048575Y023548D01*
X048865Y023548D01*
X048865Y023693D01*
X048817Y023741D01*
X048623Y023741D01*
X048575Y023446D02*
X048865Y023446D01*
X048575Y023253D01*
X048865Y023253D01*
X048817Y023152D02*
X048720Y023152D01*
X048720Y023055D01*
X048817Y022958D02*
X048865Y023007D01*
X048865Y023103D01*
X048817Y023152D01*
X048817Y022958D02*
X048623Y022958D01*
X048575Y023007D01*
X048575Y023103D01*
X048623Y023152D01*
X045665Y023307D02*
X045617Y023258D01*
X045665Y023307D02*
X045665Y023403D01*
X045617Y023452D01*
X045520Y023452D01*
X045472Y023403D01*
X045472Y023355D01*
X045520Y023258D01*
X045375Y023258D01*
X045375Y023452D01*
X045375Y023553D02*
X045568Y023553D01*
X045665Y023650D01*
X045568Y023746D01*
X045375Y023746D01*
X048575Y017641D02*
X048768Y017641D01*
X048865Y017544D01*
X048768Y017448D01*
X048575Y017448D01*
X048623Y017346D02*
X048575Y017298D01*
X048575Y017201D01*
X048623Y017153D01*
X048623Y017346D02*
X048672Y017346D01*
X048865Y017153D01*
X048865Y017346D01*
X048865Y017052D02*
X048865Y016858D01*
X048865Y016955D02*
X048575Y016955D01*
X048672Y016858D01*
X048623Y014441D02*
X048575Y014393D01*
X048575Y014248D01*
X048865Y014248D01*
X048865Y014393D01*
X048817Y014441D01*
X048623Y014441D01*
X048575Y014146D02*
X048865Y014146D01*
X048575Y013953D01*
X048865Y013953D01*
X048817Y013852D02*
X048720Y013852D01*
X048720Y013755D01*
X048817Y013658D02*
X048865Y013707D01*
X048865Y013803D01*
X048817Y013852D01*
X048817Y013658D02*
X048623Y013658D01*
X048575Y013707D01*
X048575Y013803D01*
X048623Y013852D01*
X045665Y014007D02*
X045617Y013958D01*
X045665Y014007D02*
X045665Y014103D01*
X045617Y014152D01*
X045520Y014152D01*
X045472Y014103D01*
X045472Y014055D01*
X045520Y013958D01*
X045375Y013958D01*
X045375Y014152D01*
X045375Y014253D02*
X045568Y014253D01*
X045665Y014350D01*
X045568Y014446D01*
X045375Y014446D01*
X039565Y014393D02*
X039517Y014441D01*
X039323Y014441D01*
X039275Y014393D01*
X039275Y014248D01*
X039565Y014248D01*
X039565Y014393D01*
X039565Y014146D02*
X039275Y014146D01*
X039275Y013953D02*
X039565Y014146D01*
X039565Y013953D02*
X039275Y013953D01*
X039323Y013852D02*
X039275Y013803D01*
X039275Y013707D01*
X039323Y013658D01*
X039517Y013658D01*
X039565Y013707D01*
X039565Y013803D01*
X039517Y013852D01*
X039420Y013852D01*
X039420Y013755D01*
X039372Y016858D02*
X039275Y016955D01*
X039565Y016955D01*
X039565Y016858D02*
X039565Y017052D01*
X039565Y017153D02*
X039372Y017346D01*
X039323Y017346D01*
X039275Y017298D01*
X039275Y017201D01*
X039323Y017153D01*
X039565Y017153D02*
X039565Y017346D01*
X039468Y017448D02*
X039565Y017544D01*
X039468Y017641D01*
X039275Y017641D01*
X039275Y017448D02*
X039468Y017448D01*
X036365Y014350D02*
X036268Y014446D01*
X036075Y014446D01*
X036075Y014253D02*
X036268Y014253D01*
X036365Y014350D01*
X036317Y014152D02*
X036365Y014103D01*
X036365Y014007D01*
X036317Y013958D01*
X036220Y013958D02*
X036172Y014055D01*
X036172Y014103D01*
X036220Y014152D01*
X036317Y014152D01*
X036220Y013958D02*
X036075Y013958D01*
X036075Y014152D01*
X036075Y023258D02*
X036220Y023258D01*
X036172Y023355D01*
X036172Y023403D01*
X036220Y023452D01*
X036317Y023452D01*
X036365Y023403D01*
X036365Y023307D01*
X036317Y023258D01*
X036075Y023258D02*
X036075Y023452D01*
X036075Y023553D02*
X036268Y023553D01*
X036365Y023650D01*
X036268Y023746D01*
X036075Y023746D01*
X039275Y023693D02*
X039275Y023548D01*
X039565Y023548D01*
X039565Y023693D01*
X039517Y023741D01*
X039323Y023741D01*
X039275Y023693D01*
X039275Y023446D02*
X039565Y023446D01*
X039275Y023253D01*
X039565Y023253D01*
X039517Y023152D02*
X039420Y023152D01*
X039420Y023055D01*
X039517Y022958D02*
X039565Y023007D01*
X039565Y023103D01*
X039517Y023152D01*
X039517Y022958D02*
X039323Y022958D01*
X039275Y023007D01*
X039275Y023103D01*
X039323Y023152D01*
X039372Y026158D02*
X039275Y026255D01*
X039565Y026255D01*
X039565Y026158D02*
X039565Y026352D01*
X039565Y026453D02*
X039372Y026646D01*
X039323Y026646D01*
X039275Y026598D01*
X039275Y026501D01*
X039323Y026453D01*
X039565Y026453D02*
X039565Y026646D01*
X039468Y026748D02*
X039565Y026844D01*
X039468Y026941D01*
X039275Y026941D01*
X039275Y026748D02*
X039468Y026748D01*
X039517Y032258D02*
X039565Y032307D01*
X039565Y032403D01*
X039517Y032452D01*
X039420Y032452D01*
X039420Y032355D01*
X039323Y032258D02*
X039517Y032258D01*
X039323Y032258D02*
X039275Y032307D01*
X039275Y032403D01*
X039323Y032452D01*
X039275Y032553D02*
X039565Y032746D01*
X039275Y032746D01*
X039275Y032848D02*
X039275Y032993D01*
X039323Y033041D01*
X039517Y033041D01*
X039565Y032993D01*
X039565Y032848D01*
X039275Y032848D01*
X039275Y032553D02*
X039565Y032553D01*
X039565Y035458D02*
X039565Y035652D01*
X039565Y035555D02*
X039275Y035555D01*
X039372Y035458D01*
X039323Y035753D02*
X039275Y035801D01*
X039275Y035898D01*
X039323Y035946D01*
X039372Y035946D01*
X039565Y035753D01*
X039565Y035946D01*
X039468Y036048D02*
X039565Y036144D01*
X039468Y036241D01*
X039275Y036241D01*
X039275Y036048D02*
X039468Y036048D01*
X036365Y032950D02*
X036268Y033046D01*
X036075Y033046D01*
X036075Y032853D02*
X036268Y032853D01*
X036365Y032950D01*
X036317Y032752D02*
X036365Y032703D01*
X036365Y032607D01*
X036317Y032558D01*
X036220Y032558D02*
X036172Y032655D01*
X036172Y032703D01*
X036220Y032752D01*
X036317Y032752D01*
X036220Y032558D02*
X036075Y032558D01*
X036075Y032752D01*
X039323Y041558D02*
X039517Y041558D01*
X039565Y041607D01*
X039565Y041703D01*
X039517Y041752D01*
X039420Y041752D01*
X039420Y041655D01*
X039323Y041558D02*
X039275Y041607D01*
X039275Y041703D01*
X039323Y041752D01*
X039275Y041853D02*
X039565Y042046D01*
X039275Y042046D01*
X039275Y042148D02*
X039275Y042293D01*
X039323Y042341D01*
X039517Y042341D01*
X039565Y042293D01*
X039565Y042148D01*
X039275Y042148D01*
X039275Y041853D02*
X039565Y041853D01*
X039565Y044758D02*
X039565Y044952D01*
X039565Y044855D02*
X039275Y044855D01*
X039372Y044758D01*
X039323Y045053D02*
X039275Y045101D01*
X039275Y045198D01*
X039323Y045246D01*
X039372Y045246D01*
X039565Y045053D01*
X039565Y045246D01*
X039468Y045348D02*
X039565Y045444D01*
X039468Y045541D01*
X039275Y045541D01*
X039275Y045348D02*
X039468Y045348D01*
X036365Y042250D02*
X036268Y042346D01*
X036075Y042346D01*
X036075Y042153D02*
X036268Y042153D01*
X036365Y042250D01*
X036317Y042052D02*
X036365Y042003D01*
X036365Y041907D01*
X036317Y041858D01*
X036220Y041858D02*
X036172Y041955D01*
X036172Y042003D01*
X036220Y042052D01*
X036317Y042052D01*
X036220Y041858D02*
X036075Y041858D01*
X036075Y042052D01*
X036075Y051158D02*
X036220Y051158D01*
X036172Y051255D01*
X036172Y051303D01*
X036220Y051352D01*
X036317Y051352D01*
X036365Y051303D01*
X036365Y051207D01*
X036317Y051158D01*
X036075Y051158D02*
X036075Y051352D01*
X036075Y051453D02*
X036268Y051453D01*
X036365Y051550D01*
X036268Y051646D01*
X036075Y051646D01*
X039275Y051593D02*
X039275Y051448D01*
X039565Y051448D01*
X039565Y051593D01*
X039517Y051641D01*
X039323Y051641D01*
X039275Y051593D01*
X039275Y051346D02*
X039565Y051346D01*
X039275Y051153D01*
X039565Y051153D01*
X039517Y051052D02*
X039420Y051052D01*
X039420Y050955D01*
X039517Y050858D02*
X039565Y050907D01*
X039565Y051003D01*
X039517Y051052D01*
X039517Y050858D02*
X039323Y050858D01*
X039275Y050907D01*
X039275Y051003D01*
X039323Y051052D01*
X039372Y054058D02*
X039275Y054155D01*
X039565Y054155D01*
X039565Y054058D02*
X039565Y054252D01*
X039565Y054353D02*
X039372Y054546D01*
X039323Y054546D01*
X039275Y054498D01*
X039275Y054401D01*
X039323Y054353D01*
X039565Y054353D02*
X039565Y054546D01*
X039468Y054648D02*
X039565Y054744D01*
X039468Y054841D01*
X039275Y054841D01*
X039275Y054648D02*
X039468Y054648D01*
D11*
X021798Y014567D02*
X021951Y014413D01*
X022105Y014567D01*
X022105Y014874D01*
X021798Y014874D02*
X021798Y014567D01*
X022258Y014337D02*
X022565Y014337D01*
X022719Y014413D02*
X022719Y014874D01*
X022872Y014720D01*
X023026Y014874D01*
X023026Y014413D01*
X023179Y014490D02*
X023256Y014413D01*
X023409Y014413D01*
X023486Y014490D01*
X023486Y014797D01*
X023409Y014874D01*
X023256Y014874D01*
X023179Y014797D01*
X023179Y014490D01*
X023640Y014874D02*
X023947Y014874D01*
X023793Y014874D02*
X023793Y014413D01*
X025258Y014413D02*
X025489Y014413D01*
X025565Y014490D01*
X025565Y014797D01*
X025489Y014874D01*
X025258Y014874D01*
X025258Y014413D01*
X025719Y014490D02*
X025796Y014413D01*
X025949Y014413D01*
X026026Y014490D01*
X026026Y014874D01*
X026179Y014874D02*
X026333Y014720D01*
X026486Y014874D01*
X026486Y014413D01*
X026640Y014413D02*
X026870Y014413D01*
X026947Y014490D01*
X026947Y014567D01*
X026870Y014644D01*
X026640Y014644D01*
X026640Y014874D02*
X026870Y014874D01*
X026947Y014797D01*
X026947Y014720D01*
X026870Y014644D01*
X026640Y014413D02*
X026640Y014874D01*
X026179Y014874D02*
X026179Y014413D01*
X025719Y014490D02*
X025719Y014874D01*
X028519Y014797D02*
X028519Y014490D01*
X028596Y014413D01*
X028749Y014413D01*
X028826Y014490D01*
X028826Y014644D01*
X028672Y014644D01*
X028519Y014797D02*
X028596Y014874D01*
X028749Y014874D01*
X028826Y014797D01*
X028979Y014874D02*
X029286Y014413D01*
X029286Y014874D01*
X029440Y014874D02*
X029670Y014874D01*
X029747Y014797D01*
X029747Y014490D01*
X029670Y014413D01*
X029440Y014413D01*
X029440Y014874D01*
X028979Y014874D02*
X028979Y014413D01*
X028979Y020613D02*
X028979Y021074D01*
X029286Y020613D01*
X029286Y021074D01*
X029440Y021074D02*
X029670Y021074D01*
X029747Y020997D01*
X029747Y020690D01*
X029670Y020613D01*
X029440Y020613D01*
X029440Y021074D01*
X028826Y020997D02*
X028749Y021074D01*
X028596Y021074D01*
X028519Y020997D01*
X028519Y020690D01*
X028596Y020613D01*
X028749Y020613D01*
X028826Y020690D01*
X028826Y020844D01*
X028672Y020844D01*
X026947Y020920D02*
X026870Y020844D01*
X026640Y020844D01*
X026640Y021074D02*
X026870Y021074D01*
X026947Y020997D01*
X026947Y020920D01*
X026870Y020844D02*
X026947Y020767D01*
X026947Y020690D01*
X026870Y020613D01*
X026640Y020613D01*
X026640Y021074D01*
X026486Y021074D02*
X026486Y020613D01*
X026179Y020613D02*
X026179Y021074D01*
X026333Y020920D01*
X026486Y021074D01*
X026026Y021074D02*
X026026Y020690D01*
X025949Y020613D01*
X025796Y020613D01*
X025719Y020690D01*
X025719Y021074D01*
X025565Y020997D02*
X025489Y021074D01*
X025258Y021074D01*
X025258Y020613D01*
X025489Y020613D01*
X025565Y020690D01*
X025565Y020997D01*
X023947Y021074D02*
X023640Y021074D01*
X023793Y021074D02*
X023793Y020613D01*
X023486Y020690D02*
X023486Y020997D01*
X023409Y021074D01*
X023256Y021074D01*
X023179Y020997D01*
X023179Y020690D01*
X023256Y020613D01*
X023409Y020613D01*
X023486Y020690D01*
X023026Y020613D02*
X023026Y021074D01*
X022872Y020920D01*
X022719Y021074D01*
X022719Y020613D01*
X022565Y020537D02*
X022258Y020537D01*
X022105Y020767D02*
X022105Y021074D01*
X021798Y021074D02*
X021798Y020767D01*
X021951Y020613D01*
X022105Y020767D01*
X022258Y026737D02*
X022565Y026737D01*
X022719Y026813D02*
X022719Y027274D01*
X022872Y027120D01*
X023026Y027274D01*
X023026Y026813D01*
X023179Y026890D02*
X023256Y026813D01*
X023409Y026813D01*
X023486Y026890D01*
X023486Y027197D01*
X023409Y027274D01*
X023256Y027274D01*
X023179Y027197D01*
X023179Y026890D01*
X023640Y027274D02*
X023947Y027274D01*
X023793Y027274D02*
X023793Y026813D01*
X025258Y026813D02*
X025489Y026813D01*
X025565Y026890D01*
X025565Y027197D01*
X025489Y027274D01*
X025258Y027274D01*
X025258Y026813D01*
X025719Y026890D02*
X025796Y026813D01*
X025949Y026813D01*
X026026Y026890D01*
X026026Y027274D01*
X026179Y027274D02*
X026333Y027120D01*
X026486Y027274D01*
X026486Y026813D01*
X026640Y026813D02*
X026870Y026813D01*
X026947Y026890D01*
X026947Y026967D01*
X026870Y027044D01*
X026640Y027044D01*
X026640Y027274D02*
X026870Y027274D01*
X026947Y027197D01*
X026947Y027120D01*
X026870Y027044D01*
X026640Y026813D02*
X026640Y027274D01*
X026179Y027274D02*
X026179Y026813D01*
X025719Y026890D02*
X025719Y027274D01*
X028519Y027197D02*
X028519Y026890D01*
X028596Y026813D01*
X028749Y026813D01*
X028826Y026890D01*
X028826Y027044D01*
X028672Y027044D01*
X028519Y027197D02*
X028596Y027274D01*
X028749Y027274D01*
X028826Y027197D01*
X028979Y027274D02*
X029286Y026813D01*
X029286Y027274D01*
X029440Y027274D02*
X029670Y027274D01*
X029747Y027197D01*
X029747Y026890D01*
X029670Y026813D01*
X029440Y026813D01*
X029440Y027274D01*
X028979Y027274D02*
X028979Y026813D01*
X028979Y033113D02*
X028979Y033574D01*
X029286Y033113D01*
X029286Y033574D01*
X029440Y033574D02*
X029440Y033113D01*
X029670Y033113D01*
X029747Y033190D01*
X029747Y033497D01*
X029670Y033574D01*
X029440Y033574D01*
X028826Y033497D02*
X028749Y033574D01*
X028596Y033574D01*
X028519Y033497D01*
X028519Y033190D01*
X028596Y033113D01*
X028749Y033113D01*
X028826Y033190D01*
X028826Y033344D01*
X028672Y033344D01*
X026947Y033420D02*
X026870Y033344D01*
X026640Y033344D01*
X026640Y033574D02*
X026870Y033574D01*
X026947Y033497D01*
X026947Y033420D01*
X026870Y033344D02*
X026947Y033267D01*
X026947Y033190D01*
X026870Y033113D01*
X026640Y033113D01*
X026640Y033574D01*
X026486Y033574D02*
X026486Y033113D01*
X026179Y033113D02*
X026179Y033574D01*
X026333Y033420D01*
X026486Y033574D01*
X026026Y033574D02*
X026026Y033190D01*
X025949Y033113D01*
X025796Y033113D01*
X025719Y033190D01*
X025719Y033574D01*
X025565Y033497D02*
X025489Y033574D01*
X025258Y033574D01*
X025258Y033113D01*
X025489Y033113D01*
X025565Y033190D01*
X025565Y033497D01*
X023947Y033574D02*
X023640Y033574D01*
X023793Y033574D02*
X023793Y033113D01*
X023486Y033190D02*
X023409Y033113D01*
X023256Y033113D01*
X023179Y033190D01*
X023179Y033497D01*
X023256Y033574D01*
X023409Y033574D01*
X023486Y033497D01*
X023486Y033190D01*
X023026Y033113D02*
X023026Y033574D01*
X022872Y033420D01*
X022719Y033574D01*
X022719Y033113D01*
X022565Y033037D02*
X022258Y033037D01*
X022105Y033267D02*
X021951Y033113D01*
X021798Y033267D01*
X021798Y033574D01*
X022105Y033574D02*
X022105Y033267D01*
X022105Y027274D02*
X022105Y026967D01*
X021951Y026813D01*
X021798Y026967D01*
X021798Y027274D01*
X022258Y070137D02*
X022565Y070137D01*
X022719Y070213D02*
X022719Y070674D01*
X022872Y070520D01*
X023026Y070674D01*
X023026Y070213D01*
X023179Y070290D02*
X023256Y070213D01*
X023409Y070213D01*
X023486Y070290D01*
X023486Y070597D01*
X023409Y070674D01*
X023256Y070674D01*
X023179Y070597D01*
X023179Y070290D01*
X023640Y070674D02*
X023947Y070674D01*
X023793Y070674D02*
X023793Y070213D01*
X025258Y070213D02*
X025489Y070213D01*
X025565Y070290D01*
X025565Y070597D01*
X025489Y070674D01*
X025258Y070674D01*
X025258Y070213D01*
X025719Y070290D02*
X025719Y070674D01*
X026026Y070674D02*
X026026Y070290D01*
X025949Y070213D01*
X025796Y070213D01*
X025719Y070290D01*
X026179Y070213D02*
X026179Y070674D01*
X026333Y070520D01*
X026486Y070674D01*
X026486Y070213D01*
X026640Y070213D02*
X026870Y070213D01*
X026947Y070290D01*
X026947Y070367D01*
X026870Y070444D01*
X026640Y070444D01*
X026640Y070674D02*
X026640Y070213D01*
X026870Y070444D02*
X026947Y070520D01*
X026947Y070597D01*
X026870Y070674D01*
X026640Y070674D01*
X028519Y070597D02*
X028519Y070290D01*
X028596Y070213D01*
X028749Y070213D01*
X028826Y070290D01*
X028826Y070444D01*
X028672Y070444D01*
X028519Y070597D02*
X028596Y070674D01*
X028749Y070674D01*
X028826Y070597D01*
X028979Y070674D02*
X029286Y070213D01*
X029286Y070674D01*
X029440Y070674D02*
X029440Y070213D01*
X029670Y070213D01*
X029747Y070290D01*
X029747Y070597D01*
X029670Y070674D01*
X029440Y070674D01*
X028979Y070674D02*
X028979Y070213D01*
X028979Y076413D02*
X028979Y076874D01*
X029286Y076413D01*
X029286Y076874D01*
X029440Y076874D02*
X029670Y076874D01*
X029747Y076797D01*
X029747Y076490D01*
X029670Y076413D01*
X029440Y076413D01*
X029440Y076874D01*
X028826Y076797D02*
X028749Y076874D01*
X028596Y076874D01*
X028519Y076797D01*
X028519Y076490D01*
X028596Y076413D01*
X028749Y076413D01*
X028826Y076490D01*
X028826Y076644D01*
X028672Y076644D01*
X026947Y076720D02*
X026870Y076644D01*
X026640Y076644D01*
X026640Y076874D02*
X026870Y076874D01*
X026947Y076797D01*
X026947Y076720D01*
X026870Y076644D02*
X026947Y076567D01*
X026947Y076490D01*
X026870Y076413D01*
X026640Y076413D01*
X026640Y076874D01*
X026486Y076874D02*
X026486Y076413D01*
X026179Y076413D02*
X026179Y076874D01*
X026333Y076720D01*
X026486Y076874D01*
X026026Y076874D02*
X026026Y076490D01*
X025949Y076413D01*
X025796Y076413D01*
X025719Y076490D01*
X025719Y076874D01*
X025565Y076797D02*
X025489Y076874D01*
X025258Y076874D01*
X025258Y076413D01*
X025489Y076413D01*
X025565Y076490D01*
X025565Y076797D01*
X023947Y076874D02*
X023640Y076874D01*
X023793Y076874D02*
X023793Y076413D01*
X023486Y076490D02*
X023486Y076797D01*
X023409Y076874D01*
X023256Y076874D01*
X023179Y076797D01*
X023179Y076490D01*
X023256Y076413D01*
X023409Y076413D01*
X023486Y076490D01*
X023026Y076413D02*
X023026Y076874D01*
X022872Y076720D01*
X022719Y076874D01*
X022719Y076413D01*
X022565Y076337D02*
X022258Y076337D01*
X022105Y076567D02*
X022105Y076874D01*
X021798Y076874D02*
X021798Y076567D01*
X021951Y076413D01*
X022105Y076567D01*
X022105Y070674D02*
X022105Y070367D01*
X021951Y070213D01*
X021798Y070367D01*
X021798Y070674D01*
X022258Y082537D02*
X022565Y082537D01*
X022719Y082613D02*
X022719Y083074D01*
X022872Y082920D01*
X023026Y083074D01*
X023026Y082613D01*
X023179Y082690D02*
X023256Y082613D01*
X023409Y082613D01*
X023486Y082690D01*
X023486Y082997D01*
X023409Y083074D01*
X023256Y083074D01*
X023179Y082997D01*
X023179Y082690D01*
X023640Y083074D02*
X023947Y083074D01*
X023793Y083074D02*
X023793Y082613D01*
X025258Y082613D02*
X025489Y082613D01*
X025565Y082690D01*
X025565Y082997D01*
X025489Y083074D01*
X025258Y083074D01*
X025258Y082613D01*
X025719Y082690D02*
X025796Y082613D01*
X025949Y082613D01*
X026026Y082690D01*
X026026Y083074D01*
X026179Y083074D02*
X026333Y082920D01*
X026486Y083074D01*
X026486Y082613D01*
X026640Y082613D02*
X026870Y082613D01*
X026947Y082690D01*
X026947Y082767D01*
X026870Y082844D01*
X026640Y082844D01*
X026640Y083074D02*
X026870Y083074D01*
X026947Y082997D01*
X026947Y082920D01*
X026870Y082844D01*
X026640Y082613D02*
X026640Y083074D01*
X026179Y083074D02*
X026179Y082613D01*
X025719Y082690D02*
X025719Y083074D01*
X028519Y082997D02*
X028519Y082690D01*
X028596Y082613D01*
X028749Y082613D01*
X028826Y082690D01*
X028826Y082844D01*
X028672Y082844D01*
X028519Y082997D02*
X028596Y083074D01*
X028749Y083074D01*
X028826Y082997D01*
X028979Y083074D02*
X029286Y082613D01*
X029286Y083074D01*
X029440Y083074D02*
X029670Y083074D01*
X029747Y082997D01*
X029747Y082690D01*
X029670Y082613D01*
X029440Y082613D01*
X029440Y083074D01*
X028979Y083074D02*
X028979Y082613D01*
X028979Y088813D02*
X028979Y089274D01*
X029286Y088813D01*
X029286Y089274D01*
X029440Y089274D02*
X029670Y089274D01*
X029747Y089197D01*
X029747Y088890D01*
X029670Y088813D01*
X029440Y088813D01*
X029440Y089274D01*
X028826Y089197D02*
X028749Y089274D01*
X028596Y089274D01*
X028519Y089197D01*
X028519Y088890D01*
X028596Y088813D01*
X028749Y088813D01*
X028826Y088890D01*
X028826Y089044D01*
X028672Y089044D01*
X026947Y089120D02*
X026870Y089044D01*
X026640Y089044D01*
X026640Y089274D02*
X026870Y089274D01*
X026947Y089197D01*
X026947Y089120D01*
X026870Y089044D02*
X026947Y088967D01*
X026947Y088890D01*
X026870Y088813D01*
X026640Y088813D01*
X026640Y089274D01*
X026486Y089274D02*
X026486Y088813D01*
X026179Y088813D02*
X026179Y089274D01*
X026333Y089120D01*
X026486Y089274D01*
X026026Y089274D02*
X026026Y088890D01*
X025949Y088813D01*
X025796Y088813D01*
X025719Y088890D01*
X025719Y089274D01*
X025565Y089197D02*
X025489Y089274D01*
X025258Y089274D01*
X025258Y088813D01*
X025489Y088813D01*
X025565Y088890D01*
X025565Y089197D01*
X023947Y089274D02*
X023640Y089274D01*
X023793Y089274D02*
X023793Y088813D01*
X023486Y088890D02*
X023486Y089197D01*
X023409Y089274D01*
X023256Y089274D01*
X023179Y089197D01*
X023179Y088890D01*
X023256Y088813D01*
X023409Y088813D01*
X023486Y088890D01*
X023026Y088813D02*
X023026Y089274D01*
X022872Y089120D01*
X022719Y089274D01*
X022719Y088813D01*
X022565Y088737D02*
X022258Y088737D01*
X022105Y088967D02*
X022105Y089274D01*
X021798Y089274D02*
X021798Y088967D01*
X021951Y088813D01*
X022105Y088967D01*
X022105Y083074D02*
X022105Y082767D01*
X021951Y082613D01*
X021798Y082767D01*
X021798Y083074D01*
M02*
