G75*
%MOIN*%
%OFA0B0*%
%FSLAX24Y24*%
%IPPOS*%
%LPD*%
%AMOC8*
5,1,8,0,0,1.08239X$1,22.5*
%
%ADD10C,0.2000*%
%ADD11C,0.0160*%
%ADD12C,0.2000*%
D10*
X011430Y019143D03*
X014530Y019143D03*
X014530Y025343D03*
X011430Y025343D03*
X011430Y031543D03*
X014530Y031543D03*
X014530Y037743D03*
X011430Y037743D03*
X011430Y043943D03*
X014530Y043943D03*
X014530Y050143D03*
X011430Y050143D03*
X011430Y056343D03*
X014530Y056343D03*
X014530Y062543D03*
X011430Y062543D03*
X011430Y068743D03*
X014530Y068743D03*
X014530Y074943D03*
X011430Y074943D03*
X022930Y071843D03*
X022930Y078043D03*
X022930Y084243D03*
X022930Y090443D03*
X029130Y090443D03*
X029130Y084243D03*
X029130Y078043D03*
X029130Y071843D03*
X029430Y063793D03*
X029430Y060693D03*
X026330Y060693D03*
X029430Y054493D03*
X029430Y051393D03*
X026330Y051393D03*
X029430Y045193D03*
X029430Y042093D03*
X026330Y042093D03*
X029130Y034743D03*
X029130Y028443D03*
X029130Y022243D03*
X029130Y016043D03*
X022930Y016043D03*
X022930Y022243D03*
X022930Y028443D03*
X022930Y034743D03*
X037530Y032793D03*
X040630Y032793D03*
X040630Y035893D03*
X040630Y042093D03*
X040630Y045193D03*
X037530Y042093D03*
X037530Y051393D03*
X040630Y051393D03*
X040630Y054493D03*
X040630Y060693D03*
X040630Y063793D03*
X037530Y060693D03*
X037530Y069993D03*
X040630Y069993D03*
X040630Y073093D03*
X040630Y079293D03*
X040630Y082393D03*
X037530Y079293D03*
X037530Y088593D03*
X040630Y088593D03*
X040630Y091693D03*
X046830Y088593D03*
X049930Y088593D03*
X049930Y091693D03*
X049930Y082393D03*
X049930Y079293D03*
X046830Y079293D03*
X049930Y073093D03*
X049930Y069993D03*
X046830Y069993D03*
X049930Y063793D03*
X049930Y060693D03*
X046830Y060693D03*
X049930Y054493D03*
X049930Y051393D03*
X046830Y051393D03*
X049930Y045193D03*
X049930Y042093D03*
X046830Y042093D03*
X049930Y035893D03*
X049930Y032793D03*
X046830Y032793D03*
X049930Y026593D03*
X049930Y023493D03*
X046830Y023493D03*
X049930Y017293D03*
X049930Y014193D03*
X046830Y014193D03*
X040630Y014193D03*
X040630Y017293D03*
X037530Y014193D03*
X037530Y023493D03*
X040630Y023493D03*
X040630Y026593D03*
D11*
X009660Y009673D02*
X009660Y096213D01*
X055700Y096213D01*
X055700Y009673D01*
X009660Y009673D01*
X009660Y009827D02*
X055700Y009827D01*
X055700Y009986D02*
X009660Y009986D01*
X009660Y010144D02*
X055700Y010144D01*
X055700Y010303D02*
X009660Y010303D01*
X009660Y010461D02*
X012154Y010461D01*
X012167Y010454D02*
X012505Y010363D01*
X012855Y010363D01*
X013193Y010454D01*
X013497Y010629D01*
X013744Y010877D01*
X013919Y011180D01*
X014010Y011518D01*
X014010Y011868D01*
X013919Y012207D01*
X013744Y012510D01*
X013497Y012758D01*
X013193Y012933D01*
X012855Y013023D01*
X012505Y013023D01*
X012167Y012933D01*
X011863Y012758D01*
X011616Y012510D01*
X011441Y012207D01*
X011350Y011868D01*
X011350Y011518D01*
X011441Y011180D01*
X011616Y010877D01*
X011863Y010629D01*
X012167Y010454D01*
X011879Y010620D02*
X009660Y010620D01*
X009660Y010778D02*
X011714Y010778D01*
X011581Y010937D02*
X009660Y010937D01*
X009660Y011095D02*
X011490Y011095D01*
X011421Y011254D02*
X009660Y011254D01*
X009660Y011412D02*
X011378Y011412D01*
X011350Y011571D02*
X009660Y011571D01*
X009660Y011729D02*
X011350Y011729D01*
X011355Y011888D02*
X009660Y011888D01*
X009660Y012046D02*
X011398Y012046D01*
X011440Y012205D02*
X009660Y012205D01*
X009660Y012363D02*
X011531Y012363D01*
X011628Y012522D02*
X009660Y012522D01*
X009660Y012680D02*
X011786Y012680D01*
X012004Y012839D02*
X009660Y012839D01*
X009660Y012997D02*
X012408Y012997D01*
X012952Y012997D02*
X032908Y012997D01*
X033005Y013023D02*
X032667Y012933D01*
X032363Y012758D01*
X032116Y012510D01*
X031941Y012207D01*
X031850Y011868D01*
X031850Y011518D01*
X031941Y011180D01*
X032116Y010877D01*
X032363Y010629D01*
X032667Y010454D01*
X033005Y010363D01*
X033355Y010363D01*
X033693Y010454D01*
X033997Y010629D01*
X034244Y010877D01*
X034419Y011180D01*
X034510Y011518D01*
X034510Y011868D01*
X034419Y012207D01*
X034244Y012510D01*
X033997Y012758D01*
X033693Y012933D01*
X033355Y013023D01*
X033005Y013023D01*
X033452Y012997D02*
X053408Y012997D01*
X053505Y013023D02*
X053167Y012933D01*
X052863Y012758D01*
X052616Y012510D01*
X052441Y012207D01*
X052350Y011868D01*
X052350Y011518D01*
X052441Y011180D01*
X052616Y010877D01*
X052863Y010629D01*
X053167Y010454D01*
X053505Y010363D01*
X053855Y010363D01*
X054193Y010454D01*
X054497Y010629D01*
X054744Y010877D01*
X054919Y011180D01*
X055010Y011518D01*
X055010Y011868D01*
X054919Y012207D01*
X054744Y012510D01*
X054497Y012758D01*
X054193Y012933D01*
X053855Y013023D01*
X053505Y013023D01*
X053952Y012997D02*
X055700Y012997D01*
X055700Y012839D02*
X054356Y012839D01*
X054574Y012680D02*
X055700Y012680D01*
X055700Y012522D02*
X054732Y012522D01*
X054829Y012363D02*
X055700Y012363D01*
X055700Y012205D02*
X054920Y012205D01*
X054962Y012046D02*
X055700Y012046D01*
X055700Y011888D02*
X055005Y011888D01*
X055010Y011729D02*
X055700Y011729D01*
X055700Y011571D02*
X055010Y011571D01*
X054982Y011412D02*
X055700Y011412D01*
X055700Y011254D02*
X054939Y011254D01*
X054870Y011095D02*
X055700Y011095D01*
X055700Y010937D02*
X054779Y010937D01*
X054646Y010778D02*
X055700Y010778D01*
X055700Y010620D02*
X054481Y010620D01*
X054206Y010461D02*
X055700Y010461D01*
X053154Y010461D02*
X033706Y010461D01*
X033981Y010620D02*
X052879Y010620D01*
X052714Y010778D02*
X034146Y010778D01*
X034279Y010937D02*
X052581Y010937D01*
X052490Y011095D02*
X034370Y011095D01*
X034439Y011254D02*
X052421Y011254D01*
X052378Y011412D02*
X034482Y011412D01*
X034510Y011571D02*
X052350Y011571D01*
X052350Y011729D02*
X034510Y011729D01*
X034505Y011888D02*
X052355Y011888D01*
X052398Y012046D02*
X034462Y012046D01*
X034420Y012205D02*
X052440Y012205D01*
X052531Y012363D02*
X034329Y012363D01*
X034232Y012522D02*
X052628Y012522D01*
X052786Y012680D02*
X034074Y012680D01*
X033856Y012839D02*
X053004Y012839D01*
X055700Y013156D02*
X047353Y013156D01*
X047278Y013112D02*
X047542Y013265D01*
X047758Y013481D01*
X047911Y013746D01*
X047990Y014041D01*
X047990Y014346D01*
X047911Y014641D01*
X047758Y014906D01*
X047542Y015122D01*
X047278Y015274D01*
X046983Y015353D01*
X046677Y015353D01*
X046382Y015274D01*
X046118Y015122D01*
X045902Y014906D01*
X045749Y014641D01*
X045670Y014346D01*
X045670Y014041D01*
X045749Y013746D01*
X045902Y013481D01*
X046118Y013265D01*
X046382Y013112D01*
X046677Y013033D01*
X046983Y013033D01*
X047278Y013112D01*
X047591Y013314D02*
X055700Y013314D01*
X055700Y013473D02*
X047750Y013473D01*
X047845Y013631D02*
X055700Y013631D01*
X055700Y013790D02*
X047923Y013790D01*
X047965Y013948D02*
X055700Y013948D01*
X055700Y014107D02*
X047990Y014107D01*
X047990Y014265D02*
X055700Y014265D01*
X055700Y014424D02*
X047969Y014424D01*
X047927Y014582D02*
X055700Y014582D01*
X055700Y014741D02*
X047853Y014741D01*
X047762Y014899D02*
X055700Y014899D01*
X055700Y015058D02*
X047606Y015058D01*
X047378Y015216D02*
X055700Y015216D01*
X055700Y015375D02*
X038690Y015375D01*
X038690Y015533D02*
X055700Y015533D01*
X055700Y015692D02*
X038690Y015692D01*
X038690Y015850D02*
X055700Y015850D01*
X055700Y016009D02*
X038690Y016009D01*
X038690Y016167D02*
X040350Y016167D01*
X040477Y016133D02*
X040783Y016133D01*
X041078Y016212D01*
X041342Y016365D01*
X041558Y016581D01*
X041711Y016846D01*
X041790Y017141D01*
X041790Y017446D01*
X041711Y017741D01*
X041558Y018006D01*
X041342Y018222D01*
X041078Y018374D01*
X040783Y018453D01*
X040477Y018453D01*
X040182Y018374D01*
X039918Y018222D01*
X039702Y018006D01*
X039549Y017741D01*
X039470Y017446D01*
X039470Y017141D01*
X039549Y016846D01*
X039702Y016581D01*
X039918Y016365D01*
X040182Y016212D01*
X040477Y016133D01*
X040910Y016167D02*
X049650Y016167D01*
X049777Y016133D02*
X050083Y016133D01*
X050378Y016212D01*
X050642Y016365D01*
X050858Y016581D01*
X051011Y016846D01*
X051090Y017141D01*
X051090Y017446D01*
X051011Y017741D01*
X050858Y018006D01*
X050642Y018222D01*
X050378Y018374D01*
X050083Y018453D01*
X049777Y018453D01*
X049482Y018374D01*
X049218Y018222D01*
X049002Y018006D01*
X048849Y017741D01*
X048770Y017446D01*
X048770Y017141D01*
X048849Y016846D01*
X049002Y016581D01*
X049218Y016365D01*
X049482Y016212D01*
X049777Y016133D01*
X050210Y016167D02*
X055700Y016167D01*
X055700Y016326D02*
X050574Y016326D01*
X050761Y016484D02*
X055700Y016484D01*
X055700Y016643D02*
X050894Y016643D01*
X050985Y016801D02*
X055700Y016801D01*
X055700Y016960D02*
X051042Y016960D01*
X051084Y017118D02*
X055700Y017118D01*
X055700Y017277D02*
X051090Y017277D01*
X051090Y017435D02*
X055700Y017435D01*
X055700Y017594D02*
X051050Y017594D01*
X051004Y017752D02*
X055700Y017752D01*
X055700Y017911D02*
X050913Y017911D01*
X050794Y018069D02*
X055700Y018069D01*
X055700Y018228D02*
X050631Y018228D01*
X050333Y018386D02*
X055700Y018386D01*
X055700Y018545D02*
X038690Y018545D01*
X038690Y018703D02*
X055700Y018703D01*
X055700Y018862D02*
X038690Y018862D01*
X038690Y019020D02*
X055700Y019020D01*
X055700Y019179D02*
X038690Y019179D01*
X038690Y019337D02*
X055700Y019337D01*
X055700Y019496D02*
X038690Y019496D01*
X038690Y019654D02*
X055700Y019654D01*
X055700Y019813D02*
X038690Y019813D01*
X038690Y019971D02*
X055700Y019971D01*
X055700Y020130D02*
X038690Y020130D01*
X038690Y020288D02*
X055700Y020288D01*
X055700Y020447D02*
X038690Y020447D01*
X038690Y020605D02*
X055700Y020605D01*
X055700Y020764D02*
X038690Y020764D01*
X038690Y020922D02*
X055700Y020922D01*
X055700Y021081D02*
X038690Y021081D01*
X038690Y021239D02*
X055700Y021239D01*
X055700Y021398D02*
X038690Y021398D01*
X038690Y021556D02*
X055700Y021556D01*
X055700Y021715D02*
X038690Y021715D01*
X038690Y021873D02*
X055700Y021873D01*
X055700Y022032D02*
X038690Y022032D01*
X038690Y022190D02*
X055700Y022190D01*
X055700Y022349D02*
X047041Y022349D01*
X046983Y022333D02*
X047278Y022412D01*
X047542Y022565D01*
X047758Y022781D01*
X047911Y023046D01*
X047990Y023341D01*
X047990Y032946D01*
X047911Y033241D01*
X047758Y033506D01*
X047542Y033722D01*
X047278Y033874D01*
X046983Y033953D01*
X046677Y033953D01*
X046382Y033874D01*
X046118Y033722D01*
X045902Y033506D01*
X045749Y033241D01*
X045670Y032946D01*
X045670Y023341D01*
X045749Y023046D01*
X045902Y022781D01*
X046118Y022565D01*
X046382Y022412D01*
X046677Y022333D01*
X046983Y022333D01*
X046619Y022349D02*
X038690Y022349D01*
X038690Y022507D02*
X046218Y022507D01*
X046017Y022666D02*
X038690Y022666D01*
X038690Y022824D02*
X045877Y022824D01*
X045785Y022983D02*
X038690Y022983D01*
X038690Y023141D02*
X045723Y023141D01*
X045681Y023300D02*
X038690Y023300D01*
X038690Y023458D02*
X045670Y023458D01*
X045670Y023617D02*
X038690Y023617D01*
X038690Y023646D02*
X038611Y023941D01*
X038458Y024206D01*
X038242Y024422D01*
X037978Y024574D01*
X037683Y024653D01*
X037377Y024653D01*
X037082Y024574D01*
X036818Y024422D01*
X036602Y024206D01*
X036449Y023941D01*
X036370Y023646D01*
X036370Y014041D01*
X036449Y013746D01*
X036602Y013481D01*
X036818Y013265D01*
X037082Y013112D01*
X037377Y013033D01*
X037683Y013033D01*
X037978Y013112D01*
X038242Y013265D01*
X038458Y013481D01*
X038611Y013746D01*
X038690Y014041D01*
X038690Y023646D01*
X038655Y023775D02*
X045670Y023775D01*
X045670Y023934D02*
X038613Y023934D01*
X038524Y024092D02*
X045670Y024092D01*
X045670Y024251D02*
X038413Y024251D01*
X038254Y024409D02*
X045670Y024409D01*
X045670Y024568D02*
X037989Y024568D01*
X037071Y024568D02*
X015395Y024568D01*
X015458Y024631D02*
X015242Y024415D01*
X014978Y024262D01*
X014683Y024183D01*
X014377Y024183D01*
X014082Y024262D01*
X013818Y024415D01*
X013602Y024631D01*
X013449Y024896D01*
X013370Y025191D01*
X013370Y025496D01*
X013449Y025791D01*
X013602Y026056D01*
X013818Y026272D01*
X014082Y026424D01*
X014377Y026503D01*
X014683Y026503D01*
X014978Y026424D01*
X015242Y026272D01*
X015458Y026056D01*
X015611Y025791D01*
X015690Y025496D01*
X015690Y025191D01*
X015611Y024896D01*
X015458Y024631D01*
X015513Y024726D02*
X045670Y024726D01*
X045670Y024885D02*
X015605Y024885D01*
X015651Y025043D02*
X045670Y025043D01*
X045670Y025202D02*
X015690Y025202D01*
X015690Y025360D02*
X045670Y025360D01*
X045670Y025519D02*
X041089Y025519D01*
X041078Y025512D02*
X041342Y025665D01*
X041558Y025881D01*
X041711Y026146D01*
X041790Y026441D01*
X041790Y026746D01*
X041711Y027041D01*
X041558Y027306D01*
X041342Y027522D01*
X041078Y027674D01*
X040783Y027753D01*
X040477Y027753D01*
X040182Y027674D01*
X039918Y027522D01*
X039702Y027306D01*
X039549Y027041D01*
X039470Y026746D01*
X039470Y026441D01*
X039549Y026146D01*
X039702Y025881D01*
X039918Y025665D01*
X040182Y025512D01*
X040477Y025433D01*
X040783Y025433D01*
X041078Y025512D01*
X041355Y025677D02*
X045670Y025677D01*
X045670Y025836D02*
X041513Y025836D01*
X041624Y025994D02*
X045670Y025994D01*
X045670Y026153D02*
X041713Y026153D01*
X041755Y026311D02*
X045670Y026311D01*
X045670Y026470D02*
X041790Y026470D01*
X041790Y026628D02*
X045670Y026628D01*
X045670Y026787D02*
X041779Y026787D01*
X041737Y026945D02*
X045670Y026945D01*
X045670Y027104D02*
X041675Y027104D01*
X041583Y027262D02*
X045670Y027262D01*
X045670Y027421D02*
X041443Y027421D01*
X041242Y027579D02*
X045670Y027579D01*
X045670Y027738D02*
X040840Y027738D01*
X040420Y027738D02*
X023862Y027738D01*
X023858Y027731D02*
X024011Y027996D01*
X024090Y028291D01*
X024090Y028596D01*
X024011Y028891D01*
X023858Y029156D01*
X023642Y029372D01*
X023378Y029524D01*
X023083Y029603D01*
X022777Y029603D01*
X022482Y029524D01*
X022218Y029372D01*
X022002Y029156D01*
X021849Y028891D01*
X021770Y028596D01*
X021770Y028291D01*
X021849Y027996D01*
X022002Y027731D01*
X022218Y027515D01*
X022482Y027362D01*
X022777Y027283D01*
X023083Y027283D01*
X023378Y027362D01*
X023642Y027515D01*
X023858Y027731D01*
X023954Y027896D02*
X045670Y027896D01*
X045670Y028055D02*
X024027Y028055D01*
X024069Y028213D02*
X045670Y028213D01*
X045670Y028372D02*
X024090Y028372D01*
X024090Y028530D02*
X045670Y028530D01*
X045670Y028689D02*
X024065Y028689D01*
X024023Y028847D02*
X045670Y028847D01*
X045670Y029006D02*
X023945Y029006D01*
X023849Y029164D02*
X045670Y029164D01*
X045670Y029323D02*
X023691Y029323D01*
X023452Y029481D02*
X045670Y029481D01*
X045670Y029640D02*
X015418Y029640D01*
X015343Y029683D02*
X015005Y029773D01*
X014655Y029773D01*
X014317Y029683D01*
X014013Y029508D01*
X013766Y029260D01*
X013591Y028957D01*
X013500Y028618D01*
X013500Y028268D01*
X013591Y027930D01*
X013766Y027627D01*
X014013Y027379D01*
X014317Y027204D01*
X014655Y027113D01*
X015005Y027113D01*
X015343Y027204D01*
X015647Y027379D01*
X015894Y027627D01*
X016069Y027930D01*
X016160Y028268D01*
X016160Y028618D01*
X016069Y028957D01*
X015894Y029260D01*
X015647Y029508D01*
X015343Y029683D01*
X015673Y029481D02*
X022408Y029481D01*
X022169Y029323D02*
X015831Y029323D01*
X015949Y029164D02*
X022011Y029164D01*
X021915Y029006D02*
X016041Y029006D01*
X016099Y028847D02*
X021837Y028847D01*
X021795Y028689D02*
X016141Y028689D01*
X016160Y028530D02*
X021770Y028530D01*
X021770Y028372D02*
X016160Y028372D01*
X016145Y028213D02*
X021791Y028213D01*
X021833Y028055D02*
X016103Y028055D01*
X016050Y027896D02*
X021906Y027896D01*
X021998Y027738D02*
X015958Y027738D01*
X015847Y027579D02*
X022153Y027579D01*
X022381Y027421D02*
X015688Y027421D01*
X015444Y027262D02*
X039677Y027262D01*
X039585Y027104D02*
X009660Y027104D01*
X009660Y027262D02*
X011116Y027262D01*
X011217Y027204D02*
X011555Y027113D01*
X011905Y027113D01*
X012243Y027204D01*
X012547Y027379D01*
X012794Y027627D01*
X012969Y027930D01*
X013060Y028268D01*
X013060Y028618D01*
X012969Y028957D01*
X012794Y029260D01*
X012547Y029508D01*
X012243Y029683D01*
X011905Y029773D01*
X011555Y029773D01*
X011217Y029683D01*
X010913Y029508D01*
X010666Y029260D01*
X010491Y028957D01*
X010400Y028618D01*
X010400Y028268D01*
X010491Y027930D01*
X010666Y027627D01*
X010913Y027379D01*
X011217Y027204D01*
X010872Y027421D02*
X009660Y027421D01*
X009660Y027579D02*
X010713Y027579D01*
X010602Y027738D02*
X009660Y027738D01*
X009660Y027896D02*
X010510Y027896D01*
X010457Y028055D02*
X009660Y028055D01*
X009660Y028213D02*
X010415Y028213D01*
X010400Y028372D02*
X009660Y028372D01*
X009660Y028530D02*
X010400Y028530D01*
X010419Y028689D02*
X009660Y028689D01*
X009660Y028847D02*
X010461Y028847D01*
X010519Y029006D02*
X009660Y029006D01*
X009660Y029164D02*
X010611Y029164D01*
X010729Y029323D02*
X009660Y029323D01*
X009660Y029481D02*
X010887Y029481D01*
X011142Y029640D02*
X009660Y029640D01*
X009660Y029798D02*
X045670Y029798D01*
X045670Y029957D02*
X009660Y029957D01*
X009660Y030115D02*
X045670Y030115D01*
X045670Y030274D02*
X009660Y030274D01*
X009660Y030432D02*
X014194Y030432D01*
X014082Y030462D02*
X014377Y030383D01*
X014683Y030383D01*
X014978Y030462D01*
X015242Y030615D01*
X015458Y030831D01*
X015611Y031096D01*
X015690Y031391D01*
X015690Y031696D01*
X015611Y031991D01*
X015458Y032256D01*
X015242Y032472D01*
X014978Y032624D01*
X014683Y032703D01*
X014377Y032703D01*
X014082Y032624D01*
X013818Y032472D01*
X013602Y032256D01*
X013449Y031991D01*
X013370Y031696D01*
X013370Y031391D01*
X013449Y031096D01*
X013602Y030831D01*
X013818Y030615D01*
X014082Y030462D01*
X013860Y030591D02*
X009660Y030591D01*
X009660Y030749D02*
X013683Y030749D01*
X013557Y030908D02*
X009660Y030908D01*
X009660Y031066D02*
X013466Y031066D01*
X013414Y031225D02*
X009660Y031225D01*
X009660Y031383D02*
X013372Y031383D01*
X013370Y031542D02*
X009660Y031542D01*
X009660Y031700D02*
X013371Y031700D01*
X013414Y031859D02*
X009660Y031859D01*
X009660Y032017D02*
X013464Y032017D01*
X013556Y032176D02*
X009660Y032176D01*
X009660Y032334D02*
X013681Y032334D01*
X013855Y032493D02*
X009660Y032493D01*
X009660Y032651D02*
X014183Y032651D01*
X014877Y032651D02*
X036370Y032651D01*
X036370Y032641D02*
X036449Y032346D01*
X036602Y032081D01*
X036818Y031865D01*
X037082Y031712D01*
X037377Y031633D01*
X037683Y031633D01*
X037978Y031712D01*
X038242Y031865D01*
X038458Y032081D01*
X038611Y032346D01*
X038690Y032641D01*
X038690Y042246D01*
X038611Y042541D01*
X038458Y042806D01*
X038242Y043022D01*
X037978Y043174D01*
X037683Y043253D01*
X037377Y043253D01*
X037082Y043174D01*
X036818Y043022D01*
X036602Y042806D01*
X036449Y042541D01*
X036370Y042246D01*
X036370Y032641D01*
X036410Y032493D02*
X015205Y032493D01*
X015379Y032334D02*
X036456Y032334D01*
X036547Y032176D02*
X015504Y032176D01*
X015596Y032017D02*
X036665Y032017D01*
X036829Y031859D02*
X015646Y031859D01*
X015689Y031700D02*
X037127Y031700D01*
X037933Y031700D02*
X045670Y031700D01*
X045670Y031542D02*
X015690Y031542D01*
X015688Y031383D02*
X045670Y031383D01*
X045670Y031225D02*
X015646Y031225D01*
X015594Y031066D02*
X045670Y031066D01*
X045670Y030908D02*
X015503Y030908D01*
X015377Y030749D02*
X045670Y030749D01*
X045670Y030591D02*
X015200Y030591D01*
X014866Y030432D02*
X045670Y030432D01*
X045670Y031859D02*
X038231Y031859D01*
X038395Y032017D02*
X045670Y032017D01*
X045670Y032176D02*
X038513Y032176D01*
X038604Y032334D02*
X045670Y032334D01*
X045670Y032493D02*
X038650Y032493D01*
X038690Y032651D02*
X045670Y032651D01*
X045670Y032810D02*
X038690Y032810D01*
X038690Y032968D02*
X045676Y032968D01*
X045718Y033127D02*
X038690Y033127D01*
X038690Y033285D02*
X045775Y033285D01*
X045866Y033444D02*
X038690Y033444D01*
X038690Y033602D02*
X045999Y033602D01*
X046186Y033761D02*
X038690Y033761D01*
X038690Y033919D02*
X046551Y033919D01*
X047109Y033919D02*
X055700Y033919D01*
X055700Y033761D02*
X047474Y033761D01*
X047661Y033602D02*
X055700Y033602D01*
X055700Y033444D02*
X047794Y033444D01*
X047885Y033285D02*
X055700Y033285D01*
X055700Y033127D02*
X047942Y033127D01*
X047984Y032968D02*
X055700Y032968D01*
X055700Y032810D02*
X047990Y032810D01*
X047990Y032651D02*
X055700Y032651D01*
X055700Y032493D02*
X047990Y032493D01*
X047990Y032334D02*
X055700Y032334D01*
X055700Y032176D02*
X047990Y032176D01*
X047990Y032017D02*
X055700Y032017D01*
X055700Y031859D02*
X047990Y031859D01*
X047990Y031700D02*
X055700Y031700D01*
X055700Y031542D02*
X047990Y031542D01*
X047990Y031383D02*
X055700Y031383D01*
X055700Y031225D02*
X047990Y031225D01*
X047990Y031066D02*
X055700Y031066D01*
X055700Y030908D02*
X047990Y030908D01*
X047990Y030749D02*
X055700Y030749D01*
X055700Y030591D02*
X047990Y030591D01*
X047990Y030432D02*
X055700Y030432D01*
X055700Y030274D02*
X047990Y030274D01*
X047990Y030115D02*
X055700Y030115D01*
X055700Y029957D02*
X047990Y029957D01*
X047990Y029798D02*
X055700Y029798D01*
X055700Y029640D02*
X047990Y029640D01*
X047990Y029481D02*
X055700Y029481D01*
X055700Y029323D02*
X047990Y029323D01*
X047990Y029164D02*
X055700Y029164D01*
X055700Y029006D02*
X047990Y029006D01*
X047990Y028847D02*
X055700Y028847D01*
X055700Y028689D02*
X047990Y028689D01*
X047990Y028530D02*
X055700Y028530D01*
X055700Y028372D02*
X047990Y028372D01*
X047990Y028213D02*
X055700Y028213D01*
X055700Y028055D02*
X047990Y028055D01*
X047990Y027896D02*
X055700Y027896D01*
X055700Y027738D02*
X050140Y027738D01*
X050083Y027753D02*
X049777Y027753D01*
X049482Y027674D01*
X049218Y027522D01*
X049002Y027306D01*
X048849Y027041D01*
X048770Y026746D01*
X048770Y026441D01*
X048849Y026146D01*
X049002Y025881D01*
X049218Y025665D01*
X049482Y025512D01*
X049777Y025433D01*
X050083Y025433D01*
X050378Y025512D01*
X050642Y025665D01*
X050858Y025881D01*
X051011Y026146D01*
X051090Y026441D01*
X051090Y026746D01*
X051011Y027041D01*
X050858Y027306D01*
X050642Y027522D01*
X050378Y027674D01*
X050083Y027753D01*
X049720Y027738D02*
X047990Y027738D01*
X047990Y027579D02*
X049318Y027579D01*
X049117Y027421D02*
X047990Y027421D01*
X047990Y027262D02*
X048977Y027262D01*
X048885Y027104D02*
X047990Y027104D01*
X047990Y026945D02*
X048823Y026945D01*
X048781Y026787D02*
X047990Y026787D01*
X047990Y026628D02*
X048770Y026628D01*
X048770Y026470D02*
X047990Y026470D01*
X047990Y026311D02*
X048805Y026311D01*
X048847Y026153D02*
X047990Y026153D01*
X047990Y025994D02*
X048936Y025994D01*
X049047Y025836D02*
X047990Y025836D01*
X047990Y025677D02*
X049205Y025677D01*
X049471Y025519D02*
X047990Y025519D01*
X047990Y025360D02*
X055700Y025360D01*
X055700Y025202D02*
X047990Y025202D01*
X047990Y025043D02*
X055700Y025043D01*
X055700Y024885D02*
X047990Y024885D01*
X047990Y024726D02*
X055700Y024726D01*
X055700Y024568D02*
X047990Y024568D01*
X047990Y024409D02*
X055700Y024409D01*
X055700Y024251D02*
X047990Y024251D01*
X047990Y024092D02*
X055700Y024092D01*
X055700Y023934D02*
X047990Y023934D01*
X047990Y023775D02*
X055700Y023775D01*
X055700Y023617D02*
X047990Y023617D01*
X047990Y023458D02*
X055700Y023458D01*
X055700Y023300D02*
X047979Y023300D01*
X047937Y023141D02*
X055700Y023141D01*
X055700Y022983D02*
X047875Y022983D01*
X047783Y022824D02*
X055700Y022824D01*
X055700Y022666D02*
X047643Y022666D01*
X047442Y022507D02*
X055700Y022507D01*
X055700Y025519D02*
X050389Y025519D01*
X050655Y025677D02*
X055700Y025677D01*
X055700Y025836D02*
X050813Y025836D01*
X050924Y025994D02*
X055700Y025994D01*
X055700Y026153D02*
X051013Y026153D01*
X051055Y026311D02*
X055700Y026311D01*
X055700Y026470D02*
X051090Y026470D01*
X051090Y026628D02*
X055700Y026628D01*
X055700Y026787D02*
X051079Y026787D01*
X051037Y026945D02*
X055700Y026945D01*
X055700Y027104D02*
X050975Y027104D01*
X050883Y027262D02*
X055700Y027262D01*
X055700Y027421D02*
X050743Y027421D01*
X050542Y027579D02*
X055700Y027579D01*
X055700Y034078D02*
X038690Y034078D01*
X038690Y034236D02*
X055700Y034236D01*
X055700Y034395D02*
X038690Y034395D01*
X038690Y034553D02*
X055700Y034553D01*
X055700Y034712D02*
X038690Y034712D01*
X038690Y034870D02*
X040082Y034870D01*
X040182Y034812D02*
X040477Y034733D01*
X040783Y034733D01*
X041078Y034812D01*
X041342Y034965D01*
X041558Y035181D01*
X041711Y035446D01*
X041790Y035741D01*
X041790Y036046D01*
X041711Y036341D01*
X041558Y036606D01*
X041342Y036822D01*
X041078Y036974D01*
X040783Y037053D01*
X040477Y037053D01*
X040182Y036974D01*
X039918Y036822D01*
X039702Y036606D01*
X039549Y036341D01*
X039470Y036046D01*
X039470Y035741D01*
X039549Y035446D01*
X039702Y035181D01*
X039918Y034965D01*
X040182Y034812D01*
X039854Y035029D02*
X038690Y035029D01*
X038690Y035187D02*
X039698Y035187D01*
X039607Y035346D02*
X038690Y035346D01*
X038690Y035504D02*
X039533Y035504D01*
X039491Y035663D02*
X038690Y035663D01*
X038690Y035821D02*
X039470Y035821D01*
X039470Y035980D02*
X038690Y035980D01*
X038690Y036138D02*
X039495Y036138D01*
X039537Y036297D02*
X038690Y036297D01*
X038690Y036455D02*
X039615Y036455D01*
X039710Y036614D02*
X038690Y036614D01*
X038690Y036772D02*
X039869Y036772D01*
X040107Y036931D02*
X038690Y036931D01*
X038690Y037089D02*
X055700Y037089D01*
X055700Y036931D02*
X050453Y036931D01*
X050378Y036974D02*
X050083Y037053D01*
X049777Y037053D01*
X049482Y036974D01*
X049218Y036822D01*
X049002Y036606D01*
X048849Y036341D01*
X048770Y036046D01*
X048770Y035741D01*
X048849Y035446D01*
X049002Y035181D01*
X049218Y034965D01*
X049482Y034812D01*
X049777Y034733D01*
X050083Y034733D01*
X050378Y034812D01*
X050642Y034965D01*
X050858Y035181D01*
X051011Y035446D01*
X051090Y035741D01*
X051090Y036046D01*
X051011Y036341D01*
X050858Y036606D01*
X050642Y036822D01*
X050378Y036974D01*
X050691Y036772D02*
X055700Y036772D01*
X055700Y036614D02*
X050850Y036614D01*
X050945Y036455D02*
X055700Y036455D01*
X055700Y036297D02*
X051023Y036297D01*
X051065Y036138D02*
X055700Y036138D01*
X055700Y035980D02*
X051090Y035980D01*
X051090Y035821D02*
X055700Y035821D01*
X055700Y035663D02*
X051069Y035663D01*
X051027Y035504D02*
X055700Y035504D01*
X055700Y035346D02*
X050953Y035346D01*
X050862Y035187D02*
X055700Y035187D01*
X055700Y035029D02*
X050706Y035029D01*
X050478Y034870D02*
X055700Y034870D01*
X055700Y037248D02*
X038690Y037248D01*
X038690Y037406D02*
X055700Y037406D01*
X055700Y037565D02*
X038690Y037565D01*
X038690Y037723D02*
X055700Y037723D01*
X055700Y037882D02*
X038690Y037882D01*
X038690Y038040D02*
X055700Y038040D01*
X055700Y038199D02*
X038690Y038199D01*
X038690Y038357D02*
X055700Y038357D01*
X055700Y038516D02*
X038690Y038516D01*
X038690Y038674D02*
X055700Y038674D01*
X055700Y038833D02*
X038690Y038833D01*
X038690Y038991D02*
X055700Y038991D01*
X055700Y039150D02*
X038690Y039150D01*
X038690Y039308D02*
X055700Y039308D01*
X055700Y039467D02*
X038690Y039467D01*
X038690Y039625D02*
X055700Y039625D01*
X055700Y039784D02*
X038690Y039784D01*
X038690Y039942D02*
X055700Y039942D01*
X055700Y040101D02*
X038690Y040101D01*
X038690Y040259D02*
X055700Y040259D01*
X055700Y040418D02*
X038690Y040418D01*
X038690Y040576D02*
X055700Y040576D01*
X055700Y040735D02*
X038690Y040735D01*
X038690Y040893D02*
X055700Y040893D01*
X055700Y041052D02*
X047346Y041052D01*
X047278Y041012D02*
X047542Y041165D01*
X047758Y041381D01*
X047911Y041646D01*
X047990Y041941D01*
X047990Y051546D01*
X047911Y051841D01*
X047758Y052106D01*
X047542Y052322D01*
X047278Y052474D01*
X046983Y052553D01*
X046677Y052553D01*
X046382Y052474D01*
X046118Y052322D01*
X045902Y052106D01*
X045749Y051841D01*
X045670Y051546D01*
X045670Y041941D01*
X045749Y041646D01*
X045902Y041381D01*
X046118Y041165D01*
X046382Y041012D01*
X046677Y040933D01*
X046983Y040933D01*
X047278Y041012D01*
X047588Y041210D02*
X055700Y041210D01*
X055700Y041369D02*
X047746Y041369D01*
X047843Y041527D02*
X055700Y041527D01*
X055700Y041686D02*
X047922Y041686D01*
X047964Y041844D02*
X055700Y041844D01*
X055700Y042003D02*
X047990Y042003D01*
X047990Y042161D02*
X055700Y042161D01*
X055700Y042320D02*
X047990Y042320D01*
X047990Y042478D02*
X055700Y042478D01*
X055700Y042637D02*
X047990Y042637D01*
X047990Y042795D02*
X055700Y042795D01*
X055700Y042954D02*
X047990Y042954D01*
X047990Y043112D02*
X055700Y043112D01*
X055700Y043271D02*
X047990Y043271D01*
X047990Y043429D02*
X055700Y043429D01*
X055700Y043588D02*
X047990Y043588D01*
X047990Y043746D02*
X055700Y043746D01*
X055700Y043905D02*
X047990Y043905D01*
X047990Y044063D02*
X049665Y044063D01*
X049777Y044033D02*
X050083Y044033D01*
X050378Y044112D01*
X050642Y044265D01*
X050858Y044481D01*
X051011Y044746D01*
X051090Y045041D01*
X051090Y045346D01*
X051011Y045641D01*
X050858Y045906D01*
X050642Y046122D01*
X050378Y046274D01*
X050083Y046353D01*
X049777Y046353D01*
X049482Y046274D01*
X049218Y046122D01*
X049002Y045906D01*
X048849Y045641D01*
X048770Y045346D01*
X048770Y045041D01*
X048849Y044746D01*
X049002Y044481D01*
X049218Y044265D01*
X049482Y044112D01*
X049777Y044033D01*
X050195Y044063D02*
X055700Y044063D01*
X055700Y044222D02*
X050567Y044222D01*
X050758Y044380D02*
X055700Y044380D01*
X055700Y044539D02*
X050892Y044539D01*
X050983Y044697D02*
X055700Y044697D01*
X055700Y044856D02*
X051041Y044856D01*
X051083Y045014D02*
X055700Y045014D01*
X055700Y045173D02*
X051090Y045173D01*
X051090Y045331D02*
X055700Y045331D01*
X055700Y045490D02*
X051051Y045490D01*
X051007Y045648D02*
X055700Y045648D01*
X055700Y045807D02*
X050915Y045807D01*
X050798Y045965D02*
X055700Y045965D01*
X055700Y046124D02*
X050638Y046124D01*
X050347Y046282D02*
X055700Y046282D01*
X055700Y046441D02*
X047990Y046441D01*
X047990Y046599D02*
X055700Y046599D01*
X055700Y046758D02*
X047990Y046758D01*
X047990Y046916D02*
X055700Y046916D01*
X055700Y047075D02*
X047990Y047075D01*
X047990Y047233D02*
X055700Y047233D01*
X055700Y047392D02*
X047990Y047392D01*
X047990Y047550D02*
X055700Y047550D01*
X055700Y047709D02*
X047990Y047709D01*
X047990Y047867D02*
X055700Y047867D01*
X055700Y048026D02*
X047990Y048026D01*
X047990Y048184D02*
X055700Y048184D01*
X055700Y048343D02*
X047990Y048343D01*
X047990Y048501D02*
X055700Y048501D01*
X055700Y048660D02*
X047990Y048660D01*
X047990Y048818D02*
X055700Y048818D01*
X055700Y048977D02*
X047990Y048977D01*
X047990Y049135D02*
X055700Y049135D01*
X055700Y049294D02*
X047990Y049294D01*
X047990Y049452D02*
X055700Y049452D01*
X055700Y049611D02*
X047990Y049611D01*
X047990Y049769D02*
X055700Y049769D01*
X055700Y049928D02*
X047990Y049928D01*
X047990Y050086D02*
X055700Y050086D01*
X055700Y050245D02*
X047990Y050245D01*
X047990Y050403D02*
X055700Y050403D01*
X055700Y050562D02*
X047990Y050562D01*
X047990Y050720D02*
X055700Y050720D01*
X055700Y050879D02*
X047990Y050879D01*
X047990Y051037D02*
X055700Y051037D01*
X055700Y051196D02*
X047990Y051196D01*
X047990Y051354D02*
X055700Y051354D01*
X055700Y051513D02*
X047990Y051513D01*
X047956Y051671D02*
X053288Y051671D01*
X053167Y051704D02*
X053505Y051613D01*
X053855Y051613D01*
X054193Y051704D01*
X054497Y051879D01*
X054744Y052127D01*
X054919Y052430D01*
X055010Y052768D01*
X055010Y053118D01*
X054919Y053457D01*
X054744Y053760D01*
X054497Y054008D01*
X054193Y054183D01*
X053855Y054273D01*
X053505Y054273D01*
X053167Y054183D01*
X052863Y054008D01*
X052616Y053760D01*
X052441Y053457D01*
X052350Y053118D01*
X052350Y052768D01*
X052441Y052430D01*
X052616Y052127D01*
X052863Y051879D01*
X053167Y051704D01*
X052949Y051830D02*
X047914Y051830D01*
X047826Y051988D02*
X052754Y051988D01*
X052604Y052147D02*
X047717Y052147D01*
X047558Y052305D02*
X052513Y052305D01*
X052432Y052464D02*
X047296Y052464D01*
X046364Y052464D02*
X038690Y052464D01*
X038690Y052622D02*
X052389Y052622D01*
X052350Y052781D02*
X038690Y052781D01*
X038690Y052939D02*
X052350Y052939D01*
X052350Y053098D02*
X038690Y053098D01*
X038690Y053256D02*
X052387Y053256D01*
X052429Y053415D02*
X050382Y053415D01*
X050378Y053412D02*
X050642Y053565D01*
X050858Y053781D01*
X051011Y054046D01*
X051090Y054341D01*
X051090Y054646D01*
X051011Y054941D01*
X050858Y055206D01*
X050642Y055422D01*
X050378Y055574D01*
X050083Y055653D01*
X049777Y055653D01*
X049482Y055574D01*
X049218Y055422D01*
X049002Y055206D01*
X048849Y054941D01*
X048770Y054646D01*
X048770Y054341D01*
X048849Y054046D01*
X049002Y053781D01*
X049218Y053565D01*
X049482Y053412D01*
X049777Y053333D01*
X050083Y053333D01*
X050378Y053412D01*
X050651Y053573D02*
X052508Y053573D01*
X052600Y053732D02*
X050809Y053732D01*
X050921Y053890D02*
X052746Y053890D01*
X052935Y054049D02*
X051012Y054049D01*
X051054Y054207D02*
X053259Y054207D01*
X054101Y054207D02*
X055700Y054207D01*
X055700Y054049D02*
X054425Y054049D01*
X054614Y053890D02*
X055700Y053890D01*
X055700Y053732D02*
X054760Y053732D01*
X054852Y053573D02*
X055700Y053573D01*
X055700Y053415D02*
X054931Y053415D01*
X054973Y053256D02*
X055700Y053256D01*
X055700Y053098D02*
X055010Y053098D01*
X055010Y052939D02*
X055700Y052939D01*
X055700Y052781D02*
X055010Y052781D01*
X054971Y052622D02*
X055700Y052622D01*
X055700Y052464D02*
X054928Y052464D01*
X054847Y052305D02*
X055700Y052305D01*
X055700Y052147D02*
X054756Y052147D01*
X054606Y051988D02*
X055700Y051988D01*
X055700Y051830D02*
X054411Y051830D01*
X054072Y051671D02*
X055700Y051671D01*
X055700Y054366D02*
X051090Y054366D01*
X051090Y054524D02*
X055700Y054524D01*
X055700Y054683D02*
X051080Y054683D01*
X051038Y054841D02*
X055700Y054841D01*
X055700Y055000D02*
X050977Y055000D01*
X050885Y055158D02*
X055700Y055158D01*
X055700Y055317D02*
X050747Y055317D01*
X050549Y055475D02*
X055700Y055475D01*
X055700Y055634D02*
X050155Y055634D01*
X049705Y055634D02*
X040855Y055634D01*
X040783Y055653D02*
X040477Y055653D01*
X040182Y055574D01*
X039918Y055422D01*
X039702Y055206D01*
X039549Y054941D01*
X039470Y054646D01*
X039470Y054341D01*
X039549Y054046D01*
X039702Y053781D01*
X039918Y053565D01*
X040182Y053412D01*
X040477Y053333D01*
X040783Y053333D01*
X041078Y053412D01*
X041342Y053565D01*
X041558Y053781D01*
X041711Y054046D01*
X041790Y054341D01*
X041790Y054646D01*
X041711Y054941D01*
X041558Y055206D01*
X041342Y055422D01*
X041078Y055574D01*
X040783Y055653D01*
X040405Y055634D02*
X038690Y055634D01*
X038690Y055792D02*
X055700Y055792D01*
X055700Y055951D02*
X038690Y055951D01*
X038690Y056109D02*
X055700Y056109D01*
X055700Y056268D02*
X038690Y056268D01*
X038690Y056426D02*
X055700Y056426D01*
X055700Y056585D02*
X038690Y056585D01*
X038690Y056743D02*
X055700Y056743D01*
X055700Y056902D02*
X038690Y056902D01*
X038690Y057060D02*
X055700Y057060D01*
X055700Y057219D02*
X038690Y057219D01*
X038690Y057377D02*
X055700Y057377D01*
X055700Y057536D02*
X038690Y057536D01*
X038690Y057694D02*
X055700Y057694D01*
X055700Y057853D02*
X038690Y057853D01*
X038690Y058011D02*
X055700Y058011D01*
X055700Y058170D02*
X038690Y058170D01*
X038690Y058328D02*
X055700Y058328D01*
X055700Y058487D02*
X038690Y058487D01*
X038690Y058645D02*
X055700Y058645D01*
X055700Y058804D02*
X038690Y058804D01*
X038690Y058962D02*
X055700Y058962D01*
X055700Y059121D02*
X038690Y059121D01*
X038690Y059279D02*
X055700Y059279D01*
X055700Y059438D02*
X038690Y059438D01*
X038690Y059596D02*
X046442Y059596D01*
X046382Y059612D02*
X046677Y059533D01*
X046983Y059533D01*
X047278Y059612D01*
X047542Y059765D01*
X047758Y059981D01*
X047911Y060246D01*
X047990Y060541D01*
X047990Y070146D01*
X047911Y070441D01*
X047758Y070706D01*
X047542Y070922D01*
X047278Y071074D01*
X046983Y071153D01*
X046677Y071153D01*
X046382Y071074D01*
X046118Y070922D01*
X045902Y070706D01*
X045749Y070441D01*
X045670Y070146D01*
X045670Y060541D01*
X045749Y060246D01*
X045902Y059981D01*
X046118Y059765D01*
X046382Y059612D01*
X046135Y059755D02*
X038690Y059755D01*
X038690Y059913D02*
X045969Y059913D01*
X045849Y060072D02*
X038690Y060072D01*
X038690Y060230D02*
X045758Y060230D01*
X045711Y060389D02*
X038690Y060389D01*
X038690Y060547D02*
X045670Y060547D01*
X045670Y060706D02*
X038690Y060706D01*
X038690Y060846D02*
X038611Y061141D01*
X038458Y061406D01*
X038242Y061622D01*
X037978Y061774D01*
X037683Y061853D01*
X037377Y061853D01*
X037082Y061774D01*
X036818Y061622D01*
X036602Y061406D01*
X036449Y061141D01*
X036370Y060846D01*
X036370Y051241D01*
X036449Y050946D01*
X036602Y050681D01*
X036818Y050465D01*
X037082Y050312D01*
X037377Y050233D01*
X037683Y050233D01*
X037978Y050312D01*
X038242Y050465D01*
X038458Y050681D01*
X038611Y050946D01*
X038690Y051241D01*
X038690Y060846D01*
X038685Y060864D02*
X045670Y060864D01*
X045670Y061023D02*
X038643Y061023D01*
X038588Y061181D02*
X045670Y061181D01*
X045670Y061340D02*
X038496Y061340D01*
X038365Y061498D02*
X045670Y061498D01*
X045670Y061657D02*
X038181Y061657D01*
X037824Y061815D02*
X045670Y061815D01*
X045670Y061974D02*
X016301Y061974D01*
X016460Y062132D02*
X045670Y062132D01*
X045670Y062291D02*
X016618Y062291D01*
X016777Y062449D02*
X045670Y062449D01*
X045670Y062608D02*
X016935Y062608D01*
X017094Y062766D02*
X028889Y062766D01*
X028982Y062712D02*
X029277Y062633D01*
X029583Y062633D01*
X029878Y062712D01*
X030142Y062865D01*
X030358Y063081D01*
X034108Y066831D01*
X034261Y067096D01*
X034340Y067391D01*
X034340Y071846D01*
X034261Y072141D01*
X034108Y072406D01*
X033892Y072622D01*
X031108Y075406D01*
X030892Y075622D01*
X030628Y075774D01*
X030333Y075853D01*
X021527Y075853D01*
X021232Y075774D01*
X020968Y075622D01*
X020752Y075406D01*
X015250Y069903D01*
X014377Y069903D01*
X014082Y069824D01*
X013818Y069672D01*
X013602Y069456D01*
X013449Y069191D01*
X013370Y068896D01*
X013370Y068591D01*
X013449Y068296D01*
X013602Y068031D01*
X013818Y067815D01*
X014082Y067662D01*
X014377Y067583D01*
X015883Y067583D01*
X016178Y067662D01*
X016442Y067815D01*
X022160Y073533D01*
X029700Y073533D01*
X032020Y071213D01*
X032020Y068024D01*
X028718Y064722D01*
X028718Y064722D01*
X028502Y064506D01*
X028349Y064241D01*
X028270Y063946D01*
X028270Y063641D01*
X028349Y063346D01*
X028502Y063081D01*
X028718Y062865D01*
X028982Y062712D01*
X028658Y062925D02*
X017252Y062925D01*
X017411Y063083D02*
X028500Y063083D01*
X028409Y063242D02*
X017569Y063242D01*
X017728Y063400D02*
X028334Y063400D01*
X028292Y063559D02*
X017886Y063559D01*
X018045Y063717D02*
X028270Y063717D01*
X028270Y063876D02*
X018203Y063876D01*
X018362Y064034D02*
X028294Y064034D01*
X028336Y064193D02*
X018520Y064193D01*
X018679Y064351D02*
X028413Y064351D01*
X028506Y064510D02*
X018837Y064510D01*
X018996Y064668D02*
X028665Y064668D01*
X028823Y064827D02*
X019154Y064827D01*
X019313Y064985D02*
X028982Y064985D01*
X029140Y065144D02*
X019471Y065144D01*
X019630Y065302D02*
X029299Y065302D01*
X029457Y065461D02*
X019788Y065461D01*
X019947Y065619D02*
X029616Y065619D01*
X029774Y065778D02*
X020105Y065778D01*
X020264Y065936D02*
X029933Y065936D01*
X030091Y066095D02*
X020422Y066095D01*
X020581Y066253D02*
X030250Y066253D01*
X030408Y066412D02*
X020739Y066412D01*
X020898Y066570D02*
X030567Y066570D01*
X030725Y066729D02*
X021056Y066729D01*
X021215Y066887D02*
X030884Y066887D01*
X031042Y067046D02*
X021373Y067046D01*
X021532Y067204D02*
X031201Y067204D01*
X031359Y067363D02*
X021690Y067363D01*
X021849Y067521D02*
X031518Y067521D01*
X031676Y067680D02*
X022007Y067680D01*
X022166Y067838D02*
X031835Y067838D01*
X031993Y067997D02*
X022324Y067997D01*
X022483Y068155D02*
X032020Y068155D01*
X032020Y068314D02*
X022641Y068314D01*
X022800Y068472D02*
X032020Y068472D01*
X032020Y068631D02*
X022958Y068631D01*
X023117Y068789D02*
X032020Y068789D01*
X032020Y068948D02*
X023275Y068948D01*
X023434Y069106D02*
X032020Y069106D01*
X032020Y069265D02*
X023592Y069265D01*
X023642Y069315D02*
X023858Y069531D01*
X024011Y069796D01*
X024090Y070091D01*
X024090Y071996D01*
X024011Y072291D01*
X023858Y072556D01*
X023642Y072772D01*
X023378Y072924D01*
X023083Y073003D01*
X022777Y073003D01*
X022482Y072924D01*
X022218Y072772D01*
X022002Y072556D01*
X021849Y072291D01*
X021770Y071996D01*
X021770Y070724D01*
X015923Y064877D01*
X016069Y065130D01*
X016160Y065468D01*
X016160Y065818D01*
X016069Y066157D01*
X015894Y066460D01*
X015647Y066708D01*
X015343Y066883D01*
X015005Y066973D01*
X014655Y066973D01*
X014317Y066883D01*
X014013Y066708D01*
X013766Y066460D01*
X013591Y066157D01*
X013500Y065818D01*
X013500Y065468D01*
X013591Y065130D01*
X013766Y064827D01*
X012794Y064827D01*
X012969Y065130D01*
X013060Y065468D01*
X013060Y065818D01*
X012969Y066157D01*
X012794Y066460D01*
X012547Y066708D01*
X012243Y066883D01*
X011905Y066973D01*
X011555Y066973D01*
X011217Y066883D01*
X010913Y066708D01*
X010666Y066460D01*
X010491Y066157D01*
X010400Y065818D01*
X010400Y065468D01*
X010491Y065130D01*
X010666Y064827D01*
X009660Y064827D01*
X009660Y064985D02*
X010574Y064985D01*
X010487Y065144D02*
X009660Y065144D01*
X009660Y065302D02*
X010444Y065302D01*
X010402Y065461D02*
X009660Y065461D01*
X009660Y065619D02*
X010400Y065619D01*
X010400Y065778D02*
X009660Y065778D01*
X009660Y065936D02*
X010432Y065936D01*
X010474Y066095D02*
X009660Y066095D01*
X009660Y066253D02*
X010546Y066253D01*
X010638Y066412D02*
X009660Y066412D01*
X009660Y066570D02*
X010776Y066570D01*
X010950Y066729D02*
X009660Y066729D01*
X009660Y066887D02*
X011234Y066887D01*
X012226Y066887D02*
X014334Y066887D01*
X014050Y066729D02*
X012510Y066729D01*
X012684Y066570D02*
X013876Y066570D01*
X013738Y066412D02*
X012822Y066412D01*
X012914Y066253D02*
X013646Y066253D01*
X013574Y066095D02*
X012986Y066095D01*
X013028Y065936D02*
X013532Y065936D01*
X013500Y065778D02*
X013060Y065778D01*
X013060Y065619D02*
X013500Y065619D01*
X013502Y065461D02*
X013058Y065461D01*
X013016Y065302D02*
X013544Y065302D01*
X013587Y065144D02*
X012973Y065144D01*
X012886Y064985D02*
X013674Y064985D01*
X013766Y064827D02*
X014013Y064579D01*
X014317Y064404D01*
X014655Y064313D01*
X015005Y064313D01*
X015343Y064404D01*
X015596Y064550D01*
X014750Y063703D01*
X014377Y063703D01*
X014082Y063624D01*
X013818Y063472D01*
X013602Y063256D01*
X013449Y062991D01*
X013370Y062696D01*
X013370Y062391D01*
X013449Y062096D01*
X013602Y061831D01*
X013818Y061615D01*
X014082Y061462D01*
X014377Y061383D01*
X015383Y061383D01*
X015678Y061462D01*
X015942Y061615D01*
X023642Y069315D01*
X023751Y069423D02*
X032020Y069423D01*
X032020Y069582D02*
X023888Y069582D01*
X023979Y069740D02*
X032020Y069740D01*
X032020Y069899D02*
X024039Y069899D01*
X024081Y070057D02*
X032020Y070057D01*
X032020Y070216D02*
X024090Y070216D01*
X024090Y070374D02*
X032020Y070374D01*
X032020Y070533D02*
X024090Y070533D01*
X024090Y070691D02*
X032020Y070691D01*
X032020Y070850D02*
X024090Y070850D01*
X024090Y071008D02*
X032020Y071008D01*
X032020Y071167D02*
X024090Y071167D01*
X024090Y071325D02*
X031907Y071325D01*
X031749Y071484D02*
X024090Y071484D01*
X024090Y071642D02*
X031590Y071642D01*
X031432Y071801D02*
X024090Y071801D01*
X024090Y071959D02*
X031273Y071959D01*
X031115Y072118D02*
X024057Y072118D01*
X024015Y072276D02*
X030956Y072276D01*
X030798Y072435D02*
X023928Y072435D01*
X023820Y072593D02*
X030639Y072593D01*
X030481Y072752D02*
X023662Y072752D01*
X023402Y072910D02*
X030322Y072910D01*
X030164Y073069D02*
X021696Y073069D01*
X021855Y073227D02*
X030005Y073227D01*
X029847Y073386D02*
X022013Y073386D01*
X022458Y072910D02*
X021538Y072910D01*
X021379Y072752D02*
X022198Y072752D01*
X022040Y072593D02*
X021221Y072593D01*
X021062Y072435D02*
X021932Y072435D01*
X021845Y072276D02*
X020904Y072276D01*
X020745Y072118D02*
X021803Y072118D01*
X021770Y071959D02*
X020587Y071959D01*
X020428Y071801D02*
X021770Y071801D01*
X021770Y071642D02*
X020270Y071642D01*
X020111Y071484D02*
X021770Y071484D01*
X021770Y071325D02*
X019953Y071325D01*
X019794Y071167D02*
X021770Y071167D01*
X021770Y071008D02*
X019636Y071008D01*
X019477Y070850D02*
X021770Y070850D01*
X021738Y070691D02*
X019319Y070691D01*
X019160Y070533D02*
X021579Y070533D01*
X021421Y070374D02*
X019002Y070374D01*
X018843Y070216D02*
X021262Y070216D01*
X021104Y070057D02*
X018685Y070057D01*
X018526Y069899D02*
X020945Y069899D01*
X020787Y069740D02*
X018368Y069740D01*
X018209Y069582D02*
X020628Y069582D01*
X020470Y069423D02*
X018051Y069423D01*
X017892Y069265D02*
X020311Y069265D01*
X020153Y069106D02*
X017734Y069106D01*
X017575Y068948D02*
X019994Y068948D01*
X019836Y068789D02*
X017417Y068789D01*
X017258Y068631D02*
X019677Y068631D01*
X019519Y068472D02*
X017100Y068472D01*
X016941Y068314D02*
X019360Y068314D01*
X019202Y068155D02*
X016783Y068155D01*
X016624Y067997D02*
X019043Y067997D01*
X018885Y067838D02*
X016466Y067838D01*
X016208Y067680D02*
X018726Y067680D01*
X018568Y067521D02*
X009660Y067521D01*
X009660Y067363D02*
X018409Y067363D01*
X018251Y067204D02*
X009660Y067204D01*
X009660Y067046D02*
X018092Y067046D01*
X017934Y066887D02*
X015326Y066887D01*
X015610Y066729D02*
X017775Y066729D01*
X017617Y066570D02*
X015784Y066570D01*
X015922Y066412D02*
X017458Y066412D01*
X017300Y066253D02*
X016014Y066253D01*
X016086Y066095D02*
X017141Y066095D01*
X016983Y065936D02*
X016128Y065936D01*
X016160Y065778D02*
X016824Y065778D01*
X016666Y065619D02*
X016160Y065619D01*
X016158Y065461D02*
X016507Y065461D01*
X016349Y065302D02*
X016116Y065302D01*
X016073Y065144D02*
X016190Y065144D01*
X016032Y064985D02*
X015986Y064985D01*
X015556Y064510D02*
X015527Y064510D01*
X015398Y064351D02*
X015147Y064351D01*
X015239Y064193D02*
X009660Y064193D01*
X009660Y064351D02*
X011413Y064351D01*
X011555Y064313D02*
X011905Y064313D01*
X012243Y064404D01*
X012547Y064579D01*
X012794Y064827D01*
X012636Y064668D02*
X013924Y064668D01*
X014133Y064510D02*
X012427Y064510D01*
X012047Y064351D02*
X014513Y064351D01*
X014922Y063876D02*
X009660Y063876D01*
X009660Y064034D02*
X015081Y064034D01*
X014764Y063717D02*
X009660Y063717D01*
X009660Y063559D02*
X013969Y063559D01*
X013747Y063400D02*
X009660Y063400D01*
X009660Y063242D02*
X013594Y063242D01*
X013502Y063083D02*
X009660Y063083D01*
X009660Y062925D02*
X013431Y062925D01*
X013389Y062766D02*
X009660Y062766D01*
X009660Y062608D02*
X013370Y062608D01*
X013370Y062449D02*
X009660Y062449D01*
X009660Y062291D02*
X013397Y062291D01*
X013439Y062132D02*
X009660Y062132D01*
X009660Y061974D02*
X013519Y061974D01*
X013617Y061815D02*
X009660Y061815D01*
X009660Y061657D02*
X013776Y061657D01*
X014020Y061498D02*
X009660Y061498D01*
X009660Y061340D02*
X025364Y061340D01*
X025402Y061406D02*
X025249Y061141D01*
X025170Y060846D01*
X025170Y060541D01*
X025249Y060246D01*
X025402Y059981D01*
X025618Y059765D01*
X025882Y059612D01*
X026177Y059533D01*
X026483Y059533D01*
X026778Y059612D01*
X027042Y059765D01*
X027258Y059981D01*
X027411Y060246D01*
X027490Y060541D01*
X027490Y060846D01*
X027411Y061141D01*
X027258Y061406D01*
X027042Y061622D01*
X026778Y061774D01*
X026483Y061853D01*
X026177Y061853D01*
X025882Y061774D01*
X025618Y061622D01*
X025402Y061406D01*
X025495Y061498D02*
X015740Y061498D01*
X015984Y061657D02*
X025679Y061657D01*
X026036Y061815D02*
X016143Y061815D01*
X012969Y059957D02*
X013060Y059618D01*
X013060Y059268D01*
X012969Y058930D01*
X012794Y058627D01*
X012547Y058379D01*
X012243Y058204D01*
X011905Y058113D01*
X011555Y058113D01*
X011217Y058204D01*
X010913Y058379D01*
X010666Y058627D01*
X010491Y058930D01*
X010400Y059268D01*
X010400Y059618D01*
X010491Y059957D01*
X010666Y060260D01*
X010913Y060508D01*
X011217Y060683D01*
X011555Y060773D01*
X011905Y060773D01*
X012243Y060683D01*
X012547Y060508D01*
X012794Y060260D01*
X012969Y059957D01*
X012981Y059913D02*
X025469Y059913D01*
X025349Y060072D02*
X012903Y060072D01*
X012811Y060230D02*
X025258Y060230D01*
X025211Y060389D02*
X012665Y060389D01*
X012478Y060547D02*
X025170Y060547D01*
X025170Y060706D02*
X012157Y060706D01*
X013023Y059755D02*
X025635Y059755D01*
X025942Y059596D02*
X013060Y059596D01*
X013060Y059438D02*
X036370Y059438D01*
X036370Y059596D02*
X026718Y059596D01*
X027025Y059755D02*
X036370Y059755D01*
X036370Y059913D02*
X027191Y059913D01*
X027311Y060072D02*
X036370Y060072D01*
X036370Y060230D02*
X027402Y060230D01*
X027449Y060389D02*
X036370Y060389D01*
X036370Y060547D02*
X027490Y060547D01*
X027490Y060706D02*
X036370Y060706D01*
X036375Y060864D02*
X027485Y060864D01*
X027443Y061023D02*
X036417Y061023D01*
X036472Y061181D02*
X027388Y061181D01*
X027296Y061340D02*
X036564Y061340D01*
X036695Y061498D02*
X027165Y061498D01*
X026981Y061657D02*
X036879Y061657D01*
X037236Y061815D02*
X026624Y061815D01*
X025272Y061181D02*
X009660Y061181D01*
X009660Y061023D02*
X025217Y061023D01*
X025175Y060864D02*
X009660Y060864D01*
X009660Y060706D02*
X011303Y060706D01*
X010982Y060547D02*
X009660Y060547D01*
X009660Y060389D02*
X010795Y060389D01*
X010649Y060230D02*
X009660Y060230D01*
X009660Y060072D02*
X010557Y060072D01*
X010479Y059913D02*
X009660Y059913D01*
X009660Y059755D02*
X010437Y059755D01*
X010400Y059596D02*
X009660Y059596D01*
X009660Y059438D02*
X010400Y059438D01*
X010400Y059279D02*
X009660Y059279D01*
X009660Y059121D02*
X010439Y059121D01*
X010482Y058962D02*
X009660Y058962D01*
X009660Y058804D02*
X010563Y058804D01*
X010655Y058645D02*
X009660Y058645D01*
X009660Y058487D02*
X010806Y058487D01*
X011001Y058328D02*
X009660Y058328D01*
X009660Y058170D02*
X011344Y058170D01*
X012116Y058170D02*
X036370Y058170D01*
X036370Y058328D02*
X012459Y058328D01*
X012654Y058487D02*
X036370Y058487D01*
X036370Y058645D02*
X012805Y058645D01*
X012897Y058804D02*
X036370Y058804D01*
X036370Y058962D02*
X012978Y058962D01*
X013021Y059121D02*
X036370Y059121D01*
X036370Y059279D02*
X013060Y059279D01*
X014082Y057424D02*
X013818Y057272D01*
X013602Y057056D01*
X013449Y056791D01*
X013370Y056496D01*
X013370Y056191D01*
X013449Y055896D01*
X013602Y055631D01*
X013818Y055415D01*
X014082Y055262D01*
X014377Y055183D01*
X021650Y055183D01*
X021770Y055063D01*
X021770Y034591D01*
X021849Y034296D01*
X022002Y034031D01*
X022218Y033815D01*
X022482Y033662D01*
X022777Y033583D01*
X023083Y033583D01*
X023378Y033662D01*
X023642Y033815D01*
X023858Y034031D01*
X024011Y034296D01*
X024090Y034591D01*
X024090Y055696D01*
X024011Y055991D01*
X023858Y056256D01*
X022842Y057272D01*
X022578Y057424D01*
X022283Y057503D01*
X014683Y057503D01*
X014683Y057503D01*
X014377Y057503D01*
X014082Y057424D01*
X014001Y057377D02*
X009660Y057377D01*
X009660Y057219D02*
X013765Y057219D01*
X013607Y057060D02*
X009660Y057060D01*
X009660Y056902D02*
X013513Y056902D01*
X013436Y056743D02*
X009660Y056743D01*
X009660Y056585D02*
X013394Y056585D01*
X013370Y056426D02*
X009660Y056426D01*
X009660Y056268D02*
X013370Y056268D01*
X013392Y056109D02*
X009660Y056109D01*
X009660Y055951D02*
X013434Y055951D01*
X013509Y055792D02*
X009660Y055792D01*
X009660Y055634D02*
X013600Y055634D01*
X013757Y055475D02*
X009660Y055475D01*
X009660Y055317D02*
X013988Y055317D01*
X014317Y054483D02*
X014013Y054308D01*
X013766Y054060D01*
X013591Y053757D01*
X013500Y053418D01*
X013500Y053068D01*
X013591Y052730D01*
X013766Y052427D01*
X014013Y052179D01*
X014317Y052004D01*
X014655Y051913D01*
X015005Y051913D01*
X015343Y052004D01*
X015647Y052179D01*
X015894Y052427D01*
X016069Y052730D01*
X016160Y053068D01*
X016160Y053418D01*
X016069Y053757D01*
X015894Y054060D01*
X015647Y054308D01*
X015343Y054483D01*
X015005Y054573D01*
X014655Y054573D01*
X014317Y054483D01*
X014472Y054524D02*
X012088Y054524D01*
X012243Y054483D02*
X011905Y054573D01*
X011555Y054573D01*
X011217Y054483D01*
X010913Y054308D01*
X010666Y054060D01*
X010491Y053757D01*
X010400Y053418D01*
X010400Y053068D01*
X010491Y052730D01*
X010666Y052427D01*
X010913Y052179D01*
X011217Y052004D01*
X011555Y051913D01*
X011905Y051913D01*
X012243Y052004D01*
X012547Y052179D01*
X012794Y052427D01*
X012969Y052730D01*
X013060Y053068D01*
X013060Y053418D01*
X012969Y053757D01*
X012794Y054060D01*
X012547Y054308D01*
X012243Y054483D01*
X012446Y054366D02*
X014114Y054366D01*
X013913Y054207D02*
X012647Y054207D01*
X012801Y054049D02*
X013759Y054049D01*
X013668Y053890D02*
X012892Y053890D01*
X012976Y053732D02*
X013584Y053732D01*
X013542Y053573D02*
X013018Y053573D01*
X013060Y053415D02*
X013500Y053415D01*
X013500Y053256D02*
X013060Y053256D01*
X013060Y053098D02*
X013500Y053098D01*
X013535Y052939D02*
X013025Y052939D01*
X012983Y052781D02*
X013577Y052781D01*
X013653Y052622D02*
X012907Y052622D01*
X012816Y052464D02*
X013744Y052464D01*
X013887Y052305D02*
X012673Y052305D01*
X012491Y052147D02*
X014069Y052147D01*
X014375Y051988D02*
X012185Y051988D01*
X013602Y050856D02*
X013449Y050591D01*
X013370Y050296D01*
X013370Y049991D01*
X013449Y049696D01*
X013602Y049431D01*
X013818Y049215D01*
X014082Y049062D01*
X014377Y048983D01*
X014683Y048983D01*
X014978Y049062D01*
X015242Y049215D01*
X015458Y049431D01*
X015611Y049696D01*
X015690Y049991D01*
X015690Y050296D01*
X015611Y050591D01*
X015458Y050856D01*
X015242Y051072D01*
X014978Y051224D01*
X014683Y051303D01*
X014377Y051303D01*
X014082Y051224D01*
X013818Y051072D01*
X013602Y050856D01*
X013625Y050879D02*
X009660Y050879D01*
X009660Y051037D02*
X013784Y051037D01*
X014033Y051196D02*
X009660Y051196D01*
X009660Y051354D02*
X021770Y051354D01*
X021770Y051196D02*
X015027Y051196D01*
X015276Y051037D02*
X021770Y051037D01*
X021770Y050879D02*
X015435Y050879D01*
X015536Y050720D02*
X021770Y050720D01*
X021770Y050562D02*
X015619Y050562D01*
X015661Y050403D02*
X021770Y050403D01*
X021770Y050245D02*
X015690Y050245D01*
X015690Y050086D02*
X021770Y050086D01*
X021770Y049928D02*
X015673Y049928D01*
X015631Y049769D02*
X021770Y049769D01*
X021770Y049611D02*
X015562Y049611D01*
X015471Y049452D02*
X021770Y049452D01*
X021770Y049294D02*
X015321Y049294D01*
X015104Y049135D02*
X021770Y049135D01*
X021770Y048977D02*
X009660Y048977D01*
X009660Y049135D02*
X013956Y049135D01*
X013739Y049294D02*
X009660Y049294D01*
X009660Y049452D02*
X013589Y049452D01*
X013498Y049611D02*
X009660Y049611D01*
X009660Y049769D02*
X013429Y049769D01*
X013387Y049928D02*
X009660Y049928D01*
X009660Y050086D02*
X013370Y050086D01*
X013370Y050245D02*
X009660Y050245D01*
X009660Y050403D02*
X013399Y050403D01*
X013441Y050562D02*
X009660Y050562D01*
X009660Y050720D02*
X013524Y050720D01*
X012243Y048283D02*
X011905Y048373D01*
X011555Y048373D01*
X011217Y048283D01*
X010913Y048108D01*
X010666Y047860D01*
X010491Y047557D01*
X010400Y047218D01*
X010400Y046868D01*
X010491Y046530D01*
X010666Y046227D01*
X010913Y045979D01*
X011217Y045804D01*
X011555Y045713D01*
X011905Y045713D01*
X012243Y045804D01*
X012547Y045979D01*
X012794Y046227D01*
X012969Y046530D01*
X013060Y046868D01*
X013060Y047218D01*
X012969Y047557D01*
X012794Y047860D01*
X012547Y048108D01*
X012243Y048283D01*
X012414Y048184D02*
X021770Y048184D01*
X021770Y048026D02*
X012628Y048026D01*
X012787Y047867D02*
X021770Y047867D01*
X021770Y047709D02*
X012881Y047709D01*
X012971Y047550D02*
X021770Y047550D01*
X021770Y047392D02*
X013014Y047392D01*
X013056Y047233D02*
X021770Y047233D01*
X021770Y047075D02*
X013060Y047075D01*
X013060Y046916D02*
X021770Y046916D01*
X021770Y046758D02*
X013030Y046758D01*
X012988Y046599D02*
X021770Y046599D01*
X021770Y046441D02*
X012918Y046441D01*
X012826Y046282D02*
X021770Y046282D01*
X021770Y046124D02*
X012691Y046124D01*
X012523Y045965D02*
X021770Y045965D01*
X021770Y045807D02*
X012248Y045807D01*
X013602Y044656D02*
X013449Y044391D01*
X013370Y044096D01*
X013370Y043791D01*
X013449Y043496D01*
X013602Y043231D01*
X013818Y043015D01*
X014082Y042862D01*
X014377Y042783D01*
X014683Y042783D01*
X014978Y042862D01*
X015242Y043015D01*
X015458Y043231D01*
X015611Y043496D01*
X015690Y043791D01*
X015690Y044096D01*
X015611Y044391D01*
X015458Y044656D01*
X015242Y044872D01*
X014978Y045024D01*
X014683Y045103D01*
X014377Y045103D01*
X014082Y045024D01*
X013818Y044872D01*
X013602Y044656D01*
X013644Y044697D02*
X009660Y044697D01*
X009660Y044539D02*
X013534Y044539D01*
X013446Y044380D02*
X009660Y044380D01*
X009660Y044222D02*
X013404Y044222D01*
X013370Y044063D02*
X009660Y044063D01*
X009660Y043905D02*
X013370Y043905D01*
X013382Y043746D02*
X009660Y043746D01*
X009660Y043588D02*
X013424Y043588D01*
X013487Y043429D02*
X009660Y043429D01*
X009660Y043271D02*
X013579Y043271D01*
X013720Y043112D02*
X009660Y043112D01*
X009660Y042954D02*
X013924Y042954D01*
X014332Y042795D02*
X009660Y042795D01*
X009660Y042637D02*
X021770Y042637D01*
X021770Y042795D02*
X014728Y042795D01*
X015136Y042954D02*
X021770Y042954D01*
X021770Y043112D02*
X015340Y043112D01*
X015481Y043271D02*
X021770Y043271D01*
X021770Y043429D02*
X015573Y043429D01*
X015636Y043588D02*
X021770Y043588D01*
X021770Y043746D02*
X015678Y043746D01*
X015690Y043905D02*
X021770Y043905D01*
X021770Y044063D02*
X015690Y044063D01*
X015656Y044222D02*
X021770Y044222D01*
X021770Y044380D02*
X015614Y044380D01*
X015526Y044539D02*
X021770Y044539D01*
X021770Y044697D02*
X015416Y044697D01*
X015258Y044856D02*
X021770Y044856D01*
X021770Y045014D02*
X014995Y045014D01*
X014065Y045014D02*
X009660Y045014D01*
X009660Y044856D02*
X013802Y044856D01*
X014610Y042161D02*
X011950Y042161D01*
X011905Y042173D02*
X011555Y042173D01*
X011217Y042083D01*
X010913Y041908D01*
X010666Y041660D01*
X010491Y041357D01*
X010400Y041018D01*
X010400Y040668D01*
X010491Y040330D01*
X010666Y040027D01*
X010913Y039779D01*
X011217Y039604D01*
X011555Y039513D01*
X011905Y039513D01*
X012243Y039604D01*
X012547Y039779D01*
X012794Y040027D01*
X012969Y040330D01*
X013060Y040668D01*
X013060Y041018D01*
X012969Y041357D01*
X012794Y041660D01*
X012547Y041908D01*
X012243Y042083D01*
X011905Y042173D01*
X011510Y042161D02*
X009660Y042161D01*
X009660Y042003D02*
X011078Y042003D01*
X010850Y041844D02*
X009660Y041844D01*
X009660Y041686D02*
X010692Y041686D01*
X010589Y041527D02*
X009660Y041527D01*
X009660Y041369D02*
X010498Y041369D01*
X010451Y041210D02*
X009660Y041210D01*
X009660Y041052D02*
X010409Y041052D01*
X010400Y040893D02*
X009660Y040893D01*
X009660Y040735D02*
X010400Y040735D01*
X010425Y040576D02*
X009660Y040576D01*
X009660Y040418D02*
X010467Y040418D01*
X010531Y040259D02*
X009660Y040259D01*
X009660Y040101D02*
X010623Y040101D01*
X010750Y039942D02*
X009660Y039942D01*
X009660Y039784D02*
X010909Y039784D01*
X011180Y039625D02*
X009660Y039625D01*
X009660Y039467D02*
X021770Y039467D01*
X021770Y039625D02*
X015380Y039625D01*
X015343Y039604D02*
X015647Y039779D01*
X015894Y040027D01*
X016069Y040330D01*
X016160Y040668D01*
X016160Y041018D01*
X016069Y041357D01*
X015894Y041660D01*
X015647Y041908D01*
X015343Y042083D01*
X015005Y042173D01*
X014655Y042173D01*
X014317Y042083D01*
X014013Y041908D01*
X013766Y041660D01*
X013591Y041357D01*
X013500Y041018D01*
X013500Y040668D01*
X013591Y040330D01*
X013766Y040027D01*
X014013Y039779D01*
X014317Y039604D01*
X014655Y039513D01*
X015005Y039513D01*
X015343Y039604D01*
X015651Y039784D02*
X021770Y039784D01*
X021770Y039942D02*
X015810Y039942D01*
X015937Y040101D02*
X021770Y040101D01*
X021770Y040259D02*
X016029Y040259D01*
X016093Y040418D02*
X021770Y040418D01*
X021770Y040576D02*
X016135Y040576D01*
X016160Y040735D02*
X021770Y040735D01*
X021770Y040893D02*
X016160Y040893D01*
X016151Y041052D02*
X021770Y041052D01*
X021770Y041210D02*
X016109Y041210D01*
X016062Y041369D02*
X021770Y041369D01*
X021770Y041527D02*
X015971Y041527D01*
X015868Y041686D02*
X021770Y041686D01*
X021770Y041844D02*
X015710Y041844D01*
X015482Y042003D02*
X021770Y042003D01*
X021770Y042161D02*
X015050Y042161D01*
X014178Y042003D02*
X012382Y042003D01*
X012610Y041844D02*
X013950Y041844D01*
X013792Y041686D02*
X012768Y041686D01*
X012871Y041527D02*
X013689Y041527D01*
X013598Y041369D02*
X012962Y041369D01*
X013009Y041210D02*
X013551Y041210D01*
X013509Y041052D02*
X013051Y041052D01*
X013060Y040893D02*
X013500Y040893D01*
X013500Y040735D02*
X013060Y040735D01*
X013035Y040576D02*
X013525Y040576D01*
X013567Y040418D02*
X012993Y040418D01*
X012929Y040259D02*
X013631Y040259D01*
X013723Y040101D02*
X012837Y040101D01*
X012710Y039942D02*
X013850Y039942D01*
X014009Y039784D02*
X012551Y039784D01*
X012280Y039625D02*
X014280Y039625D01*
X014377Y038903D02*
X014082Y038824D01*
X013818Y038672D01*
X013602Y038456D01*
X013449Y038191D01*
X013370Y037896D01*
X013370Y037591D01*
X013449Y037296D01*
X013602Y037031D01*
X013818Y036815D01*
X014082Y036662D01*
X014377Y036583D01*
X014683Y036583D01*
X014978Y036662D01*
X015242Y036815D01*
X015458Y037031D01*
X015611Y037296D01*
X015690Y037591D01*
X015690Y037896D01*
X015611Y038191D01*
X015458Y038456D01*
X015242Y038672D01*
X014978Y038824D01*
X014683Y038903D01*
X014377Y038903D01*
X014114Y038833D02*
X009660Y038833D01*
X009660Y038991D02*
X021770Y038991D01*
X021770Y038833D02*
X014946Y038833D01*
X015237Y038674D02*
X021770Y038674D01*
X021770Y038516D02*
X015398Y038516D01*
X015515Y038357D02*
X021770Y038357D01*
X021770Y038199D02*
X015606Y038199D01*
X015651Y038040D02*
X021770Y038040D01*
X021770Y037882D02*
X015690Y037882D01*
X015690Y037723D02*
X021770Y037723D01*
X021770Y037565D02*
X015683Y037565D01*
X015641Y037406D02*
X021770Y037406D01*
X021770Y037248D02*
X015583Y037248D01*
X015492Y037089D02*
X021770Y037089D01*
X021770Y036931D02*
X015358Y036931D01*
X015168Y036772D02*
X021770Y036772D01*
X021770Y036614D02*
X014797Y036614D01*
X014263Y036614D02*
X009660Y036614D01*
X009660Y036772D02*
X013892Y036772D01*
X013702Y036931D02*
X009660Y036931D01*
X009660Y037089D02*
X013568Y037089D01*
X013477Y037248D02*
X009660Y037248D01*
X009660Y037406D02*
X013419Y037406D01*
X013377Y037565D02*
X009660Y037565D01*
X009660Y037723D02*
X013370Y037723D01*
X013370Y037882D02*
X009660Y037882D01*
X009660Y038040D02*
X013409Y038040D01*
X013454Y038199D02*
X009660Y038199D01*
X009660Y038357D02*
X013545Y038357D01*
X013662Y038516D02*
X009660Y038516D01*
X009660Y038674D02*
X013823Y038674D01*
X012243Y035883D02*
X011905Y035973D01*
X011555Y035973D01*
X011217Y035883D01*
X010913Y035708D01*
X010666Y035460D01*
X010491Y035157D01*
X010400Y034818D01*
X010400Y034468D01*
X010491Y034130D01*
X010666Y033827D01*
X010913Y033579D01*
X011217Y033404D01*
X011555Y033313D01*
X011905Y033313D01*
X012243Y033404D01*
X012547Y033579D01*
X012794Y033827D01*
X012969Y034130D01*
X013060Y034468D01*
X013060Y034818D01*
X012969Y035157D01*
X012794Y035460D01*
X012547Y035708D01*
X012243Y035883D01*
X012350Y035821D02*
X021770Y035821D01*
X021770Y035663D02*
X012591Y035663D01*
X012750Y035504D02*
X021770Y035504D01*
X021770Y035346D02*
X012860Y035346D01*
X012952Y035187D02*
X021770Y035187D01*
X021770Y035029D02*
X013004Y035029D01*
X013046Y034870D02*
X021770Y034870D01*
X021770Y034712D02*
X013060Y034712D01*
X013060Y034553D02*
X021780Y034553D01*
X021822Y034395D02*
X013040Y034395D01*
X012998Y034236D02*
X021883Y034236D01*
X021975Y034078D02*
X012939Y034078D01*
X012848Y033919D02*
X022113Y033919D01*
X022312Y033761D02*
X012728Y033761D01*
X012570Y033602D02*
X022706Y033602D01*
X023154Y033602D02*
X036370Y033602D01*
X036370Y033444D02*
X012312Y033444D01*
X011148Y033444D02*
X009660Y033444D01*
X009660Y033602D02*
X010890Y033602D01*
X010732Y033761D02*
X009660Y033761D01*
X009660Y033919D02*
X010612Y033919D01*
X010521Y034078D02*
X009660Y034078D01*
X009660Y034236D02*
X010462Y034236D01*
X010420Y034395D02*
X009660Y034395D01*
X009660Y034553D02*
X010400Y034553D01*
X010400Y034712D02*
X009660Y034712D01*
X009660Y034870D02*
X010414Y034870D01*
X010456Y035029D02*
X009660Y035029D01*
X009660Y035187D02*
X010508Y035187D01*
X010600Y035346D02*
X009660Y035346D01*
X009660Y035504D02*
X010710Y035504D01*
X010869Y035663D02*
X009660Y035663D01*
X009660Y035821D02*
X011110Y035821D01*
X009660Y035980D02*
X021770Y035980D01*
X021770Y036138D02*
X009660Y036138D01*
X009660Y036297D02*
X021770Y036297D01*
X021770Y036455D02*
X009660Y036455D01*
X009660Y039150D02*
X021770Y039150D01*
X021770Y039308D02*
X009660Y039308D01*
X009660Y042320D02*
X021770Y042320D01*
X021770Y042478D02*
X009660Y042478D01*
X009660Y045173D02*
X021770Y045173D01*
X021770Y045331D02*
X009660Y045331D01*
X009660Y045490D02*
X021770Y045490D01*
X021770Y045648D02*
X009660Y045648D01*
X009660Y045807D02*
X011212Y045807D01*
X010937Y045965D02*
X009660Y045965D01*
X009660Y046124D02*
X010769Y046124D01*
X010634Y046282D02*
X009660Y046282D01*
X009660Y046441D02*
X010542Y046441D01*
X010472Y046599D02*
X009660Y046599D01*
X009660Y046758D02*
X010430Y046758D01*
X010400Y046916D02*
X009660Y046916D01*
X009660Y047075D02*
X010400Y047075D01*
X010404Y047233D02*
X009660Y047233D01*
X009660Y047392D02*
X010446Y047392D01*
X010489Y047550D02*
X009660Y047550D01*
X009660Y047709D02*
X010579Y047709D01*
X010673Y047867D02*
X009660Y047867D01*
X009660Y048026D02*
X010832Y048026D01*
X011046Y048184D02*
X009660Y048184D01*
X009660Y048343D02*
X011441Y048343D01*
X012019Y048343D02*
X021770Y048343D01*
X021770Y048501D02*
X009660Y048501D01*
X009660Y048660D02*
X021770Y048660D01*
X021770Y048818D02*
X009660Y048818D01*
X009660Y051513D02*
X021770Y051513D01*
X021770Y051671D02*
X009660Y051671D01*
X009660Y051830D02*
X021770Y051830D01*
X021770Y051988D02*
X015285Y051988D01*
X015591Y052147D02*
X021770Y052147D01*
X021770Y052305D02*
X015773Y052305D01*
X015916Y052464D02*
X021770Y052464D01*
X021770Y052622D02*
X016007Y052622D01*
X016083Y052781D02*
X021770Y052781D01*
X021770Y052939D02*
X016125Y052939D01*
X016160Y053098D02*
X021770Y053098D01*
X021770Y053256D02*
X016160Y053256D01*
X016160Y053415D02*
X021770Y053415D01*
X021770Y053573D02*
X016118Y053573D01*
X016076Y053732D02*
X021770Y053732D01*
X021770Y053890D02*
X015992Y053890D01*
X015901Y054049D02*
X021770Y054049D01*
X021770Y054207D02*
X015747Y054207D01*
X015546Y054366D02*
X021770Y054366D01*
X021770Y054524D02*
X015188Y054524D01*
X011372Y054524D02*
X009660Y054524D01*
X009660Y054366D02*
X011014Y054366D01*
X010813Y054207D02*
X009660Y054207D01*
X009660Y054049D02*
X010659Y054049D01*
X010568Y053890D02*
X009660Y053890D01*
X009660Y053732D02*
X010484Y053732D01*
X010442Y053573D02*
X009660Y053573D01*
X009660Y053415D02*
X010400Y053415D01*
X010400Y053256D02*
X009660Y053256D01*
X009660Y053098D02*
X010400Y053098D01*
X010435Y052939D02*
X009660Y052939D01*
X009660Y052781D02*
X010477Y052781D01*
X010553Y052622D02*
X009660Y052622D01*
X009660Y052464D02*
X010644Y052464D01*
X010787Y052305D02*
X009660Y052305D01*
X009660Y052147D02*
X010969Y052147D01*
X011275Y051988D02*
X009660Y051988D01*
X009660Y054683D02*
X021770Y054683D01*
X021770Y054841D02*
X009660Y054841D01*
X009660Y055000D02*
X021770Y055000D01*
X021674Y055158D02*
X009660Y055158D01*
X009660Y057536D02*
X036370Y057536D01*
X036370Y057694D02*
X009660Y057694D01*
X009660Y057853D02*
X036370Y057853D01*
X036370Y058011D02*
X009660Y058011D01*
X009660Y064510D02*
X011033Y064510D01*
X010913Y064579D02*
X011217Y064404D01*
X011555Y064313D01*
X010913Y064579D02*
X010666Y064827D01*
X010824Y064668D02*
X009660Y064668D01*
X009660Y067680D02*
X014052Y067680D01*
X013794Y067838D02*
X009660Y067838D01*
X009660Y067997D02*
X013636Y067997D01*
X013530Y068155D02*
X009660Y068155D01*
X009660Y068314D02*
X013444Y068314D01*
X013402Y068472D02*
X009660Y068472D01*
X009660Y068631D02*
X013370Y068631D01*
X013370Y068789D02*
X009660Y068789D01*
X009660Y068948D02*
X013384Y068948D01*
X013426Y069106D02*
X009660Y069106D01*
X009660Y069265D02*
X013492Y069265D01*
X013583Y069423D02*
X009660Y069423D01*
X009660Y069582D02*
X013728Y069582D01*
X013937Y069740D02*
X009660Y069740D01*
X009660Y069899D02*
X014361Y069899D01*
X015404Y070057D02*
X009660Y070057D01*
X009660Y070216D02*
X015562Y070216D01*
X015721Y070374D02*
X009660Y070374D01*
X009660Y070533D02*
X011482Y070533D01*
X011555Y070513D02*
X011905Y070513D01*
X012243Y070604D01*
X012547Y070779D01*
X012794Y071027D01*
X012969Y071330D01*
X013060Y071668D01*
X013060Y072018D01*
X012969Y072357D01*
X012794Y072660D01*
X012547Y072908D01*
X012243Y073083D01*
X011905Y073173D01*
X011555Y073173D01*
X011217Y073083D01*
X010913Y072908D01*
X010666Y072660D01*
X010491Y072357D01*
X010400Y072018D01*
X010400Y071668D01*
X010491Y071330D01*
X010666Y071027D01*
X010913Y070779D01*
X011217Y070604D01*
X011555Y070513D01*
X011978Y070533D02*
X015879Y070533D01*
X016038Y070691D02*
X012395Y070691D01*
X012618Y070850D02*
X016196Y070850D01*
X016355Y071008D02*
X012776Y071008D01*
X012875Y071167D02*
X016513Y071167D01*
X016672Y071325D02*
X012967Y071325D01*
X013011Y071484D02*
X016830Y071484D01*
X016989Y071642D02*
X013053Y071642D01*
X013060Y071801D02*
X017147Y071801D01*
X017306Y071959D02*
X013060Y071959D01*
X013033Y072118D02*
X017464Y072118D01*
X017623Y072276D02*
X012991Y072276D01*
X012924Y072435D02*
X017781Y072435D01*
X017940Y072593D02*
X012833Y072593D01*
X012702Y072752D02*
X018098Y072752D01*
X018257Y072910D02*
X012542Y072910D01*
X012267Y073069D02*
X018415Y073069D01*
X018574Y073227D02*
X009660Y073227D01*
X009660Y073069D02*
X011193Y073069D01*
X010918Y072910D02*
X009660Y072910D01*
X009660Y072752D02*
X010758Y072752D01*
X010627Y072593D02*
X009660Y072593D01*
X009660Y072435D02*
X010536Y072435D01*
X010469Y072276D02*
X009660Y072276D01*
X009660Y072118D02*
X010427Y072118D01*
X010400Y071959D02*
X009660Y071959D01*
X009660Y071801D02*
X010400Y071801D01*
X010407Y071642D02*
X009660Y071642D01*
X009660Y071484D02*
X010449Y071484D01*
X010493Y071325D02*
X009660Y071325D01*
X009660Y071167D02*
X010585Y071167D01*
X010684Y071008D02*
X009660Y071008D01*
X009660Y070850D02*
X010842Y070850D01*
X011065Y070691D02*
X009660Y070691D01*
X009660Y073386D02*
X018732Y073386D01*
X018891Y073544D02*
X009660Y073544D01*
X009660Y073703D02*
X019049Y073703D01*
X019208Y073861D02*
X016374Y073861D01*
X016378Y073862D02*
X016642Y074015D01*
X022160Y079533D01*
X035650Y079533D01*
X036818Y078365D01*
X037082Y078212D01*
X037377Y078133D01*
X037683Y078133D01*
X037978Y078212D01*
X038242Y078365D01*
X038458Y078581D01*
X038611Y078846D01*
X038690Y079141D01*
X038690Y079446D01*
X038611Y079741D01*
X038458Y080006D01*
X036842Y081622D01*
X036578Y081774D01*
X036283Y081853D01*
X021527Y081853D01*
X021232Y081774D01*
X020968Y081622D01*
X020752Y081406D01*
X015450Y076103D01*
X014683Y076103D01*
X014377Y076103D01*
X014082Y076024D01*
X013818Y075872D01*
X013602Y075656D01*
X013449Y075391D01*
X013370Y075096D01*
X013370Y074791D01*
X013449Y074496D01*
X013602Y074231D01*
X013818Y074015D01*
X014082Y073862D01*
X014377Y073783D01*
X016083Y073783D01*
X016378Y073862D01*
X016647Y074020D02*
X019366Y074020D01*
X019525Y074178D02*
X016806Y074178D01*
X016964Y074337D02*
X019683Y074337D01*
X019842Y074495D02*
X017123Y074495D01*
X017281Y074654D02*
X020000Y074654D01*
X020159Y074812D02*
X017440Y074812D01*
X017598Y074971D02*
X020317Y074971D01*
X020476Y075129D02*
X017757Y075129D01*
X017915Y075288D02*
X020634Y075288D01*
X020793Y075446D02*
X018074Y075446D01*
X018232Y075605D02*
X020951Y075605D01*
X021213Y075763D02*
X018391Y075763D01*
X018549Y075922D02*
X055700Y075922D01*
X055700Y076080D02*
X018708Y076080D01*
X018866Y076239D02*
X055700Y076239D01*
X055700Y076397D02*
X019025Y076397D01*
X019183Y076556D02*
X055700Y076556D01*
X055700Y076714D02*
X019342Y076714D01*
X019500Y076873D02*
X055700Y076873D01*
X055700Y077031D02*
X023497Y077031D01*
X023378Y076962D02*
X023642Y077115D01*
X023858Y077331D01*
X024011Y077596D01*
X024090Y077891D01*
X024090Y078196D01*
X024011Y078491D01*
X023858Y078756D01*
X023642Y078972D01*
X023378Y079124D01*
X023083Y079203D01*
X022777Y079203D01*
X022482Y079124D01*
X022218Y078972D01*
X022002Y078756D01*
X021849Y078491D01*
X021770Y078196D01*
X021770Y077891D01*
X021849Y077596D01*
X022002Y077331D01*
X022218Y077115D01*
X022482Y076962D01*
X022777Y076883D01*
X023083Y076883D01*
X023378Y076962D01*
X023717Y077190D02*
X055700Y077190D01*
X055700Y077348D02*
X023868Y077348D01*
X023960Y077507D02*
X055700Y077507D01*
X055700Y077665D02*
X024030Y077665D01*
X024072Y077824D02*
X055700Y077824D01*
X055700Y077982D02*
X024090Y077982D01*
X024090Y078141D02*
X037349Y078141D01*
X037711Y078141D02*
X046649Y078141D01*
X046677Y078133D02*
X046983Y078133D01*
X047278Y078212D01*
X047542Y078365D01*
X047758Y078581D01*
X047911Y078846D01*
X047990Y079141D01*
X047990Y088746D01*
X047911Y089041D01*
X047758Y089306D01*
X047542Y089522D01*
X047278Y089674D01*
X046983Y089753D01*
X046677Y089753D01*
X046382Y089674D01*
X046118Y089522D01*
X045902Y089306D01*
X045749Y089041D01*
X045670Y088746D01*
X045670Y079141D01*
X045749Y078846D01*
X045902Y078581D01*
X046118Y078365D01*
X046382Y078212D01*
X046677Y078133D01*
X047011Y078141D02*
X055700Y078141D01*
X055700Y078299D02*
X047429Y078299D01*
X047635Y078458D02*
X055700Y078458D01*
X055700Y078616D02*
X047779Y078616D01*
X047870Y078775D02*
X055700Y078775D01*
X055700Y078933D02*
X047934Y078933D01*
X047977Y079092D02*
X055700Y079092D01*
X055700Y079250D02*
X047990Y079250D01*
X047990Y079409D02*
X055700Y079409D01*
X055700Y079567D02*
X047990Y079567D01*
X047990Y079726D02*
X055700Y079726D01*
X055700Y079884D02*
X047990Y079884D01*
X047990Y080043D02*
X055700Y080043D01*
X055700Y080201D02*
X047990Y080201D01*
X047990Y080360D02*
X055700Y080360D01*
X055700Y080518D02*
X047990Y080518D01*
X047990Y080677D02*
X055700Y080677D01*
X055700Y080835D02*
X047990Y080835D01*
X047990Y080994D02*
X055700Y080994D01*
X055700Y081152D02*
X047990Y081152D01*
X047990Y081311D02*
X049488Y081311D01*
X049482Y081312D02*
X049777Y081233D01*
X050083Y081233D01*
X050378Y081312D01*
X050642Y081465D01*
X050858Y081681D01*
X051011Y081946D01*
X051090Y082241D01*
X051090Y082546D01*
X051011Y082841D01*
X050858Y083106D01*
X050642Y083322D01*
X050378Y083474D01*
X050083Y083553D01*
X049777Y083553D01*
X049482Y083474D01*
X049218Y083322D01*
X049002Y083106D01*
X048849Y082841D01*
X048770Y082546D01*
X048770Y082241D01*
X048849Y081946D01*
X049002Y081681D01*
X049218Y081465D01*
X049482Y081312D01*
X049213Y081469D02*
X047990Y081469D01*
X047990Y081628D02*
X049055Y081628D01*
X048941Y081786D02*
X047990Y081786D01*
X047990Y081945D02*
X048849Y081945D01*
X048807Y082103D02*
X047990Y082103D01*
X047990Y082262D02*
X048770Y082262D01*
X048770Y082420D02*
X047990Y082420D01*
X047990Y082579D02*
X048779Y082579D01*
X048821Y082737D02*
X047990Y082737D01*
X047990Y082896D02*
X048881Y082896D01*
X048972Y083054D02*
X047990Y083054D01*
X047990Y083213D02*
X049109Y083213D01*
X049304Y083371D02*
X047990Y083371D01*
X047990Y083530D02*
X049690Y083530D01*
X050170Y083530D02*
X055700Y083530D01*
X055700Y083688D02*
X047990Y083688D01*
X047990Y083847D02*
X055700Y083847D01*
X055700Y084005D02*
X047990Y084005D01*
X047990Y084164D02*
X055700Y084164D01*
X055700Y084322D02*
X047990Y084322D01*
X047990Y084481D02*
X055700Y084481D01*
X055700Y084639D02*
X047990Y084639D01*
X047990Y084798D02*
X055700Y084798D01*
X055700Y084956D02*
X047990Y084956D01*
X047990Y085115D02*
X055700Y085115D01*
X055700Y085273D02*
X047990Y085273D01*
X047990Y085432D02*
X055700Y085432D01*
X055700Y085590D02*
X047990Y085590D01*
X047990Y085749D02*
X055700Y085749D01*
X055700Y085907D02*
X047990Y085907D01*
X047990Y086066D02*
X055700Y086066D01*
X055700Y086224D02*
X047990Y086224D01*
X047990Y086383D02*
X055700Y086383D01*
X055700Y086541D02*
X047990Y086541D01*
X047990Y086700D02*
X055700Y086700D01*
X055700Y086858D02*
X047990Y086858D01*
X047990Y087017D02*
X055700Y087017D01*
X055700Y087175D02*
X047990Y087175D01*
X047990Y087334D02*
X055700Y087334D01*
X055700Y087492D02*
X047990Y087492D01*
X047990Y087651D02*
X055700Y087651D01*
X055700Y087809D02*
X047990Y087809D01*
X047990Y087968D02*
X055700Y087968D01*
X055700Y088126D02*
X047990Y088126D01*
X047990Y088285D02*
X055700Y088285D01*
X055700Y088443D02*
X047990Y088443D01*
X047990Y088602D02*
X055700Y088602D01*
X055700Y088760D02*
X047986Y088760D01*
X047944Y088919D02*
X055700Y088919D01*
X055700Y089077D02*
X047890Y089077D01*
X047798Y089236D02*
X055700Y089236D01*
X055700Y089394D02*
X047669Y089394D01*
X047488Y089553D02*
X055700Y089553D01*
X055700Y089711D02*
X047139Y089711D01*
X046521Y089711D02*
X037839Y089711D01*
X037978Y089674D02*
X037683Y089753D01*
X037377Y089753D01*
X037082Y089674D01*
X036818Y089522D01*
X036602Y089306D01*
X036449Y089041D01*
X036370Y088746D01*
X036370Y088441D01*
X036449Y088146D01*
X036602Y087881D01*
X036818Y087665D01*
X037082Y087512D01*
X037377Y087433D01*
X037683Y087433D01*
X037978Y087512D01*
X038242Y087665D01*
X038458Y087881D01*
X038611Y088146D01*
X038690Y088441D01*
X038690Y088746D01*
X038611Y089041D01*
X038458Y089306D01*
X038242Y089522D01*
X037978Y089674D01*
X038188Y089553D02*
X046172Y089553D01*
X045991Y089394D02*
X038369Y089394D01*
X038498Y089236D02*
X045862Y089236D01*
X045770Y089077D02*
X038590Y089077D01*
X038644Y088919D02*
X045716Y088919D01*
X045674Y088760D02*
X038686Y088760D01*
X038690Y088602D02*
X045670Y088602D01*
X045670Y088443D02*
X038690Y088443D01*
X038648Y088285D02*
X045670Y088285D01*
X045670Y088126D02*
X038600Y088126D01*
X038508Y087968D02*
X045670Y087968D01*
X045670Y087809D02*
X038387Y087809D01*
X038218Y087651D02*
X045670Y087651D01*
X045670Y087492D02*
X037903Y087492D01*
X037157Y087492D02*
X021185Y087492D01*
X021185Y087334D02*
X045670Y087334D01*
X045670Y087175D02*
X021185Y087175D01*
X021185Y087017D02*
X045670Y087017D01*
X045670Y086858D02*
X021185Y086858D01*
X021185Y086700D02*
X045670Y086700D01*
X045670Y086541D02*
X021185Y086541D01*
X021185Y086383D02*
X045670Y086383D01*
X045670Y086224D02*
X021185Y086224D01*
X021185Y086066D02*
X045670Y086066D01*
X045670Y085907D02*
X021185Y085907D01*
X021185Y085749D02*
X045670Y085749D01*
X045670Y085590D02*
X021185Y085590D01*
X021185Y085432D02*
X045670Y085432D01*
X045670Y085273D02*
X023466Y085273D01*
X023378Y085324D02*
X023642Y085172D01*
X023858Y084956D01*
X024011Y084691D01*
X024090Y084396D01*
X024090Y084091D01*
X024011Y083796D01*
X023858Y083531D01*
X023642Y083315D01*
X023378Y083162D01*
X023083Y083083D01*
X022777Y083083D01*
X022482Y083162D01*
X022218Y083315D01*
X022002Y083531D01*
X021849Y083796D01*
X021770Y084091D01*
X021770Y084396D01*
X021849Y084691D01*
X022002Y084956D01*
X022218Y085172D01*
X022482Y085324D01*
X022777Y085403D01*
X023083Y085403D01*
X023378Y085324D01*
X023699Y085115D02*
X045670Y085115D01*
X045670Y084956D02*
X023857Y084956D01*
X023949Y084798D02*
X045670Y084798D01*
X045670Y084639D02*
X024025Y084639D01*
X024067Y084481D02*
X045670Y084481D01*
X045670Y084322D02*
X024090Y084322D01*
X024090Y084164D02*
X045670Y084164D01*
X045670Y084005D02*
X024067Y084005D01*
X024025Y083847D02*
X045670Y083847D01*
X045670Y083688D02*
X023949Y083688D01*
X023857Y083530D02*
X040390Y083530D01*
X040477Y083553D02*
X040182Y083474D01*
X039918Y083322D01*
X039702Y083106D01*
X039549Y082841D01*
X039470Y082546D01*
X039470Y082241D01*
X039549Y081946D01*
X039702Y081681D01*
X039918Y081465D01*
X040182Y081312D01*
X040477Y081233D01*
X040783Y081233D01*
X041078Y081312D01*
X041342Y081465D01*
X041558Y081681D01*
X041711Y081946D01*
X041790Y082241D01*
X041790Y082546D01*
X041711Y082841D01*
X041558Y083106D01*
X041342Y083322D01*
X041078Y083474D01*
X040783Y083553D01*
X040477Y083553D01*
X040870Y083530D02*
X045670Y083530D01*
X045670Y083371D02*
X041256Y083371D01*
X041451Y083213D02*
X045670Y083213D01*
X045670Y083054D02*
X041588Y083054D01*
X041679Y082896D02*
X045670Y082896D01*
X045670Y082737D02*
X041739Y082737D01*
X041781Y082579D02*
X045670Y082579D01*
X045670Y082420D02*
X041790Y082420D01*
X041790Y082262D02*
X045670Y082262D01*
X045670Y082103D02*
X041753Y082103D01*
X041711Y081945D02*
X045670Y081945D01*
X045670Y081786D02*
X041619Y081786D01*
X041505Y081628D02*
X045670Y081628D01*
X045670Y081469D02*
X041347Y081469D01*
X041072Y081311D02*
X045670Y081311D01*
X045670Y081152D02*
X037311Y081152D01*
X037470Y080994D02*
X045670Y080994D01*
X045670Y080835D02*
X037628Y080835D01*
X037787Y080677D02*
X045670Y080677D01*
X045670Y080518D02*
X037945Y080518D01*
X038104Y080360D02*
X045670Y080360D01*
X045670Y080201D02*
X038262Y080201D01*
X038421Y080043D02*
X045670Y080043D01*
X045670Y079884D02*
X038528Y079884D01*
X038615Y079726D02*
X045670Y079726D01*
X045670Y079567D02*
X038657Y079567D01*
X038690Y079409D02*
X045670Y079409D01*
X045670Y079250D02*
X038690Y079250D01*
X038677Y079092D02*
X045683Y079092D01*
X045726Y078933D02*
X038634Y078933D01*
X038570Y078775D02*
X045790Y078775D01*
X045881Y078616D02*
X038479Y078616D01*
X038335Y078458D02*
X046025Y078458D01*
X046231Y078299D02*
X038129Y078299D01*
X036931Y078299D02*
X024062Y078299D01*
X024020Y078458D02*
X036725Y078458D01*
X036566Y078616D02*
X023939Y078616D01*
X023839Y078775D02*
X036408Y078775D01*
X036249Y078933D02*
X023680Y078933D01*
X023434Y079092D02*
X036091Y079092D01*
X035932Y079250D02*
X021878Y079250D01*
X021719Y079092D02*
X022426Y079092D01*
X022180Y078933D02*
X021561Y078933D01*
X021402Y078775D02*
X022021Y078775D01*
X021921Y078616D02*
X021244Y078616D01*
X021085Y078458D02*
X021840Y078458D01*
X021798Y078299D02*
X020927Y078299D01*
X020768Y078141D02*
X021770Y078141D01*
X021770Y077982D02*
X020610Y077982D01*
X020451Y077824D02*
X021788Y077824D01*
X021830Y077665D02*
X020293Y077665D01*
X020134Y077507D02*
X021900Y077507D01*
X021992Y077348D02*
X019976Y077348D01*
X019817Y077190D02*
X022143Y077190D01*
X022363Y077031D02*
X019659Y077031D01*
X018121Y078775D02*
X015943Y078775D01*
X015894Y078860D02*
X015647Y079108D01*
X015343Y079283D01*
X015005Y079373D01*
X014655Y079373D01*
X014317Y079283D01*
X014013Y079108D01*
X013766Y078860D01*
X013591Y078557D01*
X013500Y078218D01*
X013500Y077868D01*
X013591Y077530D01*
X013766Y077227D01*
X014013Y076979D01*
X014317Y076804D01*
X014655Y076713D01*
X015005Y076713D01*
X015343Y076804D01*
X015647Y076979D01*
X015894Y077227D01*
X016069Y077530D01*
X016160Y077868D01*
X016160Y078218D01*
X016069Y078557D01*
X015894Y078860D01*
X015821Y078933D02*
X018280Y078933D01*
X018438Y079092D02*
X015662Y079092D01*
X015399Y079250D02*
X018597Y079250D01*
X018755Y079409D02*
X009660Y079409D01*
X009660Y079567D02*
X018914Y079567D01*
X019072Y079726D02*
X009660Y079726D01*
X009660Y079884D02*
X019231Y079884D01*
X019389Y080043D02*
X009660Y080043D01*
X009660Y080201D02*
X019548Y080201D01*
X019706Y080360D02*
X009660Y080360D01*
X009660Y080518D02*
X011192Y080518D01*
X011217Y080504D02*
X011555Y080413D01*
X011905Y080413D01*
X012243Y080504D01*
X012547Y080679D01*
X012794Y080927D01*
X012969Y081230D01*
X013060Y081568D01*
X013060Y081918D01*
X012969Y082257D01*
X012794Y082560D01*
X012547Y082808D01*
X012243Y082983D01*
X011905Y083073D01*
X011555Y083073D01*
X011217Y082983D01*
X010913Y082808D01*
X010666Y082560D01*
X010491Y082257D01*
X010400Y081918D01*
X010400Y081568D01*
X010491Y081230D01*
X010666Y080927D01*
X010913Y080679D01*
X011217Y080504D01*
X010917Y080677D02*
X009660Y080677D01*
X009660Y080835D02*
X010757Y080835D01*
X010627Y080994D02*
X009660Y080994D01*
X009660Y081152D02*
X010535Y081152D01*
X010469Y081311D02*
X009660Y081311D01*
X009660Y081469D02*
X010426Y081469D01*
X010400Y081628D02*
X009660Y081628D01*
X009660Y081786D02*
X010400Y081786D01*
X010407Y081945D02*
X009660Y081945D01*
X009660Y082103D02*
X010450Y082103D01*
X010494Y082262D02*
X009660Y082262D01*
X009660Y082420D02*
X010585Y082420D01*
X010685Y082579D02*
X009660Y082579D01*
X009660Y082737D02*
X010843Y082737D01*
X011066Y082896D02*
X009660Y082896D01*
X009660Y083054D02*
X011484Y083054D01*
X011976Y083054D02*
X016400Y083054D01*
X016441Y083207D02*
X016350Y082868D01*
X016350Y082518D01*
X016441Y082180D01*
X016616Y081877D01*
X016863Y081629D01*
X017167Y081454D01*
X017505Y081363D01*
X017855Y081363D01*
X018193Y081454D01*
X018497Y081629D01*
X018744Y081877D01*
X018919Y082180D01*
X019010Y082518D01*
X019010Y082868D01*
X018919Y083207D01*
X018744Y083510D01*
X018497Y083758D01*
X018193Y083933D01*
X017855Y084023D01*
X017505Y084023D01*
X017167Y083933D01*
X016863Y083758D01*
X016616Y083510D01*
X016441Y083207D01*
X016444Y083213D02*
X009660Y083213D01*
X009660Y083371D02*
X016536Y083371D01*
X016636Y083530D02*
X009660Y083530D01*
X009660Y083688D02*
X016794Y083688D01*
X017018Y083847D02*
X009660Y083847D01*
X009660Y084005D02*
X017438Y084005D01*
X017922Y084005D02*
X021793Y084005D01*
X021770Y084164D02*
X009660Y084164D01*
X009660Y084322D02*
X021770Y084322D01*
X021793Y084481D02*
X009660Y084481D01*
X009660Y084639D02*
X021835Y084639D01*
X021911Y084798D02*
X009660Y084798D01*
X009660Y084956D02*
X015036Y084956D01*
X015080Y084938D02*
X020780Y084938D01*
X020966Y085015D01*
X021108Y085157D01*
X021185Y085343D01*
X021185Y091544D01*
X021108Y091729D01*
X020966Y091871D01*
X020780Y091948D01*
X020580Y091948D01*
X015280Y091948D01*
X015080Y091948D01*
X014894Y091871D01*
X014752Y091729D01*
X014675Y091544D01*
X014675Y085343D01*
X014752Y085157D01*
X014894Y085015D01*
X015080Y084938D01*
X014794Y085115D02*
X009660Y085115D01*
X009660Y085273D02*
X014704Y085273D01*
X014675Y085432D02*
X009660Y085432D01*
X009660Y085590D02*
X014675Y085590D01*
X014675Y085749D02*
X009660Y085749D01*
X009660Y085907D02*
X014675Y085907D01*
X014675Y086066D02*
X009660Y086066D01*
X009660Y086224D02*
X014675Y086224D01*
X014675Y086383D02*
X009660Y086383D01*
X009660Y086541D02*
X014675Y086541D01*
X014675Y086700D02*
X009660Y086700D01*
X009660Y086858D02*
X014675Y086858D01*
X014675Y087017D02*
X009660Y087017D01*
X009660Y087175D02*
X014675Y087175D01*
X014675Y087334D02*
X009660Y087334D01*
X009660Y087492D02*
X014675Y087492D01*
X014675Y087651D02*
X009660Y087651D01*
X009660Y087809D02*
X014675Y087809D01*
X014675Y087968D02*
X009660Y087968D01*
X009660Y088126D02*
X014675Y088126D01*
X014675Y088285D02*
X009660Y088285D01*
X009660Y088443D02*
X014675Y088443D01*
X014675Y088602D02*
X009660Y088602D01*
X009660Y088760D02*
X014675Y088760D01*
X014675Y088919D02*
X009660Y088919D01*
X009660Y089077D02*
X014675Y089077D01*
X014675Y089236D02*
X009660Y089236D01*
X009660Y089394D02*
X014675Y089394D01*
X014675Y089553D02*
X009660Y089553D01*
X009660Y089711D02*
X014675Y089711D01*
X014675Y089870D02*
X009660Y089870D01*
X009660Y090028D02*
X014675Y090028D01*
X014675Y090187D02*
X009660Y090187D01*
X009660Y090345D02*
X014675Y090345D01*
X014675Y090504D02*
X009660Y090504D01*
X009660Y090662D02*
X014675Y090662D01*
X014675Y090821D02*
X009660Y090821D01*
X009660Y090979D02*
X014675Y090979D01*
X014675Y091138D02*
X009660Y091138D01*
X009660Y091296D02*
X014675Y091296D01*
X014675Y091455D02*
X009660Y091455D01*
X009660Y091613D02*
X014704Y091613D01*
X014794Y091772D02*
X009660Y091772D01*
X009660Y091930D02*
X015036Y091930D01*
X016616Y093377D02*
X016441Y093680D01*
X016350Y094018D01*
X016350Y094368D01*
X016441Y094707D01*
X016616Y095010D01*
X016863Y095258D01*
X017167Y095433D01*
X017505Y095523D01*
X017855Y095523D01*
X018193Y095433D01*
X018497Y095258D01*
X018744Y095010D01*
X018919Y094707D01*
X019010Y094368D01*
X019010Y094018D01*
X018919Y093680D01*
X018744Y093377D01*
X018497Y093129D01*
X018193Y092954D01*
X017855Y092863D01*
X017505Y092863D01*
X017167Y092954D01*
X016863Y093129D01*
X016616Y093377D01*
X016635Y093357D02*
X009660Y093357D01*
X009660Y093515D02*
X016536Y093515D01*
X016444Y093674D02*
X009660Y093674D01*
X009660Y093832D02*
X016400Y093832D01*
X016357Y093991D02*
X009660Y093991D01*
X009660Y094149D02*
X016350Y094149D01*
X016350Y094308D02*
X009660Y094308D01*
X009660Y094466D02*
X016376Y094466D01*
X016419Y094625D02*
X009660Y094625D01*
X009660Y094783D02*
X016485Y094783D01*
X016576Y094942D02*
X009660Y094942D01*
X009660Y095100D02*
X016706Y095100D01*
X016866Y095259D02*
X009660Y095259D01*
X009660Y095417D02*
X017140Y095417D01*
X018220Y095417D02*
X032640Y095417D01*
X032667Y095433D02*
X032363Y095258D01*
X032116Y095010D01*
X031941Y094707D01*
X031850Y094368D01*
X031850Y094018D01*
X031941Y093680D01*
X032116Y093377D01*
X032363Y093129D01*
X032667Y092954D01*
X033005Y092863D01*
X033355Y092863D01*
X033693Y092954D01*
X033997Y093129D01*
X034244Y093377D01*
X034419Y093680D01*
X034510Y094018D01*
X034510Y094368D01*
X034419Y094707D01*
X034244Y095010D01*
X033997Y095258D01*
X033693Y095433D01*
X033355Y095523D01*
X033005Y095523D01*
X032667Y095433D01*
X032366Y095259D02*
X018494Y095259D01*
X018654Y095100D02*
X032206Y095100D01*
X032076Y094942D02*
X018784Y094942D01*
X018875Y094783D02*
X031985Y094783D01*
X031919Y094625D02*
X018941Y094625D01*
X018984Y094466D02*
X031876Y094466D01*
X031850Y094308D02*
X019010Y094308D01*
X019010Y094149D02*
X031850Y094149D01*
X031857Y093991D02*
X019003Y093991D01*
X018960Y093832D02*
X031900Y093832D01*
X031944Y093674D02*
X018916Y093674D01*
X018824Y093515D02*
X032036Y093515D01*
X032135Y093357D02*
X018725Y093357D01*
X018566Y093198D02*
X032294Y093198D01*
X032518Y093040D02*
X018342Y093040D01*
X017923Y092881D02*
X032937Y092881D01*
X033423Y092881D02*
X053437Y092881D01*
X053505Y092863D02*
X053855Y092863D01*
X054193Y092954D01*
X054497Y093129D01*
X054744Y093377D01*
X054919Y093680D01*
X055010Y094018D01*
X055010Y094368D01*
X054919Y094707D01*
X054744Y095010D01*
X054497Y095258D01*
X054193Y095433D01*
X053855Y095523D01*
X053505Y095523D01*
X053167Y095433D01*
X052863Y095258D01*
X052616Y095010D01*
X052441Y094707D01*
X052350Y094368D01*
X052350Y094018D01*
X052441Y093680D01*
X052616Y093377D01*
X052863Y093129D01*
X053167Y092954D01*
X053505Y092863D01*
X053923Y092881D02*
X055700Y092881D01*
X055700Y092723D02*
X050467Y092723D01*
X050378Y092774D02*
X050083Y092853D01*
X049777Y092853D01*
X049482Y092774D01*
X049218Y092622D01*
X049002Y092406D01*
X041558Y092406D01*
X041342Y092622D01*
X041078Y092774D01*
X040783Y092853D01*
X040477Y092853D01*
X040182Y092774D01*
X039918Y092622D01*
X039702Y092406D01*
X009660Y092406D01*
X009660Y092564D02*
X039861Y092564D01*
X039702Y092406D02*
X039549Y092141D01*
X039470Y091846D01*
X039470Y091541D01*
X039549Y091246D01*
X039702Y090981D01*
X039918Y090765D01*
X040182Y090612D01*
X040477Y090533D01*
X040783Y090533D01*
X041078Y090612D01*
X041342Y090765D01*
X041558Y090981D01*
X041711Y091246D01*
X041790Y091541D01*
X041790Y091846D01*
X041711Y092141D01*
X041558Y092406D01*
X041650Y092247D02*
X048910Y092247D01*
X048849Y092141D02*
X048770Y091846D01*
X048770Y091541D01*
X048849Y091246D01*
X049002Y090981D01*
X049218Y090765D01*
X049482Y090612D01*
X049777Y090533D01*
X050083Y090533D01*
X050378Y090612D01*
X050642Y090765D01*
X050858Y090981D01*
X051011Y091246D01*
X051090Y091541D01*
X051090Y091846D01*
X051011Y092141D01*
X050858Y092406D01*
X055700Y092406D01*
X055700Y092564D02*
X050699Y092564D01*
X050642Y092622D02*
X050378Y092774D01*
X050642Y092622D02*
X050858Y092406D01*
X050950Y092247D02*
X055700Y092247D01*
X055700Y092089D02*
X051025Y092089D01*
X051067Y091930D02*
X055700Y091930D01*
X055700Y091772D02*
X051090Y091772D01*
X051090Y091613D02*
X055700Y091613D01*
X055700Y091455D02*
X051067Y091455D01*
X051025Y091296D02*
X055700Y091296D01*
X055700Y091138D02*
X050949Y091138D01*
X050857Y090979D02*
X055700Y090979D01*
X055700Y090821D02*
X050698Y090821D01*
X050464Y090662D02*
X055700Y090662D01*
X055700Y090504D02*
X024090Y090504D01*
X024090Y090596D02*
X024011Y090891D01*
X023858Y091156D01*
X023642Y091372D01*
X023378Y091524D01*
X023083Y091603D01*
X022777Y091603D01*
X022482Y091524D01*
X022218Y091372D01*
X022002Y091156D01*
X021849Y090891D01*
X021770Y090596D01*
X021770Y090291D01*
X021849Y089996D01*
X022002Y089731D01*
X022218Y089515D01*
X022482Y089362D01*
X022777Y089283D01*
X023083Y089283D01*
X023378Y089362D01*
X023642Y089515D01*
X023858Y089731D01*
X024011Y089996D01*
X024090Y090291D01*
X024090Y090596D01*
X024072Y090662D02*
X040096Y090662D01*
X039862Y090821D02*
X024030Y090821D01*
X023960Y090979D02*
X039703Y090979D01*
X039611Y091138D02*
X023868Y091138D01*
X023717Y091296D02*
X039535Y091296D01*
X039493Y091455D02*
X023498Y091455D01*
X024090Y090345D02*
X055700Y090345D01*
X055700Y090187D02*
X024062Y090187D01*
X024020Y090028D02*
X055700Y090028D01*
X055700Y089870D02*
X023938Y089870D01*
X023839Y089711D02*
X037221Y089711D01*
X036872Y089553D02*
X023680Y089553D01*
X023433Y089394D02*
X036691Y089394D01*
X036562Y089236D02*
X021185Y089236D01*
X021185Y089394D02*
X022427Y089394D01*
X022180Y089553D02*
X021185Y089553D01*
X021185Y089711D02*
X022021Y089711D01*
X021922Y089870D02*
X021185Y089870D01*
X021185Y090028D02*
X021840Y090028D01*
X021798Y090187D02*
X021185Y090187D01*
X021185Y090345D02*
X021770Y090345D01*
X021770Y090504D02*
X021185Y090504D01*
X021185Y090662D02*
X021788Y090662D01*
X021830Y090821D02*
X021185Y090821D01*
X021185Y090979D02*
X021900Y090979D01*
X021992Y091138D02*
X021185Y091138D01*
X021185Y091296D02*
X022143Y091296D01*
X022362Y091455D02*
X021185Y091455D01*
X021156Y091613D02*
X039470Y091613D01*
X039470Y091772D02*
X021066Y091772D01*
X020824Y091930D02*
X039493Y091930D01*
X039535Y092089D02*
X009660Y092089D01*
X009660Y092247D02*
X039610Y092247D01*
X040093Y092723D02*
X009660Y092723D01*
X009660Y092881D02*
X017437Y092881D01*
X017018Y093040D02*
X009660Y093040D01*
X009660Y093198D02*
X016794Y093198D01*
X021185Y089077D02*
X036470Y089077D01*
X036416Y088919D02*
X021185Y088919D01*
X021185Y088760D02*
X036374Y088760D01*
X036370Y088602D02*
X021185Y088602D01*
X021185Y088443D02*
X036370Y088443D01*
X036412Y088285D02*
X021185Y088285D01*
X021185Y088126D02*
X036460Y088126D01*
X036552Y087968D02*
X021185Y087968D01*
X021185Y087809D02*
X036673Y087809D01*
X036842Y087651D02*
X021185Y087651D01*
X021156Y085273D02*
X022394Y085273D01*
X022161Y085115D02*
X021066Y085115D01*
X020824Y084956D02*
X022003Y084956D01*
X021835Y083847D02*
X018342Y083847D01*
X018566Y083688D02*
X021911Y083688D01*
X022003Y083530D02*
X018724Y083530D01*
X018824Y083371D02*
X022161Y083371D01*
X022395Y083213D02*
X018916Y083213D01*
X018960Y083054D02*
X039672Y083054D01*
X039581Y082896D02*
X019003Y082896D01*
X019010Y082737D02*
X039521Y082737D01*
X039479Y082579D02*
X019010Y082579D01*
X018984Y082420D02*
X039470Y082420D01*
X039470Y082262D02*
X018941Y082262D01*
X018875Y082103D02*
X039507Y082103D01*
X039549Y081945D02*
X018784Y081945D01*
X018654Y081786D02*
X021278Y081786D01*
X020979Y081628D02*
X018495Y081628D01*
X018220Y081469D02*
X020816Y081469D01*
X020657Y081311D02*
X012991Y081311D01*
X013034Y081469D02*
X017140Y081469D01*
X016865Y081628D02*
X013060Y081628D01*
X013060Y081786D02*
X016706Y081786D01*
X016576Y081945D02*
X013053Y081945D01*
X013010Y082103D02*
X016485Y082103D01*
X016419Y082262D02*
X012966Y082262D01*
X012875Y082420D02*
X016376Y082420D01*
X016350Y082579D02*
X012775Y082579D01*
X012617Y082737D02*
X016350Y082737D01*
X016357Y082896D02*
X012394Y082896D01*
X012925Y081152D02*
X020499Y081152D01*
X020340Y080994D02*
X012833Y080994D01*
X012703Y080835D02*
X020182Y080835D01*
X020023Y080677D02*
X012543Y080677D01*
X012268Y080518D02*
X019865Y080518D01*
X022036Y079409D02*
X035774Y079409D01*
X037153Y081311D02*
X040188Y081311D01*
X039913Y081469D02*
X036994Y081469D01*
X036831Y081628D02*
X039755Y081628D01*
X039641Y081786D02*
X036532Y081786D01*
X039809Y083213D02*
X023465Y083213D01*
X023699Y083371D02*
X040004Y083371D01*
X041164Y090662D02*
X049396Y090662D01*
X049162Y090821D02*
X041398Y090821D01*
X041557Y090979D02*
X049003Y090979D01*
X048911Y091138D02*
X041649Y091138D01*
X041725Y091296D02*
X048835Y091296D01*
X048793Y091455D02*
X041767Y091455D01*
X041790Y091613D02*
X048770Y091613D01*
X048770Y091772D02*
X041790Y091772D01*
X041767Y091930D02*
X048793Y091930D01*
X048835Y092089D02*
X041725Y092089D01*
X041399Y092564D02*
X049161Y092564D01*
X049002Y092406D02*
X048849Y092141D01*
X049393Y092723D02*
X041167Y092723D01*
X034503Y093991D02*
X052357Y093991D01*
X052350Y094149D02*
X034510Y094149D01*
X034510Y094308D02*
X052350Y094308D01*
X052376Y094466D02*
X034484Y094466D01*
X034441Y094625D02*
X052419Y094625D01*
X052485Y094783D02*
X034375Y094783D01*
X034284Y094942D02*
X052576Y094942D01*
X052706Y095100D02*
X034154Y095100D01*
X033994Y095259D02*
X052866Y095259D01*
X053140Y095417D02*
X033720Y095417D01*
X034460Y093832D02*
X052400Y093832D01*
X052444Y093674D02*
X034416Y093674D01*
X034324Y093515D02*
X052536Y093515D01*
X052635Y093357D02*
X034225Y093357D01*
X034066Y093198D02*
X052794Y093198D01*
X053018Y093040D02*
X033842Y093040D01*
X030647Y075763D02*
X055700Y075763D01*
X055700Y075605D02*
X030909Y075605D01*
X031067Y075446D02*
X055700Y075446D01*
X055700Y075288D02*
X031226Y075288D01*
X031108Y075406D02*
X031108Y075406D01*
X031384Y075129D02*
X055700Y075129D01*
X055700Y074971D02*
X031543Y074971D01*
X031701Y074812D02*
X055700Y074812D01*
X055700Y074654D02*
X031860Y074654D01*
X032018Y074495D02*
X055700Y074495D01*
X055700Y074337D02*
X032177Y074337D01*
X032335Y074178D02*
X040198Y074178D01*
X040182Y074174D02*
X039918Y074022D01*
X039702Y073806D01*
X039549Y073541D01*
X039470Y073246D01*
X039470Y072941D01*
X039549Y072646D01*
X039702Y072381D01*
X039918Y072165D01*
X040182Y072012D01*
X040477Y071933D01*
X040783Y071933D01*
X041078Y072012D01*
X041342Y072165D01*
X041558Y072381D01*
X041711Y072646D01*
X041790Y072941D01*
X041790Y073246D01*
X041711Y073541D01*
X041558Y073806D01*
X041342Y074022D01*
X041078Y074174D01*
X040783Y074253D01*
X040477Y074253D01*
X040182Y074174D01*
X039916Y074020D02*
X032494Y074020D01*
X032652Y073861D02*
X039758Y073861D01*
X039643Y073703D02*
X032811Y073703D01*
X032969Y073544D02*
X039551Y073544D01*
X039507Y073386D02*
X033128Y073386D01*
X033286Y073227D02*
X039470Y073227D01*
X039470Y073069D02*
X033445Y073069D01*
X033603Y072910D02*
X039478Y072910D01*
X039521Y072752D02*
X033762Y072752D01*
X033892Y072622D02*
X033892Y072622D01*
X033920Y072593D02*
X039579Y072593D01*
X039671Y072435D02*
X034079Y072435D01*
X034183Y072276D02*
X039806Y072276D01*
X039999Y072118D02*
X034267Y072118D01*
X034310Y071959D02*
X040380Y071959D01*
X040880Y071959D02*
X049680Y071959D01*
X049777Y071933D02*
X050083Y071933D01*
X050378Y072012D01*
X050642Y072165D01*
X050858Y072381D01*
X051011Y072646D01*
X051090Y072941D01*
X051090Y073246D01*
X051011Y073541D01*
X050858Y073806D01*
X050642Y074022D01*
X050378Y074174D01*
X050083Y074253D01*
X049777Y074253D01*
X049482Y074174D01*
X049218Y074022D01*
X049002Y073806D01*
X048849Y073541D01*
X048770Y073246D01*
X048770Y072941D01*
X048849Y072646D01*
X049002Y072381D01*
X049218Y072165D01*
X049482Y072012D01*
X049777Y071933D01*
X050180Y071959D02*
X055700Y071959D01*
X055700Y071801D02*
X034340Y071801D01*
X034340Y071642D02*
X055700Y071642D01*
X055700Y071484D02*
X034340Y071484D01*
X034340Y071325D02*
X055700Y071325D01*
X055700Y071167D02*
X034340Y071167D01*
X034340Y071008D02*
X036968Y071008D01*
X037082Y071074D02*
X036818Y070922D01*
X036602Y070706D01*
X036449Y070441D01*
X036370Y070146D01*
X036370Y069841D01*
X036449Y069546D01*
X036602Y069281D01*
X036818Y069065D01*
X037082Y068912D01*
X037377Y068833D01*
X037683Y068833D01*
X037978Y068912D01*
X038242Y069065D01*
X038458Y069281D01*
X038611Y069546D01*
X038690Y069841D01*
X038690Y070146D01*
X038611Y070441D01*
X038458Y070706D01*
X038242Y070922D01*
X037978Y071074D01*
X037683Y071153D01*
X037377Y071153D01*
X037082Y071074D01*
X036746Y070850D02*
X034340Y070850D01*
X034340Y070691D02*
X036594Y070691D01*
X036502Y070533D02*
X034340Y070533D01*
X034340Y070374D02*
X036431Y070374D01*
X036389Y070216D02*
X034340Y070216D01*
X034340Y070057D02*
X036370Y070057D01*
X036370Y069899D02*
X034340Y069899D01*
X034340Y069740D02*
X036397Y069740D01*
X036439Y069582D02*
X034340Y069582D01*
X034340Y069423D02*
X036520Y069423D01*
X036618Y069265D02*
X034340Y069265D01*
X034340Y069106D02*
X036776Y069106D01*
X037021Y068948D02*
X034340Y068948D01*
X034340Y068789D02*
X045670Y068789D01*
X045670Y068631D02*
X034340Y068631D01*
X034340Y068472D02*
X045670Y068472D01*
X045670Y068314D02*
X034340Y068314D01*
X034340Y068155D02*
X045670Y068155D01*
X045670Y067997D02*
X034340Y067997D01*
X034340Y067838D02*
X045670Y067838D01*
X045670Y067680D02*
X034340Y067680D01*
X034340Y067521D02*
X045670Y067521D01*
X045670Y067363D02*
X034333Y067363D01*
X034290Y067204D02*
X045670Y067204D01*
X045670Y067046D02*
X034232Y067046D01*
X034141Y066887D02*
X045670Y066887D01*
X045670Y066729D02*
X034006Y066729D01*
X033848Y066570D02*
X045670Y066570D01*
X045670Y066412D02*
X033689Y066412D01*
X033531Y066253D02*
X045670Y066253D01*
X045670Y066095D02*
X033372Y066095D01*
X033214Y065936D02*
X045670Y065936D01*
X045670Y065778D02*
X033055Y065778D01*
X032897Y065619D02*
X045670Y065619D01*
X045670Y065461D02*
X032738Y065461D01*
X032580Y065302D02*
X045670Y065302D01*
X045670Y065144D02*
X032421Y065144D01*
X032263Y064985D02*
X045670Y064985D01*
X045670Y064827D02*
X041160Y064827D01*
X041078Y064874D02*
X040783Y064953D01*
X040477Y064953D01*
X040182Y064874D01*
X039918Y064722D01*
X039702Y064506D01*
X039549Y064241D01*
X039470Y063946D01*
X039470Y063641D01*
X039549Y063346D01*
X039702Y063081D01*
X039918Y062865D01*
X040182Y062712D01*
X040477Y062633D01*
X040783Y062633D01*
X041078Y062712D01*
X041342Y062865D01*
X041558Y063081D01*
X041711Y063346D01*
X041790Y063641D01*
X041790Y063946D01*
X041711Y064241D01*
X041558Y064506D01*
X041342Y064722D01*
X041078Y064874D01*
X041395Y064668D02*
X045670Y064668D01*
X045670Y064510D02*
X041554Y064510D01*
X041647Y064351D02*
X045670Y064351D01*
X045670Y064193D02*
X041724Y064193D01*
X041766Y064034D02*
X045670Y064034D01*
X045670Y063876D02*
X041790Y063876D01*
X041790Y063717D02*
X045670Y063717D01*
X045670Y063559D02*
X041768Y063559D01*
X041726Y063400D02*
X045670Y063400D01*
X045670Y063242D02*
X041651Y063242D01*
X041560Y063083D02*
X045670Y063083D01*
X045670Y062925D02*
X041402Y062925D01*
X041171Y062766D02*
X045670Y062766D01*
X047990Y062766D02*
X049389Y062766D01*
X049482Y062712D02*
X049777Y062633D01*
X050083Y062633D01*
X050378Y062712D01*
X050642Y062865D01*
X050858Y063081D01*
X051011Y063346D01*
X051090Y063641D01*
X051090Y063946D01*
X051011Y064241D01*
X050858Y064506D01*
X050642Y064722D01*
X050378Y064874D01*
X050083Y064953D01*
X049777Y064953D01*
X049482Y064874D01*
X049218Y064722D01*
X049002Y064506D01*
X048849Y064241D01*
X048770Y063946D01*
X048770Y063641D01*
X048849Y063346D01*
X049002Y063081D01*
X049218Y062865D01*
X049482Y062712D01*
X049158Y062925D02*
X047990Y062925D01*
X047990Y063083D02*
X049000Y063083D01*
X048909Y063242D02*
X047990Y063242D01*
X047990Y063400D02*
X048834Y063400D01*
X048792Y063559D02*
X047990Y063559D01*
X047990Y063717D02*
X048770Y063717D01*
X048770Y063876D02*
X047990Y063876D01*
X047990Y064034D02*
X048794Y064034D01*
X048836Y064193D02*
X047990Y064193D01*
X047990Y064351D02*
X048913Y064351D01*
X049006Y064510D02*
X047990Y064510D01*
X047990Y064668D02*
X049165Y064668D01*
X049400Y064827D02*
X047990Y064827D01*
X047990Y064985D02*
X055700Y064985D01*
X055700Y064827D02*
X050460Y064827D01*
X050695Y064668D02*
X055700Y064668D01*
X055700Y064510D02*
X050854Y064510D01*
X050947Y064351D02*
X055700Y064351D01*
X055700Y064193D02*
X051024Y064193D01*
X051066Y064034D02*
X055700Y064034D01*
X055700Y063876D02*
X051090Y063876D01*
X051090Y063717D02*
X055700Y063717D01*
X055700Y063559D02*
X051068Y063559D01*
X051026Y063400D02*
X055700Y063400D01*
X055700Y063242D02*
X050951Y063242D01*
X050860Y063083D02*
X055700Y063083D01*
X055700Y062925D02*
X050702Y062925D01*
X050471Y062766D02*
X055700Y062766D01*
X055700Y062608D02*
X047990Y062608D01*
X047990Y062449D02*
X055700Y062449D01*
X055700Y062291D02*
X047990Y062291D01*
X047990Y062132D02*
X055700Y062132D01*
X055700Y061974D02*
X047990Y061974D01*
X047990Y061815D02*
X055700Y061815D01*
X055700Y061657D02*
X047990Y061657D01*
X047990Y061498D02*
X055700Y061498D01*
X055700Y061340D02*
X047990Y061340D01*
X047990Y061181D02*
X055700Y061181D01*
X055700Y061023D02*
X047990Y061023D01*
X047990Y060864D02*
X055700Y060864D01*
X055700Y060706D02*
X047990Y060706D01*
X047990Y060547D02*
X055700Y060547D01*
X055700Y060389D02*
X047949Y060389D01*
X047902Y060230D02*
X055700Y060230D01*
X055700Y060072D02*
X047811Y060072D01*
X047691Y059913D02*
X055700Y059913D01*
X055700Y059755D02*
X047525Y059755D01*
X047218Y059596D02*
X055700Y059596D01*
X055700Y065144D02*
X047990Y065144D01*
X047990Y065302D02*
X055700Y065302D01*
X055700Y065461D02*
X047990Y065461D01*
X047990Y065619D02*
X055700Y065619D01*
X055700Y065778D02*
X047990Y065778D01*
X047990Y065936D02*
X055700Y065936D01*
X055700Y066095D02*
X047990Y066095D01*
X047990Y066253D02*
X055700Y066253D01*
X055700Y066412D02*
X047990Y066412D01*
X047990Y066570D02*
X055700Y066570D01*
X055700Y066729D02*
X047990Y066729D01*
X047990Y066887D02*
X055700Y066887D01*
X055700Y067046D02*
X047990Y067046D01*
X047990Y067204D02*
X055700Y067204D01*
X055700Y067363D02*
X047990Y067363D01*
X047990Y067521D02*
X055700Y067521D01*
X055700Y067680D02*
X047990Y067680D01*
X047990Y067838D02*
X055700Y067838D01*
X055700Y067997D02*
X047990Y067997D01*
X047990Y068155D02*
X055700Y068155D01*
X055700Y068314D02*
X047990Y068314D01*
X047990Y068472D02*
X055700Y068472D01*
X055700Y068631D02*
X047990Y068631D01*
X047990Y068789D02*
X055700Y068789D01*
X055700Y068948D02*
X047990Y068948D01*
X047990Y069106D02*
X055700Y069106D01*
X055700Y069265D02*
X047990Y069265D01*
X047990Y069423D02*
X055700Y069423D01*
X055700Y069582D02*
X047990Y069582D01*
X047990Y069740D02*
X055700Y069740D01*
X055700Y069899D02*
X047990Y069899D01*
X047990Y070057D02*
X055700Y070057D01*
X055700Y070216D02*
X047971Y070216D01*
X047929Y070374D02*
X055700Y070374D01*
X055700Y070533D02*
X047858Y070533D01*
X047766Y070691D02*
X055700Y070691D01*
X055700Y070850D02*
X047614Y070850D01*
X047392Y071008D02*
X055700Y071008D01*
X055700Y072118D02*
X050561Y072118D01*
X050754Y072276D02*
X055700Y072276D01*
X055700Y072435D02*
X050889Y072435D01*
X050981Y072593D02*
X055700Y072593D01*
X055700Y072752D02*
X051039Y072752D01*
X051082Y072910D02*
X055700Y072910D01*
X055700Y073069D02*
X051090Y073069D01*
X051090Y073227D02*
X055700Y073227D01*
X055700Y073386D02*
X051053Y073386D01*
X051009Y073544D02*
X055700Y073544D01*
X055700Y073703D02*
X050917Y073703D01*
X050802Y073861D02*
X055700Y073861D01*
X055700Y074020D02*
X050644Y074020D01*
X050362Y074178D02*
X055700Y074178D01*
X055700Y081311D02*
X050372Y081311D01*
X050647Y081469D02*
X055700Y081469D01*
X055700Y081628D02*
X050805Y081628D01*
X050919Y081786D02*
X055700Y081786D01*
X055700Y081945D02*
X051011Y081945D01*
X051053Y082103D02*
X055700Y082103D01*
X055700Y082262D02*
X051090Y082262D01*
X051090Y082420D02*
X055700Y082420D01*
X055700Y082579D02*
X051081Y082579D01*
X051039Y082737D02*
X055700Y082737D01*
X055700Y082896D02*
X050979Y082896D01*
X050888Y083054D02*
X055700Y083054D01*
X055700Y083213D02*
X050751Y083213D01*
X050556Y083371D02*
X055700Y083371D01*
X049498Y074178D02*
X041062Y074178D01*
X041344Y074020D02*
X049216Y074020D01*
X049058Y073861D02*
X041502Y073861D01*
X041617Y073703D02*
X048943Y073703D01*
X048851Y073544D02*
X041709Y073544D01*
X041753Y073386D02*
X048807Y073386D01*
X048770Y073227D02*
X041790Y073227D01*
X041790Y073069D02*
X048770Y073069D01*
X048778Y072910D02*
X041782Y072910D01*
X041739Y072752D02*
X048821Y072752D01*
X048879Y072593D02*
X041681Y072593D01*
X041589Y072435D02*
X048971Y072435D01*
X049106Y072276D02*
X041454Y072276D01*
X041261Y072118D02*
X049299Y072118D01*
X046268Y071008D02*
X038092Y071008D01*
X038314Y070850D02*
X046046Y070850D01*
X045894Y070691D02*
X038466Y070691D01*
X038558Y070533D02*
X045802Y070533D01*
X045731Y070374D02*
X038629Y070374D01*
X038671Y070216D02*
X045689Y070216D01*
X045670Y070057D02*
X038690Y070057D01*
X038690Y069899D02*
X045670Y069899D01*
X045670Y069740D02*
X038663Y069740D01*
X038621Y069582D02*
X045670Y069582D01*
X045670Y069423D02*
X038540Y069423D01*
X038442Y069265D02*
X045670Y069265D01*
X045670Y069106D02*
X038284Y069106D01*
X038039Y068948D02*
X045670Y068948D01*
X040100Y064827D02*
X032104Y064827D01*
X031946Y064668D02*
X039865Y064668D01*
X039706Y064510D02*
X031787Y064510D01*
X031629Y064351D02*
X039613Y064351D01*
X039536Y064193D02*
X031470Y064193D01*
X031312Y064034D02*
X039494Y064034D01*
X039470Y063876D02*
X031153Y063876D01*
X030995Y063717D02*
X039470Y063717D01*
X039492Y063559D02*
X030836Y063559D01*
X030678Y063400D02*
X039534Y063400D01*
X039609Y063242D02*
X030519Y063242D01*
X030361Y063083D02*
X039700Y063083D01*
X039858Y062925D02*
X030202Y062925D01*
X030358Y063081D02*
X030358Y063081D01*
X029971Y062766D02*
X040089Y062766D01*
X036370Y057377D02*
X022659Y057377D01*
X022895Y057219D02*
X036370Y057219D01*
X036370Y057060D02*
X023053Y057060D01*
X023212Y056902D02*
X036370Y056902D01*
X036370Y056743D02*
X023370Y056743D01*
X023529Y056585D02*
X036370Y056585D01*
X036370Y056426D02*
X023687Y056426D01*
X023846Y056268D02*
X036370Y056268D01*
X036370Y056109D02*
X023943Y056109D01*
X024022Y055951D02*
X036370Y055951D01*
X036370Y055792D02*
X024064Y055792D01*
X024090Y055634D02*
X029205Y055634D01*
X029277Y055653D02*
X028982Y055574D01*
X028718Y055422D01*
X028502Y055206D01*
X028349Y054941D01*
X028270Y054646D01*
X028270Y054341D01*
X028349Y054046D01*
X028502Y053781D01*
X028718Y053565D01*
X028982Y053412D01*
X029277Y053333D01*
X029583Y053333D01*
X029878Y053412D01*
X030142Y053565D01*
X030358Y053781D01*
X030511Y054046D01*
X030590Y054341D01*
X030590Y054646D01*
X030511Y054941D01*
X030358Y055206D01*
X030142Y055422D01*
X029878Y055574D01*
X029583Y055653D01*
X029277Y055653D01*
X029655Y055634D02*
X036370Y055634D01*
X036370Y055475D02*
X030049Y055475D01*
X030247Y055317D02*
X036370Y055317D01*
X036370Y055158D02*
X030385Y055158D01*
X030477Y055000D02*
X036370Y055000D01*
X036370Y054841D02*
X030538Y054841D01*
X030580Y054683D02*
X036370Y054683D01*
X036370Y054524D02*
X030590Y054524D01*
X030590Y054366D02*
X036370Y054366D01*
X036370Y054207D02*
X033601Y054207D01*
X033693Y054183D02*
X033355Y054273D01*
X033005Y054273D01*
X032667Y054183D01*
X032363Y054008D01*
X032116Y053760D01*
X031941Y053457D01*
X031850Y053118D01*
X031850Y052768D01*
X031941Y052430D01*
X032116Y052127D01*
X032363Y051879D01*
X032667Y051704D01*
X033005Y051613D01*
X033355Y051613D01*
X033693Y051704D01*
X033997Y051879D01*
X034244Y052127D01*
X034419Y052430D01*
X034510Y052768D01*
X034510Y053118D01*
X034419Y053457D01*
X034244Y053760D01*
X033997Y054008D01*
X033693Y054183D01*
X033925Y054049D02*
X036370Y054049D01*
X036370Y053890D02*
X034114Y053890D01*
X034260Y053732D02*
X036370Y053732D01*
X036370Y053573D02*
X034352Y053573D01*
X034431Y053415D02*
X036370Y053415D01*
X036370Y053256D02*
X034473Y053256D01*
X034510Y053098D02*
X036370Y053098D01*
X036370Y052939D02*
X034510Y052939D01*
X034510Y052781D02*
X036370Y052781D01*
X036370Y052622D02*
X034471Y052622D01*
X034428Y052464D02*
X036370Y052464D01*
X036370Y052305D02*
X034347Y052305D01*
X034256Y052147D02*
X036370Y052147D01*
X036370Y051988D02*
X034106Y051988D01*
X033911Y051830D02*
X036370Y051830D01*
X036370Y051671D02*
X033572Y051671D01*
X032788Y051671D02*
X027456Y051671D01*
X027490Y051546D02*
X027411Y051841D01*
X027258Y052106D01*
X027042Y052322D01*
X026778Y052474D01*
X026483Y052553D01*
X026177Y052553D01*
X025882Y052474D01*
X025618Y052322D01*
X025402Y052106D01*
X025249Y051841D01*
X025170Y051546D01*
X025170Y051241D01*
X025249Y050946D01*
X025402Y050681D01*
X025618Y050465D01*
X025882Y050312D01*
X026177Y050233D01*
X026483Y050233D01*
X026778Y050312D01*
X027042Y050465D01*
X027258Y050681D01*
X027411Y050946D01*
X027490Y051241D01*
X027490Y051546D01*
X027490Y051513D02*
X036370Y051513D01*
X036370Y051354D02*
X027490Y051354D01*
X027478Y051196D02*
X036382Y051196D01*
X036424Y051037D02*
X027436Y051037D01*
X027372Y050879D02*
X036488Y050879D01*
X036579Y050720D02*
X027281Y050720D01*
X027139Y050562D02*
X036721Y050562D01*
X036925Y050403D02*
X026935Y050403D01*
X026526Y050245D02*
X037334Y050245D01*
X037726Y050245D02*
X045670Y050245D01*
X045670Y050403D02*
X038135Y050403D01*
X038339Y050562D02*
X045670Y050562D01*
X045670Y050720D02*
X038481Y050720D01*
X038572Y050879D02*
X045670Y050879D01*
X045670Y051037D02*
X038636Y051037D01*
X038678Y051196D02*
X045670Y051196D01*
X045670Y051354D02*
X038690Y051354D01*
X038690Y051513D02*
X045670Y051513D01*
X045704Y051671D02*
X038690Y051671D01*
X038690Y051830D02*
X045746Y051830D01*
X045834Y051988D02*
X038690Y051988D01*
X038690Y052147D02*
X045943Y052147D01*
X046102Y052305D02*
X038690Y052305D01*
X038690Y053415D02*
X040178Y053415D01*
X039909Y053573D02*
X038690Y053573D01*
X038690Y053732D02*
X039751Y053732D01*
X039639Y053890D02*
X038690Y053890D01*
X038690Y054049D02*
X039548Y054049D01*
X039506Y054207D02*
X038690Y054207D01*
X038690Y054366D02*
X039470Y054366D01*
X039470Y054524D02*
X038690Y054524D01*
X038690Y054683D02*
X039480Y054683D01*
X039522Y054841D02*
X038690Y054841D01*
X038690Y055000D02*
X039583Y055000D01*
X039675Y055158D02*
X038690Y055158D01*
X038690Y055317D02*
X039813Y055317D01*
X040011Y055475D02*
X038690Y055475D01*
X041249Y055475D02*
X049311Y055475D01*
X049113Y055317D02*
X041447Y055317D01*
X041585Y055158D02*
X048975Y055158D01*
X048883Y055000D02*
X041677Y055000D01*
X041738Y054841D02*
X048822Y054841D01*
X048780Y054683D02*
X041780Y054683D01*
X041790Y054524D02*
X048770Y054524D01*
X048770Y054366D02*
X041790Y054366D01*
X041754Y054207D02*
X048806Y054207D01*
X048848Y054049D02*
X041712Y054049D01*
X041621Y053890D02*
X048939Y053890D01*
X049051Y053732D02*
X041509Y053732D01*
X041351Y053573D02*
X049209Y053573D01*
X049478Y053415D02*
X041082Y053415D01*
X045670Y050086D02*
X024090Y050086D01*
X024090Y049928D02*
X045670Y049928D01*
X045670Y049769D02*
X024090Y049769D01*
X024090Y049611D02*
X045670Y049611D01*
X045670Y049452D02*
X024090Y049452D01*
X024090Y049294D02*
X045670Y049294D01*
X045670Y049135D02*
X024090Y049135D01*
X024090Y048977D02*
X045670Y048977D01*
X045670Y048818D02*
X024090Y048818D01*
X024090Y048660D02*
X045670Y048660D01*
X045670Y048501D02*
X024090Y048501D01*
X024090Y048343D02*
X045670Y048343D01*
X045670Y048184D02*
X024090Y048184D01*
X024090Y048026D02*
X045670Y048026D01*
X045670Y047867D02*
X024090Y047867D01*
X024090Y047709D02*
X045670Y047709D01*
X045670Y047550D02*
X024090Y047550D01*
X024090Y047392D02*
X045670Y047392D01*
X045670Y047233D02*
X024090Y047233D01*
X024090Y047075D02*
X045670Y047075D01*
X045670Y046916D02*
X024090Y046916D01*
X024090Y046758D02*
X045670Y046758D01*
X045670Y046599D02*
X024090Y046599D01*
X024090Y046441D02*
X045670Y046441D01*
X045670Y046282D02*
X041047Y046282D01*
X041078Y046274D02*
X040783Y046353D01*
X040477Y046353D01*
X040182Y046274D01*
X039918Y046122D01*
X039702Y045906D01*
X039549Y045641D01*
X039470Y045346D01*
X039470Y045041D01*
X039549Y044746D01*
X039702Y044481D01*
X039918Y044265D01*
X040182Y044112D01*
X040477Y044033D01*
X040783Y044033D01*
X041078Y044112D01*
X041342Y044265D01*
X041558Y044481D01*
X041711Y044746D01*
X041790Y045041D01*
X041790Y045346D01*
X041711Y045641D01*
X041558Y045906D01*
X041342Y046122D01*
X041078Y046274D01*
X041338Y046124D02*
X045670Y046124D01*
X045670Y045965D02*
X041498Y045965D01*
X041615Y045807D02*
X045670Y045807D01*
X045670Y045648D02*
X041707Y045648D01*
X041751Y045490D02*
X045670Y045490D01*
X045670Y045331D02*
X041790Y045331D01*
X041790Y045173D02*
X045670Y045173D01*
X045670Y045014D02*
X041783Y045014D01*
X041741Y044856D02*
X045670Y044856D01*
X045670Y044697D02*
X041683Y044697D01*
X041592Y044539D02*
X045670Y044539D01*
X045670Y044380D02*
X041458Y044380D01*
X041267Y044222D02*
X045670Y044222D01*
X045670Y044063D02*
X040895Y044063D01*
X040365Y044063D02*
X029695Y044063D01*
X029583Y044033D02*
X029878Y044112D01*
X030142Y044265D01*
X030358Y044481D01*
X030511Y044746D01*
X030590Y045041D01*
X030590Y045346D01*
X030511Y045641D01*
X030358Y045906D01*
X030142Y046122D01*
X029878Y046274D01*
X029583Y046353D01*
X029277Y046353D01*
X028982Y046274D01*
X028718Y046122D01*
X028502Y045906D01*
X028349Y045641D01*
X028270Y045346D01*
X028270Y045041D01*
X028349Y044746D01*
X028502Y044481D01*
X028718Y044265D01*
X028982Y044112D01*
X029277Y044033D01*
X029583Y044033D01*
X029165Y044063D02*
X024090Y044063D01*
X024090Y043905D02*
X045670Y043905D01*
X045670Y043746D02*
X024090Y043746D01*
X024090Y043588D02*
X045670Y043588D01*
X045670Y043429D02*
X024090Y043429D01*
X024090Y043271D02*
X045670Y043271D01*
X045670Y043112D02*
X038085Y043112D01*
X038310Y042954D02*
X045670Y042954D01*
X045670Y042795D02*
X038464Y042795D01*
X038556Y042637D02*
X045670Y042637D01*
X045670Y042478D02*
X038628Y042478D01*
X038670Y042320D02*
X045670Y042320D01*
X045670Y042161D02*
X038690Y042161D01*
X038690Y042003D02*
X045670Y042003D01*
X045696Y041844D02*
X038690Y041844D01*
X038690Y041686D02*
X045738Y041686D01*
X045817Y041527D02*
X038690Y041527D01*
X038690Y041369D02*
X045914Y041369D01*
X046072Y041210D02*
X038690Y041210D01*
X038690Y041052D02*
X046314Y041052D01*
X047990Y044222D02*
X049293Y044222D01*
X049102Y044380D02*
X047990Y044380D01*
X047990Y044539D02*
X048968Y044539D01*
X048877Y044697D02*
X047990Y044697D01*
X047990Y044856D02*
X048819Y044856D01*
X048777Y045014D02*
X047990Y045014D01*
X047990Y045173D02*
X048770Y045173D01*
X048770Y045331D02*
X047990Y045331D01*
X047990Y045490D02*
X048809Y045490D01*
X048853Y045648D02*
X047990Y045648D01*
X047990Y045807D02*
X048945Y045807D01*
X049062Y045965D02*
X047990Y045965D01*
X047990Y046124D02*
X049222Y046124D01*
X049513Y046282D02*
X047990Y046282D01*
X049407Y036931D02*
X041153Y036931D01*
X041391Y036772D02*
X049169Y036772D01*
X049010Y036614D02*
X041550Y036614D01*
X041645Y036455D02*
X048915Y036455D01*
X048837Y036297D02*
X041723Y036297D01*
X041765Y036138D02*
X048795Y036138D01*
X048770Y035980D02*
X041790Y035980D01*
X041790Y035821D02*
X048770Y035821D01*
X048791Y035663D02*
X041769Y035663D01*
X041727Y035504D02*
X048833Y035504D01*
X048907Y035346D02*
X041653Y035346D01*
X041562Y035187D02*
X048998Y035187D01*
X049154Y035029D02*
X041406Y035029D01*
X041178Y034870D02*
X049382Y034870D01*
X040018Y027579D02*
X023707Y027579D01*
X023479Y027421D02*
X039817Y027421D01*
X039523Y026945D02*
X009660Y026945D01*
X009660Y026787D02*
X039481Y026787D01*
X039470Y026628D02*
X009660Y026628D01*
X009660Y026470D02*
X014252Y026470D01*
X013887Y026311D02*
X009660Y026311D01*
X009660Y026153D02*
X013699Y026153D01*
X013566Y025994D02*
X009660Y025994D01*
X009660Y025836D02*
X013475Y025836D01*
X013419Y025677D02*
X009660Y025677D01*
X009660Y025519D02*
X013376Y025519D01*
X013370Y025360D02*
X009660Y025360D01*
X009660Y025202D02*
X013370Y025202D01*
X013409Y025043D02*
X009660Y025043D01*
X009660Y024885D02*
X013455Y024885D01*
X013547Y024726D02*
X009660Y024726D01*
X009660Y024568D02*
X013665Y024568D01*
X013828Y024409D02*
X009660Y024409D01*
X009660Y024251D02*
X014125Y024251D01*
X014935Y024251D02*
X036647Y024251D01*
X036536Y024092D02*
X009660Y024092D01*
X009660Y023934D02*
X036447Y023934D01*
X036405Y023775D02*
X009660Y023775D01*
X009660Y023617D02*
X036370Y023617D01*
X036370Y023458D02*
X012286Y023458D01*
X012243Y023483D02*
X011905Y023573D01*
X011555Y023573D01*
X011217Y023483D01*
X010913Y023308D01*
X010666Y023060D01*
X010491Y022757D01*
X010400Y022418D01*
X010400Y022068D01*
X010491Y021730D01*
X010666Y021427D01*
X010913Y021179D01*
X011217Y021004D01*
X011555Y020913D01*
X011905Y020913D01*
X012243Y021004D01*
X012547Y021179D01*
X012794Y021427D01*
X012969Y021730D01*
X013060Y022068D01*
X013060Y022418D01*
X012969Y022757D01*
X012794Y023060D01*
X012547Y023308D01*
X012243Y023483D01*
X012554Y023300D02*
X022440Y023300D01*
X022482Y023324D02*
X022218Y023172D01*
X022002Y022956D01*
X021849Y022691D01*
X021770Y022396D01*
X021770Y022091D01*
X021849Y021796D01*
X022002Y021531D01*
X022218Y021315D01*
X022482Y021162D01*
X022777Y021083D01*
X023083Y021083D01*
X023378Y021162D01*
X023642Y021315D01*
X023858Y021531D01*
X024011Y021796D01*
X024090Y022091D01*
X024090Y022396D01*
X024011Y022691D01*
X023858Y022956D01*
X023642Y023172D01*
X023378Y023324D01*
X023083Y023403D01*
X022777Y023403D01*
X022482Y023324D01*
X022188Y023141D02*
X012713Y023141D01*
X012839Y022983D02*
X022029Y022983D01*
X021926Y022824D02*
X012930Y022824D01*
X012994Y022666D02*
X021842Y022666D01*
X021800Y022507D02*
X013036Y022507D01*
X013060Y022349D02*
X021770Y022349D01*
X021770Y022190D02*
X013060Y022190D01*
X013050Y022032D02*
X021786Y022032D01*
X021828Y021873D02*
X013008Y021873D01*
X012961Y021715D02*
X021896Y021715D01*
X021987Y021556D02*
X012869Y021556D01*
X012765Y021398D02*
X022135Y021398D01*
X022349Y021239D02*
X012607Y021239D01*
X012377Y021081D02*
X036370Y021081D01*
X036370Y021239D02*
X023511Y021239D01*
X023725Y021398D02*
X036370Y021398D01*
X036370Y021556D02*
X023873Y021556D01*
X023964Y021715D02*
X036370Y021715D01*
X036370Y021873D02*
X024032Y021873D01*
X024074Y022032D02*
X036370Y022032D01*
X036370Y022190D02*
X024090Y022190D01*
X024090Y022349D02*
X036370Y022349D01*
X036370Y022507D02*
X024060Y022507D01*
X024018Y022666D02*
X036370Y022666D01*
X036370Y022824D02*
X023934Y022824D01*
X023831Y022983D02*
X036370Y022983D01*
X036370Y023141D02*
X023672Y023141D01*
X023420Y023300D02*
X036370Y023300D01*
X036806Y024409D02*
X015232Y024409D01*
X015684Y025519D02*
X040171Y025519D01*
X039905Y025677D02*
X015641Y025677D01*
X015585Y025836D02*
X039747Y025836D01*
X039636Y025994D02*
X015494Y025994D01*
X015361Y026153D02*
X039547Y026153D01*
X039505Y026311D02*
X015173Y026311D01*
X014808Y026470D02*
X039470Y026470D01*
X036370Y020922D02*
X011939Y020922D01*
X011521Y020922D02*
X009660Y020922D01*
X009660Y020764D02*
X036370Y020764D01*
X036370Y020605D02*
X009660Y020605D01*
X009660Y020447D02*
X036370Y020447D01*
X036370Y020288D02*
X014739Y020288D01*
X014683Y020303D02*
X014377Y020303D01*
X014082Y020224D01*
X013818Y020072D01*
X013602Y019856D01*
X013449Y019591D01*
X013370Y019296D01*
X013370Y018991D01*
X013449Y018696D01*
X013602Y018431D01*
X013818Y018215D01*
X014082Y018062D01*
X014377Y017983D01*
X014683Y017983D01*
X014978Y018062D01*
X015242Y018215D01*
X015458Y018431D01*
X015611Y018696D01*
X015690Y018991D01*
X015690Y019296D01*
X015611Y019591D01*
X015458Y019856D01*
X015242Y020072D01*
X014978Y020224D01*
X014683Y020303D01*
X014321Y020288D02*
X009660Y020288D01*
X009660Y020130D02*
X013919Y020130D01*
X013718Y019971D02*
X009660Y019971D01*
X009660Y019813D02*
X013577Y019813D01*
X013486Y019654D02*
X009660Y019654D01*
X009660Y019496D02*
X013424Y019496D01*
X013381Y019337D02*
X009660Y019337D01*
X009660Y019179D02*
X013370Y019179D01*
X013370Y019020D02*
X009660Y019020D01*
X009660Y018862D02*
X013405Y018862D01*
X013447Y018703D02*
X009660Y018703D01*
X009660Y018545D02*
X013536Y018545D01*
X013646Y018386D02*
X009660Y018386D01*
X009660Y018228D02*
X013805Y018228D01*
X014070Y018069D02*
X009660Y018069D01*
X009660Y017911D02*
X036370Y017911D01*
X036370Y018069D02*
X014990Y018069D01*
X015255Y018228D02*
X036370Y018228D01*
X036370Y018386D02*
X015414Y018386D01*
X015524Y018545D02*
X036370Y018545D01*
X036370Y018703D02*
X015613Y018703D01*
X015655Y018862D02*
X036370Y018862D01*
X036370Y019020D02*
X015690Y019020D01*
X015690Y019179D02*
X036370Y019179D01*
X036370Y019337D02*
X015679Y019337D01*
X015636Y019496D02*
X036370Y019496D01*
X036370Y019654D02*
X015574Y019654D01*
X015483Y019813D02*
X036370Y019813D01*
X036370Y019971D02*
X015342Y019971D01*
X015141Y020130D02*
X036370Y020130D01*
X036370Y017752D02*
X009660Y017752D01*
X009660Y017594D02*
X036370Y017594D01*
X036370Y017435D02*
X009660Y017435D01*
X009660Y017277D02*
X011207Y017277D01*
X011217Y017283D02*
X010913Y017108D01*
X010666Y016860D01*
X010491Y016557D01*
X010400Y016218D01*
X010400Y015868D01*
X010491Y015530D01*
X010666Y015227D01*
X010913Y014979D01*
X011217Y014804D01*
X011555Y014713D01*
X011905Y014713D01*
X012243Y014804D01*
X012547Y014979D01*
X012794Y015227D01*
X012969Y015530D01*
X013060Y015868D01*
X013060Y016218D01*
X012969Y016557D01*
X012794Y016860D01*
X012547Y017108D01*
X012243Y017283D01*
X011905Y017373D01*
X011555Y017373D01*
X011217Y017283D01*
X010932Y017118D02*
X009660Y017118D01*
X009660Y016960D02*
X010766Y016960D01*
X010632Y016801D02*
X009660Y016801D01*
X009660Y016643D02*
X010540Y016643D01*
X010471Y016484D02*
X009660Y016484D01*
X009660Y016326D02*
X010429Y016326D01*
X010400Y016167D02*
X009660Y016167D01*
X009660Y016009D02*
X010400Y016009D01*
X010405Y015850D02*
X009660Y015850D01*
X009660Y015692D02*
X010447Y015692D01*
X010490Y015533D02*
X009660Y015533D01*
X009660Y015375D02*
X010580Y015375D01*
X010676Y015216D02*
X009660Y015216D01*
X009660Y015058D02*
X010835Y015058D01*
X011051Y014899D02*
X009660Y014899D01*
X009660Y014741D02*
X011452Y014741D01*
X012008Y014741D02*
X014552Y014741D01*
X014655Y014713D02*
X015005Y014713D01*
X015343Y014804D01*
X015647Y014979D01*
X015894Y015227D01*
X016069Y015530D01*
X016160Y015868D01*
X016160Y016218D01*
X016069Y016557D01*
X015894Y016860D01*
X015647Y017108D01*
X015343Y017283D01*
X015005Y017373D01*
X014655Y017373D01*
X014317Y017283D01*
X014013Y017108D01*
X013766Y016860D01*
X013591Y016557D01*
X013500Y016218D01*
X013500Y015868D01*
X013591Y015530D01*
X013766Y015227D01*
X014013Y014979D01*
X014317Y014804D01*
X014655Y014713D01*
X015108Y014741D02*
X036370Y014741D01*
X036370Y014899D02*
X023142Y014899D01*
X023083Y014883D02*
X023378Y014962D01*
X023642Y015115D01*
X023858Y015331D01*
X024011Y015596D01*
X024090Y015891D01*
X024090Y016196D01*
X024011Y016491D01*
X023858Y016756D01*
X023642Y016972D01*
X023378Y017124D01*
X023083Y017203D01*
X022777Y017203D01*
X022482Y017124D01*
X022218Y016972D01*
X022002Y016756D01*
X021849Y016491D01*
X021770Y016196D01*
X021770Y015891D01*
X021849Y015596D01*
X022002Y015331D01*
X022218Y015115D01*
X022482Y014962D01*
X022777Y014883D01*
X023083Y014883D01*
X022718Y014899D02*
X015509Y014899D01*
X015725Y015058D02*
X022317Y015058D01*
X022117Y015216D02*
X015884Y015216D01*
X015980Y015375D02*
X021976Y015375D01*
X021885Y015533D02*
X016070Y015533D01*
X016113Y015692D02*
X021823Y015692D01*
X021781Y015850D02*
X016155Y015850D01*
X016160Y016009D02*
X021770Y016009D01*
X021770Y016167D02*
X016160Y016167D01*
X016131Y016326D02*
X021805Y016326D01*
X021847Y016484D02*
X016089Y016484D01*
X016020Y016643D02*
X021937Y016643D01*
X022048Y016801D02*
X015928Y016801D01*
X015794Y016960D02*
X022206Y016960D01*
X022472Y017118D02*
X015628Y017118D01*
X015353Y017277D02*
X036370Y017277D01*
X036370Y017118D02*
X023388Y017118D01*
X023654Y016960D02*
X036370Y016960D01*
X036370Y016801D02*
X023812Y016801D01*
X023923Y016643D02*
X036370Y016643D01*
X036370Y016484D02*
X024013Y016484D01*
X024055Y016326D02*
X036370Y016326D01*
X036370Y016167D02*
X024090Y016167D01*
X024090Y016009D02*
X036370Y016009D01*
X036370Y015850D02*
X024079Y015850D01*
X024037Y015692D02*
X036370Y015692D01*
X036370Y015533D02*
X023975Y015533D01*
X023883Y015375D02*
X036370Y015375D01*
X036370Y015216D02*
X023743Y015216D01*
X023543Y015058D02*
X036370Y015058D01*
X036370Y014582D02*
X009660Y014582D01*
X009660Y014424D02*
X036370Y014424D01*
X036370Y014265D02*
X009660Y014265D01*
X009660Y014107D02*
X036370Y014107D01*
X036395Y013948D02*
X009660Y013948D01*
X009660Y013790D02*
X036437Y013790D01*
X036515Y013631D02*
X009660Y013631D01*
X009660Y013473D02*
X036610Y013473D01*
X036769Y013314D02*
X009660Y013314D01*
X009660Y013156D02*
X037007Y013156D01*
X038053Y013156D02*
X046307Y013156D01*
X046069Y013314D02*
X038291Y013314D01*
X038450Y013473D02*
X045910Y013473D01*
X045815Y013631D02*
X038545Y013631D01*
X038623Y013790D02*
X045737Y013790D01*
X045695Y013948D02*
X038665Y013948D01*
X038690Y014107D02*
X045670Y014107D01*
X045670Y014265D02*
X038690Y014265D01*
X038690Y014424D02*
X045691Y014424D01*
X045733Y014582D02*
X038690Y014582D01*
X038690Y014741D02*
X045807Y014741D01*
X045898Y014899D02*
X038690Y014899D01*
X038690Y015058D02*
X046054Y015058D01*
X046282Y015216D02*
X038690Y015216D01*
X038690Y016326D02*
X039986Y016326D01*
X039799Y016484D02*
X038690Y016484D01*
X038690Y016643D02*
X039666Y016643D01*
X039575Y016801D02*
X038690Y016801D01*
X038690Y016960D02*
X039518Y016960D01*
X039476Y017118D02*
X038690Y017118D01*
X038690Y017277D02*
X039470Y017277D01*
X039470Y017435D02*
X038690Y017435D01*
X038690Y017594D02*
X039510Y017594D01*
X039556Y017752D02*
X038690Y017752D01*
X038690Y017911D02*
X039647Y017911D01*
X039766Y018069D02*
X038690Y018069D01*
X038690Y018228D02*
X039929Y018228D01*
X040227Y018386D02*
X038690Y018386D01*
X041033Y018386D02*
X049527Y018386D01*
X049229Y018228D02*
X041331Y018228D01*
X041494Y018069D02*
X049066Y018069D01*
X048947Y017911D02*
X041613Y017911D01*
X041704Y017752D02*
X048856Y017752D01*
X048810Y017594D02*
X041750Y017594D01*
X041790Y017435D02*
X048770Y017435D01*
X048770Y017277D02*
X041790Y017277D01*
X041784Y017118D02*
X048776Y017118D01*
X048818Y016960D02*
X041742Y016960D01*
X041685Y016801D02*
X048875Y016801D01*
X048966Y016643D02*
X041594Y016643D01*
X041461Y016484D02*
X049099Y016484D01*
X049286Y016326D02*
X041274Y016326D01*
X032504Y012839D02*
X013356Y012839D01*
X013574Y012680D02*
X032286Y012680D01*
X032128Y012522D02*
X013732Y012522D01*
X013829Y012363D02*
X032031Y012363D01*
X031940Y012205D02*
X013920Y012205D01*
X013962Y012046D02*
X031898Y012046D01*
X031855Y011888D02*
X014005Y011888D01*
X014010Y011729D02*
X031850Y011729D01*
X031850Y011571D02*
X014010Y011571D01*
X013982Y011412D02*
X031878Y011412D01*
X031921Y011254D02*
X013939Y011254D01*
X013870Y011095D02*
X031990Y011095D01*
X032081Y010937D02*
X013779Y010937D01*
X013646Y010778D02*
X032214Y010778D01*
X032379Y010620D02*
X013481Y010620D01*
X013206Y010461D02*
X032654Y010461D01*
X036370Y032810D02*
X009660Y032810D01*
X009660Y032968D02*
X036370Y032968D01*
X036370Y033127D02*
X009660Y033127D01*
X009660Y033285D02*
X036370Y033285D01*
X036370Y033761D02*
X023548Y033761D01*
X023747Y033919D02*
X036370Y033919D01*
X036370Y034078D02*
X023885Y034078D01*
X023977Y034236D02*
X036370Y034236D01*
X036370Y034395D02*
X024038Y034395D01*
X024080Y034553D02*
X036370Y034553D01*
X036370Y034712D02*
X024090Y034712D01*
X024090Y034870D02*
X036370Y034870D01*
X036370Y035029D02*
X024090Y035029D01*
X024090Y035187D02*
X036370Y035187D01*
X036370Y035346D02*
X024090Y035346D01*
X024090Y035504D02*
X036370Y035504D01*
X036370Y035663D02*
X024090Y035663D01*
X024090Y035821D02*
X036370Y035821D01*
X036370Y035980D02*
X024090Y035980D01*
X024090Y036138D02*
X036370Y036138D01*
X036370Y036297D02*
X024090Y036297D01*
X024090Y036455D02*
X036370Y036455D01*
X036370Y036614D02*
X024090Y036614D01*
X024090Y036772D02*
X036370Y036772D01*
X036370Y036931D02*
X024090Y036931D01*
X024090Y037089D02*
X036370Y037089D01*
X036370Y037248D02*
X024090Y037248D01*
X024090Y037406D02*
X036370Y037406D01*
X036370Y037565D02*
X024090Y037565D01*
X024090Y037723D02*
X036370Y037723D01*
X036370Y037882D02*
X024090Y037882D01*
X024090Y038040D02*
X036370Y038040D01*
X036370Y038199D02*
X024090Y038199D01*
X024090Y038357D02*
X036370Y038357D01*
X036370Y038516D02*
X024090Y038516D01*
X024090Y038674D02*
X036370Y038674D01*
X036370Y038833D02*
X024090Y038833D01*
X024090Y038991D02*
X036370Y038991D01*
X036370Y039150D02*
X024090Y039150D01*
X024090Y039308D02*
X036370Y039308D01*
X036370Y039467D02*
X024090Y039467D01*
X024090Y039625D02*
X036370Y039625D01*
X036370Y039784D02*
X024090Y039784D01*
X024090Y039942D02*
X036370Y039942D01*
X036370Y040101D02*
X024090Y040101D01*
X024090Y040259D02*
X036370Y040259D01*
X036370Y040418D02*
X024090Y040418D01*
X024090Y040576D02*
X036370Y040576D01*
X036370Y040735D02*
X024090Y040735D01*
X024090Y040893D02*
X036370Y040893D01*
X036370Y041052D02*
X026846Y041052D01*
X026778Y041012D02*
X027042Y041165D01*
X027258Y041381D01*
X027411Y041646D01*
X027490Y041941D01*
X027490Y042246D01*
X027411Y042541D01*
X027258Y042806D01*
X027042Y043022D01*
X026778Y043174D01*
X026483Y043253D01*
X026177Y043253D01*
X025882Y043174D01*
X025618Y043022D01*
X025402Y042806D01*
X025249Y042541D01*
X025170Y042246D01*
X025170Y041941D01*
X025249Y041646D01*
X025402Y041381D01*
X025618Y041165D01*
X025882Y041012D01*
X026177Y040933D01*
X026483Y040933D01*
X026778Y041012D01*
X027088Y041210D02*
X036370Y041210D01*
X036370Y041369D02*
X027246Y041369D01*
X027343Y041527D02*
X036370Y041527D01*
X036370Y041686D02*
X027422Y041686D01*
X027464Y041844D02*
X036370Y041844D01*
X036370Y042003D02*
X027490Y042003D01*
X027490Y042161D02*
X036370Y042161D01*
X036390Y042320D02*
X027470Y042320D01*
X027428Y042478D02*
X036432Y042478D01*
X036504Y042637D02*
X027356Y042637D01*
X027264Y042795D02*
X036596Y042795D01*
X036750Y042954D02*
X027110Y042954D01*
X026885Y043112D02*
X036975Y043112D01*
X039577Y044697D02*
X030483Y044697D01*
X030541Y044856D02*
X039519Y044856D01*
X039477Y045014D02*
X030583Y045014D01*
X030590Y045173D02*
X039470Y045173D01*
X039470Y045331D02*
X030590Y045331D01*
X030551Y045490D02*
X039509Y045490D01*
X039553Y045648D02*
X030507Y045648D01*
X030415Y045807D02*
X039645Y045807D01*
X039762Y045965D02*
X030298Y045965D01*
X030138Y046124D02*
X039922Y046124D01*
X040213Y046282D02*
X029847Y046282D01*
X029013Y046282D02*
X024090Y046282D01*
X024090Y046124D02*
X028722Y046124D01*
X028562Y045965D02*
X024090Y045965D01*
X024090Y045807D02*
X028445Y045807D01*
X028353Y045648D02*
X024090Y045648D01*
X024090Y045490D02*
X028309Y045490D01*
X028270Y045331D02*
X024090Y045331D01*
X024090Y045173D02*
X028270Y045173D01*
X028277Y045014D02*
X024090Y045014D01*
X024090Y044856D02*
X028319Y044856D01*
X028377Y044697D02*
X024090Y044697D01*
X024090Y044539D02*
X028468Y044539D01*
X028602Y044380D02*
X024090Y044380D01*
X024090Y044222D02*
X028793Y044222D01*
X030067Y044222D02*
X039993Y044222D01*
X039802Y044380D02*
X030258Y044380D01*
X030392Y044539D02*
X039668Y044539D01*
X032759Y054207D02*
X030554Y054207D01*
X030512Y054049D02*
X032435Y054049D01*
X032246Y053890D02*
X030421Y053890D01*
X030309Y053732D02*
X032100Y053732D01*
X032008Y053573D02*
X030151Y053573D01*
X029882Y053415D02*
X031929Y053415D01*
X031887Y053256D02*
X024090Y053256D01*
X024090Y053098D02*
X031850Y053098D01*
X031850Y052939D02*
X024090Y052939D01*
X024090Y052781D02*
X031850Y052781D01*
X031889Y052622D02*
X024090Y052622D01*
X024090Y052464D02*
X025864Y052464D01*
X025602Y052305D02*
X024090Y052305D01*
X024090Y052147D02*
X025443Y052147D01*
X025334Y051988D02*
X024090Y051988D01*
X024090Y051830D02*
X025246Y051830D01*
X025204Y051671D02*
X024090Y051671D01*
X024090Y051513D02*
X025170Y051513D01*
X025170Y051354D02*
X024090Y051354D01*
X024090Y051196D02*
X025182Y051196D01*
X025224Y051037D02*
X024090Y051037D01*
X024090Y050879D02*
X025288Y050879D01*
X025379Y050720D02*
X024090Y050720D01*
X024090Y050562D02*
X025521Y050562D01*
X025725Y050403D02*
X024090Y050403D01*
X024090Y050245D02*
X026134Y050245D01*
X027414Y051830D02*
X032449Y051830D01*
X032254Y051988D02*
X027326Y051988D01*
X027217Y052147D02*
X032104Y052147D01*
X032013Y052305D02*
X027058Y052305D01*
X026796Y052464D02*
X031932Y052464D01*
X028978Y053415D02*
X024090Y053415D01*
X024090Y053573D02*
X028709Y053573D01*
X028551Y053732D02*
X024090Y053732D01*
X024090Y053890D02*
X028439Y053890D01*
X028348Y054049D02*
X024090Y054049D01*
X024090Y054207D02*
X028306Y054207D01*
X028270Y054366D02*
X024090Y054366D01*
X024090Y054524D02*
X028270Y054524D01*
X028280Y054683D02*
X024090Y054683D01*
X024090Y054841D02*
X028322Y054841D01*
X028383Y055000D02*
X024090Y055000D01*
X024090Y055158D02*
X028475Y055158D01*
X028613Y055317D02*
X024090Y055317D01*
X024090Y055475D02*
X028811Y055475D01*
X025775Y043112D02*
X024090Y043112D01*
X024090Y042954D02*
X025550Y042954D01*
X025396Y042795D02*
X024090Y042795D01*
X024090Y042637D02*
X025304Y042637D01*
X025232Y042478D02*
X024090Y042478D01*
X024090Y042320D02*
X025190Y042320D01*
X025170Y042161D02*
X024090Y042161D01*
X024090Y042003D02*
X025170Y042003D01*
X025196Y041844D02*
X024090Y041844D01*
X024090Y041686D02*
X025238Y041686D01*
X025317Y041527D02*
X024090Y041527D01*
X024090Y041369D02*
X025414Y041369D01*
X025572Y041210D02*
X024090Y041210D01*
X024090Y041052D02*
X025814Y041052D01*
X014242Y029640D02*
X012318Y029640D01*
X012573Y029481D02*
X013987Y029481D01*
X013829Y029323D02*
X012731Y029323D01*
X012849Y029164D02*
X013711Y029164D01*
X013619Y029006D02*
X012941Y029006D01*
X012999Y028847D02*
X013561Y028847D01*
X013519Y028689D02*
X013041Y028689D01*
X013060Y028530D02*
X013500Y028530D01*
X013500Y028372D02*
X013060Y028372D01*
X013045Y028213D02*
X013515Y028213D01*
X013557Y028055D02*
X013003Y028055D01*
X012950Y027896D02*
X013610Y027896D01*
X013702Y027738D02*
X012858Y027738D01*
X012747Y027579D02*
X013813Y027579D01*
X013972Y027421D02*
X012588Y027421D01*
X012344Y027262D02*
X014216Y027262D01*
X011174Y023458D02*
X009660Y023458D01*
X009660Y023300D02*
X010906Y023300D01*
X010747Y023141D02*
X009660Y023141D01*
X009660Y022983D02*
X010621Y022983D01*
X010530Y022824D02*
X009660Y022824D01*
X009660Y022666D02*
X010466Y022666D01*
X010424Y022507D02*
X009660Y022507D01*
X009660Y022349D02*
X010400Y022349D01*
X010400Y022190D02*
X009660Y022190D01*
X009660Y022032D02*
X010410Y022032D01*
X010452Y021873D02*
X009660Y021873D01*
X009660Y021715D02*
X010499Y021715D01*
X010591Y021556D02*
X009660Y021556D01*
X009660Y021398D02*
X010695Y021398D01*
X010853Y021239D02*
X009660Y021239D01*
X009660Y021081D02*
X011083Y021081D01*
X012253Y017277D02*
X014307Y017277D01*
X014032Y017118D02*
X012528Y017118D01*
X012694Y016960D02*
X013866Y016960D01*
X013732Y016801D02*
X012828Y016801D01*
X012920Y016643D02*
X013640Y016643D01*
X013571Y016484D02*
X012989Y016484D01*
X013031Y016326D02*
X013529Y016326D01*
X013500Y016167D02*
X013060Y016167D01*
X013060Y016009D02*
X013500Y016009D01*
X013505Y015850D02*
X013055Y015850D01*
X013013Y015692D02*
X013547Y015692D01*
X013590Y015533D02*
X012970Y015533D01*
X012880Y015375D02*
X013680Y015375D01*
X013776Y015216D02*
X012784Y015216D01*
X012625Y015058D02*
X013935Y015058D01*
X014151Y014899D02*
X012409Y014899D01*
X014086Y073861D02*
X009660Y073861D01*
X009660Y074020D02*
X013813Y074020D01*
X013654Y074178D02*
X009660Y074178D01*
X009660Y074337D02*
X013541Y074337D01*
X013449Y074495D02*
X009660Y074495D01*
X009660Y074654D02*
X013407Y074654D01*
X013370Y074812D02*
X009660Y074812D01*
X009660Y074971D02*
X013370Y074971D01*
X013379Y075129D02*
X009660Y075129D01*
X009660Y075288D02*
X013421Y075288D01*
X013481Y075446D02*
X009660Y075446D01*
X009660Y075605D02*
X013573Y075605D01*
X013710Y075763D02*
X009660Y075763D01*
X009660Y075922D02*
X013905Y075922D01*
X014292Y076080D02*
X009660Y076080D01*
X009660Y076239D02*
X015585Y076239D01*
X015744Y076397D02*
X009660Y076397D01*
X009660Y076556D02*
X015902Y076556D01*
X016061Y076714D02*
X015009Y076714D01*
X014651Y076714D02*
X011909Y076714D01*
X011905Y076713D02*
X012243Y076804D01*
X012547Y076979D01*
X012794Y077227D01*
X012969Y077530D01*
X013060Y077868D01*
X013060Y078218D01*
X012969Y078557D01*
X012794Y078860D01*
X012547Y079108D01*
X012243Y079283D01*
X011905Y079373D01*
X011555Y079373D01*
X011217Y079283D01*
X010913Y079108D01*
X010666Y078860D01*
X010491Y078557D01*
X010400Y078218D01*
X010400Y077868D01*
X010491Y077530D01*
X010666Y077227D01*
X010913Y076979D01*
X011217Y076804D01*
X011555Y076713D01*
X011905Y076713D01*
X011551Y076714D02*
X009660Y076714D01*
X009660Y076873D02*
X011097Y076873D01*
X010861Y077031D02*
X009660Y077031D01*
X009660Y077190D02*
X010702Y077190D01*
X010595Y077348D02*
X009660Y077348D01*
X009660Y077507D02*
X010504Y077507D01*
X010454Y077665D02*
X009660Y077665D01*
X009660Y077824D02*
X010412Y077824D01*
X010400Y077982D02*
X009660Y077982D01*
X009660Y078141D02*
X010400Y078141D01*
X010422Y078299D02*
X009660Y078299D01*
X009660Y078458D02*
X010464Y078458D01*
X010525Y078616D02*
X009660Y078616D01*
X009660Y078775D02*
X010617Y078775D01*
X010739Y078933D02*
X009660Y078933D01*
X009660Y079092D02*
X010898Y079092D01*
X011161Y079250D02*
X009660Y079250D01*
X012299Y079250D02*
X014261Y079250D01*
X013998Y079092D02*
X012562Y079092D01*
X012721Y078933D02*
X013839Y078933D01*
X013717Y078775D02*
X012843Y078775D01*
X012935Y078616D02*
X013625Y078616D01*
X013564Y078458D02*
X012996Y078458D01*
X013038Y078299D02*
X013522Y078299D01*
X013500Y078141D02*
X013060Y078141D01*
X013060Y077982D02*
X013500Y077982D01*
X013512Y077824D02*
X013048Y077824D01*
X013006Y077665D02*
X013554Y077665D01*
X013604Y077507D02*
X012956Y077507D01*
X012865Y077348D02*
X013695Y077348D01*
X013802Y077190D02*
X012758Y077190D01*
X012599Y077031D02*
X013961Y077031D01*
X014197Y076873D02*
X012363Y076873D01*
X015463Y076873D02*
X016219Y076873D01*
X016378Y077031D02*
X015699Y077031D01*
X015858Y077190D02*
X016536Y077190D01*
X016695Y077348D02*
X015965Y077348D01*
X016056Y077507D02*
X016853Y077507D01*
X017012Y077665D02*
X016106Y077665D01*
X016148Y077824D02*
X017170Y077824D01*
X017329Y077982D02*
X016160Y077982D01*
X016160Y078141D02*
X017487Y078141D01*
X017646Y078299D02*
X016138Y078299D01*
X016096Y078458D02*
X017804Y078458D01*
X017963Y078616D02*
X016035Y078616D01*
X009660Y095576D02*
X055700Y095576D01*
X055700Y095734D02*
X009660Y095734D01*
X009660Y095893D02*
X055700Y095893D01*
X055700Y096051D02*
X009660Y096051D01*
X009660Y096210D02*
X055700Y096210D01*
X055700Y095417D02*
X054220Y095417D01*
X054494Y095259D02*
X055700Y095259D01*
X055700Y095100D02*
X054654Y095100D01*
X054784Y094942D02*
X055700Y094942D01*
X055700Y094783D02*
X054875Y094783D01*
X054941Y094625D02*
X055700Y094625D01*
X055700Y094466D02*
X054984Y094466D01*
X055010Y094308D02*
X055700Y094308D01*
X055700Y094149D02*
X055010Y094149D01*
X055003Y093991D02*
X055700Y093991D01*
X055700Y093832D02*
X054960Y093832D01*
X054916Y093674D02*
X055700Y093674D01*
X055700Y093515D02*
X054824Y093515D01*
X054725Y093357D02*
X055700Y093357D01*
X055700Y093198D02*
X054566Y093198D01*
X054342Y093040D02*
X055700Y093040D01*
D12*
X046830Y088593D02*
X046830Y079293D01*
X046830Y069993D02*
X046830Y060693D01*
X046830Y051393D02*
X046830Y042093D01*
X046830Y032793D02*
X046830Y023493D01*
X037530Y023493D02*
X037530Y014193D01*
X037530Y032793D02*
X037530Y042093D01*
X037530Y051393D02*
X037530Y060693D01*
X033180Y067543D02*
X029430Y063793D01*
X033180Y067543D02*
X033180Y071693D01*
X030180Y074693D01*
X021680Y074693D01*
X015730Y068743D01*
X014530Y068743D01*
X014530Y062543D02*
X015230Y062543D01*
X022930Y070243D01*
X022930Y071843D01*
X015930Y074943D02*
X021680Y080693D01*
X036130Y080693D01*
X037530Y079293D01*
X022130Y056343D02*
X022930Y055543D01*
X022930Y034743D01*
X022130Y056343D02*
X014530Y056343D01*
X014530Y074943D02*
X015930Y074943D01*
M02*
