G75*
%MOIN*%
%OFA0B0*%
%FSLAX24Y24*%
%IPPOS*%
%LPD*%
%AMOC8*
5,1,8,0,0,1.08239X$1,22.5*
%
%ADD10C,0.2000*%
%ADD11C,0.2000*%
%ADD12C,0.0160*%
D10*
X011430Y019143D03*
X014530Y019143D03*
X014530Y025343D03*
X011430Y025343D03*
X011430Y031543D03*
X014530Y031543D03*
X014530Y037743D03*
X011430Y037743D03*
X011430Y043943D03*
X014530Y043943D03*
X014530Y050143D03*
X011430Y050143D03*
X011430Y056343D03*
X014530Y056343D03*
X014530Y062543D03*
X011430Y062543D03*
X011430Y068743D03*
X014530Y068743D03*
X014530Y074943D03*
X011430Y074943D03*
X022930Y071843D03*
X022930Y078043D03*
X022930Y084243D03*
X022930Y090443D03*
X029130Y090443D03*
X029130Y084243D03*
X029130Y078043D03*
X029130Y071843D03*
X029430Y063793D03*
X029430Y060693D03*
X026330Y060693D03*
X029430Y054493D03*
X029430Y051393D03*
X026330Y051393D03*
X029430Y045193D03*
X029430Y042093D03*
X026330Y042093D03*
X029130Y034743D03*
X029130Y028443D03*
X029130Y022243D03*
X029130Y016043D03*
X022930Y016043D03*
X022930Y022243D03*
X022930Y028443D03*
X022930Y034743D03*
X037530Y032793D03*
X040630Y032793D03*
X040630Y035893D03*
X040630Y042093D03*
X040630Y045193D03*
X037530Y042093D03*
X037530Y051393D03*
X040630Y051393D03*
X040630Y054493D03*
X040630Y060693D03*
X040630Y063793D03*
X037530Y060693D03*
X037530Y069993D03*
X040630Y069993D03*
X040630Y073093D03*
X040630Y079293D03*
X040630Y082393D03*
X037530Y079293D03*
X037530Y088593D03*
X040630Y088593D03*
X040630Y091693D03*
X046830Y088593D03*
X049930Y088593D03*
X049930Y091693D03*
X049930Y082393D03*
X049930Y079293D03*
X046830Y079293D03*
X049930Y073093D03*
X049930Y069993D03*
X046830Y069993D03*
X049930Y063793D03*
X049930Y060693D03*
X046830Y060693D03*
X049930Y054493D03*
X049930Y051393D03*
X046830Y051393D03*
X049930Y045193D03*
X049930Y042093D03*
X046830Y042093D03*
X049930Y035893D03*
X049930Y032793D03*
X046830Y032793D03*
X049930Y026593D03*
X049930Y023493D03*
X046830Y023493D03*
X049930Y017293D03*
X049930Y014193D03*
X046830Y014193D03*
X040630Y014193D03*
X040630Y017293D03*
X037530Y014193D03*
X037530Y023493D03*
X040630Y023493D03*
X040630Y026593D03*
D11*
X037530Y023493D02*
X037530Y032793D01*
X037530Y042093D02*
X037530Y048693D01*
X044330Y048693D01*
X046830Y051193D01*
X046830Y051393D01*
X046830Y060693D01*
X046830Y069993D02*
X046830Y079293D01*
X037530Y079293D02*
X037530Y069993D01*
X037530Y060693D01*
X034530Y057693D01*
X026330Y057693D01*
X026330Y060693D01*
X026330Y060043D01*
X026330Y057693D02*
X026330Y051393D01*
X026330Y042093D01*
X023130Y042943D02*
X017930Y037743D01*
X014530Y037743D01*
X014530Y031543D02*
X019830Y031543D01*
X022930Y028443D01*
X019830Y025343D02*
X022930Y022243D01*
X019830Y019143D02*
X022930Y016043D01*
X019830Y019143D02*
X014530Y019143D01*
X014530Y025343D02*
X019830Y025343D01*
X023130Y042943D02*
X023130Y067143D01*
X025880Y069893D01*
X025880Y075093D01*
X022930Y078043D01*
X020080Y081393D02*
X022930Y084243D01*
X020080Y081393D02*
X020080Y047193D01*
X020080Y047018D01*
X020080Y045993D01*
X018030Y043943D01*
X014530Y043943D01*
X014530Y050143D02*
X015330Y050143D01*
X017380Y052193D01*
X017380Y079443D01*
X013180Y083643D01*
X013180Y092693D01*
X014680Y094193D01*
X020580Y094193D02*
X022930Y091843D01*
X022930Y090443D01*
X037530Y088593D02*
X037530Y079293D01*
X037530Y051393D02*
X037530Y048693D01*
X046830Y042093D02*
X046830Y032793D01*
X046830Y023493D02*
X046830Y014193D01*
D12*
X009660Y009673D02*
X009660Y096213D01*
X015061Y096213D01*
X013970Y095123D01*
X013968Y095122D01*
X012468Y093622D01*
X012252Y093406D01*
X012099Y093141D01*
X012020Y092846D01*
X012020Y083491D01*
X012099Y083196D01*
X012218Y082989D01*
X011905Y083073D01*
X011555Y083073D01*
X011217Y082983D01*
X010913Y082808D01*
X010666Y082560D01*
X010491Y082257D01*
X010400Y081918D01*
X010400Y081568D01*
X010491Y081230D01*
X010666Y080927D01*
X010913Y080679D01*
X011217Y080504D01*
X011555Y080413D01*
X011905Y080413D01*
X012243Y080504D01*
X012547Y080679D01*
X012794Y080927D01*
X012969Y081230D01*
X013060Y081568D01*
X013060Y081918D01*
X012985Y082198D01*
X016220Y078963D01*
X016220Y052674D01*
X014850Y051303D01*
X014377Y051303D01*
X014082Y051224D01*
X013818Y051072D01*
X013602Y050856D01*
X013449Y050591D01*
X013370Y050296D01*
X013370Y049991D01*
X013449Y049696D01*
X013602Y049431D01*
X013818Y049215D01*
X014082Y049062D01*
X014377Y048983D01*
X015483Y048983D01*
X015778Y049062D01*
X016042Y049215D01*
X018092Y051265D01*
X018308Y051481D01*
X018461Y051746D01*
X018540Y052041D01*
X018540Y079596D01*
X018461Y079891D01*
X018308Y080156D01*
X018092Y080372D01*
X014340Y084124D01*
X014340Y092213D01*
X014922Y092795D01*
X015782Y091948D01*
X015080Y091948D01*
X014894Y091871D01*
X014752Y091729D01*
X014675Y091544D01*
X014675Y085343D01*
X014752Y085157D01*
X014894Y085015D01*
X015080Y084938D01*
X020780Y084938D01*
X020966Y085015D01*
X021108Y085157D01*
X021185Y085343D01*
X021185Y091544D01*
X021108Y091729D01*
X020966Y091871D01*
X020780Y091948D01*
X019574Y091948D01*
X020379Y092753D01*
X021770Y091363D01*
X021770Y090291D01*
X021849Y089996D01*
X022002Y089731D01*
X022218Y089515D01*
X022482Y089362D01*
X022777Y089283D01*
X023083Y089283D01*
X023378Y089362D01*
X023642Y089515D01*
X023858Y089731D01*
X024011Y089996D01*
X024090Y090291D01*
X024090Y091996D01*
X024011Y092291D01*
X023858Y092556D01*
X021292Y095122D01*
X021290Y095123D01*
X020199Y096213D01*
X055700Y096213D01*
X055700Y009673D01*
X009660Y009673D01*
X009660Y009827D02*
X055700Y009827D01*
X055700Y009986D02*
X009660Y009986D01*
X009660Y010144D02*
X055700Y010144D01*
X055700Y010303D02*
X009660Y010303D01*
X009660Y010461D02*
X012154Y010461D01*
X012167Y010454D02*
X012505Y010363D01*
X012855Y010363D01*
X013193Y010454D01*
X013497Y010629D01*
X013744Y010877D01*
X013919Y011180D01*
X014010Y011518D01*
X014010Y011868D01*
X013919Y012207D01*
X013744Y012510D01*
X013497Y012758D01*
X013193Y012933D01*
X012855Y013023D01*
X012505Y013023D01*
X012167Y012933D01*
X011863Y012758D01*
X011616Y012510D01*
X011441Y012207D01*
X011350Y011868D01*
X011350Y011518D01*
X011441Y011180D01*
X011616Y010877D01*
X011863Y010629D01*
X012167Y010454D01*
X011879Y010620D02*
X009660Y010620D01*
X009660Y010778D02*
X011714Y010778D01*
X011581Y010937D02*
X009660Y010937D01*
X009660Y011095D02*
X011490Y011095D01*
X011421Y011254D02*
X009660Y011254D01*
X009660Y011412D02*
X011378Y011412D01*
X011350Y011571D02*
X009660Y011571D01*
X009660Y011729D02*
X011350Y011729D01*
X011355Y011888D02*
X009660Y011888D01*
X009660Y012046D02*
X011398Y012046D01*
X011440Y012205D02*
X009660Y012205D01*
X009660Y012363D02*
X011531Y012363D01*
X011628Y012522D02*
X009660Y012522D01*
X009660Y012680D02*
X011786Y012680D01*
X012004Y012839D02*
X009660Y012839D01*
X009660Y012997D02*
X012408Y012997D01*
X012952Y012997D02*
X032908Y012997D01*
X033005Y013023D02*
X032667Y012933D01*
X032363Y012758D01*
X032116Y012510D01*
X031941Y012207D01*
X031850Y011868D01*
X031850Y011518D01*
X031941Y011180D01*
X032116Y010877D01*
X032363Y010629D01*
X032667Y010454D01*
X033005Y010363D01*
X033355Y010363D01*
X033693Y010454D01*
X033997Y010629D01*
X034244Y010877D01*
X034419Y011180D01*
X034510Y011518D01*
X034510Y011868D01*
X034419Y012207D01*
X034244Y012510D01*
X033997Y012758D01*
X033693Y012933D01*
X033355Y013023D01*
X033005Y013023D01*
X033452Y012997D02*
X053408Y012997D01*
X053505Y013023D02*
X053167Y012933D01*
X052863Y012758D01*
X052616Y012510D01*
X052441Y012207D01*
X052350Y011868D01*
X052350Y011518D01*
X052441Y011180D01*
X052616Y010877D01*
X052863Y010629D01*
X053167Y010454D01*
X053505Y010363D01*
X053855Y010363D01*
X054193Y010454D01*
X054497Y010629D01*
X054744Y010877D01*
X054919Y011180D01*
X055010Y011518D01*
X055010Y011868D01*
X054919Y012207D01*
X054744Y012510D01*
X054497Y012758D01*
X054193Y012933D01*
X053855Y013023D01*
X053505Y013023D01*
X053952Y012997D02*
X055700Y012997D01*
X055700Y012839D02*
X054356Y012839D01*
X054574Y012680D02*
X055700Y012680D01*
X055700Y012522D02*
X054732Y012522D01*
X054829Y012363D02*
X055700Y012363D01*
X055700Y012205D02*
X054920Y012205D01*
X054962Y012046D02*
X055700Y012046D01*
X055700Y011888D02*
X055005Y011888D01*
X055010Y011729D02*
X055700Y011729D01*
X055700Y011571D02*
X055010Y011571D01*
X054982Y011412D02*
X055700Y011412D01*
X055700Y011254D02*
X054939Y011254D01*
X054870Y011095D02*
X055700Y011095D01*
X055700Y010937D02*
X054779Y010937D01*
X054646Y010778D02*
X055700Y010778D01*
X055700Y010620D02*
X054481Y010620D01*
X054206Y010461D02*
X055700Y010461D01*
X053154Y010461D02*
X033706Y010461D01*
X033981Y010620D02*
X052879Y010620D01*
X052714Y010778D02*
X034146Y010778D01*
X034279Y010937D02*
X052581Y010937D01*
X052490Y011095D02*
X034370Y011095D01*
X034439Y011254D02*
X052421Y011254D01*
X052378Y011412D02*
X034482Y011412D01*
X034510Y011571D02*
X052350Y011571D01*
X052350Y011729D02*
X034510Y011729D01*
X034505Y011888D02*
X052355Y011888D01*
X052398Y012046D02*
X034462Y012046D01*
X034420Y012205D02*
X052440Y012205D01*
X052531Y012363D02*
X034329Y012363D01*
X034232Y012522D02*
X052628Y012522D01*
X052786Y012680D02*
X034074Y012680D01*
X033856Y012839D02*
X053004Y012839D01*
X051011Y013746D02*
X051090Y014041D01*
X051090Y014346D01*
X051011Y014641D01*
X050858Y014906D01*
X050642Y015122D01*
X050378Y015274D01*
X050083Y015353D01*
X049777Y015353D01*
X049482Y015274D01*
X049218Y015122D01*
X049002Y014906D01*
X048849Y014641D01*
X048770Y014346D01*
X048770Y014041D01*
X048849Y013746D01*
X049002Y013481D01*
X049218Y013265D01*
X049482Y013112D01*
X049777Y013033D01*
X050083Y013033D01*
X050378Y013112D01*
X050642Y013265D01*
X050858Y013481D01*
X051011Y013746D01*
X051023Y013790D02*
X055700Y013790D01*
X055700Y013948D02*
X051065Y013948D01*
X051090Y014107D02*
X055700Y014107D01*
X055700Y014265D02*
X051090Y014265D01*
X051069Y014424D02*
X055700Y014424D01*
X055700Y014582D02*
X051027Y014582D01*
X050953Y014741D02*
X055700Y014741D01*
X055700Y014899D02*
X050862Y014899D01*
X050706Y015058D02*
X055700Y015058D01*
X055700Y015216D02*
X050478Y015216D01*
X049382Y015216D02*
X047990Y015216D01*
X047990Y015058D02*
X049154Y015058D01*
X048998Y014899D02*
X047990Y014899D01*
X047990Y014741D02*
X048907Y014741D01*
X048833Y014582D02*
X047990Y014582D01*
X047990Y014424D02*
X048791Y014424D01*
X048770Y014265D02*
X047990Y014265D01*
X047990Y014107D02*
X048770Y014107D01*
X048795Y013948D02*
X047965Y013948D01*
X047990Y014041D02*
X047990Y023341D01*
X047990Y023646D01*
X047911Y023941D01*
X047758Y024206D01*
X047542Y024422D01*
X047278Y024574D01*
X046983Y024653D01*
X046677Y024653D01*
X046382Y024574D01*
X046118Y024422D01*
X045902Y024206D01*
X045749Y023941D01*
X045670Y023646D01*
X045670Y014041D01*
X045749Y013746D01*
X045902Y013481D01*
X046118Y013265D01*
X046382Y013112D01*
X046677Y013033D01*
X046983Y013033D01*
X047278Y013112D01*
X047542Y013265D01*
X047758Y013481D01*
X047911Y013746D01*
X047990Y014041D01*
X047923Y013790D02*
X048837Y013790D01*
X048915Y013631D02*
X047845Y013631D01*
X047750Y013473D02*
X049010Y013473D01*
X049169Y013314D02*
X047591Y013314D01*
X047353Y013156D02*
X049407Y013156D01*
X050453Y013156D02*
X055700Y013156D01*
X055700Y013314D02*
X050691Y013314D01*
X050850Y013473D02*
X055700Y013473D01*
X055700Y013631D02*
X050945Y013631D01*
X047990Y015375D02*
X055700Y015375D01*
X055700Y015533D02*
X047990Y015533D01*
X047990Y015692D02*
X055700Y015692D01*
X055700Y015850D02*
X047990Y015850D01*
X047990Y016009D02*
X055700Y016009D01*
X055700Y016167D02*
X047990Y016167D01*
X047990Y016326D02*
X055700Y016326D01*
X055700Y016484D02*
X047990Y016484D01*
X047990Y016643D02*
X055700Y016643D01*
X055700Y016801D02*
X047990Y016801D01*
X047990Y016960D02*
X055700Y016960D01*
X055700Y017118D02*
X047990Y017118D01*
X047990Y017277D02*
X055700Y017277D01*
X055700Y017435D02*
X047990Y017435D01*
X047990Y017594D02*
X055700Y017594D01*
X055700Y017752D02*
X047990Y017752D01*
X047990Y017911D02*
X055700Y017911D01*
X055700Y018069D02*
X047990Y018069D01*
X047990Y018228D02*
X055700Y018228D01*
X055700Y018386D02*
X047990Y018386D01*
X047990Y018545D02*
X055700Y018545D01*
X055700Y018703D02*
X047990Y018703D01*
X047990Y018862D02*
X055700Y018862D01*
X055700Y019020D02*
X047990Y019020D01*
X047990Y019179D02*
X055700Y019179D01*
X055700Y019337D02*
X047990Y019337D01*
X047990Y019496D02*
X055700Y019496D01*
X055700Y019654D02*
X047990Y019654D01*
X047990Y019813D02*
X055700Y019813D01*
X055700Y019971D02*
X047990Y019971D01*
X047990Y020130D02*
X055700Y020130D01*
X055700Y020288D02*
X047990Y020288D01*
X047990Y020447D02*
X055700Y020447D01*
X055700Y020605D02*
X047990Y020605D01*
X047990Y020764D02*
X055700Y020764D01*
X055700Y020922D02*
X047990Y020922D01*
X047990Y021081D02*
X055700Y021081D01*
X055700Y021239D02*
X047990Y021239D01*
X047990Y021398D02*
X055700Y021398D01*
X055700Y021556D02*
X047990Y021556D01*
X047990Y021715D02*
X055700Y021715D01*
X055700Y021873D02*
X047990Y021873D01*
X047990Y022032D02*
X055700Y022032D01*
X055700Y022190D02*
X047990Y022190D01*
X047990Y022349D02*
X049719Y022349D01*
X049777Y022333D02*
X050083Y022333D01*
X050378Y022412D01*
X050642Y022565D01*
X050858Y022781D01*
X051011Y023046D01*
X051090Y023341D01*
X051090Y023646D01*
X051011Y023941D01*
X050858Y024206D01*
X050642Y024422D01*
X050378Y024574D01*
X050083Y024653D01*
X049777Y024653D01*
X049482Y024574D01*
X049218Y024422D01*
X049002Y024206D01*
X048849Y023941D01*
X048770Y023646D01*
X048770Y023341D01*
X048849Y023046D01*
X049002Y022781D01*
X049218Y022565D01*
X049482Y022412D01*
X049777Y022333D01*
X050141Y022349D02*
X055700Y022349D01*
X055700Y022507D02*
X050542Y022507D01*
X050743Y022666D02*
X055700Y022666D01*
X055700Y022824D02*
X050883Y022824D01*
X050975Y022983D02*
X055700Y022983D01*
X055700Y023141D02*
X051037Y023141D01*
X051079Y023300D02*
X055700Y023300D01*
X055700Y023458D02*
X051090Y023458D01*
X051090Y023617D02*
X055700Y023617D01*
X055700Y023775D02*
X051055Y023775D01*
X051013Y023934D02*
X055700Y023934D01*
X055700Y024092D02*
X050924Y024092D01*
X050813Y024251D02*
X055700Y024251D01*
X055700Y024409D02*
X050654Y024409D01*
X050389Y024568D02*
X055700Y024568D01*
X055700Y024726D02*
X038690Y024726D01*
X038690Y024568D02*
X040171Y024568D01*
X040182Y024574D02*
X039918Y024422D01*
X039702Y024206D01*
X039549Y023941D01*
X039470Y023646D01*
X039470Y023341D01*
X039549Y023046D01*
X039702Y022781D01*
X039918Y022565D01*
X040182Y022412D01*
X040477Y022333D01*
X040783Y022333D01*
X041078Y022412D01*
X041342Y022565D01*
X041558Y022781D01*
X041711Y023046D01*
X041790Y023341D01*
X041790Y023646D01*
X041711Y023941D01*
X041558Y024206D01*
X041342Y024422D01*
X041078Y024574D01*
X040783Y024653D01*
X040477Y024653D01*
X040182Y024574D01*
X039906Y024409D02*
X038690Y024409D01*
X038690Y024251D02*
X039747Y024251D01*
X039636Y024092D02*
X038690Y024092D01*
X038690Y023934D02*
X039547Y023934D01*
X039505Y023775D02*
X038690Y023775D01*
X038690Y023617D02*
X039470Y023617D01*
X039470Y023458D02*
X038690Y023458D01*
X038690Y023341D02*
X038611Y023046D01*
X038458Y022781D01*
X038242Y022565D01*
X037978Y022412D01*
X037683Y022333D01*
X037377Y022333D01*
X037082Y022412D01*
X036818Y022565D01*
X036602Y022781D01*
X036449Y023046D01*
X036370Y023341D01*
X036370Y032946D01*
X036449Y033241D01*
X036602Y033506D01*
X036818Y033722D01*
X037082Y033874D01*
X037377Y033953D01*
X037683Y033953D01*
X037978Y033874D01*
X038242Y033722D01*
X038458Y033506D01*
X038611Y033241D01*
X038690Y032946D01*
X038690Y023341D01*
X038679Y023300D02*
X039481Y023300D01*
X039523Y023141D02*
X038637Y023141D01*
X038575Y022983D02*
X039585Y022983D01*
X039677Y022824D02*
X038483Y022824D01*
X038343Y022666D02*
X039817Y022666D01*
X040018Y022507D02*
X038142Y022507D01*
X037741Y022349D02*
X040419Y022349D01*
X040841Y022349D02*
X045670Y022349D01*
X045670Y022507D02*
X041242Y022507D01*
X041443Y022666D02*
X045670Y022666D01*
X045670Y022824D02*
X041583Y022824D01*
X041675Y022983D02*
X045670Y022983D01*
X045670Y023141D02*
X041737Y023141D01*
X041779Y023300D02*
X045670Y023300D01*
X045670Y023458D02*
X041790Y023458D01*
X041790Y023617D02*
X045670Y023617D01*
X045705Y023775D02*
X041755Y023775D01*
X041713Y023934D02*
X045747Y023934D01*
X045836Y024092D02*
X041624Y024092D01*
X041513Y024251D02*
X045947Y024251D01*
X046106Y024409D02*
X041354Y024409D01*
X041089Y024568D02*
X046371Y024568D01*
X047289Y024568D02*
X049471Y024568D01*
X049206Y024409D02*
X047554Y024409D01*
X047713Y024251D02*
X049047Y024251D01*
X048936Y024092D02*
X047824Y024092D01*
X047913Y023934D02*
X048847Y023934D01*
X048805Y023775D02*
X047955Y023775D01*
X047990Y023617D02*
X048770Y023617D01*
X048770Y023458D02*
X047990Y023458D01*
X047990Y023300D02*
X048781Y023300D01*
X048823Y023141D02*
X047990Y023141D01*
X047990Y022983D02*
X048885Y022983D01*
X048977Y022824D02*
X047990Y022824D01*
X047990Y022666D02*
X049117Y022666D01*
X049318Y022507D02*
X047990Y022507D01*
X045670Y022190D02*
X030290Y022190D01*
X030290Y022091D02*
X030211Y021796D01*
X030058Y021531D01*
X029842Y021315D01*
X029578Y021162D01*
X029283Y021083D01*
X028977Y021083D01*
X028682Y021162D01*
X028418Y021315D01*
X028202Y021531D01*
X028049Y021796D01*
X027970Y022091D01*
X027970Y022396D01*
X028049Y022691D01*
X028202Y022956D01*
X028418Y023172D01*
X028682Y023324D01*
X028977Y023403D01*
X029283Y023403D01*
X029578Y023324D01*
X029842Y023172D01*
X030058Y022956D01*
X030211Y022691D01*
X030290Y022396D01*
X030290Y022091D01*
X030274Y022032D02*
X045670Y022032D01*
X045670Y021873D02*
X030232Y021873D01*
X030164Y021715D02*
X045670Y021715D01*
X045670Y021556D02*
X030073Y021556D01*
X029925Y021398D02*
X045670Y021398D01*
X045670Y021239D02*
X029711Y021239D01*
X030290Y022349D02*
X037319Y022349D01*
X036918Y022507D02*
X030260Y022507D01*
X030218Y022666D02*
X036717Y022666D01*
X036577Y022824D02*
X030134Y022824D01*
X030031Y022983D02*
X036485Y022983D01*
X036423Y023141D02*
X029872Y023141D01*
X029620Y023300D02*
X036381Y023300D01*
X036370Y023458D02*
X023355Y023458D01*
X023197Y023617D02*
X036370Y023617D01*
X036370Y023775D02*
X023038Y023775D01*
X022880Y023934D02*
X036370Y023934D01*
X036370Y024092D02*
X022721Y024092D01*
X022563Y024251D02*
X036370Y024251D01*
X036370Y024409D02*
X022404Y024409D01*
X022246Y024568D02*
X036370Y024568D01*
X036370Y024726D02*
X022087Y024726D01*
X021929Y024885D02*
X036370Y024885D01*
X036370Y025043D02*
X021770Y025043D01*
X021612Y025202D02*
X036370Y025202D01*
X036370Y025360D02*
X021453Y025360D01*
X021295Y025519D02*
X036370Y025519D01*
X036370Y025677D02*
X021136Y025677D01*
X020978Y025836D02*
X036370Y025836D01*
X036370Y025994D02*
X020819Y025994D01*
X020661Y026153D02*
X036370Y026153D01*
X036370Y026311D02*
X020473Y026311D01*
X020542Y026272D02*
X020278Y026424D01*
X019983Y026503D01*
X014683Y026503D01*
X014377Y026503D01*
X014082Y026424D01*
X013818Y026272D01*
X013602Y026056D01*
X013449Y025791D01*
X013370Y025496D01*
X013370Y025191D01*
X013449Y024896D01*
X013602Y024631D01*
X013818Y024415D01*
X014082Y024262D01*
X014377Y024183D01*
X019350Y024183D01*
X022218Y021315D01*
X022482Y021162D01*
X022777Y021083D01*
X023083Y021083D01*
X023378Y021162D01*
X023642Y021315D01*
X023858Y021531D01*
X024011Y021796D01*
X024090Y022091D01*
X024090Y022396D01*
X024011Y022691D01*
X023858Y022956D01*
X020542Y026272D01*
X020108Y026470D02*
X036370Y026470D01*
X036370Y026628D02*
X009660Y026628D01*
X009660Y026470D02*
X011152Y026470D01*
X011277Y026503D02*
X010982Y026424D01*
X010718Y026272D01*
X010502Y026056D01*
X010349Y025791D01*
X010270Y025496D01*
X010270Y025191D01*
X010349Y024896D01*
X010502Y024631D01*
X010718Y024415D01*
X010982Y024262D01*
X011277Y024183D01*
X011583Y024183D01*
X011878Y024262D01*
X012142Y024415D01*
X012358Y024631D01*
X012511Y024896D01*
X012590Y025191D01*
X012590Y025496D01*
X012511Y025791D01*
X012358Y026056D01*
X012142Y026272D01*
X011878Y026424D01*
X011583Y026503D01*
X011277Y026503D01*
X011708Y026470D02*
X014252Y026470D01*
X013887Y026311D02*
X012073Y026311D01*
X012261Y026153D02*
X013699Y026153D01*
X013566Y025994D02*
X012394Y025994D01*
X012485Y025836D02*
X013475Y025836D01*
X013419Y025677D02*
X012541Y025677D01*
X012584Y025519D02*
X013376Y025519D01*
X013370Y025360D02*
X012590Y025360D01*
X012590Y025202D02*
X013370Y025202D01*
X013409Y025043D02*
X012551Y025043D01*
X012505Y024885D02*
X013455Y024885D01*
X013547Y024726D02*
X012413Y024726D01*
X012295Y024568D02*
X013665Y024568D01*
X013828Y024409D02*
X012132Y024409D01*
X011835Y024251D02*
X014125Y024251D01*
X012794Y023060D02*
X012969Y022757D01*
X013060Y022418D01*
X013060Y022068D01*
X012969Y021730D01*
X012794Y021427D01*
X012547Y021179D01*
X012243Y021004D01*
X011905Y020913D01*
X011555Y020913D01*
X011217Y021004D01*
X010913Y021179D01*
X010666Y021427D01*
X010491Y021730D01*
X010400Y022068D01*
X010400Y022418D01*
X010491Y022757D01*
X010666Y023060D01*
X010913Y023308D01*
X011217Y023483D01*
X011555Y023573D01*
X011905Y023573D01*
X012243Y023483D01*
X012547Y023308D01*
X012794Y023060D01*
X012839Y022983D02*
X020550Y022983D01*
X020391Y023141D02*
X012713Y023141D01*
X012554Y023300D02*
X020233Y023300D01*
X020074Y023458D02*
X012286Y023458D01*
X012930Y022824D02*
X020708Y022824D01*
X020867Y022666D02*
X012994Y022666D01*
X013036Y022507D02*
X021025Y022507D01*
X021184Y022349D02*
X013060Y022349D01*
X013060Y022190D02*
X021342Y022190D01*
X021501Y022032D02*
X013050Y022032D01*
X013008Y021873D02*
X021659Y021873D01*
X021818Y021715D02*
X012961Y021715D01*
X012869Y021556D02*
X021976Y021556D01*
X022135Y021398D02*
X012765Y021398D01*
X012607Y021239D02*
X022349Y021239D01*
X021276Y019337D02*
X045670Y019337D01*
X045670Y019179D02*
X021435Y019179D01*
X021593Y019020D02*
X045670Y019020D01*
X045670Y018862D02*
X021752Y018862D01*
X021910Y018703D02*
X045670Y018703D01*
X045670Y018545D02*
X022069Y018545D01*
X022227Y018386D02*
X045670Y018386D01*
X045670Y018228D02*
X022386Y018228D01*
X022544Y018069D02*
X045670Y018069D01*
X045670Y017911D02*
X022703Y017911D01*
X022861Y017752D02*
X045670Y017752D01*
X045670Y017594D02*
X023020Y017594D01*
X023178Y017435D02*
X045670Y017435D01*
X045670Y017277D02*
X023337Y017277D01*
X023495Y017118D02*
X028672Y017118D01*
X028682Y017124D02*
X028418Y016972D01*
X028202Y016756D01*
X028049Y016491D01*
X027970Y016196D01*
X027970Y015891D01*
X028049Y015596D01*
X028202Y015331D01*
X028418Y015115D01*
X028682Y014962D01*
X028977Y014883D01*
X029283Y014883D01*
X029578Y014962D01*
X029842Y015115D01*
X030058Y015331D01*
X030211Y015596D01*
X030290Y015891D01*
X030290Y016196D01*
X030211Y016491D01*
X030058Y016756D01*
X029842Y016972D01*
X029578Y017124D01*
X029283Y017203D01*
X028977Y017203D01*
X028682Y017124D01*
X028406Y016960D02*
X023654Y016960D01*
X023812Y016801D02*
X028248Y016801D01*
X028137Y016643D02*
X023923Y016643D01*
X023858Y016756D02*
X020542Y020072D01*
X020278Y020224D01*
X019983Y020303D01*
X014683Y020303D01*
X014377Y020303D01*
X014082Y020224D01*
X013818Y020072D01*
X013602Y019856D01*
X013449Y019591D01*
X013370Y019296D01*
X013370Y018991D01*
X013449Y018696D01*
X013602Y018431D01*
X013818Y018215D01*
X014082Y018062D01*
X014377Y017983D01*
X019350Y017983D01*
X022218Y015115D01*
X022482Y014962D01*
X022777Y014883D01*
X023083Y014883D01*
X023378Y014962D01*
X023642Y015115D01*
X023858Y015331D01*
X024011Y015596D01*
X024090Y015891D01*
X024090Y016196D01*
X024011Y016491D01*
X023858Y016756D01*
X024013Y016484D02*
X028047Y016484D01*
X028005Y016326D02*
X024055Y016326D01*
X024090Y016167D02*
X027970Y016167D01*
X027970Y016009D02*
X024090Y016009D01*
X024079Y015850D02*
X027981Y015850D01*
X028023Y015692D02*
X024037Y015692D01*
X023975Y015533D02*
X028085Y015533D01*
X028176Y015375D02*
X023883Y015375D01*
X023743Y015216D02*
X028317Y015216D01*
X028517Y015058D02*
X023543Y015058D01*
X023142Y014899D02*
X028918Y014899D01*
X029342Y014899D02*
X036598Y014899D01*
X036602Y014906D02*
X036449Y014641D01*
X036370Y014346D01*
X036370Y014041D01*
X036449Y013746D01*
X036602Y013481D01*
X036818Y013265D01*
X037082Y013112D01*
X037377Y013033D01*
X037683Y013033D01*
X037978Y013112D01*
X038242Y013265D01*
X038458Y013481D01*
X038611Y013746D01*
X038690Y014041D01*
X038690Y014346D01*
X038611Y014641D01*
X038458Y014906D01*
X038242Y015122D01*
X037978Y015274D01*
X037683Y015353D01*
X037377Y015353D01*
X037082Y015274D01*
X036818Y015122D01*
X036602Y014906D01*
X036507Y014741D02*
X015108Y014741D01*
X015005Y014713D02*
X015343Y014804D01*
X015647Y014979D01*
X015894Y015227D01*
X016069Y015530D01*
X016160Y015868D01*
X016160Y016218D01*
X016069Y016557D01*
X015894Y016860D01*
X015647Y017108D01*
X015343Y017283D01*
X015005Y017373D01*
X014655Y017373D01*
X014317Y017283D01*
X014013Y017108D01*
X013766Y016860D01*
X013591Y016557D01*
X013500Y016218D01*
X013500Y015868D01*
X013591Y015530D01*
X013766Y015227D01*
X014013Y014979D01*
X014317Y014804D01*
X014655Y014713D01*
X015005Y014713D01*
X014552Y014741D02*
X012008Y014741D01*
X011905Y014713D02*
X012243Y014804D01*
X012547Y014979D01*
X012794Y015227D01*
X012969Y015530D01*
X013060Y015868D01*
X013060Y016218D01*
X012969Y016557D01*
X012794Y016860D01*
X012547Y017108D01*
X012243Y017283D01*
X011905Y017373D01*
X011555Y017373D01*
X011217Y017283D01*
X010913Y017108D01*
X010666Y016860D01*
X010491Y016557D01*
X010400Y016218D01*
X010400Y015868D01*
X010491Y015530D01*
X010666Y015227D01*
X010913Y014979D01*
X011217Y014804D01*
X011555Y014713D01*
X011905Y014713D01*
X011452Y014741D02*
X009660Y014741D01*
X009660Y014899D02*
X011051Y014899D01*
X010835Y015058D02*
X009660Y015058D01*
X009660Y015216D02*
X010676Y015216D01*
X010580Y015375D02*
X009660Y015375D01*
X009660Y015533D02*
X010490Y015533D01*
X010447Y015692D02*
X009660Y015692D01*
X009660Y015850D02*
X010405Y015850D01*
X010400Y016009D02*
X009660Y016009D01*
X009660Y016167D02*
X010400Y016167D01*
X010429Y016326D02*
X009660Y016326D01*
X009660Y016484D02*
X010471Y016484D01*
X010540Y016643D02*
X009660Y016643D01*
X009660Y016801D02*
X010632Y016801D01*
X010766Y016960D02*
X009660Y016960D01*
X009660Y017118D02*
X010932Y017118D01*
X011207Y017277D02*
X009660Y017277D01*
X009660Y017435D02*
X019897Y017435D01*
X019739Y017594D02*
X009660Y017594D01*
X009660Y017752D02*
X019580Y017752D01*
X019422Y017911D02*
X009660Y017911D01*
X009660Y018069D02*
X010970Y018069D01*
X010982Y018062D02*
X011277Y017983D01*
X011583Y017983D01*
X011878Y018062D01*
X012142Y018215D01*
X012358Y018431D01*
X012511Y018696D01*
X012590Y018991D01*
X012590Y019296D01*
X012511Y019591D01*
X012358Y019856D01*
X012142Y020072D01*
X011878Y020224D01*
X011583Y020303D01*
X011277Y020303D01*
X010982Y020224D01*
X010718Y020072D01*
X010502Y019856D01*
X010349Y019591D01*
X010270Y019296D01*
X010270Y018991D01*
X010349Y018696D01*
X010502Y018431D01*
X010718Y018215D01*
X010982Y018062D01*
X010705Y018228D02*
X009660Y018228D01*
X009660Y018386D02*
X010546Y018386D01*
X010436Y018545D02*
X009660Y018545D01*
X009660Y018703D02*
X010347Y018703D01*
X010305Y018862D02*
X009660Y018862D01*
X009660Y019020D02*
X010270Y019020D01*
X010270Y019179D02*
X009660Y019179D01*
X009660Y019337D02*
X010281Y019337D01*
X010324Y019496D02*
X009660Y019496D01*
X009660Y019654D02*
X010386Y019654D01*
X010477Y019813D02*
X009660Y019813D01*
X009660Y019971D02*
X010618Y019971D01*
X010819Y020130D02*
X009660Y020130D01*
X009660Y020288D02*
X011221Y020288D01*
X011639Y020288D02*
X014321Y020288D01*
X013919Y020130D02*
X012041Y020130D01*
X012242Y019971D02*
X013718Y019971D01*
X013577Y019813D02*
X012383Y019813D01*
X012474Y019654D02*
X013486Y019654D01*
X013424Y019496D02*
X012536Y019496D01*
X012579Y019337D02*
X013381Y019337D01*
X013370Y019179D02*
X012590Y019179D01*
X012590Y019020D02*
X013370Y019020D01*
X013405Y018862D02*
X012555Y018862D01*
X012513Y018703D02*
X013447Y018703D01*
X013536Y018545D02*
X012424Y018545D01*
X012314Y018386D02*
X013646Y018386D01*
X013805Y018228D02*
X012155Y018228D01*
X011890Y018069D02*
X014070Y018069D01*
X014307Y017277D02*
X012253Y017277D01*
X012528Y017118D02*
X014032Y017118D01*
X013866Y016960D02*
X012694Y016960D01*
X012828Y016801D02*
X013732Y016801D01*
X013640Y016643D02*
X012920Y016643D01*
X012989Y016484D02*
X013571Y016484D01*
X013529Y016326D02*
X013031Y016326D01*
X013060Y016167D02*
X013500Y016167D01*
X013500Y016009D02*
X013060Y016009D01*
X013055Y015850D02*
X013505Y015850D01*
X013547Y015692D02*
X013013Y015692D01*
X012970Y015533D02*
X013590Y015533D01*
X013680Y015375D02*
X012880Y015375D01*
X012784Y015216D02*
X013776Y015216D01*
X013935Y015058D02*
X012625Y015058D01*
X012409Y014899D02*
X014151Y014899D01*
X013356Y012839D02*
X032504Y012839D01*
X032286Y012680D02*
X013574Y012680D01*
X013732Y012522D02*
X032128Y012522D01*
X032031Y012363D02*
X013829Y012363D01*
X013920Y012205D02*
X031940Y012205D01*
X031898Y012046D02*
X013962Y012046D01*
X014005Y011888D02*
X031855Y011888D01*
X031850Y011729D02*
X014010Y011729D01*
X014010Y011571D02*
X031850Y011571D01*
X031878Y011412D02*
X013982Y011412D01*
X013939Y011254D02*
X031921Y011254D01*
X031990Y011095D02*
X013870Y011095D01*
X013779Y010937D02*
X032081Y010937D01*
X032214Y010778D02*
X013646Y010778D01*
X013481Y010620D02*
X032379Y010620D01*
X032654Y010461D02*
X013206Y010461D01*
X015509Y014899D02*
X022718Y014899D01*
X022317Y015058D02*
X015725Y015058D01*
X015884Y015216D02*
X022117Y015216D01*
X021958Y015375D02*
X015980Y015375D01*
X016070Y015533D02*
X021800Y015533D01*
X021641Y015692D02*
X016113Y015692D01*
X016155Y015850D02*
X021483Y015850D01*
X021324Y016009D02*
X016160Y016009D01*
X016160Y016167D02*
X021166Y016167D01*
X021007Y016326D02*
X016131Y016326D01*
X016089Y016484D02*
X020849Y016484D01*
X020690Y016643D02*
X016020Y016643D01*
X015928Y016801D02*
X020531Y016801D01*
X020373Y016960D02*
X015794Y016960D01*
X015628Y017118D02*
X020214Y017118D01*
X020056Y017277D02*
X015353Y017277D01*
X012377Y021081D02*
X045670Y021081D01*
X045670Y020922D02*
X011939Y020922D01*
X011521Y020922D02*
X009660Y020922D01*
X009660Y020764D02*
X045670Y020764D01*
X045670Y020605D02*
X009660Y020605D01*
X009660Y020447D02*
X045670Y020447D01*
X045670Y020288D02*
X020039Y020288D01*
X020441Y020130D02*
X045670Y020130D01*
X045670Y019971D02*
X020642Y019971D01*
X020801Y019813D02*
X045670Y019813D01*
X045670Y019654D02*
X020959Y019654D01*
X021118Y019496D02*
X045670Y019496D01*
X045670Y017118D02*
X029588Y017118D01*
X029854Y016960D02*
X045670Y016960D01*
X045670Y016801D02*
X030012Y016801D01*
X030123Y016643D02*
X045670Y016643D01*
X045670Y016484D02*
X030213Y016484D01*
X030255Y016326D02*
X045670Y016326D01*
X045670Y016167D02*
X030290Y016167D01*
X030290Y016009D02*
X045670Y016009D01*
X045670Y015850D02*
X030279Y015850D01*
X030237Y015692D02*
X045670Y015692D01*
X045670Y015533D02*
X030175Y015533D01*
X030083Y015375D02*
X045670Y015375D01*
X045670Y015216D02*
X041178Y015216D01*
X041078Y015274D02*
X040783Y015353D01*
X040477Y015353D01*
X040182Y015274D01*
X039918Y015122D01*
X039702Y014906D01*
X039549Y014641D01*
X039470Y014346D01*
X039470Y014041D01*
X039549Y013746D01*
X039702Y013481D01*
X039918Y013265D01*
X040182Y013112D01*
X040477Y013033D01*
X040783Y013033D01*
X041078Y013112D01*
X041342Y013265D01*
X041558Y013481D01*
X041711Y013746D01*
X041790Y014041D01*
X041790Y014346D01*
X041711Y014641D01*
X041558Y014906D01*
X041342Y015122D01*
X041078Y015274D01*
X041406Y015058D02*
X045670Y015058D01*
X045670Y014899D02*
X041562Y014899D01*
X041653Y014741D02*
X045670Y014741D01*
X045670Y014582D02*
X041727Y014582D01*
X041769Y014424D02*
X045670Y014424D01*
X045670Y014265D02*
X041790Y014265D01*
X041790Y014107D02*
X045670Y014107D01*
X045695Y013948D02*
X041765Y013948D01*
X041723Y013790D02*
X045737Y013790D01*
X045815Y013631D02*
X041645Y013631D01*
X041550Y013473D02*
X045910Y013473D01*
X046069Y013314D02*
X041391Y013314D01*
X041153Y013156D02*
X046307Y013156D01*
X040107Y013156D02*
X038053Y013156D01*
X038291Y013314D02*
X039869Y013314D01*
X039710Y013473D02*
X038450Y013473D01*
X038545Y013631D02*
X039615Y013631D01*
X039537Y013790D02*
X038623Y013790D01*
X038665Y013948D02*
X039495Y013948D01*
X039470Y014107D02*
X038690Y014107D01*
X038690Y014265D02*
X039470Y014265D01*
X039491Y014424D02*
X038669Y014424D01*
X038627Y014582D02*
X039533Y014582D01*
X039607Y014741D02*
X038553Y014741D01*
X038462Y014899D02*
X039698Y014899D01*
X039854Y015058D02*
X038306Y015058D01*
X038078Y015216D02*
X040082Y015216D01*
X037007Y013156D02*
X009660Y013156D01*
X009660Y013314D02*
X036769Y013314D01*
X036610Y013473D02*
X009660Y013473D01*
X009660Y013631D02*
X036515Y013631D01*
X036437Y013790D02*
X009660Y013790D01*
X009660Y013948D02*
X036395Y013948D01*
X036370Y014107D02*
X009660Y014107D01*
X009660Y014265D02*
X036370Y014265D01*
X036391Y014424D02*
X009660Y014424D01*
X009660Y014582D02*
X036433Y014582D01*
X036754Y015058D02*
X029743Y015058D01*
X029943Y015216D02*
X036982Y015216D01*
X038690Y024885D02*
X055700Y024885D01*
X055700Y025043D02*
X038690Y025043D01*
X038690Y025202D02*
X055700Y025202D01*
X055700Y025360D02*
X038690Y025360D01*
X038690Y025519D02*
X055700Y025519D01*
X055700Y025677D02*
X038690Y025677D01*
X038690Y025836D02*
X055700Y025836D01*
X055700Y025994D02*
X038690Y025994D01*
X038690Y026153D02*
X055700Y026153D01*
X055700Y026311D02*
X038690Y026311D01*
X038690Y026470D02*
X055700Y026470D01*
X055700Y026628D02*
X038690Y026628D01*
X038690Y026787D02*
X055700Y026787D01*
X055700Y026945D02*
X038690Y026945D01*
X038690Y027104D02*
X055700Y027104D01*
X055700Y027262D02*
X038690Y027262D01*
X038690Y027421D02*
X055700Y027421D01*
X055700Y027579D02*
X038690Y027579D01*
X038690Y027738D02*
X055700Y027738D01*
X055700Y027896D02*
X038690Y027896D01*
X038690Y028055D02*
X055700Y028055D01*
X055700Y028213D02*
X038690Y028213D01*
X038690Y028372D02*
X055700Y028372D01*
X055700Y028530D02*
X038690Y028530D01*
X038690Y028689D02*
X055700Y028689D01*
X055700Y028847D02*
X038690Y028847D01*
X038690Y029006D02*
X055700Y029006D01*
X055700Y029164D02*
X038690Y029164D01*
X038690Y029323D02*
X055700Y029323D01*
X055700Y029481D02*
X038690Y029481D01*
X038690Y029640D02*
X055700Y029640D01*
X055700Y029798D02*
X038690Y029798D01*
X038690Y029957D02*
X055700Y029957D01*
X055700Y030115D02*
X038690Y030115D01*
X038690Y030274D02*
X055700Y030274D01*
X055700Y030432D02*
X038690Y030432D01*
X038690Y030591D02*
X055700Y030591D01*
X055700Y030749D02*
X038690Y030749D01*
X038690Y030908D02*
X055700Y030908D01*
X055700Y031066D02*
X038690Y031066D01*
X038690Y031225D02*
X055700Y031225D01*
X055700Y031383D02*
X038690Y031383D01*
X038690Y031542D02*
X055700Y031542D01*
X055700Y031700D02*
X050333Y031700D01*
X050378Y031712D02*
X050642Y031865D01*
X050858Y032081D01*
X051011Y032346D01*
X051090Y032641D01*
X051090Y032946D01*
X051011Y033241D01*
X050858Y033506D01*
X050642Y033722D01*
X050378Y033874D01*
X050083Y033953D01*
X049777Y033953D01*
X049482Y033874D01*
X049218Y033722D01*
X049002Y033506D01*
X048849Y033241D01*
X048770Y032946D01*
X048770Y032641D01*
X048849Y032346D01*
X049002Y032081D01*
X049218Y031865D01*
X049482Y031712D01*
X049777Y031633D01*
X050083Y031633D01*
X050378Y031712D01*
X050631Y031859D02*
X055700Y031859D01*
X055700Y032017D02*
X050795Y032017D01*
X050913Y032176D02*
X055700Y032176D01*
X055700Y032334D02*
X051004Y032334D01*
X051050Y032493D02*
X055700Y032493D01*
X055700Y032651D02*
X051090Y032651D01*
X051090Y032810D02*
X055700Y032810D01*
X055700Y032968D02*
X051084Y032968D01*
X051042Y033127D02*
X055700Y033127D01*
X055700Y033285D02*
X050985Y033285D01*
X050894Y033444D02*
X055700Y033444D01*
X055700Y033602D02*
X050761Y033602D01*
X050574Y033761D02*
X055700Y033761D01*
X055700Y033919D02*
X050209Y033919D01*
X049651Y033919D02*
X047990Y033919D01*
X047990Y033761D02*
X049286Y033761D01*
X049099Y033602D02*
X047990Y033602D01*
X047990Y033444D02*
X048966Y033444D01*
X048875Y033285D02*
X047990Y033285D01*
X047990Y033127D02*
X048818Y033127D01*
X048776Y032968D02*
X047990Y032968D01*
X047990Y032810D02*
X048770Y032810D01*
X048770Y032651D02*
X047990Y032651D01*
X047990Y032641D02*
X047911Y032346D01*
X047758Y032081D01*
X047542Y031865D01*
X047278Y031712D01*
X046983Y031633D01*
X046677Y031633D01*
X046382Y031712D01*
X046118Y031865D01*
X045902Y032081D01*
X045749Y032346D01*
X045670Y032641D01*
X045670Y042246D01*
X045749Y042541D01*
X045902Y042806D01*
X046118Y043022D01*
X046382Y043174D01*
X046677Y043253D01*
X046983Y043253D01*
X047278Y043174D01*
X047542Y043022D01*
X047758Y042806D01*
X047911Y042541D01*
X047990Y042246D01*
X047990Y032641D01*
X047950Y032493D02*
X048810Y032493D01*
X048856Y032334D02*
X047904Y032334D01*
X047813Y032176D02*
X048947Y032176D01*
X049065Y032017D02*
X047695Y032017D01*
X047531Y031859D02*
X049229Y031859D01*
X049527Y031700D02*
X047233Y031700D01*
X046427Y031700D02*
X041033Y031700D01*
X041078Y031712D02*
X041342Y031865D01*
X041558Y032081D01*
X041711Y032346D01*
X041790Y032641D01*
X041790Y032946D01*
X041711Y033241D01*
X041558Y033506D01*
X041342Y033722D01*
X041078Y033874D01*
X040783Y033953D01*
X040477Y033953D01*
X040182Y033874D01*
X039918Y033722D01*
X039702Y033506D01*
X039549Y033241D01*
X039470Y032946D01*
X039470Y032641D01*
X039549Y032346D01*
X039702Y032081D01*
X039918Y031865D01*
X040182Y031712D01*
X040477Y031633D01*
X040783Y031633D01*
X041078Y031712D01*
X041331Y031859D02*
X046129Y031859D01*
X045965Y032017D02*
X041495Y032017D01*
X041613Y032176D02*
X045847Y032176D01*
X045756Y032334D02*
X041704Y032334D01*
X041750Y032493D02*
X045710Y032493D01*
X045670Y032651D02*
X041790Y032651D01*
X041790Y032810D02*
X045670Y032810D01*
X045670Y032968D02*
X041784Y032968D01*
X041742Y033127D02*
X045670Y033127D01*
X045670Y033285D02*
X041685Y033285D01*
X041594Y033444D02*
X045670Y033444D01*
X045670Y033602D02*
X041461Y033602D01*
X041274Y033761D02*
X045670Y033761D01*
X045670Y033919D02*
X040909Y033919D01*
X040351Y033919D02*
X037809Y033919D01*
X038174Y033761D02*
X039986Y033761D01*
X039799Y033602D02*
X038361Y033602D01*
X038494Y033444D02*
X039666Y033444D01*
X039575Y033285D02*
X038585Y033285D01*
X038642Y033127D02*
X039518Y033127D01*
X039476Y032968D02*
X038684Y032968D01*
X038690Y032810D02*
X039470Y032810D01*
X039470Y032651D02*
X038690Y032651D01*
X038690Y032493D02*
X039510Y032493D01*
X039556Y032334D02*
X038690Y032334D01*
X038690Y032176D02*
X039647Y032176D01*
X039765Y032017D02*
X038690Y032017D01*
X038690Y031859D02*
X039929Y031859D01*
X040227Y031700D02*
X038690Y031700D01*
X037251Y033919D02*
X029947Y033919D01*
X029842Y033815D02*
X030058Y034031D01*
X030211Y034296D01*
X030290Y034591D01*
X030290Y034896D01*
X030211Y035191D01*
X030058Y035456D01*
X029842Y035672D01*
X029578Y035824D01*
X029283Y035903D01*
X028977Y035903D01*
X028682Y035824D01*
X028418Y035672D01*
X028202Y035456D01*
X028049Y035191D01*
X027970Y034896D01*
X027970Y034591D01*
X028049Y034296D01*
X028202Y034031D01*
X028418Y033815D01*
X028682Y033662D01*
X028977Y033583D01*
X029283Y033583D01*
X029578Y033662D01*
X029842Y033815D01*
X029748Y033761D02*
X036886Y033761D01*
X036699Y033602D02*
X029354Y033602D01*
X028906Y033602D02*
X023154Y033602D01*
X023083Y033583D02*
X023378Y033662D01*
X023642Y033815D01*
X023858Y034031D01*
X024011Y034296D01*
X024090Y034591D01*
X024090Y034896D01*
X024011Y035191D01*
X023858Y035456D01*
X023642Y035672D01*
X023378Y035824D01*
X023083Y035903D01*
X022777Y035903D01*
X022482Y035824D01*
X022218Y035672D01*
X022002Y035456D01*
X021849Y035191D01*
X021770Y034896D01*
X021770Y034591D01*
X021849Y034296D01*
X022002Y034031D01*
X022218Y033815D01*
X022482Y033662D01*
X022777Y033583D01*
X023083Y033583D01*
X022706Y033602D02*
X012570Y033602D01*
X012547Y033579D02*
X012794Y033827D01*
X012969Y034130D01*
X013060Y034468D01*
X013060Y034818D01*
X012969Y035157D01*
X012794Y035460D01*
X012547Y035708D01*
X012243Y035883D01*
X011905Y035973D01*
X011555Y035973D01*
X011217Y035883D01*
X010913Y035708D01*
X010666Y035460D01*
X010491Y035157D01*
X010400Y034818D01*
X010400Y034468D01*
X010491Y034130D01*
X010666Y033827D01*
X010913Y033579D01*
X011217Y033404D01*
X011555Y033313D01*
X011905Y033313D01*
X012243Y033404D01*
X012547Y033579D01*
X012728Y033761D02*
X022312Y033761D01*
X022113Y033919D02*
X012848Y033919D01*
X012939Y034078D02*
X021975Y034078D01*
X021883Y034236D02*
X012998Y034236D01*
X013040Y034395D02*
X021822Y034395D01*
X021780Y034553D02*
X013060Y034553D01*
X013060Y034712D02*
X021770Y034712D01*
X021770Y034870D02*
X013046Y034870D01*
X013004Y035029D02*
X021806Y035029D01*
X021848Y035187D02*
X012952Y035187D01*
X012860Y035346D02*
X021938Y035346D01*
X022051Y035504D02*
X012750Y035504D01*
X012591Y035663D02*
X022209Y035663D01*
X022477Y035821D02*
X012350Y035821D01*
X011878Y036662D02*
X012142Y036815D01*
X012358Y037031D01*
X012511Y037296D01*
X012590Y037591D01*
X012590Y037896D01*
X012511Y038191D01*
X012358Y038456D01*
X012142Y038672D01*
X011878Y038824D01*
X011583Y038903D01*
X011277Y038903D01*
X010982Y038824D01*
X010718Y038672D01*
X010502Y038456D01*
X010349Y038191D01*
X010270Y037896D01*
X010270Y037591D01*
X010349Y037296D01*
X010502Y037031D01*
X010718Y036815D01*
X010982Y036662D01*
X011277Y036583D01*
X011583Y036583D01*
X011878Y036662D01*
X011697Y036614D02*
X014263Y036614D01*
X014377Y036583D02*
X014082Y036662D01*
X013818Y036815D01*
X013602Y037031D01*
X013449Y037296D01*
X013370Y037591D01*
X013370Y037896D01*
X013449Y038191D01*
X013602Y038456D01*
X013818Y038672D01*
X014082Y038824D01*
X014377Y038903D01*
X017450Y038903D01*
X021970Y043424D01*
X021970Y067296D01*
X022049Y067591D01*
X022202Y067856D01*
X024720Y070374D01*
X024720Y074613D01*
X022218Y077115D01*
X022218Y077115D01*
X022002Y077331D01*
X021849Y077596D01*
X021770Y077891D01*
X021770Y078196D01*
X021849Y078491D01*
X022002Y078756D01*
X022218Y078972D01*
X022482Y079124D01*
X022777Y079203D01*
X023083Y079203D01*
X023378Y079124D01*
X023642Y078972D01*
X023858Y078756D01*
X023858Y078756D01*
X026808Y075806D01*
X026961Y075541D01*
X027040Y075246D01*
X027040Y069741D01*
X026961Y069446D01*
X026808Y069181D01*
X026592Y068965D01*
X024290Y066663D01*
X024290Y043096D01*
X024290Y042791D01*
X024211Y042496D01*
X024058Y042231D01*
X018642Y036815D01*
X018378Y036662D01*
X018083Y036583D01*
X014377Y036583D01*
X013892Y036772D02*
X012068Y036772D01*
X012258Y036931D02*
X013702Y036931D01*
X013568Y037089D02*
X012392Y037089D01*
X012483Y037248D02*
X013477Y037248D01*
X013419Y037406D02*
X012541Y037406D01*
X012583Y037565D02*
X013377Y037565D01*
X013370Y037723D02*
X012590Y037723D01*
X012590Y037882D02*
X013370Y037882D01*
X013409Y038040D02*
X012551Y038040D01*
X012506Y038199D02*
X013454Y038199D01*
X013545Y038357D02*
X012415Y038357D01*
X012298Y038516D02*
X013662Y038516D01*
X013823Y038674D02*
X012137Y038674D01*
X011846Y038833D02*
X014114Y038833D01*
X014317Y039604D02*
X014655Y039513D01*
X015005Y039513D01*
X015343Y039604D01*
X015647Y039779D01*
X015894Y040027D01*
X016069Y040330D01*
X016160Y040668D01*
X016160Y041018D01*
X016069Y041357D01*
X015894Y041660D01*
X015647Y041908D01*
X015343Y042083D01*
X015005Y042173D01*
X014655Y042173D01*
X014317Y042083D01*
X014013Y041908D01*
X013766Y041660D01*
X013591Y041357D01*
X013500Y041018D01*
X013500Y040668D01*
X013591Y040330D01*
X013766Y040027D01*
X014013Y039779D01*
X014317Y039604D01*
X014280Y039625D02*
X012280Y039625D01*
X012243Y039604D02*
X012547Y039779D01*
X012794Y040027D01*
X012969Y040330D01*
X013060Y040668D01*
X013060Y041018D01*
X012969Y041357D01*
X012794Y041660D01*
X012547Y041908D01*
X012243Y042083D01*
X011905Y042173D01*
X011555Y042173D01*
X011217Y042083D01*
X010913Y041908D01*
X010666Y041660D01*
X010491Y041357D01*
X010400Y041018D01*
X010400Y040668D01*
X010491Y040330D01*
X010666Y040027D01*
X010913Y039779D01*
X011217Y039604D01*
X011555Y039513D01*
X011905Y039513D01*
X012243Y039604D01*
X012551Y039784D02*
X014009Y039784D01*
X013850Y039942D02*
X012710Y039942D01*
X012837Y040101D02*
X013723Y040101D01*
X013631Y040259D02*
X012929Y040259D01*
X012993Y040418D02*
X013567Y040418D01*
X013525Y040576D02*
X013035Y040576D01*
X013060Y040735D02*
X013500Y040735D01*
X013500Y040893D02*
X013060Y040893D01*
X013051Y041052D02*
X013509Y041052D01*
X013551Y041210D02*
X013009Y041210D01*
X012962Y041369D02*
X013598Y041369D01*
X013689Y041527D02*
X012871Y041527D01*
X012768Y041686D02*
X013792Y041686D01*
X013950Y041844D02*
X012610Y041844D01*
X012382Y042003D02*
X014178Y042003D01*
X014610Y042161D02*
X011950Y042161D01*
X011510Y042161D02*
X009660Y042161D01*
X009660Y042003D02*
X011078Y042003D01*
X010850Y041844D02*
X009660Y041844D01*
X009660Y041686D02*
X010692Y041686D01*
X010589Y041527D02*
X009660Y041527D01*
X009660Y041369D02*
X010498Y041369D01*
X010451Y041210D02*
X009660Y041210D01*
X009660Y041052D02*
X010409Y041052D01*
X010400Y040893D02*
X009660Y040893D01*
X009660Y040735D02*
X010400Y040735D01*
X010425Y040576D02*
X009660Y040576D01*
X009660Y040418D02*
X010467Y040418D01*
X010531Y040259D02*
X009660Y040259D01*
X009660Y040101D02*
X010623Y040101D01*
X010750Y039942D02*
X009660Y039942D01*
X009660Y039784D02*
X010909Y039784D01*
X011180Y039625D02*
X009660Y039625D01*
X009660Y039467D02*
X018013Y039467D01*
X018172Y039625D02*
X015380Y039625D01*
X015651Y039784D02*
X018330Y039784D01*
X018489Y039942D02*
X015810Y039942D01*
X015937Y040101D02*
X018647Y040101D01*
X018806Y040259D02*
X016029Y040259D01*
X016093Y040418D02*
X018964Y040418D01*
X019123Y040576D02*
X016135Y040576D01*
X016160Y040735D02*
X019281Y040735D01*
X019440Y040893D02*
X016160Y040893D01*
X016151Y041052D02*
X019598Y041052D01*
X019757Y041210D02*
X016109Y041210D01*
X016062Y041369D02*
X019915Y041369D01*
X020074Y041527D02*
X015971Y041527D01*
X015868Y041686D02*
X020232Y041686D01*
X020391Y041844D02*
X015710Y041844D01*
X015482Y042003D02*
X020549Y042003D01*
X020708Y042161D02*
X015050Y042161D01*
X014377Y042783D02*
X018183Y042783D01*
X018478Y042862D01*
X018742Y043015D01*
X020792Y045065D01*
X021008Y045281D01*
X021161Y045546D01*
X021240Y045841D01*
X021240Y080913D01*
X023642Y083315D01*
X023642Y083315D01*
X023858Y083531D01*
X024011Y083796D01*
X024090Y084091D01*
X024090Y084396D01*
X024011Y084691D01*
X023858Y084956D01*
X023642Y085172D01*
X023378Y085324D01*
X023083Y085403D01*
X022777Y085403D01*
X022482Y085324D01*
X022218Y085172D01*
X022002Y084956D01*
X022002Y084956D01*
X019152Y082106D01*
X018999Y081841D01*
X018920Y081546D01*
X018920Y046474D01*
X017550Y045103D01*
X014377Y045103D01*
X014082Y045024D01*
X013818Y044872D01*
X013602Y044656D01*
X013449Y044391D01*
X013370Y044096D01*
X013370Y043791D01*
X013449Y043496D01*
X013602Y043231D01*
X013818Y043015D01*
X014082Y042862D01*
X014377Y042783D01*
X014332Y042795D02*
X011628Y042795D01*
X011583Y042783D02*
X011878Y042862D01*
X012142Y043015D01*
X012358Y043231D01*
X012511Y043496D01*
X012590Y043791D01*
X012590Y044096D01*
X012511Y044391D01*
X012358Y044656D01*
X012142Y044872D01*
X011878Y045024D01*
X011583Y045103D01*
X011277Y045103D01*
X010982Y045024D01*
X010718Y044872D01*
X010502Y044656D01*
X010349Y044391D01*
X010270Y044096D01*
X010270Y043791D01*
X010349Y043496D01*
X010502Y043231D01*
X010718Y043015D01*
X010982Y042862D01*
X011277Y042783D01*
X011583Y042783D01*
X011232Y042795D02*
X009660Y042795D01*
X009660Y042637D02*
X021183Y042637D01*
X021342Y042795D02*
X018228Y042795D01*
X018636Y042954D02*
X021500Y042954D01*
X021659Y043112D02*
X018840Y043112D01*
X018998Y043271D02*
X021817Y043271D01*
X021970Y043429D02*
X019157Y043429D01*
X019315Y043588D02*
X021970Y043588D01*
X021970Y043746D02*
X019474Y043746D01*
X019632Y043905D02*
X021970Y043905D01*
X021970Y044063D02*
X019791Y044063D01*
X019949Y044222D02*
X021970Y044222D01*
X021970Y044380D02*
X020108Y044380D01*
X020266Y044539D02*
X021970Y044539D01*
X021970Y044697D02*
X020425Y044697D01*
X020583Y044856D02*
X021970Y044856D01*
X021970Y045014D02*
X020742Y045014D01*
X020900Y045173D02*
X021970Y045173D01*
X021970Y045331D02*
X021037Y045331D01*
X021129Y045490D02*
X021970Y045490D01*
X021970Y045648D02*
X021188Y045648D01*
X021231Y045807D02*
X021970Y045807D01*
X021970Y045965D02*
X021240Y045965D01*
X021240Y046124D02*
X021970Y046124D01*
X021970Y046282D02*
X021240Y046282D01*
X021240Y046441D02*
X021970Y046441D01*
X021970Y046599D02*
X021240Y046599D01*
X021240Y046758D02*
X021970Y046758D01*
X021970Y046916D02*
X021240Y046916D01*
X021240Y047075D02*
X021970Y047075D01*
X021970Y047233D02*
X021240Y047233D01*
X021240Y047392D02*
X021970Y047392D01*
X021970Y047550D02*
X021240Y047550D01*
X021240Y047709D02*
X021970Y047709D01*
X021970Y047867D02*
X021240Y047867D01*
X021240Y048026D02*
X021970Y048026D01*
X021970Y048184D02*
X021240Y048184D01*
X021240Y048343D02*
X021970Y048343D01*
X021970Y048501D02*
X021240Y048501D01*
X021240Y048660D02*
X021970Y048660D01*
X021970Y048818D02*
X021240Y048818D01*
X021240Y048977D02*
X021970Y048977D01*
X021970Y049135D02*
X021240Y049135D01*
X021240Y049294D02*
X021970Y049294D01*
X021970Y049452D02*
X021240Y049452D01*
X021240Y049611D02*
X021970Y049611D01*
X021970Y049769D02*
X021240Y049769D01*
X021240Y049928D02*
X021970Y049928D01*
X021970Y050086D02*
X021240Y050086D01*
X021240Y050245D02*
X021970Y050245D01*
X021970Y050403D02*
X021240Y050403D01*
X021240Y050562D02*
X021970Y050562D01*
X021970Y050720D02*
X021240Y050720D01*
X021240Y050879D02*
X021970Y050879D01*
X021970Y051037D02*
X021240Y051037D01*
X021240Y051196D02*
X021970Y051196D01*
X021970Y051354D02*
X021240Y051354D01*
X021240Y051513D02*
X021970Y051513D01*
X021970Y051671D02*
X021240Y051671D01*
X021240Y051830D02*
X021970Y051830D01*
X021970Y051988D02*
X021240Y051988D01*
X021240Y052147D02*
X021970Y052147D01*
X021970Y052305D02*
X021240Y052305D01*
X021240Y052464D02*
X021970Y052464D01*
X021970Y052622D02*
X021240Y052622D01*
X021240Y052781D02*
X021970Y052781D01*
X021970Y052939D02*
X021240Y052939D01*
X021240Y053098D02*
X021970Y053098D01*
X021970Y053256D02*
X021240Y053256D01*
X021240Y053415D02*
X021970Y053415D01*
X021970Y053573D02*
X021240Y053573D01*
X021240Y053732D02*
X021970Y053732D01*
X021970Y053890D02*
X021240Y053890D01*
X021240Y054049D02*
X021970Y054049D01*
X021970Y054207D02*
X021240Y054207D01*
X021240Y054366D02*
X021970Y054366D01*
X021970Y054524D02*
X021240Y054524D01*
X021240Y054683D02*
X021970Y054683D01*
X021970Y054841D02*
X021240Y054841D01*
X021240Y055000D02*
X021970Y055000D01*
X021970Y055158D02*
X021240Y055158D01*
X021240Y055317D02*
X021970Y055317D01*
X021970Y055475D02*
X021240Y055475D01*
X021240Y055634D02*
X021970Y055634D01*
X021970Y055792D02*
X021240Y055792D01*
X021240Y055951D02*
X021970Y055951D01*
X021970Y056109D02*
X021240Y056109D01*
X021240Y056268D02*
X021970Y056268D01*
X021970Y056426D02*
X021240Y056426D01*
X021240Y056585D02*
X021970Y056585D01*
X021970Y056743D02*
X021240Y056743D01*
X021240Y056902D02*
X021970Y056902D01*
X021970Y057060D02*
X021240Y057060D01*
X021240Y057219D02*
X021970Y057219D01*
X021970Y057377D02*
X021240Y057377D01*
X021240Y057536D02*
X021970Y057536D01*
X021970Y057694D02*
X021240Y057694D01*
X021240Y057853D02*
X021970Y057853D01*
X021970Y058011D02*
X021240Y058011D01*
X021240Y058170D02*
X021970Y058170D01*
X021970Y058328D02*
X021240Y058328D01*
X021240Y058487D02*
X021970Y058487D01*
X021970Y058645D02*
X021240Y058645D01*
X021240Y058804D02*
X021970Y058804D01*
X021970Y058962D02*
X021240Y058962D01*
X021240Y059121D02*
X021970Y059121D01*
X021970Y059279D02*
X021240Y059279D01*
X021240Y059438D02*
X021970Y059438D01*
X021970Y059596D02*
X021240Y059596D01*
X021240Y059755D02*
X021970Y059755D01*
X021970Y059913D02*
X021240Y059913D01*
X021240Y060072D02*
X021970Y060072D01*
X021970Y060230D02*
X021240Y060230D01*
X021240Y060389D02*
X021970Y060389D01*
X021970Y060547D02*
X021240Y060547D01*
X021240Y060706D02*
X021970Y060706D01*
X021970Y060864D02*
X021240Y060864D01*
X021240Y061023D02*
X021970Y061023D01*
X021970Y061181D02*
X021240Y061181D01*
X021240Y061340D02*
X021970Y061340D01*
X021970Y061498D02*
X021240Y061498D01*
X021240Y061657D02*
X021970Y061657D01*
X021970Y061815D02*
X021240Y061815D01*
X021240Y061974D02*
X021970Y061974D01*
X021970Y062132D02*
X021240Y062132D01*
X021240Y062291D02*
X021970Y062291D01*
X021970Y062449D02*
X021240Y062449D01*
X021240Y062608D02*
X021970Y062608D01*
X021970Y062766D02*
X021240Y062766D01*
X021240Y062925D02*
X021970Y062925D01*
X021970Y063083D02*
X021240Y063083D01*
X021240Y063242D02*
X021970Y063242D01*
X021970Y063400D02*
X021240Y063400D01*
X021240Y063559D02*
X021970Y063559D01*
X021970Y063717D02*
X021240Y063717D01*
X021240Y063876D02*
X021970Y063876D01*
X021970Y064034D02*
X021240Y064034D01*
X021240Y064193D02*
X021970Y064193D01*
X021970Y064351D02*
X021240Y064351D01*
X021240Y064510D02*
X021970Y064510D01*
X021970Y064668D02*
X021240Y064668D01*
X021240Y064827D02*
X021970Y064827D01*
X021970Y064985D02*
X021240Y064985D01*
X021240Y065144D02*
X021970Y065144D01*
X021970Y065302D02*
X021240Y065302D01*
X021240Y065461D02*
X021970Y065461D01*
X021970Y065619D02*
X021240Y065619D01*
X021240Y065778D02*
X021970Y065778D01*
X021970Y065936D02*
X021240Y065936D01*
X021240Y066095D02*
X021970Y066095D01*
X021970Y066253D02*
X021240Y066253D01*
X021240Y066412D02*
X021970Y066412D01*
X021970Y066570D02*
X021240Y066570D01*
X021240Y066729D02*
X021970Y066729D01*
X021970Y066887D02*
X021240Y066887D01*
X021240Y067046D02*
X021970Y067046D01*
X021970Y067204D02*
X021240Y067204D01*
X021240Y067363D02*
X021988Y067363D01*
X022030Y067521D02*
X021240Y067521D01*
X021240Y067680D02*
X022100Y067680D01*
X022192Y067838D02*
X021240Y067838D01*
X021240Y067997D02*
X022343Y067997D01*
X022502Y068155D02*
X021240Y068155D01*
X021240Y068314D02*
X022660Y068314D01*
X022819Y068472D02*
X021240Y068472D01*
X021240Y068631D02*
X022977Y068631D01*
X023136Y068789D02*
X021240Y068789D01*
X021240Y068948D02*
X023294Y068948D01*
X023453Y069106D02*
X021240Y069106D01*
X021240Y069265D02*
X023611Y069265D01*
X023770Y069423D02*
X021240Y069423D01*
X021240Y069582D02*
X023928Y069582D01*
X024087Y069740D02*
X021240Y069740D01*
X021240Y069899D02*
X024245Y069899D01*
X024404Y070057D02*
X021240Y070057D01*
X021240Y070216D02*
X024562Y070216D01*
X024720Y070374D02*
X021240Y070374D01*
X021240Y070533D02*
X024720Y070533D01*
X024720Y070691D02*
X023113Y070691D01*
X023083Y070683D02*
X023378Y070762D01*
X023642Y070915D01*
X023858Y071131D01*
X024011Y071396D01*
X024090Y071691D01*
X024090Y071996D01*
X024011Y072291D01*
X023858Y072556D01*
X023642Y072772D01*
X023378Y072924D01*
X023083Y073003D01*
X022777Y073003D01*
X022482Y072924D01*
X022218Y072772D01*
X022002Y072556D01*
X021849Y072291D01*
X021770Y071996D01*
X021770Y071691D01*
X021849Y071396D01*
X022002Y071131D01*
X022218Y070915D01*
X022482Y070762D01*
X022777Y070683D01*
X023083Y070683D01*
X022747Y070691D02*
X021240Y070691D01*
X021240Y070850D02*
X022331Y070850D01*
X022124Y071008D02*
X021240Y071008D01*
X021240Y071167D02*
X021981Y071167D01*
X021890Y071325D02*
X021240Y071325D01*
X021240Y071484D02*
X021825Y071484D01*
X021783Y071642D02*
X021240Y071642D01*
X021240Y071801D02*
X021770Y071801D01*
X021770Y071959D02*
X021240Y071959D01*
X021240Y072118D02*
X021803Y072118D01*
X021845Y072276D02*
X021240Y072276D01*
X021240Y072435D02*
X021932Y072435D01*
X022040Y072593D02*
X021240Y072593D01*
X021240Y072752D02*
X022198Y072752D01*
X022458Y072910D02*
X021240Y072910D01*
X021240Y073069D02*
X024720Y073069D01*
X024720Y073227D02*
X021240Y073227D01*
X021240Y073386D02*
X024720Y073386D01*
X024720Y073544D02*
X021240Y073544D01*
X021240Y073703D02*
X024720Y073703D01*
X024720Y073861D02*
X021240Y073861D01*
X021240Y074020D02*
X024720Y074020D01*
X024720Y074178D02*
X021240Y074178D01*
X021240Y074337D02*
X024720Y074337D01*
X024720Y074495D02*
X021240Y074495D01*
X021240Y074654D02*
X024679Y074654D01*
X024520Y074812D02*
X021240Y074812D01*
X021240Y074971D02*
X024362Y074971D01*
X024203Y075129D02*
X021240Y075129D01*
X021240Y075288D02*
X024045Y075288D01*
X023886Y075446D02*
X021240Y075446D01*
X021240Y075605D02*
X023728Y075605D01*
X023569Y075763D02*
X021240Y075763D01*
X021240Y075922D02*
X023411Y075922D01*
X023252Y076080D02*
X021240Y076080D01*
X021240Y076239D02*
X023094Y076239D01*
X022935Y076397D02*
X021240Y076397D01*
X021240Y076556D02*
X022777Y076556D01*
X022618Y076714D02*
X021240Y076714D01*
X021240Y076873D02*
X022460Y076873D01*
X022301Y077031D02*
X021240Y077031D01*
X021240Y077190D02*
X022143Y077190D01*
X021992Y077348D02*
X021240Y077348D01*
X021240Y077507D02*
X021900Y077507D01*
X021830Y077665D02*
X021240Y077665D01*
X021240Y077824D02*
X021788Y077824D01*
X021770Y077982D02*
X021240Y077982D01*
X021240Y078141D02*
X021770Y078141D01*
X021798Y078299D02*
X021240Y078299D01*
X021240Y078458D02*
X021840Y078458D01*
X021921Y078616D02*
X021240Y078616D01*
X021240Y078775D02*
X022021Y078775D01*
X022180Y078933D02*
X021240Y078933D01*
X021240Y079092D02*
X022426Y079092D01*
X021240Y079250D02*
X036370Y079250D01*
X036370Y079092D02*
X029634Y079092D01*
X029578Y079124D02*
X029283Y079203D01*
X028977Y079203D01*
X028682Y079124D01*
X028418Y078972D01*
X028202Y078756D01*
X028049Y078491D01*
X027970Y078196D01*
X027970Y077891D01*
X028049Y077596D01*
X028202Y077331D01*
X028418Y077115D01*
X028682Y076962D01*
X028977Y076883D01*
X029283Y076883D01*
X029578Y076962D01*
X029842Y077115D01*
X030058Y077331D01*
X030211Y077596D01*
X030290Y077891D01*
X030290Y078196D01*
X030211Y078491D01*
X030058Y078756D01*
X029842Y078972D01*
X029578Y079124D01*
X029880Y078933D02*
X036370Y078933D01*
X036370Y078775D02*
X030039Y078775D01*
X030139Y078616D02*
X036370Y078616D01*
X036370Y078458D02*
X030220Y078458D01*
X030262Y078299D02*
X036370Y078299D01*
X036370Y078141D02*
X030290Y078141D01*
X030290Y077982D02*
X036370Y077982D01*
X036370Y077824D02*
X030272Y077824D01*
X030230Y077665D02*
X036370Y077665D01*
X036370Y077507D02*
X030160Y077507D01*
X030068Y077348D02*
X036370Y077348D01*
X036370Y077190D02*
X029917Y077190D01*
X029697Y077031D02*
X036370Y077031D01*
X036370Y076873D02*
X025741Y076873D01*
X025899Y076714D02*
X036370Y076714D01*
X036370Y076556D02*
X026058Y076556D01*
X026216Y076397D02*
X036370Y076397D01*
X036370Y076239D02*
X026375Y076239D01*
X026533Y076080D02*
X036370Y076080D01*
X036370Y075922D02*
X026692Y075922D01*
X026833Y075763D02*
X036370Y075763D01*
X036370Y075605D02*
X026924Y075605D01*
X026986Y075446D02*
X036370Y075446D01*
X036370Y075288D02*
X027029Y075288D01*
X027040Y075129D02*
X036370Y075129D01*
X036370Y074971D02*
X027040Y074971D01*
X027040Y074812D02*
X036370Y074812D01*
X036370Y074654D02*
X027040Y074654D01*
X027040Y074495D02*
X036370Y074495D01*
X036370Y074337D02*
X027040Y074337D01*
X027040Y074178D02*
X036370Y074178D01*
X036370Y074020D02*
X027040Y074020D01*
X027040Y073861D02*
X036370Y073861D01*
X036370Y073703D02*
X027040Y073703D01*
X027040Y073544D02*
X036370Y073544D01*
X036370Y073386D02*
X027040Y073386D01*
X027040Y073227D02*
X036370Y073227D01*
X036370Y073069D02*
X027040Y073069D01*
X027040Y072910D02*
X028658Y072910D01*
X028682Y072924D02*
X028418Y072772D01*
X028202Y072556D01*
X028049Y072291D01*
X027970Y071996D01*
X027970Y071691D01*
X028049Y071396D01*
X028202Y071131D01*
X028418Y070915D01*
X028682Y070762D01*
X028977Y070683D01*
X029283Y070683D01*
X029578Y070762D01*
X029842Y070915D01*
X030058Y071131D01*
X030211Y071396D01*
X030290Y071691D01*
X030290Y071996D01*
X030211Y072291D01*
X030058Y072556D01*
X029842Y072772D01*
X029578Y072924D01*
X029283Y073003D01*
X028977Y073003D01*
X028682Y072924D01*
X028398Y072752D02*
X027040Y072752D01*
X027040Y072593D02*
X028240Y072593D01*
X028132Y072435D02*
X027040Y072435D01*
X027040Y072276D02*
X028045Y072276D01*
X028003Y072118D02*
X027040Y072118D01*
X027040Y071959D02*
X027970Y071959D01*
X027970Y071801D02*
X027040Y071801D01*
X027040Y071642D02*
X027983Y071642D01*
X028025Y071484D02*
X027040Y071484D01*
X027040Y071325D02*
X028090Y071325D01*
X028181Y071167D02*
X027040Y071167D01*
X027040Y071008D02*
X028324Y071008D01*
X028531Y070850D02*
X027040Y070850D01*
X027040Y070691D02*
X028947Y070691D01*
X029313Y070691D02*
X036370Y070691D01*
X036370Y070533D02*
X027040Y070533D01*
X027040Y070374D02*
X036370Y070374D01*
X036370Y070216D02*
X027040Y070216D01*
X027040Y070057D02*
X036370Y070057D01*
X036370Y069899D02*
X027040Y069899D01*
X027040Y069740D02*
X036370Y069740D01*
X036370Y069582D02*
X026997Y069582D01*
X026948Y069423D02*
X036370Y069423D01*
X036370Y069265D02*
X026857Y069265D01*
X026734Y069106D02*
X036370Y069106D01*
X036370Y068948D02*
X026575Y068948D01*
X026417Y068789D02*
X036370Y068789D01*
X036370Y068631D02*
X026258Y068631D01*
X026100Y068472D02*
X036370Y068472D01*
X036370Y068314D02*
X025941Y068314D01*
X025783Y068155D02*
X036370Y068155D01*
X036370Y067997D02*
X025624Y067997D01*
X025466Y067838D02*
X036370Y067838D01*
X036370Y067680D02*
X025307Y067680D01*
X025149Y067521D02*
X036370Y067521D01*
X036370Y067363D02*
X024990Y067363D01*
X024832Y067204D02*
X036370Y067204D01*
X036370Y067046D02*
X024673Y067046D01*
X024515Y066887D02*
X036370Y066887D01*
X036370Y066729D02*
X024356Y066729D01*
X024290Y066570D02*
X036370Y066570D01*
X036370Y066412D02*
X024290Y066412D01*
X024290Y066253D02*
X036370Y066253D01*
X036370Y066095D02*
X024290Y066095D01*
X024290Y065936D02*
X036370Y065936D01*
X036370Y065778D02*
X024290Y065778D01*
X024290Y065619D02*
X036370Y065619D01*
X036370Y065461D02*
X024290Y065461D01*
X024290Y065302D02*
X036370Y065302D01*
X036370Y065144D02*
X024290Y065144D01*
X024290Y064985D02*
X036370Y064985D01*
X036370Y064827D02*
X024290Y064827D01*
X024290Y064668D02*
X036370Y064668D01*
X036370Y064510D02*
X024290Y064510D01*
X024290Y064351D02*
X036370Y064351D01*
X036370Y064193D02*
X024290Y064193D01*
X024290Y064034D02*
X036370Y064034D01*
X036370Y063876D02*
X024290Y063876D01*
X024290Y063717D02*
X036370Y063717D01*
X036370Y063559D02*
X024290Y063559D01*
X024290Y063400D02*
X036370Y063400D01*
X036370Y063242D02*
X024290Y063242D01*
X024290Y063083D02*
X036370Y063083D01*
X036370Y062925D02*
X024290Y062925D01*
X024290Y062766D02*
X036370Y062766D01*
X036370Y062608D02*
X024290Y062608D01*
X024290Y062449D02*
X036370Y062449D01*
X036370Y062291D02*
X024290Y062291D01*
X024290Y062132D02*
X036370Y062132D01*
X036370Y061974D02*
X024290Y061974D01*
X024290Y061815D02*
X026036Y061815D01*
X026177Y061853D02*
X025882Y061774D01*
X025618Y061622D01*
X025402Y061406D01*
X025249Y061141D01*
X025170Y060846D01*
X025170Y041941D01*
X025249Y041646D01*
X025402Y041381D01*
X025618Y041165D01*
X025882Y041012D01*
X026177Y040933D01*
X026483Y040933D01*
X026778Y041012D01*
X027042Y041165D01*
X027258Y041381D01*
X027411Y041646D01*
X027490Y041941D01*
X027490Y056533D01*
X034683Y056533D01*
X034978Y056612D01*
X035242Y056765D01*
X038458Y059981D01*
X038611Y060246D01*
X038690Y060541D01*
X038690Y060846D01*
X038690Y069841D01*
X038690Y088746D01*
X038611Y089041D01*
X038458Y089306D01*
X038242Y089522D01*
X037978Y089674D01*
X037683Y089753D01*
X037377Y089753D01*
X037082Y089674D01*
X036818Y089522D01*
X036602Y089306D01*
X036449Y089041D01*
X036370Y088746D01*
X036370Y061174D01*
X034050Y058853D01*
X027490Y058853D01*
X027490Y060846D01*
X027411Y061141D01*
X027258Y061406D01*
X027042Y061622D01*
X026778Y061774D01*
X026483Y061853D01*
X026177Y061853D01*
X026624Y061815D02*
X029136Y061815D01*
X029277Y061853D02*
X028982Y061774D01*
X028718Y061622D01*
X028502Y061406D01*
X028349Y061141D01*
X028270Y060846D01*
X028270Y060541D01*
X028349Y060246D01*
X028502Y059981D01*
X028718Y059765D01*
X028982Y059612D01*
X029277Y059533D01*
X029583Y059533D01*
X029878Y059612D01*
X030142Y059765D01*
X030358Y059981D01*
X030511Y060246D01*
X030590Y060541D01*
X030590Y060846D01*
X030511Y061141D01*
X030358Y061406D01*
X030142Y061622D01*
X029878Y061774D01*
X029583Y061853D01*
X029277Y061853D01*
X029724Y061815D02*
X036370Y061815D01*
X036370Y061657D02*
X030081Y061657D01*
X030265Y061498D02*
X036370Y061498D01*
X036370Y061340D02*
X030396Y061340D01*
X030488Y061181D02*
X036370Y061181D01*
X036219Y061023D02*
X030543Y061023D01*
X030585Y060864D02*
X036061Y060864D01*
X035902Y060706D02*
X030590Y060706D01*
X030590Y060547D02*
X035744Y060547D01*
X035585Y060389D02*
X030549Y060389D01*
X030502Y060230D02*
X035427Y060230D01*
X035268Y060072D02*
X030411Y060072D01*
X030291Y059913D02*
X035110Y059913D01*
X034951Y059755D02*
X030125Y059755D01*
X029818Y059596D02*
X034793Y059596D01*
X034634Y059438D02*
X027490Y059438D01*
X027490Y059596D02*
X029042Y059596D01*
X028735Y059755D02*
X027490Y059755D01*
X027490Y059913D02*
X028569Y059913D01*
X028449Y060072D02*
X027490Y060072D01*
X027490Y060230D02*
X028358Y060230D01*
X028311Y060389D02*
X027490Y060389D01*
X027490Y060547D02*
X028270Y060547D01*
X028270Y060706D02*
X027490Y060706D01*
X027485Y060864D02*
X028275Y060864D01*
X028317Y061023D02*
X027443Y061023D01*
X027388Y061181D02*
X028372Y061181D01*
X028464Y061340D02*
X027296Y061340D01*
X027165Y061498D02*
X028595Y061498D01*
X028779Y061657D02*
X026981Y061657D01*
X025679Y061657D02*
X024290Y061657D01*
X024290Y061498D02*
X025495Y061498D01*
X025364Y061340D02*
X024290Y061340D01*
X024290Y061181D02*
X025272Y061181D01*
X025217Y061023D02*
X024290Y061023D01*
X024290Y060864D02*
X025175Y060864D01*
X025170Y060706D02*
X024290Y060706D01*
X024290Y060547D02*
X025170Y060547D01*
X025170Y060389D02*
X024290Y060389D01*
X024290Y060230D02*
X025170Y060230D01*
X025170Y060072D02*
X024290Y060072D01*
X024290Y059913D02*
X025170Y059913D01*
X025170Y059755D02*
X024290Y059755D01*
X024290Y059596D02*
X025170Y059596D01*
X025170Y059438D02*
X024290Y059438D01*
X024290Y059279D02*
X025170Y059279D01*
X025170Y059121D02*
X024290Y059121D01*
X024290Y058962D02*
X025170Y058962D01*
X025170Y058804D02*
X024290Y058804D01*
X024290Y058645D02*
X025170Y058645D01*
X025170Y058487D02*
X024290Y058487D01*
X024290Y058328D02*
X025170Y058328D01*
X025170Y058170D02*
X024290Y058170D01*
X024290Y058011D02*
X025170Y058011D01*
X025170Y057853D02*
X024290Y057853D01*
X024290Y057694D02*
X025170Y057694D01*
X025170Y057536D02*
X024290Y057536D01*
X024290Y057377D02*
X025170Y057377D01*
X025170Y057219D02*
X024290Y057219D01*
X024290Y057060D02*
X025170Y057060D01*
X025170Y056902D02*
X024290Y056902D01*
X024290Y056743D02*
X025170Y056743D01*
X025170Y056585D02*
X024290Y056585D01*
X024290Y056426D02*
X025170Y056426D01*
X025170Y056268D02*
X024290Y056268D01*
X024290Y056109D02*
X025170Y056109D01*
X025170Y055951D02*
X024290Y055951D01*
X024290Y055792D02*
X025170Y055792D01*
X025170Y055634D02*
X024290Y055634D01*
X024290Y055475D02*
X025170Y055475D01*
X025170Y055317D02*
X024290Y055317D01*
X024290Y055158D02*
X025170Y055158D01*
X025170Y055000D02*
X024290Y055000D01*
X024290Y054841D02*
X025170Y054841D01*
X025170Y054683D02*
X024290Y054683D01*
X024290Y054524D02*
X025170Y054524D01*
X025170Y054366D02*
X024290Y054366D01*
X024290Y054207D02*
X025170Y054207D01*
X025170Y054049D02*
X024290Y054049D01*
X024290Y053890D02*
X025170Y053890D01*
X025170Y053732D02*
X024290Y053732D01*
X024290Y053573D02*
X025170Y053573D01*
X025170Y053415D02*
X024290Y053415D01*
X024290Y053256D02*
X025170Y053256D01*
X025170Y053098D02*
X024290Y053098D01*
X024290Y052939D02*
X025170Y052939D01*
X025170Y052781D02*
X024290Y052781D01*
X024290Y052622D02*
X025170Y052622D01*
X025170Y052464D02*
X024290Y052464D01*
X024290Y052305D02*
X025170Y052305D01*
X025170Y052147D02*
X024290Y052147D01*
X024290Y051988D02*
X025170Y051988D01*
X025170Y051830D02*
X024290Y051830D01*
X024290Y051671D02*
X025170Y051671D01*
X025170Y051513D02*
X024290Y051513D01*
X024290Y051354D02*
X025170Y051354D01*
X025170Y051196D02*
X024290Y051196D01*
X024290Y051037D02*
X025170Y051037D01*
X025170Y050879D02*
X024290Y050879D01*
X024290Y050720D02*
X025170Y050720D01*
X025170Y050562D02*
X024290Y050562D01*
X024290Y050403D02*
X025170Y050403D01*
X025170Y050245D02*
X024290Y050245D01*
X024290Y050086D02*
X025170Y050086D01*
X025170Y049928D02*
X024290Y049928D01*
X024290Y049769D02*
X025170Y049769D01*
X025170Y049611D02*
X024290Y049611D01*
X024290Y049452D02*
X025170Y049452D01*
X025170Y049294D02*
X024290Y049294D01*
X024290Y049135D02*
X025170Y049135D01*
X025170Y048977D02*
X024290Y048977D01*
X024290Y048818D02*
X025170Y048818D01*
X025170Y048660D02*
X024290Y048660D01*
X024290Y048501D02*
X025170Y048501D01*
X025170Y048343D02*
X024290Y048343D01*
X024290Y048184D02*
X025170Y048184D01*
X025170Y048026D02*
X024290Y048026D01*
X024290Y047867D02*
X025170Y047867D01*
X025170Y047709D02*
X024290Y047709D01*
X024290Y047550D02*
X025170Y047550D01*
X025170Y047392D02*
X024290Y047392D01*
X024290Y047233D02*
X025170Y047233D01*
X025170Y047075D02*
X024290Y047075D01*
X024290Y046916D02*
X025170Y046916D01*
X025170Y046758D02*
X024290Y046758D01*
X024290Y046599D02*
X025170Y046599D01*
X025170Y046441D02*
X024290Y046441D01*
X024290Y046282D02*
X025170Y046282D01*
X025170Y046124D02*
X024290Y046124D01*
X024290Y045965D02*
X025170Y045965D01*
X025170Y045807D02*
X024290Y045807D01*
X024290Y045648D02*
X025170Y045648D01*
X025170Y045490D02*
X024290Y045490D01*
X024290Y045331D02*
X025170Y045331D01*
X025170Y045173D02*
X024290Y045173D01*
X024290Y045014D02*
X025170Y045014D01*
X025170Y044856D02*
X024290Y044856D01*
X024290Y044697D02*
X025170Y044697D01*
X025170Y044539D02*
X024290Y044539D01*
X024290Y044380D02*
X025170Y044380D01*
X025170Y044222D02*
X024290Y044222D01*
X024290Y044063D02*
X025170Y044063D01*
X025170Y043905D02*
X024290Y043905D01*
X024290Y043746D02*
X025170Y043746D01*
X025170Y043588D02*
X024290Y043588D01*
X024290Y043429D02*
X025170Y043429D01*
X025170Y043271D02*
X024290Y043271D01*
X024290Y043112D02*
X025170Y043112D01*
X025170Y042954D02*
X024290Y042954D01*
X024290Y042795D02*
X025170Y042795D01*
X025170Y042637D02*
X024249Y042637D01*
X024201Y042478D02*
X025170Y042478D01*
X025170Y042320D02*
X024110Y042320D01*
X023989Y042161D02*
X025170Y042161D01*
X025170Y042003D02*
X023830Y042003D01*
X023672Y041844D02*
X025196Y041844D01*
X025238Y041686D02*
X023513Y041686D01*
X023355Y041527D02*
X025317Y041527D01*
X025414Y041369D02*
X023196Y041369D01*
X023038Y041210D02*
X025572Y041210D01*
X025814Y041052D02*
X022879Y041052D01*
X022721Y040893D02*
X045670Y040893D01*
X045670Y040735D02*
X022562Y040735D01*
X022404Y040576D02*
X045670Y040576D01*
X045670Y040418D02*
X022245Y040418D01*
X022087Y040259D02*
X045670Y040259D01*
X045670Y040101D02*
X021928Y040101D01*
X021770Y039942D02*
X045670Y039942D01*
X045670Y039784D02*
X021611Y039784D01*
X021453Y039625D02*
X045670Y039625D01*
X045670Y039467D02*
X021294Y039467D01*
X021136Y039308D02*
X045670Y039308D01*
X045670Y039150D02*
X020977Y039150D01*
X020819Y038991D02*
X045670Y038991D01*
X045670Y038833D02*
X020660Y038833D01*
X020502Y038674D02*
X045670Y038674D01*
X045670Y038516D02*
X020343Y038516D01*
X020185Y038357D02*
X045670Y038357D01*
X045670Y038199D02*
X020026Y038199D01*
X019868Y038040D02*
X045670Y038040D01*
X045670Y037882D02*
X019709Y037882D01*
X019551Y037723D02*
X045670Y037723D01*
X045670Y037565D02*
X019392Y037565D01*
X019234Y037406D02*
X045670Y037406D01*
X045670Y037248D02*
X019075Y037248D01*
X018917Y037089D02*
X045670Y037089D01*
X045670Y036931D02*
X018758Y036931D01*
X018568Y036772D02*
X045670Y036772D01*
X045670Y036614D02*
X018197Y036614D01*
X017538Y038991D02*
X009660Y038991D01*
X009660Y038833D02*
X011014Y038833D01*
X010723Y038674D02*
X009660Y038674D01*
X009660Y038516D02*
X010562Y038516D01*
X010445Y038357D02*
X009660Y038357D01*
X009660Y038199D02*
X010354Y038199D01*
X010309Y038040D02*
X009660Y038040D01*
X009660Y037882D02*
X010270Y037882D01*
X010270Y037723D02*
X009660Y037723D01*
X009660Y037565D02*
X010277Y037565D01*
X010319Y037406D02*
X009660Y037406D01*
X009660Y037248D02*
X010377Y037248D01*
X010468Y037089D02*
X009660Y037089D01*
X009660Y036931D02*
X010602Y036931D01*
X010792Y036772D02*
X009660Y036772D01*
X009660Y036614D02*
X011163Y036614D01*
X011110Y035821D02*
X009660Y035821D01*
X009660Y035663D02*
X010869Y035663D01*
X010710Y035504D02*
X009660Y035504D01*
X009660Y035346D02*
X010600Y035346D01*
X010508Y035187D02*
X009660Y035187D01*
X009660Y035029D02*
X010456Y035029D01*
X010414Y034870D02*
X009660Y034870D01*
X009660Y034712D02*
X010400Y034712D01*
X010400Y034553D02*
X009660Y034553D01*
X009660Y034395D02*
X010420Y034395D01*
X010462Y034236D02*
X009660Y034236D01*
X009660Y034078D02*
X010521Y034078D01*
X010612Y033919D02*
X009660Y033919D01*
X009660Y033761D02*
X010732Y033761D01*
X010890Y033602D02*
X009660Y033602D01*
X009660Y033444D02*
X011148Y033444D01*
X011277Y032703D02*
X010982Y032624D01*
X010718Y032472D01*
X010502Y032256D01*
X010349Y031991D01*
X010270Y031696D01*
X010270Y031391D01*
X010349Y031096D01*
X010502Y030831D01*
X010718Y030615D01*
X010982Y030462D01*
X011277Y030383D01*
X011583Y030383D01*
X011878Y030462D01*
X012142Y030615D01*
X012358Y030831D01*
X012511Y031096D01*
X012590Y031391D01*
X012590Y031696D01*
X012511Y031991D01*
X012358Y032256D01*
X012142Y032472D01*
X011878Y032624D01*
X011583Y032703D01*
X011277Y032703D01*
X011083Y032651D02*
X009660Y032651D01*
X009660Y032493D02*
X010755Y032493D01*
X010581Y032334D02*
X009660Y032334D01*
X009660Y032176D02*
X010456Y032176D01*
X010364Y032017D02*
X009660Y032017D01*
X009660Y031859D02*
X010314Y031859D01*
X010271Y031700D02*
X009660Y031700D01*
X009660Y031542D02*
X010270Y031542D01*
X010272Y031383D02*
X009660Y031383D01*
X009660Y031225D02*
X010314Y031225D01*
X010366Y031066D02*
X009660Y031066D01*
X009660Y030908D02*
X010457Y030908D01*
X010583Y030749D02*
X009660Y030749D01*
X009660Y030591D02*
X010760Y030591D01*
X011094Y030432D02*
X009660Y030432D01*
X009660Y030274D02*
X019459Y030274D01*
X019350Y030383D02*
X022218Y027515D01*
X022482Y027362D01*
X022777Y027283D01*
X023083Y027283D01*
X023378Y027362D01*
X023642Y027515D01*
X023858Y027731D01*
X024011Y027996D01*
X024090Y028291D01*
X024090Y028596D01*
X024011Y028891D01*
X023858Y029156D01*
X020542Y032472D01*
X020278Y032624D01*
X019983Y032703D01*
X014683Y032703D01*
X014377Y032703D01*
X014082Y032624D01*
X013818Y032472D01*
X013602Y032256D01*
X013449Y031991D01*
X013370Y031696D01*
X013370Y031391D01*
X013449Y031096D01*
X013602Y030831D01*
X013818Y030615D01*
X014082Y030462D01*
X014377Y030383D01*
X019350Y030383D01*
X019617Y030115D02*
X009660Y030115D01*
X009660Y029957D02*
X019776Y029957D01*
X019934Y029798D02*
X009660Y029798D01*
X009660Y029640D02*
X011142Y029640D01*
X011217Y029683D02*
X010913Y029508D01*
X010666Y029260D01*
X010491Y028957D01*
X010400Y028618D01*
X010400Y028268D01*
X010491Y027930D01*
X010666Y027627D01*
X010913Y027379D01*
X011217Y027204D01*
X011555Y027113D01*
X011905Y027113D01*
X012243Y027204D01*
X012547Y027379D01*
X012794Y027627D01*
X012969Y027930D01*
X013060Y028268D01*
X013060Y028618D01*
X012969Y028957D01*
X012794Y029260D01*
X012547Y029508D01*
X012243Y029683D01*
X011905Y029773D01*
X011555Y029773D01*
X011217Y029683D01*
X010887Y029481D02*
X009660Y029481D01*
X009660Y029323D02*
X010729Y029323D01*
X010611Y029164D02*
X009660Y029164D01*
X009660Y029006D02*
X010519Y029006D01*
X010461Y028847D02*
X009660Y028847D01*
X009660Y028689D02*
X010419Y028689D01*
X010400Y028530D02*
X009660Y028530D01*
X009660Y028372D02*
X010400Y028372D01*
X010415Y028213D02*
X009660Y028213D01*
X009660Y028055D02*
X010457Y028055D01*
X010510Y027896D02*
X009660Y027896D01*
X009660Y027738D02*
X010602Y027738D01*
X010713Y027579D02*
X009660Y027579D01*
X009660Y027421D02*
X010872Y027421D01*
X011116Y027262D02*
X009660Y027262D01*
X009660Y027104D02*
X036370Y027104D01*
X036370Y027262D02*
X015444Y027262D01*
X015343Y027204D02*
X015647Y027379D01*
X015894Y027627D01*
X016069Y027930D01*
X016160Y028268D01*
X016160Y028618D01*
X016069Y028957D01*
X015894Y029260D01*
X015647Y029508D01*
X015343Y029683D01*
X015005Y029773D01*
X014655Y029773D01*
X014317Y029683D01*
X014013Y029508D01*
X013766Y029260D01*
X013591Y028957D01*
X013500Y028618D01*
X013500Y028268D01*
X013591Y027930D01*
X013766Y027627D01*
X014013Y027379D01*
X014317Y027204D01*
X014655Y027113D01*
X015005Y027113D01*
X015343Y027204D01*
X015688Y027421D02*
X022381Y027421D01*
X022153Y027579D02*
X015847Y027579D01*
X015958Y027738D02*
X021995Y027738D01*
X021836Y027896D02*
X016050Y027896D01*
X016103Y028055D02*
X021678Y028055D01*
X021519Y028213D02*
X016145Y028213D01*
X016160Y028372D02*
X021361Y028372D01*
X021202Y028530D02*
X016160Y028530D01*
X016141Y028689D02*
X021044Y028689D01*
X020885Y028847D02*
X016099Y028847D01*
X016041Y029006D02*
X020727Y029006D01*
X020568Y029164D02*
X015949Y029164D01*
X015831Y029323D02*
X020410Y029323D01*
X020251Y029481D02*
X015673Y029481D01*
X015418Y029640D02*
X020093Y029640D01*
X021789Y031225D02*
X036370Y031225D01*
X036370Y031383D02*
X021630Y031383D01*
X021472Y031542D02*
X036370Y031542D01*
X036370Y031700D02*
X021313Y031700D01*
X021155Y031859D02*
X036370Y031859D01*
X036370Y032017D02*
X020996Y032017D01*
X020838Y032176D02*
X036370Y032176D01*
X036370Y032334D02*
X020679Y032334D01*
X020505Y032493D02*
X036370Y032493D01*
X036370Y032651D02*
X020177Y032651D01*
X021947Y031066D02*
X036370Y031066D01*
X036370Y030908D02*
X022106Y030908D01*
X022264Y030749D02*
X036370Y030749D01*
X036370Y030591D02*
X022423Y030591D01*
X022581Y030432D02*
X036370Y030432D01*
X036370Y030274D02*
X022740Y030274D01*
X022898Y030115D02*
X036370Y030115D01*
X036370Y029957D02*
X023057Y029957D01*
X023215Y029798D02*
X036370Y029798D01*
X036370Y029640D02*
X023374Y029640D01*
X023532Y029481D02*
X028608Y029481D01*
X028682Y029524D02*
X028418Y029372D01*
X028202Y029156D01*
X028049Y028891D01*
X027970Y028596D01*
X027970Y028291D01*
X028049Y027996D01*
X028202Y027731D01*
X028418Y027515D01*
X028682Y027362D01*
X028977Y027283D01*
X029283Y027283D01*
X029578Y027362D01*
X029842Y027515D01*
X030058Y027731D01*
X030211Y027996D01*
X030290Y028291D01*
X030290Y028596D01*
X030211Y028891D01*
X030058Y029156D01*
X029842Y029372D01*
X029578Y029524D01*
X029283Y029603D01*
X028977Y029603D01*
X028682Y029524D01*
X028369Y029323D02*
X023691Y029323D01*
X023849Y029164D02*
X028211Y029164D01*
X028115Y029006D02*
X023945Y029006D01*
X024023Y028847D02*
X028037Y028847D01*
X027995Y028689D02*
X024065Y028689D01*
X024090Y028530D02*
X027970Y028530D01*
X027970Y028372D02*
X024090Y028372D01*
X024069Y028213D02*
X027991Y028213D01*
X028033Y028055D02*
X024027Y028055D01*
X023954Y027896D02*
X028106Y027896D01*
X028198Y027738D02*
X023862Y027738D01*
X023707Y027579D02*
X028353Y027579D01*
X028581Y027421D02*
X023479Y027421D01*
X023514Y023300D02*
X028640Y023300D01*
X028388Y023141D02*
X023672Y023141D01*
X023831Y022983D02*
X028229Y022983D01*
X028126Y022824D02*
X023934Y022824D01*
X024018Y022666D02*
X028042Y022666D01*
X028000Y022507D02*
X024060Y022507D01*
X024090Y022349D02*
X027970Y022349D01*
X027970Y022190D02*
X024090Y022190D01*
X024074Y022032D02*
X027986Y022032D01*
X028028Y021873D02*
X024032Y021873D01*
X023964Y021715D02*
X028096Y021715D01*
X028187Y021556D02*
X023873Y021556D01*
X023725Y021398D02*
X028335Y021398D01*
X028549Y021239D02*
X023511Y021239D01*
X019916Y023617D02*
X009660Y023617D01*
X009660Y023775D02*
X019757Y023775D01*
X019599Y023934D02*
X009660Y023934D01*
X009660Y024092D02*
X019440Y024092D01*
X014216Y027262D02*
X012344Y027262D01*
X012588Y027421D02*
X013972Y027421D01*
X013813Y027579D02*
X012747Y027579D01*
X012858Y027738D02*
X013702Y027738D01*
X013610Y027896D02*
X012950Y027896D01*
X013003Y028055D02*
X013557Y028055D01*
X013515Y028213D02*
X013045Y028213D01*
X013060Y028372D02*
X013500Y028372D01*
X013500Y028530D02*
X013060Y028530D01*
X013041Y028689D02*
X013519Y028689D01*
X013561Y028847D02*
X012999Y028847D01*
X012941Y029006D02*
X013619Y029006D01*
X013711Y029164D02*
X012849Y029164D01*
X012731Y029323D02*
X013829Y029323D01*
X013987Y029481D02*
X012573Y029481D01*
X012318Y029640D02*
X014242Y029640D01*
X014194Y030432D02*
X011766Y030432D01*
X012100Y030591D02*
X013860Y030591D01*
X013683Y030749D02*
X012277Y030749D01*
X012403Y030908D02*
X013557Y030908D01*
X013466Y031066D02*
X012494Y031066D01*
X012546Y031225D02*
X013414Y031225D01*
X013372Y031383D02*
X012588Y031383D01*
X012590Y031542D02*
X013370Y031542D01*
X013371Y031700D02*
X012589Y031700D01*
X012546Y031859D02*
X013414Y031859D01*
X013464Y032017D02*
X012496Y032017D01*
X012404Y032176D02*
X013556Y032176D01*
X013681Y032334D02*
X012279Y032334D01*
X012105Y032493D02*
X013855Y032493D01*
X014183Y032651D02*
X011777Y032651D01*
X012312Y033444D02*
X036566Y033444D01*
X036475Y033285D02*
X009660Y033285D01*
X009660Y033127D02*
X036418Y033127D01*
X036376Y032968D02*
X009660Y032968D01*
X009660Y032810D02*
X036370Y032810D01*
X036370Y029481D02*
X029652Y029481D01*
X029891Y029323D02*
X036370Y029323D01*
X036370Y029164D02*
X030049Y029164D01*
X030145Y029006D02*
X036370Y029006D01*
X036370Y028847D02*
X030223Y028847D01*
X030265Y028689D02*
X036370Y028689D01*
X036370Y028530D02*
X030290Y028530D01*
X030290Y028372D02*
X036370Y028372D01*
X036370Y028213D02*
X030269Y028213D01*
X030227Y028055D02*
X036370Y028055D01*
X036370Y027896D02*
X030154Y027896D01*
X030062Y027738D02*
X036370Y027738D01*
X036370Y027579D02*
X029907Y027579D01*
X029679Y027421D02*
X036370Y027421D01*
X036370Y026945D02*
X009660Y026945D01*
X009660Y026787D02*
X036370Y026787D01*
X030238Y034395D02*
X045670Y034395D01*
X045670Y034553D02*
X030280Y034553D01*
X030290Y034712D02*
X045670Y034712D01*
X045670Y034870D02*
X030290Y034870D01*
X030254Y035029D02*
X045670Y035029D01*
X045670Y035187D02*
X030212Y035187D01*
X030122Y035346D02*
X045670Y035346D01*
X045670Y035504D02*
X030009Y035504D01*
X029851Y035663D02*
X045670Y035663D01*
X045670Y035821D02*
X029583Y035821D01*
X030177Y034236D02*
X045670Y034236D01*
X045670Y034078D02*
X030085Y034078D01*
X028512Y033761D02*
X023548Y033761D01*
X023747Y033919D02*
X028313Y033919D01*
X028175Y034078D02*
X023885Y034078D01*
X023977Y034236D02*
X028083Y034236D01*
X028022Y034395D02*
X024038Y034395D01*
X024080Y034553D02*
X027980Y034553D01*
X027970Y034712D02*
X024090Y034712D01*
X024090Y034870D02*
X027970Y034870D01*
X028006Y035029D02*
X024054Y035029D01*
X024012Y035187D02*
X028048Y035187D01*
X028138Y035346D02*
X023922Y035346D01*
X023809Y035504D02*
X028251Y035504D01*
X028409Y035663D02*
X023651Y035663D01*
X023383Y035821D02*
X028677Y035821D01*
X029277Y040933D02*
X029583Y040933D01*
X029878Y041012D01*
X030142Y041165D01*
X030358Y041381D01*
X030511Y041646D01*
X030590Y041941D01*
X030590Y042246D01*
X030511Y042541D01*
X030358Y042806D01*
X030142Y043022D01*
X029878Y043174D01*
X029583Y043253D01*
X029277Y043253D01*
X028982Y043174D01*
X028718Y043022D01*
X028502Y042806D01*
X028349Y042541D01*
X028270Y042246D01*
X028270Y041941D01*
X028349Y041646D01*
X028502Y041381D01*
X028718Y041165D01*
X028982Y041012D01*
X029277Y040933D01*
X028914Y041052D02*
X026846Y041052D01*
X027088Y041210D02*
X028672Y041210D01*
X028514Y041369D02*
X027246Y041369D01*
X027343Y041527D02*
X028417Y041527D01*
X028338Y041686D02*
X027422Y041686D01*
X027464Y041844D02*
X028296Y041844D01*
X028270Y042003D02*
X027490Y042003D01*
X027490Y042161D02*
X028270Y042161D01*
X028290Y042320D02*
X027490Y042320D01*
X027490Y042478D02*
X028332Y042478D01*
X028404Y042637D02*
X027490Y042637D01*
X027490Y042795D02*
X028496Y042795D01*
X028650Y042954D02*
X027490Y042954D01*
X027490Y043112D02*
X028875Y043112D01*
X029985Y043112D02*
X036370Y043112D01*
X036370Y042954D02*
X030210Y042954D01*
X030364Y042795D02*
X036370Y042795D01*
X036370Y042637D02*
X030456Y042637D01*
X030528Y042478D02*
X036370Y042478D01*
X036370Y042320D02*
X030570Y042320D01*
X030590Y042161D02*
X036370Y042161D01*
X036370Y042003D02*
X030590Y042003D01*
X030564Y041844D02*
X036396Y041844D01*
X036370Y041941D02*
X036449Y041646D01*
X036602Y041381D01*
X036818Y041165D01*
X037082Y041012D01*
X037377Y040933D01*
X037683Y040933D01*
X037978Y041012D01*
X038242Y041165D01*
X038458Y041381D01*
X038611Y041646D01*
X038690Y041941D01*
X038690Y047533D01*
X044483Y047533D01*
X044778Y047612D01*
X045042Y047765D01*
X047542Y050265D01*
X047758Y050481D01*
X047911Y050746D01*
X047990Y051041D01*
X047990Y051546D01*
X047990Y060846D01*
X047911Y061141D01*
X047758Y061406D01*
X047542Y061622D01*
X047278Y061774D01*
X046983Y061853D01*
X046677Y061853D01*
X046382Y061774D01*
X046118Y061622D01*
X045902Y061406D01*
X045749Y061141D01*
X045670Y060846D01*
X045670Y051674D01*
X043850Y049853D01*
X038690Y049853D01*
X038690Y051546D01*
X038611Y051841D01*
X038458Y052106D01*
X038242Y052322D01*
X037978Y052474D01*
X037683Y052553D01*
X037377Y052553D01*
X037082Y052474D01*
X036818Y052322D01*
X036602Y052106D01*
X036449Y051841D01*
X036370Y051546D01*
X036370Y041941D01*
X036438Y041686D02*
X030522Y041686D01*
X030443Y041527D02*
X036517Y041527D01*
X036614Y041369D02*
X030346Y041369D01*
X030188Y041210D02*
X036772Y041210D01*
X037014Y041052D02*
X029946Y041052D01*
X027490Y043271D02*
X036370Y043271D01*
X036370Y043429D02*
X027490Y043429D01*
X027490Y043588D02*
X036370Y043588D01*
X036370Y043746D02*
X027490Y043746D01*
X027490Y043905D02*
X036370Y043905D01*
X036370Y044063D02*
X027490Y044063D01*
X027490Y044222D02*
X036370Y044222D01*
X036370Y044380D02*
X027490Y044380D01*
X027490Y044539D02*
X036370Y044539D01*
X036370Y044697D02*
X027490Y044697D01*
X027490Y044856D02*
X036370Y044856D01*
X036370Y045014D02*
X027490Y045014D01*
X027490Y045173D02*
X036370Y045173D01*
X036370Y045331D02*
X027490Y045331D01*
X027490Y045490D02*
X036370Y045490D01*
X036370Y045648D02*
X027490Y045648D01*
X027490Y045807D02*
X036370Y045807D01*
X036370Y045965D02*
X027490Y045965D01*
X027490Y046124D02*
X036370Y046124D01*
X036370Y046282D02*
X027490Y046282D01*
X027490Y046441D02*
X036370Y046441D01*
X036370Y046599D02*
X027490Y046599D01*
X027490Y046758D02*
X036370Y046758D01*
X036370Y046916D02*
X027490Y046916D01*
X027490Y047075D02*
X036370Y047075D01*
X036370Y047233D02*
X027490Y047233D01*
X027490Y047392D02*
X036370Y047392D01*
X036370Y047550D02*
X027490Y047550D01*
X027490Y047709D02*
X036370Y047709D01*
X036370Y047867D02*
X027490Y047867D01*
X027490Y048026D02*
X036370Y048026D01*
X036370Y048184D02*
X027490Y048184D01*
X027490Y048343D02*
X036370Y048343D01*
X036370Y048501D02*
X027490Y048501D01*
X027490Y048660D02*
X036370Y048660D01*
X036370Y048818D02*
X027490Y048818D01*
X027490Y048977D02*
X036370Y048977D01*
X036370Y049135D02*
X027490Y049135D01*
X027490Y049294D02*
X036370Y049294D01*
X036370Y049452D02*
X027490Y049452D01*
X027490Y049611D02*
X036370Y049611D01*
X036370Y049769D02*
X027490Y049769D01*
X027490Y049928D02*
X036370Y049928D01*
X036370Y050086D02*
X027490Y050086D01*
X027490Y050245D02*
X029234Y050245D01*
X029277Y050233D02*
X029583Y050233D01*
X029878Y050312D01*
X030142Y050465D01*
X030358Y050681D01*
X030511Y050946D01*
X030590Y051241D01*
X030590Y051546D01*
X030511Y051841D01*
X030358Y052106D01*
X030142Y052322D01*
X029878Y052474D01*
X029583Y052553D01*
X029277Y052553D01*
X028982Y052474D01*
X028718Y052322D01*
X028502Y052106D01*
X028349Y051841D01*
X028270Y051546D01*
X028270Y051241D01*
X028349Y050946D01*
X028502Y050681D01*
X028718Y050465D01*
X028982Y050312D01*
X029277Y050233D01*
X029626Y050245D02*
X036370Y050245D01*
X036370Y050403D02*
X030035Y050403D01*
X030239Y050562D02*
X036370Y050562D01*
X036370Y050720D02*
X030381Y050720D01*
X030472Y050879D02*
X036370Y050879D01*
X036370Y051037D02*
X030536Y051037D01*
X030578Y051196D02*
X036370Y051196D01*
X036370Y051354D02*
X030590Y051354D01*
X030590Y051513D02*
X036370Y051513D01*
X036404Y051671D02*
X033572Y051671D01*
X033693Y051704D02*
X033997Y051879D01*
X034244Y052127D01*
X034419Y052430D01*
X034510Y052768D01*
X034510Y053118D01*
X034419Y053457D01*
X034244Y053760D01*
X033997Y054008D01*
X033693Y054183D01*
X033355Y054273D01*
X033005Y054273D01*
X032667Y054183D01*
X032363Y054008D01*
X032116Y053760D01*
X031941Y053457D01*
X031850Y053118D01*
X031850Y052768D01*
X031941Y052430D01*
X032116Y052127D01*
X032363Y051879D01*
X032667Y051704D01*
X033005Y051613D01*
X033355Y051613D01*
X033693Y051704D01*
X033911Y051830D02*
X036446Y051830D01*
X036534Y051988D02*
X034106Y051988D01*
X034256Y052147D02*
X036643Y052147D01*
X036802Y052305D02*
X034347Y052305D01*
X034428Y052464D02*
X037064Y052464D01*
X037996Y052464D02*
X040164Y052464D01*
X040182Y052474D02*
X039918Y052322D01*
X039702Y052106D01*
X039549Y051841D01*
X039470Y051546D01*
X039470Y051241D01*
X039549Y050946D01*
X039702Y050681D01*
X039918Y050465D01*
X040182Y050312D01*
X040477Y050233D01*
X040783Y050233D01*
X041078Y050312D01*
X041342Y050465D01*
X041558Y050681D01*
X041711Y050946D01*
X041790Y051241D01*
X041790Y051546D01*
X041711Y051841D01*
X041558Y052106D01*
X041342Y052322D01*
X041078Y052474D01*
X040783Y052553D01*
X040477Y052553D01*
X040182Y052474D01*
X039902Y052305D02*
X038258Y052305D01*
X038417Y052147D02*
X039743Y052147D01*
X039634Y051988D02*
X038526Y051988D01*
X038614Y051830D02*
X039546Y051830D01*
X039504Y051671D02*
X038656Y051671D01*
X038690Y051513D02*
X039470Y051513D01*
X039470Y051354D02*
X038690Y051354D01*
X038690Y051196D02*
X039482Y051196D01*
X039524Y051037D02*
X038690Y051037D01*
X038690Y050879D02*
X039588Y050879D01*
X039679Y050720D02*
X038690Y050720D01*
X038690Y050562D02*
X039821Y050562D01*
X040025Y050403D02*
X038690Y050403D01*
X038690Y050245D02*
X040434Y050245D01*
X040826Y050245D02*
X044241Y050245D01*
X044400Y050403D02*
X041235Y050403D01*
X041439Y050562D02*
X044558Y050562D01*
X044717Y050720D02*
X041581Y050720D01*
X041672Y050879D02*
X044875Y050879D01*
X045034Y051037D02*
X041736Y051037D01*
X041778Y051196D02*
X045192Y051196D01*
X045351Y051354D02*
X041790Y051354D01*
X041790Y051513D02*
X045509Y051513D01*
X045668Y051671D02*
X041756Y051671D01*
X041714Y051830D02*
X045670Y051830D01*
X045670Y051988D02*
X041626Y051988D01*
X041517Y052147D02*
X045670Y052147D01*
X045670Y052305D02*
X041358Y052305D01*
X041096Y052464D02*
X045670Y052464D01*
X045670Y052622D02*
X034471Y052622D01*
X034510Y052781D02*
X045670Y052781D01*
X045670Y052939D02*
X034510Y052939D01*
X034510Y053098D02*
X045670Y053098D01*
X045670Y053256D02*
X034473Y053256D01*
X034431Y053415D02*
X045670Y053415D01*
X045670Y053573D02*
X034352Y053573D01*
X034260Y053732D02*
X045670Y053732D01*
X045670Y053890D02*
X034114Y053890D01*
X033925Y054049D02*
X045670Y054049D01*
X045670Y054207D02*
X033601Y054207D01*
X032759Y054207D02*
X027490Y054207D01*
X027490Y054049D02*
X032435Y054049D01*
X032246Y053890D02*
X027490Y053890D01*
X027490Y053732D02*
X032100Y053732D01*
X032008Y053573D02*
X027490Y053573D01*
X027490Y053415D02*
X031929Y053415D01*
X031887Y053256D02*
X027490Y053256D01*
X027490Y053098D02*
X031850Y053098D01*
X031850Y052939D02*
X027490Y052939D01*
X027490Y052781D02*
X031850Y052781D01*
X031889Y052622D02*
X027490Y052622D01*
X027490Y052464D02*
X028964Y052464D01*
X028702Y052305D02*
X027490Y052305D01*
X027490Y052147D02*
X028543Y052147D01*
X028434Y051988D02*
X027490Y051988D01*
X027490Y051830D02*
X028346Y051830D01*
X028304Y051671D02*
X027490Y051671D01*
X027490Y051513D02*
X028270Y051513D01*
X028270Y051354D02*
X027490Y051354D01*
X027490Y051196D02*
X028282Y051196D01*
X028324Y051037D02*
X027490Y051037D01*
X027490Y050879D02*
X028388Y050879D01*
X028479Y050720D02*
X027490Y050720D01*
X027490Y050562D02*
X028621Y050562D01*
X028825Y050403D02*
X027490Y050403D01*
X029896Y052464D02*
X031932Y052464D01*
X032013Y052305D02*
X030158Y052305D01*
X030317Y052147D02*
X032104Y052147D01*
X032254Y051988D02*
X030426Y051988D01*
X030514Y051830D02*
X032449Y051830D01*
X032788Y051671D02*
X030556Y051671D01*
X027490Y054366D02*
X045670Y054366D01*
X045670Y054524D02*
X027490Y054524D01*
X027490Y054683D02*
X045670Y054683D01*
X045670Y054841D02*
X027490Y054841D01*
X027490Y055000D02*
X045670Y055000D01*
X045670Y055158D02*
X027490Y055158D01*
X027490Y055317D02*
X045670Y055317D01*
X045670Y055475D02*
X027490Y055475D01*
X027490Y055634D02*
X045670Y055634D01*
X045670Y055792D02*
X027490Y055792D01*
X027490Y055951D02*
X045670Y055951D01*
X045670Y056109D02*
X027490Y056109D01*
X027490Y056268D02*
X045670Y056268D01*
X045670Y056426D02*
X027490Y056426D01*
X027490Y058962D02*
X034159Y058962D01*
X034317Y059121D02*
X027490Y059121D01*
X027490Y059279D02*
X034476Y059279D01*
X036172Y057694D02*
X045670Y057694D01*
X045670Y057536D02*
X036013Y057536D01*
X035855Y057377D02*
X045670Y057377D01*
X045670Y057219D02*
X035696Y057219D01*
X035538Y057060D02*
X045670Y057060D01*
X045670Y056902D02*
X035379Y056902D01*
X035205Y056743D02*
X045670Y056743D01*
X045670Y056585D02*
X034875Y056585D01*
X036330Y057853D02*
X045670Y057853D01*
X045670Y058011D02*
X036489Y058011D01*
X036647Y058170D02*
X045670Y058170D01*
X045670Y058328D02*
X036806Y058328D01*
X036964Y058487D02*
X045670Y058487D01*
X045670Y058645D02*
X037123Y058645D01*
X037281Y058804D02*
X045670Y058804D01*
X045670Y058962D02*
X037440Y058962D01*
X037598Y059121D02*
X045670Y059121D01*
X045670Y059279D02*
X037757Y059279D01*
X037915Y059438D02*
X045670Y059438D01*
X045670Y059596D02*
X041018Y059596D01*
X041078Y059612D02*
X041342Y059765D01*
X041558Y059981D01*
X041711Y060246D01*
X041790Y060541D01*
X041790Y060846D01*
X041711Y061141D01*
X041558Y061406D01*
X041342Y061622D01*
X041078Y061774D01*
X040783Y061853D01*
X040477Y061853D01*
X040182Y061774D01*
X039918Y061622D01*
X039702Y061406D01*
X039549Y061141D01*
X039470Y060846D01*
X039470Y060541D01*
X039549Y060246D01*
X039702Y059981D01*
X039918Y059765D01*
X040182Y059612D01*
X040477Y059533D01*
X040783Y059533D01*
X041078Y059612D01*
X041325Y059755D02*
X045670Y059755D01*
X045670Y059913D02*
X041491Y059913D01*
X041611Y060072D02*
X045670Y060072D01*
X045670Y060230D02*
X041702Y060230D01*
X041749Y060389D02*
X045670Y060389D01*
X045670Y060547D02*
X041790Y060547D01*
X041790Y060706D02*
X045670Y060706D01*
X045675Y060864D02*
X041785Y060864D01*
X041743Y061023D02*
X045717Y061023D01*
X045772Y061181D02*
X041688Y061181D01*
X041596Y061340D02*
X045864Y061340D01*
X045995Y061498D02*
X041465Y061498D01*
X041281Y061657D02*
X046179Y061657D01*
X046536Y061815D02*
X040924Y061815D01*
X040336Y061815D02*
X038690Y061815D01*
X038690Y061657D02*
X039979Y061657D01*
X039795Y061498D02*
X038690Y061498D01*
X038690Y061340D02*
X039664Y061340D01*
X039572Y061181D02*
X038690Y061181D01*
X038690Y061023D02*
X039517Y061023D01*
X039475Y060864D02*
X038690Y060864D01*
X038690Y060706D02*
X039470Y060706D01*
X039470Y060547D02*
X038690Y060547D01*
X038649Y060389D02*
X039511Y060389D01*
X039558Y060230D02*
X038602Y060230D01*
X038511Y060072D02*
X039649Y060072D01*
X039769Y059913D02*
X038391Y059913D01*
X038232Y059755D02*
X039935Y059755D01*
X040242Y059596D02*
X038074Y059596D01*
X038690Y061974D02*
X055700Y061974D01*
X055700Y062132D02*
X038690Y062132D01*
X038690Y062291D02*
X055700Y062291D01*
X055700Y062449D02*
X038690Y062449D01*
X038690Y062608D02*
X055700Y062608D01*
X055700Y062766D02*
X038690Y062766D01*
X038690Y062925D02*
X055700Y062925D01*
X055700Y063083D02*
X038690Y063083D01*
X038690Y063242D02*
X055700Y063242D01*
X055700Y063400D02*
X038690Y063400D01*
X038690Y063559D02*
X055700Y063559D01*
X055700Y063717D02*
X038690Y063717D01*
X038690Y063876D02*
X055700Y063876D01*
X055700Y064034D02*
X038690Y064034D01*
X038690Y064193D02*
X055700Y064193D01*
X055700Y064351D02*
X038690Y064351D01*
X038690Y064510D02*
X055700Y064510D01*
X055700Y064668D02*
X038690Y064668D01*
X038690Y064827D02*
X055700Y064827D01*
X055700Y064985D02*
X038690Y064985D01*
X038690Y065144D02*
X055700Y065144D01*
X055700Y065302D02*
X038690Y065302D01*
X038690Y065461D02*
X055700Y065461D01*
X055700Y065619D02*
X038690Y065619D01*
X038690Y065778D02*
X055700Y065778D01*
X055700Y065936D02*
X038690Y065936D01*
X038690Y066095D02*
X055700Y066095D01*
X055700Y066253D02*
X038690Y066253D01*
X038690Y066412D02*
X055700Y066412D01*
X055700Y066570D02*
X038690Y066570D01*
X038690Y066729D02*
X055700Y066729D01*
X055700Y066887D02*
X038690Y066887D01*
X038690Y067046D02*
X055700Y067046D01*
X055700Y067204D02*
X038690Y067204D01*
X038690Y067363D02*
X055700Y067363D01*
X055700Y067521D02*
X038690Y067521D01*
X038690Y067680D02*
X055700Y067680D01*
X055700Y067838D02*
X038690Y067838D01*
X038690Y067997D02*
X055700Y067997D01*
X055700Y068155D02*
X038690Y068155D01*
X038690Y068314D02*
X055700Y068314D01*
X055700Y068472D02*
X038690Y068472D01*
X038690Y068631D02*
X055700Y068631D01*
X055700Y068789D02*
X038690Y068789D01*
X038690Y068948D02*
X040121Y068948D01*
X040182Y068912D02*
X040477Y068833D01*
X040783Y068833D01*
X041078Y068912D01*
X041342Y069065D01*
X041558Y069281D01*
X041711Y069546D01*
X041790Y069841D01*
X041790Y070146D01*
X041711Y070441D01*
X041558Y070706D01*
X041342Y070922D01*
X041078Y071074D01*
X040783Y071153D01*
X040477Y071153D01*
X040182Y071074D01*
X039918Y070922D01*
X039702Y070706D01*
X039549Y070441D01*
X039470Y070146D01*
X039470Y069841D01*
X039549Y069546D01*
X039702Y069281D01*
X039918Y069065D01*
X040182Y068912D01*
X039876Y069106D02*
X038690Y069106D01*
X038690Y069265D02*
X039718Y069265D01*
X039620Y069423D02*
X038690Y069423D01*
X038690Y069582D02*
X039539Y069582D01*
X039497Y069740D02*
X038690Y069740D01*
X038690Y069899D02*
X039470Y069899D01*
X039470Y070057D02*
X038690Y070057D01*
X038690Y070216D02*
X039489Y070216D01*
X039531Y070374D02*
X038690Y070374D01*
X038690Y070533D02*
X039602Y070533D01*
X039694Y070691D02*
X038690Y070691D01*
X038690Y070850D02*
X039846Y070850D01*
X040068Y071008D02*
X038690Y071008D01*
X038690Y071167D02*
X045670Y071167D01*
X045670Y071325D02*
X038690Y071325D01*
X038690Y071484D02*
X045670Y071484D01*
X045670Y071642D02*
X038690Y071642D01*
X038690Y071801D02*
X045670Y071801D01*
X045670Y071959D02*
X038690Y071959D01*
X038690Y072118D02*
X045670Y072118D01*
X045670Y072276D02*
X038690Y072276D01*
X038690Y072435D02*
X045670Y072435D01*
X045670Y072593D02*
X038690Y072593D01*
X038690Y072752D02*
X045670Y072752D01*
X045670Y072910D02*
X038690Y072910D01*
X038690Y073069D02*
X045670Y073069D01*
X045670Y073227D02*
X038690Y073227D01*
X038690Y073386D02*
X045670Y073386D01*
X045670Y073544D02*
X038690Y073544D01*
X038690Y073703D02*
X045670Y073703D01*
X045670Y073861D02*
X038690Y073861D01*
X038690Y074020D02*
X045670Y074020D01*
X045670Y074178D02*
X038690Y074178D01*
X038690Y074337D02*
X045670Y074337D01*
X045670Y074495D02*
X038690Y074495D01*
X038690Y074654D02*
X045670Y074654D01*
X045670Y074812D02*
X038690Y074812D01*
X038690Y074971D02*
X045670Y074971D01*
X045670Y075129D02*
X038690Y075129D01*
X038690Y075288D02*
X045670Y075288D01*
X045670Y075446D02*
X038690Y075446D01*
X038690Y075605D02*
X045670Y075605D01*
X045670Y075763D02*
X038690Y075763D01*
X038690Y075922D02*
X045670Y075922D01*
X045670Y076080D02*
X038690Y076080D01*
X038690Y076239D02*
X045670Y076239D01*
X045670Y076397D02*
X038690Y076397D01*
X038690Y076556D02*
X045670Y076556D01*
X045670Y076714D02*
X038690Y076714D01*
X038690Y076873D02*
X045670Y076873D01*
X045670Y077031D02*
X038690Y077031D01*
X038690Y077190D02*
X045670Y077190D01*
X045670Y077348D02*
X038690Y077348D01*
X038690Y077507D02*
X045670Y077507D01*
X045670Y077665D02*
X038690Y077665D01*
X038690Y077824D02*
X045670Y077824D01*
X045670Y077982D02*
X038690Y077982D01*
X038690Y078141D02*
X040449Y078141D01*
X040477Y078133D02*
X040783Y078133D01*
X041078Y078212D01*
X041342Y078365D01*
X041558Y078581D01*
X041711Y078846D01*
X041790Y079141D01*
X041790Y079446D01*
X041711Y079741D01*
X041558Y080006D01*
X041342Y080222D01*
X041078Y080374D01*
X040783Y080453D01*
X040477Y080453D01*
X040182Y080374D01*
X039918Y080222D01*
X039702Y080006D01*
X039549Y079741D01*
X039470Y079446D01*
X039470Y079141D01*
X039549Y078846D01*
X039702Y078581D01*
X039918Y078365D01*
X040182Y078212D01*
X040477Y078133D01*
X040811Y078141D02*
X045670Y078141D01*
X045670Y078299D02*
X041229Y078299D01*
X041435Y078458D02*
X045670Y078458D01*
X045670Y078616D02*
X041579Y078616D01*
X041670Y078775D02*
X045670Y078775D01*
X045670Y078933D02*
X041734Y078933D01*
X041777Y079092D02*
X045670Y079092D01*
X045670Y079250D02*
X041790Y079250D01*
X041790Y079409D02*
X045670Y079409D01*
X045670Y079446D02*
X045749Y079741D01*
X045902Y080006D01*
X046118Y080222D01*
X046382Y080374D01*
X046677Y080453D01*
X046983Y080453D01*
X047278Y080374D01*
X047542Y080222D01*
X047758Y080006D01*
X047911Y079741D01*
X047990Y079446D01*
X047990Y069841D01*
X047911Y069546D01*
X047758Y069281D01*
X047542Y069065D01*
X047278Y068912D01*
X046983Y068833D01*
X046677Y068833D01*
X046382Y068912D01*
X046118Y069065D01*
X045902Y069281D01*
X045749Y069546D01*
X045670Y069841D01*
X045670Y079446D01*
X045703Y079567D02*
X041757Y079567D01*
X041715Y079726D02*
X045745Y079726D01*
X045832Y079884D02*
X041628Y079884D01*
X041521Y080043D02*
X045939Y080043D01*
X046098Y080201D02*
X041362Y080201D01*
X041103Y080360D02*
X046357Y080360D01*
X047303Y080360D02*
X049457Y080360D01*
X049482Y080374D02*
X049218Y080222D01*
X049002Y080006D01*
X048849Y079741D01*
X048770Y079446D01*
X048770Y079141D01*
X048849Y078846D01*
X049002Y078581D01*
X049218Y078365D01*
X049482Y078212D01*
X049777Y078133D01*
X050083Y078133D01*
X050378Y078212D01*
X050642Y078365D01*
X050858Y078581D01*
X051011Y078846D01*
X051090Y079141D01*
X051090Y079446D01*
X051011Y079741D01*
X050858Y080006D01*
X050642Y080222D01*
X050378Y080374D01*
X050083Y080453D01*
X049777Y080453D01*
X049482Y080374D01*
X049198Y080201D02*
X047562Y080201D01*
X047721Y080043D02*
X049039Y080043D01*
X048932Y079884D02*
X047828Y079884D01*
X047915Y079726D02*
X048845Y079726D01*
X048803Y079567D02*
X047957Y079567D01*
X047990Y079409D02*
X048770Y079409D01*
X048770Y079250D02*
X047990Y079250D01*
X047990Y079092D02*
X048783Y079092D01*
X048826Y078933D02*
X047990Y078933D01*
X047990Y078775D02*
X048890Y078775D01*
X048981Y078616D02*
X047990Y078616D01*
X047990Y078458D02*
X049125Y078458D01*
X049331Y078299D02*
X047990Y078299D01*
X047990Y078141D02*
X049749Y078141D01*
X050111Y078141D02*
X055700Y078141D01*
X055700Y078299D02*
X050529Y078299D01*
X050735Y078458D02*
X055700Y078458D01*
X055700Y078616D02*
X050879Y078616D01*
X050970Y078775D02*
X055700Y078775D01*
X055700Y078933D02*
X051034Y078933D01*
X051077Y079092D02*
X055700Y079092D01*
X055700Y079250D02*
X051090Y079250D01*
X051090Y079409D02*
X055700Y079409D01*
X055700Y079567D02*
X051057Y079567D01*
X051015Y079726D02*
X055700Y079726D01*
X055700Y079884D02*
X050928Y079884D01*
X050821Y080043D02*
X055700Y080043D01*
X055700Y080201D02*
X050662Y080201D01*
X050403Y080360D02*
X055700Y080360D01*
X055700Y080518D02*
X038690Y080518D01*
X038690Y080360D02*
X040157Y080360D01*
X039898Y080201D02*
X038690Y080201D01*
X038690Y080043D02*
X039739Y080043D01*
X039632Y079884D02*
X038690Y079884D01*
X038690Y079726D02*
X039545Y079726D01*
X039503Y079567D02*
X038690Y079567D01*
X038690Y079409D02*
X039470Y079409D01*
X039470Y079250D02*
X038690Y079250D01*
X038690Y079092D02*
X039483Y079092D01*
X039526Y078933D02*
X038690Y078933D01*
X038690Y078775D02*
X039590Y078775D01*
X039681Y078616D02*
X038690Y078616D01*
X038690Y078458D02*
X039825Y078458D01*
X040031Y078299D02*
X038690Y078299D01*
X038690Y080677D02*
X055700Y080677D01*
X055700Y080835D02*
X038690Y080835D01*
X038690Y080994D02*
X055700Y080994D01*
X055700Y081152D02*
X038690Y081152D01*
X038690Y081311D02*
X055700Y081311D01*
X055700Y081469D02*
X038690Y081469D01*
X038690Y081628D02*
X055700Y081628D01*
X055700Y081786D02*
X038690Y081786D01*
X038690Y081945D02*
X055700Y081945D01*
X055700Y082103D02*
X038690Y082103D01*
X038690Y082262D02*
X055700Y082262D01*
X055700Y082420D02*
X038690Y082420D01*
X038690Y082579D02*
X055700Y082579D01*
X055700Y082737D02*
X038690Y082737D01*
X038690Y082896D02*
X055700Y082896D01*
X055700Y083054D02*
X038690Y083054D01*
X038690Y083213D02*
X055700Y083213D01*
X055700Y083371D02*
X038690Y083371D01*
X038690Y083530D02*
X055700Y083530D01*
X055700Y083688D02*
X038690Y083688D01*
X038690Y083847D02*
X055700Y083847D01*
X055700Y084005D02*
X038690Y084005D01*
X038690Y084164D02*
X055700Y084164D01*
X055700Y084322D02*
X038690Y084322D01*
X038690Y084481D02*
X055700Y084481D01*
X055700Y084639D02*
X038690Y084639D01*
X038690Y084798D02*
X055700Y084798D01*
X055700Y084956D02*
X038690Y084956D01*
X038690Y085115D02*
X055700Y085115D01*
X055700Y085273D02*
X038690Y085273D01*
X038690Y085432D02*
X055700Y085432D01*
X055700Y085590D02*
X038690Y085590D01*
X038690Y085749D02*
X055700Y085749D01*
X055700Y085907D02*
X038690Y085907D01*
X038690Y086066D02*
X055700Y086066D01*
X055700Y086224D02*
X038690Y086224D01*
X038690Y086383D02*
X055700Y086383D01*
X055700Y086541D02*
X038690Y086541D01*
X038690Y086700D02*
X055700Y086700D01*
X055700Y086858D02*
X038690Y086858D01*
X038690Y087017D02*
X055700Y087017D01*
X055700Y087175D02*
X038690Y087175D01*
X038690Y087334D02*
X055700Y087334D01*
X055700Y087492D02*
X050303Y087492D01*
X050378Y087512D02*
X050642Y087665D01*
X050858Y087881D01*
X051011Y088146D01*
X051090Y088441D01*
X051090Y088746D01*
X051011Y089041D01*
X050858Y089306D01*
X050642Y089522D01*
X050378Y089674D01*
X050083Y089753D01*
X049777Y089753D01*
X049482Y089674D01*
X049218Y089522D01*
X049002Y089306D01*
X048849Y089041D01*
X048770Y088746D01*
X048770Y088441D01*
X048849Y088146D01*
X049002Y087881D01*
X049218Y087665D01*
X049482Y087512D01*
X049777Y087433D01*
X050083Y087433D01*
X050378Y087512D01*
X050618Y087651D02*
X055700Y087651D01*
X055700Y087809D02*
X050787Y087809D01*
X050908Y087968D02*
X055700Y087968D01*
X055700Y088126D02*
X051000Y088126D01*
X051048Y088285D02*
X055700Y088285D01*
X055700Y088443D02*
X051090Y088443D01*
X051090Y088602D02*
X055700Y088602D01*
X055700Y088760D02*
X051086Y088760D01*
X051044Y088919D02*
X055700Y088919D01*
X055700Y089077D02*
X050990Y089077D01*
X050898Y089236D02*
X055700Y089236D01*
X055700Y089394D02*
X050769Y089394D01*
X050588Y089553D02*
X055700Y089553D01*
X055700Y089711D02*
X050239Y089711D01*
X049621Y089711D02*
X047139Y089711D01*
X047278Y089674D02*
X046983Y089753D01*
X046677Y089753D01*
X046382Y089674D01*
X046118Y089522D01*
X045902Y089306D01*
X045749Y089041D01*
X045670Y088746D01*
X045670Y088441D01*
X045749Y088146D01*
X045902Y087881D01*
X046118Y087665D01*
X046382Y087512D01*
X046677Y087433D01*
X046983Y087433D01*
X047278Y087512D01*
X047542Y087665D01*
X047758Y087881D01*
X047911Y088146D01*
X047990Y088441D01*
X047990Y088746D01*
X047911Y089041D01*
X047758Y089306D01*
X047542Y089522D01*
X047278Y089674D01*
X047488Y089553D02*
X049272Y089553D01*
X049091Y089394D02*
X047669Y089394D01*
X047798Y089236D02*
X048962Y089236D01*
X048870Y089077D02*
X047890Y089077D01*
X047944Y088919D02*
X048816Y088919D01*
X048774Y088760D02*
X047986Y088760D01*
X047990Y088602D02*
X048770Y088602D01*
X048770Y088443D02*
X047990Y088443D01*
X047948Y088285D02*
X048812Y088285D01*
X048860Y088126D02*
X047900Y088126D01*
X047808Y087968D02*
X048952Y087968D01*
X049073Y087809D02*
X047687Y087809D01*
X047518Y087651D02*
X049242Y087651D01*
X049557Y087492D02*
X047203Y087492D01*
X046457Y087492D02*
X041003Y087492D01*
X041078Y087512D02*
X041342Y087665D01*
X041558Y087881D01*
X041711Y088146D01*
X041790Y088441D01*
X041790Y088746D01*
X041711Y089041D01*
X041558Y089306D01*
X041342Y089522D01*
X041078Y089674D01*
X040783Y089753D01*
X040477Y089753D01*
X040182Y089674D01*
X039918Y089522D01*
X039702Y089306D01*
X039549Y089041D01*
X039470Y088746D01*
X039470Y088441D01*
X039549Y088146D01*
X039702Y087881D01*
X039918Y087665D01*
X040182Y087512D01*
X040477Y087433D01*
X040783Y087433D01*
X041078Y087512D01*
X041318Y087651D02*
X046142Y087651D01*
X045973Y087809D02*
X041487Y087809D01*
X041608Y087968D02*
X045852Y087968D01*
X045760Y088126D02*
X041700Y088126D01*
X041748Y088285D02*
X045712Y088285D01*
X045670Y088443D02*
X041790Y088443D01*
X041790Y088602D02*
X045670Y088602D01*
X045674Y088760D02*
X041786Y088760D01*
X041744Y088919D02*
X045716Y088919D01*
X045770Y089077D02*
X041690Y089077D01*
X041598Y089236D02*
X045862Y089236D01*
X045991Y089394D02*
X041469Y089394D01*
X041288Y089553D02*
X046172Y089553D01*
X046521Y089711D02*
X040939Y089711D01*
X040321Y089711D02*
X037839Y089711D01*
X038188Y089553D02*
X039972Y089553D01*
X039791Y089394D02*
X038369Y089394D01*
X038498Y089236D02*
X039662Y089236D01*
X039570Y089077D02*
X038590Y089077D01*
X038644Y088919D02*
X039516Y088919D01*
X039474Y088760D02*
X038686Y088760D01*
X038690Y088602D02*
X039470Y088602D01*
X039470Y088443D02*
X038690Y088443D01*
X038690Y088285D02*
X039512Y088285D01*
X039560Y088126D02*
X038690Y088126D01*
X038690Y087968D02*
X039652Y087968D01*
X039773Y087809D02*
X038690Y087809D01*
X038690Y087651D02*
X039942Y087651D01*
X040257Y087492D02*
X038690Y087492D01*
X037221Y089711D02*
X030039Y089711D01*
X030058Y089731D02*
X030211Y089996D01*
X030290Y090291D01*
X030290Y090596D01*
X030211Y090891D01*
X030058Y091156D01*
X029842Y091372D01*
X029578Y091524D01*
X029283Y091603D01*
X028977Y091603D01*
X028682Y091524D01*
X028418Y091372D01*
X028202Y091156D01*
X028049Y090891D01*
X027970Y090596D01*
X027970Y090291D01*
X028049Y089996D01*
X028202Y089731D01*
X028418Y089515D01*
X028682Y089362D01*
X028977Y089283D01*
X029283Y089283D01*
X029578Y089362D01*
X029842Y089515D01*
X030058Y089731D01*
X030138Y089870D02*
X055700Y089870D01*
X055700Y090028D02*
X030220Y090028D01*
X030262Y090187D02*
X055700Y090187D01*
X055700Y090345D02*
X030290Y090345D01*
X030290Y090504D02*
X055700Y090504D01*
X055700Y090662D02*
X030272Y090662D01*
X030230Y090821D02*
X055700Y090821D01*
X055700Y090979D02*
X030160Y090979D01*
X030068Y091138D02*
X055700Y091138D01*
X055700Y091296D02*
X029917Y091296D01*
X029698Y091455D02*
X055700Y091455D01*
X055700Y091613D02*
X024090Y091613D01*
X024090Y091455D02*
X028562Y091455D01*
X028343Y091296D02*
X024090Y091296D01*
X024090Y091138D02*
X028192Y091138D01*
X028100Y090979D02*
X024090Y090979D01*
X024090Y090821D02*
X028030Y090821D01*
X027988Y090662D02*
X024090Y090662D01*
X024090Y090504D02*
X027970Y090504D01*
X027970Y090345D02*
X024090Y090345D01*
X024062Y090187D02*
X027998Y090187D01*
X028040Y090028D02*
X024020Y090028D01*
X023938Y089870D02*
X028122Y089870D01*
X028221Y089711D02*
X023839Y089711D01*
X023680Y089553D02*
X028380Y089553D01*
X028627Y089394D02*
X023433Y089394D01*
X022427Y089394D02*
X021185Y089394D01*
X021185Y089236D02*
X036562Y089236D01*
X036470Y089077D02*
X021185Y089077D01*
X021185Y088919D02*
X036416Y088919D01*
X036374Y088760D02*
X021185Y088760D01*
X021185Y088602D02*
X036370Y088602D01*
X036370Y088443D02*
X021185Y088443D01*
X021185Y088285D02*
X036370Y088285D01*
X036370Y088126D02*
X021185Y088126D01*
X021185Y087968D02*
X036370Y087968D01*
X036370Y087809D02*
X021185Y087809D01*
X021185Y087651D02*
X036370Y087651D01*
X036370Y087492D02*
X021185Y087492D01*
X021185Y087334D02*
X036370Y087334D01*
X036370Y087175D02*
X021185Y087175D01*
X021185Y087017D02*
X036370Y087017D01*
X036370Y086858D02*
X021185Y086858D01*
X021185Y086700D02*
X036370Y086700D01*
X036370Y086541D02*
X021185Y086541D01*
X021185Y086383D02*
X036370Y086383D01*
X036370Y086224D02*
X021185Y086224D01*
X021185Y086066D02*
X036370Y086066D01*
X036370Y085907D02*
X021185Y085907D01*
X021185Y085749D02*
X036370Y085749D01*
X036370Y085590D02*
X021185Y085590D01*
X021185Y085432D02*
X036370Y085432D01*
X036370Y085273D02*
X029666Y085273D01*
X029578Y085324D02*
X029283Y085403D01*
X028977Y085403D01*
X028682Y085324D01*
X028418Y085172D01*
X028202Y084956D01*
X028049Y084691D01*
X027970Y084396D01*
X027970Y084091D01*
X028049Y083796D01*
X028202Y083531D01*
X028418Y083315D01*
X028682Y083162D01*
X028977Y083083D01*
X029283Y083083D01*
X029578Y083162D01*
X029842Y083315D01*
X030058Y083531D01*
X030211Y083796D01*
X030290Y084091D01*
X030290Y084396D01*
X030211Y084691D01*
X030058Y084956D01*
X029842Y085172D01*
X029578Y085324D01*
X029899Y085115D02*
X036370Y085115D01*
X036370Y084956D02*
X030057Y084956D01*
X030149Y084798D02*
X036370Y084798D01*
X036370Y084639D02*
X030225Y084639D01*
X030267Y084481D02*
X036370Y084481D01*
X036370Y084322D02*
X030290Y084322D01*
X030290Y084164D02*
X036370Y084164D01*
X036370Y084005D02*
X030267Y084005D01*
X030225Y083847D02*
X036370Y083847D01*
X036370Y083688D02*
X030149Y083688D01*
X030057Y083530D02*
X036370Y083530D01*
X036370Y083371D02*
X029899Y083371D01*
X029665Y083213D02*
X036370Y083213D01*
X036370Y083054D02*
X023382Y083054D01*
X023223Y082896D02*
X036370Y082896D01*
X036370Y082737D02*
X023065Y082737D01*
X022906Y082579D02*
X036370Y082579D01*
X036370Y082420D02*
X022748Y082420D01*
X022589Y082262D02*
X036370Y082262D01*
X036370Y082103D02*
X022431Y082103D01*
X022272Y081945D02*
X036370Y081945D01*
X036370Y081786D02*
X022114Y081786D01*
X021955Y081628D02*
X036370Y081628D01*
X036370Y081469D02*
X021797Y081469D01*
X021638Y081311D02*
X036370Y081311D01*
X036370Y081152D02*
X021480Y081152D01*
X021321Y080994D02*
X036370Y080994D01*
X036370Y080835D02*
X021240Y080835D01*
X021240Y080677D02*
X036370Y080677D01*
X036370Y080518D02*
X021240Y080518D01*
X021240Y080360D02*
X036370Y080360D01*
X036370Y080201D02*
X021240Y080201D01*
X021240Y080043D02*
X036370Y080043D01*
X036370Y079884D02*
X021240Y079884D01*
X021240Y079726D02*
X036370Y079726D01*
X036370Y079567D02*
X021240Y079567D01*
X021240Y079409D02*
X036370Y079409D01*
X036370Y072910D02*
X029602Y072910D01*
X029862Y072752D02*
X036370Y072752D01*
X036370Y072593D02*
X030020Y072593D01*
X030128Y072435D02*
X036370Y072435D01*
X036370Y072276D02*
X030215Y072276D01*
X030257Y072118D02*
X036370Y072118D01*
X036370Y071959D02*
X030290Y071959D01*
X030290Y071801D02*
X036370Y071801D01*
X036370Y071642D02*
X030277Y071642D01*
X030235Y071484D02*
X036370Y071484D01*
X036370Y071325D02*
X030170Y071325D01*
X030079Y071167D02*
X036370Y071167D01*
X036370Y071008D02*
X029936Y071008D01*
X029729Y070850D02*
X036370Y070850D01*
X041192Y071008D02*
X045670Y071008D01*
X045670Y070850D02*
X041414Y070850D01*
X041566Y070691D02*
X045670Y070691D01*
X045670Y070533D02*
X041658Y070533D01*
X041729Y070374D02*
X045670Y070374D01*
X045670Y070216D02*
X041771Y070216D01*
X041790Y070057D02*
X045670Y070057D01*
X045670Y069899D02*
X041790Y069899D01*
X041763Y069740D02*
X045697Y069740D01*
X045739Y069582D02*
X041721Y069582D01*
X041640Y069423D02*
X045820Y069423D01*
X045918Y069265D02*
X041542Y069265D01*
X041384Y069106D02*
X046076Y069106D01*
X046321Y068948D02*
X041139Y068948D01*
X047339Y068948D02*
X049421Y068948D01*
X049482Y068912D02*
X049777Y068833D01*
X050083Y068833D01*
X050378Y068912D01*
X050642Y069065D01*
X050858Y069281D01*
X051011Y069546D01*
X051090Y069841D01*
X051090Y070146D01*
X051011Y070441D01*
X050858Y070706D01*
X050642Y070922D01*
X050378Y071074D01*
X050083Y071153D01*
X049777Y071153D01*
X049482Y071074D01*
X049218Y070922D01*
X049002Y070706D01*
X048849Y070441D01*
X048770Y070146D01*
X048770Y069841D01*
X048849Y069546D01*
X049002Y069281D01*
X049218Y069065D01*
X049482Y068912D01*
X049176Y069106D02*
X047584Y069106D01*
X047742Y069265D02*
X049018Y069265D01*
X048920Y069423D02*
X047840Y069423D01*
X047921Y069582D02*
X048839Y069582D01*
X048797Y069740D02*
X047963Y069740D01*
X047990Y069899D02*
X048770Y069899D01*
X048770Y070057D02*
X047990Y070057D01*
X047990Y070216D02*
X048789Y070216D01*
X048831Y070374D02*
X047990Y070374D01*
X047990Y070533D02*
X048902Y070533D01*
X048994Y070691D02*
X047990Y070691D01*
X047990Y070850D02*
X049146Y070850D01*
X049368Y071008D02*
X047990Y071008D01*
X047990Y071167D02*
X055700Y071167D01*
X055700Y071325D02*
X047990Y071325D01*
X047990Y071484D02*
X055700Y071484D01*
X055700Y071642D02*
X047990Y071642D01*
X047990Y071801D02*
X055700Y071801D01*
X055700Y071959D02*
X047990Y071959D01*
X047990Y072118D02*
X055700Y072118D01*
X055700Y072276D02*
X047990Y072276D01*
X047990Y072435D02*
X055700Y072435D01*
X055700Y072593D02*
X047990Y072593D01*
X047990Y072752D02*
X055700Y072752D01*
X055700Y072910D02*
X047990Y072910D01*
X047990Y073069D02*
X055700Y073069D01*
X055700Y073227D02*
X047990Y073227D01*
X047990Y073386D02*
X055700Y073386D01*
X055700Y073544D02*
X047990Y073544D01*
X047990Y073703D02*
X055700Y073703D01*
X055700Y073861D02*
X047990Y073861D01*
X047990Y074020D02*
X055700Y074020D01*
X055700Y074178D02*
X047990Y074178D01*
X047990Y074337D02*
X055700Y074337D01*
X055700Y074495D02*
X047990Y074495D01*
X047990Y074654D02*
X055700Y074654D01*
X055700Y074812D02*
X047990Y074812D01*
X047990Y074971D02*
X055700Y074971D01*
X055700Y075129D02*
X047990Y075129D01*
X047990Y075288D02*
X055700Y075288D01*
X055700Y075446D02*
X047990Y075446D01*
X047990Y075605D02*
X055700Y075605D01*
X055700Y075763D02*
X047990Y075763D01*
X047990Y075922D02*
X055700Y075922D01*
X055700Y076080D02*
X047990Y076080D01*
X047990Y076239D02*
X055700Y076239D01*
X055700Y076397D02*
X047990Y076397D01*
X047990Y076556D02*
X055700Y076556D01*
X055700Y076714D02*
X047990Y076714D01*
X047990Y076873D02*
X055700Y076873D01*
X055700Y077031D02*
X047990Y077031D01*
X047990Y077190D02*
X055700Y077190D01*
X055700Y077348D02*
X047990Y077348D01*
X047990Y077507D02*
X055700Y077507D01*
X055700Y077665D02*
X047990Y077665D01*
X047990Y077824D02*
X055700Y077824D01*
X055700Y077982D02*
X047990Y077982D01*
X050492Y071008D02*
X055700Y071008D01*
X055700Y070850D02*
X050714Y070850D01*
X050866Y070691D02*
X055700Y070691D01*
X055700Y070533D02*
X050958Y070533D01*
X051029Y070374D02*
X055700Y070374D01*
X055700Y070216D02*
X051071Y070216D01*
X051090Y070057D02*
X055700Y070057D01*
X055700Y069899D02*
X051090Y069899D01*
X051063Y069740D02*
X055700Y069740D01*
X055700Y069582D02*
X051021Y069582D01*
X050940Y069423D02*
X055700Y069423D01*
X055700Y069265D02*
X050842Y069265D01*
X050684Y069106D02*
X055700Y069106D01*
X055700Y068948D02*
X050439Y068948D01*
X050083Y061853D02*
X049777Y061853D01*
X049482Y061774D01*
X049218Y061622D01*
X049002Y061406D01*
X048849Y061141D01*
X048770Y060846D01*
X048770Y060541D01*
X048849Y060246D01*
X049002Y059981D01*
X049218Y059765D01*
X049482Y059612D01*
X049777Y059533D01*
X050083Y059533D01*
X050378Y059612D01*
X050642Y059765D01*
X050858Y059981D01*
X051011Y060246D01*
X051090Y060541D01*
X051090Y060846D01*
X051011Y061141D01*
X050858Y061406D01*
X050642Y061622D01*
X050378Y061774D01*
X050083Y061853D01*
X050224Y061815D02*
X055700Y061815D01*
X055700Y061657D02*
X050581Y061657D01*
X050765Y061498D02*
X055700Y061498D01*
X055700Y061340D02*
X050896Y061340D01*
X050988Y061181D02*
X055700Y061181D01*
X055700Y061023D02*
X051043Y061023D01*
X051085Y060864D02*
X055700Y060864D01*
X055700Y060706D02*
X051090Y060706D01*
X051090Y060547D02*
X055700Y060547D01*
X055700Y060389D02*
X051049Y060389D01*
X051002Y060230D02*
X055700Y060230D01*
X055700Y060072D02*
X050911Y060072D01*
X050791Y059913D02*
X055700Y059913D01*
X055700Y059755D02*
X050625Y059755D01*
X050318Y059596D02*
X055700Y059596D01*
X055700Y059438D02*
X047990Y059438D01*
X047990Y059596D02*
X049542Y059596D01*
X049235Y059755D02*
X047990Y059755D01*
X047990Y059913D02*
X049069Y059913D01*
X048949Y060072D02*
X047990Y060072D01*
X047990Y060230D02*
X048858Y060230D01*
X048811Y060389D02*
X047990Y060389D01*
X047990Y060547D02*
X048770Y060547D01*
X048770Y060706D02*
X047990Y060706D01*
X047985Y060864D02*
X048775Y060864D01*
X048817Y061023D02*
X047943Y061023D01*
X047888Y061181D02*
X048872Y061181D01*
X048964Y061340D02*
X047796Y061340D01*
X047665Y061498D02*
X049095Y061498D01*
X049279Y061657D02*
X047481Y061657D01*
X047124Y061815D02*
X049636Y061815D01*
X047990Y059279D02*
X055700Y059279D01*
X055700Y059121D02*
X047990Y059121D01*
X047990Y058962D02*
X055700Y058962D01*
X055700Y058804D02*
X047990Y058804D01*
X047990Y058645D02*
X055700Y058645D01*
X055700Y058487D02*
X047990Y058487D01*
X047990Y058328D02*
X055700Y058328D01*
X055700Y058170D02*
X047990Y058170D01*
X047990Y058011D02*
X055700Y058011D01*
X055700Y057853D02*
X047990Y057853D01*
X047990Y057694D02*
X055700Y057694D01*
X055700Y057536D02*
X047990Y057536D01*
X047990Y057377D02*
X055700Y057377D01*
X055700Y057219D02*
X047990Y057219D01*
X047990Y057060D02*
X055700Y057060D01*
X055700Y056902D02*
X047990Y056902D01*
X047990Y056743D02*
X055700Y056743D01*
X055700Y056585D02*
X047990Y056585D01*
X047990Y056426D02*
X055700Y056426D01*
X055700Y056268D02*
X047990Y056268D01*
X047990Y056109D02*
X055700Y056109D01*
X055700Y055951D02*
X047990Y055951D01*
X047990Y055792D02*
X055700Y055792D01*
X055700Y055634D02*
X047990Y055634D01*
X047990Y055475D02*
X055700Y055475D01*
X055700Y055317D02*
X047990Y055317D01*
X047990Y055158D02*
X055700Y055158D01*
X055700Y055000D02*
X047990Y055000D01*
X047990Y054841D02*
X055700Y054841D01*
X055700Y054683D02*
X047990Y054683D01*
X047990Y054524D02*
X055700Y054524D01*
X055700Y054366D02*
X047990Y054366D01*
X047990Y054207D02*
X053259Y054207D01*
X053167Y054183D02*
X052863Y054008D01*
X052616Y053760D01*
X052441Y053457D01*
X052350Y053118D01*
X052350Y052768D01*
X052441Y052430D01*
X052616Y052127D01*
X052863Y051879D01*
X053167Y051704D01*
X053505Y051613D01*
X053855Y051613D01*
X054193Y051704D01*
X054497Y051879D01*
X054744Y052127D01*
X054919Y052430D01*
X055010Y052768D01*
X055010Y053118D01*
X054919Y053457D01*
X054744Y053760D01*
X054497Y054008D01*
X054193Y054183D01*
X053855Y054273D01*
X053505Y054273D01*
X053167Y054183D01*
X052935Y054049D02*
X047990Y054049D01*
X047990Y053890D02*
X052746Y053890D01*
X052600Y053732D02*
X047990Y053732D01*
X047990Y053573D02*
X052508Y053573D01*
X052429Y053415D02*
X047990Y053415D01*
X047990Y053256D02*
X052387Y053256D01*
X052350Y053098D02*
X047990Y053098D01*
X047990Y052939D02*
X052350Y052939D01*
X052350Y052781D02*
X047990Y052781D01*
X047990Y052622D02*
X052389Y052622D01*
X052432Y052464D02*
X050396Y052464D01*
X050378Y052474D02*
X050083Y052553D01*
X049777Y052553D01*
X049482Y052474D01*
X049218Y052322D01*
X049002Y052106D01*
X048849Y051841D01*
X048770Y051546D01*
X048770Y051241D01*
X048849Y050946D01*
X049002Y050681D01*
X049218Y050465D01*
X049482Y050312D01*
X049777Y050233D01*
X050083Y050233D01*
X050378Y050312D01*
X050642Y050465D01*
X050858Y050681D01*
X051011Y050946D01*
X051090Y051241D01*
X051090Y051546D01*
X051011Y051841D01*
X050858Y052106D01*
X050642Y052322D01*
X050378Y052474D01*
X050658Y052305D02*
X052513Y052305D01*
X052604Y052147D02*
X050817Y052147D01*
X050926Y051988D02*
X052754Y051988D01*
X052949Y051830D02*
X051014Y051830D01*
X051056Y051671D02*
X053288Y051671D01*
X054072Y051671D02*
X055700Y051671D01*
X055700Y051513D02*
X051090Y051513D01*
X051090Y051354D02*
X055700Y051354D01*
X055700Y051196D02*
X051078Y051196D01*
X051036Y051037D02*
X055700Y051037D01*
X055700Y050879D02*
X050972Y050879D01*
X050881Y050720D02*
X055700Y050720D01*
X055700Y050562D02*
X050739Y050562D01*
X050535Y050403D02*
X055700Y050403D01*
X055700Y050245D02*
X050126Y050245D01*
X049734Y050245D02*
X047522Y050245D01*
X047681Y050403D02*
X049325Y050403D01*
X049121Y050562D02*
X047805Y050562D01*
X047896Y050720D02*
X048979Y050720D01*
X048888Y050879D02*
X047947Y050879D01*
X047989Y051037D02*
X048824Y051037D01*
X048782Y051196D02*
X047990Y051196D01*
X047990Y051354D02*
X048770Y051354D01*
X048770Y051513D02*
X047990Y051513D01*
X047990Y051671D02*
X048804Y051671D01*
X048846Y051830D02*
X047990Y051830D01*
X047990Y051988D02*
X048934Y051988D01*
X049043Y052147D02*
X047990Y052147D01*
X047990Y052305D02*
X049202Y052305D01*
X049464Y052464D02*
X047990Y052464D01*
X047364Y050086D02*
X055700Y050086D01*
X055700Y049928D02*
X047205Y049928D01*
X047047Y049769D02*
X055700Y049769D01*
X055700Y049611D02*
X046888Y049611D01*
X046730Y049452D02*
X055700Y049452D01*
X055700Y049294D02*
X046571Y049294D01*
X046413Y049135D02*
X055700Y049135D01*
X055700Y048977D02*
X046254Y048977D01*
X046096Y048818D02*
X055700Y048818D01*
X055700Y048660D02*
X045937Y048660D01*
X045779Y048501D02*
X055700Y048501D01*
X055700Y048343D02*
X045620Y048343D01*
X045462Y048184D02*
X055700Y048184D01*
X055700Y048026D02*
X045303Y048026D01*
X045145Y047867D02*
X055700Y047867D01*
X055700Y047709D02*
X044945Y047709D01*
X044546Y047550D02*
X055700Y047550D01*
X055700Y047392D02*
X038690Y047392D01*
X038690Y047233D02*
X055700Y047233D01*
X055700Y047075D02*
X038690Y047075D01*
X038690Y046916D02*
X055700Y046916D01*
X055700Y046758D02*
X038690Y046758D01*
X038690Y046599D02*
X055700Y046599D01*
X055700Y046441D02*
X038690Y046441D01*
X038690Y046282D02*
X055700Y046282D01*
X055700Y046124D02*
X038690Y046124D01*
X038690Y045965D02*
X055700Y045965D01*
X055700Y045807D02*
X038690Y045807D01*
X038690Y045648D02*
X055700Y045648D01*
X055700Y045490D02*
X038690Y045490D01*
X038690Y045331D02*
X055700Y045331D01*
X055700Y045173D02*
X038690Y045173D01*
X038690Y045014D02*
X055700Y045014D01*
X055700Y044856D02*
X038690Y044856D01*
X038690Y044697D02*
X055700Y044697D01*
X055700Y044539D02*
X038690Y044539D01*
X038690Y044380D02*
X055700Y044380D01*
X055700Y044222D02*
X038690Y044222D01*
X038690Y044063D02*
X055700Y044063D01*
X055700Y043905D02*
X038690Y043905D01*
X038690Y043746D02*
X055700Y043746D01*
X055700Y043588D02*
X038690Y043588D01*
X038690Y043429D02*
X055700Y043429D01*
X055700Y043271D02*
X038690Y043271D01*
X038690Y043112D02*
X040075Y043112D01*
X040182Y043174D02*
X039918Y043022D01*
X039702Y042806D01*
X039549Y042541D01*
X039470Y042246D01*
X039470Y041941D01*
X039549Y041646D01*
X039702Y041381D01*
X039918Y041165D01*
X040182Y041012D01*
X040477Y040933D01*
X040783Y040933D01*
X041078Y041012D01*
X041342Y041165D01*
X041558Y041381D01*
X041711Y041646D01*
X041790Y041941D01*
X041790Y042246D01*
X041711Y042541D01*
X041558Y042806D01*
X041342Y043022D01*
X041078Y043174D01*
X040783Y043253D01*
X040477Y043253D01*
X040182Y043174D01*
X039850Y042954D02*
X038690Y042954D01*
X038690Y042795D02*
X039696Y042795D01*
X039604Y042637D02*
X038690Y042637D01*
X038690Y042478D02*
X039532Y042478D01*
X039490Y042320D02*
X038690Y042320D01*
X038690Y042161D02*
X039470Y042161D01*
X039470Y042003D02*
X038690Y042003D01*
X038664Y041844D02*
X039496Y041844D01*
X039538Y041686D02*
X038622Y041686D01*
X038543Y041527D02*
X039617Y041527D01*
X039714Y041369D02*
X038446Y041369D01*
X038288Y041210D02*
X039872Y041210D01*
X040114Y041052D02*
X038046Y041052D01*
X041146Y041052D02*
X045670Y041052D01*
X045670Y041210D02*
X041388Y041210D01*
X041546Y041369D02*
X045670Y041369D01*
X045670Y041527D02*
X041643Y041527D01*
X041722Y041686D02*
X045670Y041686D01*
X045670Y041844D02*
X041764Y041844D01*
X041790Y042003D02*
X045670Y042003D01*
X045670Y042161D02*
X041790Y042161D01*
X041770Y042320D02*
X045690Y042320D01*
X045732Y042478D02*
X041728Y042478D01*
X041656Y042637D02*
X045804Y042637D01*
X045896Y042795D02*
X041564Y042795D01*
X041410Y042954D02*
X046050Y042954D01*
X046275Y043112D02*
X041185Y043112D01*
X038690Y049928D02*
X043924Y049928D01*
X044083Y050086D02*
X038690Y050086D01*
X047385Y043112D02*
X049375Y043112D01*
X049482Y043174D02*
X049218Y043022D01*
X049002Y042806D01*
X048849Y042541D01*
X048770Y042246D01*
X048770Y041941D01*
X048849Y041646D01*
X049002Y041381D01*
X049218Y041165D01*
X049482Y041012D01*
X049777Y040933D01*
X050083Y040933D01*
X050378Y041012D01*
X050642Y041165D01*
X050858Y041381D01*
X051011Y041646D01*
X051090Y041941D01*
X051090Y042246D01*
X051011Y042541D01*
X050858Y042806D01*
X050642Y043022D01*
X050378Y043174D01*
X050083Y043253D01*
X049777Y043253D01*
X049482Y043174D01*
X049150Y042954D02*
X047610Y042954D01*
X047764Y042795D02*
X048996Y042795D01*
X048904Y042637D02*
X047856Y042637D01*
X047928Y042478D02*
X048832Y042478D01*
X048790Y042320D02*
X047970Y042320D01*
X047990Y042161D02*
X048770Y042161D01*
X048770Y042003D02*
X047990Y042003D01*
X047990Y041844D02*
X048796Y041844D01*
X048838Y041686D02*
X047990Y041686D01*
X047990Y041527D02*
X048917Y041527D01*
X049014Y041369D02*
X047990Y041369D01*
X047990Y041210D02*
X049172Y041210D01*
X049414Y041052D02*
X047990Y041052D01*
X047990Y040893D02*
X055700Y040893D01*
X055700Y040735D02*
X047990Y040735D01*
X047990Y040576D02*
X055700Y040576D01*
X055700Y040418D02*
X047990Y040418D01*
X047990Y040259D02*
X055700Y040259D01*
X055700Y040101D02*
X047990Y040101D01*
X047990Y039942D02*
X055700Y039942D01*
X055700Y039784D02*
X047990Y039784D01*
X047990Y039625D02*
X055700Y039625D01*
X055700Y039467D02*
X047990Y039467D01*
X047990Y039308D02*
X055700Y039308D01*
X055700Y039150D02*
X047990Y039150D01*
X047990Y038991D02*
X055700Y038991D01*
X055700Y038833D02*
X047990Y038833D01*
X047990Y038674D02*
X055700Y038674D01*
X055700Y038516D02*
X047990Y038516D01*
X047990Y038357D02*
X055700Y038357D01*
X055700Y038199D02*
X047990Y038199D01*
X047990Y038040D02*
X055700Y038040D01*
X055700Y037882D02*
X047990Y037882D01*
X047990Y037723D02*
X055700Y037723D01*
X055700Y037565D02*
X047990Y037565D01*
X047990Y037406D02*
X055700Y037406D01*
X055700Y037248D02*
X047990Y037248D01*
X047990Y037089D02*
X055700Y037089D01*
X055700Y036931D02*
X047990Y036931D01*
X047990Y036772D02*
X055700Y036772D01*
X055700Y036614D02*
X047990Y036614D01*
X047990Y036455D02*
X055700Y036455D01*
X055700Y036297D02*
X047990Y036297D01*
X047990Y036138D02*
X055700Y036138D01*
X055700Y035980D02*
X047990Y035980D01*
X047990Y035821D02*
X055700Y035821D01*
X055700Y035663D02*
X047990Y035663D01*
X047990Y035504D02*
X055700Y035504D01*
X055700Y035346D02*
X047990Y035346D01*
X047990Y035187D02*
X055700Y035187D01*
X055700Y035029D02*
X047990Y035029D01*
X047990Y034870D02*
X055700Y034870D01*
X055700Y034712D02*
X047990Y034712D01*
X047990Y034553D02*
X055700Y034553D01*
X055700Y034395D02*
X047990Y034395D01*
X047990Y034236D02*
X055700Y034236D01*
X055700Y034078D02*
X047990Y034078D01*
X045670Y035980D02*
X009660Y035980D01*
X009660Y036138D02*
X045670Y036138D01*
X045670Y036297D02*
X009660Y036297D01*
X009660Y036455D02*
X045670Y036455D01*
X050446Y041052D02*
X055700Y041052D01*
X055700Y041210D02*
X050688Y041210D01*
X050846Y041369D02*
X055700Y041369D01*
X055700Y041527D02*
X050943Y041527D01*
X051022Y041686D02*
X055700Y041686D01*
X055700Y041844D02*
X051064Y041844D01*
X051090Y042003D02*
X055700Y042003D01*
X055700Y042161D02*
X051090Y042161D01*
X051070Y042320D02*
X055700Y042320D01*
X055700Y042478D02*
X051028Y042478D01*
X050956Y042637D02*
X055700Y042637D01*
X055700Y042795D02*
X050864Y042795D01*
X050710Y042954D02*
X055700Y042954D01*
X055700Y043112D02*
X050485Y043112D01*
X054411Y051830D02*
X055700Y051830D01*
X055700Y051988D02*
X054606Y051988D01*
X054756Y052147D02*
X055700Y052147D01*
X055700Y052305D02*
X054847Y052305D01*
X054928Y052464D02*
X055700Y052464D01*
X055700Y052622D02*
X054971Y052622D01*
X055010Y052781D02*
X055700Y052781D01*
X055700Y052939D02*
X055010Y052939D01*
X055010Y053098D02*
X055700Y053098D01*
X055700Y053256D02*
X054973Y053256D01*
X054931Y053415D02*
X055700Y053415D01*
X055700Y053573D02*
X054852Y053573D01*
X054760Y053732D02*
X055700Y053732D01*
X055700Y053890D02*
X054614Y053890D01*
X054425Y054049D02*
X055700Y054049D01*
X055700Y054207D02*
X054101Y054207D01*
X036691Y089394D02*
X029633Y089394D01*
X029880Y089553D02*
X036872Y089553D01*
X033997Y093129D02*
X034244Y093377D01*
X034419Y093680D01*
X034510Y094018D01*
X034510Y094368D01*
X034419Y094707D01*
X034244Y095010D01*
X033997Y095258D01*
X033693Y095433D01*
X033355Y095523D01*
X033005Y095523D01*
X032667Y095433D01*
X032363Y095258D01*
X032116Y095010D01*
X031941Y094707D01*
X031850Y094368D01*
X031850Y094018D01*
X031941Y093680D01*
X032116Y093377D01*
X032363Y093129D01*
X032667Y092954D01*
X033005Y092863D01*
X033355Y092863D01*
X033693Y092954D01*
X033997Y093129D01*
X034066Y093198D02*
X052794Y093198D01*
X052863Y093129D02*
X052616Y093377D01*
X052441Y093680D01*
X052350Y094018D01*
X052350Y094368D01*
X052441Y094707D01*
X052616Y095010D01*
X052863Y095258D01*
X053167Y095433D01*
X053505Y095523D01*
X053855Y095523D01*
X054193Y095433D01*
X054497Y095258D01*
X054744Y095010D01*
X054919Y094707D01*
X055010Y094368D01*
X055010Y094018D01*
X054919Y093680D01*
X054744Y093377D01*
X054497Y093129D01*
X054193Y092954D01*
X053855Y092863D01*
X053505Y092863D01*
X053167Y092954D01*
X052863Y093129D01*
X053018Y093040D02*
X033842Y093040D01*
X033423Y092881D02*
X053437Y092881D01*
X053923Y092881D02*
X055700Y092881D01*
X055700Y092723D02*
X023691Y092723D01*
X023849Y092564D02*
X055700Y092564D01*
X055700Y092406D02*
X023945Y092406D01*
X024023Y092247D02*
X055700Y092247D01*
X055700Y092089D02*
X024065Y092089D01*
X024090Y091930D02*
X055700Y091930D01*
X055700Y091772D02*
X024090Y091772D01*
X023532Y092881D02*
X032937Y092881D01*
X032518Y093040D02*
X023374Y093040D01*
X023215Y093198D02*
X032294Y093198D01*
X032135Y093357D02*
X023057Y093357D01*
X022898Y093515D02*
X032036Y093515D01*
X031944Y093674D02*
X022740Y093674D01*
X022581Y093832D02*
X031900Y093832D01*
X031857Y093991D02*
X022423Y093991D01*
X022264Y094149D02*
X031850Y094149D01*
X031850Y094308D02*
X022106Y094308D01*
X021947Y094466D02*
X031876Y094466D01*
X031919Y094625D02*
X021789Y094625D01*
X021630Y094783D02*
X031985Y094783D01*
X032076Y094942D02*
X021472Y094942D01*
X021313Y095100D02*
X032206Y095100D01*
X032366Y095259D02*
X021154Y095259D01*
X020995Y095417D02*
X032640Y095417D01*
X033720Y095417D02*
X053140Y095417D01*
X052866Y095259D02*
X033994Y095259D01*
X034154Y095100D02*
X052706Y095100D01*
X052576Y094942D02*
X034284Y094942D01*
X034375Y094783D02*
X052485Y094783D01*
X052419Y094625D02*
X034441Y094625D01*
X034484Y094466D02*
X052376Y094466D01*
X052350Y094308D02*
X034510Y094308D01*
X034510Y094149D02*
X052350Y094149D01*
X052357Y093991D02*
X034503Y093991D01*
X034460Y093832D02*
X052400Y093832D01*
X052444Y093674D02*
X034416Y093674D01*
X034324Y093515D02*
X052536Y093515D01*
X052635Y093357D02*
X034225Y093357D01*
X028594Y085273D02*
X023466Y085273D01*
X023699Y085115D02*
X028361Y085115D01*
X028203Y084956D02*
X023857Y084956D01*
X023949Y084798D02*
X028111Y084798D01*
X028035Y084639D02*
X024025Y084639D01*
X024067Y084481D02*
X027993Y084481D01*
X027970Y084322D02*
X024090Y084322D01*
X024090Y084164D02*
X027970Y084164D01*
X027993Y084005D02*
X024067Y084005D01*
X024025Y083847D02*
X028035Y083847D01*
X028111Y083688D02*
X023949Y083688D01*
X023857Y083530D02*
X028203Y083530D01*
X028361Y083371D02*
X023699Y083371D01*
X023540Y083213D02*
X028595Y083213D01*
X028626Y079092D02*
X023434Y079092D01*
X023680Y078933D02*
X028380Y078933D01*
X028221Y078775D02*
X023839Y078775D01*
X023997Y078616D02*
X028121Y078616D01*
X028040Y078458D02*
X024156Y078458D01*
X024314Y078299D02*
X027998Y078299D01*
X027970Y078141D02*
X024473Y078141D01*
X024631Y077982D02*
X027970Y077982D01*
X027988Y077824D02*
X024790Y077824D01*
X024948Y077665D02*
X028030Y077665D01*
X028100Y077507D02*
X025107Y077507D01*
X025265Y077348D02*
X028192Y077348D01*
X028343Y077190D02*
X025424Y077190D01*
X025582Y077031D02*
X028563Y077031D01*
X024720Y072910D02*
X023402Y072910D01*
X023662Y072752D02*
X024720Y072752D01*
X024720Y072593D02*
X023820Y072593D01*
X023928Y072435D02*
X024720Y072435D01*
X024720Y072276D02*
X024015Y072276D01*
X024057Y072118D02*
X024720Y072118D01*
X024720Y071959D02*
X024090Y071959D01*
X024090Y071801D02*
X024720Y071801D01*
X024720Y071642D02*
X024077Y071642D01*
X024035Y071484D02*
X024720Y071484D01*
X024720Y071325D02*
X023970Y071325D01*
X023879Y071167D02*
X024720Y071167D01*
X024720Y071008D02*
X023736Y071008D01*
X023529Y070850D02*
X024720Y070850D01*
X018920Y070850D02*
X018540Y070850D01*
X018540Y071008D02*
X018920Y071008D01*
X018920Y071167D02*
X018540Y071167D01*
X018540Y071325D02*
X018920Y071325D01*
X018920Y071484D02*
X018540Y071484D01*
X018540Y071642D02*
X018920Y071642D01*
X018920Y071801D02*
X018540Y071801D01*
X018540Y071959D02*
X018920Y071959D01*
X018920Y072118D02*
X018540Y072118D01*
X018540Y072276D02*
X018920Y072276D01*
X018920Y072435D02*
X018540Y072435D01*
X018540Y072593D02*
X018920Y072593D01*
X018920Y072752D02*
X018540Y072752D01*
X018540Y072910D02*
X018920Y072910D01*
X018920Y073069D02*
X018540Y073069D01*
X018540Y073227D02*
X018920Y073227D01*
X018920Y073386D02*
X018540Y073386D01*
X018540Y073544D02*
X018920Y073544D01*
X018920Y073703D02*
X018540Y073703D01*
X018540Y073861D02*
X018920Y073861D01*
X018920Y074020D02*
X018540Y074020D01*
X018540Y074178D02*
X018920Y074178D01*
X018920Y074337D02*
X018540Y074337D01*
X018540Y074495D02*
X018920Y074495D01*
X018920Y074654D02*
X018540Y074654D01*
X018540Y074812D02*
X018920Y074812D01*
X018920Y074971D02*
X018540Y074971D01*
X018540Y075129D02*
X018920Y075129D01*
X018920Y075288D02*
X018540Y075288D01*
X018540Y075446D02*
X018920Y075446D01*
X018920Y075605D02*
X018540Y075605D01*
X018540Y075763D02*
X018920Y075763D01*
X018920Y075922D02*
X018540Y075922D01*
X018540Y076080D02*
X018920Y076080D01*
X018920Y076239D02*
X018540Y076239D01*
X018540Y076397D02*
X018920Y076397D01*
X018920Y076556D02*
X018540Y076556D01*
X018540Y076714D02*
X018920Y076714D01*
X018920Y076873D02*
X018540Y076873D01*
X018540Y077031D02*
X018920Y077031D01*
X018920Y077190D02*
X018540Y077190D01*
X018540Y077348D02*
X018920Y077348D01*
X018920Y077507D02*
X018540Y077507D01*
X018540Y077665D02*
X018920Y077665D01*
X018920Y077824D02*
X018540Y077824D01*
X018540Y077982D02*
X018920Y077982D01*
X018920Y078141D02*
X018540Y078141D01*
X018540Y078299D02*
X018920Y078299D01*
X018920Y078458D02*
X018540Y078458D01*
X018540Y078616D02*
X018920Y078616D01*
X018920Y078775D02*
X018540Y078775D01*
X018540Y078933D02*
X018920Y078933D01*
X018920Y079092D02*
X018540Y079092D01*
X018540Y079250D02*
X018920Y079250D01*
X018920Y079409D02*
X018540Y079409D01*
X018540Y079567D02*
X018920Y079567D01*
X018920Y079726D02*
X018505Y079726D01*
X018463Y079884D02*
X018920Y079884D01*
X018920Y080043D02*
X018373Y080043D01*
X018262Y080201D02*
X018920Y080201D01*
X018920Y080360D02*
X018104Y080360D01*
X018092Y080372D02*
X018092Y080372D01*
X017945Y080518D02*
X018920Y080518D01*
X018920Y080677D02*
X017787Y080677D01*
X017628Y080835D02*
X018920Y080835D01*
X018920Y080994D02*
X017470Y080994D01*
X017311Y081152D02*
X018920Y081152D01*
X018920Y081311D02*
X017153Y081311D01*
X017167Y081454D02*
X017505Y081363D01*
X017855Y081363D01*
X018193Y081454D01*
X018497Y081629D01*
X018744Y081877D01*
X018919Y082180D01*
X019010Y082518D01*
X019010Y082868D01*
X018919Y083207D01*
X018744Y083510D01*
X018497Y083758D01*
X018193Y083933D01*
X017855Y084023D01*
X017505Y084023D01*
X017167Y083933D01*
X016863Y083758D01*
X016616Y083510D01*
X016441Y083207D01*
X016350Y082868D01*
X016350Y082518D01*
X016441Y082180D01*
X016616Y081877D01*
X016863Y081629D01*
X017167Y081454D01*
X017140Y081469D02*
X016994Y081469D01*
X016865Y081628D02*
X016836Y081628D01*
X016706Y081786D02*
X016677Y081786D01*
X016576Y081945D02*
X016519Y081945D01*
X016485Y082103D02*
X016360Y082103D01*
X016419Y082262D02*
X016202Y082262D01*
X016043Y082420D02*
X016376Y082420D01*
X016350Y082579D02*
X015885Y082579D01*
X015726Y082737D02*
X016350Y082737D01*
X016357Y082896D02*
X015568Y082896D01*
X015409Y083054D02*
X016400Y083054D01*
X016444Y083213D02*
X015251Y083213D01*
X015092Y083371D02*
X016536Y083371D01*
X016636Y083530D02*
X014934Y083530D01*
X014775Y083688D02*
X016794Y083688D01*
X017018Y083847D02*
X014617Y083847D01*
X014458Y084005D02*
X017438Y084005D01*
X017922Y084005D02*
X021052Y084005D01*
X020893Y083847D02*
X018342Y083847D01*
X018566Y083688D02*
X020735Y083688D01*
X020576Y083530D02*
X018724Y083530D01*
X018824Y083371D02*
X020418Y083371D01*
X020259Y083213D02*
X018916Y083213D01*
X018960Y083054D02*
X020101Y083054D01*
X019942Y082896D02*
X019003Y082896D01*
X019010Y082737D02*
X019784Y082737D01*
X019625Y082579D02*
X019010Y082579D01*
X018984Y082420D02*
X019467Y082420D01*
X019308Y082262D02*
X018941Y082262D01*
X018875Y082103D02*
X019151Y082103D01*
X019059Y081945D02*
X018784Y081945D01*
X018654Y081786D02*
X018984Y081786D01*
X018942Y081628D02*
X018495Y081628D01*
X018220Y081469D02*
X018920Y081469D01*
X021210Y084164D02*
X014340Y084164D01*
X014340Y084322D02*
X021369Y084322D01*
X021527Y084481D02*
X014340Y084481D01*
X014340Y084639D02*
X021686Y084639D01*
X021844Y084798D02*
X014340Y084798D01*
X014340Y084956D02*
X015036Y084956D01*
X014794Y085115D02*
X014340Y085115D01*
X014340Y085273D02*
X014704Y085273D01*
X014675Y085432D02*
X014340Y085432D01*
X014340Y085590D02*
X014675Y085590D01*
X014675Y085749D02*
X014340Y085749D01*
X014340Y085907D02*
X014675Y085907D01*
X014675Y086066D02*
X014340Y086066D01*
X014340Y086224D02*
X014675Y086224D01*
X014675Y086383D02*
X014340Y086383D01*
X014340Y086541D02*
X014675Y086541D01*
X014675Y086700D02*
X014340Y086700D01*
X014340Y086858D02*
X014675Y086858D01*
X014675Y087017D02*
X014340Y087017D01*
X014340Y087175D02*
X014675Y087175D01*
X014675Y087334D02*
X014340Y087334D01*
X014340Y087492D02*
X014675Y087492D01*
X014675Y087651D02*
X014340Y087651D01*
X014340Y087809D02*
X014675Y087809D01*
X014675Y087968D02*
X014340Y087968D01*
X014340Y088126D02*
X014675Y088126D01*
X014675Y088285D02*
X014340Y088285D01*
X014340Y088443D02*
X014675Y088443D01*
X014675Y088602D02*
X014340Y088602D01*
X014340Y088760D02*
X014675Y088760D01*
X014675Y088919D02*
X014340Y088919D01*
X014340Y089077D02*
X014675Y089077D01*
X014675Y089236D02*
X014340Y089236D01*
X014340Y089394D02*
X014675Y089394D01*
X014675Y089553D02*
X014340Y089553D01*
X014340Y089711D02*
X014675Y089711D01*
X014675Y089870D02*
X014340Y089870D01*
X014340Y090028D02*
X014675Y090028D01*
X014675Y090187D02*
X014340Y090187D01*
X014340Y090345D02*
X014675Y090345D01*
X014675Y090504D02*
X014340Y090504D01*
X014340Y090662D02*
X014675Y090662D01*
X014675Y090821D02*
X014340Y090821D01*
X014340Y090979D02*
X014675Y090979D01*
X014675Y091138D02*
X014340Y091138D01*
X014340Y091296D02*
X014675Y091296D01*
X014675Y091455D02*
X014340Y091455D01*
X014340Y091613D02*
X014704Y091613D01*
X014794Y091772D02*
X014340Y091772D01*
X014340Y091930D02*
X015036Y091930D01*
X015478Y092247D02*
X014375Y092247D01*
X014340Y092089D02*
X015639Y092089D01*
X015820Y092247D02*
X019534Y092247D01*
X019376Y092089D02*
X015981Y092089D01*
X016124Y091948D02*
X013610Y094423D01*
X015380Y096193D01*
X019880Y096193D01*
X021130Y094943D01*
X021130Y093843D01*
X019235Y091948D01*
X016124Y091948D01*
X015659Y092406D02*
X019693Y092406D01*
X019851Y092564D02*
X015498Y092564D01*
X015337Y092723D02*
X020010Y092723D01*
X020168Y092881D02*
X017923Y092881D01*
X017855Y092863D02*
X018193Y092954D01*
X018497Y093129D01*
X018744Y093377D01*
X018919Y093680D01*
X019010Y094018D01*
X019010Y094368D01*
X018919Y094707D01*
X018744Y095010D01*
X018497Y095258D01*
X018193Y095433D01*
X017855Y095523D01*
X017505Y095523D01*
X017167Y095433D01*
X016863Y095258D01*
X016616Y095010D01*
X016441Y094707D01*
X016350Y094368D01*
X016350Y094018D01*
X016441Y093680D01*
X016616Y093377D01*
X016863Y093129D01*
X017167Y092954D01*
X017505Y092863D01*
X017855Y092863D01*
X017437Y092881D02*
X015176Y092881D01*
X015015Y093040D02*
X017018Y093040D01*
X016794Y093198D02*
X014854Y093198D01*
X014693Y093357D02*
X016635Y093357D01*
X016536Y093515D02*
X014532Y093515D01*
X014371Y093674D02*
X016444Y093674D01*
X016400Y093832D02*
X014210Y093832D01*
X014049Y093991D02*
X016357Y093991D01*
X016350Y094149D02*
X013888Y094149D01*
X013727Y094308D02*
X016350Y094308D01*
X016376Y094466D02*
X013653Y094466D01*
X013812Y094625D02*
X016419Y094625D01*
X016485Y094783D02*
X013970Y094783D01*
X014129Y094942D02*
X016576Y094942D01*
X016706Y095100D02*
X014287Y095100D01*
X014446Y095259D02*
X016866Y095259D01*
X017140Y095417D02*
X014604Y095417D01*
X014763Y095576D02*
X020497Y095576D01*
X020339Y095734D02*
X014921Y095734D01*
X015080Y095893D02*
X020180Y095893D01*
X020022Y096051D02*
X015238Y096051D01*
X015057Y096210D02*
X009660Y096210D01*
X009660Y096051D02*
X014899Y096051D01*
X014740Y095893D02*
X009660Y095893D01*
X009660Y095734D02*
X014582Y095734D01*
X014423Y095576D02*
X009660Y095576D01*
X009660Y095417D02*
X014265Y095417D01*
X014106Y095259D02*
X009660Y095259D01*
X009660Y095100D02*
X013947Y095100D01*
X013788Y094942D02*
X009660Y094942D01*
X009660Y094783D02*
X013630Y094783D01*
X013471Y094625D02*
X009660Y094625D01*
X009660Y094466D02*
X013313Y094466D01*
X013154Y094308D02*
X009660Y094308D01*
X009660Y094149D02*
X012996Y094149D01*
X012837Y093991D02*
X009660Y093991D01*
X009660Y093832D02*
X012679Y093832D01*
X012520Y093674D02*
X009660Y093674D01*
X009660Y093515D02*
X012362Y093515D01*
X012224Y093357D02*
X009660Y093357D01*
X009660Y093198D02*
X012132Y093198D01*
X012072Y093040D02*
X009660Y093040D01*
X009660Y092881D02*
X012029Y092881D01*
X012020Y092723D02*
X009660Y092723D01*
X009660Y092564D02*
X012020Y092564D01*
X012020Y092406D02*
X009660Y092406D01*
X009660Y092247D02*
X012020Y092247D01*
X012020Y092089D02*
X009660Y092089D01*
X009660Y091930D02*
X012020Y091930D01*
X012020Y091772D02*
X009660Y091772D01*
X009660Y091613D02*
X012020Y091613D01*
X012020Y091455D02*
X009660Y091455D01*
X009660Y091296D02*
X012020Y091296D01*
X012020Y091138D02*
X009660Y091138D01*
X009660Y090979D02*
X012020Y090979D01*
X012020Y090821D02*
X009660Y090821D01*
X009660Y090662D02*
X012020Y090662D01*
X012020Y090504D02*
X009660Y090504D01*
X009660Y090345D02*
X012020Y090345D01*
X012020Y090187D02*
X009660Y090187D01*
X009660Y090028D02*
X012020Y090028D01*
X012020Y089870D02*
X009660Y089870D01*
X009660Y089711D02*
X012020Y089711D01*
X012020Y089553D02*
X009660Y089553D01*
X009660Y089394D02*
X012020Y089394D01*
X012020Y089236D02*
X009660Y089236D01*
X009660Y089077D02*
X012020Y089077D01*
X012020Y088919D02*
X009660Y088919D01*
X009660Y088760D02*
X012020Y088760D01*
X012020Y088602D02*
X009660Y088602D01*
X009660Y088443D02*
X012020Y088443D01*
X012020Y088285D02*
X009660Y088285D01*
X009660Y088126D02*
X012020Y088126D01*
X012020Y087968D02*
X009660Y087968D01*
X009660Y087809D02*
X012020Y087809D01*
X012020Y087651D02*
X009660Y087651D01*
X009660Y087492D02*
X012020Y087492D01*
X012020Y087334D02*
X009660Y087334D01*
X009660Y087175D02*
X012020Y087175D01*
X012020Y087017D02*
X009660Y087017D01*
X009660Y086858D02*
X012020Y086858D01*
X012020Y086700D02*
X009660Y086700D01*
X009660Y086541D02*
X012020Y086541D01*
X012020Y086383D02*
X009660Y086383D01*
X009660Y086224D02*
X012020Y086224D01*
X012020Y086066D02*
X009660Y086066D01*
X009660Y085907D02*
X012020Y085907D01*
X012020Y085749D02*
X009660Y085749D01*
X009660Y085590D02*
X012020Y085590D01*
X012020Y085432D02*
X009660Y085432D01*
X009660Y085273D02*
X012020Y085273D01*
X012020Y085115D02*
X009660Y085115D01*
X009660Y084956D02*
X012020Y084956D01*
X012020Y084798D02*
X009660Y084798D01*
X009660Y084639D02*
X012020Y084639D01*
X012020Y084481D02*
X009660Y084481D01*
X009660Y084322D02*
X012020Y084322D01*
X012020Y084164D02*
X009660Y084164D01*
X009660Y084005D02*
X012020Y084005D01*
X012020Y083847D02*
X009660Y083847D01*
X009660Y083688D02*
X012020Y083688D01*
X012020Y083530D02*
X009660Y083530D01*
X009660Y083371D02*
X012052Y083371D01*
X012094Y083213D02*
X009660Y083213D01*
X009660Y083054D02*
X011484Y083054D01*
X011066Y082896D02*
X009660Y082896D01*
X009660Y082737D02*
X010843Y082737D01*
X010685Y082579D02*
X009660Y082579D01*
X009660Y082420D02*
X010585Y082420D01*
X010494Y082262D02*
X009660Y082262D01*
X009660Y082103D02*
X010450Y082103D01*
X010407Y081945D02*
X009660Y081945D01*
X009660Y081786D02*
X010400Y081786D01*
X010400Y081628D02*
X009660Y081628D01*
X009660Y081469D02*
X010426Y081469D01*
X010469Y081311D02*
X009660Y081311D01*
X009660Y081152D02*
X010535Y081152D01*
X010627Y080994D02*
X009660Y080994D01*
X009660Y080835D02*
X010757Y080835D01*
X010917Y080677D02*
X009660Y080677D01*
X009660Y080518D02*
X011192Y080518D01*
X011555Y079373D02*
X011217Y079283D01*
X010913Y079108D01*
X010666Y078860D01*
X010491Y078557D01*
X010400Y078218D01*
X010400Y077868D01*
X010491Y077530D01*
X010666Y077227D01*
X010913Y076979D01*
X011217Y076804D01*
X011555Y076713D01*
X011905Y076713D01*
X012243Y076804D01*
X012547Y076979D01*
X012794Y077227D01*
X012969Y077530D01*
X013060Y077868D01*
X013060Y078218D01*
X012969Y078557D01*
X012794Y078860D01*
X012547Y079108D01*
X012243Y079283D01*
X011905Y079373D01*
X011555Y079373D01*
X011161Y079250D02*
X009660Y079250D01*
X009660Y079092D02*
X010898Y079092D01*
X010739Y078933D02*
X009660Y078933D01*
X009660Y078775D02*
X010617Y078775D01*
X010525Y078616D02*
X009660Y078616D01*
X009660Y078458D02*
X010464Y078458D01*
X010422Y078299D02*
X009660Y078299D01*
X009660Y078141D02*
X010400Y078141D01*
X010400Y077982D02*
X009660Y077982D01*
X009660Y077824D02*
X010412Y077824D01*
X010454Y077665D02*
X009660Y077665D01*
X009660Y077507D02*
X010504Y077507D01*
X010595Y077348D02*
X009660Y077348D01*
X009660Y077190D02*
X010702Y077190D01*
X010861Y077031D02*
X009660Y077031D01*
X009660Y076873D02*
X011097Y076873D01*
X011551Y076714D02*
X009660Y076714D01*
X009660Y076556D02*
X016220Y076556D01*
X016220Y076714D02*
X015009Y076714D01*
X015005Y076713D02*
X015343Y076804D01*
X015647Y076979D01*
X015894Y077227D01*
X016069Y077530D01*
X016160Y077868D01*
X016160Y078218D01*
X016069Y078557D01*
X015894Y078860D01*
X015647Y079108D01*
X015343Y079283D01*
X015005Y079373D01*
X014655Y079373D01*
X014317Y079283D01*
X014013Y079108D01*
X013766Y078860D01*
X013591Y078557D01*
X013500Y078218D01*
X013500Y077868D01*
X013591Y077530D01*
X013766Y077227D01*
X014013Y076979D01*
X014317Y076804D01*
X014655Y076713D01*
X015005Y076713D01*
X014651Y076714D02*
X011909Y076714D01*
X012363Y076873D02*
X014197Y076873D01*
X013961Y077031D02*
X012599Y077031D01*
X012758Y077190D02*
X013802Y077190D01*
X013695Y077348D02*
X012865Y077348D01*
X012956Y077507D02*
X013604Y077507D01*
X013554Y077665D02*
X013006Y077665D01*
X013048Y077824D02*
X013512Y077824D01*
X013500Y077982D02*
X013060Y077982D01*
X013060Y078141D02*
X013500Y078141D01*
X013522Y078299D02*
X013038Y078299D01*
X012996Y078458D02*
X013564Y078458D01*
X013625Y078616D02*
X012935Y078616D01*
X012843Y078775D02*
X013717Y078775D01*
X013839Y078933D02*
X012721Y078933D01*
X012562Y079092D02*
X013998Y079092D01*
X014261Y079250D02*
X012299Y079250D01*
X012268Y080518D02*
X014664Y080518D01*
X014823Y080360D02*
X009660Y080360D01*
X009660Y080201D02*
X014981Y080201D01*
X015140Y080043D02*
X009660Y080043D01*
X009660Y079884D02*
X015298Y079884D01*
X015457Y079726D02*
X009660Y079726D01*
X009660Y079567D02*
X015615Y079567D01*
X015774Y079409D02*
X009660Y079409D01*
X009660Y076397D02*
X016220Y076397D01*
X016220Y076239D02*
X009660Y076239D01*
X009660Y076080D02*
X011192Y076080D01*
X011277Y076103D02*
X010982Y076024D01*
X010718Y075872D01*
X010502Y075656D01*
X010349Y075391D01*
X010270Y075096D01*
X010270Y074791D01*
X010349Y074496D01*
X010502Y074231D01*
X010718Y074015D01*
X010982Y073862D01*
X011277Y073783D01*
X011583Y073783D01*
X011878Y073862D01*
X012142Y074015D01*
X012358Y074231D01*
X012511Y074496D01*
X012590Y074791D01*
X012590Y075096D01*
X012511Y075391D01*
X012358Y075656D01*
X012142Y075872D01*
X011878Y076024D01*
X011583Y076103D01*
X011277Y076103D01*
X011668Y076080D02*
X014292Y076080D01*
X014377Y076103D02*
X014082Y076024D01*
X013818Y075872D01*
X013602Y075656D01*
X013449Y075391D01*
X013370Y075096D01*
X013370Y074791D01*
X013449Y074496D01*
X013602Y074231D01*
X013818Y074015D01*
X014082Y073862D01*
X014377Y073783D01*
X014683Y073783D01*
X014978Y073862D01*
X015242Y074015D01*
X015458Y074231D01*
X015611Y074496D01*
X015690Y074791D01*
X015690Y075096D01*
X015611Y075391D01*
X015458Y075656D01*
X015242Y075872D01*
X014978Y076024D01*
X014683Y076103D01*
X014377Y076103D01*
X014768Y076080D02*
X016220Y076080D01*
X016220Y075922D02*
X015155Y075922D01*
X015350Y075763D02*
X016220Y075763D01*
X016220Y075605D02*
X015487Y075605D01*
X015579Y075446D02*
X016220Y075446D01*
X016220Y075288D02*
X015639Y075288D01*
X015681Y075129D02*
X016220Y075129D01*
X016220Y074971D02*
X015690Y074971D01*
X015690Y074812D02*
X016220Y074812D01*
X016220Y074654D02*
X015653Y074654D01*
X015611Y074495D02*
X016220Y074495D01*
X016220Y074337D02*
X015519Y074337D01*
X015406Y074178D02*
X016220Y074178D01*
X016220Y074020D02*
X015247Y074020D01*
X014974Y073861D02*
X016220Y073861D01*
X016220Y073703D02*
X009660Y073703D01*
X009660Y073861D02*
X010986Y073861D01*
X010713Y074020D02*
X009660Y074020D01*
X009660Y074178D02*
X010554Y074178D01*
X010441Y074337D02*
X009660Y074337D01*
X009660Y074495D02*
X010349Y074495D01*
X010307Y074654D02*
X009660Y074654D01*
X009660Y074812D02*
X010270Y074812D01*
X010270Y074971D02*
X009660Y074971D01*
X009660Y075129D02*
X010279Y075129D01*
X010321Y075288D02*
X009660Y075288D01*
X009660Y075446D02*
X010381Y075446D01*
X010473Y075605D02*
X009660Y075605D01*
X009660Y075763D02*
X010610Y075763D01*
X010805Y075922D02*
X009660Y075922D01*
X009660Y073544D02*
X016220Y073544D01*
X016220Y073386D02*
X009660Y073386D01*
X009660Y073227D02*
X016220Y073227D01*
X016220Y073069D02*
X012267Y073069D01*
X012243Y073083D02*
X011905Y073173D01*
X011555Y073173D01*
X011217Y073083D01*
X010913Y072908D01*
X010666Y072660D01*
X010491Y072357D01*
X010400Y072018D01*
X010400Y071668D01*
X010491Y071330D01*
X010666Y071027D01*
X010913Y070779D01*
X011217Y070604D01*
X011555Y070513D01*
X011905Y070513D01*
X012243Y070604D01*
X012547Y070779D01*
X012794Y071027D01*
X012969Y071330D01*
X013060Y071668D01*
X013060Y072018D01*
X012969Y072357D01*
X012794Y072660D01*
X012547Y072908D01*
X012243Y073083D01*
X012542Y072910D02*
X016220Y072910D01*
X016220Y072752D02*
X012702Y072752D01*
X012833Y072593D02*
X016220Y072593D01*
X016220Y072435D02*
X012924Y072435D01*
X012991Y072276D02*
X016220Y072276D01*
X016220Y072118D02*
X013033Y072118D01*
X013060Y071959D02*
X016220Y071959D01*
X016220Y071801D02*
X013060Y071801D01*
X013053Y071642D02*
X016220Y071642D01*
X016220Y071484D02*
X013011Y071484D01*
X012967Y071325D02*
X016220Y071325D01*
X016220Y071167D02*
X012875Y071167D01*
X012776Y071008D02*
X016220Y071008D01*
X016220Y070850D02*
X012618Y070850D01*
X012395Y070691D02*
X016220Y070691D01*
X016220Y070533D02*
X011978Y070533D01*
X011482Y070533D02*
X009660Y070533D01*
X009660Y070691D02*
X011065Y070691D01*
X010842Y070850D02*
X009660Y070850D01*
X009660Y071008D02*
X010684Y071008D01*
X010585Y071167D02*
X009660Y071167D01*
X009660Y071325D02*
X010493Y071325D01*
X010449Y071484D02*
X009660Y071484D01*
X009660Y071642D02*
X010407Y071642D01*
X010400Y071801D02*
X009660Y071801D01*
X009660Y071959D02*
X010400Y071959D01*
X010427Y072118D02*
X009660Y072118D01*
X009660Y072276D02*
X010469Y072276D01*
X010536Y072435D02*
X009660Y072435D01*
X009660Y072593D02*
X010627Y072593D01*
X010758Y072752D02*
X009660Y072752D01*
X009660Y072910D02*
X010918Y072910D01*
X011193Y073069D02*
X009660Y073069D01*
X011874Y073861D02*
X014086Y073861D01*
X013813Y074020D02*
X012147Y074020D01*
X012306Y074178D02*
X013654Y074178D01*
X013541Y074337D02*
X012419Y074337D01*
X012511Y074495D02*
X013449Y074495D01*
X013407Y074654D02*
X012553Y074654D01*
X012590Y074812D02*
X013370Y074812D01*
X013370Y074971D02*
X012590Y074971D01*
X012581Y075129D02*
X013379Y075129D01*
X013421Y075288D02*
X012539Y075288D01*
X012479Y075446D02*
X013481Y075446D01*
X013573Y075605D02*
X012387Y075605D01*
X012250Y075763D02*
X013710Y075763D01*
X013905Y075922D02*
X012055Y075922D01*
X015463Y076873D02*
X016220Y076873D01*
X016220Y077031D02*
X015699Y077031D01*
X015858Y077190D02*
X016220Y077190D01*
X016220Y077348D02*
X015965Y077348D01*
X016056Y077507D02*
X016220Y077507D01*
X016220Y077665D02*
X016106Y077665D01*
X016148Y077824D02*
X016220Y077824D01*
X016220Y077982D02*
X016160Y077982D01*
X016160Y078141D02*
X016220Y078141D01*
X016220Y078299D02*
X016138Y078299D01*
X016096Y078458D02*
X016220Y078458D01*
X016220Y078616D02*
X016035Y078616D01*
X015943Y078775D02*
X016220Y078775D01*
X016220Y078933D02*
X015821Y078933D01*
X015662Y079092D02*
X016091Y079092D01*
X015932Y079250D02*
X015399Y079250D01*
X014506Y080677D02*
X012543Y080677D01*
X012703Y080835D02*
X014347Y080835D01*
X014189Y080994D02*
X012833Y080994D01*
X012925Y081152D02*
X014030Y081152D01*
X013872Y081311D02*
X012991Y081311D01*
X013034Y081469D02*
X013713Y081469D01*
X013555Y081628D02*
X013060Y081628D01*
X013060Y081786D02*
X013396Y081786D01*
X013238Y081945D02*
X013053Y081945D01*
X013079Y082103D02*
X013010Y082103D01*
X012181Y083054D02*
X011976Y083054D01*
X014533Y092406D02*
X015317Y092406D01*
X015156Y092564D02*
X014692Y092564D01*
X014850Y092723D02*
X014995Y092723D01*
X018342Y093040D02*
X020327Y093040D01*
X020485Y093198D02*
X018566Y093198D01*
X018725Y093357D02*
X020644Y093357D01*
X020802Y093515D02*
X018824Y093515D01*
X018916Y093674D02*
X020961Y093674D01*
X021119Y093832D02*
X018960Y093832D01*
X019003Y093991D02*
X021130Y093991D01*
X021130Y094149D02*
X019010Y094149D01*
X019010Y094308D02*
X021130Y094308D01*
X021130Y094466D02*
X018984Y094466D01*
X018941Y094625D02*
X021130Y094625D01*
X021130Y094783D02*
X018875Y094783D01*
X018784Y094942D02*
X021130Y094942D01*
X020973Y095100D02*
X018654Y095100D01*
X018494Y095259D02*
X020814Y095259D01*
X020656Y095417D02*
X018220Y095417D01*
X020203Y096210D02*
X055700Y096210D01*
X055700Y096051D02*
X020361Y096051D01*
X020520Y095893D02*
X055700Y095893D01*
X055700Y095734D02*
X020678Y095734D01*
X020837Y095576D02*
X055700Y095576D01*
X055700Y095417D02*
X054220Y095417D01*
X054494Y095259D02*
X055700Y095259D01*
X055700Y095100D02*
X054654Y095100D01*
X054784Y094942D02*
X055700Y094942D01*
X055700Y094783D02*
X054875Y094783D01*
X054941Y094625D02*
X055700Y094625D01*
X055700Y094466D02*
X054984Y094466D01*
X055010Y094308D02*
X055700Y094308D01*
X055700Y094149D02*
X055010Y094149D01*
X055003Y093991D02*
X055700Y093991D01*
X055700Y093832D02*
X054960Y093832D01*
X054916Y093674D02*
X055700Y093674D01*
X055700Y093515D02*
X054824Y093515D01*
X054725Y093357D02*
X055700Y093357D01*
X055700Y093198D02*
X054566Y093198D01*
X054342Y093040D02*
X055700Y093040D01*
X022180Y089553D02*
X021185Y089553D01*
X021185Y089711D02*
X022021Y089711D01*
X021922Y089870D02*
X021185Y089870D01*
X021185Y090028D02*
X021840Y090028D01*
X021798Y090187D02*
X021185Y090187D01*
X021185Y090345D02*
X021770Y090345D01*
X021770Y090504D02*
X021185Y090504D01*
X021185Y090662D02*
X021770Y090662D01*
X021770Y090821D02*
X021185Y090821D01*
X021185Y090979D02*
X021770Y090979D01*
X021770Y091138D02*
X021185Y091138D01*
X021185Y091296D02*
X021770Y091296D01*
X021678Y091455D02*
X021185Y091455D01*
X021156Y091613D02*
X021519Y091613D01*
X021361Y091772D02*
X021066Y091772D01*
X021202Y091930D02*
X020824Y091930D01*
X021044Y092089D02*
X019715Y092089D01*
X019874Y092247D02*
X020885Y092247D01*
X020727Y092406D02*
X020032Y092406D01*
X020191Y092564D02*
X020568Y092564D01*
X020410Y092723D02*
X020349Y092723D01*
X021156Y085273D02*
X022394Y085273D01*
X022161Y085115D02*
X021066Y085115D01*
X020824Y084956D02*
X022003Y084956D01*
X018920Y070691D02*
X018540Y070691D01*
X018540Y070533D02*
X018920Y070533D01*
X018920Y070374D02*
X018540Y070374D01*
X018540Y070216D02*
X018920Y070216D01*
X018920Y070057D02*
X018540Y070057D01*
X018540Y069899D02*
X018920Y069899D01*
X018920Y069740D02*
X018540Y069740D01*
X018540Y069582D02*
X018920Y069582D01*
X018920Y069423D02*
X018540Y069423D01*
X018540Y069265D02*
X018920Y069265D01*
X018920Y069106D02*
X018540Y069106D01*
X018540Y068948D02*
X018920Y068948D01*
X018920Y068789D02*
X018540Y068789D01*
X018540Y068631D02*
X018920Y068631D01*
X018920Y068472D02*
X018540Y068472D01*
X018540Y068314D02*
X018920Y068314D01*
X018920Y068155D02*
X018540Y068155D01*
X018540Y067997D02*
X018920Y067997D01*
X018920Y067838D02*
X018540Y067838D01*
X018540Y067680D02*
X018920Y067680D01*
X018920Y067521D02*
X018540Y067521D01*
X018540Y067363D02*
X018920Y067363D01*
X018920Y067204D02*
X018540Y067204D01*
X018540Y067046D02*
X018920Y067046D01*
X018920Y066887D02*
X018540Y066887D01*
X018540Y066729D02*
X018920Y066729D01*
X018920Y066570D02*
X018540Y066570D01*
X018540Y066412D02*
X018920Y066412D01*
X018920Y066253D02*
X018540Y066253D01*
X018540Y066095D02*
X018920Y066095D01*
X018920Y065936D02*
X018540Y065936D01*
X018540Y065778D02*
X018920Y065778D01*
X018920Y065619D02*
X018540Y065619D01*
X018540Y065461D02*
X018920Y065461D01*
X018920Y065302D02*
X018540Y065302D01*
X018540Y065144D02*
X018920Y065144D01*
X018920Y064985D02*
X018540Y064985D01*
X018540Y064827D02*
X018920Y064827D01*
X018920Y064668D02*
X018540Y064668D01*
X018540Y064510D02*
X018920Y064510D01*
X018920Y064351D02*
X018540Y064351D01*
X018540Y064193D02*
X018920Y064193D01*
X018920Y064034D02*
X018540Y064034D01*
X018540Y063876D02*
X018920Y063876D01*
X018920Y063717D02*
X018540Y063717D01*
X018540Y063559D02*
X018920Y063559D01*
X018920Y063400D02*
X018540Y063400D01*
X018540Y063242D02*
X018920Y063242D01*
X018920Y063083D02*
X018540Y063083D01*
X018540Y062925D02*
X018920Y062925D01*
X018920Y062766D02*
X018540Y062766D01*
X018540Y062608D02*
X018920Y062608D01*
X018920Y062449D02*
X018540Y062449D01*
X018540Y062291D02*
X018920Y062291D01*
X018920Y062132D02*
X018540Y062132D01*
X018540Y061974D02*
X018920Y061974D01*
X018920Y061815D02*
X018540Y061815D01*
X018540Y061657D02*
X018920Y061657D01*
X018920Y061498D02*
X018540Y061498D01*
X018540Y061340D02*
X018920Y061340D01*
X018920Y061181D02*
X018540Y061181D01*
X018540Y061023D02*
X018920Y061023D01*
X018920Y060864D02*
X018540Y060864D01*
X018540Y060706D02*
X018920Y060706D01*
X018920Y060547D02*
X018540Y060547D01*
X018540Y060389D02*
X018920Y060389D01*
X018920Y060230D02*
X018540Y060230D01*
X018540Y060072D02*
X018920Y060072D01*
X018920Y059913D02*
X018540Y059913D01*
X018540Y059755D02*
X018920Y059755D01*
X018920Y059596D02*
X018540Y059596D01*
X018540Y059438D02*
X018920Y059438D01*
X018920Y059279D02*
X018540Y059279D01*
X018540Y059121D02*
X018920Y059121D01*
X018920Y058962D02*
X018540Y058962D01*
X018540Y058804D02*
X018920Y058804D01*
X018920Y058645D02*
X018540Y058645D01*
X018540Y058487D02*
X018920Y058487D01*
X018920Y058328D02*
X018540Y058328D01*
X018540Y058170D02*
X018920Y058170D01*
X018920Y058011D02*
X018540Y058011D01*
X018540Y057853D02*
X018920Y057853D01*
X018920Y057694D02*
X018540Y057694D01*
X018540Y057536D02*
X018920Y057536D01*
X018920Y057377D02*
X018540Y057377D01*
X018540Y057219D02*
X018920Y057219D01*
X018920Y057060D02*
X018540Y057060D01*
X018540Y056902D02*
X018920Y056902D01*
X018920Y056743D02*
X018540Y056743D01*
X018540Y056585D02*
X018920Y056585D01*
X018920Y056426D02*
X018540Y056426D01*
X018540Y056268D02*
X018920Y056268D01*
X018920Y056109D02*
X018540Y056109D01*
X018540Y055951D02*
X018920Y055951D01*
X018920Y055792D02*
X018540Y055792D01*
X018540Y055634D02*
X018920Y055634D01*
X018920Y055475D02*
X018540Y055475D01*
X018540Y055317D02*
X018920Y055317D01*
X018920Y055158D02*
X018540Y055158D01*
X018540Y055000D02*
X018920Y055000D01*
X018920Y054841D02*
X018540Y054841D01*
X018540Y054683D02*
X018920Y054683D01*
X018920Y054524D02*
X018540Y054524D01*
X018540Y054366D02*
X018920Y054366D01*
X018920Y054207D02*
X018540Y054207D01*
X018540Y054049D02*
X018920Y054049D01*
X018920Y053890D02*
X018540Y053890D01*
X018540Y053732D02*
X018920Y053732D01*
X018920Y053573D02*
X018540Y053573D01*
X018540Y053415D02*
X018920Y053415D01*
X018920Y053256D02*
X018540Y053256D01*
X018540Y053098D02*
X018920Y053098D01*
X018920Y052939D02*
X018540Y052939D01*
X018540Y052781D02*
X018920Y052781D01*
X018920Y052622D02*
X018540Y052622D01*
X018540Y052464D02*
X018920Y052464D01*
X018920Y052305D02*
X018540Y052305D01*
X018540Y052147D02*
X018920Y052147D01*
X018920Y051988D02*
X018526Y051988D01*
X018484Y051830D02*
X018920Y051830D01*
X018920Y051671D02*
X018418Y051671D01*
X018327Y051513D02*
X018920Y051513D01*
X018920Y051354D02*
X018182Y051354D01*
X018023Y051196D02*
X018920Y051196D01*
X018920Y051037D02*
X017865Y051037D01*
X017706Y050879D02*
X018920Y050879D01*
X018920Y050720D02*
X017548Y050720D01*
X017389Y050562D02*
X018920Y050562D01*
X018920Y050403D02*
X017231Y050403D01*
X017072Y050245D02*
X018920Y050245D01*
X018920Y050086D02*
X016914Y050086D01*
X016755Y049928D02*
X018920Y049928D01*
X018920Y049769D02*
X016597Y049769D01*
X016438Y049611D02*
X018920Y049611D01*
X018920Y049452D02*
X016280Y049452D01*
X016121Y049294D02*
X018920Y049294D01*
X018920Y049135D02*
X015904Y049135D01*
X013956Y049135D02*
X012004Y049135D01*
X011878Y049062D02*
X012142Y049215D01*
X012358Y049431D01*
X012511Y049696D01*
X012590Y049991D01*
X012590Y050296D01*
X012511Y050591D01*
X012358Y050856D01*
X012142Y051072D01*
X011878Y051224D01*
X011583Y051303D01*
X011277Y051303D01*
X010982Y051224D01*
X010718Y051072D01*
X010502Y050856D01*
X010349Y050591D01*
X010270Y050296D01*
X010270Y049991D01*
X010349Y049696D01*
X010502Y049431D01*
X010718Y049215D01*
X010982Y049062D01*
X011277Y048983D01*
X011583Y048983D01*
X011878Y049062D01*
X012221Y049294D02*
X013739Y049294D01*
X013589Y049452D02*
X012371Y049452D01*
X012462Y049611D02*
X013498Y049611D01*
X013429Y049769D02*
X012531Y049769D01*
X012573Y049928D02*
X013387Y049928D01*
X013370Y050086D02*
X012590Y050086D01*
X012590Y050245D02*
X013370Y050245D01*
X013399Y050403D02*
X012561Y050403D01*
X012519Y050562D02*
X013441Y050562D01*
X013524Y050720D02*
X012436Y050720D01*
X012335Y050879D02*
X013625Y050879D01*
X013784Y051037D02*
X012176Y051037D01*
X011927Y051196D02*
X014033Y051196D01*
X014317Y052004D02*
X014655Y051913D01*
X015005Y051913D01*
X015343Y052004D01*
X015647Y052179D01*
X015894Y052427D01*
X016069Y052730D01*
X016160Y053068D01*
X016160Y053418D01*
X016069Y053757D01*
X015894Y054060D01*
X015647Y054308D01*
X015343Y054483D01*
X015005Y054573D01*
X014655Y054573D01*
X014317Y054483D01*
X014013Y054308D01*
X013766Y054060D01*
X013591Y053757D01*
X013500Y053418D01*
X013500Y053068D01*
X013591Y052730D01*
X013766Y052427D01*
X014013Y052179D01*
X014317Y052004D01*
X014375Y051988D02*
X012185Y051988D01*
X012243Y052004D02*
X012547Y052179D01*
X012794Y052427D01*
X012969Y052730D01*
X013060Y053068D01*
X013060Y053418D01*
X012969Y053757D01*
X012794Y054060D01*
X012547Y054308D01*
X012243Y054483D01*
X011905Y054573D01*
X011555Y054573D01*
X011217Y054483D01*
X010913Y054308D01*
X010666Y054060D01*
X010491Y053757D01*
X010400Y053418D01*
X010400Y053068D01*
X010491Y052730D01*
X010666Y052427D01*
X010913Y052179D01*
X011217Y052004D01*
X011555Y051913D01*
X011905Y051913D01*
X012243Y052004D01*
X012491Y052147D02*
X014069Y052147D01*
X013887Y052305D02*
X012673Y052305D01*
X012816Y052464D02*
X013744Y052464D01*
X013653Y052622D02*
X012907Y052622D01*
X012983Y052781D02*
X013577Y052781D01*
X013535Y052939D02*
X013025Y052939D01*
X013060Y053098D02*
X013500Y053098D01*
X013500Y053256D02*
X013060Y053256D01*
X013060Y053415D02*
X013500Y053415D01*
X013542Y053573D02*
X013018Y053573D01*
X012976Y053732D02*
X013584Y053732D01*
X013668Y053890D02*
X012892Y053890D01*
X012801Y054049D02*
X013759Y054049D01*
X013913Y054207D02*
X012647Y054207D01*
X012446Y054366D02*
X014114Y054366D01*
X014472Y054524D02*
X012088Y054524D01*
X011372Y054524D02*
X009660Y054524D01*
X009660Y054366D02*
X011014Y054366D01*
X010813Y054207D02*
X009660Y054207D01*
X009660Y054049D02*
X010659Y054049D01*
X010568Y053890D02*
X009660Y053890D01*
X009660Y053732D02*
X010484Y053732D01*
X010442Y053573D02*
X009660Y053573D01*
X009660Y053415D02*
X010400Y053415D01*
X010400Y053256D02*
X009660Y053256D01*
X009660Y053098D02*
X010400Y053098D01*
X010435Y052939D02*
X009660Y052939D01*
X009660Y052781D02*
X010477Y052781D01*
X010553Y052622D02*
X009660Y052622D01*
X009660Y052464D02*
X010644Y052464D01*
X010787Y052305D02*
X009660Y052305D01*
X009660Y052147D02*
X010969Y052147D01*
X011275Y051988D02*
X009660Y051988D01*
X009660Y051830D02*
X015376Y051830D01*
X015285Y051988D02*
X015535Y051988D01*
X015591Y052147D02*
X015693Y052147D01*
X015773Y052305D02*
X015852Y052305D01*
X015916Y052464D02*
X016010Y052464D01*
X016007Y052622D02*
X016169Y052622D01*
X016220Y052781D02*
X016083Y052781D01*
X016125Y052939D02*
X016220Y052939D01*
X016220Y053098D02*
X016160Y053098D01*
X016160Y053256D02*
X016220Y053256D01*
X016220Y053415D02*
X016160Y053415D01*
X016118Y053573D02*
X016220Y053573D01*
X016220Y053732D02*
X016076Y053732D01*
X015992Y053890D02*
X016220Y053890D01*
X016220Y054049D02*
X015901Y054049D01*
X015747Y054207D02*
X016220Y054207D01*
X016220Y054366D02*
X015546Y054366D01*
X015188Y054524D02*
X016220Y054524D01*
X016220Y054683D02*
X009660Y054683D01*
X009660Y054841D02*
X016220Y054841D01*
X016220Y055000D02*
X009660Y055000D01*
X009660Y055158D02*
X016220Y055158D01*
X016220Y055317D02*
X015072Y055317D01*
X014978Y055262D02*
X015242Y055415D01*
X015458Y055631D01*
X015611Y055896D01*
X015690Y056191D01*
X015690Y056496D01*
X015611Y056791D01*
X015458Y057056D01*
X015242Y057272D01*
X014978Y057424D01*
X014683Y057503D01*
X014377Y057503D01*
X014082Y057424D01*
X013818Y057272D01*
X013602Y057056D01*
X013449Y056791D01*
X013370Y056496D01*
X013370Y056191D01*
X013449Y055896D01*
X013602Y055631D01*
X013818Y055415D01*
X014082Y055262D01*
X014377Y055183D01*
X014683Y055183D01*
X014978Y055262D01*
X015303Y055475D02*
X016220Y055475D01*
X016220Y055634D02*
X015460Y055634D01*
X015551Y055792D02*
X016220Y055792D01*
X016220Y055951D02*
X015626Y055951D01*
X015668Y056109D02*
X016220Y056109D01*
X016220Y056268D02*
X015690Y056268D01*
X015690Y056426D02*
X016220Y056426D01*
X016220Y056585D02*
X015666Y056585D01*
X015624Y056743D02*
X016220Y056743D01*
X016220Y056902D02*
X015547Y056902D01*
X015453Y057060D02*
X016220Y057060D01*
X016220Y057219D02*
X015295Y057219D01*
X015059Y057377D02*
X016220Y057377D01*
X016220Y057536D02*
X009660Y057536D01*
X009660Y057694D02*
X016220Y057694D01*
X016220Y057853D02*
X009660Y057853D01*
X009660Y058011D02*
X016220Y058011D01*
X016220Y058170D02*
X012116Y058170D01*
X012243Y058204D02*
X012547Y058379D01*
X012794Y058627D01*
X012969Y058930D01*
X013060Y059268D01*
X013060Y059618D01*
X012969Y059957D01*
X012794Y060260D01*
X012547Y060508D01*
X012243Y060683D01*
X011905Y060773D01*
X011555Y060773D01*
X011217Y060683D01*
X010913Y060508D01*
X010666Y060260D01*
X010491Y059957D01*
X010400Y059618D01*
X010400Y059268D01*
X010491Y058930D01*
X010666Y058627D01*
X010913Y058379D01*
X011217Y058204D01*
X011555Y058113D01*
X011905Y058113D01*
X012243Y058204D01*
X012459Y058328D02*
X016220Y058328D01*
X016220Y058487D02*
X012654Y058487D01*
X012805Y058645D02*
X016220Y058645D01*
X016220Y058804D02*
X012897Y058804D01*
X012978Y058962D02*
X016220Y058962D01*
X016220Y059121D02*
X013021Y059121D01*
X013060Y059279D02*
X016220Y059279D01*
X016220Y059438D02*
X013060Y059438D01*
X013060Y059596D02*
X016220Y059596D01*
X016220Y059755D02*
X013023Y059755D01*
X012981Y059913D02*
X016220Y059913D01*
X016220Y060072D02*
X012903Y060072D01*
X012811Y060230D02*
X016220Y060230D01*
X016220Y060389D02*
X012665Y060389D01*
X012478Y060547D02*
X016220Y060547D01*
X016220Y060706D02*
X012157Y060706D01*
X011878Y061462D02*
X012142Y061615D01*
X012358Y061831D01*
X012511Y062096D01*
X012590Y062391D01*
X012590Y062696D01*
X012511Y062991D01*
X012358Y063256D01*
X012142Y063472D01*
X011878Y063624D01*
X011583Y063703D01*
X011277Y063703D01*
X010982Y063624D01*
X010718Y063472D01*
X010502Y063256D01*
X010349Y062991D01*
X010270Y062696D01*
X010270Y062391D01*
X010349Y062096D01*
X010502Y061831D01*
X010718Y061615D01*
X010982Y061462D01*
X011277Y061383D01*
X011583Y061383D01*
X011878Y061462D01*
X011940Y061498D02*
X014020Y061498D01*
X014082Y061462D02*
X014377Y061383D01*
X014683Y061383D01*
X014978Y061462D01*
X015242Y061615D01*
X015458Y061831D01*
X015611Y062096D01*
X015690Y062391D01*
X015690Y062696D01*
X015611Y062991D01*
X015458Y063256D01*
X015242Y063472D01*
X014978Y063624D01*
X014683Y063703D01*
X014377Y063703D01*
X014082Y063624D01*
X013818Y063472D01*
X013602Y063256D01*
X013449Y062991D01*
X013370Y062696D01*
X013370Y062391D01*
X013449Y062096D01*
X013602Y061831D01*
X013818Y061615D01*
X014082Y061462D01*
X013776Y061657D02*
X012184Y061657D01*
X012343Y061815D02*
X013617Y061815D01*
X013519Y061974D02*
X012441Y061974D01*
X012521Y062132D02*
X013439Y062132D01*
X013397Y062291D02*
X012563Y062291D01*
X012590Y062449D02*
X013370Y062449D01*
X013370Y062608D02*
X012590Y062608D01*
X012571Y062766D02*
X013389Y062766D01*
X013431Y062925D02*
X012529Y062925D01*
X012458Y063083D02*
X013502Y063083D01*
X013594Y063242D02*
X012366Y063242D01*
X012213Y063400D02*
X013747Y063400D01*
X013969Y063559D02*
X011991Y063559D01*
X011905Y064313D02*
X012243Y064404D01*
X012547Y064579D01*
X012794Y064827D01*
X013766Y064827D01*
X014013Y064579D01*
X014317Y064404D01*
X014655Y064313D01*
X015005Y064313D01*
X015343Y064404D01*
X015647Y064579D01*
X015894Y064827D01*
X016220Y064827D01*
X016220Y064985D02*
X015986Y064985D01*
X016069Y065130D02*
X016160Y065468D01*
X016160Y065818D01*
X016069Y066157D01*
X015894Y066460D01*
X015647Y066708D01*
X015343Y066883D01*
X015005Y066973D01*
X014655Y066973D01*
X014317Y066883D01*
X014013Y066708D01*
X013766Y066460D01*
X013591Y066157D01*
X013500Y065818D01*
X013500Y065468D01*
X013591Y065130D01*
X013766Y064827D01*
X013674Y064985D02*
X012886Y064985D01*
X012969Y065130D02*
X013060Y065468D01*
X013060Y065818D01*
X012969Y066157D01*
X012794Y066460D01*
X012547Y066708D01*
X012243Y066883D01*
X011905Y066973D01*
X011555Y066973D01*
X011217Y066883D01*
X010913Y066708D01*
X010666Y066460D01*
X010491Y066157D01*
X010400Y065818D01*
X010400Y065468D01*
X010491Y065130D01*
X010666Y064827D01*
X009660Y064827D01*
X009660Y064985D02*
X010574Y064985D01*
X010487Y065144D02*
X009660Y065144D01*
X009660Y065302D02*
X010444Y065302D01*
X010402Y065461D02*
X009660Y065461D01*
X009660Y065619D02*
X010400Y065619D01*
X010400Y065778D02*
X009660Y065778D01*
X009660Y065936D02*
X010432Y065936D01*
X010474Y066095D02*
X009660Y066095D01*
X009660Y066253D02*
X010546Y066253D01*
X010638Y066412D02*
X009660Y066412D01*
X009660Y066570D02*
X010776Y066570D01*
X010950Y066729D02*
X009660Y066729D01*
X009660Y066887D02*
X011234Y066887D01*
X011277Y067583D02*
X011583Y067583D01*
X011878Y067662D01*
X012142Y067815D01*
X012358Y068031D01*
X012511Y068296D01*
X012590Y068591D01*
X012590Y068896D01*
X012511Y069191D01*
X012358Y069456D01*
X012142Y069672D01*
X011878Y069824D01*
X011583Y069903D01*
X011277Y069903D01*
X010982Y069824D01*
X010718Y069672D01*
X010502Y069456D01*
X010349Y069191D01*
X010270Y068896D01*
X010270Y068591D01*
X010349Y068296D01*
X010502Y068031D01*
X010718Y067815D01*
X010982Y067662D01*
X011277Y067583D01*
X010952Y067680D02*
X009660Y067680D01*
X009660Y067838D02*
X010694Y067838D01*
X010536Y067997D02*
X009660Y067997D01*
X009660Y068155D02*
X010430Y068155D01*
X010344Y068314D02*
X009660Y068314D01*
X009660Y068472D02*
X010302Y068472D01*
X010270Y068631D02*
X009660Y068631D01*
X009660Y068789D02*
X010270Y068789D01*
X010284Y068948D02*
X009660Y068948D01*
X009660Y069106D02*
X010326Y069106D01*
X010392Y069265D02*
X009660Y069265D01*
X009660Y069423D02*
X010483Y069423D01*
X010628Y069582D02*
X009660Y069582D01*
X009660Y069740D02*
X010837Y069740D01*
X011261Y069899D02*
X009660Y069899D01*
X009660Y070057D02*
X016220Y070057D01*
X016220Y069899D02*
X011599Y069899D01*
X012023Y069740D02*
X016220Y069740D01*
X016220Y069582D02*
X012232Y069582D01*
X012377Y069423D02*
X016220Y069423D01*
X016220Y069265D02*
X012468Y069265D01*
X012534Y069106D02*
X016220Y069106D01*
X016220Y068948D02*
X012576Y068948D01*
X012590Y068789D02*
X016220Y068789D01*
X016220Y068631D02*
X012590Y068631D01*
X012558Y068472D02*
X016220Y068472D01*
X016220Y068314D02*
X012516Y068314D01*
X012430Y068155D02*
X016220Y068155D01*
X016220Y067997D02*
X012324Y067997D01*
X012166Y067838D02*
X016220Y067838D01*
X016220Y067680D02*
X011908Y067680D01*
X012226Y066887D02*
X014334Y066887D01*
X014050Y066729D02*
X012510Y066729D01*
X012684Y066570D02*
X013876Y066570D01*
X013738Y066412D02*
X012822Y066412D01*
X012914Y066253D02*
X013646Y066253D01*
X013574Y066095D02*
X012986Y066095D01*
X013028Y065936D02*
X013532Y065936D01*
X013500Y065778D02*
X013060Y065778D01*
X013060Y065619D02*
X013500Y065619D01*
X013502Y065461D02*
X013058Y065461D01*
X013016Y065302D02*
X013544Y065302D01*
X013587Y065144D02*
X012973Y065144D01*
X012969Y065130D02*
X012794Y064827D01*
X012636Y064668D02*
X013924Y064668D01*
X014133Y064510D02*
X012427Y064510D01*
X012047Y064351D02*
X014513Y064351D01*
X015147Y064351D02*
X016220Y064351D01*
X016220Y064193D02*
X009660Y064193D01*
X009660Y064351D02*
X011413Y064351D01*
X011555Y064313D02*
X011905Y064313D01*
X011555Y064313D02*
X011217Y064404D01*
X010913Y064579D01*
X010666Y064827D01*
X010824Y064668D02*
X009660Y064668D01*
X009660Y064510D02*
X011033Y064510D01*
X010869Y063559D02*
X009660Y063559D01*
X009660Y063717D02*
X016220Y063717D01*
X016220Y063559D02*
X015091Y063559D01*
X015313Y063400D02*
X016220Y063400D01*
X016220Y063242D02*
X015466Y063242D01*
X015558Y063083D02*
X016220Y063083D01*
X016220Y062925D02*
X015629Y062925D01*
X015671Y062766D02*
X016220Y062766D01*
X016220Y062608D02*
X015690Y062608D01*
X015690Y062449D02*
X016220Y062449D01*
X016220Y062291D02*
X015663Y062291D01*
X015621Y062132D02*
X016220Y062132D01*
X016220Y061974D02*
X015541Y061974D01*
X015443Y061815D02*
X016220Y061815D01*
X016220Y061657D02*
X015284Y061657D01*
X015040Y061498D02*
X016220Y061498D01*
X016220Y061340D02*
X009660Y061340D01*
X009660Y061498D02*
X010920Y061498D01*
X010676Y061657D02*
X009660Y061657D01*
X009660Y061815D02*
X010517Y061815D01*
X010419Y061974D02*
X009660Y061974D01*
X009660Y062132D02*
X010339Y062132D01*
X010297Y062291D02*
X009660Y062291D01*
X009660Y062449D02*
X010270Y062449D01*
X010270Y062608D02*
X009660Y062608D01*
X009660Y062766D02*
X010289Y062766D01*
X010331Y062925D02*
X009660Y062925D01*
X009660Y063083D02*
X010402Y063083D01*
X010494Y063242D02*
X009660Y063242D01*
X009660Y063400D02*
X010647Y063400D01*
X009660Y063876D02*
X016220Y063876D01*
X016220Y064034D02*
X009660Y064034D01*
X009660Y061181D02*
X016220Y061181D01*
X016220Y061023D02*
X009660Y061023D01*
X009660Y060864D02*
X016220Y060864D01*
X014001Y057377D02*
X011959Y057377D01*
X011878Y057424D02*
X011583Y057503D01*
X011277Y057503D01*
X010982Y057424D01*
X010718Y057272D01*
X010502Y057056D01*
X010349Y056791D01*
X010270Y056496D01*
X010270Y056191D01*
X010349Y055896D01*
X010502Y055631D01*
X010718Y055415D01*
X010982Y055262D01*
X011277Y055183D01*
X011583Y055183D01*
X011878Y055262D01*
X012142Y055415D01*
X012358Y055631D01*
X012511Y055896D01*
X012590Y056191D01*
X012590Y056496D01*
X012511Y056791D01*
X012358Y057056D01*
X012142Y057272D01*
X011878Y057424D01*
X012195Y057219D02*
X013765Y057219D01*
X013607Y057060D02*
X012353Y057060D01*
X012447Y056902D02*
X013513Y056902D01*
X013436Y056743D02*
X012524Y056743D01*
X012566Y056585D02*
X013394Y056585D01*
X013370Y056426D02*
X012590Y056426D01*
X012590Y056268D02*
X013370Y056268D01*
X013392Y056109D02*
X012568Y056109D01*
X012526Y055951D02*
X013434Y055951D01*
X013509Y055792D02*
X012451Y055792D01*
X012360Y055634D02*
X013600Y055634D01*
X013757Y055475D02*
X012203Y055475D01*
X011972Y055317D02*
X013988Y055317D01*
X015218Y051671D02*
X009660Y051671D01*
X009660Y051513D02*
X015059Y051513D01*
X014901Y051354D02*
X009660Y051354D01*
X009660Y051196D02*
X010933Y051196D01*
X010684Y051037D02*
X009660Y051037D01*
X009660Y050879D02*
X010525Y050879D01*
X010424Y050720D02*
X009660Y050720D01*
X009660Y050562D02*
X010341Y050562D01*
X010299Y050403D02*
X009660Y050403D01*
X009660Y050245D02*
X010270Y050245D01*
X010270Y050086D02*
X009660Y050086D01*
X009660Y049928D02*
X010287Y049928D01*
X010329Y049769D02*
X009660Y049769D01*
X009660Y049611D02*
X010398Y049611D01*
X010489Y049452D02*
X009660Y049452D01*
X009660Y049294D02*
X010639Y049294D01*
X010856Y049135D02*
X009660Y049135D01*
X009660Y048977D02*
X018920Y048977D01*
X018920Y048818D02*
X009660Y048818D01*
X009660Y048660D02*
X018920Y048660D01*
X018920Y048501D02*
X009660Y048501D01*
X009660Y048343D02*
X011441Y048343D01*
X011555Y048373D02*
X011217Y048283D01*
X010913Y048108D01*
X010666Y047860D01*
X010491Y047557D01*
X010400Y047218D01*
X010400Y046868D01*
X010491Y046530D01*
X010666Y046227D01*
X010913Y045979D01*
X011217Y045804D01*
X011555Y045713D01*
X011905Y045713D01*
X012243Y045804D01*
X012547Y045979D01*
X012794Y046227D01*
X012969Y046530D01*
X013060Y046868D01*
X013060Y047218D01*
X012969Y047557D01*
X012794Y047860D01*
X012547Y048108D01*
X012243Y048283D01*
X011905Y048373D01*
X011555Y048373D01*
X012019Y048343D02*
X018920Y048343D01*
X018920Y048184D02*
X012414Y048184D01*
X012628Y048026D02*
X018920Y048026D01*
X018920Y047867D02*
X012787Y047867D01*
X012881Y047709D02*
X018920Y047709D01*
X018920Y047550D02*
X012971Y047550D01*
X013014Y047392D02*
X018920Y047392D01*
X018920Y047233D02*
X013056Y047233D01*
X013060Y047075D02*
X018920Y047075D01*
X018920Y046916D02*
X013060Y046916D01*
X013030Y046758D02*
X018920Y046758D01*
X018920Y046599D02*
X012988Y046599D01*
X012918Y046441D02*
X018887Y046441D01*
X018729Y046282D02*
X012826Y046282D01*
X012691Y046124D02*
X018570Y046124D01*
X018412Y045965D02*
X012523Y045965D01*
X012248Y045807D02*
X018253Y045807D01*
X018095Y045648D02*
X009660Y045648D01*
X009660Y045490D02*
X017936Y045490D01*
X017778Y045331D02*
X009660Y045331D01*
X009660Y045173D02*
X017619Y045173D01*
X020866Y042320D02*
X009660Y042320D01*
X009660Y042478D02*
X021025Y042478D01*
X017855Y039308D02*
X009660Y039308D01*
X009660Y039150D02*
X017696Y039150D01*
X013924Y042954D02*
X012036Y042954D01*
X012240Y043112D02*
X013720Y043112D01*
X013579Y043271D02*
X012381Y043271D01*
X012473Y043429D02*
X013487Y043429D01*
X013424Y043588D02*
X012536Y043588D01*
X012578Y043746D02*
X013382Y043746D01*
X013370Y043905D02*
X012590Y043905D01*
X012590Y044063D02*
X013370Y044063D01*
X013404Y044222D02*
X012556Y044222D01*
X012514Y044380D02*
X013446Y044380D01*
X013534Y044539D02*
X012426Y044539D01*
X012316Y044697D02*
X013644Y044697D01*
X013802Y044856D02*
X012158Y044856D01*
X011895Y045014D02*
X014065Y045014D01*
X011212Y045807D02*
X009660Y045807D01*
X009660Y045965D02*
X010937Y045965D01*
X010769Y046124D02*
X009660Y046124D01*
X009660Y046282D02*
X010634Y046282D01*
X010542Y046441D02*
X009660Y046441D01*
X009660Y046599D02*
X010472Y046599D01*
X010430Y046758D02*
X009660Y046758D01*
X009660Y046916D02*
X010400Y046916D01*
X010400Y047075D02*
X009660Y047075D01*
X009660Y047233D02*
X010404Y047233D01*
X010446Y047392D02*
X009660Y047392D01*
X009660Y047550D02*
X010489Y047550D01*
X010579Y047709D02*
X009660Y047709D01*
X009660Y047867D02*
X010673Y047867D01*
X010832Y048026D02*
X009660Y048026D01*
X009660Y048184D02*
X011046Y048184D01*
X010965Y045014D02*
X009660Y045014D01*
X009660Y044856D02*
X010702Y044856D01*
X010544Y044697D02*
X009660Y044697D01*
X009660Y044539D02*
X010434Y044539D01*
X010346Y044380D02*
X009660Y044380D01*
X009660Y044222D02*
X010304Y044222D01*
X010270Y044063D02*
X009660Y044063D01*
X009660Y043905D02*
X010270Y043905D01*
X010282Y043746D02*
X009660Y043746D01*
X009660Y043588D02*
X010324Y043588D01*
X010387Y043429D02*
X009660Y043429D01*
X009660Y043271D02*
X010479Y043271D01*
X010620Y043112D02*
X009660Y043112D01*
X009660Y042954D02*
X010824Y042954D01*
X010888Y055317D02*
X009660Y055317D01*
X009660Y055475D02*
X010657Y055475D01*
X010500Y055634D02*
X009660Y055634D01*
X009660Y055792D02*
X010409Y055792D01*
X010334Y055951D02*
X009660Y055951D01*
X009660Y056109D02*
X010292Y056109D01*
X010270Y056268D02*
X009660Y056268D01*
X009660Y056426D02*
X010270Y056426D01*
X010294Y056585D02*
X009660Y056585D01*
X009660Y056743D02*
X010336Y056743D01*
X010413Y056902D02*
X009660Y056902D01*
X009660Y057060D02*
X010507Y057060D01*
X010665Y057219D02*
X009660Y057219D01*
X009660Y057377D02*
X010901Y057377D01*
X011344Y058170D02*
X009660Y058170D01*
X009660Y058328D02*
X011001Y058328D01*
X010806Y058487D02*
X009660Y058487D01*
X009660Y058645D02*
X010655Y058645D01*
X010563Y058804D02*
X009660Y058804D01*
X009660Y058962D02*
X010482Y058962D01*
X010439Y059121D02*
X009660Y059121D01*
X009660Y059279D02*
X010400Y059279D01*
X010400Y059438D02*
X009660Y059438D01*
X009660Y059596D02*
X010400Y059596D01*
X010437Y059755D02*
X009660Y059755D01*
X009660Y059913D02*
X010479Y059913D01*
X010557Y060072D02*
X009660Y060072D01*
X009660Y060230D02*
X010649Y060230D01*
X010795Y060389D02*
X009660Y060389D01*
X009660Y060547D02*
X010982Y060547D01*
X011303Y060706D02*
X009660Y060706D01*
X009660Y067046D02*
X016220Y067046D01*
X016220Y067204D02*
X009660Y067204D01*
X009660Y067363D02*
X016220Y067363D01*
X016220Y067521D02*
X009660Y067521D01*
X009660Y070216D02*
X016220Y070216D01*
X016220Y070374D02*
X009660Y070374D01*
X015326Y066887D02*
X016220Y066887D01*
X016220Y066729D02*
X015610Y066729D01*
X015784Y066570D02*
X016220Y066570D01*
X016220Y066412D02*
X015922Y066412D01*
X016014Y066253D02*
X016220Y066253D01*
X016220Y066095D02*
X016086Y066095D01*
X016128Y065936D02*
X016220Y065936D01*
X016220Y065778D02*
X016160Y065778D01*
X016160Y065619D02*
X016220Y065619D01*
X016220Y065461D02*
X016158Y065461D01*
X016116Y065302D02*
X016220Y065302D01*
X016220Y065144D02*
X016073Y065144D01*
X016069Y065130D02*
X015894Y064827D01*
X015736Y064668D02*
X016220Y064668D01*
X016220Y064510D02*
X015527Y064510D01*
X010787Y026311D02*
X009660Y026311D01*
X009660Y026153D02*
X010599Y026153D01*
X010466Y025994D02*
X009660Y025994D01*
X009660Y025836D02*
X010375Y025836D01*
X010319Y025677D02*
X009660Y025677D01*
X009660Y025519D02*
X010276Y025519D01*
X010270Y025360D02*
X009660Y025360D01*
X009660Y025202D02*
X010270Y025202D01*
X010309Y025043D02*
X009660Y025043D01*
X009660Y024885D02*
X010355Y024885D01*
X010447Y024726D02*
X009660Y024726D01*
X009660Y024568D02*
X010565Y024568D01*
X010728Y024409D02*
X009660Y024409D01*
X009660Y024251D02*
X011025Y024251D01*
X011174Y023458D02*
X009660Y023458D01*
X009660Y023300D02*
X010906Y023300D01*
X010747Y023141D02*
X009660Y023141D01*
X009660Y022983D02*
X010621Y022983D01*
X010530Y022824D02*
X009660Y022824D01*
X009660Y022666D02*
X010466Y022666D01*
X010424Y022507D02*
X009660Y022507D01*
X009660Y022349D02*
X010400Y022349D01*
X010400Y022190D02*
X009660Y022190D01*
X009660Y022032D02*
X010410Y022032D01*
X010452Y021873D02*
X009660Y021873D01*
X009660Y021715D02*
X010499Y021715D01*
X010591Y021556D02*
X009660Y021556D01*
X009660Y021398D02*
X010695Y021398D01*
X010853Y021239D02*
X009660Y021239D01*
X009660Y021081D02*
X011083Y021081D01*
M02*
